<?xml version="1.0" encoding="UTF-8" standalone="no"?>
<!-- Created with Inkscape (http://www.inkscape.org/) -->

<svg
   width="36.566662mm"
   height="50.670208mm"
   viewBox="0 0 138.20471 191.50945"
   version="1.1"
   id="svg1"
   inkscape:version="1.2.2 (732a01da63, 2022-12-09)"
   sodipodi:docname="characters.svg"
   xmlns:inkscape="http://www.inkscape.org/namespaces/inkscape"
   xmlns:sodipodi="http://sodipodi.sourceforge.net/DTD/sodipodi-0.dtd"
   xmlns="http://www.w3.org/2000/svg"
   xmlns:svg="http://www.w3.org/2000/svg">
  <sodipodi:namedview
     id="namedview1"
     pagecolor="#ffffff"
     bordercolor="#000000"
     borderopacity="0.25"
     inkscape:showpageshadow="2"
     inkscape:pageopacity="0.0"
     inkscape:pagecheckerboard="0"
     inkscape:deskcolor="#d1d1d1"
     inkscape:document-units="mm"
     inkscape:zoom="3.92"
     inkscape:cx="87.627552"
     inkscape:cy="656.76021"
     inkscape:window-width="1827"
     inkscape:window-height="1057"
     inkscape:window-x="-9"
     inkscape:window-y="-9"
     inkscape:window-maximized="1"
     inkscape:current-layer="svg1"
     showgrid="true">
    <inkscape:grid
       id="grid11"
       units="mm"
       originx="0"
       originy="0"
       spacingx="3.7795276"
       spacingy="3.7795276"
       empcolor="#0099e5"
       empopacity="0.30196078"
       color="#0099e5"
       opacity="0.14901961"
       empspacing="5"
       dotted="false"
       gridanglex="30"
       gridanglez="30"
       visible="true" />
  </sodipodi:namedview>
  <defs
     id="defs1">
    <linearGradient
       id="linearGradient4322"
       inkscape:swatch="solid">
      <stop
         style="stop-color:#2b1500;stop-opacity:1;"
         offset="0"
         id="stop4320" />
    </linearGradient>
  </defs>
  <g
     inkscape:label="Layer 1"
     inkscape:groupmode="layer"
     id="layer1"
     transform="translate(-1412.6401,-44.409374)">
    <g
       id="g226"
       inkscape:label="heather mcnamara"
       transform="matrix(2.8346452,0,0,2.8346452,1754.9303,469.3635)"
       style="display:inline"
       inkscape:highlight-color="#ffff00"
       inkscape:export-filename=".\mcnamara.svg"
       inkscape:export-xdpi="96"
       inkscape:export-ydpi="96">
      <g
         id="g173"
         transform="translate(50.598352,-0.2277988)"
         inkscape:label="body"
         style="display:inline">
        <path
           style="display:inline;fill:#552200;stroke:#000000;stroke-width:1.5;stroke-linecap:round;stroke-linejoin:round;stroke-dasharray:none;stroke-opacity:1;paint-order:fill markers stroke"
           d="m -144.54009,-139.91722 c -1.47613,-1.85104 -3.60585,-3.48438 -5.93682,-3.89897 -4.30461,-0.76563 -9.7106,-0.14139 -12.77391,2.97822 -6.99672,7.12531 -1.33905,11.14867 -5.23907,19.8292 -3.63724,8.09568 -2.6569,12.48914 3.61666,16.37369 2.36313,1.46323 6.33367,2.23692 6.68455,4.984567 0.35309,2.76493 -2.82008,3.48484 -5.10198,3.731109 1.72083,1.83459 7.62245,1.209628 10.03984,-1.135426 2.1969,-2.131159 2.53311,-5.46828 1.3085,-9.08855 -0.65559,-2.1277 -1.86159,-3.99925 -2.94415,-5.91989 -1.02438,-2.47072 1.04644,-4.86312 2.7821,-6.38428 2.11639,-1.85484 4.43931,-3.57916 5.78201,-6.1201 2.06263,-3.28381 3.64719,-7.12404 3.37945,-11.06329 -0.29645,-1.16806 -0.64653,-3.09419 -1.59718,-4.28628 z"
           id="path28"
           sodipodi:nodetypes="aasssscaccscca" />
        <path
           style="display:inline;fill:#ffffff;fill-opacity:1;stroke:#000000;stroke-width:1.5;stroke-linecap:round;stroke-linejoin:round;stroke-miterlimit:1001;stroke-dasharray:none;stroke-opacity:1;paint-order:fill markers stroke"
           d="m -148.03164,-104.78796 c -2.20975,10.060346 -2.32068,11.528775 -2.99649,15.058582 -0.40584,2.11975 -0.97436,6.021578 -0.61675,6.445311 0.35761,0.423733 3.83047,0.214006 4.42334,-0.261077 0.59287,-0.475088 0.17338,-3.821811 0.55535,-4.304568 0.382,-0.482757 4.75842,-0.644131 5.05352,-0.321919 0.2951,0.322212 0.25973,3.770873 0.45001,4.258186 0.50176,0.401375 3.99232,-0.24324 3.99232,-0.24324 0,0 -1.3145,-7.144034 -1.67095,-10.754241 -0.31368,-3.177085 -0.40867,-9.568874 -0.40867,-9.568874"
           id="path172"
           sodipodi:nodetypes="cszzzzccac"
           inkscape:label="body" />
        <ellipse
           style="display:inline;fill:#ffffff;fill-opacity:1;stroke:#000000;stroke-width:1.5;stroke-linecap:round;stroke-linejoin:round;stroke-miterlimit:1001;stroke-dasharray:none;stroke-opacity:1;paint-order:fill markers stroke"
           id="ellipse172"
           ry="15.393556"
           rx="16.682619"
           cy="-119.60479"
           cx="-142.77336"
           inkscape:label="head"
           transform="translate(1.0967844e-5)" />
      </g>
      <g
         id="g174"
         inkscape:label="eyes"
         transform="translate(-34.322565,-0.0667206)"
         style="display:inline">
        <ellipse
           style="fill:#000000;fill-opacity:1;stroke:none;stroke-width:0.593632;stroke-linecap:round;stroke-linejoin:round;stroke-miterlimit:1001;stroke-dasharray:none;stroke-opacity:1;paint-order:stroke fill markers"
           id="ellipse173"
           cx="-86.904243"
           cy="-98.34063"
           rx="2.1079104"
           ry="2.7033648"
           transform="matrix(0.96864121,0.2484637,-0.20869257,0.97798129,0,0)"
           inkscape:label="right" />
        <ellipse
           style="fill:#000000;fill-opacity:1;stroke:none;stroke-width:0.509367;stroke-linecap:round;stroke-linejoin:round;stroke-miterlimit:1001;stroke-dasharray:none;stroke-opacity:1;paint-order:stroke fill markers"
           id="ellipse174"
           cx="-36.557335"
           cy="-122.18265"
           rx="1.7384969"
           ry="2.4132938"
           transform="matrix(0.99463321,-0.10346393,0.09707266,0.9952773,0,0)"
           inkscape:label="left" />
      </g>
      <g
         id="g28">
        <path
           style="fill:#808000;stroke:#000000;stroke-width:1.5;stroke-linecap:round;stroke-linejoin:round;stroke-dasharray:none;paint-order:fill markers stroke"
           d="m -101.2332,-86.568767 c 0,0 -0.34078,1.974899 -0.0455,3.250596 1.312326,0.461679 3.968497,0.05503 5.032044,-0.264991 0.113341,-1.809425 -0.0082,-2.937732 -0.0082,-2.937732 z"
           id="path215"
           sodipodi:nodetypes="ccccc" />
        <path
           style="fill:#808000;stroke:#000000;stroke-width:1.5;stroke-linecap:round;stroke-linejoin:round;stroke-dasharray:none;paint-order:fill markers stroke"
           d="m -90.731502,-86.642274 c 0,0 -0.164985,1.430903 0.25097,2.444005 1.262202,0.403802 3.264584,0.08503 4.12972,-0.16925 -0.130304,-1.741568 -0.493742,-2.666933 -0.493742,-2.666933 z"
           id="path216"
           sodipodi:nodetypes="ccccc" />
        <path
           style="fill:#ffff00;stroke:#000000;stroke-width:1.5;stroke-linecap:round;stroke-linejoin:round;stroke-dasharray:none;paint-order:fill markers stroke"
           d="m -100.79141,-93.776841 -1.60778,5.461536 c 0,0 5.081521,0.154096 7.623131,0.16344 1.133049,0.0042 2.268752,0.0342 3.398832,-0.04787 1.95062,-0.141669 5.817064,-0.765937 5.817064,-0.765937 l -1.531876,-4.803661 c -4.599438,0.971573 -8.884206,0.672779 -13.699371,-0.0075 z"
           id="path218"
           sodipodi:nodetypes="ccsscccc" />
        <path
           style="fill:#808000;stroke:#000000;stroke-width:1.5;stroke-linecap:round;stroke-linejoin:round;stroke-dasharray:none;paint-order:fill markers stroke"
           d="m -98.053537,-105.08604 -2.853433,11.731825 c 0,0 4.92046,0.837432 7.467893,0.765938 2.452115,-0.06882 6.558345,-1.005292 6.558345,-1.005292 0,0 -0.762907,-3.130238 -0.957429,-5.170082 -0.145548,-1.526279 0.115577,-6.130909 0.115577,-6.130909 l -2.931748,0.56624 c 0,0 -0.627069,1.57909 -1.324686,1.92646 -0.643418,0.32038 -1.551815,0.29638 -2.154184,-0.0958 -0.627144,-0.40828 -0.998776,-2.01059 -0.998776,-2.01059 z"
           id="path219"
           sodipodi:nodetypes="ccscsccaacc" />
        <path
           style="fill:#0000ff;stroke:#000000;stroke-width:5.66929;stroke-linecap:round;stroke-linejoin:round;stroke-dasharray:none;paint-order:fill markers stroke"
           d="m 1054.0092,226.88654 c 0,0 -1.1005,9.99672 -1.1761,15.01721 -0.095,6.27878 0.9047,18.81675 0.9047,18.81675"
           id="path226"
           sodipodi:nodetypes="cac"
           transform="matrix(0.26458333,0,0,0.26458333,-371.87473,-161.66438)" />
      </g>
      <path
         style="display:inline;fill:#ffff00;stroke:#000000;stroke-width:1.5;stroke-linecap:round;stroke-linejoin:round;stroke-dasharray:none;stroke-opacity:1;paint-order:fill markers stroke"
         d="m -92.49445,-139.71502 c 0,0 -0.921419,-2.54289 -0.607484,-3.77976 0.426227,-1.67929 1.739574,-3.14309 3.172301,-4.11724 1.548717,-1.05302 5.39967,-1.5524 5.39967,-1.5524 0,0 -1.746148,2.1945 -2.362359,3.44228 -0.545017,1.10362 -0.48652,2.4714 -1.147418,3.50978 -0.794832,1.24881 -3.239797,3.03731 -3.239797,3.03731 0,0 3.842515,-1.95898 5.939631,-2.15987 0.99782,-0.0956 2.082749,0.006 2.969816,0.47247 1.647743,0.86707 3.847253,4.04975 3.847253,4.04975 0,0 -4.532603,0.63019 -6.749574,0.40497 -2.090181,-0.21234 -6.142116,-1.68739 -6.142116,-1.68739 z"
         id="path31"
         sodipodi:nodetypes="csscsscsscscc" />
      <path
         style="display:inline;fill:#ffff00;stroke:#000000;stroke-width:1.5;stroke-linecap:round;stroke-linejoin:round;stroke-dasharray:none;stroke-opacity:1;paint-order:fill markers stroke"
         d="m -101.7888,-132.69895 c -0.87884,0.64805 -1.97318,-1.59988 -1.82758,-2.73234 0.18656,-1.45063 2.1573,-2.22 3.47719,-2.88399 1.636464,-0.82324 3.477471,-1.22771 5.263434,-1.24095 1.418076,-0.0105 3.21782,-0.3564 4.14559,0.92365 0.646049,0.89137 0.817145,3.65916 -0.216725,3.44329 -5.017379,-1.0476 -7.513839,0.0362 -10.841909,2.49034 z"
         id="path29"
         sodipodi:nodetypes="ssaasss" />
      <path
         style="display:inline;fill:#552200;stroke:#000000;stroke-width:1.5;stroke-linecap:round;stroke-linejoin:round;stroke-dasharray:none;stroke-opacity:1;paint-order:fill markers stroke"
         d="m -90.972655,-130.08969 c -0.632582,1.82174 -1.109456,5.23548 -1.612898,7.98816 -1.217797,0.0777 -3.500466,0.36819 -4.96471,0.32599 -0.01048,-2.40427 0.156586,-3.64583 -0.250695,-6.26393 -0.775943,2.71528 -1.093463,3.8357 -1.489698,6.61284 -1.863084,0.34073 -2.778144,0.36342 -5.531504,0.80062 0.45405,-2.51043 0.54137,-2.95386 1.35066,-5.39807 -1.58664,5.8335 -0.97814,8.08082 0.31859,17.1823 -2.27734,0.13173 -5.12114,0.16597 -7.48859,0.12028 -0.0148,-5.80363 -0.25602,-7.07277 0.1581,-12.36539 0.37874,-4.84043 2.77827,-9.41804 6.39486,-12.28953 3.81237,-3.02692 9.298065,-4.07267 14.145676,-3.62873 4.403781,0.4033 8.927931,2.43202 12.038028,5.57578 2.731636,2.7612 4.023774,6.81614 4.783163,10.62526 0.76818,3.85321 0.18823,8.44413 -0.34688,11.78202 -2.032934,-0.11217 -4.393803,0.0371 -6.028062,-0.0422 2.407392,-9.3324 1.230826,-13.74317 -2.026744,-18.71469 0.763945,2.85988 0.79153,4.01837 1.23293,6.21206 -2.877628,-0.28577 -5.180269,-0.53317 -8.070843,-0.56254 0,0 -1.135108,-5.56343 -2.611386,-7.96018 z"
         id="path27"
         sodipodi:nodetypes="cccccccccsaaaaccccccc" />
    </g>
  </g>
</svg>
