<?xml version="1.0" encoding="UTF-8" standalone="no"?>
<!-- Created with Inkscape (http://www.inkscape.org/) -->

<svg
   width="500mm"
   height="300mm"
   viewBox="0 0 1889.7638 1133.8583"
   version="1.1"
   id="svg1"
   xml:space="preserve"
   inkscape:version="1.3 (0e150ed6c4, 2023-07-21)"
   sodipodi:docname="thumb-drought.svg"
   xmlns:inkscape="http://www.inkscape.org/namespaces/inkscape"
   xmlns:sodipodi="http://sodipodi.sourceforge.net/DTD/sodipodi-0.dtd"
   xmlns="http://www.w3.org/2000/svg"
   xmlns:svg="http://www.w3.org/2000/svg"><sodipodi:namedview
     id="namedview1"
     pagecolor="#ffffff"
     bordercolor="#000000"
     borderopacity="0.25"
     inkscape:showpageshadow="2"
     inkscape:pageopacity="0.0"
     inkscape:pagecheckerboard="0"
     inkscape:deskcolor="#d1d1d1"
     inkscape:document-units="mm"
     inkscape:zoom="0.24455162"
     inkscape:cx="811.68958"
     inkscape:cy="533.62967"
     inkscape:window-width="1366"
     inkscape:window-height="745"
     inkscape:window-x="-8"
     inkscape:window-y="-8"
     inkscape:window-maximized="1"
     inkscape:current-layer="layer1" /><defs
     id="defs1"><filter
       inkscape:collect="always"
       style="color-interpolation-filters:sRGB"
       id="filter59"
       x="-0.61875003"
       y="-0.61875003"
       width="2.2375001"
       height="2.2375001"><feGaussianBlur
         inkscape:collect="always"
         stdDeviation="75.590554"
         id="feGaussianBlur59" /></filter></defs><g
     inkscape:label="Layer 1"
     inkscape:groupmode="layer"
     id="layer1"><rect
       style="fill:#ffcc99;fill-opacity:1;stroke:#421b00;stroke-width:11.3386;stroke-linecap:round;stroke-linejoin:round;stroke-dasharray:none;stroke-opacity:1"
       id="rect58"
       width="2130.4297"
       height="952.7641"
       x="210.72191"
       y="-1034.2585"
       transform="translate(-325.21716,977.01094)" /><path
       style="fill:#a05a2c;stroke-width:11.33858282;stroke-dasharray:none;stroke:#421b00;stroke-opacity:1"
       d="m 248.57632,-343.83946 c 0,0 660.95655,-36.08853 993.65528,-36.22084 328.2244,-0.13053 980.3656,34.17628 980.3656,34.17628 l -1.0223,521.36237 -1972.99858,-2.04456 z"
       id="path4"
       sodipodi:nodetypes="cscccc"
       transform="translate(-289.46748,1006.2763)" /><g
       id="g58"
       transform="translate(0.70158097,-11.976745)"><path
         style="fill:#a05a2c;fill-opacity:0;stroke:#421b00;stroke-width:11.3386;stroke-linecap:round;stroke-linejoin:round;stroke-dasharray:none;stroke-opacity:1"
         d="m 62.359024,674.7042 -13.289628,11.24507 1.022279,28.62381 -52.1362331,24.5347 13.2896281,27.60153 -13.2896281,16.35647 8.1782326,26.57925 78.7154895,-3.06683 -19.423303,28.62381 -31.690652,19.4233 44.98028,11.24507 11.24507,16.35647 -31.690651,64.40358 -80.760048,11.24507 -21.467861,71.5595 85.871444,-23.5124 -5.111396,64.4036 -33.7352098,47.0248 120.6289328,46.0026 -42.935723,72.5818 -49.069396,13.2896 -42.935721,-97.1165"
         id="path6"
         sodipodi:nodetypes="cccccccccccccccccccccc" /><path
         style="display:inline;fill:#a05a2c;fill-opacity:0;stroke:#421b00;stroke-width:11.3386;stroke-linecap:round;stroke-linejoin:round;stroke-dasharray:none;stroke-opacity:1"
         d="m 63.611722,675.15168 116.235238,-12.93002 41.34834,23.05007 -20.24009,11.56577 -75.90035,13.73434 -73.731766,-1.44572 71.350396,1.35784 -11.71441,64.7839 -31.082998,33.97444 15.5415,-16.62579 33.251578,50.96166 -11.56577,30.36014 -26.745831,9.39719 -31.083,64.33458 39.034465,33.25158 -56.383116,25.30014 -3.614303,64.3345 109.874785,-18.7943 50.60024,4.3371 -25.30012,64.3346 -49.15451,44.0945"
         id="path7"
         sodipodi:nodetypes="ccccccccccccccccccccc" /><path
         style="fill:#a05a2c;fill-opacity:0;stroke:#421b00;stroke-width:11.3386;stroke-linecap:round;stroke-linejoin:round;stroke-dasharray:none;stroke-opacity:1"
         d="m 281.0687,660.3224 -30.95898,28.56363 -29.55301,-2.93676 -19.4233,10.73393 -2.81127,26.06811 37.31319,28.11268 -51.6251,32.20179 -76.15979,-0.51114"
         id="path8"
         sodipodi:nodetypes="cccccccc" /><path
         style="fill:#a05a2c;fill-opacity:0;stroke:#421b00;stroke-width:11.3386;stroke-linecap:round;stroke-linejoin:round;stroke-dasharray:none;stroke-opacity:1"
         d="m 129.3183,843.38024 65.42586,-12.26735 1.53342,54.18079 33.73521,7.15596 -37.82432,32.20179 -85.87145,35.26863 -8.178228,20.95672"
         id="path9" /><path
         style="fill:#a05a2c;fill-opacity:0;stroke:#421b00;stroke-width:11.3386;stroke-linecap:round;stroke-linejoin:round;stroke-dasharray:none;stroke-opacity:1"
         d="m 90.982838,982.4102 8.689372,24.5347 45.49142,4.6002 3.57797,40.3801"
         id="path10" /><path
         style="fill:#a05a2c;fill-opacity:0;stroke:#421b00;stroke-width:11.3386;stroke-linecap:round;stroke-linejoin:round;stroke-dasharray:none;stroke-opacity:1"
         d="m 280.36004,659.11445 44.98027,0.7667 -9.45608,35.77977 -21.72343,28.62381 -58.52547,27.60154 35.77976,15.07861 -44.79833,51.6746 -32.1673,12.28863"
         id="path11"
         sodipodi:nodetypes="cccccccc" /><path
         style="fill:#a05a2c;fill-opacity:0;stroke:#421b00;stroke-width:11.3386;stroke-linecap:round;stroke-linejoin:round;stroke-dasharray:none;stroke-opacity:1"
         d="m 295.2885,725.02905 22.04724,20.60153 -45.90164,21.68581"
         id="path12" /><path
         style="fill:#a05a2c;fill-opacity:0;stroke:#421b00;stroke-width:11.3386;stroke-linecap:round;stroke-linejoin:round;stroke-dasharray:none;stroke-opacity:1"
         d="m 227.33962,819.00091 88.5504,5.78289 -15.18007,18.43294 9.39719,18.07151 -80.09435,30.65025 -39.17763,33.3229 22.40868,26.74584 -69.10249,61.07136"
         id="path13" /><path
         style="fill:#a05a2c;fill-opacity:0;stroke:#421b00;stroke-width:11.3386;stroke-linecap:round;stroke-linejoin:round;stroke-dasharray:none;stroke-opacity:1"
         d="m 403.28909,652.72519 -78.20435,6.13368 -7.15595,33.73521 66.44814,8.17823 -18.91216,37.82433 -49.0694,8.17823 49.01059,-8.3729 29.27585,42.64877 -75.53892,43.0102"
         id="path14"
         sodipodi:nodetypes="ccccccccc" /><path
         style="fill:#a05a2c;fill-opacity:0;stroke:#421b00;stroke-width:11.3386;stroke-linecap:round;stroke-linejoin:round;stroke-dasharray:none;stroke-opacity:1"
         d="m 277.21699,876.82975 68.31031,27.4687 -42.9327,67.37782 -70.53725,9.20051 -18.40102,-28.11268"
         id="path15" /><path
         style="fill:#a05a2c;fill-opacity:0;stroke:#421b00;stroke-width:11.3386;stroke-linecap:round;stroke-linejoin:round;stroke-dasharray:none;stroke-opacity:1"
         d="m 263.748,979.8545 -1.02228,30.1572 -63.89244,47.536 -21.979,57.7588 9.20051,12.2673 105.29474,-16.8676 -10.73393,40.8912 18.91217,56.2253"
         id="path16" /><path
         style="fill:#a05a2c;fill-opacity:0;stroke:#421b00;stroke-width:11.3386;stroke-linecap:round;stroke-linejoin:round;stroke-dasharray:none;stroke-opacity:1"
         d="m 402.26681,652.21406 49.06941,-0.51114 3.06684,32.20179 -31.17952,20.44558 -38.33547,-3.57798 38.84661,3.57798 2.5557,55.20307 -29.13496,20.44558 6.64481,23.00128 -49.06939,54.69193 -44.98028,3.57798"
         id="path17"
         sodipodi:nodetypes="ccccccccccc" /><path
         style="fill:#a05a2c;fill-opacity:0;stroke:#421b00;stroke-width:11.3386;stroke-linecap:round;stroke-linejoin:round;stroke-dasharray:none;stroke-opacity:1"
         d="m 355.75312,858.71443 -10.22279,47.53598 -20.44559,34.75748 16.35647,24.02356 0.51114,28.62382 39.86888,48.04713 -31.17951,15.3342 1.53342,22.4901 -58.69379,31.5098 65.05744,2.1686 37.58874,-10.12 28.19157,55.6602"
         id="path18" /><path
         style="fill:#a05a2c;fill-opacity:0;stroke:#421b00;stroke-width:11.3386;stroke-linecap:round;stroke-linejoin:round;stroke-dasharray:none;stroke-opacity:1"
         d="m 519.31778,653.74748 -4.60026,14.82304 -59.80332,13.28963 -15.33419,11.75621 73.60409,23.51242 -86.38258,40.89116 -29.6461,22.49014 6.13367,21.46786 102.73906,15.33419 -14.31191,29.64609 -35.77976,8.68937 -100.6945,2.04456 101.71677,-1.53342 1.02228,26.57926 21.979,12.77849 -29.13495,53.15851 -108.36159,16.35646 108.87273,-15.84532 1.53342,76.67087 -35.26863,20.9568 -38.33548,-6.1337 38.33548,6.6448 4.60026,48.0471"
         id="path20"
         sodipodi:nodetypes="ccccccccccccccccccccccc" /><path
         style="fill:#a05a2c;fill-opacity:0;stroke:#421b00;stroke-width:11.3386;stroke-linecap:round;stroke-linejoin:round;stroke-dasharray:none;stroke-opacity:1"
         d="m 462.58129,1148.0194 69.51498,-41.9134 24.53469,-63.3813 -55.71421,-33.2241 -47.53597,16.8676"
         id="path21" /><path
         style="fill:#a05a2c;fill-opacity:0;stroke:#421b00;stroke-width:11.3386;stroke-linecap:round;stroke-linejoin:round;stroke-dasharray:none;stroke-opacity:1"
         d="m 557.1421,1042.2135 51.6251,-57.75875 1.02228,-54.69193 -35.77977,-22.49014 -93.0274,-11.7562 92.51626,12.26734 41.4023,-50.09167 -67.98156,-44.98028 -40.38002,5.1114 40.89116,-5.1114 -39.35774,-47.53598 8.68937,-47.53597 28.87938,-18.6566 -28.11267,-28.62381"
         id="path22" /><path
         style="fill:#a05a2c;fill-opacity:0;stroke:#421b00;stroke-width:11.3386;stroke-linecap:round;stroke-linejoin:round;stroke-dasharray:none;stroke-opacity:1"
         d="m 532.74817,1108.1451 49.87737,18.7944 52.76882,-33.9745 26.02297,-43.3716 46.98593,-23.1315 -23.85439,-28.91445 -6.50575,-41.92591 -63.61172,0.72286"
         id="path23" /><path
         style="fill:#a05a2c;fill-opacity:0;stroke:#421b00;stroke-width:11.3386;stroke-linecap:round;stroke-linejoin:round;stroke-dasharray:none;stroke-opacity:1"
         d="m 680.21171,957.79012 54.93739,-11.56576 4.33716,26.74583 -5.06002,-26.02297 20.24009,-10.12005 5.06003,-24.57726 39.75732,-23.13153 -19.51723,11.56577 -34.6973,-46.98593 -50.60024,2.89144 -78.79179,-1.44572 4.33717,-33.25158"
         id="path24" /><path
         style="fill:#a05a2c;fill-opacity:0;stroke:#421b00;stroke-width:11.3386;stroke-linecap:round;stroke-linejoin:round;stroke-dasharray:none;stroke-opacity:1"
         d="m 550.09682,811.77231 50.60023,-23.13154 -13.73434,-27.46869 15.90293,-55.66026 -57.82884,-7.2286 58.5517,6.50574 36.14302,-11.56577 16.83751,-33.02481 -55.87198,-13.96112 -62.166,44.09449"
         id="path25"
         sodipodi:nodetypes="cccccccccc" /><path
         style="fill:#a05a2c;fill-opacity:0;stroke:#421b00;stroke-width:11.3386;stroke-linecap:round;stroke-linejoin:round;stroke-dasharray:none;stroke-opacity:1"
         d="m 596.35989,788.64077 40.48019,-13.73434 15.90293,-16.62579 26.02297,2.89144 25.30012,-31.80586 -65.7803,-36.14303 65.05744,35.42017 31.083,-13.01149 -6.50574,-50.60023 -72.28605,-5.06003"
         id="path26" /><path
         style="fill:#a05a2c;fill-opacity:0;stroke:#421b00;stroke-width:11.3386;stroke-linecap:round;stroke-linejoin:round;stroke-dasharray:none;stroke-opacity:1"
         d="m 675.87454,761.89494 3.6143,20.96295 65.78031,13.73435 2.16858,33.97444 -2.89144,-33.97444 59.27455,-17.34865 -18.07151,-44.09449 5.78289,-28.91442 h -57.82884 l -6.29402,-40.72823 60.14713,-25.05207 84.14815,-1.49362 -3.27856,21.94268 -12.77849,12.77849 13.28963,27.60153 -76.67093,5.1114"
         id="path27"
         sodipodi:nodetypes="cccccccccccccccc" /><path
         style="fill:#a05a2c;fill-opacity:0;stroke:#421b00;stroke-width:11.3386;stroke-linecap:round;stroke-linejoin:round;stroke-dasharray:none;stroke-opacity:1"
         d="m 748.88345,859.4811 20.96295,-15.90293 71.56319,9.39719 44.09449,-37.58875 -65.05745,-5.78288 -13.01148,-28.91442"
         id="path28" /><path
         style="fill:#a05a2c;fill-opacity:0;stroke:#421b00;stroke-width:11.3386;stroke-linecap:round;stroke-linejoin:round;stroke-dasharray:none;stroke-opacity:1"
         d="m 845.4248,853.60303 -11.24507,39.86889 50.09168,78.71549 -10.2228,53.15849 -29.64609,19.4233 -78.71549,15.3342 -14.3119,-29.6461 -42.93572,-6.1337 43.15477,6.114 -18.25223,35.0587 -30.52508,21.6975 -49.58053,-15.8453"
         id="path29" /><path
         style="fill:#a05a2c;fill-opacity:0;stroke:#421b00;stroke-width:11.3386;stroke-linecap:round;stroke-linejoin:round;stroke-dasharray:none;stroke-opacity:1"
         d="m 717.12878,1079.0156 -2.5557,45.4914 -46.5137,30.1572 -87.40486,-27.0904"
         id="path30" /><path
         style="fill:#a05a2c;fill-opacity:0;stroke:#421b00;stroke-width:11.3386;stroke-linecap:round;stroke-linejoin:round;stroke-dasharray:none;stroke-opacity:1"
         d="m 861.64968,678.04312 47.70879,5.06003 28.19156,-18.79437 45.54021,2.89144 -0.72286,-20.96296 1.44572,32.52872 14.45721,20.96296 -46.98593,33.97444 -81.68323,-35.42016"
         id="path31" /><path
         style="fill:#a05a2c;fill-opacity:0;stroke:#421b00;stroke-width:11.3386;stroke-linecap:round;stroke-linejoin:round;stroke-dasharray:none;stroke-opacity:1"
         d="m 949.1158,732.25766 -18.07151,42.64877 -43.37163,43.37162 74.45463,6.50575 18.07151,16.62579 -25.30012,46.98593 -105.53763,23.85439"
         id="path32" /><path
         style="fill:#a05a2c;fill-opacity:0;stroke:#421b00;stroke-width:11.3386;stroke-linecap:round;stroke-linejoin:round;stroke-dasharray:none;stroke-opacity:1"
         d="m 933.93573,769.12354 39.75732,10.12005 -10.8429,45.54021"
         id="path33" /><path
         style="fill:#a05a2c;fill-opacity:0;stroke:#421b00;stroke-width:11.3386;stroke-linecap:round;stroke-linejoin:round;stroke-dasharray:none;stroke-opacity:1"
         d="m 954.80866,889.3828 78.71544,38.84661 -37.82428,56.22534 -113.47297,-11.24507 114.49525,11.24507 -19.93444,88.42715 -25.04584,35.2686 -110.33223,-61.4486 -23.13154,5.0601 -25.30011,109.1519 -72.28605,-41.9259"
         id="path34" /><path
         style="fill:#a05a2c;fill-opacity:0;stroke:#421b00;stroke-width:11.3386;stroke-linecap:round;stroke-linejoin:round;stroke-dasharray:none;stroke-opacity:1"
         d="m 983.8131,654.18873 20.2401,-11.56577 71.5632,7.22861 26.7458,26.74583 -7.2286,49.15451 -57.106,18.07152 -58.55166,-24.57726"
         id="path35" /><path
         style="fill:#a05a2c;fill-opacity:0;stroke:#421b00;stroke-width:11.3386;stroke-linecap:round;stroke-linejoin:round;stroke-dasharray:none;stroke-opacity:1"
         d="m 974.41591,779.96645 94.69469,-2.16858 23.1316,54.93739 -109.87482,7.95147 110.59762,-7.95147 31.8059,6.50575 22.4087,33.97444 -36.1431,14.45721 -13.0115,44.81735 -64.3345,-5.06003"
         id="path36" /><path
         style="fill:#a05a2c;fill-opacity:0;stroke:#421b00;stroke-width:11.3386;stroke-linecap:round;stroke-linejoin:round;stroke-dasharray:none;stroke-opacity:1"
         d="m 1114.6508,1140.6738 -49.1545,-77.3461 -49.8774,-33.2515 -29.63722,3.6143 51.32312,-6.5058 34.6973,-27.46867 85.2975,-17.34865 3.6143,84.57462 20.963,36.5045 -11.5658,31.4444 11.1879,-30.5739 41.6579,0.7667 10.2228,21.7234 -36.802,19.6789 35.7797,-20.4456 54.1808,0.5111 40.8912,-13.8007 -30.6684,-58.2699 -31.1795,-16.8676 -13.8008,-52.64741 -95.0719,-1.02228 1.5334,-45.49141 -60.8256,-5.62254 59.8033,5.62254 21.4679,-32.71293 41.5007,-2.88654 -7.2286,-53.49168 -66.8646,24.21583 -20.963,-34.6973 2.53,-17.34865 35.0588,-7.59004 2.1685,-31.083 -32.1673,-26.74584 -65.7803,20.96296 66.7655,-21.61077 13.2896,-39.86888 -43.958,-19.93444 44.2136,20.06222 89.1938,11.62843 -71.5595,55.96978"
         id="path37" /><path
         style="fill:#a05a2c;fill-opacity:0;stroke:#421b00;stroke-width:11.3386;stroke-linecap:round;stroke-linejoin:round;stroke-dasharray:none;stroke-opacity:1"
         d="m 1197.057,643.70725 40.4801,82.04466 -23.1315,21.68582 29.6373,24.57725 -1.4458,20.96296 41.9259,28.19156 -44.0944,4.33716 -75.9004,-18.79437 76.263,19.03364 -27.8313,24.33798 6.5057,52.22136 89.6347,21.14898 8.6743,43.0102 -65.0574,18.79437"
         id="path38"
         sodipodi:nodetypes="cccccccccccccc" /><path
         style="fill:#a05a2c;fill-opacity:0;stroke:#421b00;stroke-width:11.3386;stroke-linecap:round;stroke-linejoin:round;stroke-dasharray:none;stroke-opacity:1"
         d="m 1327.4294,1112.7508 34.2463,-8.6894 -12.7785,-60.3145 32.2018,-36.2909 -5.1114,-34.75745 -58.781,-7.15596 -7.156,-40.89116 51.114,-26.57926 -76.6416,-76.17981 40.4802,1.44572 75.1775,-38.31161 -140.9578,-3.6143"
         id="path39" /><path
         style="fill:#a05a2c;fill-opacity:0;stroke:#421b00;stroke-width:11.3386;stroke-linecap:round;stroke-linejoin:round;stroke-dasharray:none;stroke-opacity:1"
         d="m 1316.3289,761.17208 -78.7918,-33.97444 52.046,-10.12005 33.9744,-18.07151 60.7203,35.42016 26.7458,-10.84291 36.143,0.72286 28.9145,15.18007 22.4086,31.083 -100.4776,14.45721 19.5173,51.3231 28.1915,15.18006 -25.3001,39.75733 -60.7203,7.95147 60.7563,-7.5555 17.1231,-0.51114 37.5688,86.63815 -34.2464,25.04586 -58.781,-10.22281 58.2699,10.22281 28.6238,79.7377 -27.6015,20.4456 -79.7378,1.0223 -37.3132,42.9357"
         id="path40" /><path
         style="fill:#a05a2c;fill-opacity:0;stroke:#421b00;stroke-width:11.3386;stroke-linecap:round;stroke-linejoin:round;stroke-dasharray:none;stroke-opacity:1"
         d="m 1498.6611,771.30957 69.515,-3.57798 -30.1572,-43.44686 -48.5583,31.17951"
         id="path41" /><path
         style="fill:#a05a2c;fill-opacity:0;stroke:#421b00;stroke-width:11.3386;stroke-linecap:round;stroke-linejoin:round;stroke-dasharray:none;stroke-opacity:1"
         d="m 1468.5039,777.95438 31.1795,45.49142 -7.156,30.15723 -47.5359,-3.06683"
         id="path42" /><path
         style="fill:#a05a2c;fill-opacity:0;stroke:#421b00;stroke-width:11.3386;stroke-linecap:round;stroke-linejoin:round;stroke-dasharray:none;stroke-opacity:1"
         d="m 1467.9927,1081.5713 93.0274,53.1585 50.0917,-28.6238 -35.7798,-52.1363 -58.2699,-42.9357"
         id="path43" /><path
         style="fill:#a05a2c;fill-opacity:0;stroke:#421b00;stroke-width:11.3386;stroke-linecap:round;stroke-linejoin:round;stroke-dasharray:none;stroke-opacity:1"
         d="m 1559.9979,1039.6578 38.8466,-4.0891 -13.2897,-77.6932 -103.2501,-7.15596"
         id="path44" /><path
         style="fill:#a05a2c;fill-opacity:0;stroke:#421b00;stroke-width:11.3386;stroke-linecap:round;stroke-linejoin:round;stroke-dasharray:none;stroke-opacity:1"
         d="m 1458.7922,925.16257 43.958,-10.22279 12.2674,-12.26735 v -28.62382 l 44.9803,-5.11139 49.0694,23.51242 12.2673,29.64609 -34.7575,36.80205"
         id="path45" /><path
         style="fill:#a05a2c;fill-opacity:0;stroke:#421b00;stroke-width:11.3386;stroke-linecap:round;stroke-linejoin:round;stroke-dasharray:none;stroke-opacity:1"
         d="m 1558.4872,868.87829 -7.9515,-46.98593 -37.5888,0.72286 h 36.8659 l 31.083,-36.14303 63.6118,6.50575 18.0715,-28.91442 -26.7459,-26.74584 -86.7432,2.16858"
         id="path46" /><path
         style="fill:#a05a2c;fill-opacity:0;stroke:#421b00;stroke-width:11.3386;stroke-linecap:round;stroke-linejoin:round;stroke-dasharray:none;stroke-opacity:1"
         d="m 1551.2586,821.89236 80.9603,8.67432 26.023,-12.28863 -15.1801,-25.30011"
         id="path47" /><path
         style="fill:#a05a2c;fill-opacity:0;stroke:#421b00;stroke-width:11.3386;stroke-linecap:round;stroke-linejoin:round;stroke-dasharray:none;stroke-opacity:1"
         d="m 1610.5331,893.45554 41.9259,-36.86588 47.7088,10.12004 10.1201,-20.96295 -51.3231,-28.19156"
         id="path48" /><path
         style="fill:#a05a2c;fill-opacity:0;stroke:#421b00;stroke-width:11.3386;stroke-linecap:round;stroke-linejoin:round;stroke-dasharray:none;stroke-opacity:1"
         d="m 1710.2879,845.02389 49.8773,-13.73435 -39.7573,-46.26307 -57.8288,-21.68581"
         id="path49" /><path
         style="fill:#a05a2c;fill-opacity:0;stroke:#421b00;stroke-width:11.3386;stroke-linecap:round;stroke-linejoin:round;stroke-dasharray:none;stroke-opacity:1"
         d="m 1749.3224,711.2947 17.3486,44.81735 2.1686,34.69731 -43.3717,-1.44572 99.0319,4.33716 32.5287,20.96295 41.9259,-20.24009"
         id="path50"
         sodipodi:nodetypes="ccccccc" /><path
         style="fill:#a05a2c;fill-opacity:0;stroke:#421b00;stroke-width:11.3386;stroke-linecap:round;stroke-linejoin:round;stroke-dasharray:none;stroke-opacity:1"
         d="m 1858.4742,816.10947 v 44.09449 l -66.5031,-9.39719 -33.9745,-18.79437"
         id="path51" /><path
         style="fill:#a05a2c;fill-opacity:0;stroke:#421b00;stroke-width:11.3386;stroke-linecap:round;stroke-linejoin:round;stroke-dasharray:none;stroke-opacity:1"
         d="m 1713.9022,847.91533 52.0459,42.64877 11.5658,80.96037 -25.3001,1.44572 -19.5173,-21.68581 -119.2719,-59.27456"
         id="path52" /><path
         style="fill:#a05a2c;fill-opacity:0;stroke:#421b00;stroke-width:11.3386;stroke-linecap:round;stroke-linejoin:round;stroke-dasharray:none;stroke-opacity:1"
         d="m 1857.7514,859.4811 48.4316,55.66026 -20.9629,52.04595 -73.0089,-40.48019 -40.4802,7.95147"
         id="path53" /><path
         style="fill:#a05a2c;fill-opacity:0;stroke:#421b00;stroke-width:11.3386;stroke-linecap:round;stroke-linejoin:round;stroke-dasharray:none;stroke-opacity:1"
         d="m 1598.9673,1022.1247 70.1175,20.2401 28.9144,-24.5773 36.143,-14.4572 15.1801,-31.08297 49.8774,33.25157 99.0319,-7.22859"
         id="path54" /><path
         style="fill:#a05a2c;fill-opacity:0;stroke:#421b00;stroke-width:11.3386;stroke-linecap:round;stroke-linejoin:round;stroke-dasharray:none;stroke-opacity:1"
         d="m 1798.4768,1004.776 20.963,36.8659 -6.5058,54.2146 -79.5146,-15.903 -33.9745,-61.4431 34.6973,60.7203 -46.263,36.143 -15.903,36.8659"
         id="path55" /><path
         style="fill:#a05a2c;fill-opacity:0;stroke:#421b00;stroke-width:11.3386;stroke-linecap:round;stroke-linejoin:round;stroke-dasharray:none;stroke-opacity:1"
         d="m 1210.3784,664.48141 39.8689,-1.02228 72.5818,34.75748 29.6461,-30.66837 85.8715,-2.04455 4.0891,-14.80489 -4.0891,14.80488 17.3787,30.66838 -6.1337,29.64609 6.1337,-29.64609 86.8937,-7.15596 -5.0949,34.56723 5.7829,-35.42016 48.4316,-4.33716 82.4061,14.45721 21.6858,27.46869 -47.7087,18.79438"
         id="path56"
         sodipodi:nodetypes="ccccccccccccccccc" /><path
         style="fill:#a05a2c;fill-opacity:0;stroke:#421b00;stroke-width:11.3386;stroke-linecap:round;stroke-linejoin:round;stroke-dasharray:none;stroke-opacity:1"
         d="m 1921.8847,772.84299 -28.6239,-26.57926 -61.3367,-43.958 75.6486,-22.49014 -73.604,23.51242 -49.0694,-10.22279 -32.713,18.40102 -71.5595,-12.26735"
         id="path57" /><path
         style="fill:#a05a2c;fill-opacity:0;stroke:#421b00;stroke-width:11.3386;stroke-linecap:round;stroke-linejoin:round;stroke-dasharray:none;stroke-opacity:1"
         d="m 1868.8802,690.10039 -27.869,-21.76195 -59.1788,-3.30957 2.0446,27.05407 -109.6394,-31.94622 6.3892,38.07989 -6.1205,-37.88356 -127.2235,-4.6986 -4.6986,33.25158"
         id="path58"
         sodipodi:nodetypes="ccccccccc" /></g><g
       id="g19"
       inkscape:label="tree"
       transform="translate(-325.21716,977.01095)"><path
         style="fill:#803300;fill-opacity:1;stroke:#421b00;stroke-width:11.3386;stroke-dasharray:none;stroke-opacity:1"
         d="m 581.84899,-153.80865 c -2.22777,-5.45653 23.11584,-20.87009 23.11584,-20.87009 l 1.93128,-162.63837 c 0,0 -70.96715,-78.12803 -66.76133,-83.64528 4.20582,-5.51725 79.0293,61.154 79.0293,61.154 0,0 0.49923,-186.24796 11.24569,-185.93818 2.68662,0.0774 6.01064,53.97031 7.95203,70.36246 0.9707,8.19607 32.51968,-35.91875 33.31326,-25.68576 0.79359,10.233 -30.70164,44.14544 -30.07903,55.05418 2.49043,43.63495 5.17098,117.89956 5.17098,117.89956 0,0 67.55303,-61.39181 73.12252,-52.92371 5.56948,8.46811 -66.98852,92.79463 -66.98852,92.79463 l 3.46477,112.54414 c 0,0 23.3356,16.44171 20.56001,21.38125 -2.77559,4.93955 -33.73692,-4.60049 -33.73692,-4.60049 0,0 -4.8377,16.08852 -11.75682,16.3573 -6.91911,0.26879 -13.80147,-16.3573 -13.80147,-16.3573 0,0 -33.55381,10.56819 -35.78159,5.11166 z"
         id="path19"
         sodipodi:nodetypes="zcczcssssczcczczcz" /><path
         style="fill:#803300;fill-opacity:1;stroke:#421b00;stroke-width:11.3386;stroke-dasharray:none;stroke-opacity:1"
         d="m 1001.6677,-277.53451 c 2.2278,-5.45653 -23.11581,-20.87009 -23.11581,-20.87009 l -1.9313,-162.63837 c 0,0 70.96721,-78.12803 66.76131,-83.64528 -4.2058,-5.51725 -79.02931,61.154 -79.02931,61.154 0,0 -0.4992,-186.24796 -11.2457,-185.93818 -2.6866,0.0774 -6.0106,53.97031 -7.952,70.36246 -0.9707,8.19607 -32.5197,-35.91875 -33.3132,-25.68576 -0.7936,10.233 30.7016,44.14544 30.079,55.05418 -2.4904,43.63495 -5.171,117.89956 -5.171,117.89956 0,0 -67.55297,-61.39181 -73.12247,-52.92371 -5.5695,8.46811 66.98847,92.79463 66.98847,92.79463 l -3.4648,112.54414 c 0,0 -23.3356,16.44171 -20.56,21.38125 2.7756,4.93955 33.7369,-4.60049 33.7369,-4.60049 0,0 4.8377,16.08852 11.7569,16.3573 6.9191,0.26879 13.8014,-16.3573 13.8014,-16.3573 0,0 33.5538,10.56819 35.78161,5.11166 z"
         id="path1"
         sodipodi:nodetypes="zcczcssssczcczczcz" /><path
         style="fill:#803300;fill-opacity:1;stroke:#421b00;stroke-width:11.3386;stroke-dasharray:none;stroke-opacity:1"
         d="m 1821.6717,-163.07816 c -2.2278,-5.45653 23.1158,-20.87009 23.1158,-20.87009 l 1.9313,-162.63837 c 0,0 -70.9671,-78.12803 -66.7613,-83.64528 4.2058,-5.51725 79.0293,61.154 79.0293,61.154 0,0 0.4992,-186.24796 11.2457,-185.93818 2.6866,0.0774 6.0106,53.97031 7.952,70.36246 0.9707,8.19607 32.5197,-35.91875 33.3132,-25.68576 0.7936,10.233 -30.7016,44.14544 -30.079,55.05418 2.4904,43.63495 5.171,117.89956 5.171,117.89956 0,0 67.553,-61.39181 73.1225,-52.92371 5.5695,8.46811 -66.9885,92.79463 -66.9885,92.79463 l 3.4648,112.54414 c 0,0 23.3356,16.44171 20.56,21.38125 -2.7756,4.93955 -33.7369,-4.60049 -33.7369,-4.60049 0,0 -4.8377,16.08852 -11.7569,16.3573 -6.9191,0.26879 -13.8014,-16.3573 -13.8014,-16.3573 0,0 -33.5538,10.56819 -35.7816,5.11166 z"
         id="path2"
         sodipodi:nodetypes="zcczcssssczcczczcz" /><path
         style="fill:#803300;fill-opacity:1;stroke:#421b00;stroke-width:11.3386;stroke-dasharray:none;stroke-opacity:1"
         d="m 1395.9069,-259.94147 c -2.2278,-5.45653 31.7901,-25.93011 31.7901,-25.93011 l 2.6542,-49.76423 c 0,0 -68.6081,-54.06815 -64.4023,-59.5854 4.2058,-5.51725 65.2649,38.15272 65.2649,38.15272 0,0 3.5297,-112.13272 14.2762,-111.82294 2.6866,0.0774 8.0551,48.85891 9.9965,65.25106 0.9707,8.19607 36.6089,-31.82963 37.4024,-21.59664 0.7936,10.233 -34.2636,37.93155 -33.7917,48.84785 0.6833,15.80482 1.7171,41.9258 1.7171,41.9258 0,0 61.8064,-32.64838 65.3313,-28.26939 3.525,4.37898 -64.0093,51.04594 -64.0093,51.04594 l 1.4202,25.51576 c 0,0 30.2028,20.77887 27.4272,25.71841 -2.7756,4.93955 -33.7369,-4.60049 -33.7369,-4.60049 0,0 -4.8377,16.08852 -11.7569,16.3573 -6.9191,0.26879 -13.8014,-16.3573 -13.8014,-16.3573 0,0 -33.5538,10.56819 -35.7816,5.11166 z"
         id="path3"
         sodipodi:nodetypes="zcczcssssczcczczcz" /></g><circle
       style="mix-blend-mode:normal;fill:#ffdd33;fill-opacity:1;stroke:#ffaa00;stroke-width:11.3386;stroke-linecap:round;stroke-linejoin:round;stroke-dasharray:none;stroke-opacity:1;filter:url(#filter59)"
       id="path59"
       cx="1344.297"
       cy="153.34186"
       r="151.18111" /><circle
       style="fill:#ffdd33;fill-opacity:1;stroke:#ffaa00;stroke-width:11.3386;stroke-linecap:round;stroke-linejoin:round;stroke-dasharray:none;stroke-opacity:1"
       id="circle59"
       cx="1344.297"
       cy="153.34186"
       r="75.590553" /></g></svg>
