<?xml version="1.0" encoding="UTF-8" standalone="no"?>
<!-- Created with Inkscape (http://www.inkscape.org/) -->

<svg
   width="500mm"
   height="300mm"
   viewBox="0 0 500 300"
   version="1.1"
   id="svg5"
   inkscape:version="1.2.2 (732a01da63, 2022-12-09)"
   sodipodi:docname="eruption.svg"
   xmlns:inkscape="http://www.inkscape.org/namespaces/inkscape"
   xmlns:sodipodi="http://sodipodi.sourceforge.net/DTD/sodipodi-0.dtd"
   xmlns:xlink="http://www.w3.org/1999/xlink"
   xmlns="http://www.w3.org/2000/svg"
   xmlns:svg="http://www.w3.org/2000/svg">
  <sodipodi:namedview
     id="namedview7"
     pagecolor="#505050"
     bordercolor="#eeeeee"
     borderopacity="1"
     inkscape:showpageshadow="0"
     inkscape:pageopacity="0"
     inkscape:pagecheckerboard="0"
     inkscape:deskcolor="#505050"
     inkscape:document-units="mm"
     showgrid="false"
     inkscape:zoom="0.3307123"
     inkscape:cx="379.48392"
     inkscape:cy="786.18183"
     inkscape:window-width="1366"
     inkscape:window-height="705"
     inkscape:window-x="-8"
     inkscape:window-y="-8"
     inkscape:window-maximized="1"
     inkscape:current-layer="g14" />
  <defs
     id="defs2">
    <radialGradient
       inkscape:collect="always"
       xlink:href="#linearGradient5"
       id="radialGradient16"
       cx="2694.0242"
       cy="1936.1962"
       fx="2694.0242"
       fy="1936.1962"
       r="863.61926"
       gradientTransform="matrix(-1.2953726,0.14072941,-0.11239288,-1.0345433,7001.9098,2565.6123)"
       gradientUnits="userSpaceOnUse" />
    <linearGradient
       id="linearGradient5"
       inkscape:collect="always">
      <stop
         style="stop-color:#ffff00;stop-opacity:1;"
         offset="0"
         id="stop6" />
      <stop
         style="stop-color:#285908;stop-opacity:1;"
         offset="1"
         id="stop7" />
    </linearGradient>
    <linearGradient
       inkscape:collect="always"
       xlink:href="#linearGradient19"
       id="linearGradient20"
       x1="3185.7378"
       y1="805.79657"
       x2="2983.4321"
       y2="1151.1737"
       gradientUnits="userSpaceOnUse" />
    <linearGradient
       id="linearGradient19"
       inkscape:collect="always">
      <stop
         style="stop-color:#4d1919;stop-opacity:1;"
         offset="0"
         id="stop19" />
      <stop
         style="stop-color:#081208;stop-opacity:1;"
         offset="1"
         id="stop20" />
    </linearGradient>
    <linearGradient
       inkscape:collect="always"
       xlink:href="#linearGradient1"
       id="linearGradient14"
       x1="3186.4424"
       y1="702.41974"
       x2="3553.2791"
       y2="512.55103"
       gradientUnits="userSpaceOnUse" />
    <linearGradient
       id="linearGradient1"
       inkscape:collect="always">
      <stop
         style="stop-color:#ff0000;stop-opacity:0.89999998;"
         offset="0"
         id="stop3" />
      <stop
         style="stop-color:#999999;stop-opacity:0.89999998;"
         offset="1"
         id="stop14" />
    </linearGradient>
  </defs>
  <rect
     style="display:inline;stroke-width:9.01395305;stroke-dasharray:none;fill:#222222;stroke-linejoin:round;paint-order:fill markers stroke;fill-opacity:1"
     id="rect1893"
     width="1545.6714"
     height="951.922"
     x="2362.3721"
     y="-1046.5503"
     transform="matrix(0.33281736,0,0,0.33281736,-791.83868,341.9098)"
     rx="1.5899611"
     ry="142.11595" />
  <g
     inkscape:label="Layer 1"
     inkscape:groupmode="layer"
     id="layer1"
     transform="rotate(-28.298313,834.66718,200.97026)">
    <g
       id="g14"
       inkscape:label="earth"
       inkscape:groupmode="layer"
       inkscape:highlight-color="#16355b"
       transform="matrix(0.26458333,0,0,0.26458333,-475.75427,-338.92652)">
      <g
         id="g4"
         style="display:inline;stroke-width:11.3386;stroke-dasharray:none">
        <path
           style="display:inline;opacity:1;fill:url(#radialGradient16);fill-opacity:1;stroke:#000000;stroke-width:11.3386;stroke-linecap:round;stroke-linejoin:round;stroke-dasharray:none;stroke-opacity:1;paint-order:fill markers stroke"
           d="m 3786.1677,1540.0577 c -22.6592,42.1823 -107.2004,198.0578 -124.5761,230.7479 -557.8876,-300.4654 -1351.794,-726.5787 -1663.7243,-895.5616 15.9813,-29.39238 80.9847,-153.62047 90.2203,-170.82669 654.887,73.69693 1268.7187,315.68119 1698.0801,835.64039 z"
           id="path3"
           sodipodi:nodetypes="ccccc"
           class="UnoptimicedTransforms" />
      </g>
    </g>
    <g
       id="g13"
       inkscape:label="volcano"
       style="display:inline"
       transform="matrix(0.3328136,-0.00158059,0.00158059,0.3328136,-661.86212,-393.86292)"
       inkscape:groupmode="layer"
       inkscape:highlight-color="#ff5500">
      <path
         style="opacity:1;fill:url(#linearGradient20);fill-opacity:1;stroke:#000000;stroke-width:9.01395;stroke-linecap:round;stroke-linejoin:bevel;stroke-dasharray:none;stroke-opacity:1"
         d="m 3156.7374,750.83799 c 0,0 21.5834,-3.36334 32.1788,-1.60894 13.8537,2.29391 27.1103,8.32726 39.1508,15.55307 14.4651,8.68085 28.2538,19.40159 38.6146,32.71509 5.4996,7.06684 11.7989,24.13408 11.7989,24.13408 0,0 -17.8088,91.09999 -19.8436,137.29609 -1.4182,32.19717 -2.9856,65.40802 5.3631,96.53632 8.4086,31.3516 43.4375,38.4937 51.6483,64.8918 4.8434,15.572 7.0565,36.2757 -3.3801,48.8065 -9.2126,11.0612 -27.0171,12.0738 -41.8324,10.7263 -14.8153,-1.3475 -27.359,-14.1713 -41.8324,-19.3073 -17.7342,-6.2932 -37.2171,-6.9932 -54.704,-13.9441 -6.8416,-2.7195 -12.4104,-13.3023 -19.3072,-10.7263 -7.8408,2.9286 -2.2105,18.1691 -8.581,23.5978 -11.9208,10.1584 -29.798,10.296 -46.1454,8.849 -16.3473,-1.447 -34.9408,-8.4239 -49.3183,-18.5027 -18.4817,-12.9558 -27.755,-52.6132 -43.9777,-51.486 -8.831,0.6136 -10.2404,15.5051 -18.2346,19.3073 -8.7417,4.1577 -20.2848,6.4381 -28.9609,2.1452 -8.7995,-4.354 -8.078,-18.9954 -16.0894,-24.6704 -13.5157,-9.574 -33.0538,-5.252 -48.2681,-11.7988 -12.1162,-5.2137 -33.2514,-21.4526 -33.2514,-21.4526 0,0 -21.5047,-21.4486 -22.5252,-35.3966 -1.0861,-14.8446 15.3189,-26.1639 18.2347,-40.75978 2.6626,-13.32795 6.5155,-29.48401 -1.0727,-40.75978 -6.9724,-10.36077 -21.8419,-14.61945 -34.324,-15.01676 -12.5484,-0.39942 -23.0494,10.59818 -35.3966,12.87151 -22.8588,4.20868 -47.541,8.02226 -69.7207,1.07263 -16.3805,-5.13254 -33.9962,-14.76081 -41.8324,-30.03352 -5.8759,-11.45205 4.9783,-26.74471 0,-38.61453 -5.5249,-13.17321 -24.3377,-17.17978 -30.5698,-30.03352 -4.3151,-8.89982 -9.8636,-27.8283 -9.8636,-27.8283 0,0 61.602,13.95494 92.7716,18.89591 44.6781,7.08232 89.2954,14.47131 134.835,15.36815 27.3677,0.53897 54.8256,-0.42599 82.0558,-3.21788 19.4715,-1.9964 39.2015,-3.93726 57.9218,-9.65363 29.6871,-9.06518 84.7375,-38.61453 84.7375,-38.61453 z"
         id="path9"
         sodipodi:nodetypes="cssscssaazaaaazaasssacsassaaasscassscc" />
      <path
         style="opacity:1;fill:#ff0000;fill-opacity:1;stroke:#000000;stroke-width:9.01395;stroke-linecap:round;stroke-linejoin:bevel;stroke-dasharray:none;stroke-opacity:1"
         d="m 3185.9665,747.35196 c -17.4956,-3.02818 -35.1909,3.59647 -47.9524,15.57255 -21.9821,16.18419 -42.5767,29.7403 -68.6309,39.35615 -19.368,9.52829 -61.9886,0.55889 -76.1309,22.97888 -4.8808,7.73748 -3.5234,22.16162 4.1597,27.12762 14.8676,9.60983 38.7381,-9.49137 51.1703,-14.21806 23.9486,-10.76395 41.2258,-15.71762 67.304,-19.81058 17.4079,-1.43251 21.3889,12.67585 11.4128,22.63632 -15.4064,22.06654 -38.337,35.06717 -54.7144,56.3761 -16.584,18.0855 -54.4605,49.71588 -47.7041,80.02774 2.3229,10.42112 15.9809,19.57222 26.5328,17.94353 34.6384,-5.34642 39.9503,-54.98465 65.2847,-82.42294 20.5915,-22.22282 26.4791,-28.12851 53.9546,-40.93942 14.4185,-6.72287 27.1233,4.34073 23.3108,19.12078 -6.2199,24.11327 -19.9817,55.80983 -21.7082,80.65721 -1.0882,15.66216 -2.8773,39.95276 11.1081,40.49116 26.4782,1.0194 14.2839,-51.49533 26.8626,-74.81727 6.912,-12.8154 11.7767,-36.54798 26.2457,-34.91781 18.713,2.10833 4.3266,53.6437 23.0446,51.58049 21.8462,-2.40802 9.9632,-42.86539 13.1381,-64.61339 2.2421,-15.35802 -0.1819,-22.07429 4.1538,-46.37679 4.8306,-14.50331 3.6721,-31.28973 -6.6467,-43.20556 -20.6117,-26.43578 -50.7516,-47.12361 -84.195,-52.54671 z"
         id="path11"
         sodipodi:nodetypes="cccaaccccaacsssaaaaaccc" />
      <path
         style="opacity:1;fill:#ffac05;fill-opacity:1;stroke:#000000;stroke-width:10;stroke-linecap:round;stroke-linejoin:bevel;stroke-dasharray:none;stroke-opacity:1"
         d="m 3262.7287,814.30965 c -2.349,-11.09008 -20.9162,-26.81565 -20.9162,-26.81565 l -26.8156,-17.69832 c -9.9083,-6.53951 -21.916,-11.26258 -33.7878,-11.26257 -5.0879,1e-5 -11.592,0.63826 -14.4804,4.82682 -2.4378,3.53518 -1.0853,8.89523 0.5363,12.8715 2.7247,6.68113 9.2677,11.10054 14.4805,16.08939 8.5329,8.16639 17.1806,16.5214 27.3519,22.52514 9.6057,5.66987 20.1501,10.24215 31.1062,12.33519 6.3214,1.20764 14.2345,3.96062 19.3072,0 3.4859,-2.72169 4.1343,-8.54494 3.2179,-12.8715 z"
         id="path10"
         sodipodi:nodetypes="scsssssssss" />
      <path
         style="opacity:1;fill:#ffaa00;fill-opacity:1;stroke:#000000;stroke-width:8.62396;stroke-linecap:round;stroke-linejoin:bevel;stroke-dasharray:none;stroke-opacity:0"
         d="m 3041.7396,824.73928 c 1.9451,6.63799 -10.1387,6.98653 -18.2762,9.82863 -5.1508,1.799 -15.2705,10.09402 -21.0759,5.70447 -3.3231,-2.5127 -2.9585,-9.42455 -0.1456,-12.49771 8.9157,-9.74038 35.7843,-15.70724 39.4977,-3.03539 z"
         id="path12"
         sodipodi:nodetypes="acaaa" />
      <path
         style="opacity:1;fill:#ffaa00;fill-opacity:1;stroke:#000000;stroke-width:10;stroke-linecap:round;stroke-linejoin:bevel;stroke-dasharray:none;stroke-opacity:0"
         d="m 3086.0957,896.83154 c -10.4274,11.13678 -22.1008,23.44637 -29.58,33.75151 -7.4792,10.30514 -22.2636,31.61056 -17.0654,36.02689 5.1982,4.41633 30.3846,-38.00388 37.0498,-44.65235 17.0573,-20.9506 18.535,-18.26052 35.8989,-38.96948 7.6294,-9.23116 22.7328,-25.60586 13.5198,-24.30244 -3.5519,0.50252 -16.9794,13.74802 -39.8231,38.14587 z"
         id="path13"
         sodipodi:nodetypes="zzzzzsz" />
      <path
         style="display:inline;fill:url(#linearGradient14);fill-opacity:0.8;stroke:#000000;stroke-width:7.07061;stroke-linecap:round;stroke-linejoin:round;stroke-dasharray:none;stroke-opacity:1"
         d="m 3308.9676,659.80244 c 3.5505,-11.01224 2.4141,-23.57209 -0.7432,-34.70343 -3.5608,-12.55359 -18.0297,-20.8257 -19.8357,-33.74894 -1.0287,-7.36104 1.1613,-15.61932 5.5956,-21.58419 4.9885,-6.71014 18.2601,-5.28966 21.4379,-13.02347 3.9702,-9.66234 -7.7215,-19.95609 -7.6059,-30.40167 0.123,-11.12372 3.1047,-22.64062 8.8139,-32.18827 5.8051,-9.70808 14.886,-17.57355 24.5913,-23.38336 14.385,-8.6112 30.5094,1.14333 39.9795,-8.66795 6.67,-6.91036 0.8957,-19.72429 5.105,-28.35703 3.2737,-6.71394 8.5814,-12.77546 14.9309,-16.70975 5.0741,-3.14402 11.3348,-4.09239 17.2688,-4.7401 3.5934,-0.39226 8.1945,3.02027 10.8307,0.54681 4.2049,-3.94564 -1.8609,-11.92286 0.2282,-17.29745 3.9915,-10.26916 12.1758,-19.67927 21.9989,-24.66861 7.5376,-3.82835 16.8391,-3.39626 25.2417,-2.46578 3.521,0.38987 6.6748,4.24604 10.0949,3.32242 6.3898,-1.72565 7.2558,-11.89075 13.1719,-14.85836 4.527,-2.27075 10.1351,-2.05805 15.1396,-1.28057 4.6429,0.72131 9.5075,2.27668 13.0235,5.39358 4.5114,3.99899 3.198,13.72841 8.8743,15.75856 5.6798,2.03139 10.844,-6.20519 16.8656,-6.56048 8.2715,-0.48801 17.497,1.17393 24.0655,6.22475 2.6149,2.01071 1.5581,8.7029 4.8557,8.62257 10.9754,-0.26725 6.8267,-21.846 14.7449,-29.45082 9.2245,-8.85968 22.1907,-15.40858 34.9752,-15.7797 11.2238,-0.32581 22.7392,4.97217 31.4572,12.04858 8.0952,6.57091 8.4335,20.2782 16.9559,26.28487 5.4905,3.86989 13.7333,1.36095 19.6212,4.59451 4.6628,2.56074 9.225,6.30899 11.4077,11.1602 1.402,3.11622 -1.8736,7.78493 0.5042,10.23882 5.6041,5.78319 17.2195,-2.26929 24.0806,1.94685 5.623,3.45527 7.9812,10.7209 10.3392,16.88487 1.8539,4.84629 -0.5117,11.32273 2.8071,15.31129 4.8801,5.86472 15.4324,3.38222 21.3886,8.15034 5.5643,4.45426 9.6786,11.02616 11.8028,17.82972 2.9045,9.30245 -3.8063,20.53734 0.5996,29.22971 1.7625,3.47699 7.7392,3.52847 9.2883,7.10552 2.2388,5.16899 1.0056,11.86929 -1.6928,16.81385 -2.2349,4.09544 -9.793,4.19489 -10.9534,8.71388 -3.3921,13.20832 14.6721,24.15233 15.782,37.74397 1.4085,17.24528 -2.5036,36.03352 -11.9891,50.50449 -8.8052,13.43318 -23.658,22.89163 -38.5501,28.90879 -14.1806,5.72968 -33.056,-3.15285 -45.5276,5.70009 -3.9657,2.81497 -3.1387,9.54092 -6.4868,13.06813 -7.7519,8.16693 -18.1785,16.25329 -29.4342,16.57547 -12.4882,0.35747 -21.2036,-15.48516 -33.6563,-16.49247 -8.8694,-0.71751 -16.6715,8.36689 -25.548,7.74088 -14.0271,-0.98925 -28.6607,-7.49964 -38.257,-17.77831 -6.7689,-7.25006 -10.1946,-17.87326 -10.66,-27.78099 -0.2669,-5.68097 7.056,-11.30608 4.5925,-16.43204 -2.2858,-4.75585 -11.7167,-1.75597 -14.5666,-6.19692 -3.0393,-4.73648 3.9984,-12.49641 0.4651,-16.87695 -3.2973,-4.08799 -11.4108,0.40401 -15.4848,-2.91045 -7.166,-5.82992 -3.546,-19.60626 -10.5536,-25.62541 -5.1802,-4.44932 -13.43,-7.03061 -19.9023,-4.85366 -10.8155,3.63783 -11.3561,21.52531 -21.5957,26.56098 -8.3297,4.09653 -19.1534,4.00004 -27.8384,0.7232 -8.3768,-3.16056 -10.8671,-16.7862 -19.6983,-18.26049 -9.0033,-1.50302 -19.8715,3.56018 -25.0403,11.08353 -4.7412,6.90072 3.8918,18.48026 -1.2521,25.08621 -8.1563,10.4745 -25.5484,-4.05205 -38.0777,11.67277 -12.5293,15.72481 6.6871,30.51659 -4.0527,48.31445 -10.7397,17.79787 -61.709,28.27543 -72.6464,28.08958 -8.6168,-0.14642 15.5388,-14.99886 18.7235,-24.87662 z"
         id="path12-4"
         sodipodi:nodetypes="aaaaaaasaaaaaaaaaaaaaaaaaaaaaaaaaaaaaaaaaaaaaaaaaaaaaaaaaaaaazssa"
         class="UnoptimicedTransforms"
         transform="matrix(1.1372948,-0.57601841,0.57601841,1.1372948,-889.35746,1885.3549)" />
    </g>
  </g>
</svg>
