<?xml version="1.0" encoding="UTF-8" standalone="no"?>
<!-- Created with Inkscape (http://www.inkscape.org/) -->

<svg
   width="500mm"
   height="300mm"
   viewBox="0 0 1889.7638 1133.8583"
   version="1.1"
   id="svg1"
   xml:space="preserve"
   inkscape:version="1.3 (0e150ed6c4, 2023-07-21)"
   sodipodi:docname="thumb-flood.svg"
   xmlns:inkscape="http://www.inkscape.org/namespaces/inkscape"
   xmlns:sodipodi="http://sodipodi.sourceforge.net/DTD/sodipodi-0.dtd"
   xmlns:xlink="http://www.w3.org/1999/xlink"
   xmlns="http://www.w3.org/2000/svg"
   xmlns:svg="http://www.w3.org/2000/svg"><sodipodi:namedview
     id="namedview1"
     pagecolor="#ffffff"
     bordercolor="#000000"
     borderopacity="0.25"
     inkscape:showpageshadow="2"
     inkscape:pageopacity="0.0"
     inkscape:pagecheckerboard="0"
     inkscape:deskcolor="#d1d1d1"
     inkscape:document-units="mm"
     showguides="false"
     inkscape:zoom="0.17292411"
     inkscape:cx="1373.4349"
     inkscape:cy="546.48251"
     inkscape:window-width="1366"
     inkscape:window-height="745"
     inkscape:window-x="-8"
     inkscape:window-y="-8"
     inkscape:window-maximized="1"
     inkscape:current-layer="layer1" /><defs
     id="defs1"><linearGradient
       id="linearGradient11"
       inkscape:collect="always"><stop
         style="stop-color:#0d1a26;stop-opacity:1;"
         offset="0"
         id="stop11" /><stop
         style="stop-color:#666666;stop-opacity:1;"
         offset="1"
         id="stop12" /></linearGradient><linearGradient
       inkscape:collect="always"
       xlink:href="#linearGradient28"
       id="linearGradient29"
       x1="835.53729"
       y1="-494.30981"
       x2="442.68945"
       y2="-496.12326"
       gradientUnits="userSpaceOnUse" /><linearGradient
       id="linearGradient28"
       inkscape:collect="always"><stop
         style="stop-color:#339900;stop-opacity:1;"
         offset="0"
         id="stop28" /><stop
         style="stop-color:#008000;stop-opacity:1;"
         offset="1"
         id="stop29" /></linearGradient><linearGradient
       inkscape:collect="always"
       xlink:href="#linearGradient28"
       id="linearGradient31"
       x1="443.83414"
       y1="-503.37701"
       x2="841.64636"
       y2="-503.37701"
       gradientUnits="userSpaceOnUse" /><linearGradient
       inkscape:collect="always"
       xlink:href="#linearGradient11"
       id="linearGradient12"
       x1="980.58185"
       y1="1020.2191"
       x2="976.49274"
       y2="-186.07018"
       gradientUnits="userSpaceOnUse" /></defs><g
     inkscape:label="Layer 1"
     inkscape:groupmode="layer"
     id="layer1"><rect
       style="stroke-width:11.3386;stroke-dasharray:none;display:inline;fill:url(#linearGradient12)"
       id="rect1"
       width="2044.5581"
       height="1234.9131"
       x="-107.12308"
       y="-186.07016"
       transform="translate(41.697218,128.82253)" /><path
       id="path1"
       style="fill:#636769;fill-opacity:1;stroke-width:11.3386;stroke-dasharray:none"
       d="M 502.09001,-265.01269 A 208.54494,220.81229 0 0 0 318.41813,-147.61816 226.94595,171.74289 0 0 0 238.34196,-158.69433 226.94595,171.74289 0 0 0 85.15836,-113.23339 192.18846,181.96567 0 0 0 -25.406092,-146.42675 192.18846,181.96567 0 0 0 -217.59555,35.538099 192.18846,181.96567 0 0 0 -25.406092,217.50294 192.18846,181.96567 0 0 0 116.715,157.65919 a 226.94595,171.74289 0 0 0 121.62696,27.13086 226.94595,171.74289 0 0 0 150.46289,-43.65625 208.54494,220.81229 0 0 0 113.28516,35.47852 208.54494,220.81229 0 0 0 126.55664,-45.99805 237.16875,165.60921 0 0 0 143.32422,33.73047 237.16875,165.60921 0 0 0 160.94139,-44.36524 235.12419,145.16364 0 0 0 180.49994,52.54493 235.12419,145.16364 0 0 0 168.1621,-43.85938 314.86194,206.50037 0 0 0 156.9219,27.50195 314.86194,206.50037 0 0 0 116.5996,-14.85156 276.01535,159.47554 0 0 0 163.5059,31.20899 276.01535,159.47554 0 0 0 107.3457,-12.63086 196.27759,196.27759 0 0 0 119.5996,41.2539 A 196.27759,196.27759 0 0 0 2141.8243,4.8701286 196.27759,196.27759 0 0 0 1945.547,-191.40722 a 196.27759,196.27759 0 0 0 -134.7695,54.17578 276.01535,159.47554 0 0 0 -92.1758,-9.19531 276.01535,159.47554 0 0 0 -1.4278,0.0547 314.86194,206.50037 0 0 0 -278.6777,-110.46094 314.86194,206.50037 0 0 0 -297.4141,140.07227 235.12419,145.16364 0 0 0 -27.6699,-1.04297 235.12419,145.16364 0 0 0 -140.29284,28.826169 237.16875,165.60921 0 0 0 -201.14849,-77.896489 237.16875,165.60921 0 0 0 -89.33789,12.27149 208.54494,220.81229 0 0 0 -180.54297,-110.41016 z" /><g
       id="g88"
       inkscape:label="house"
       transform="matrix(1.1127492,0,0,1.1127492,712.26858,-451.52012)"
       style="stroke-width:10.1897;stroke-dasharray:none"><rect
         style="display:inline;fill:#f9f9f9;fill-opacity:1;stroke:#000000;stroke-width:10.1897;stroke-dasharray:none;stroke-opacity:1"
         id="rect82"
         width="392.14972"
         height="488.54404"
         x="98.341476"
         y="713.45349" /><path
         style="fill:#ff0000;fill-opacity:1;stroke:#000000;stroke-width:10.1897;stroke-linecap:round;stroke-linejoin:bevel;stroke-dasharray:none;stroke-opacity:1;paint-order:fill markers stroke"
         d="M 80.248907,714.01737 H 511.78521 L 295.81104,617.79174 Z"
         id="path83"
         sodipodi:nodetypes="cccc" /><rect
         style="fill:#ff0000;fill-opacity:1;stroke:#000000;stroke-width:10.1897;stroke-linecap:round;stroke-linejoin:bevel;stroke-dasharray:none;stroke-opacity:1;paint-order:fill markers stroke"
         id="rect83"
         width="430.82483"
         height="41.925907"
         x="76.623207"
         y="933.47852" /><rect
         style="fill:#1a1a1a;fill-opacity:1;stroke:#000000;stroke-width:10.1897;stroke-linecap:round;stroke-linejoin:bevel;stroke-dasharray:none;stroke-opacity:1;paint-order:fill markers stroke"
         id="rect84"
         width="96.863304"
         height="164.81218"
         x="169.98628"
         y="1037.0052" /><rect
         style="fill:#1a1a1a;fill-opacity:1;stroke:#000000;stroke-width:10.1897;stroke-linecap:round;stroke-linejoin:bevel;stroke-dasharray:none;stroke-opacity:1;paint-order:fill markers stroke"
         id="rect86"
         width="77.769852"
         height="87.135742"
         x="1035.7338"
         y="-423.96887"
         transform="matrix(-0.00123545,0.99999924,-0.99999594,-0.00284915,0,0)" /><rect
         style="fill:#1a1a1a;fill-opacity:1;stroke:#000000;stroke-width:10.1897;stroke-linecap:round;stroke-linejoin:bevel;stroke-dasharray:none;stroke-opacity:1;paint-order:fill markers stroke"
         id="rect87"
         width="77.769852"
         height="87.135742"
         x="769.73938"
         y="-421.64011"
         transform="matrix(-0.00123545,0.99999924,-0.99999594,-0.00284915,0,0)" /><rect
         style="fill:#1a1a1a;fill-opacity:1;stroke:#000000;stroke-width:10.1897;stroke-linecap:round;stroke-linejoin:bevel;stroke-dasharray:none;stroke-opacity:1;paint-order:fill markers stroke"
         id="rect88"
         width="77.769852"
         height="87.135742"
         x="770.19916"
         y="-259.64011"
         transform="matrix(-0.00123545,0.99999924,-0.99999594,-0.00284915,0,0)" /></g><g
       id="g13"
       style="stroke-width:10.18970206;stroke-dasharray:none;display:inline"
       transform="translate(41.697219,128.82253)"><g
         id="g21"
         inkscape:label="tree"
         transform="translate(-125.94661,872.5284)"><path
           style="fill:url(#linearGradient29);fill-opacity:1;stroke:#004d00;stroke-width:11.3386;stroke-dasharray:none;stroke-opacity:1"
           d="m 638.58769,-375.14055 c 0,0 -32.38983,24.77669 -51.62773,29.64761 -13.05311,3.30497 -27.42235,2.63166 -40.38208,-1.02233 -15.72384,-4.43333 -30.9963,-12.86383 -42.42675,-24.53595 -9.39086,-9.58941 -19.42429,-35.27043 -19.42429,-35.27043 0,0 -20.81758,-16.94898 -26.58061,-28.62527 -7.19075,-14.56895 -9.78913,-31.8827 -8.17865,-48.04957 0.94099,-9.4462 5.2489,-18.49536 10.22331,-26.58061 6.38438,-10.37698 24.53595,-27.09178 24.53595,-27.09178 0,0 -2.28843,-34.38455 5.15226,-49.04092 7.79984,-15.3638 22.86854,-27.06134 38.31357,-34.69907 14.27716,-7.06021 46.98833,-8.67477 46.98833,-8.67477 0,0 26.79625,-26.17413 44.09673,-31.08458 19.04366,-5.40522 40.94939,-3.86581 59.27759,3.61448 13.28524,5.42211 32.53038,28.193 32.53038,28.193 0,0 38.36705,2.45319 54.27107,11.95003 13.90001,8.30018 25.16924,21.98659 31.69227,36.80392 5.8075,13.19196 5.11165,42.93791 5.11165,42.93791 0,0 19.75481,20.1521 25.55829,32.7146 5.68974,12.3163 8.80191,26.31821 8.17864,39.87092 -0.53983,11.73823 -3.99112,23.77514 -10.22331,33.73693 -6.65057,10.63055 -27.60294,25.55828 -27.60294,25.55828 0,0 -10.24629,25.17114 -19.42429,34.75926 -9.41689,9.83769 -21.61737,17.89845 -34.75927,21.46896 -14.4734,3.93226 -30.31952,2.12995 -44.98257,-1.02233 -21.34858,-4.58955 -60.31755,-25.55829 -60.31755,-25.55829 z"
           id="path19"
           sodipodi:nodetypes="cssscssscsscsscsscssscsssc" /><path
           style="fill:#552200;fill-opacity:1;stroke:#331500;stroke-width:11.3386;stroke-dasharray:none;stroke-opacity:1"
           d="m 595.13862,-209.01172 c -2.22777,-5.45653 23.11584,-20.87009 23.11584,-20.87009 l 1.93128,-162.63837 c 0,0 -29.7641,-45.59931 -25.55828,-51.11656 4.20582,-5.51725 37.82625,28.62528 37.82625,28.62528 0,0 1.52151,-73.91763 12.26797,-73.60785 10.74646,0.30978 15.33496,105.30011 15.33496,105.30011 0,0 34.30145,-23.80307 39.87094,-15.33497 5.56948,8.46811 -33.73694,55.20589 -33.73694,55.20589 l 3.46477,112.54414 c 0,0 23.3356,16.44171 20.56001,21.38125 -2.77559,4.93955 -33.73692,-4.60049 -33.73692,-4.60049 0,0 -4.8377,16.08852 -11.75682,16.3573 -6.91911,0.26879 -13.80147,-16.3573 -13.80147,-16.3573 0,0 -33.55381,10.56819 -35.78159,5.11166 z"
           id="path21"
           sodipodi:nodetypes="zcczczczcczczcz" /></g><g
         id="g17"
         inkscape:label="tree"
         transform="translate(817.43892,972.87103)"><path
           style="fill:url(#linearGradient31);fill-opacity:1;stroke:#004d00;stroke-width:11.3386;stroke-dasharray:none;stroke-opacity:1"
           d="m 638.58769,-375.14055 c 0,0 -32.38983,24.77669 -51.62773,29.64761 -13.05311,3.30497 -27.42235,2.63166 -40.38208,-1.02233 -15.72384,-4.43333 -30.9963,-12.86383 -42.42675,-24.53595 -9.39086,-9.58941 -19.42429,-35.27043 -19.42429,-35.27043 0,0 -20.81758,-16.94898 -26.58061,-28.62527 -7.19075,-14.56895 -9.78913,-31.8827 -8.17865,-48.04957 0.94099,-9.4462 5.2489,-18.49536 10.22331,-26.58061 6.38438,-10.37698 24.53595,-27.09178 24.53595,-27.09178 0,0 -2.28843,-34.38455 5.15226,-49.04092 7.79984,-15.3638 22.86854,-27.06134 38.31357,-34.69907 14.27716,-7.06021 46.98833,-8.67477 46.98833,-8.67477 0,0 26.79625,-26.17413 44.09673,-31.08458 19.04366,-5.40522 40.94939,-3.86581 59.27759,3.61448 13.28524,5.42211 32.53038,28.193 32.53038,28.193 0,0 38.36705,2.45319 54.27107,11.95003 13.90001,8.30018 25.16924,21.98659 31.69227,36.80392 5.8075,13.19196 5.11165,42.93791 5.11165,42.93791 0,0 19.75481,20.1521 25.55829,32.7146 5.68974,12.3163 8.80191,26.31821 8.17864,39.87092 -0.53983,11.73823 -3.99112,23.77514 -10.22331,33.73693 -6.65057,10.63055 -27.60294,25.55828 -27.60294,25.55828 0,0 -10.24629,25.17114 -19.42429,34.75926 -9.41689,9.83769 -21.61737,17.89845 -34.75927,21.46896 -14.4734,3.93226 -30.31952,2.12995 -44.98257,-1.02233 -21.34858,-4.58955 -60.31755,-25.55829 -60.31755,-25.55829 z"
           id="path16"
           sodipodi:nodetypes="cssscssscsscsscsscssscsssc" /><path
           style="fill:#552200;fill-opacity:1;stroke:#331500;stroke-width:11.3386;stroke-dasharray:none;stroke-opacity:1"
           d="m 595.13862,-209.01172 c -2.22777,-5.45653 23.11584,-20.87009 23.11584,-20.87009 l 1.93128,-162.63837 c 0,0 -29.7641,-45.59931 -25.55828,-51.11656 4.20582,-5.51725 37.82625,28.62528 37.82625,28.62528 0,0 1.52151,-73.91763 12.26797,-73.60785 10.74646,0.30978 15.33496,105.30011 15.33496,105.30011 0,0 34.30145,-23.80307 39.87094,-15.33497 5.56948,8.46811 -33.73694,55.20589 -33.73694,55.20589 l 3.46477,112.54414 c 0,0 23.3356,16.44171 20.56001,21.38125 -2.77559,4.93955 -33.73692,-4.60049 -33.73692,-4.60049 0,0 -4.8377,16.08852 -11.75682,16.3573 -6.91911,0.26879 -13.80147,-16.3573 -13.80147,-16.3573 0,0 -33.55381,10.56819 -35.78159,5.11166 z"
           id="path17"
           sodipodi:nodetypes="zcczczczcczczcz" /></g></g><g
       id="g12"
       transform="translate(219.73779,-83.7379)"
       style="display:inline;stroke-width:10.1897;stroke-dasharray:none"><path
         style="fill:#808080;fill-opacity:1;stroke:#333333;stroke-width:11.3386;stroke-linecap:round;stroke-linejoin:round;stroke-dasharray:none;stroke-opacity:1;paint-order:fill markers stroke"
         d="m 1446.3587,176.94834 c 0,0 -42.004,15.98768 -63.9605,20.21442 -20.1818,3.88511 -40.9697,5.77064 -61.4872,4.57363 -21.8851,-1.27679 -64.5734,-12.47208 -64.5734,-12.47208 0,0 -44.8023,17.54941 -67.2114,13.18244 -19.0464,-3.71165 -42.0883,-5.70173 -48.7384,-31.83445 0,0 -11.8105,1.43658 -16.4778,-1.502 -6.8631,-4.32096 -12.9379,-12.79808 -12.4649,-20.89422 0.6617,-11.32577 10.484,-22.11221 20.7223,-26.99971 10.9647,-5.23422 36.4379,0.92653 36.4379,0.92653 0,0 -2.6794,-21.92901 2.2343,-31.079857 7.5349,-14.03216 22.5784,-24.60955 37.8353,-29.18186 11.7102,-3.50943 36.5724,2.73497 36.5724,2.73497 0,0 11.3487,-26.909053 22.897,-34.435263 18.3172,-11.937664 35.4748,-18.615947 57.063,-15.155242 13.4128,2.150119 34.2278,13.243175 43.5448,23.128522 7.7398,8.211983 14.109,30.773413 14.109,30.773413 7.1644,-14.49314 30.5809,-20.75221 44.2133,-13.55652 12.1527,6.41466 25.9486,23.07665 12.2596,39.36031 0,0 16.5172,-3.12417 25.7218,3.54208 11.7645,8.520267 10.7909,22.837187 10.7909,22.837187 0,0 31.1036,-3.99166 44.7105,2.12963 8.9993,4.04849 20.1513,11.33873 20.6701,21.19311 0.7761,14.73991 -14.0312,28.55372 -27.4179,34.77155 -20.4028,9.47656 -67.4507,-2.25659 -67.4507,-2.25659 z"
         id="path7"
         sodipodi:nodetypes="caacacssscaacssscacscsssc" /><path
         style="fill:#808080;fill-opacity:1;stroke:#333333;stroke-width:11.3386;stroke-linecap:round;stroke-linejoin:round;stroke-dasharray:none;stroke-opacity:1;paint-order:fill markers stroke"
         d="m 107.44271,169.60974 c 0,0 44.58984,14.15594 67.65616,17.26296 21.20193,2.8559 42.91665,3.5982 64.16985,1.15272 22.66985,-2.60847 66.37911,-16.74315 66.37911,-16.74315 0,0 47.5895,15.61513 70.62297,9.76443 19.57708,-4.97272 43.40739,-8.39024 48.7884,-35.9387 0,0 12.35846,0.80142 17.03699,-2.52588 6.87962,-4.89254 12.69659,-14.05831 11.73093,-22.44472 -1.3509,-11.73183 -12.19058,-22.366723 -23.11717,-26.846643 -11.70183,-4.797721 -37.81471,3.09661 -37.81471,3.09661 0,0 1.50053,-22.947127 -4.14199,-32.169638 -8.65252,-14.142028 -24.90622,-24.253921 -41.03005,-28.112398 -12.37561,-2.961538 -37.84858,4.983963 -37.84858,4.983963 0,0 -13.37013,-27.301313 -25.8127,-34.4468704 -19.73562,-11.333892 -37.95812,-17.2697496 -60.19153,-12.4089844 -13.81366,3.019987 -34.79657,15.7675728 -43.90061,26.5867298 -7.5629,8.987719 -12.86111,32.808188 -12.86111,32.808188 -8.29445,-14.642815 -32.99711,-19.776487 -46.74355,-11.499921 -12.25435,7.378213 -25.616391,25.502438 -10.43624,41.624031 0,0 -17.348841,-2.279673 -26.524571,5.187382 -11.72761,9.543788 -9.87742,24.365971 -9.87742,24.365971 0,0 -32.5589,-2.32707 -46.34175,4.83141 -9.11566,4.73446 -20.2787404,12.96405 -20.2408704,23.23583 0.0565,15.36424 16.2542904,28.8535 30.5308404,34.53163 21.75901,8.65401 69.967601,-6.29495 69.967601,-6.29495 z"
         id="path8"
         sodipodi:nodetypes="caacacssscaacssscacscsssc" /><path
         style="fill:#808080;fill-opacity:1;stroke:#333333;stroke-width:11.3386;stroke-linecap:round;stroke-linejoin:round;stroke-dasharray:none;stroke-opacity:1;paint-order:fill markers stroke"
         d="m 743.64966,238.27451 c 0,0 -28.02149,8.9328 -42.54785,9.70422 -10.38524,0.5515 -21.08775,-0.4743 -30.98216,-3.67712 -11.96188,-3.87206 -32.95611,-18.34695 -32.95611,-18.34695 0,0 -18.18806,7.63926 -27.55947,6.50944 -8.37936,-1.01022 -17.00763,-5.14725 -22.5527,-11.51015 -6.08208,-6.97912 -9.12447,-26.23057 -9.12447,-26.23057 0,0 -17.54287,14.02436 -28.14839,15.37334 -11.90363,1.51408 -25.34305,-1.54981 -34.90737,-8.79638 -10.55856,-7.99989 -19.23164,-21.23497 -19.77635,-34.47071 -0.5059,-12.29266 6.41906,-25.30985 15.6745,-33.41555 11.52662,-10.09475 43.82619,-13.86249 43.82619,-13.86249 0,0 -3.57934,-26.62602 3.25554,-36.91597 6.09694,-9.17894 18.24822,-14.51399 29.22816,-15.444931 10.15158,-0.86071 21.26593,2.943261 29.04151,9.526241 7.37882,6.24707 13.46305,25.69053 13.46305,25.69053 0,0 1.93203,-5.21971 8.63366,-7.42968 5.78695,-1.90835 10.60489,1.532 10.60489,1.532 0,0 -9.55901,-20.71414 7.9999,-37.366141 11.01565,-10.446679 22.73384,-9.348697 34.41999,-6.385043 0,0 20.62049,-34.903003 37.91263,-43.0852498 22.26742,-10.53643703 50.60721,-10.705305 73.85865,-2.567418 19.97925,6.9926338 38.04546,22.7485688 48.23715,41.3011018 7.67445,13.970239 7.97133,31.44337 6.76589,47.33713 -0.58197,7.67322 -6.67584,22.09947 -6.67584,22.09947 0,0 13.58434,-5.14677 20.72473,-5.55334 6.4587,-0.36776 19.19516,2.86275 19.19516,2.86275 0,0 5.27501,-36.07014 17.62022,-47.67222 12.71313,-11.947861 32.82381,-17.323022 50.12361,-15.066507 15.96035,2.081797 31.15853,12.661796 41.13002,25.296487 9.1309,11.56958 15.2099,27.34589 13.7773,42.01475 -0.8315,8.51348 -12.5631,22.37647 -12.5631,22.37647 0,0 24.5158,-3.13217 32.43,4.37433 7.8617,7.45663 10.6813,22.14819 6.0415,31.93993 -4.8912,10.32209 -18.835,14.45278 -30.0913,16.39326 -12.47139,2.14995 -37.49664,-5.95138 -37.49664,-5.95138 0,0 -1.82439,19.87001 -7.80003,27.14484 -4.85042,5.90495 -12.82754,9.35269 -20.38406,10.49019 -10.11432,1.52253 -30.20832,-5.38658 -30.20832,-5.38658 0,0 -17.56965,14.76826 -28.32149,17.55323 -8.72862,2.26092 -18.4295,1.44635 -27.01899,-1.29615 -7.73912,-2.47099 -20.51656,-13.15553 -20.51656,-13.15553 0,0 -12.15597,19.03383 -25.42374,24.35692 -11.66212,4.67889 -28.14647,6.66523 -40.24055,3.25495 -9.71884,-2.7405 -28.66876,-13.54552 -28.66876,-13.54552 z"
         id="path6"
         sodipodi:nodetypes="csscaacsssscssscscscsssscscsssscaaacsscsscssc" /></g><path
       style="fill:#1a4d66;fill-opacity:0.89999998;stroke-width:11.3386;stroke-dasharray:none;stroke:#163c50;stroke-opacity:1"
       d="M -39.239954,828.29308 C 4.8003886,738.23887 127.20356,669.05445 222.09659,726.36027 c 93.59057,67.4566 173.61806,-14.01774 224.63119,-87.20859 87.18404,-51.75432 193.11065,-4.50845 255.10545,64.45916 55.49151,99.26973 145.36078,30.61786 210.41668,-13.13607 89.03359,-43.05098 141.88939,49.384 211.03969,77.89492 64.003,-9.26117 127.92,-62.05346 181.2308,7.41221 68.0595,58.62677 144.393,-33.89357 213.8088,3.4785 74.7935,50.36254 157.5188,5.81959 231.0982,-21.22881 78.4809,-40.36368 174.7795,14.81369 191.6069,98.51854 34.7463,94.86862 38.6114,222.16477 -49.3392,290.01787 -329.0043,0.8454 -595.3826,-0.871 -941.47594,-2.062 -341.28802,3.2672 -642.62294,5.3719 -972.05967,-0.2759 -77.783457,-68.8109 -59.332261,-193.50475 -30.766418,-279.61188 4.159147,-12.21485 8.631678,-24.3222 13.366974,-36.32514 z"
       id="path12"
       sodipodi:nodetypes="ccccccccccccccc" /><g
       id="g99"><g
         id="g58"><g
           id="g38"
           style="display:inline"><g
             id="g28"
             style="display:inline"><g
               id="g23"><g
                 id="g18"><path
                   id="path13"
                   style="fill:#1a4d66;fill-opacity:0.9;stroke:#aed4ea;stroke-width:11.3386;stroke-dasharray:none;stroke-opacity:0.9"
                   d="m 798.17384,-828.29493 -37.58985,54.9375 z m 75.58984,0 -37.58789,54.9375 z m -75.58984,75.58984 -37.58985,54.9375 z m 75.58984,0 -37.58789,54.9375 z" /><path
                   id="path18"
                   style="fill:#1a4d66;fill-opacity:0.9;stroke:#aed4ea;stroke-width:11.3386;stroke-dasharray:none;stroke-opacity:0.9"
                   d="m 949.3554,-828.29493 -37.5899,54.9375 z m 75.5898,0 -37.5879,54.9375 z m -75.5898,75.58984 -37.5899,54.9375 z m 75.5898,0 -37.5879,54.9375 z" /></g><g
                 id="g22"
                 transform="translate(302.36261)"><path
                   id="path20"
                   style="fill:#1a4d66;fill-opacity:0.9;stroke:#aed4ea;stroke-width:11.3386;stroke-dasharray:none;stroke-opacity:0.9"
                   d="m 798.17384,-828.29493 -37.58985,54.9375 z m 75.58984,0 -37.58789,54.9375 z m -75.58984,75.58984 -37.58985,54.9375 z m 75.58984,0 -37.58789,54.9375 z" /><path
                   id="path22"
                   style="fill:#1a4d66;fill-opacity:0.9;stroke:#aed4ea;stroke-width:11.3386;stroke-dasharray:none;stroke-opacity:0.9"
                   d="m 949.3554,-828.29493 -37.5899,54.9375 z m 75.5898,0 -37.5879,54.9375 z m -75.5898,75.58984 -37.5899,54.9375 z m 75.5898,0 -37.5879,54.9375 z" /></g></g><g
               id="g27"
               transform="translate(529.13427)"><g
                 id="g24"><path
                   id="path23"
                   style="fill:#1a4d66;fill-opacity:0.9;stroke:#aed4ea;stroke-width:11.3386;stroke-dasharray:none;stroke-opacity:0.9"
                   d="m 798.17384,-828.29493 -37.58985,54.9375 z m 75.58984,0 -37.58789,54.9375 z m -75.58984,75.58984 -37.58985,54.9375 z m 75.58984,0 -37.58789,54.9375 z" /><path
                   id="path24"
                   style="fill:#1a4d66;fill-opacity:0.9;stroke:#aed4ea;stroke-width:11.3386;stroke-dasharray:none;stroke-opacity:0.9"
                   d="m 949.3554,-828.29493 -37.5899,54.9375 z m 75.5898,0 -37.5879,54.9375 z m -75.5898,75.58984 -37.5899,54.9375 z m 75.5898,0 -37.5879,54.9375 z" /></g><g
                 id="g26"
                 transform="translate(302.36261)"><path
                   id="path25"
                   style="fill:#1a4d66;fill-opacity:0.9;stroke:#aed4ea;stroke-width:11.3386;stroke-dasharray:none;stroke-opacity:0.9"
                   d="m 798.17384,-828.29493 -37.58985,54.9375 z m 75.58984,0 -37.58789,54.9375 z m -75.58984,75.58984 -37.58985,54.9375 z m 75.58984,0 -37.58789,54.9375 z" /><path
                   id="path26"
                   style="fill:#1a4d66;fill-opacity:0.9;stroke:#aed4ea;stroke-width:11.3386;stroke-dasharray:none;stroke-opacity:0.9"
                   d="m 949.3554,-828.29493 -37.5899,54.9375 z m 75.5898,0 -37.5879,54.9375 z m -75.5898,75.58984 -37.5899,54.9375 z m 75.5898,0 -37.5879,54.9375 z" /></g></g></g><g
             id="g37"
             transform="translate(1058.2681)"><g
               id="g32"><g
                 id="g29"><path
                   id="path28"
                   style="fill:#1a4d66;fill-opacity:0.9;stroke:#aed4ea;stroke-width:11.3386;stroke-dasharray:none;stroke-opacity:0.9"
                   d="m 798.17384,-828.29493 -37.58985,54.9375 z m 75.58984,0 -37.58789,54.9375 z m -75.58984,75.58984 -37.58985,54.9375 z m 75.58984,0 -37.58789,54.9375 z" /><path
                   id="path29"
                   style="fill:#1a4d66;fill-opacity:0.9;stroke:#aed4ea;stroke-width:11.3386;stroke-dasharray:none;stroke-opacity:0.9"
                   d="m 949.3554,-828.29493 -37.5899,54.9375 z m 75.5898,0 -37.5879,54.9375 z m -75.5898,75.58984 -37.5899,54.9375 z m 75.5898,0 -37.5879,54.9375 z" /></g><g
                 id="g31"
                 transform="translate(302.36261)"><path
                   id="path30"
                   style="fill:#1a4d66;fill-opacity:0.9;stroke:#aed4ea;stroke-width:11.3386;stroke-dasharray:none;stroke-opacity:0.9"
                   d="m 798.17384,-828.29493 -37.58985,54.9375 z m 75.58984,0 -37.58789,54.9375 z m -75.58984,75.58984 -37.58985,54.9375 z m 75.58984,0 -37.58789,54.9375 z" /><path
                   id="path31"
                   style="fill:#1a4d66;fill-opacity:0.9;stroke:#aed4ea;stroke-width:11.3386;stroke-dasharray:none;stroke-opacity:0.9"
                   d="m 949.3554,-828.29493 -37.5899,54.9375 z m 75.5898,0 -37.5879,54.9375 z m -75.5898,75.58984 -37.5899,54.9375 z m 75.5898,0 -37.5879,54.9375 z" /></g></g><g
               id="g36"
               transform="translate(529.13427)"><g
                 id="g33"><path
                   id="path32"
                   style="fill:#1a4d66;fill-opacity:0.9;stroke:#aed4ea;stroke-width:11.3386;stroke-dasharray:none;stroke-opacity:0.9"
                   d="m 798.17384,-828.29493 -37.58985,54.9375 z m 75.58984,0 -37.58789,54.9375 z m -75.58984,75.58984 -37.58985,54.9375 z m 75.58984,0 -37.58789,54.9375 z" /><path
                   id="path33"
                   style="fill:#1a4d66;fill-opacity:0.9;stroke:#aed4ea;stroke-width:11.3386;stroke-dasharray:none;stroke-opacity:0.9"
                   d="m 949.3554,-828.29493 -37.5899,54.9375 z m 75.5898,0 -37.5879,54.9375 z m -75.5898,75.58984 -37.5899,54.9375 z m 75.5898,0 -37.5879,54.9375 z" /></g><g
                 id="g35"
                 transform="translate(302.36261)"><path
                   id="path34"
                   style="fill:#1a4d66;fill-opacity:0.9;stroke:#aed4ea;stroke-width:11.3386;stroke-dasharray:none;stroke-opacity:0.9"
                   d="m 798.17384,-828.29493 -37.58985,54.9375 z m 75.58984,0 -37.58789,54.9375 z m -75.58984,75.58984 -37.58985,54.9375 z m 75.58984,0 -37.58789,54.9375 z" /><path
                   id="path35"
                   style="fill:#1a4d66;fill-opacity:0.9;stroke:#aed4ea;stroke-width:11.3386;stroke-dasharray:none;stroke-opacity:0.9"
                   d="m 949.3554,-828.29493 -37.5899,54.9375 z m 75.5898,0 -37.5879,54.9375 z m -75.5898,75.58984 -37.5899,54.9375 z m 75.5898,0 -37.5879,54.9375 z" /></g></g></g></g><g
           id="g57"
           transform="translate(4.0437188e-4,-151.18082)"
           style="display:inline"><g
             id="g47"
             style="display:inline"><g
               id="g42"><g
                 id="g39"><path
                   id="path38"
                   style="fill:#1a4d66;fill-opacity:0.9;stroke:#aed4ea;stroke-width:11.3386;stroke-dasharray:none;stroke-opacity:0.9"
                   d="m 798.17384,-828.29493 -37.58985,54.9375 z m 75.58984,0 -37.58789,54.9375 z m -75.58984,75.58984 -37.58985,54.9375 z m 75.58984,0 -37.58789,54.9375 z" /><path
                   id="path39"
                   style="fill:#1a4d66;fill-opacity:0.9;stroke:#aed4ea;stroke-width:11.3386;stroke-dasharray:none;stroke-opacity:0.9"
                   d="m 949.3554,-828.29493 -37.5899,54.9375 z m 75.5898,0 -37.5879,54.9375 z m -75.5898,75.58984 -37.5899,54.9375 z m 75.5898,0 -37.5879,54.9375 z" /></g><g
                 id="g41"
                 transform="translate(302.36261)"><path
                   id="path40"
                   style="fill:#1a4d66;fill-opacity:0.9;stroke:#aed4ea;stroke-width:11.3386;stroke-dasharray:none;stroke-opacity:0.9"
                   d="m 798.17384,-828.29493 -37.58985,54.9375 z m 75.58984,0 -37.58789,54.9375 z m -75.58984,75.58984 -37.58985,54.9375 z m 75.58984,0 -37.58789,54.9375 z" /><path
                   id="path41"
                   style="fill:#1a4d66;fill-opacity:0.9;stroke:#aed4ea;stroke-width:11.3386;stroke-dasharray:none;stroke-opacity:0.9"
                   d="m 949.3554,-828.29493 -37.5899,54.9375 z m 75.5898,0 -37.5879,54.9375 z m -75.5898,75.58984 -37.5899,54.9375 z m 75.5898,0 -37.5879,54.9375 z" /></g></g><g
               id="g46"
               transform="translate(529.13427)"><g
                 id="g43"><path
                   id="path42"
                   style="fill:#1a4d66;fill-opacity:0.9;stroke:#aed4ea;stroke-width:11.3386;stroke-dasharray:none;stroke-opacity:0.9"
                   d="m 798.17384,-828.29493 -37.58985,54.9375 z m 75.58984,0 -37.58789,54.9375 z m -75.58984,75.58984 -37.58985,54.9375 z m 75.58984,0 -37.58789,54.9375 z" /><path
                   id="path43"
                   style="fill:#1a4d66;fill-opacity:0.9;stroke:#aed4ea;stroke-width:11.3386;stroke-dasharray:none;stroke-opacity:0.9"
                   d="m 949.3554,-828.29493 -37.5899,54.9375 z m 75.5898,0 -37.5879,54.9375 z m -75.5898,75.58984 -37.5899,54.9375 z m 75.5898,0 -37.5879,54.9375 z" /></g><g
                 id="g45"
                 transform="translate(302.36261)"><path
                   id="path44"
                   style="fill:#1a4d66;fill-opacity:0.9;stroke:#aed4ea;stroke-width:11.3386;stroke-dasharray:none;stroke-opacity:0.9"
                   d="m 798.17384,-828.29493 -37.58985,54.9375 z m 75.58984,0 -37.58789,54.9375 z m -75.58984,75.58984 -37.58985,54.9375 z m 75.58984,0 -37.58789,54.9375 z" /><path
                   id="path45"
                   style="fill:#1a4d66;fill-opacity:0.9;stroke:#aed4ea;stroke-width:11.3386;stroke-dasharray:none;stroke-opacity:0.9"
                   d="m 949.3554,-828.29493 -37.5899,54.9375 z m 75.5898,0 -37.5879,54.9375 z m -75.5898,75.58984 -37.5899,54.9375 z m 75.5898,0 -37.5879,54.9375 z" /></g></g></g><g
             id="g56"
             transform="translate(1058.2681)"><g
               id="g51"><g
                 id="g48"><path
                   id="path47"
                   style="fill:#1a4d66;fill-opacity:0.9;stroke:#aed4ea;stroke-width:11.3386;stroke-dasharray:none;stroke-opacity:0.9"
                   d="m 798.17384,-828.29493 -37.58985,54.9375 z m 75.58984,0 -37.58789,54.9375 z m -75.58984,75.58984 -37.58985,54.9375 z m 75.58984,0 -37.58789,54.9375 z" /><path
                   id="path48"
                   style="fill:#1a4d66;fill-opacity:0.9;stroke:#aed4ea;stroke-width:11.3386;stroke-dasharray:none;stroke-opacity:0.9"
                   d="m 949.3554,-828.29493 -37.5899,54.9375 z m 75.5898,0 -37.5879,54.9375 z m -75.5898,75.58984 -37.5899,54.9375 z m 75.5898,0 -37.5879,54.9375 z" /></g><g
                 id="g50"
                 transform="translate(302.36261)"><path
                   id="path49"
                   style="fill:#1a4d66;fill-opacity:0.9;stroke:#aed4ea;stroke-width:11.3386;stroke-dasharray:none;stroke-opacity:0.9"
                   d="m 798.17384,-828.29493 -37.58985,54.9375 z m 75.58984,0 -37.58789,54.9375 z m -75.58984,75.58984 -37.58985,54.9375 z m 75.58984,0 -37.58789,54.9375 z" /><path
                   id="path50"
                   style="fill:#1a4d66;fill-opacity:0.9;stroke:#aed4ea;stroke-width:11.3386;stroke-dasharray:none;stroke-opacity:0.9"
                   d="m 949.3554,-828.29493 -37.5899,54.9375 z m 75.5898,0 -37.5879,54.9375 z m -75.5898,75.58984 -37.5899,54.9375 z m 75.5898,0 -37.5879,54.9375 z" /></g></g><g
               id="g55"
               transform="translate(529.13427)"><g
                 id="g52"><path
                   id="path51"
                   style="fill:#1a4d66;fill-opacity:0.9;stroke:#aed4ea;stroke-width:11.3386;stroke-dasharray:none;stroke-opacity:0.9"
                   d="m 798.17384,-828.29493 -37.58985,54.9375 z m 75.58984,0 -37.58789,54.9375 z m -75.58984,75.58984 -37.58985,54.9375 z m 75.58984,0 -37.58789,54.9375 z" /><path
                   id="path52"
                   style="fill:#1a4d66;fill-opacity:0.9;stroke:#aed4ea;stroke-width:11.3386;stroke-dasharray:none;stroke-opacity:0.9"
                   d="m 949.3554,-828.29493 -37.5899,54.9375 z m 75.5898,0 -37.5879,54.9375 z m -75.5898,75.58984 -37.5899,54.9375 z m 75.5898,0 -37.5879,54.9375 z" /></g><g
                 id="g54"
                 transform="translate(302.36261)"><path
                   id="path53"
                   style="fill:#1a4d66;fill-opacity:0.9;stroke:#aed4ea;stroke-width:11.3386;stroke-dasharray:none;stroke-opacity:0.9"
                   d="m 798.17384,-828.29493 -37.58985,54.9375 z m 75.58984,0 -37.58789,54.9375 z m -75.58984,75.58984 -37.58985,54.9375 z m 75.58984,0 -37.58789,54.9375 z" /><path
                   id="path54"
                   style="fill:#1a4d66;fill-opacity:0.9;stroke:#aed4ea;stroke-width:11.3386;stroke-dasharray:none;stroke-opacity:0.9"
                   d="m 949.3554,-828.29493 -37.5899,54.9375 z m 75.5898,0 -37.5879,54.9375 z m -75.5898,75.58984 -37.5899,54.9375 z m 75.5898,0 -37.5879,54.9375 z" /></g></g></g></g></g><g
         id="g98"
         transform="translate(0,-226.77166)"><g
           id="g77"
           style="display:inline"><g
             id="g67"
             style="display:inline"><g
               id="g62"><g
                 id="g59"><path
                   id="path58"
                   style="fill:#1a4d66;fill-opacity:0.9;stroke:#aed4ea;stroke-width:11.3386;stroke-dasharray:none;stroke-opacity:0.9"
                   d="m 798.17384,-828.29493 -37.58985,54.9375 z m 75.58984,0 -37.58789,54.9375 z m -75.58984,75.58984 -37.58985,54.9375 z m 75.58984,0 -37.58789,54.9375 z" /><path
                   id="path59"
                   style="fill:#1a4d66;fill-opacity:0.9;stroke:#aed4ea;stroke-width:11.3386;stroke-dasharray:none;stroke-opacity:0.9"
                   d="m 949.3554,-828.29493 -37.5899,54.9375 z m 75.5898,0 -37.5879,54.9375 z m -75.5898,75.58984 -37.5899,54.9375 z m 75.5898,0 -37.5879,54.9375 z" /></g><g
                 id="g61"
                 transform="translate(302.36261)"><path
                   id="path60"
                   style="fill:#1a4d66;fill-opacity:0.9;stroke:#aed4ea;stroke-width:11.3386;stroke-dasharray:none;stroke-opacity:0.9"
                   d="m 798.17384,-828.29493 -37.58985,54.9375 z m 75.58984,0 -37.58789,54.9375 z m -75.58984,75.58984 -37.58985,54.9375 z m 75.58984,0 -37.58789,54.9375 z" /><path
                   id="path61"
                   style="fill:#1a4d66;fill-opacity:0.9;stroke:#aed4ea;stroke-width:11.3386;stroke-dasharray:none;stroke-opacity:0.9"
                   d="m 949.3554,-828.29493 -37.5899,54.9375 z m 75.5898,0 -37.5879,54.9375 z m -75.5898,75.58984 -37.5899,54.9375 z m 75.5898,0 -37.5879,54.9375 z" /></g></g><g
               id="g66"
               transform="translate(529.13427)"><g
                 id="g63"><path
                   id="path62"
                   style="fill:#1a4d66;fill-opacity:0.9;stroke:#aed4ea;stroke-width:11.3386;stroke-dasharray:none;stroke-opacity:0.9"
                   d="m 798.17384,-828.29493 -37.58985,54.9375 z m 75.58984,0 -37.58789,54.9375 z m -75.58984,75.58984 -37.58985,54.9375 z m 75.58984,0 -37.58789,54.9375 z" /><path
                   id="path63"
                   style="fill:#1a4d66;fill-opacity:0.9;stroke:#aed4ea;stroke-width:11.3386;stroke-dasharray:none;stroke-opacity:0.9"
                   d="m 949.3554,-828.29493 -37.5899,54.9375 z m 75.5898,0 -37.5879,54.9375 z m -75.5898,75.58984 -37.5899,54.9375 z m 75.5898,0 -37.5879,54.9375 z" /></g><g
                 id="g65"
                 transform="translate(302.36261)"><path
                   id="path64"
                   style="fill:#1a4d66;fill-opacity:0.9;stroke:#aed4ea;stroke-width:11.3386;stroke-dasharray:none;stroke-opacity:0.9"
                   d="m 798.17384,-828.29493 -37.58985,54.9375 z m 75.58984,0 -37.58789,54.9375 z m -75.58984,75.58984 -37.58985,54.9375 z m 75.58984,0 -37.58789,54.9375 z" /><path
                   id="path65"
                   style="fill:#1a4d66;fill-opacity:0.9;stroke:#aed4ea;stroke-width:11.3386;stroke-dasharray:none;stroke-opacity:0.9"
                   d="m 949.3554,-828.29493 -37.5899,54.9375 z m 75.5898,0 -37.5879,54.9375 z m -75.5898,75.58984 -37.5899,54.9375 z m 75.5898,0 -37.5879,54.9375 z" /></g></g></g><g
             id="g76"
             transform="translate(1058.2681)"><g
               id="g71"><g
                 id="g68"><path
                   id="path67"
                   style="fill:#1a4d66;fill-opacity:0.9;stroke:#aed4ea;stroke-width:11.3386;stroke-dasharray:none;stroke-opacity:0.9"
                   d="m 798.17384,-828.29493 -37.58985,54.9375 z m 75.58984,0 -37.58789,54.9375 z m -75.58984,75.58984 -37.58985,54.9375 z m 75.58984,0 -37.58789,54.9375 z" /><path
                   id="path68"
                   style="fill:#1a4d66;fill-opacity:0.9;stroke:#aed4ea;stroke-width:11.3386;stroke-dasharray:none;stroke-opacity:0.9"
                   d="m 949.3554,-828.29493 -37.5899,54.9375 z m 75.5898,0 -37.5879,54.9375 z m -75.5898,75.58984 -37.5899,54.9375 z m 75.5898,0 -37.5879,54.9375 z" /></g><g
                 id="g70"
                 transform="translate(302.36261)"><path
                   id="path69"
                   style="fill:#1a4d66;fill-opacity:0.9;stroke:#aed4ea;stroke-width:11.3386;stroke-dasharray:none;stroke-opacity:0.9"
                   d="m 798.17384,-828.29493 -37.58985,54.9375 z m 75.58984,0 -37.58789,54.9375 z m -75.58984,75.58984 -37.58985,54.9375 z m 75.58984,0 -37.58789,54.9375 z" /><path
                   id="path70"
                   style="fill:#1a4d66;fill-opacity:0.9;stroke:#aed4ea;stroke-width:11.3386;stroke-dasharray:none;stroke-opacity:0.9"
                   d="m 949.3554,-828.29493 -37.5899,54.9375 z m 75.5898,0 -37.5879,54.9375 z m -75.5898,75.58984 -37.5899,54.9375 z m 75.5898,0 -37.5879,54.9375 z" /></g></g><g
               id="g75"
               transform="translate(529.13427)"><g
                 id="g72"><path
                   id="path71"
                   style="fill:#1a4d66;fill-opacity:0.9;stroke:#aed4ea;stroke-width:11.3386;stroke-dasharray:none;stroke-opacity:0.9"
                   d="m 798.17384,-828.29493 -37.58985,54.9375 z m 75.58984,0 -37.58789,54.9375 z m -75.58984,75.58984 -37.58985,54.9375 z m 75.58984,0 -37.58789,54.9375 z" /><path
                   id="path72"
                   style="fill:#1a4d66;fill-opacity:0.9;stroke:#aed4ea;stroke-width:11.3386;stroke-dasharray:none;stroke-opacity:0.9"
                   d="m 949.3554,-828.29493 -37.5899,54.9375 z m 75.5898,0 -37.5879,54.9375 z m -75.5898,75.58984 -37.5899,54.9375 z m 75.5898,0 -37.5879,54.9375 z" /></g><g
                 id="g74"
                 transform="translate(302.36261)"><path
                   id="path73"
                   style="fill:#1a4d66;fill-opacity:0.9;stroke:#aed4ea;stroke-width:11.3386;stroke-dasharray:none;stroke-opacity:0.9"
                   d="m 798.17384,-828.29493 -37.58985,54.9375 z m 75.58984,0 -37.58789,54.9375 z m -75.58984,75.58984 -37.58985,54.9375 z m 75.58984,0 -37.58789,54.9375 z" /><path
                   id="path74"
                   style="fill:#1a4d66;fill-opacity:0.9;stroke:#aed4ea;stroke-width:11.3386;stroke-dasharray:none;stroke-opacity:0.9"
                   d="m 949.3554,-828.29493 -37.5899,54.9375 z m 75.5898,0 -37.5879,54.9375 z m -75.5898,75.58984 -37.5899,54.9375 z m 75.5898,0 -37.5879,54.9375 z" /></g></g></g></g><g
           id="g97"
           transform="translate(4.0437188e-4,-151.18082)"
           style="display:inline"><g
             id="g87"
             style="display:inline"><g
               id="g81"><g
                 id="g78"><path
                   id="path77"
                   style="fill:#1a4d66;fill-opacity:0.9;stroke:#aed4ea;stroke-width:11.3386;stroke-dasharray:none;stroke-opacity:0.9"
                   d="m 798.17384,-828.29493 -37.58985,54.9375 z m 75.58984,0 -37.58789,54.9375 z m -75.58984,75.58984 -37.58985,54.9375 z m 75.58984,0 -37.58789,54.9375 z" /><path
                   id="path78"
                   style="fill:#1a4d66;fill-opacity:0.9;stroke:#aed4ea;stroke-width:11.3386;stroke-dasharray:none;stroke-opacity:0.9"
                   d="m 949.3554,-828.29493 -37.5899,54.9375 z m 75.5898,0 -37.5879,54.9375 z m -75.5898,75.58984 -37.5899,54.9375 z m 75.5898,0 -37.5879,54.9375 z" /></g><g
                 id="g80"
                 transform="translate(302.36261)"><path
                   id="path79"
                   style="fill:#1a4d66;fill-opacity:0.9;stroke:#aed4ea;stroke-width:11.3386;stroke-dasharray:none;stroke-opacity:0.9"
                   d="m 798.17384,-828.29493 -37.58985,54.9375 z m 75.58984,0 -37.58789,54.9375 z m -75.58984,75.58984 -37.58985,54.9375 z m 75.58984,0 -37.58789,54.9375 z" /><path
                   id="path80"
                   style="fill:#1a4d66;fill-opacity:0.9;stroke:#aed4ea;stroke-width:11.3386;stroke-dasharray:none;stroke-opacity:0.9"
                   d="m 949.3554,-828.29493 -37.5899,54.9375 z m 75.5898,0 -37.5879,54.9375 z m -75.5898,75.58984 -37.5899,54.9375 z m 75.5898,0 -37.5879,54.9375 z" /></g></g><g
               id="g86"
               transform="translate(529.13427)"><g
                 id="g82"><path
                   id="path81"
                   style="fill:#1a4d66;fill-opacity:0.9;stroke:#aed4ea;stroke-width:11.3386;stroke-dasharray:none;stroke-opacity:0.9"
                   d="m 798.17384,-828.29493 -37.58985,54.9375 z m 75.58984,0 -37.58789,54.9375 z m -75.58984,75.58984 -37.58985,54.9375 z m 75.58984,0 -37.58789,54.9375 z" /><path
                   id="path82"
                   style="fill:#1a4d66;fill-opacity:0.9;stroke:#aed4ea;stroke-width:11.3386;stroke-dasharray:none;stroke-opacity:0.9"
                   d="m 949.3554,-828.29493 -37.5899,54.9375 z m 75.5898,0 -37.5879,54.9375 z m -75.5898,75.58984 -37.5899,54.9375 z m 75.5898,0 -37.5879,54.9375 z" /></g><g
                 id="g85"
                 transform="translate(302.36261)"><path
                   id="path84"
                   style="fill:#1a4d66;fill-opacity:0.9;stroke:#aed4ea;stroke-width:11.3386;stroke-dasharray:none;stroke-opacity:0.9"
                   d="m 798.17384,-828.29493 -37.58985,54.9375 z m 75.58984,0 -37.58789,54.9375 z m -75.58984,75.58984 -37.58985,54.9375 z m 75.58984,0 -37.58789,54.9375 z" /><path
                   id="path85"
                   style="fill:#1a4d66;fill-opacity:0.9;stroke:#aed4ea;stroke-width:11.3386;stroke-dasharray:none;stroke-opacity:0.9"
                   d="m 949.3554,-828.29493 -37.5899,54.9375 z m 75.5898,0 -37.5879,54.9375 z m -75.5898,75.58984 -37.5899,54.9375 z m 75.5898,0 -37.5879,54.9375 z" /></g></g></g><g
             id="g96"
             transform="translate(1058.2681)"><g
               id="g91"><g
                 id="g89"><path
                   id="path87"
                   style="fill:#1a4d66;fill-opacity:0.9;stroke:#aed4ea;stroke-width:11.3386;stroke-dasharray:none;stroke-opacity:0.9"
                   d="m 798.17384,-828.29493 -37.58985,54.9375 z m 75.58984,0 -37.58789,54.9375 z m -75.58984,75.58984 -37.58985,54.9375 z m 75.58984,0 -37.58789,54.9375 z" /><path
                   id="path88"
                   style="fill:#1a4d66;fill-opacity:0.9;stroke:#aed4ea;stroke-width:11.3386;stroke-dasharray:none;stroke-opacity:0.9"
                   d="m 949.3554,-828.29493 -37.5899,54.9375 z m 75.5898,0 -37.5879,54.9375 z m -75.5898,75.58984 -37.5899,54.9375 z m 75.5898,0 -37.5879,54.9375 z" /></g><g
                 id="g90"
                 transform="translate(302.36261)"><path
                   id="path89"
                   style="fill:#1a4d66;fill-opacity:0.9;stroke:#aed4ea;stroke-width:11.3386;stroke-dasharray:none;stroke-opacity:0.9"
                   d="m 798.17384,-828.29493 -37.58985,54.9375 z m 75.58984,0 -37.58789,54.9375 z m -75.58984,75.58984 -37.58985,54.9375 z m 75.58984,0 -37.58789,54.9375 z" /><path
                   id="path90"
                   style="fill:#1a4d66;fill-opacity:0.9;stroke:#aed4ea;stroke-width:11.3386;stroke-dasharray:none;stroke-opacity:0.9"
                   d="m 949.3554,-828.29493 -37.5899,54.9375 z m 75.5898,0 -37.5879,54.9375 z m -75.5898,75.58984 -37.5899,54.9375 z m 75.5898,0 -37.5879,54.9375 z" /></g></g><g
               id="g95"
               transform="translate(529.13427)"><g
                 id="g92"><path
                   id="path91"
                   style="fill:#1a4d66;fill-opacity:0.9;stroke:#aed4ea;stroke-width:11.3386;stroke-dasharray:none;stroke-opacity:0.9"
                   d="m 798.17384,-828.29493 -37.58985,54.9375 z m 75.58984,0 -37.58789,54.9375 z m -75.58984,75.58984 -37.58985,54.9375 z m 75.58984,0 -37.58789,54.9375 z" /><path
                   id="path92"
                   style="fill:#1a4d66;fill-opacity:0.9;stroke:#aed4ea;stroke-width:11.3386;stroke-dasharray:none;stroke-opacity:0.9"
                   d="m 949.3554,-828.29493 -37.5899,54.9375 z m 75.5898,0 -37.5879,54.9375 z m -75.5898,75.58984 -37.5899,54.9375 z m 75.5898,0 -37.5879,54.9375 z" /></g><g
                 id="g94"
                 transform="translate(302.36261)"><path
                   id="path93"
                   style="fill:#1a4d66;fill-opacity:0.9;stroke:#aed4ea;stroke-width:11.3386;stroke-dasharray:none;stroke-opacity:0.9"
                   d="m 798.17384,-828.29493 -37.58985,54.9375 z m 75.58984,0 -37.58789,54.9375 z m -75.58984,75.58984 -37.58985,54.9375 z m 75.58984,0 -37.58789,54.9375 z" /><path
                   id="path94"
                   style="fill:#1a4d66;fill-opacity:0.9;stroke:#aed4ea;stroke-width:11.3386;stroke-dasharray:none;stroke-opacity:0.9"
                   d="m 949.3554,-828.29493 -37.5899,54.9375 z m 75.5898,0 -37.5879,54.9375 z m -75.5898,75.58984 -37.5899,54.9375 z m 75.5898,0 -37.5879,54.9375 z" /></g></g></g></g></g></g><path
       id="path179"
       style="fill:#1a4d66;fill-opacity:0.9;stroke:#aed4ea;stroke-width:11.3386;stroke-dasharray:none;stroke-opacity:0.9;stroke-linecap:round"
       d="M 1723.8067 116.18945 L 1576.5996 283.84375 L 1723.8067 116.18945 z M 1449.836 124.36719 L 1302.6289 292.02149 L 1449.836 124.36719 z M 462.07032 126.76172 L 314.86133 294.41602 L 462.07032 126.76172 z M 811.93556 132.54492 L 664.72657 300.19922 L 811.93556 132.54492 z M 1134.9746 132.54492 L 987.76564 300.19922 L 1134.9746 132.54492 z M 276.01563 214.67774 L 128.80664 382.33204 L 276.01563 214.67774 z M 1462.1035 283.84375 L 1314.8965 451.4961 L 1462.1035 283.84375 z M 1866.9258 296.10938 L 1719.7188 463.76368 L 1866.9258 296.10938 z M 765.67188 314.70704 L 618.4629 482.35938 L 765.67188 314.70704 z M 401.34961 346.51172 L 254.14258 514.16602 L 401.34961 346.51172 z M 1650.2031 369.71485 L 1502.9961 537.36719 L 1650.2031 369.71485 z M 881.44923 443.31836 L 734.2422 610.97266 L 881.44923 443.31836 z M 190.38867 480.1211 L 43.181641 647.77345 L 190.38867 480.1211 z M 1826.0352 586.43751 L 1678.8281 754.09181 L 1826.0352 586.43751 z M 401.34961 595.17579 L 254.14258 762.83009 L 401.34961 595.17579 z M 1053.1934 598.70509 L 905.98439 766.35938 L 1053.1934 598.70509 z " /></g></svg>
