<?xml version="1.0" encoding="UTF-8" standalone="no"?>
<!-- Created with Inkscape (http://www.inkscape.org/) -->

<svg
   width="500mm"
   height="300mm"
   viewBox="0 0 1889.7638 1133.8583"
   version="1.1"
   id="svg1"
   xml:space="preserve"
   inkscape:version="1.3 (0e150ed6c4, 2023-07-21)"
   sodipodi:docname="thumb-mudslide.svg"
   xmlns:inkscape="http://www.inkscape.org/namespaces/inkscape"
   xmlns:sodipodi="http://sodipodi.sourceforge.net/DTD/sodipodi-0.dtd"
   xmlns:xlink="http://www.w3.org/1999/xlink"
   xmlns="http://www.w3.org/2000/svg"
   xmlns:svg="http://www.w3.org/2000/svg"><sodipodi:namedview
     id="namedview1"
     pagecolor="#ffffff"
     bordercolor="#000000"
     borderopacity="0.25"
     inkscape:showpageshadow="2"
     inkscape:pageopacity="0.0"
     inkscape:pagecheckerboard="0"
     inkscape:deskcolor="#d1d1d1"
     inkscape:document-units="mm"
     inkscape:zoom="0.14565446"
     inkscape:cx="58.357292"
     inkscape:cy="442.82887"
     inkscape:window-width="1366"
     inkscape:window-height="745"
     inkscape:window-x="-8"
     inkscape:window-y="-8"
     inkscape:window-maximized="1"
     inkscape:current-layer="layer1" /><defs
     id="defs1"><linearGradient
       id="linearGradient24"
       inkscape:collect="always"><stop
         style="stop-color:#ffdf33;stop-opacity:1;"
         offset="0"
         id="stop24" /><stop
         style="stop-color:#ffec6f;stop-opacity:1;"
         offset="1"
         id="stop25" /></linearGradient><linearGradient
       id="linearGradient19"
       inkscape:collect="always"><stop
         style="stop-color:#bf8040;stop-opacity:1;"
         offset="0"
         id="stop19" /><stop
         style="stop-color:#7a4d1f;stop-opacity:1;"
         offset="1"
         id="stop20" /></linearGradient><linearGradient
       id="linearGradient16"
       inkscape:collect="always"><stop
         style="stop-color:#778a0f;stop-opacity:1;"
         offset="0"
         id="stop16" /><stop
         style="stop-color:#93ab14;stop-opacity:1;"
         offset="1"
         id="stop17" /></linearGradient><linearGradient
       id="linearGradient14"
       inkscape:collect="always"><stop
         style="stop-color:#89a112;stop-opacity:1;"
         offset="0"
         id="stop14" /><stop
         style="stop-color:#b8ce1d;stop-opacity:1;"
         offset="1"
         id="stop15" /></linearGradient><linearGradient
       inkscape:collect="always"
       xlink:href="#linearGradient14"
       id="linearGradient15"
       x1="386.48074"
       y1="352.43619"
       x2="888.79565"
       y2="743.77332"
       gradientUnits="userSpaceOnUse" /><linearGradient
       inkscape:collect="always"
       xlink:href="#linearGradient16"
       id="linearGradient17"
       x1="-1029.0712"
       y1="400.293"
       x2="-403.27936"
       y2="1051.2186"
       gradientUnits="userSpaceOnUse" /><linearGradient
       inkscape:collect="always"
       xlink:href="#linearGradient19"
       id="linearGradient20"
       x1="776.98486"
       y1="192.51385"
       x2="998.51404"
       y2="676.53607"
       gradientUnits="userSpaceOnUse" /><linearGradient
       inkscape:collect="always"
       xlink:href="#linearGradient24"
       id="linearGradient25"
       x1="93.246414"
       y1="1067.8859"
       x2="495.58624"
       y2="1067.8859"
       gradientUnits="userSpaceOnUse" /></defs><g
     inkscape:label="Layer 1"
     inkscape:groupmode="layer"
     id="layer1"><rect
       style="fill:#add3d8;fill-opacity:1;stroke:#000000;stroke-width:11.3386;stroke-dasharray:none;stroke-opacity:1"
       id="rect2"
       width="2021.9086"
       height="1276.9949"
       x="-65.222855"
       y="-68.65564" /><g
       id="g6"
       style="display:inline"><path
         style="fill:url(#linearGradient17);fill-opacity:1;stroke:#000000;stroke-width:10.1897;stroke-linejoin:round;stroke-dasharray:none;stroke-opacity:1"
         d="m -1045.571,392.2031 v 763.4876 h 874.73866 c 0,0 -146.88579,-349.29079 -258.6634,-500.02292 -50.42353,-67.99615 -115.53177,-124.68502 -181.95919,-177.15793 -42.52225,-33.58954 -137.29154,-87.05529 -137.29154,-87.05529 z"
         id="path3"
         sodipodi:nodetypes="cccaacc"
         transform="matrix(1.1127492,0,0,1.1127492,1071.2192,-533.51739)" /><path
         style="display:inline;fill:url(#linearGradient20);fill-opacity:1;stroke:#000000;stroke-width:11.3386;stroke-linejoin:round;stroke-dasharray:none;stroke-opacity:1"
         d="m -82.407695,794.62475 c 0,0 130.463729,-132.3956 179.501431,-168.37015 C 168.9305,573.55444 235.63974,514.16742 303.41792,456.34056 374.06186,396.0687 435.24233,323.87669 512.16946,271.86246 571.46679,231.76861 631.456,181.41285 704.07683,175.50494 c 62.95213,-5.12133 131.52331,1.27482 174.69727,42.88451 29.99617,28.90936 18.01201,81.82973 34.25203,120.19356 14.60156,34.4933 37.13963,65.06129 56.15298,97.33336 23.68405,40.19985 52.63099,77.56693 72.15119,119.94527 18.1978,39.50729 16.7511,87.86317 41.2648,123.79451 32.6275,47.8242 133.3819,111.24133 133.3819,111.24133 -442.5681,1.17396 -877.48531,-0.8445 -1298.384695,3.72727 z"
         id="path5"
         sodipodi:nodetypes="cssssassaacc" /><path
         style="display:inline;fill:url(#linearGradient15);fill-opacity:1;stroke:#000000;stroke-width:11.3386;stroke-linejoin:round;stroke-dasharray:none;stroke-opacity:1"
         d="m -95.305891,792.71493 c 0,0 143.361925,-130.48578 192.399627,-166.46033 C 168.9305,573.55444 235.63974,514.16742 303.41792,456.34056 374.06186,396.0687 435.24233,323.87669 512.16946,271.86246 571.46679,231.76861 631.456,181.41285 704.07683,175.50494 c 62.95213,-5.12133 144.73874,-9.05626 174.69727,42.88451 23.53099,40.797 -55.7928,97.27725 -39.55278,135.64108 14.60156,34.4933 16.62586,100.72887 1.30859,147.42411 -10.21286,31.13427 -54.56646,46.20513 -58.92535,78.68043 -4.39728,32.76128 39.87867,59.36647 36.41011,92.23905 -5.06879,48.03843 -80.16865,120.7205 -80.16865,120.7205 z"
         id="path6"
         sodipodi:nodetypes="cssssasaaacc" /><path
         style="display:inline;fill:#995b28;fill-opacity:1;stroke:#000000;stroke-width:11.3386;stroke-linejoin:round;stroke-dasharray:none;stroke-opacity:1"
         d="m 781.77196,429.48699 c -12.1525,1.3809 -23.5346,10.4711 -30.3418,20.6324 -4.6589,6.9545 -5.2566,16.2067 -5.1581,24.5768 0.099,8.4141 -0.8296,19.3502 5.765,24.5769 6.5788,5.2142 17.4834,3.3427 25.1837,0 11.6838,-5.0718 21.3648,-16.0878 26.0939,-27.9145 4.1309,-10.3304 6.5433,-24.1646 0.3034,-33.3759 -4.382,-6.4688 -14.0827,-9.3778 -21.8461,-8.4957 z"
         id="path8"
         sodipodi:nodetypes="aaaaaaaa" /></g><g
       id="g7"
       style="display:inline"><path
         style="display:inline;fill:#abc01a;fill-opacity:1;stroke:#000000;stroke-width:11.3386;stroke-dasharray:none;stroke-opacity:1"
         d="m -24.826679,777.02239 c 0,0 643.296609,-70.74423 965.408929,-71.53517 322.92595,-0.79294 968.04445,66.88872 968.04445,66.88872 V 1146.5492 H -24.029473 Z"
         id="path1"
         sodipodi:nodetypes="cscccc" /><path
         style="display:inline;fill:#666666;fill-opacity:1;stroke:#000000;stroke-width:11.3386;stroke-dasharray:none;stroke-opacity:1"
         d="m 781.34028,413.51456 c 0,0 69.27786,-4.88963 103.94422,-6.89236 28.8621,-1.6674 86.6257,-4.26571 86.6257,-4.26571 0,0 119.7506,55.12521 170.9297,86.15868 51.1791,31.03348 124.1579,56.89644 156.9025,117.3393 21.6701,40.00055 24.1676,79.76292 -11.5984,135.98606 -33.5538,48.94092 -99.1088,99.15954 -99.1088,99.15954 l -1010.95429,-1.7164 c 0,0 210.48285,-59.96257 326.07856,-96.49871 60.80006,-19.21698 138.39322,-39.94302 203.07258,-70.8747 40.54565,-19.39019 86.59718,-39.51879 114.49547,-71.20497 16.02255,-18.19802 26.23854,-44.51003 24.02947,-68.65563 -1.26077,-13.78043 -7.2945,-37.42156 -15.742,-54.24929 -12.05865,-24.02127 -48.67471,-64.28581 -48.67471,-64.28581 z"
         id="path2"
         sodipodi:nodetypes="caczssccsassac"
         transform="translate(-136.88753,305.54913)" /><path
         style="fill:#7a451f;fill-opacity:1;stroke:#000000;stroke-width:11.3386;stroke-linejoin:round;stroke-dasharray:none;stroke-opacity:1"
         d="m 584.82879,721.18381 c -21.60895,1.01237 -42.7449,18.38173 -39.11393,35.64344 9.72056,46.21177 89.77987,29.35175 134.28197,45.14986 32.51963,11.54437 64.34046,26.13586 96.96466,36.26351 41.24774,12.80466 82.56251,32.28748 124.68772,30.91586 56.84093,-1.85078 110.06569,-48.69053 166.85879,-52.62697 48.8942,-3.38898 96.9127,24.83869 145.8592,25.24097 34.4634,0.28324 69.3101,-5.94431 102.8257,-16.08314 39.1801,-11.8524 73.0248,-47.32083 113.2575,-51.82344 61.3137,-6.86184 119.8544,41.79736 181.8081,39.31433 60.2273,-2.41384 229.1074,-45.99997 173.1164,-52.24071 -316.4477,-35.27118 -482.5641,-52.25277 -716.0024,-55.77794 -161.7803,-2.44305 -312.34802,7.95699 -484.54371,16.02423 z"
         id="path7"
         sodipodi:nodetypes="saaaaaaaaasss" /><g
         id="g14"
         style="display:inline;fill:#995b28;fill-opacity:1"
         transform="translate(-36.044211,-1.716391)"><path
           style="fill:#995b28;fill-opacity:1;stroke:#000000;stroke-width:11.3386;stroke-linejoin:round;stroke-dasharray:none;stroke-opacity:1"
           d="m 1094.9031,521.59162 c 57.1626,-11.12982 78.907,100.14242 136.4487,109.10844 34.8719,5.43366 72.6895,-61.47542 98.8894,-37.82924 162.825,146.95467 53.5989,128.54025 -120.9633,127.71734 -76.0659,-0.27748 -157.1853,2.61179 -228.17033,3.64109 -116.56012,1.69013 37.75553,-187.83229 113.79553,-202.63763 z"
           id="path12"
           sodipodi:nodetypes="aasasa" /><path
           style="display:inline;fill:#995b28;fill-opacity:1;stroke:#000000;stroke-width:11.3386;stroke-linejoin:round;stroke-dasharray:none;stroke-opacity:1"
           d="m 1098.3042,691.34471 c -8.2414,-9.0371 -22.2777,-12.93159 -34.5005,-12.49154 -8.3654,0.30119 -16.2122,5.2396 -22.9363,10.22511 -6.7594,5.0117 -16.1645,10.66893 -16.5343,19.0755 -0.3689,8.38644 7.5386,16.12491 14.7601,20.40485 10.9572,6.49411 25.5569,7.8816 37.911,4.7817 10.7913,-2.7076 23.4142,-8.86117 27.2204,-19.31572 2.673,-7.34182 -0.6556,-16.90668 -5.9204,-22.6799 z"
           id="path13"
           sodipodi:nodetypes="aaaaaaaa" /></g></g><g
       id="g88"
       inkscape:label="house"
       transform="matrix(1.1127492,0,0,1.1127492,1095.2487,-588.44193)"
       style="display:inline;stroke-width:10.1897;stroke-dasharray:none"><rect
         style="display:inline;fill:url(#linearGradient25);fill-opacity:1;stroke:#000000;stroke-width:7.61171;stroke-dasharray:none;stroke-opacity:1"
         id="rect82"
         width="394.72812"
         height="270.80176"
         x="97.052269"
         y="932.48499" /><path
         style="fill:#d40000;fill-opacity:1;stroke:#000000;stroke-width:10.1897;stroke-linecap:round;stroke-linejoin:round;stroke-dasharray:none;stroke-opacity:1;paint-order:fill markers stroke"
         d="M 76.371855,932.36655 H 506.8592 L 291.41001,836.1151 Z"
         id="path83"
         sodipodi:nodetypes="cccc" /><rect
         style="fill:#d40000;fill-opacity:1;stroke:#000000;stroke-width:10.1897;stroke-linecap:round;stroke-linejoin:round;stroke-dasharray:none;stroke-opacity:1;paint-order:fill markers stroke"
         id="rect83"
         width="430.82483"
         height="41.925907"
         x="76.623207"
         y="933.47852" /><rect
         style="fill:#1a1a1a;fill-opacity:1;stroke:#000000;stroke-width:10.1897;stroke-linecap:round;stroke-linejoin:bevel;stroke-dasharray:none;stroke-opacity:1;paint-order:fill markers stroke"
         id="rect84"
         width="96.863304"
         height="164.81218"
         x="169.98628"
         y="1037.0052" /><rect
         style="fill:#1a1a1a;fill-opacity:1;stroke:#000000;stroke-width:10.1897;stroke-linecap:round;stroke-linejoin:bevel;stroke-dasharray:none;stroke-opacity:1;paint-order:fill markers stroke"
         id="rect86"
         width="77.769852"
         height="87.135742"
         x="1035.7338"
         y="-423.96887"
         transform="matrix(-0.00123545,0.99999924,-0.99999594,-0.00284915,0,0)" /></g><g
       id="g11"
       transform="translate(-145.89323,-1815.9416)"
       style="display:inline"><path
         style="fill:#995b28;fill-opacity:1;stroke:#000000;stroke-width:11.3386;stroke-linejoin:round;stroke-dasharray:none;stroke-opacity:1"
         d="m 1269.2711,2547.1242 c 8.4268,-20.8989 36.3713,-27.0577 56.6409,-36.9024 16.0305,-7.7858 32.8221,-16.5739 50.6336,-17.1639 13.3155,-0.441 26.53,4.6986 38.6188,10.2984 11.3767,5.27 19.9484,15.3415 30.895,21.4549 19.3492,10.8061 47.3813,9.0671 60.9319,26.604 3.3644,4.3542 5.6473,11.741 2.5746,16.3057 -4.9211,7.3105 -16.937,5.7561 -25.7459,6.0074 -20.0266,0.5713 -39.268,-8.4309 -59.2155,-10.2983 -19.6547,-1.8399 -39.4841,-1.4586 -59.2155,-0.8582 -30.3951,0.9249 -66.4752,24.8872 -90.9687,6.8655 -6.1483,-4.5237 -8.0037,-15.2338 -5.1492,-22.3131 z"
         id="path9"
         sodipodi:nodetypes="aaaaaaaaaaaa" /><path
         style="fill:#995b28;fill-opacity:1;stroke:#000000;stroke-width:11.3386;stroke-linejoin:round;stroke-dasharray:none;stroke-opacity:1"
         d="m 1333.2067,2565.5754 c 1.6973,6.5658 11.3574,8.1865 18.0221,9.4401 10.1831,1.9155 22.4262,2.5376 30.895,-3.4327 5.0715,-3.5753 9.9278,-10.789 8.1529,-16.7349 -2.2382,-7.4981 -12.4531,-10.7038 -20.1676,-12.0147 -8.49,-1.4426 -18.1828,0.3255 -25.3168,5.1492 -5.8168,3.9331 -13.343,10.7948 -11.5856,17.593 z"
         id="path10"
         sodipodi:nodetypes="aaaaaaa" /><path
         style="fill:#995b28;fill-opacity:1;stroke:#000000;stroke-width:11.3386;stroke-linejoin:round;stroke-dasharray:none;stroke-opacity:1"
         d="m 1457.6197,2550.5311 c -8.6263,-1.0382 -18.9277,-0.2363 -25.4871,5.4615 -4.8795,4.2387 -9.4006,12.3444 -6.6752,18.2051 2.9951,6.4405 12.9279,7.013 20.0256,7.282 10.4954,0.3978 23.8065,-0.2737 30.3418,-8.4957 2.7719,-3.4872 2.8871,-9.5235 0.6068,-13.3504 -3.5657,-5.9843 -11.8957,-8.27 -18.8119,-9.1025 z"
         id="path11"
         sodipodi:nodetypes="aaaaaaa" /></g><g
       id="g13"
       style="display:inline;stroke-width:11.3386;stroke-dasharray:none"
       transform="translate(-175.72502,232.72883)"
       inkscape:label="trees"><g
         id="g17"
         inkscape:label="tree"
         transform="matrix(0.61559091,0,0,0.61559091,242.85837,777.66168)"
         style="stroke-width:18.419;stroke-dasharray:none"><path
           style="fill:#3db200;fill-opacity:1;stroke:#004d00;stroke-width:18.419;stroke-dasharray:none;stroke-opacity:1"
           d="m 638.58769,-375.14055 c 0,0 -32.38983,24.77669 -51.62773,29.64761 -13.05311,3.30497 -27.42235,2.63166 -40.38208,-1.02233 -15.72384,-4.43333 -30.9963,-12.86383 -42.42675,-24.53595 -9.39086,-9.58941 -19.42429,-35.27043 -19.42429,-35.27043 0,0 -20.81758,-16.94898 -26.58061,-28.62527 -7.19075,-14.56895 -9.78913,-31.8827 -8.17865,-48.04957 0.94099,-9.4462 5.2489,-18.49536 10.22331,-26.58061 6.38438,-10.37698 24.53595,-27.09178 24.53595,-27.09178 0,0 -2.28843,-34.38455 5.15226,-49.04092 7.79984,-15.3638 22.86854,-27.06134 38.31357,-34.69907 14.27716,-7.06021 46.98833,-8.67477 46.98833,-8.67477 0,0 26.79625,-26.17413 44.09673,-31.08458 19.04366,-5.40522 40.94939,-3.86581 59.27759,3.61448 13.28524,5.42211 32.53038,28.193 32.53038,28.193 0,0 38.36705,2.45319 54.27107,11.95003 13.90001,8.30018 25.16924,21.98659 31.69227,36.80392 5.8075,13.19196 5.11165,42.93791 5.11165,42.93791 0,0 19.75481,20.1521 25.55829,32.7146 5.68974,12.3163 8.80191,26.31821 8.17864,39.87092 -0.53983,11.73823 -3.99112,23.77514 -10.22331,33.73693 -6.65057,10.63055 -27.60294,25.55828 -27.60294,25.55828 0,0 -10.24629,25.17114 -19.42429,34.75926 -9.41689,9.83769 -21.61737,17.89845 -34.75927,21.46896 -14.4734,3.93226 -30.31952,2.12995 -44.98257,-1.02233 -21.34858,-4.58955 -60.31755,-25.55829 -60.31755,-25.55829 z"
           id="path16"
           sodipodi:nodetypes="cssscssscsscsscsscssscsssc" /><path
           style="fill:#552200;fill-opacity:1;stroke:#331500;stroke-width:18.419;stroke-dasharray:none;stroke-opacity:1"
           d="m 595.13862,-209.01172 c -2.22777,-5.45653 23.11584,-20.87009 23.11584,-20.87009 l 1.93128,-162.63837 c 0,0 -29.7641,-45.59931 -25.55828,-51.11656 4.20582,-5.51725 37.82625,28.62528 37.82625,28.62528 0,0 1.52151,-73.91763 12.26797,-73.60785 10.74646,0.30978 15.33496,105.30011 15.33496,105.30011 0,0 34.30145,-23.80307 39.87094,-15.33497 5.56948,8.46811 -33.73694,55.20589 -33.73694,55.20589 l 3.46477,112.54414 c 0,0 23.3356,16.44171 20.56001,21.38125 -2.77559,4.93955 -33.73692,-4.60049 -33.73692,-4.60049 0,0 -4.8377,16.08852 -11.75682,16.3573 -6.91911,0.26879 -13.80147,-16.3573 -13.80147,-16.3573 0,0 -33.55381,10.56819 -35.78159,5.11166 z"
           id="path17"
           sodipodi:nodetypes="zcczczczcczczcz" /></g><g
         id="g21"
         inkscape:label="tree"
         transform="translate(-225.49729,896.55788)"
         style="display:inline;stroke-width:11.3386;stroke-dasharray:none"><path
           style="fill:#008200;fill-opacity:1;stroke:#004d00;stroke-width:11.3386;stroke-dasharray:none;stroke-opacity:1"
           d="m 638.58769,-375.14055 c 0,0 -32.38983,24.77669 -51.62773,29.64761 -13.05311,3.30497 -27.42235,2.63166 -40.38208,-1.02233 -15.72384,-4.43333 -30.9963,-12.86383 -42.42675,-24.53595 -9.39086,-9.58941 -19.42429,-35.27043 -19.42429,-35.27043 0,0 -20.81758,-16.94898 -26.58061,-28.62527 -7.19075,-14.56895 -9.78913,-31.8827 -8.17865,-48.04957 0.94099,-9.4462 5.2489,-18.49536 10.22331,-26.58061 6.38438,-10.37698 24.53595,-27.09178 24.53595,-27.09178 0,0 -2.28843,-34.38455 5.15226,-49.04092 7.79984,-15.3638 22.86854,-27.06134 38.31357,-34.69907 14.27716,-7.06021 46.98833,-8.67477 46.98833,-8.67477 0,0 26.79625,-26.17413 44.09673,-31.08458 19.04366,-5.40522 40.94939,-3.86581 59.27759,3.61448 13.28524,5.42211 32.53038,28.193 32.53038,28.193 0,0 38.36705,2.45319 54.27107,11.95003 13.90001,8.30018 25.16924,21.98659 31.69227,36.80392 5.8075,13.19196 5.11165,42.93791 5.11165,42.93791 0,0 19.75481,20.1521 25.55829,32.7146 5.68974,12.3163 8.80191,26.31821 8.17864,39.87092 -0.53983,11.73823 -3.99112,23.77514 -10.22331,33.73693 -6.65057,10.63055 -27.60294,25.55828 -27.60294,25.55828 0,0 -10.24629,25.17114 -19.42429,34.75926 -9.41689,9.83769 -21.61737,17.89845 -34.75927,21.46896 -14.4734,3.93226 -30.31952,2.12995 -44.98257,-1.02233 -21.34858,-4.58955 -60.31755,-25.55829 -60.31755,-25.55829 z"
           id="path19"
           sodipodi:nodetypes="cssscssscsscsscsscssscsssc" /><path
           style="fill:#552200;fill-opacity:1;stroke:#331500;stroke-width:11.3386;stroke-dasharray:none;stroke-opacity:1"
           d="m 595.13862,-209.01172 c -2.22777,-5.45653 23.11584,-20.87009 23.11584,-20.87009 l 1.93128,-162.63837 c 0,0 -29.7641,-45.59931 -25.55828,-51.11656 4.20582,-5.51725 37.82625,28.62528 37.82625,28.62528 0,0 1.52151,-73.91763 12.26797,-73.60785 10.74646,0.30978 15.33496,105.30011 15.33496,105.30011 0,0 34.30145,-23.80307 39.87094,-15.33497 5.56948,8.46811 -33.73694,55.20589 -33.73694,55.20589 l 3.46477,112.54414 c 0,0 23.3356,16.44171 20.56001,21.38125 -2.77559,4.93955 -33.73692,-4.60049 -33.73692,-4.60049 0,0 -4.8377,16.08852 -11.75682,16.3573 -6.91911,0.26879 -13.80147,-16.3573 -13.80147,-16.3573 0,0 -33.55381,10.56819 -35.78159,5.11166 z"
           id="path21"
           sodipodi:nodetypes="zcczczczcczczcz" /></g></g></g></svg>
