<?xml version="1.0" encoding="UTF-8" standalone="no"?>
<!-- Created with Inkscape (http://www.inkscape.org/) -->

<svg
   width="500mm"
   height="300mm"
   viewBox="0 0 1889.7638 1133.8583"
   version="1.1"
   id="svg1"
   xml:space="preserve"
   inkscape:version="1.3 (0e150ed6c4, 2023-07-21)"
   sodipodi:docname="thumb-storm.svg"
   xmlns:inkscape="http://www.inkscape.org/namespaces/inkscape"
   xmlns:sodipodi="http://sodipodi.sourceforge.net/DTD/sodipodi-0.dtd"
   xmlns:xlink="http://www.w3.org/1999/xlink"
   xmlns="http://www.w3.org/2000/svg"
   xmlns:svg="http://www.w3.org/2000/svg"><sodipodi:namedview
     id="namedview1"
     pagecolor="#ffffff"
     bordercolor="#000000"
     borderopacity="0.25"
     inkscape:showpageshadow="2"
     inkscape:pageopacity="0.0"
     inkscape:pagecheckerboard="0"
     inkscape:deskcolor="#d1d1d1"
     inkscape:document-units="mm"
     inkscape:zoom="0.19496277"
     inkscape:cx="787.3298"
     inkscape:cy="-105.14828"
     inkscape:window-width="1366"
     inkscape:window-height="745"
     inkscape:window-x="-8"
     inkscape:window-y="-8"
     inkscape:window-maximized="1"
     inkscape:current-layer="layer1" /><defs
     id="defs1"><linearGradient
       id="linearGradient30"
       inkscape:collect="always"><stop
         style="stop-color:#339900;stop-opacity:1;"
         offset="0"
         id="stop30" /><stop
         style="stop-color:#008000;stop-opacity:1;"
         offset="1"
         id="stop31" /></linearGradient><linearGradient
       id="linearGradient28"
       inkscape:collect="always"><stop
         style="stop-color:#339900;stop-opacity:1;"
         offset="0"
         id="stop28" /><stop
         style="stop-color:#008000;stop-opacity:1;"
         offset="1"
         id="stop29" /></linearGradient><linearGradient
       id="linearGradient24"
       inkscape:collect="always"><stop
         style="stop-color:#339900;stop-opacity:1;"
         offset="0"
         id="stop25" /><stop
         style="stop-color:#006600;stop-opacity:1;"
         offset="1"
         id="stop26" /></linearGradient><linearGradient
       id="linearGradient23"
       inkscape:collect="always"><stop
         style="stop-color:#339900;stop-opacity:1;"
         offset="0"
         id="stop23" /><stop
         style="stop-color:#006600;stop-opacity:1;"
         offset="1"
         id="stop24" /></linearGradient><inkscape:path-effect
       effect="fillet_chamfer"
       id="path-effect17-8"
       is_visible="true"
       lpeversion="1"
       nodesatellites_param="F,0,0,1,0,0,0,1 @ F,0,0,1,0,3.3220372,0,1 @ F,0,0,1,0,0,0,1 @ F,0,0,1,0,0,0,1 @ F,0,0,1,0,0,0,1 @ F,0,0,1,0,0,0,1 @ F,0,0,1,0,0,0,1 @ F,0,0,1,0,0,0,1 @ F,0,0,1,0,2.4054121,0,1 @ F,0,0,1,0,3.1842909,0,1 @ F,0,0,1,0,0,0,1 @ F,0,0,1,0,0,0,1 @ F,0,0,1,0,0,0,1 @ F,0,0,1,0,0,0,1 @ F,0,0,1,0,0,0,1 @ F,0,0,1,0,0,0,1 @ F,0,0,1,0,0,0,1 @ F,0,0,1,0,0,0,1 @ F,0,0,1,0,0,0,1 @ F,0,0,1,0,0,0,1 @ F,0,0,1,0,0,0,1 @ F,0,0,1,0,0,0,1"
       radius="0"
       unit="px"
       method="auto"
       mode="F"
       chamfer_steps="1"
       flexible="false"
       use_knot_distance="true"
       apply_no_radius="true"
       apply_with_radius="true"
       only_selected="false"
       hide_knots="false" /><inkscape:path-effect
       effect="fillet_chamfer"
       id="path-effect9"
       is_visible="true"
       lpeversion="1"
       nodesatellites_param="F,0,0,1,0,0,0,1 @ F,0,0,1,0,3.3220372,0,1 @ F,0,0,1,0,0,0,1 @ F,0,0,1,0,0,0,1 @ F,0,0,1,0,0,0,1 @ F,0,0,1,0,0,0,1 @ F,0,0,1,0,0,0,1 @ F,0,0,1,0,0,0,1 @ F,0,0,1,0,2.4054121,0,1 @ F,0,0,1,0,3.1842909,0,1 @ F,0,0,1,0,0,0,1 @ F,0,0,1,0,0,0,1 @ F,0,0,1,0,0,0,1 @ F,0,0,1,0,0,0,1 @ F,0,0,1,0,0,0,1 @ F,0,0,1,0,0,0,1 @ F,0,0,1,0,0,0,1 @ F,0,0,1,0,0,0,1 @ F,0,0,1,0,0,0,1 @ F,0,0,1,0,0,0,1 @ F,0,0,1,0,0,0,1 @ F,0,0,1,0,0,0,1"
       radius="0"
       unit="px"
       method="auto"
       mode="F"
       chamfer_steps="1"
       flexible="false"
       use_knot_distance="true"
       apply_no_radius="true"
       apply_with_radius="true"
       only_selected="false"
       hide_knots="false" /><filter
       inkscape:collect="always"
       style="color-interpolation-filters:sRGB"
       id="filter18"
       x="-0.28732383"
       y="-0.16427939"
       width="1.5746477"
       height="1.3285588"><feGaussianBlur
         inkscape:collect="always"
         stdDeviation="26.617707"
         id="feGaussianBlur18" /></filter><radialGradient
       inkscape:collect="always"
       xlink:href="#linearGradient23"
       id="radialGradient24"
       cx="906.32703"
       cy="1696.1339"
       fx="906.32703"
       fy="1696.1339"
       r="789.54685"
       gradientTransform="matrix(-0.22877558,0.81564928,-1.3072717,-0.36666721,3545.4845,676.58121)"
       gradientUnits="userSpaceOnUse" /><radialGradient
       inkscape:collect="always"
       xlink:href="#linearGradient24"
       id="radialGradient26"
       cx="-74.195526"
       cy="1374.5385"
       fx="-74.195526"
       fy="1374.5385"
       r="653.44126"
       gradientTransform="matrix(-1.6295809,0.23548486,-0.08221123,-0.56891074,809.52039,1630.4886)"
       gradientUnits="userSpaceOnUse" /><linearGradient
       inkscape:collect="always"
       xlink:href="#linearGradient28"
       id="linearGradient29"
       x1="835.53729"
       y1="-494.30981"
       x2="442.68945"
       y2="-496.12326"
       gradientUnits="userSpaceOnUse" /><linearGradient
       inkscape:collect="always"
       xlink:href="#linearGradient30"
       id="linearGradient31"
       x1="443.83414"
       y1="-503.37701"
       x2="841.64636"
       y2="-503.37701"
       gradientUnits="userSpaceOnUse" /></defs><g
     inkscape:label="Layer 1"
     inkscape:groupmode="layer"
     id="layer1"><g
       id="g14"><rect
         style="fill:#205360;fill-opacity:0.89999998;stroke:#000000;stroke-width:11.3386;stroke-dasharray:none;stroke-opacity:1"
         id="rect1"
         width="2023.0712"
         height="1241.6479"
         x="-67.116104"
         y="-52.734081"
         transform="translate(-6.3356321,0.27419657)" /><ellipse
         style="fill:url(#radialGradient26);fill-opacity:1;stroke-width:11.33858282;stroke-dasharray:none;stroke:#004d0b;stroke-opacity:1"
         id="path2"
         cx="355.79889"
         cy="1041.3236"
         rx="647.77197"
         ry="369.94186" /><ellipse
         style="fill:url(#radialGradient24);fill-opacity:1;stroke-width:11.33858282;stroke:#004d0b;stroke-opacity:1;stroke-dasharray:none"
         id="ellipse2"
         cx="1454.2283"
         cy="1163.2108"
         rx="783.87756"
         ry="452.5556" /></g><g
       id="g13"><g
         id="g21"
         inkscape:label="tree"
         transform="translate(-313.89033,886.98561)"><path
           style="fill:url(#linearGradient29);fill-opacity:1;stroke:#004d00;stroke-width:11.3386;stroke-dasharray:none;stroke-opacity:1"
           d="m 638.58769,-375.14055 c 0,0 -32.38983,24.77669 -51.62773,29.64761 -13.05311,3.30497 -27.42235,2.63166 -40.38208,-1.02233 -15.72384,-4.43333 -30.9963,-12.86383 -42.42675,-24.53595 -9.39086,-9.58941 -19.42429,-35.27043 -19.42429,-35.27043 0,0 -20.81758,-16.94898 -26.58061,-28.62527 -7.19075,-14.56895 -9.78913,-31.8827 -8.17865,-48.04957 0.94099,-9.4462 5.2489,-18.49536 10.22331,-26.58061 6.38438,-10.37698 24.53595,-27.09178 24.53595,-27.09178 0,0 -2.28843,-34.38455 5.15226,-49.04092 7.79984,-15.3638 22.86854,-27.06134 38.31357,-34.69907 14.27716,-7.06021 46.98833,-8.67477 46.98833,-8.67477 0,0 26.79625,-26.17413 44.09673,-31.08458 19.04366,-5.40522 40.94939,-3.86581 59.27759,3.61448 13.28524,5.42211 32.53038,28.193 32.53038,28.193 0,0 38.36705,2.45319 54.27107,11.95003 13.90001,8.30018 25.16924,21.98659 31.69227,36.80392 5.8075,13.19196 5.11165,42.93791 5.11165,42.93791 0,0 19.75481,20.1521 25.55829,32.7146 5.68974,12.3163 8.80191,26.31821 8.17864,39.87092 -0.53983,11.73823 -3.99112,23.77514 -10.22331,33.73693 -6.65057,10.63055 -27.60294,25.55828 -27.60294,25.55828 0,0 -10.24629,25.17114 -19.42429,34.75926 -9.41689,9.83769 -21.61737,17.89845 -34.75927,21.46896 -14.4734,3.93226 -30.31952,2.12995 -44.98257,-1.02233 -21.34858,-4.58955 -60.31755,-25.55829 -60.31755,-25.55829 z"
           id="path19"
           sodipodi:nodetypes="cssscssscsscsscsscssscsssc" /><path
           style="fill:#552200;fill-opacity:1;stroke:#331500;stroke-width:11.3386;stroke-dasharray:none;stroke-opacity:1"
           d="m 595.13862,-209.01172 c -2.22777,-5.45653 23.11584,-20.87009 23.11584,-20.87009 l 1.93128,-162.63837 c 0,0 -29.7641,-45.59931 -25.55828,-51.11656 4.20582,-5.51725 37.82625,28.62528 37.82625,28.62528 0,0 1.52151,-73.91763 12.26797,-73.60785 10.74646,0.30978 15.33496,105.30011 15.33496,105.30011 0,0 34.30145,-23.80307 39.87094,-15.33497 5.56948,8.46811 -33.73694,55.20589 -33.73694,55.20589 l 3.46477,112.54414 c 0,0 23.3356,16.44171 20.56001,21.38125 -2.77559,4.93955 -33.73692,-4.60049 -33.73692,-4.60049 0,0 -4.8377,16.08852 -11.75682,16.3573 -6.91911,0.26879 -13.80147,-16.3573 -13.80147,-16.3573 0,0 -33.55381,10.56819 -35.78159,5.11166 z"
           id="path21"
           sodipodi:nodetypes="zcczczczcczczcz" /></g><path
         style="fill:#009900;fill-opacity:1;stroke:#004d0b;stroke-width:11.3386;stroke-linecap:round;stroke-linejoin:bevel;stroke-dasharray:none;stroke-opacity:1;paint-order:fill markers stroke"
         id="path20"
         sodipodi:type="arc"
         sodipodi:cx="-65.544922"
         sodipodi:cy="-1517.4692"
         sodipodi:rx="77.469795"
         sodipodi:ry="77.469795"
         sodipodi:start="0.19198186"
         sodipodi:end="5.0223708"
         sodipodi:open="true"
         sodipodi:arc-type="chord"
         d="m 10.501599,-1502.6876 a 77.469795,77.469795 0 0 1 -62.847069,61.5554 77.469795,77.469795 0 0 1 -79.86733,-36.8787 77.469795,77.469795 0 0 1 6.09871,-87.7589 77.469795,77.469795 0 0 1 84.200657,-25.477 z"
         transform="rotate(120.64058)"
         inkscape:label="bush" /><path
         style="fill:#008000;fill-opacity:1;stroke:#004d0b;stroke-width:11.33858282;stroke-linecap:round;stroke-linejoin:bevel;stroke-dasharray:none;stroke-opacity:1;paint-order:fill markers stroke"
         id="path3"
         sodipodi:type="arc"
         sodipodi:cx="-212.38324"
         sodipodi:cy="-1833.9761"
         sodipodi:rx="107.25641"
         sodipodi:ry="107.25641"
         sodipodi:start="0.19198186"
         sodipodi:end="5.0223708"
         sodipodi:open="true"
         sodipodi:arc-type="chord"
         d="m -107.09734,-1813.511 a 107.25641,107.25641 0 0 1 -87.01135,85.223 107.25641,107.25641 0 0 1 -110.57578,-51.0582 107.25641,107.25641 0 0 1 8.44362,-121.5017 107.25641,107.25641 0 0 1 116.57525,-35.2726 z"
         transform="rotate(120.64058)"
         inkscape:label="bush" /><path
         style="fill:#009900;fill-opacity:1;stroke:#004d0b;stroke-width:11.3386;stroke-linecap:round;stroke-linejoin:bevel;stroke-dasharray:none;stroke-opacity:1;paint-order:fill markers stroke"
         id="path4"
         sodipodi:type="arc"
         sodipodi:cx="310.229"
         sodipodi:cy="-752.45447"
         sodipodi:rx="107.25641"
         sodipodi:ry="107.25641"
         sodipodi:start="0.19198186"
         sodipodi:end="5.0223708"
         sodipodi:open="true"
         sodipodi:arc-type="chord"
         d="m 415.5149,-731.98944 a 107.25641,107.25641 0 0 1 -87.01134,85.22309 107.25641,107.25641 0 0 1 -110.57578,-51.05826 107.25641,107.25641 0 0 1 8.44362,-121.50167 107.25641,107.25641 0 0 1 116.57524,-35.27266 z"
         transform="rotate(120.64058)"
         inkscape:label="bush" /><path
         style="fill:#008000;fill-opacity:1;stroke:#004d0b;stroke-width:11.3386;stroke-linecap:round;stroke-linejoin:bevel;stroke-dasharray:none;stroke-opacity:1;paint-order:fill markers stroke"
         id="path5"
         sodipodi:type="arc"
         sodipodi:cx="432.31732"
         sodipodi:cy="-652.08191"
         sodipodi:rx="77.469795"
         sodipodi:ry="77.469795"
         sodipodi:start="0.19198186"
         sodipodi:end="5.0223708"
         sodipodi:open="true"
         sodipodi:arc-type="chord"
         d="m 508.36384,-637.30031 a 77.469795,77.469795 0 0 1 -62.84707,61.55544 77.469795,77.469795 0 0 1 -79.86733,-36.87866 77.469795,77.469795 0 0 1 6.09871,-87.75895 77.469795,77.469795 0 0 1 84.20066,-25.47695 z"
         transform="rotate(120.64058)"
         inkscape:label="bush" /><g
         id="g12"
         transform="translate(149.21763,-4.9469245)"><path
           style="fill:#808080;fill-opacity:1;stroke:#333333;stroke-width:11.3386;stroke-linecap:round;stroke-linejoin:round;stroke-dasharray:none;stroke-opacity:1;paint-order:fill markers stroke"
           d="m 1446.3587,176.94834 c 0,0 -42.004,15.98768 -63.9605,20.21442 -20.1818,3.88511 -40.9697,5.77064 -61.4872,4.57363 -21.8851,-1.27679 -64.5734,-12.47208 -64.5734,-12.47208 0,0 -44.8023,17.54941 -67.2114,13.18244 -19.0464,-3.71165 -42.0883,-5.70173 -48.7384,-31.83445 0,0 -11.8105,1.43658 -16.4778,-1.502 -6.8631,-4.32096 -12.9379,-12.79808 -12.4649,-20.89422 0.6617,-11.32577 10.484,-22.11221 20.7223,-26.99971 10.9647,-5.23422 36.4379,0.92653 36.4379,0.92653 0,0 -2.6794,-21.92901 2.2343,-31.079857 7.5349,-14.03216 22.5784,-24.60955 37.8353,-29.18186 11.7102,-3.50943 36.5724,2.73497 36.5724,2.73497 0,0 11.3487,-26.909053 22.897,-34.435263 18.3172,-11.937664 35.4748,-18.615947 57.063,-15.155242 13.4128,2.150119 34.2278,13.243175 43.5448,23.128522 7.7398,8.211983 14.109,30.773413 14.109,30.773413 7.1644,-14.49314 30.5809,-20.75221 44.2133,-13.55652 12.1527,6.41466 25.9486,23.07665 12.2596,39.36031 0,0 16.5172,-3.12417 25.7218,3.54208 11.7645,8.520267 10.7909,22.837187 10.7909,22.837187 0,0 31.1036,-3.99166 44.7105,2.12963 8.9993,4.04849 20.1513,11.33873 20.6701,21.19311 0.7761,14.73991 -14.0312,28.55372 -27.4179,34.77155 -20.4028,9.47656 -67.4507,-2.25659 -67.4507,-2.25659 z"
           id="path7"
           sodipodi:nodetypes="caacacssscaacssscacscsssc" /><path
           style="fill:#808080;fill-opacity:1;stroke:#333333;stroke-width:11.3386;stroke-linecap:round;stroke-linejoin:round;stroke-dasharray:none;stroke-opacity:1;paint-order:fill markers stroke"
           d="m 187.96278,92.996008 c 0,0 58.78842,18.663562 89.19966,22.759942 27.95317,3.76529 56.58243,4.74396 84.60321,1.51978 29.88852,-3.43908 87.51595,-22.074612 87.51595,-22.074612 0,0 62.74325,20.587402 93.11118,12.873682 25.81094,-6.55617 57.22944,-11.061912 64.3239,-47.382522 0,0 16.29372,1.05661 22.46202,-3.33019 9.07027,-6.45045 16.73952,-18.53485 15.46636,-29.59171 -1.78106,-15.46755 -16.07238,-29.4888697 -30.47828,-35.3953167 -15.428,-6.3254403 -49.8559,4.082657 -49.8559,4.082657 0,0 1.97834,-30.2540973 -5.46091,-42.4132973 -11.40771,-18.645221 -32.83701,-31.977005 -54.09509,-37.064122 -16.31633,-3.904569 -49.90057,6.570988 -49.90057,6.570988 0,0 -17.62753,-35.994767 -34.03213,-45.415657 -26.01996,-14.9429 -50.04499,-22.76889 -79.35809,-16.36033 -18.21229,3.98163 -45.87671,20.78838 -57.87972,35.05264 -9.97112,11.849645 -16.95642,43.255175 -16.95642,43.255175 -10.93562,-19.30547 -43.50426,-26.073838 -61.62793,-15.161796 -16.15645,9.727628 -33.77331,33.623082 -13.75941,54.878212 0,0 -22.87316,-3.00558 -34.97069,6.83918 -15.46199,12.58278733 -13.02264,32.124737 -13.02264,32.124737 0,0 -42.92651,-3.06807 -61.098177,6.36985 -12.01833,6.24204 -26.73603,17.09215 -26.6861,30.63473 0.0745,20.25662 21.43008,38.04121 40.25266,45.527412 28.687647,11.40967 92.247117,-8.299432 92.247117,-8.299432 z"
           id="path8"
           sodipodi:nodetypes="caacacssscaacssscacscsssc" /><path
           style="fill:#808080;fill-opacity:1;stroke:#333333;stroke-width:11.3386;stroke-linecap:round;stroke-linejoin:round;stroke-dasharray:none;stroke-opacity:1;paint-order:fill markers stroke"
           d="m 743.64966,238.27451 c 0,0 -28.02149,8.9328 -42.54785,9.70422 -10.38524,0.5515 -21.08775,-0.4743 -30.98216,-3.67712 -11.96188,-3.87206 -32.95611,-18.34695 -32.95611,-18.34695 0,0 -18.18806,7.63926 -27.55947,6.50944 -8.37936,-1.01022 -17.00763,-5.14725 -22.5527,-11.51015 -6.08208,-6.97912 -9.12447,-26.23057 -9.12447,-26.23057 0,0 -17.54287,14.02436 -28.14839,15.37334 -11.90363,1.51408 -25.34305,-1.54981 -34.90737,-8.79638 -10.55856,-7.99989 -19.23164,-21.23497 -19.77635,-34.47071 -0.5059,-12.29266 6.41906,-25.30985 15.6745,-33.41555 11.52662,-10.09475 43.82619,-13.86249 43.82619,-13.86249 0,0 -3.57934,-26.62602 3.25554,-36.91597 6.09694,-9.17894 18.24822,-14.51399 29.22816,-15.444931 10.15158,-0.86071 21.26593,2.943261 29.04151,9.526241 7.37882,6.24707 13.46305,25.69053 13.46305,25.69053 0,0 1.93203,-5.21971 8.63366,-7.42968 5.78695,-1.90835 10.60489,1.532 10.60489,1.532 0,0 -9.55901,-20.71414 7.9999,-37.366141 11.01565,-10.446679 22.73384,-9.348697 34.41999,-6.385043 0,0 20.62049,-34.903003 37.91263,-43.0852498 22.26742,-10.53643703 50.60721,-10.705305 73.85865,-2.567418 19.97925,6.9926338 38.04546,22.7485688 48.23715,41.3011018 7.67445,13.970239 7.97133,31.44337 6.76589,47.33713 -0.58197,7.67322 -6.67584,22.09947 -6.67584,22.09947 0,0 13.58434,-5.14677 20.72473,-5.55334 6.4587,-0.36776 19.19516,2.86275 19.19516,2.86275 0,0 5.27501,-36.07014 17.62022,-47.67222 12.71313,-11.947861 32.82381,-17.323022 50.12361,-15.066507 15.96035,2.081797 31.15853,12.661796 41.13002,25.296487 9.1309,11.56958 15.2099,27.34589 13.7773,42.01475 -0.8315,8.51348 -12.5631,22.37647 -12.5631,22.37647 0,0 24.5158,-3.13217 32.43,4.37433 7.8617,7.45663 10.6813,22.14819 6.0415,31.93993 -4.8912,10.32209 -18.835,14.45278 -30.0913,16.39326 -12.47139,2.14995 -37.49664,-5.95138 -37.49664,-5.95138 0,0 -1.82439,19.87001 -7.80003,27.14484 -4.85042,5.90495 -12.82754,9.35269 -20.38406,10.49019 -10.11432,1.52253 -30.20832,-5.38658 -30.20832,-5.38658 0,0 -17.56965,14.76826 -28.32149,17.55323 -8.72862,2.26092 -18.4295,1.44635 -27.01899,-1.29615 -7.73912,-2.47099 -20.51656,-13.15553 -20.51656,-13.15553 0,0 -12.15597,19.03383 -25.42374,24.35692 -11.66212,4.67889 -28.14647,6.66523 -40.24055,3.25495 -9.71884,-2.7405 -28.66876,-13.54552 -28.66876,-13.54552 z"
           id="path6"
           sodipodi:nodetypes="csscaacsssscssscscscsssscscsssscaaacsscsscssc" /></g><g
         id="g17"
         inkscape:label="tree"
         transform="translate(855.02766,967.08815)"><path
           style="fill:url(#linearGradient31);fill-opacity:1;stroke:#004d00;stroke-width:11.3386;stroke-dasharray:none;stroke-opacity:1"
           d="m 638.58769,-375.14055 c 0,0 -32.38983,24.77669 -51.62773,29.64761 -13.05311,3.30497 -27.42235,2.63166 -40.38208,-1.02233 -15.72384,-4.43333 -30.9963,-12.86383 -42.42675,-24.53595 -9.39086,-9.58941 -19.42429,-35.27043 -19.42429,-35.27043 0,0 -20.81758,-16.94898 -26.58061,-28.62527 -7.19075,-14.56895 -9.78913,-31.8827 -8.17865,-48.04957 0.94099,-9.4462 5.2489,-18.49536 10.22331,-26.58061 6.38438,-10.37698 24.53595,-27.09178 24.53595,-27.09178 0,0 -2.28843,-34.38455 5.15226,-49.04092 7.79984,-15.3638 22.86854,-27.06134 38.31357,-34.69907 14.27716,-7.06021 46.98833,-8.67477 46.98833,-8.67477 0,0 26.79625,-26.17413 44.09673,-31.08458 19.04366,-5.40522 40.94939,-3.86581 59.27759,3.61448 13.28524,5.42211 32.53038,28.193 32.53038,28.193 0,0 38.36705,2.45319 54.27107,11.95003 13.90001,8.30018 25.16924,21.98659 31.69227,36.80392 5.8075,13.19196 5.11165,42.93791 5.11165,42.93791 0,0 19.75481,20.1521 25.55829,32.7146 5.68974,12.3163 8.80191,26.31821 8.17864,39.87092 -0.53983,11.73823 -3.99112,23.77514 -10.22331,33.73693 -6.65057,10.63055 -27.60294,25.55828 -27.60294,25.55828 0,0 -10.24629,25.17114 -19.42429,34.75926 -9.41689,9.83769 -21.61737,17.89845 -34.75927,21.46896 -14.4734,3.93226 -30.31952,2.12995 -44.98257,-1.02233 -21.34858,-4.58955 -60.31755,-25.55829 -60.31755,-25.55829 z"
           id="path16"
           sodipodi:nodetypes="cssscssscsscsscsscssscsssc" /><path
           style="fill:#552200;fill-opacity:1;stroke:#331500;stroke-width:11.3386;stroke-dasharray:none;stroke-opacity:1"
           d="m 595.13862,-209.01172 c -2.22777,-5.45653 23.11584,-20.87009 23.11584,-20.87009 l 1.93128,-162.63837 c 0,0 -29.7641,-45.59931 -25.55828,-51.11656 4.20582,-5.51725 37.82625,28.62528 37.82625,28.62528 0,0 1.52151,-73.91763 12.26797,-73.60785 10.74646,0.30978 15.33496,105.30011 15.33496,105.30011 0,0 34.30145,-23.80307 39.87094,-15.33497 5.56948,8.46811 -33.73694,55.20589 -33.73694,55.20589 l 3.46477,112.54414 c 0,0 23.3356,16.44171 20.56001,21.38125 -2.77559,4.93955 -33.73692,-4.60049 -33.73692,-4.60049 0,0 -4.8377,16.08852 -11.75682,16.3573 -6.91911,0.26879 -13.80147,-16.3573 -13.80147,-16.3573 0,0 -33.55381,10.56819 -35.78159,5.11166 z"
           id="path17"
           sodipodi:nodetypes="zcczczczcczczcz" /></g></g><g
       id="g22"
       transform="translate(148.70212,-30.828489)"><g
         id="g11"><path
           style="fill:none;fill-opacity:1;stroke:#99d7ff;stroke-width:11.3386;stroke-linecap:round;stroke-linejoin:round;stroke-dasharray:none;stroke-opacity:1;paint-order:fill markers stroke"
           d="m 788.00436,295.35192 22.35686,71.83204 -57.11556,80.64473 -4.63807,71.33311 -38.61892,45.96382"
           id="path9"
           sodipodi:nodetypes="ccccc" /><path
           style="fill:none;fill-opacity:1;stroke:#99d7ff;stroke-width:11.3386;stroke-linecap:round;stroke-linejoin:round;stroke-dasharray:none;stroke-opacity:1;paint-order:fill markers stroke"
           d="m 781.90402,409.42977 88.77504,88.10112 -25.64592,99.37796 60.26791,46.16265 -14.7464,53.21529 33.33969,22.44018"
           id="path10"
           sodipodi:nodetypes="cccccc" /><path
           style="fill:none;fill-opacity:1;stroke:#99d7ff;stroke-width:11.3386;stroke-linecap:round;stroke-linejoin:round;stroke-dasharray:none;stroke-opacity:1;paint-order:fill markers stroke"
           d="m 801.54072,335.4865 85.23171,25.38816 21.76128,61.65699 43.52258,25.38817"
           id="path11" /></g><g
         id="g18"
         style="stroke:#99d7ff;stroke-opacity:1;filter:url(#filter18)"><path
           style="fill:none;fill-opacity:1;stroke:#99d7ff;stroke-width:11.3386;stroke-linecap:round;stroke-linejoin:round;stroke-dasharray:none;stroke-opacity:1;paint-order:fill markers stroke"
           d="m 788.00436,295.35192 22.35686,71.83204 -57.11556,80.64473 -4.63807,71.33311 -38.61892,45.96382"
           id="path14"
           sodipodi:nodetypes="ccccc" /><path
           style="fill:none;fill-opacity:1;stroke:#99d7ff;stroke-width:11.3386;stroke-linecap:round;stroke-linejoin:round;stroke-dasharray:none;stroke-opacity:1;paint-order:fill markers stroke"
           d="m 781.90402,409.42977 88.77504,88.10112 -25.64592,99.37796 60.26791,46.16265 -14.7464,53.21529 33.33969,22.44018"
           id="path15"
           sodipodi:nodetypes="cccccc" /><path
           style="fill:none;fill-opacity:1;stroke:#99d7ff;stroke-width:11.3386;stroke-linecap:round;stroke-linejoin:round;stroke-dasharray:none;stroke-opacity:1;paint-order:fill markers stroke"
           d="m 801.54072,335.4865 85.23171,25.38816 21.76128,61.65699 43.52258,25.38817"
           id="path18" /></g></g></g></svg>
