<?xml version="1.0" encoding="UTF-8" standalone="no"?>
<!-- Created with Inkscape (http://www.inkscape.org/) -->

<svg
   width="500mm"
   height="300mm"
   viewBox="0 0 1889.7638 1133.8583"
   version="1.1"
   id="svg1"
   xml:space="preserve"
   inkscape:version="1.3 (0e150ed6c4, 2023-07-21)"
   sodipodi:docname="thumb-forestfire.svg"
   xmlns:inkscape="http://www.inkscape.org/namespaces/inkscape"
   xmlns:sodipodi="http://sodipodi.sourceforge.net/DTD/sodipodi-0.dtd"
   xmlns="http://www.w3.org/2000/svg"
   xmlns:svg="http://www.w3.org/2000/svg"><sodipodi:namedview
     id="namedview1"
     pagecolor="#ffffff"
     bordercolor="#000000"
     borderopacity="0.25"
     inkscape:showpageshadow="2"
     inkscape:pageopacity="0.0"
     inkscape:pagecheckerboard="0"
     inkscape:deskcolor="#d1d1d1"
     inkscape:document-units="mm"
     inkscape:zoom="0.17291529"
     inkscape:cx="812.53661"
     inkscape:cy="274.70099"
     inkscape:window-width="1366"
     inkscape:window-height="745"
     inkscape:window-x="-8"
     inkscape:window-y="-8"
     inkscape:window-maximized="1"
     inkscape:current-layer="layer1-0" /><defs
     id="defs1"><filter
       inkscape:collect="always"
       style="color-interpolation-filters:sRGB"
       id="filter11"
       x="-0.82500001"
       y="-0.82500001"
       width="2.65"
       height="2.65"><feGaussianBlur
         inkscape:collect="always"
         stdDeviation="75.590553"
         id="feGaussianBlur11" /></filter><inkscape:path-effect
       effect="fillet_chamfer"
       id="path-effect17-8"
       is_visible="true"
       lpeversion="1"
       nodesatellites_param="F,0,0,1,0,0,0,1 @ F,0,0,1,0,3.3220372,0,1 @ F,0,0,1,0,0,0,1 @ F,0,0,1,0,0,0,1 @ F,0,0,1,0,0,0,1 @ F,0,0,1,0,0,0,1 @ F,0,0,1,0,0,0,1 @ F,0,0,1,0,0,0,1 @ F,0,0,1,0,2.4054121,0,1 @ F,0,0,1,0,3.1842909,0,1 @ F,0,0,1,0,0,0,1 @ F,0,0,1,0,0,0,1 @ F,0,0,1,0,0,0,1 @ F,0,0,1,0,0,0,1 @ F,0,0,1,0,0,0,1 @ F,0,0,1,0,0,0,1 @ F,0,0,1,0,0,0,1 @ F,0,0,1,0,0,0,1 @ F,0,0,1,0,0,0,1 @ F,0,0,1,0,0,0,1 @ F,0,0,1,0,0,0,1 @ F,0,0,1,0,0,0,1"
       radius="0"
       unit="px"
       method="auto"
       mode="F"
       chamfer_steps="1"
       flexible="false"
       use_knot_distance="true"
       apply_no_radius="true"
       apply_with_radius="true"
       only_selected="false"
       hide_knots="false" /><inkscape:path-effect
       effect="fillet_chamfer"
       id="path-effect9"
       is_visible="true"
       lpeversion="1"
       nodesatellites_param="F,0,0,1,0,0,0,1 @ F,0,0,1,0,3.3220372,0,1 @ F,0,0,1,0,0,0,1 @ F,0,0,1,0,0,0,1 @ F,0,0,1,0,0,0,1 @ F,0,0,1,0,0,0,1 @ F,0,0,1,0,0,0,1 @ F,0,0,1,0,0,0,1 @ F,0,0,1,0,2.4054121,0,1 @ F,0,0,1,0,3.1842909,0,1 @ F,0,0,1,0,0,0,1 @ F,0,0,1,0,0,0,1 @ F,0,0,1,0,0,0,1 @ F,0,0,1,0,0,0,1 @ F,0,0,1,0,0,0,1 @ F,0,0,1,0,0,0,1 @ F,0,0,1,0,0,0,1 @ F,0,0,1,0,0,0,1 @ F,0,0,1,0,0,0,1 @ F,0,0,1,0,0,0,1 @ F,0,0,1,0,0,0,1 @ F,0,0,1,0,0,0,1"
       radius="0"
       unit="px"
       method="auto"
       mode="F"
       chamfer_steps="1"
       flexible="false"
       use_knot_distance="true"
       apply_no_radius="true"
       apply_with_radius="true"
       only_selected="false"
       hide_knots="false" /></defs><g
     inkscape:label="Layer 1"
     inkscape:groupmode="layer"
     id="layer1-0"
     transform="translate(2.413985,-21.523974)"><rect
       style="fill:#e9afaf;fill-opacity:0.9;stroke:#000000;stroke-width:11.3386;stroke-dasharray:none;stroke-opacity:1"
       id="rect1"
       width="2023.0712"
       height="1241.6479"
       x="-67.116104"
       y="-52.734081" /><path
       style="fill:#006610;fill-opacity:1;stroke:#000000;stroke-width:11.3386;stroke-dasharray:none;stroke-opacity:1"
       id="path1"
       sodipodi:type="arc"
       sodipodi:cx="1093.2347"
       sodipodi:cy="1210.3912"
       sodipodi:rx="1914.7899"
       sodipodi:ry="439.45203"
       sodipodi:start="3.1415927"
       sodipodi:end="0"
       sodipodi:arc-type="slice"
       d="m -821.55518,1210.3912 a 1914.7899,439.45203 0 0 1 1914.78988,-439.45199 1914.7899,439.45203 0 0 1 1914.79,439.45199 h -1914.79 z" /><circle
       style="mix-blend-mode:normal;fill:#ffff00;fill-opacity:0.9;stroke:#000000;stroke-width:11.3386;stroke-dasharray:none;stroke-opacity:0;filter:url(#filter11)"
       id="circle11"
       cx="1459.9719"
       cy="783.29095"
       r="113.38583" /><circle
       style="mix-blend-mode:normal;fill:#ffff00;fill-opacity:0.9;stroke:#000000;stroke-width:11.3386;stroke-dasharray:none;stroke-opacity:0;filter:url(#filter11)"
       id="path11"
       cx="663.29651"
       cy="785.73969"
       inkscape:label="path11"
       r="113.38583" /><g
       id="g20"
       inkscape:label="trees"><g
         id="g13"
         inkscape:label="tree"
         transform="translate(-312.29166,1064.1049)"><path
           style="fill:#009900;fill-opacity:1;stroke:#008000;stroke-width:11.3386;stroke-dasharray:none;stroke-opacity:1"
           d="m 638.58769,-375.14055 c 0,0 -32.38983,24.77669 -51.62773,29.64761 -13.05311,3.30497 -27.42235,2.63166 -40.38208,-1.02233 -15.72384,-4.43333 -30.9963,-12.86383 -42.42675,-24.53595 -9.39086,-9.58941 -19.42429,-35.27043 -19.42429,-35.27043 0,0 -20.81758,-16.94898 -26.58061,-28.62527 -7.19075,-14.56895 -9.78913,-31.8827 -8.17865,-48.04957 0.94099,-9.4462 5.2489,-18.49536 10.22331,-26.58061 6.38438,-10.37698 24.53595,-27.09178 24.53595,-27.09178 0,0 -2.28843,-34.38455 5.15226,-49.04092 7.79984,-15.3638 22.86854,-27.06134 38.31357,-34.69907 14.27716,-7.06021 46.98833,-8.67477 46.98833,-8.67477 0,0 26.79625,-26.17413 44.09673,-31.08458 19.04366,-5.40522 40.94939,-3.86581 59.27759,3.61448 13.28524,5.42211 32.53038,28.193 32.53038,28.193 0,0 38.36705,2.45319 54.27107,11.95003 13.90001,8.30018 25.16924,21.98659 31.69227,36.80392 5.8075,13.19196 5.11165,42.93791 5.11165,42.93791 0,0 19.75481,20.1521 25.55829,32.7146 5.68974,12.3163 8.80191,26.31821 8.17864,39.87092 -0.53983,11.73823 -3.99112,23.77514 -10.22331,33.73693 -6.65057,10.63055 -27.60294,25.55828 -27.60294,25.55828 0,0 -10.24629,25.17114 -19.42429,34.75926 -9.41689,9.83769 -21.61737,17.89845 -34.75927,21.46896 -14.4734,3.93226 -30.31952,2.12995 -44.98257,-1.02233 -21.34858,-4.58955 -60.31755,-25.55829 -60.31755,-25.55829 z"
           id="path13"
           sodipodi:nodetypes="cssscssscsscsscsscssscsssc" /><path
           style="fill:#552200;fill-opacity:1;stroke:#421b00;stroke-width:11.3386;stroke-dasharray:none;stroke-opacity:1"
           d="m 595.13862,-209.01172 c -2.22777,-5.45653 23.11584,-20.87009 23.11584,-20.87009 l 1.93128,-162.63837 c 0,0 -29.7641,-45.59931 -25.55828,-51.11656 4.20582,-5.51725 37.82625,28.62528 37.82625,28.62528 0,0 1.52151,-73.91763 12.26797,-73.60785 10.74646,0.30978 15.33496,105.30011 15.33496,105.30011 0,0 34.30145,-23.80307 39.87094,-15.33497 5.56948,8.46811 -33.73694,55.20589 -33.73694,55.20589 l 3.46477,112.54414 c 0,0 23.3356,16.44171 20.56001,21.38125 -2.77559,4.93955 -33.73692,-4.60049 -33.73692,-4.60049 0,0 -4.8377,16.08852 -11.75682,16.3573 -6.91911,0.26879 -13.80147,-16.3573 -13.80147,-16.3573 0,0 -33.55381,10.56819 -35.78159,5.11166 z"
           id="path12"
           sodipodi:nodetypes="zcczczczcczczcz" /></g><g
         id="g15"
         inkscape:label="tree"
         transform="translate(109.88039,1049.647)"><path
           style="fill:#808000;fill-opacity:1;stroke:#666600;stroke-width:11.3386;stroke-dasharray:none;stroke-opacity:1"
           d="m 638.58769,-375.14055 c 0,0 -32.38983,24.77669 -51.62773,29.64761 -13.05311,3.30497 -27.42235,2.63166 -40.38208,-1.02233 -15.72384,-4.43333 -30.9963,-12.86383 -42.42675,-24.53595 -9.39086,-9.58941 -19.42429,-35.27043 -19.42429,-35.27043 0,0 -20.81758,-16.94898 -26.58061,-28.62527 -7.19075,-14.56895 -9.78913,-31.8827 -8.17865,-48.04957 0.94099,-9.4462 5.2489,-18.49536 10.22331,-26.58061 6.38438,-10.37698 24.53595,-27.09178 24.53595,-27.09178 0,0 -2.28843,-34.38455 5.15226,-49.04092 7.79984,-15.3638 22.86854,-27.06134 38.31357,-34.69907 14.27716,-7.06021 46.98833,-8.67477 46.98833,-8.67477 0,0 26.79625,-26.17413 44.09673,-31.08458 19.04366,-5.40522 40.94939,-3.86581 59.27759,3.61448 13.28524,5.42211 32.53038,28.193 32.53038,28.193 0,0 38.36705,2.45319 54.27107,11.95003 13.90001,8.30018 25.16924,21.98659 31.69227,36.80392 5.8075,13.19196 5.11165,42.93791 5.11165,42.93791 0,0 19.75481,20.1521 25.55829,32.7146 5.68974,12.3163 8.80191,26.31821 8.17864,39.87092 -0.53983,11.73823 -3.99112,23.77514 -10.22331,33.73693 -6.65057,10.63055 -27.60294,25.55828 -27.60294,25.55828 0,0 -10.24629,25.17114 -19.42429,34.75926 -9.41689,9.83769 -21.61737,17.89845 -34.75927,21.46896 -14.4734,3.93226 -30.31952,2.12995 -44.98257,-1.02233 -21.34858,-4.58955 -60.31755,-25.55829 -60.31755,-25.55829 z"
           id="path14"
           sodipodi:nodetypes="cssscssscsscsscsscssscsssc" /><path
           style="fill:#552200;fill-opacity:1;stroke:#421b00;stroke-width:11.3386;stroke-dasharray:none;stroke-opacity:1"
           d="m 595.13862,-209.01172 c -2.22777,-5.45653 23.11584,-20.87009 23.11584,-20.87009 l 1.93128,-162.63837 c 0,0 -29.7641,-45.59931 -25.55828,-51.11656 4.20582,-5.51725 37.82625,28.62528 37.82625,28.62528 0,0 1.52151,-73.91763 12.26797,-73.60785 10.74646,0.30978 15.33496,105.30011 15.33496,105.30011 0,0 34.30145,-23.80307 39.87094,-15.33497 5.56948,8.46811 -33.73694,55.20589 -33.73694,55.20589 l 3.46477,112.54414 c 0,0 23.3356,16.44171 20.56001,21.38125 -2.77559,4.93955 -33.73692,-4.60049 -33.73692,-4.60049 0,0 -4.8377,16.08852 -11.75682,16.3573 -6.91911,0.26879 -13.80147,-16.3573 -13.80147,-16.3573 0,0 -33.55381,10.56819 -35.78159,5.11166 z"
           id="path15"
           sodipodi:nodetypes="zcczczczcczczcz" /></g><g
         id="g17"
         inkscape:label="tree"
         transform="translate(534.94403,1058.3218)"><path
           style="fill:#009900;fill-opacity:1;stroke:#008000;stroke-width:11.3386;stroke-dasharray:none;stroke-opacity:1"
           d="m 638.58769,-375.14055 c 0,0 -32.38983,24.77669 -51.62773,29.64761 -13.05311,3.30497 -27.42235,2.63166 -40.38208,-1.02233 -15.72384,-4.43333 -30.9963,-12.86383 -42.42675,-24.53595 -9.39086,-9.58941 -19.42429,-35.27043 -19.42429,-35.27043 0,0 -20.81758,-16.94898 -26.58061,-28.62527 -7.19075,-14.56895 -9.78913,-31.8827 -8.17865,-48.04957 0.94099,-9.4462 5.2489,-18.49536 10.22331,-26.58061 6.38438,-10.37698 24.53595,-27.09178 24.53595,-27.09178 0,0 -2.28843,-34.38455 5.15226,-49.04092 7.79984,-15.3638 22.86854,-27.06134 38.31357,-34.69907 14.27716,-7.06021 46.98833,-8.67477 46.98833,-8.67477 0,0 26.79625,-26.17413 44.09673,-31.08458 19.04366,-5.40522 40.94939,-3.86581 59.27759,3.61448 13.28524,5.42211 32.53038,28.193 32.53038,28.193 0,0 38.36705,2.45319 54.27107,11.95003 13.90001,8.30018 25.16924,21.98659 31.69227,36.80392 5.8075,13.19196 5.11165,42.93791 5.11165,42.93791 0,0 19.75481,20.1521 25.55829,32.7146 5.68974,12.3163 8.80191,26.31821 8.17864,39.87092 -0.53983,11.73823 -3.99112,23.77514 -10.22331,33.73693 -6.65057,10.63055 -27.60294,25.55828 -27.60294,25.55828 0,0 -10.24629,25.17114 -19.42429,34.75926 -9.41689,9.83769 -21.61737,17.89845 -34.75927,21.46896 -14.4734,3.93226 -30.31952,2.12995 -44.98257,-1.02233 -21.34858,-4.58955 -60.31755,-25.55829 -60.31755,-25.55829 z"
           id="path16"
           sodipodi:nodetypes="cssscssscsscsscsscssscsssc" /><path
           style="fill:#552200;fill-opacity:1;stroke:#421b00;stroke-width:11.3386;stroke-dasharray:none;stroke-opacity:1"
           d="m 595.13862,-209.01172 c -2.22777,-5.45653 23.11584,-20.87009 23.11584,-20.87009 l 1.93128,-162.63837 c 0,0 -29.7641,-45.59931 -25.55828,-51.11656 4.20582,-5.51725 37.82625,28.62528 37.82625,28.62528 0,0 1.52151,-73.91763 12.26797,-73.60785 10.74646,0.30978 15.33496,105.30011 15.33496,105.30011 0,0 34.30145,-23.80307 39.87094,-15.33497 5.56948,8.46811 -33.73694,55.20589 -33.73694,55.20589 l 3.46477,112.54414 c 0,0 23.3356,16.44171 20.56001,21.38125 -2.77559,4.93955 -33.73692,-4.60049 -33.73692,-4.60049 0,0 -4.8377,16.08852 -11.75682,16.3573 -6.91911,0.26879 -13.80147,-16.3573 -13.80147,-16.3573 0,0 -33.55381,10.56819 -35.78159,5.11166 z"
           id="path17"
           sodipodi:nodetypes="zcczczczcczczcz" /></g><g
         id="g19"
         inkscape:label="tree"
         transform="translate(976.59112,1066.5004)"><path
           style="fill:#808000;fill-opacity:1;stroke:#666600;stroke-width:11.3386;stroke-dasharray:none;stroke-opacity:1"
           d="m 638.58769,-375.14055 c 0,0 -32.38983,24.77669 -51.62773,29.64761 -13.05311,3.30497 -27.42235,2.63166 -40.38208,-1.02233 -15.72384,-4.43333 -30.9963,-12.86383 -42.42675,-24.53595 -9.39086,-9.58941 -19.42429,-35.27043 -19.42429,-35.27043 0,0 -20.81758,-16.94898 -26.58061,-28.62527 -7.19075,-14.56895 -9.78913,-31.8827 -8.17865,-48.04957 0.94099,-9.4462 5.2489,-18.49536 10.22331,-26.58061 6.38438,-10.37698 24.53595,-27.09178 24.53595,-27.09178 0,0 -2.28843,-34.38455 5.15226,-49.04092 7.79984,-15.3638 22.86854,-27.06134 38.31357,-34.69907 14.27716,-7.06021 46.98833,-8.67477 46.98833,-8.67477 0,0 26.79625,-26.17413 44.09673,-31.08458 19.04366,-5.40522 40.94939,-3.86581 59.27759,3.61448 13.28524,5.42211 32.53038,28.193 32.53038,28.193 0,0 38.36705,2.45319 54.27107,11.95003 13.90001,8.30018 25.16924,21.98659 31.69227,36.80392 5.8075,13.19196 5.11165,42.93791 5.11165,42.93791 0,0 19.75481,20.1521 25.55829,32.7146 5.68974,12.3163 8.80191,26.31821 8.17864,39.87092 -0.53983,11.73823 -3.99112,23.77514 -10.22331,33.73693 -6.65057,10.63055 -27.60294,25.55828 -27.60294,25.55828 0,0 -10.24629,25.17114 -19.42429,34.75926 -9.41689,9.83769 -21.61737,17.89845 -34.75927,21.46896 -14.4734,3.93226 -30.31952,2.12995 -44.98257,-1.02233 -21.34858,-4.58955 -60.31755,-25.55829 -60.31755,-25.55829 z"
           id="path18"
           sodipodi:nodetypes="cssscssscsscsscsscssscsssc" /><path
           style="fill:#552200;fill-opacity:1;stroke:#421b00;stroke-width:11.3386;stroke-dasharray:none;stroke-opacity:1"
           d="m 595.13862,-209.01172 c -2.22777,-5.45653 23.11584,-20.87009 23.11584,-20.87009 l 1.93128,-162.63837 c 0,0 -29.7641,-45.59931 -25.55828,-51.11656 4.20582,-5.51725 37.82625,28.62528 37.82625,28.62528 0,0 1.52151,-73.91763 12.26797,-73.60785 10.74646,0.30978 15.33496,105.30011 15.33496,105.30011 0,0 34.30145,-23.80307 39.87094,-15.33497 5.56948,8.46811 -33.73694,55.20589 -33.73694,55.20589 l 3.46477,112.54414 c 0,0 23.3356,16.44171 20.56001,21.38125 -2.77559,4.93955 -33.73692,-4.60049 -33.73692,-4.60049 0,0 -4.8377,16.08852 -11.75682,16.3573 -6.91911,0.26879 -13.80147,-16.3573 -13.80147,-16.3573 0,0 -33.55381,10.56819 -35.78159,5.11166 z"
           id="path19"
           sodipodi:nodetypes="zcczczczcczczcz" /></g><path
         style="fill:#008000;fill-opacity:1;stroke:#005c0e;stroke-width:11.3386;stroke-linecap:round;stroke-linejoin:bevel;stroke-dasharray:none;stroke-opacity:1;paint-order:fill markers stroke"
         id="path9"
         sodipodi:type="arc"
         sodipodi:cx="-205.22092"
         sodipodi:cy="-1963.365"
         sodipodi:rx="77.469795"
         sodipodi:ry="77.469795"
         sodipodi:start="0.19198186"
         sodipodi:end="5.0223708"
         sodipodi:open="true"
         sodipodi:arc-type="chord"
         d="m -129.1744,-1948.5834 a 77.469795,77.469795 0 0 1 -62.84707,61.5554 77.469795,77.469795 0 0 1 -79.86732,-36.8786 77.469795,77.469795 0 0 1 6.0987,-87.759 77.469795,77.469795 0 0 1 84.20066,-25.4769 z"
         transform="rotate(120.64058)"
         inkscape:label="bush" /><path
         style="fill:#008000;fill-opacity:1;stroke:#005c0e;stroke-width:11.3386;stroke-linecap:round;stroke-linejoin:bevel;stroke-dasharray:none;stroke-opacity:1;paint-order:fill markers stroke"
         id="path20"
         sodipodi:type="arc"
         sodipodi:cx="42.140461"
         sodipodi:cy="-1553.7988"
         sodipodi:rx="77.469795"
         sodipodi:ry="77.469795"
         sodipodi:start="0.19198186"
         sodipodi:end="5.0223708"
         sodipodi:open="true"
         sodipodi:arc-type="chord"
         d="m 118.18698,-1539.0172 a 77.469795,77.469795 0 0 1 -62.847067,61.5554 77.469795,77.469795 0 0 1 -79.867329,-36.8787 77.469795,77.469795 0 0 1 6.098706,-87.7589 77.469795,77.469795 0 0 1 84.20066,-25.4769 z"
         transform="rotate(120.64058)"
         inkscape:label="bush" /><path
         style="fill:#808000;fill-opacity:1;stroke:#666600;stroke-width:11.33858282;stroke-linecap:round;stroke-linejoin:bevel;stroke-dasharray:none;stroke-opacity:1;paint-order:fill markers stroke"
         id="path21"
         sodipodi:type="arc"
         sodipodi:cx="192.8399"
         sodipodi:cy="-1328.6677"
         sodipodi:rx="106.61489"
         sodipodi:ry="106.61489"
         sodipodi:start="0.19198186"
         sodipodi:end="5.0223708"
         sodipodi:open="true"
         sodipodi:arc-type="chord"
         d="m 297.49607,-1308.3251 a 106.61489,106.61489 0 0 1 -86.49092,84.7134 106.61489,106.61489 0 0 1 -109.9144,-50.7529 106.61489,106.61489 0 0 1 8.39311,-120.775 106.61489,106.61489 0 0 1 115.87799,-35.0617 z"
         transform="rotate(120.64058)"
         inkscape:label="bush" /><path
         style="fill:#808000;fill-opacity:1;stroke:#666600;stroke-width:11.3386;stroke-linecap:round;stroke-linejoin:bevel;stroke-dasharray:none;stroke-opacity:1;paint-order:fill markers stroke"
         id="path22"
         sodipodi:type="arc"
         sodipodi:cx="456.23209"
         sodipodi:cy="-862.76239"
         sodipodi:rx="77.469795"
         sodipodi:ry="77.469795"
         sodipodi:start="0.19198186"
         sodipodi:end="5.0223708"
         sodipodi:open="true"
         sodipodi:arc-type="chord"
         d="m 532.27861,-847.98079 a 77.469795,77.469795 0 0 1 -62.84707,61.55544 77.469795,77.469795 0 0 1 -79.86733,-36.87866 77.469795,77.469795 0 0 1 6.09871,-87.75895 77.469795,77.469795 0 0 1 84.20065,-25.47695 z"
         transform="rotate(120.64058)"
         inkscape:label="bush" /></g><circle
       style="mix-blend-mode:normal;fill:#ffff00;fill-opacity:0.9;stroke:#000000;stroke-width:11.3386;stroke-dasharray:none;stroke-opacity:0;filter:url(#filter11)"
       id="circle23"
       cx="842.57318"
       cy="398.98376"
       r="151.18111" /><circle
       style="mix-blend-mode:normal;fill:#ffff00;fill-opacity:0.9;stroke:#000000;stroke-width:11.3386;stroke-dasharray:none;stroke-opacity:0;filter:url(#filter11)"
       id="circle22"
       cx="1047.0394"
       cy="677.05786"
       r="151.18111" /><circle
       style="mix-blend-mode:normal;fill:#ffff00;fill-opacity:0.9;stroke:#000000;stroke-width:11.3386;stroke-dasharray:none;stroke-opacity:0;filter:url(#filter11)"
       id="circle24"
       cx="1612.0199"
       cy="421.78976"
       inkscape:label="path11"
       r="113.38583" /><g
       id="g22"
       inkscape:label="fires"
       transform="translate(57.831788,-40.482252)"><g
         id="g65"
         inkscape:label="fire4"
         transform="matrix(1.3692498,0,0,1.3692498,-860.61927,461.3587)"><path
           style="display:inline;fill:#fd5505;fill-opacity:1;stroke:#000000;stroke-width:8.28087;stroke-linecap:round;stroke-linejoin:round;stroke-dasharray:none;stroke-opacity:1"
           d="m 1301.7121,174.57857 c 0,0 -8.6907,10.47109 -11.6527,16.52565 -3.4067,6.96342 -6.1575,14.51899 -6.7798,22.24605 -0.5893,7.3173 0.4868,14.91271 2.9662,21.82232 2.7206,7.58163 6.9612,14.91101 12.712,20.55112 7.3242,7.18319 16.8746,12.08487 26.4834,15.67817 8.8097,3.29445 18.3525,5.33733 27.7546,5.08482 8.4931,-0.2281 17.0014,-2.53433 24.7885,-5.93228 7.0014,-3.05513 13.5531,-7.42619 19.068,-12.71204 4.6706,-4.47668 9.2823,-9.57933 11.4409,-15.67817 1.8874,-5.33268 2.4697,-11.53014 0.8474,-16.94938 -1.0289,-3.43716 -3.7059,-6.26793 -6.356,-8.68655 -3.0417,-2.77597 -7.8854,-3.25369 -10.5934,-6.35602 -1.7684,-2.02596 -3.1588,-4.7262 -3.178,-7.41535 -0.018,-2.59669 1.7757,-4.89571 2.9662,-7.20348 2.0661,-4.00505 5.7708,-7.16807 7.2035,-11.44083 1.8478,-5.51054 1.9122,-11.57688 1.483,-17.37311 -0.3162,-4.27073 -1.248,-8.57753 -2.9661,-12.50017 -1.6739,-3.82159 -6.9916,-10.38149 -6.9916,-10.38149 0,0 3.9066,7.6781 4.2373,11.86456 0.2716,3.43824 -0.03,7.27586 -1.9068,10.16963 -1.8226,2.81067 -4.9952,4.98255 -8.2628,5.72041 -3.0012,0.6777 -6.6065,0.30508 -9.1103,-1.48307 -1.8255,-1.30377 -2.6606,-3.74947 -3.178,-5.93228 -0.6192,-2.61219 -0.4293,-5.44408 0.2119,-8.05095 0.9958,-4.04843 4.1942,-7.27243 5.5085,-11.22896 1.4497,-4.36413 2.3014,-8.96723 2.5424,-13.55951 0.2303,-4.38676 -0.1818,-8.83149 -1.0593,-13.13576 -1.0261,-5.03302 -4.873,-14.61884 -4.873,-14.61884 0,0 -3.2673,-6.887231 -5.7204,-9.74589 -2.5499,-2.971486 -9.1103,-7.415352 -9.1103,-7.415352 0,0 4.4269,7.202616 5.5086,11.228962 1.0653,3.96522 1.9432,8.33139 0.8474,12.2883 -0.9882,3.56849 -3.1925,7.18603 -6.356,9.11029 -3.2256,1.96203 -7.5904,2.49063 -11.2289,1.48307 -3.3908,-0.93895 -6.2025,-3.71587 -8.2629,-6.56789 -2.1589,-2.98836 -3.3362,-6.72593 -3.8136,-10.38149 -0.4959,-3.797679 0.068,-7.741342 1.0594,-11.440828 1.0057,-3.754418 2.7826,-7.31649 4.8729,-10.59336 1.9939,-3.125721 7.2035,-8.474688 7.2035,-8.474688 l 6.7798,-4.025477 c 0,0 -9.3022,2.327039 -13.5595,4.449212 -5.3126,2.648218 -10.746,5.67096 -14.6189,10.169625 -4.0594,4.715338 -6.6061,10.74014 -8.2628,16.737506 -1.1697,4.23422 -1.3678,8.75381 -1.0593,13.13577 0.4524,6.42623 1.8152,12.88671 4.2373,18.85618 1.9309,4.75877 8.051,13.13577 8.051,13.13577 l 4.8729,5.93228 c 0,0 -7.0944,-3.33919 -10.1696,-5.72042 -3.9492,-3.058 -7.8971,-6.47217 -10.3815,-10.80522 -1.9349,-3.37465 -2.7524,-7.36231 -3.178,-11.22896 -0.4102,-3.72647 0.6356,-11.22897 0.6356,-11.22897 0,0 -5.8185,9.95033 -7.2035,15.46631 -1.5331,6.10578 -1.6012,12.58424 -1.0593,18.85618 0.5368,6.21245 1.4487,12.64329 4.2373,18.22058 l 9.7459,19.49178 c 1.9592,3.91837 2.6062,9.33724 0.4237,13.13577 -1.4798,2.5755 -4.8689,4.20372 -7.8391,4.23734 -3.4109,0.0386 -6.7816,-2.16844 -9.1102,-4.66108 -2.5701,-2.75117 -4.224,-6.62332 -4.4493,-10.38149 -0.2555,-4.26078 3.6018,-12.2883 3.6018,-12.2883 z"
           id="path63"
           sodipodi:nodetypes="cssssssssssssssssscssssssssscscssssssssccsssssccssscssssssssc" /><path
           style="display:inline;fill:#ffb230;fill-opacity:1;stroke:#000000;stroke-width:5.66929;stroke-dasharray:none;stroke-opacity:0"
           d="m 1352.1947,273.74862 c -8.0042,0.37716 -24.2697,-2.43438 -30.0264,-8.00837 0,0 -8.5728,-7.22612 -11.4611,-11.92113 -3.7184,-6.04435 -6.3674,-13.0259 -7.0456,-20.08996 -0.559,-5.82311 2.5512,-17.36322 2.5512,-17.36322 0,0 4.968,13.3374 10.4869,12.88389 7.9019,-0.64934 11.8858,-15.22894 13.1835,-24.41948 1.7092,-12.10459 -0.6261,-20.31517 -3.7949,-27.02835 -7.6055,-16.1122 -7.8259,-14.10287 -9.838,-23.75816 1.9794,4.30418 5.0432,7.43967 8.5393,10.6367 3.1357,2.86743 4.1605,3.03316 8.3895,3.4457 4.7151,0.45996 10.314,-0.97296 13.4832,-4.49438 3.4205,-3.80066 3.3685,-9.86862 3.2958,-14.98128 -0.07,-4.94105 -1.1895,-10.06575 -3.5955,-14.38202 -2.5791,-4.62687 -11.0861,-11.38577 -11.0861,-11.38577 0,0 10.9274,2.43822 15.2809,5.69289 4.7995,3.5881 8.1584,8.99654 10.7865,14.38202 2.1782,4.4636 3.7285,9.4181 3.8951,14.38202 0.1537,4.58081 -1.5994,9.03302 -2.6966,13.48315 -0.8473,3.43668 -2.8394,6.65115 -2.9963,10.18726 -0.1354,3.0526 -0.08,6.57841 1.7978,8.98877 1.4277,1.83248 3.9816,2.75558 6.2921,2.99625 2.9635,0.30869 6.175,-0.49841 8.6892,-2.09738 2.6981,-1.71594 5.9925,-7.49063 5.9925,-7.49063 0,0 2.0707,7.80036 1.4981,11.68539 -0.7497,5.08643 -5.4781,9.00586 -6.2921,14.0824 -0.6199,3.86618 -0.3278,8.07958 1.1985,11.68539 1.2711,3.00292 4.5426,4.73882 6.2921,7.49064 2.4214,3.80865 5.4009,7.78089 5.6929,12.28464 0.3965,6.11523 -2.1078,12.34442 -5.5111,17.53874 -7.4508,11.37177 -15.4525,14.74738 -33.0014,15.57428 z"
           id="path64"
           sodipodi:nodetypes="ssaacssscssssscsssssssscsssssss" /><path
           style="display:inline;fill:#feec96;fill-opacity:1;stroke:#feec96;stroke-width:5.66929;stroke-dasharray:none;stroke-opacity:0"
           d="m 1354.1937,273.4703 c -8.2551,0.42778 -17.1068,-4.93148 -21.8727,-11.68539 -4.6582,-6.60133 -2.2472,-22.77154 -2.2472,-22.77154 0,0 4.6423,7.05448 8.0899,6.59176 2.5546,-0.34286 4.1754,-3.73448 4.4944,-6.29214 0.5441,-4.36184 -3.7141,-8.02371 -4.794,-12.28464 -1.1869,-4.68325 -2.5291,-9.60637 -1.7978,-14.38202 0.7645,-4.99217 3.227,-9.76888 6.2921,-13.78277 1.8937,-2.47987 7.1911,-5.99251 7.1911,-5.99251 0,0 -4.3228,7.7218 -4.4944,11.98502 -0.1462,3.63256 0.9351,7.49213 2.9962,10.48689 3.1143,4.525 9.8713,5.50545 13.1836,9.88764 1.6776,2.21951 2.7465,5.0193 2.9962,7.79026 0.2646,2.93611 -2.1265,5.78025 -1.6479,8.68914 0.3631,2.20638 1.2512,4.93733 3.2958,5.84269 1.0302,0.45617 2.3608,-0.12058 3.2959,-0.74906 1.5177,-1.02011 2.5746,-2.75728 3.1461,-4.49438 0.6245,-1.89803 0.1498,-5.99251 0.1498,-5.99251 0,0 2.2988,5.57936 2.5468,8.53933 0.3067,3.66022 -0.1294,7.47143 -1.3483,10.93633 -1.4808,4.20949 -3.9501,8.16736 -7.0412,11.38576 -3.0893,3.21658 -7.9806,6.06134 -12.4344,6.29214 z"
           id="path65"
           sodipodi:nodetypes="sscssssscsssssssscssss" /></g><g
         id="g40"
         inkscape:label="fire 1"
         transform="matrix(1.3692498,0,0,1.3692498,1045.1046,-96.412237)"
         style="display:inline"><path
           style="fill:#fd5505;fill-opacity:1;stroke:#000000;stroke-width:8.28087;stroke-linecap:round;stroke-linejoin:round;stroke-dasharray:none;stroke-opacity:1;paint-order:fill markers stroke"
           d="m 382.89833,485.25204 c -9.58998,-1.53014 -19.33957,-4.48355 -27.40038,-9.89949 -7.44555,-5.00256 -13.35054,-12.32377 -18.03123,-19.97577 -4.40857,-7.20715 -7.38495,-15.39836 -9.01561,-23.68808 -1.37658,-6.99808 -1.79841,-14.37143 -0.53033,-21.38998 1.09531,-6.06232 3.24883,-12.18126 6.89429,-17.14734 2.75025,-3.74657 10.78338,-8.83883 10.78338,-8.83883 0,0 -3.92475,7.42028 -4.59619,11.49048 -0.53787,3.2605 -1.17418,7.06846 0.53033,9.8995 1.41781,2.35486 4.35075,3.84837 7.07106,4.24264 1.86703,0.2706 3.95503,-0.3037 5.48008,-1.41422 1.69153,-1.23174 2.45344,-3.4168 3.35876,-5.3033 0.94329,-1.96562 1.86439,-4.02213 2.12132,-6.18718 0.36967,-3.11507 -0.39695,-6.27027 -0.88388,-9.36917 -0.97425,-6.20026 -3.58947,-12.12654 -4.06587,-18.38477 -0.34066,-4.47508 0.88389,-13.43503 0.88389,-13.43503 0,0 1.54626,-10.39528 3.53553,-15.2028 1.96307,-4.7442 4.89442,-9.09639 8.13173,-13.08147 3.44252,-4.2377 7.47151,-8.04415 11.84404,-11.31371 4.73539,-3.54089 15.37957,-8.83884 15.37957,-8.83884 0,0 -5.69258,9.22938 -7.95495,14.14214 -2.15214,4.67339 -4.40915,9.42886 -5.3033,14.49569 0,0 -2.28341,7.95519 -2.12132,12.02081 0.12127,3.04182 0.676,6.26276 2.29809,8.83884 1.84928,2.93689 4.85918,5.14865 7.95495,6.71751 1.56806,0.79466 3.37203,1.34713 5.12653,1.23744 2.32656,-0.14546 4.57126,-1.2278 6.54074,-2.47487 1.93648,-1.22618 3.70495,-2.8484 4.94974,-4.77297 1.32605,-2.05022 1.95377,-4.50887 2.47488,-6.8943 0.44177,-2.02226 0.57607,-4.11773 0.53033,-6.18718 -0.0302,-1.36643 -0.53033,-4.06586 -0.53033,-4.06586 l 10.07627,12.37437 c 0,0 4.15686,8.90301 5.48008,13.6118 1.26057,4.48584 2.29809,13.78858 2.29809,13.78858 0.88287,5.29725 -0.0217,10.78603 -0.88388,16.08668 -0.60822,3.73909 -2.15154,7.26937 -3.0052,10.96016 -0.50002,2.16185 -1.59698,4.35114 -1.23744,6.54074 0.23879,1.45427 2.16791,3.85325 2.16791,3.85325 0,0 3.95461,1.8872 6.0625,1.8125 2.82673,-0.10017 5.62534,-1.37078 7.9375,-3 1.78809,-1.25995 3.13882,-3.11585 4.25,-5 1.01818,-1.72646 2.125,-5.625 2.125,-5.625 l -0.875,-6.75 c 0,0 5.30526,6.09621 6.875,9.75 0.83865,1.95207 1.05475,4.1344 1.25,6.25 0.28722,3.11205 0.44278,6.30173 -0.125,9.375 -0.39515,2.13887 -2.25,6.125 -2.25,6.125 l -5,5.75 c -1.12596,1.29486 -1.87738,2.90101 -2.5,4.5 -0.3887,0.99824 -0.75,3.125 -0.75,3.125 0,0 1.12896,1.6392 2,2 1.92475,0.79726 4.28411,0.6896 6.25,0 2.51757,-0.88312 4.38258,-3.09453 6.25,-5 1.58079,-1.613 4.125,-5.375 4.125,-5.375 0,0 0.93688,6.68476 0.125,9.875 -1.26063,4.95354 -4.40105,9.31012 -7.5,13.375 -2.84022,3.7255 -6.32709,6.96709 -10,9.875 -4.24191,3.35839 -8.88111,6.26566 -13.75,8.625 -6.36874,3.08613 -13.0453,5.81456 -20,7.125 -8.14437,1.5346 -16.66752,2.05787 -24.85168,0.75203 z"
           id="path29-98"
           sodipodi:nodetypes="sssssacsasssssscssscssasssssssccssssscsssccssscsscssscssssss" /><path
           style="display:inline;fill:#ffb230;fill-opacity:1;stroke:#000000;stroke-width:7.55906;stroke-linecap:round;stroke-linejoin:miter;stroke-dasharray:none;stroke-opacity:0;paint-order:fill markers stroke"
           d="m 378.26921,479.83783 c -3.3474,-1.20207 -7.4116,-4.03806 -10.42983,-6.18719 -3.01823,-2.14913 -5.30354,-3.87183 -7.71437,-6.52563 -2.41083,-2.6538 -4.98369,-6.46766 -6.5,-9.375 -1.51631,-2.90734 -2.08509,-4.72345 -2.875,-7.75 -0.78991,-3.02655 -1.80097,-7.20441 -1.625,-10.375 0.17597,-3.17059 1.3655,-5.87528 2.25,-8.25 0.8845,-2.37472 1.3659,-3.86871 2.875,-6 1.5091,-2.13129 4.84639,-5.04924 6.375,-6.375 1.52861,-1.32576 1.51749,-2.63217 2.5,-1.875 0.98251,0.75717 -1.25285,2.38311 -1.625,4 -0.37215,1.61689 -0.60852,3.52502 -0.375,5.625 0.23352,2.09998 0.94745,5.05075 2,6.75 1.05255,1.69925 2.12242,2.65048 3.625,3.375 1.50258,0.72452 3.43161,0.99889 5,0.75 1.56839,-0.24889 2.70229,-0.90246 4,-2 1.29771,-1.09754 2.56859,-2.71395 3.375,-4.625 0.80641,-1.91105 1.15644,-4.21004 1.125,-6.625 -0.0314,-2.41496 -1.06933,-5.07067 -1.5,-7.625 -0.4722,-2.80069 -1.17839,-5.57718 -1.1875,-8.4375 -0.009,-2.86032 0.20761,-5.51831 1.0625,-8.4375 0.85489,-2.91919 2.0808,-6.17911 3.75,-9.125 1.6692,-2.94589 3.85961,-5.83735 6.25,-8.375 2.39039,-2.53765 5.46438,-4.84461 8,-6.75 2.53562,-1.90539 6.06969,-4.48281 8.71599,-2.80546 2.6463,1.67735 -2.40524,6.34261 -3.35616,9.59467 -1.00651,3.44222 -2.25874,6.89007 -2.47855,10.46967 -0.39971,6.50925 -0.17776,13.35243 2.14385,19.4467 2.86405,7.5182 6.29913,15.71489 13.98743,19.66942 2.32013,0.92795 5.3316,1.22664 7.23744,1 1.90584,-0.22664 3.61838,-0.95425 5,-2.125 1.65789,-1.40486 1.58077,-5.75895 3.5,-5.5 1.91923,0.25895 1.25313,2.76574 1.5,4.875 0.24687,2.10926 0.78362,5.83021 0.625,8.75 -0.27798,5.11678 -0.96613,10.3212 -2.75,15.125 -1.63192,4.3946 -5.17852,9.287 -7.125,12.125 -5.0004,6.06236 -12.27942,9.57901 -19.25,12.875 -2.37017,1.15178 -10.76949,2.24029 -13.625,2.625 -6.1205,-0.0992 -6.57032,0.0389 -12.4808,-1.91218 z"
           id="path20-0"
           sodipodi:nodetypes="zzzzzzzzzzzzzzzzzzazzzzzcaaazcazzaazzcz" /><path
           style="display:inline;fill:#feec96;fill-opacity:1;stroke:#feec96;stroke-width:3.77953;stroke-linecap:round;stroke-linejoin:round;stroke-dasharray:none;stroke-opacity:1;paint-order:markers fill stroke"
           d="m 384.25001,422.25001 c 0,0 2.26962,2.32688 4.21594,4.62591 1.18479,1.39949 2.86914,3.85946 3.73393,5.47677 0.97404,1.82162 1.80574,3.72504 2.55013,5.64732 1.02409,2.64457 1.81349,5.39581 2.3125,8.1875 0.32727,1.83087 0.50919,3.70399 0.4375,5.5625 -0.0829,2.14939 -1.51955,4.2877 -1,6.375 0.27677,1.11191 1.04646,2.22028 2.0625,2.75 1.09056,0.56857 2.58366,0.66733 3.6875,0.125 0.62029,-0.30475 1.14982,-0.79935 1.5721,-1.38634 0.77115,-1.07191 1.17654,-3.25872 1.00492,-4.56918 -0.0506,-0.38664 -0.11819,-0.77777 -0.19449,-1.15797 -0.34572,-1.72275 -0.19386,-1.79272 0.52037,-0.18572 0.96254,2.16567 2.16344,5.08302 2.5971,7.04921 0.70754,3.20794 1.21511,6.61996 0.56066,9.83915 -0.89072,4.38137 -2.45531,9.21824 -5.93122,12.03033 -3.30906,2.6771 -8.12533,3.26928 -12.37944,3.13052 -2.97635,-0.0971 -6.06141,-1.0408 -8.5,-2.75 -1.55612,-1.09068 -2.57727,-2.83877 -3.5,-4.5 -0.81934,-1.47509 -1.38282,-3.10306 -1.75,-4.75 -0.58242,-2.61236 -0.96444,-5.33787 -0.6875,-8 0.26119,-2.51073 1.1271,-4.95925 2.1875,-7.25 1.56332,-3.37719 4.38092,-6.05511 6.0625,-9.375 1.34971,-2.66469 2.68235,-5.431 3.1875,-8.375 0.59207,-3.45056 0.31933,-7.04561 -0.25,-10.5 -0.45433,-2.75665 -2.5,-8 -2.5,-8"
           id="path8-7"
           sodipodi:nodetypes="caaaaasaacaaaaaaaaaaaac"
           inkscape:path-effect="#path-effect17-8"
           inkscape:original-d="m 384.25001,422.25001 c 0,0 4.48131,4.59438 6.25,7.25 1.75597,2.63653 3.10608,5.54599 4.25,8.5 1.02409,2.64457 1.81349,5.39581 2.3125,8.1875 0.32727,1.83087 0.50919,3.70399 0.4375,5.5625 -0.0829,2.14939 -1.51955,4.2877 -1,6.375 0.27677,1.11191 1.04646,2.22028 2.0625,2.75 1.09056,0.56857 2.58366,0.66733 3.6875,0.125 1.31289,-0.64504 2.21923,-2.14056 2.5625,-3.5625 0.52409,-2.17099 -1,-6.625 -1,-6.625 0,0 3.17008,6.45808 3.9375,9.9375 0.70754,3.20794 1.21511,6.61996 0.56066,9.83915 -0.89072,4.38137 -2.45531,9.21824 -5.93122,12.03033 -3.30906,2.6771 -8.12533,3.26928 -12.37944,3.13052 -2.97635,-0.0971 -6.06141,-1.0408 -8.5,-2.75 -1.55612,-1.09068 -2.57727,-2.83877 -3.5,-4.5 -0.81934,-1.47509 -1.38282,-3.10306 -1.75,-4.75 -0.58242,-2.61236 -0.96444,-5.33787 -0.6875,-8 0.26119,-2.51073 1.1271,-4.95925 2.1875,-7.25 1.56332,-3.37719 4.38092,-6.05511 6.0625,-9.375 1.34971,-2.66469 2.68235,-5.431 3.1875,-8.375 0.59207,-3.45056 0.31933,-7.04561 -0.25,-10.5 -0.45433,-2.75665 -2.5,-8 -2.5,-8"
           transform="rotate(3.058053,493.18475,443.42683)" /><path
           style="fill:#fd5505;fill-opacity:1;stroke:#000000;stroke-width:7.55906;stroke-linecap:round;stroke-linejoin:round;stroke-dasharray:none;stroke-opacity:1;paint-order:fill markers stroke"
           d="m 438.75977,360.97802 c 0,0 2.39609,2.79551 2.91681,4.50781 0.53154,1.7479 0.53784,3.7093 0.0884,5.48008 -0.45761,1.80296 -2.24111,3.06939 -2.74004,4.86136 -0.52971,1.90252 -0.73957,4.02902 -0.17678,5.92202 0.47048,1.58251 1.72468,2.83809 2.82843,4.06586 1.56392,1.73965 5.3033,4.59619 5.3033,4.59619 0,0 1.73367,-2.32514 2.65165,-3.44714 1.1373,-1.39006 2.54792,-2.56576 3.53554,-4.06587 0.971,-1.47486 2.06934,-3.02205 2.29809,-4.77297 0.26424,-2.02256 -0.0794,-4.2736 -1.14905,-6.0104 -0.7602,-1.23437 -3.11493,-2.50183 -3.44714,-2.65165 0,0 -3.11169,-1.00807 -4.50781,-2.03294 -1.39612,-1.02487 -3.62392,-4.06586 -3.62392,-4.06586 -1.02877,-1.15423 -3.97748,-2.38649 -3.97748,-2.38649 z"
           id="path38-8"
           sodipodi:nodetypes="cssssscssssszsc" /></g><g
         id="g57"
         inkscape:label="fire 2"
         style="display:inline"
         transform="matrix(1.3692498,0,0,1.3692498,103.02836,262.03644)"><path
           style="display:inline;fill:#fd5505;fill-opacity:1;stroke:#000000;stroke-width:8.28087;stroke-linecap:round;stroke-linejoin:round;stroke-dasharray:none;stroke-opacity:1;paint-order:fill markers stroke"
           d="m 376.25001,496.00001 c -7.09668,0.0717 -14.031,-1.11681 -20.5,-3.62868 -6.92301,-2.68815 -13.59616,-6.6513 -18.81066,-11.93934 -5.99142,-6.07592 -11.03914,-13.60739 -13.41421,-21.8033 -2.03004,-7.00526 -1.58864,-13.93419 -0.27513,-21.87868 1.11276,-6.73027 8.75,-18.5 8.75,-18.5 0,0 6.27684,-11.08918 7.25,-17.25 0.76987,-4.87386 0.19313,-10.03146 -1.25,-14.75 -1.2002,-3.92426 -6,-10.75 -6,-10.75 0,0 9.40122,3.30553 12.9519,6.60355 2.6127,2.42678 4.42367,5.99414 5.5481,9.14645 1.04531,2.93051 0.84426,6.77693 3.25,8.75 1.63134,1.33795 4.82039,1.96098 6.95711,1 2.51934,-1.13306 4.32494,-4.16709 4.56066,-6.91942 0.30858,-3.60308 -2.6505,-6.74583 -4.34315,-9.9415 -2.64937,-5.00194 -7.90081,-8.82442 -9.0533,-14.36611 -1.51219,-7.2713 1.00911,-16.47241 3.37868,-22.02297 2.5329,-5.93317 4.946,-12.19442 9.25,-17 3.79406,-4.2362 8.73315,-7.6051 14,-9.75 4.6946,-1.91185 15,-2.5 15,-2.5 0,0 -4.50945,6.72782 -6.5,10.25 -1.83362,3.24449 -4.52796,6.30324 -5,10 -0.5072,3.97209 0.99464,8.03939 2.5,11.75 1.29509,3.1923 3.21596,6.17101 5.5,8.75 4.55604,5.14438 10.69368,8.63363 16,13 4.02063,3.30843 8.35521,6.28158 12,10 3.36165,3.42955 6.41165,6.52619 9,11.25 2.66602,4.86555 5.06645,9.98344 6.375,15.375 2.72175,11.2143 4.79656,23.12125 2.875,34.5 -2.02393,11.98493 -6.92409,24.06469 -14.79289,33.32843 -5.6615,6.66514 -13.86737,11.02357 -21.94178,14.38223 -7.31835,3.04416 -15.16378,4.83249 -23.26533,4.91434 z"
           id="path43-0"
           sodipodi:nodetypes="saaascsscassaaaassscssaaaasaaaas" /><path
           style="display:inline;fill:#ffb230;fill-opacity:1;stroke:#000000;stroke-width:7.55906;stroke-linecap:round;stroke-linejoin:round;stroke-dasharray:none;stroke-opacity:0;paint-order:fill markers stroke"
           d="m 376.68082,492.12121 c -7.21164,-1.78124 -17.49359,-10.51744 -22.98097,-18.73834 -5.94099,-8.90047 -11.18061,-21.96769 -9.19239,-30.75914 1.16838,-5.16628 5.74707,-12.08295 8.48528,-16.61701 1.82875,-3.02813 4.75336,-5.6979 5.3033,-9.19239 0.52463,-3.33371 -2.12132,-9.89949 -2.12132,-9.89949 0,0 4.91324,5.00919 8.13173,6.01041 3.37783,1.05079 7.86751,1.88503 10.6066,-0.35356 1.96986,-1.60992 1.37053,-4.91177 1.76777,-7.42462 0.46152,-2.91944 0.937,-5.89209 0.70711,-8.83883 -0.23566,-3.02077 -1.73462,-5.83367 -2.12132,-8.83884 -0.73716,-5.72868 -1.76895,-11.72432 -0.35356,-17.32412 0.99582,-3.93983 6.01041,-10.6066 6.01041,-10.6066 0,0 -0.29855,9.38376 1.06066,13.78859 1.60335,5.19603 4.35092,10.23382 8.13173,14.14213 4.82057,4.98313 12.65029,6.18576 17.67767,10.96016 5.09663,4.84016 9.60765,10.72264 12.02081,17.32411 3.00754,8.22744 3.52539,17.46625 2.47488,26.16295 -0.68832,5.69831 -3.08884,11.13026 -5.65686,16.26346 -2.92486,5.84648 -6.65987,11.33967 -10.96015,16.26346 -4.77698,5.46961 -9.84402,11.10056 -16.26346,14.49568 -3.86584,2.04457 -8.4823,4.23064 -12.72792,3.18199 z"
           id="path44-9"
           sodipodi:nodetypes="sassscsssssscsssssssss" /><path
           style="fill:#feec96;fill-opacity:1;stroke:#feec96;stroke-width:7.55906;stroke-linecap:round;stroke-linejoin:round;stroke-dasharray:none;stroke-opacity:0;paint-order:fill markers stroke"
           d="m 392.25001,478.00001 c 3.90428,-7.51616 5.80384,-16.28045 5.75,-24.75 -0.0644,-10.12574 -3.99219,-21.11493 -7.25,-29.5 -1.1907,-2.78992 -5.5,-7.25 -5.5,-7.25 0,0 -0.91141,7.05224 -1.75,10.5 -0.64152,2.63752 -1.16203,5.38825 -2.5,7.75 -2.18323,3.85377 -6.35233,6.27586 -8.75,10 -2.62458,4.07658 -4.97697,8.51077 -6,13.25 -0.77368,3.58411 -0.60812,7.38411 0,11 0.76053,4.5221 2.38802,8.9297 4.5,13 1.18235,2.27867 2.80753,4.31976 4.5,6.25 1.28258,1.46277 2.31708,3.77964 4.25,4 4.2896,0.48904 9.81189,-8.59381 12.75,-14.25 z"
           id="path45-9"
           sodipodi:nodetypes="aascasasasssa" /></g><g
         id="g4"
         inkscape:label="fire 2"
         style="display:inline"
         transform="matrix(1.3692498,0,0,1.3692498,898.92115,252.431)"><path
           style="display:inline;fill:#fd5505;fill-opacity:1;stroke:#000000;stroke-width:8.28087;stroke-linecap:round;stroke-linejoin:round;stroke-dasharray:none;stroke-opacity:1;paint-order:fill markers stroke"
           d="m 376.25001,496.00001 c -7.09668,0.0717 -14.031,-1.11681 -20.5,-3.62868 -6.92301,-2.68815 -13.59616,-6.6513 -18.81066,-11.93934 -5.99142,-6.07592 -11.03914,-13.60739 -13.41421,-21.8033 -2.03004,-7.00526 -1.58864,-13.93419 -0.27513,-21.87868 1.11276,-6.73027 8.75,-18.5 8.75,-18.5 0,0 6.27684,-11.08918 7.25,-17.25 0.76987,-4.87386 0.19313,-10.03146 -1.25,-14.75 -1.2002,-3.92426 -6,-10.75 -6,-10.75 0,0 9.40122,3.30553 12.9519,6.60355 2.6127,2.42678 4.42367,5.99414 5.5481,9.14645 1.04531,2.93051 0.84426,6.77693 3.25,8.75 1.63134,1.33795 4.82039,1.96098 6.95711,1 2.51934,-1.13306 4.32494,-4.16709 4.56066,-6.91942 0.30858,-3.60308 -2.6505,-6.74583 -4.34315,-9.9415 -2.64937,-5.00194 -7.90081,-8.82442 -9.0533,-14.36611 -1.51219,-7.2713 1.00911,-16.47241 3.37868,-22.02297 2.5329,-5.93317 4.946,-12.19442 9.25,-17 3.79406,-4.2362 8.73315,-7.6051 14,-9.75 4.6946,-1.91185 15,-2.5 15,-2.5 0,0 -4.50945,6.72782 -6.5,10.25 -1.83362,3.24449 -4.52796,6.30324 -5,10 -0.5072,3.97209 0.99464,8.03939 2.5,11.75 1.29509,3.1923 3.21596,6.17101 5.5,8.75 4.55604,5.14438 10.69368,8.63363 16,13 4.02063,3.30843 8.35521,6.28158 12,10 3.36165,3.42955 6.41165,6.52619 9,11.25 2.66602,4.86555 5.06645,9.98344 6.375,15.375 2.72175,11.2143 4.79656,23.12125 2.875,34.5 -2.02393,11.98493 -6.92409,24.06469 -14.79289,33.32843 -5.6615,6.66514 -13.86737,11.02357 -21.94178,14.38223 -7.31835,3.04416 -15.16378,4.83249 -23.26533,4.91434 z"
           id="path2"
           sodipodi:nodetypes="saaascsscassaaaassscssaaaasaaaas" /><path
           style="display:inline;fill:#ffb230;fill-opacity:1;stroke:#000000;stroke-width:7.55906;stroke-linecap:round;stroke-linejoin:round;stroke-dasharray:none;stroke-opacity:0;paint-order:fill markers stroke"
           d="m 376.68082,492.12121 c -7.21164,-1.78124 -17.49359,-10.51744 -22.98097,-18.73834 -5.94099,-8.90047 -11.18061,-21.96769 -9.19239,-30.75914 1.16838,-5.16628 5.74707,-12.08295 8.48528,-16.61701 1.82875,-3.02813 4.75336,-5.6979 5.3033,-9.19239 0.52463,-3.33371 -2.12132,-9.89949 -2.12132,-9.89949 0,0 4.91324,5.00919 8.13173,6.01041 3.37783,1.05079 7.86751,1.88503 10.6066,-0.35356 1.96986,-1.60992 1.37053,-4.91177 1.76777,-7.42462 0.46152,-2.91944 0.937,-5.89209 0.70711,-8.83883 -0.23566,-3.02077 -1.73462,-5.83367 -2.12132,-8.83884 -0.73716,-5.72868 -1.76895,-11.72432 -0.35356,-17.32412 0.99582,-3.93983 6.01041,-10.6066 6.01041,-10.6066 0,0 -0.29855,9.38376 1.06066,13.78859 1.60335,5.19603 4.35092,10.23382 8.13173,14.14213 4.82057,4.98313 12.65029,6.18576 17.67767,10.96016 5.09663,4.84016 9.60765,10.72264 12.02081,17.32411 3.00754,8.22744 3.52539,17.46625 2.47488,26.16295 -0.68832,5.69831 -3.08884,11.13026 -5.65686,16.26346 -2.92486,5.84648 -6.65987,11.33967 -10.96015,16.26346 -4.77698,5.46961 -9.84402,11.10056 -16.26346,14.49568 -3.86584,2.04457 -8.4823,4.23064 -12.72792,3.18199 z"
           id="path3"
           sodipodi:nodetypes="sassscsssssscsssssssss" /><path
           style="fill:#feec96;fill-opacity:1;stroke:#feec96;stroke-width:7.55906;stroke-linecap:round;stroke-linejoin:round;stroke-dasharray:none;stroke-opacity:0;paint-order:fill markers stroke"
           d="m 392.25001,478.00001 c 3.90428,-7.51616 5.80384,-16.28045 5.75,-24.75 -0.0644,-10.12574 -3.99219,-21.11493 -7.25,-29.5 -1.1907,-2.78992 -5.5,-7.25 -5.5,-7.25 0,0 -0.91141,7.05224 -1.75,10.5 -0.64152,2.63752 -1.16203,5.38825 -2.5,7.75 -2.18323,3.85377 -6.35233,6.27586 -8.75,10 -2.62458,4.07658 -4.97697,8.51077 -6,13.25 -0.77368,3.58411 -0.60812,7.38411 0,11 0.76053,4.5221 2.38802,8.9297 4.5,13 1.18235,2.27867 2.80753,4.31976 4.5,6.25 1.28258,1.46277 2.31708,3.77964 4.25,4 4.2896,0.48904 9.81189,-8.59381 12.75,-14.25 z"
           id="path4"
           sodipodi:nodetypes="aascasasasssa" /></g><g
         id="g8"
         inkscape:label="fire 1"
         transform="matrix(1.3692498,0,0,1.3692498,246.19841,-118.44878)"
         style="display:inline"><path
           style="fill:#fd5505;fill-opacity:1;stroke:#000000;stroke-width:8.28087;stroke-linecap:round;stroke-linejoin:round;stroke-dasharray:none;stroke-opacity:1;paint-order:fill markers stroke"
           d="m 382.89833,485.25204 c -9.58998,-1.53014 -19.33957,-4.48355 -27.40038,-9.89949 -7.44555,-5.00256 -13.35054,-12.32377 -18.03123,-19.97577 -4.40857,-7.20715 -7.38495,-15.39836 -9.01561,-23.68808 -1.37658,-6.99808 -1.79841,-14.37143 -0.53033,-21.38998 1.09531,-6.06232 3.24883,-12.18126 6.89429,-17.14734 2.75025,-3.74657 10.78338,-8.83883 10.78338,-8.83883 0,0 -3.92475,7.42028 -4.59619,11.49048 -0.53787,3.2605 -1.17418,7.06846 0.53033,9.8995 1.41781,2.35486 4.35075,3.84837 7.07106,4.24264 1.86703,0.2706 3.95503,-0.3037 5.48008,-1.41422 1.69153,-1.23174 2.45344,-3.4168 3.35876,-5.3033 0.94329,-1.96562 1.86439,-4.02213 2.12132,-6.18718 0.36967,-3.11507 -0.39695,-6.27027 -0.88388,-9.36917 -0.97425,-6.20026 -3.58947,-12.12654 -4.06587,-18.38477 -0.34066,-4.47508 0.88389,-13.43503 0.88389,-13.43503 0,0 1.54626,-10.39528 3.53553,-15.2028 1.96307,-4.7442 4.89442,-9.09639 8.13173,-13.08147 3.44252,-4.2377 7.47151,-8.04415 11.84404,-11.31371 4.73539,-3.54089 15.37957,-8.83884 15.37957,-8.83884 0,0 -5.69258,9.22938 -7.95495,14.14214 -2.15214,4.67339 -4.40915,9.42886 -5.3033,14.49569 0,0 -2.28341,7.95519 -2.12132,12.02081 0.12127,3.04182 0.676,6.26276 2.29809,8.83884 1.84928,2.93689 4.85918,5.14865 7.95495,6.71751 1.56806,0.79466 3.37203,1.34713 5.12653,1.23744 2.32656,-0.14546 4.57126,-1.2278 6.54074,-2.47487 1.93648,-1.22618 3.70495,-2.8484 4.94974,-4.77297 1.32605,-2.05022 1.95377,-4.50887 2.47488,-6.8943 0.44177,-2.02226 0.57607,-4.11773 0.53033,-6.18718 -0.0302,-1.36643 -0.53033,-4.06586 -0.53033,-4.06586 l 10.07627,12.37437 c 0,0 4.15686,8.90301 5.48008,13.6118 1.26057,4.48584 2.29809,13.78858 2.29809,13.78858 0.88287,5.29725 -0.0217,10.78603 -0.88388,16.08668 -0.60822,3.73909 -2.15154,7.26937 -3.0052,10.96016 -0.50002,2.16185 -1.59698,4.35114 -1.23744,6.54074 0.23879,1.45427 2.16791,3.85325 2.16791,3.85325 0,0 3.95461,1.8872 6.0625,1.8125 2.82673,-0.10017 5.62534,-1.37078 7.9375,-3 1.78809,-1.25995 3.13882,-3.11585 4.25,-5 1.01818,-1.72646 2.125,-5.625 2.125,-5.625 l -0.875,-6.75 c 0,0 5.30526,6.09621 6.875,9.75 0.83865,1.95207 1.05475,4.1344 1.25,6.25 0.28722,3.11205 0.44278,6.30173 -0.125,9.375 -0.39515,2.13887 -2.25,6.125 -2.25,6.125 l -5,5.75 c -1.12596,1.29486 -1.87738,2.90101 -2.5,4.5 -0.3887,0.99824 -0.75,3.125 -0.75,3.125 0,0 1.12896,1.6392 2,2 1.92475,0.79726 4.28411,0.6896 6.25,0 2.51757,-0.88312 4.38258,-3.09453 6.25,-5 1.58079,-1.613 4.125,-5.375 4.125,-5.375 0,0 0.93688,6.68476 0.125,9.875 -1.26063,4.95354 -4.40105,9.31012 -7.5,13.375 -2.84022,3.7255 -6.32709,6.96709 -10,9.875 -4.24191,3.35839 -8.88111,6.26566 -13.75,8.625 -6.36874,3.08613 -13.0453,5.81456 -20,7.125 -8.14437,1.5346 -16.66752,2.05787 -24.85168,0.75203 z"
           id="path5"
           sodipodi:nodetypes="sssssacsasssssscssscssasssssssccssssscsssccssscsscssscssssss" /><path
           style="display:inline;fill:#ffb230;fill-opacity:1;stroke:#000000;stroke-width:7.55906;stroke-linecap:round;stroke-linejoin:miter;stroke-dasharray:none;stroke-opacity:0;paint-order:fill markers stroke"
           d="m 378.26921,479.83783 c -3.3474,-1.20207 -7.4116,-4.03806 -10.42983,-6.18719 -3.01823,-2.14913 -5.30354,-3.87183 -7.71437,-6.52563 -2.41083,-2.6538 -4.98369,-6.46766 -6.5,-9.375 -1.51631,-2.90734 -2.08509,-4.72345 -2.875,-7.75 -0.78991,-3.02655 -1.80097,-7.20441 -1.625,-10.375 0.17597,-3.17059 1.3655,-5.87528 2.25,-8.25 0.8845,-2.37472 1.3659,-3.86871 2.875,-6 1.5091,-2.13129 4.84639,-5.04924 6.375,-6.375 1.52861,-1.32576 1.51749,-2.63217 2.5,-1.875 0.98251,0.75717 -1.25285,2.38311 -1.625,4 -0.37215,1.61689 -0.60852,3.52502 -0.375,5.625 0.23352,2.09998 0.94745,5.05075 2,6.75 1.05255,1.69925 2.12242,2.65048 3.625,3.375 1.50258,0.72452 3.43161,0.99889 5,0.75 1.56839,-0.24889 2.70229,-0.90246 4,-2 1.29771,-1.09754 2.56859,-2.71395 3.375,-4.625 0.80641,-1.91105 1.15644,-4.21004 1.125,-6.625 -0.0314,-2.41496 -1.06933,-5.07067 -1.5,-7.625 -0.4722,-2.80069 -1.17839,-5.57718 -1.1875,-8.4375 -0.009,-2.86032 0.20761,-5.51831 1.0625,-8.4375 0.85489,-2.91919 2.0808,-6.17911 3.75,-9.125 1.6692,-2.94589 3.85961,-5.83735 6.25,-8.375 2.39039,-2.53765 5.46438,-4.84461 8,-6.75 2.53562,-1.90539 6.06969,-4.48281 8.71599,-2.80546 2.6463,1.67735 -2.40524,6.34261 -3.35616,9.59467 -1.00651,3.44222 -2.25874,6.89007 -2.47855,10.46967 -0.39971,6.50925 -0.17776,13.35243 2.14385,19.4467 2.86405,7.5182 6.29913,15.71489 13.98743,19.66942 2.32013,0.92795 5.3316,1.22664 7.23744,1 1.90584,-0.22664 3.61838,-0.95425 5,-2.125 1.65789,-1.40486 1.58077,-5.75895 3.5,-5.5 1.91923,0.25895 1.25313,2.76574 1.5,4.875 0.24687,2.10926 0.78362,5.83021 0.625,8.75 -0.27798,5.11678 -0.96613,10.3212 -2.75,15.125 -1.63192,4.3946 -5.17852,9.287 -7.125,12.125 -5.0004,6.06236 -12.27942,9.57901 -19.25,12.875 -2.37017,1.15178 -10.76949,2.24029 -13.625,2.625 -6.1205,-0.0992 -6.57032,0.0389 -12.4808,-1.91218 z"
           id="path6"
           sodipodi:nodetypes="zzzzzzzzzzzzzzzzzzazzzzzcaaazcazzaazzcz" /><path
           style="display:inline;fill:#feec96;fill-opacity:1;stroke:#feec96;stroke-width:3.77953;stroke-linecap:round;stroke-linejoin:round;stroke-dasharray:none;stroke-opacity:1;paint-order:markers fill stroke"
           d="m 384.25001,422.25001 c 0,0 2.26962,2.32688 4.21594,4.62591 1.18479,1.39949 2.86914,3.85946 3.73393,5.47677 0.97404,1.82162 1.80574,3.72504 2.55013,5.64732 1.02409,2.64457 1.81349,5.39581 2.3125,8.1875 0.32727,1.83087 0.50919,3.70399 0.4375,5.5625 -0.0829,2.14939 -1.51955,4.2877 -1,6.375 0.27677,1.11191 1.04646,2.22028 2.0625,2.75 1.09056,0.56857 2.58366,0.66733 3.6875,0.125 0.62029,-0.30475 1.14982,-0.79935 1.5721,-1.38634 0.77115,-1.07191 1.17654,-3.25872 1.00492,-4.56918 -0.0506,-0.38664 -0.11819,-0.77777 -0.19449,-1.15797 -0.34572,-1.72275 -0.19386,-1.79272 0.52037,-0.18572 0.96254,2.16567 2.16344,5.08302 2.5971,7.04921 0.70754,3.20794 1.21511,6.61996 0.56066,9.83915 -0.89072,4.38137 -2.45531,9.21824 -5.93122,12.03033 -3.30906,2.6771 -8.12533,3.26928 -12.37944,3.13052 -2.97635,-0.0971 -6.06141,-1.0408 -8.5,-2.75 -1.55612,-1.09068 -2.57727,-2.83877 -3.5,-4.5 -0.81934,-1.47509 -1.38282,-3.10306 -1.75,-4.75 -0.58242,-2.61236 -0.96444,-5.33787 -0.6875,-8 0.26119,-2.51073 1.1271,-4.95925 2.1875,-7.25 1.56332,-3.37719 4.38092,-6.05511 6.0625,-9.375 1.34971,-2.66469 2.68235,-5.431 3.1875,-8.375 0.59207,-3.45056 0.31933,-7.04561 -0.25,-10.5 -0.45433,-2.75665 -2.5,-8 -2.5,-8"
           id="path7"
           sodipodi:nodetypes="caaaaasaacaaaaaaaaaaaac"
           inkscape:path-effect="#path-effect9"
           inkscape:original-d="m 384.25001,422.25001 c 0,0 4.48131,4.59438 6.25,7.25 1.75597,2.63653 3.10608,5.54599 4.25,8.5 1.02409,2.64457 1.81349,5.39581 2.3125,8.1875 0.32727,1.83087 0.50919,3.70399 0.4375,5.5625 -0.0829,2.14939 -1.51955,4.2877 -1,6.375 0.27677,1.11191 1.04646,2.22028 2.0625,2.75 1.09056,0.56857 2.58366,0.66733 3.6875,0.125 1.31289,-0.64504 2.21923,-2.14056 2.5625,-3.5625 0.52409,-2.17099 -1,-6.625 -1,-6.625 0,0 3.17008,6.45808 3.9375,9.9375 0.70754,3.20794 1.21511,6.61996 0.56066,9.83915 -0.89072,4.38137 -2.45531,9.21824 -5.93122,12.03033 -3.30906,2.6771 -8.12533,3.26928 -12.37944,3.13052 -2.97635,-0.0971 -6.06141,-1.0408 -8.5,-2.75 -1.55612,-1.09068 -2.57727,-2.83877 -3.5,-4.5 -0.81934,-1.47509 -1.38282,-3.10306 -1.75,-4.75 -0.58242,-2.61236 -0.96444,-5.33787 -0.6875,-8 0.26119,-2.51073 1.1271,-4.95925 2.1875,-7.25 1.56332,-3.37719 4.38092,-6.05511 6.0625,-9.375 1.34971,-2.66469 2.68235,-5.431 3.1875,-8.375 0.59207,-3.45056 0.31933,-7.04561 -0.25,-10.5 -0.45433,-2.75665 -2.5,-8 -2.5,-8"
           transform="rotate(3.058053,493.18475,443.42683)" /><path
           style="fill:#fd5505;fill-opacity:1;stroke:#000000;stroke-width:7.55906;stroke-linecap:round;stroke-linejoin:round;stroke-dasharray:none;stroke-opacity:1;paint-order:fill markers stroke"
           d="m 438.75977,360.97802 c 0,0 2.39609,2.79551 2.91681,4.50781 0.53154,1.7479 0.53784,3.7093 0.0884,5.48008 -0.45761,1.80296 -2.24111,3.06939 -2.74004,4.86136 -0.52971,1.90252 -0.73957,4.02902 -0.17678,5.92202 0.47048,1.58251 1.72468,2.83809 2.82843,4.06586 1.56392,1.73965 5.3033,4.59619 5.3033,4.59619 0,0 1.73367,-2.32514 2.65165,-3.44714 1.1373,-1.39006 2.54792,-2.56576 3.53554,-4.06587 0.971,-1.47486 2.06934,-3.02205 2.29809,-4.77297 0.26424,-2.02256 -0.0794,-4.2736 -1.14905,-6.0104 -0.7602,-1.23437 -3.11493,-2.50183 -3.44714,-2.65165 0,0 -3.11169,-1.00807 -4.50781,-2.03294 -1.39612,-1.02487 -3.62392,-4.06586 -3.62392,-4.06586 -1.02877,-1.15423 -3.97748,-2.38649 -3.97748,-2.38649 z"
           id="path8"
           sodipodi:nodetypes="cssssscssssszsc" /></g></g></g></svg>
