<?xml version="1.0" encoding="UTF-8" standalone="no"?>
<!-- Created with Inkscape (http://www.inkscape.org/) -->

<svg
   width="31.621454mm"
   height="43.028969mm"
   viewBox="0 0 119.51416 162.62918"
   version="1.1"
   id="svg1"
   inkscape:version="1.2.2 (732a01da63, 2022-12-09)"
   sodipodi:docname="characters.svg"
   xml:space="preserve"
   xmlns:inkscape="http://www.inkscape.org/namespaces/inkscape"
   xmlns:sodipodi="http://sodipodi.sourceforge.net/DTD/sodipodi-0.dtd"
   xmlns="http://www.w3.org/2000/svg"
   xmlns:svg="http://www.w3.org/2000/svg"><sodipodi:namedview
     id="namedview1"
     pagecolor="#ffffff"
     bordercolor="#000000"
     borderopacity="0.25"
     inkscape:showpageshadow="2"
     inkscape:pageopacity="0.0"
     inkscape:pagecheckerboard="0"
     inkscape:deskcolor="#d1d1d1"
     inkscape:document-units="mm"
     inkscape:zoom="1.96"
     inkscape:cx="109.43878"
     inkscape:cy="489.54082"
     inkscape:window-width="1827"
     inkscape:window-height="1057"
     inkscape:window-x="-9"
     inkscape:window-y="-9"
     inkscape:window-maximized="1"
     inkscape:current-layer="svg1"
     showgrid="true"><inkscape:grid
       id="grid11"
       units="mm"
       originx="0"
       originy="0"
       spacingx="3.7795276"
       spacingy="3.7795276"
       empcolor="#0099e5"
       empopacity="0.30196078"
       color="#0099e5"
       opacity="0.14901961"
       empspacing="5"
       dotted="false"
       gridanglex="30"
       gridanglez="30"
       visible="true" /></sodipodi:namedview><defs
     id="defs1"><linearGradient
       id="linearGradient4322"
       inkscape:swatch="solid"><stop
         style="stop-color:#2b1500;stop-opacity:1;"
         offset="0"
         id="stop4320" /></linearGradient><linearGradient
       id="linearGradient5259"
       inkscape:swatch="solid"><stop
         style="stop-color:#fdb6b0;stop-opacity:1;"
         offset="0"
         id="stop5257" /></linearGradient><linearGradient
       id="linearGradient5745"
       inkscape:swatch="solid"><stop
         style="stop-color:#000000;stop-opacity:1;"
         offset="0"
         id="stop5743" /></linearGradient><linearGradient
       id="linearGradient4753"
       inkscape:swatch="solid"><stop
         style="stop-color:#d1d48d;stop-opacity:1;"
         offset="0"
         id="stop4751" /></linearGradient></defs><g
     inkscape:label="Layer 1"
     inkscape:groupmode="layer"
     id="layer1"
     transform="translate(-2116.2232,-74.162948)"><g
       id="g41"
       inkscape:label="std3"
       transform="matrix(2.8346442,0,0,2.8346442,2437.6784,470.63323)"
       style="display:inline"
       inkscape:highlight-color="#d65c98"><path
         style="display:inline;fill:#bf7f40;fill-opacity:1;stroke:#000000;stroke-width:1.5;stroke-linecap:round;stroke-linejoin:round;stroke-opacity:1;paint-order:fill markers stroke"
         d="m -142.86578,-136.64115 c -8.27872,0.0808 -16.37568,4.92995 -17.41392,12.6892 -0.80639,6.02664 1.49289,8.75863 2.15986,12.6892 0.70779,4.17107 -3.37478,10.32685 -3.37478,10.32685 0,0 14.6648,3.243006 19.23628,3.172302 4.55329,-0.07042 18.49383,-3.239792 18.49383,-3.239792 0,0 -4.71599,-6.09791 -3.64475,-9.65189 1.38811,-4.60521 3.34832,-6.28233 2.22737,-13.97163 -1.12096,-7.68929 -9.41999,-12.09495 -17.68389,-12.01424 z"
         id="path243"
         sodipodi:nodetypes="ssscscszs"
         transform="translate(50.598339,-0.2278)" /><g
         id="g39"
         transform="translate(50.598352,-0.2277988)"
         inkscape:label="body"
         style="display:inline"><path
           style="display:inline;fill:#ffffff;fill-opacity:1;stroke:#000000;stroke-width:1.5;stroke-linecap:round;stroke-linejoin:round;stroke-miterlimit:1001;stroke-dasharray:none;stroke-opacity:1;paint-order:fill markers stroke"
           d="m -148.03164,-104.78796 c -0.84463,5.035859 -2.40269,9.979408 -2.99649,15.058582 -0.18904,1.812847 -0.97436,6.021578 -0.61675,6.445311 0.35761,0.423733 3.86977,0.141849 4.46264,-0.333234 0.59287,-0.475088 0.3792,-3.613203 0.76117,-4.09596 0.382,-0.482757 4.66548,-0.669116 4.96058,-0.346904 0.2951,0.322212 0.25116,3.515794 0.44144,4.003107 0.50176,0.401375 4.08807,-0.338983 4.08807,-0.338983 0,0 -1.5286,-9.764104 -2.00605,-14.679673 -0.17444,-1.795926 -0.31293,-5.404086 -0.31293,-5.404086"
           id="path37"
           sodipodi:nodetypes="czzzzzccac"
           inkscape:label="body" /><g
           id="g242"
           style="display:inline"
           transform="translate(-50.598347,0.22779975)"><path
             style="fill:#ffccdd;fill-opacity:1;stroke:#000000;stroke-width:1.5;stroke-linecap:round;stroke-linejoin:round;stroke-opacity:1;paint-order:fill markers stroke"
             d="m -97.176115,-105.17441 2.38633,0.57272 c 0,0 0.514527,3.72628 1.909075,3.72269 1.40872,-0.004 2.099981,-3.53178 2.099981,-3.53178 l 2.290876,-0.23863 c 0,0 -0.09935,3.19438 0.03615,4.903686 0.163927,2.068032 0.822935,5.763934 0.822935,5.763934 0,0 -3.823038,0.934498 -5.774928,0.977694 -2.195701,0.04859 -6.538568,-0.811356 -6.538568,-0.811356 0,0 0.885048,-4.438818 1.431793,-6.634008 0.395576,-1.58824 1.336357,-4.72495 1.336357,-4.72495 z"
             id="path239"
             sodipodi:nodetypes="ccsccscacsc" /><path
             style="fill:#d65c98;fill-opacity:1;stroke:#000000;stroke-width:1.5;stroke-linecap:round;stroke-linejoin:round;stroke-opacity:1;paint-order:fill markers stroke"
             d="m -99.896538,-94.24499 -0.859072,6.06129 c 0,0 4.86142,0.634374 7.302174,0.572722 2.22909,-0.05631 6.634011,-0.859083 6.634011,-0.859083 l -0.859081,-5.679477 c 0,0 -3.303469,0.724886 -5.297665,0.85908 -2.234937,0.150394 -6.920367,-0.954532 -6.920367,-0.954532 z"
             id="path240"
             sodipodi:nodetypes="ccaccsc" /><path
             style="fill:#bf7f40;fill-opacity:1;stroke:#000000;stroke-width:1.5;stroke-linecap:round;stroke-linejoin:round;stroke-opacity:1;paint-order:fill markers stroke"
             d="m -100.94653,-85.773502 -0.35796,2.529517 5.130624,-0.04772 0.04773,-2.457927 z"
             id="path241"
             sodipodi:nodetypes="ccccc" /><path
             style="fill:#bf7f40;fill-opacity:1;stroke:#000000;stroke-width:1.5;stroke-linecap:round;stroke-linejoin:round;stroke-opacity:1;paint-order:fill markers stroke"
             d="m -90.57996,-85.975491 0.08559,2.421282 4.366975,-0.07159 -0.484246,-2.512145 z"
             id="path242"
             sodipodi:nodetypes="ccccc" /></g><ellipse
           style="display:inline;fill:#ffffff;fill-opacity:1;stroke:#000000;stroke-width:1.5;stroke-linecap:round;stroke-linejoin:round;stroke-miterlimit:1001;stroke-dasharray:none;stroke-opacity:1;paint-order:fill markers stroke"
           id="ellipse38"
           ry="15.393556"
           rx="16.682619"
           cy="-119.60479"
           cx="-142.77336"
           inkscape:label="head"
           transform="translate(-1.2832812e-5)" /></g><g
         id="g40"
         inkscape:label="eyes"
         transform="translate(-34.322565,-0.0667206)"
         style="display:inline"><ellipse
           style="fill:#000000;fill-opacity:1;stroke:none;stroke-width:0.593632;stroke-linecap:round;stroke-linejoin:round;stroke-miterlimit:1001;stroke-dasharray:none;stroke-opacity:1;paint-order:stroke fill markers"
           id="ellipse39"
           cx="-86.904243"
           cy="-98.34063"
           rx="2.1079104"
           ry="2.7033648"
           transform="matrix(0.96864121,0.2484637,-0.20869257,0.97798129,0,0)"
           inkscape:label="right" /><ellipse
           style="fill:#000000;fill-opacity:1;stroke:none;stroke-width:0.509367;stroke-linecap:round;stroke-linejoin:round;stroke-miterlimit:1001;stroke-dasharray:none;stroke-opacity:1;paint-order:stroke fill markers"
           id="ellipse40"
           cx="-36.557335"
           cy="-122.18265"
           rx="1.7384969"
           ry="2.4132938"
           transform="matrix(0.99463321,-0.10346393,0.09707266,0.9952773,0,0)"
           inkscape:label="left" /></g><path
         style="display:inline;fill:#bf7f40;fill-opacity:1;stroke:#000000;stroke-width:1.5;stroke-linecap:round;stroke-linejoin:round;stroke-opacity:1;paint-order:fill markers stroke"
         d="m -69.459436,-113.45571 c -0.01143,7.74599 -0.145618,10.882 -0.926579,19.281788 l 5.493121,-4.532967 c 0,0 2.120898,-17.587941 0.451296,-23.705401 -4.445453,-16.28818 -23.295316,-16.4965 -28.003955,-10.73943 -9.210407,-2.00545 -14.501887,12.98729 -10.822477,34.241514 l 7.760031,5.327368 c -1.441281,-9.944122 -4.074094,-30.121772 6.017284,-31.286682 3.386995,-5.18984 20.054255,-4.15033 20.031282,11.41381 z"
         id="path238"
         sodipodi:nodetypes="zcczcccczz"
         transform="translate(-8.2009672,-2.5186816)" /></g></g></svg>
