<?xml version="1.0" encoding="UTF-8" standalone="no"?>
<!-- Created with Inkscape (http://www.inkscape.org/) -->

<svg
   width="33.242512mm"
   height="48.431595mm"
   viewBox="0 0 125.64099 183.04855"
   version="1.1"
   id="svg1"
   inkscape:version="1.2.2 (732a01da63, 2022-12-09)"
   sodipodi:docname="characters.svg"
   xml:space="preserve"
   xmlns:inkscape="http://www.inkscape.org/namespaces/inkscape"
   xmlns:sodipodi="http://sodipodi.sourceforge.net/DTD/sodipodi-0.dtd"
   xmlns="http://www.w3.org/2000/svg"
   xmlns:svg="http://www.w3.org/2000/svg"><sodipodi:namedview
     id="namedview1"
     pagecolor="#ffffff"
     bordercolor="#000000"
     borderopacity="0.25"
     inkscape:showpageshadow="2"
     inkscape:pageopacity="0.0"
     inkscape:pagecheckerboard="0"
     inkscape:deskcolor="#d1d1d1"
     inkscape:document-units="mm"
     inkscape:zoom="1.96"
     inkscape:cx="109.43878"
     inkscape:cy="489.54082"
     inkscape:window-width="1827"
     inkscape:window-height="1057"
     inkscape:window-x="-9"
     inkscape:window-y="-9"
     inkscape:window-maximized="1"
     inkscape:current-layer="svg1"
     showgrid="true"><inkscape:grid
       id="grid11"
       units="mm"
       originx="0"
       originy="0"
       spacingx="3.7795276"
       spacingy="3.7795276"
       empcolor="#0099e5"
       empopacity="0.30196078"
       color="#0099e5"
       opacity="0.14901961"
       empspacing="5"
       dotted="false"
       gridanglex="30"
       gridanglez="30"
       visible="true" /></sodipodi:namedview><defs
     id="defs1"><linearGradient
       id="linearGradient4322"
       inkscape:swatch="solid"><stop
         style="stop-color:#2b1500;stop-opacity:1;"
         offset="0"
         id="stop4320" /></linearGradient><linearGradient
       id="linearGradient5259"
       inkscape:swatch="solid"><stop
         style="stop-color:#fdb6b0;stop-opacity:1;"
         offset="0"
         id="stop5257" /></linearGradient><linearGradient
       id="linearGradient5745"
       inkscape:swatch="solid"><stop
         style="stop-color:#000000;stop-opacity:1;"
         offset="0"
         id="stop5743" /></linearGradient><linearGradient
       id="linearGradient4753"
       inkscape:swatch="solid"><stop
         style="stop-color:#d1d48d;stop-opacity:1;"
         offset="0"
         id="stop4751" /></linearGradient></defs><g
     inkscape:label="Layer 1"
     inkscape:groupmode="layer"
     id="layer1"
     transform="translate(-1889.4517,-54.226856)"><g
       id="g8"
       inkscape:label="std2"
       transform="matrix(2.8346442,0,0,2.8346442,2215.0766,468.63939)"
       style="display:inline"
       inkscape:highlight-color="#ffccdd"><path
         style="display:inline;fill:#552200;fill-opacity:1;stroke:#000000;stroke-width:1.5;stroke-linecap:round;stroke-linejoin:round;stroke-opacity:1;paint-order:fill markers stroke"
         d="m -97.724089,-136.87293 c -2.103887,5.3764 -4.919771,-0.009 -5.101731,-1.80401 -0.44097,-4.34891 6.864624,-6.88247 11.234247,-6.76456 4.314542,0.11643 11.339506,2.99691 10.716283,7.26779 -0.250855,1.71908 -3.257195,6.34154 -4.969537,1.57077 8.072214,1.02649 10.922602,7.314 11.879236,14.03911 2.38842,13.62434 -10.575263,13.87827 -6.209612,29.158166 0,0 -9.063268,1.720525 -13.650517,1.748105 -3.890076,0.02339 -11.59289,-1.343129 -11.59289,-1.343129 -10.16642,-16.462592 -13.30778,-38.365162 7.694521,-43.872242 z"
         id="path213"
         sodipodi:nodetypes="caaacacacc"
         transform="translate(4.4878302e-6)" /><g
         id="g5"
         transform="translate(50.598352,-0.2277988)"
         inkscape:label="body"
         style="display:inline"><path
           style="display:inline;fill:#ffffff;fill-opacity:1;stroke:#000000;stroke-width:1.5;stroke-linecap:round;stroke-linejoin:round;stroke-miterlimit:1001;stroke-dasharray:none;stroke-opacity:1;paint-order:fill markers stroke"
           d="m -148.03164,-104.78796 c -0.84463,5.035859 -2.40269,9.979408 -2.99649,15.058582 -0.18904,1.812847 -0.97436,6.021578 -0.61675,6.445311 0.35761,0.423733 3.86977,0.141849 4.46264,-0.333234 0.59287,-0.475088 0.3792,-3.613203 0.76117,-4.09596 0.382,-0.482757 4.66548,-0.669116 4.96058,-0.346904 0.2951,0.322212 0.25116,3.515794 0.44144,4.003107 0.50176,0.401375 4.08807,-0.338983 4.08807,-0.338983 0,0 -1.5286,-9.764104 -2.00605,-14.679673 -0.17444,-1.795926 -0.31293,-5.404086 -0.31293,-5.404086"
           id="path5"
           sodipodi:nodetypes="czzzzzccac"
           inkscape:label="body" /><ellipse
           style="display:inline;fill:#ffffff;fill-opacity:1;stroke:#000000;stroke-width:1.5;stroke-linecap:round;stroke-linejoin:round;stroke-miterlimit:1001;stroke-dasharray:none;stroke-opacity:1;paint-order:fill markers stroke"
           id="ellipse5"
           ry="15.393556"
           rx="16.682619"
           cy="-119.60479"
           cx="-142.77336"
           inkscape:label="head" /><path
           style="display:inline;fill:#ffccdd;fill-opacity:1;stroke:#000000;stroke-width:1.5;stroke-linecap:round;stroke-linejoin:round;stroke-opacity:1;paint-order:fill markers stroke"
           d="m -97.939725,-102.97898 c 0,0 3.16514,0.6547 4.77266,0.7159 1.5302,0.0583 4.581763,-0.33408 4.581763,-0.33408 l 0.477286,5.288476 c 0,0 -3.477432,0.883498 -5.249952,0.850893 -1.884473,-0.03466 -5.544496,-1.109294 -5.544496,-1.109294 z"
           id="path214"
           sodipodi:nodetypes="csccacc"
           transform="translate(-50.598348,0.22779974)" /><path
           style="fill:#ff0055;fill-opacity:1;stroke:#000000;stroke-width:1.5;stroke-linecap:round;stroke-linejoin:round;stroke-opacity:1;paint-order:fill markers stroke"
           d="m -149.9525,-94.975118 c 0,0 4.06945,1.026049 6.09742,1.016237 1.93447,-0.0094 5.34781,-0.859078 5.34781,-0.859078 l 0.40737,2.575837 2.44803,3.570319 c 0,0 -4.946,1.174212 -8.25671,1.240896 -4.20536,0.0847 -9.54535,-1.097714 -9.54535,-1.097714 l 2.67269,-3.818137 z"
           id="path229"
           sodipodi:nodetypes="cscccsccc" /><path
           style="fill:#ffccdd;fill-opacity:1;stroke:#000000;stroke-width:1.5;stroke-linecap:round;stroke-linejoin:round;stroke-opacity:1;paint-order:fill markers stroke"
           d="m -151.66348,-85.584593 -0.64121,3.442284 5.53468,-0.451005 0.0617,-2.919687 z"
           id="path230"
           sodipodi:nodetypes="ccccc" /><path
           style="fill:#ffccdd;fill-opacity:1;stroke:#000000;stroke-width:1.5;stroke-linecap:round;stroke-linejoin:round;stroke-opacity:1;paint-order:fill markers stroke"
           d="m -141.19174,-85.66437 -0.002,2.836517 4.75408,0.265073 -0.77929,-3.2584 z"
           id="path237"
           sodipodi:nodetypes="ccccc" /></g><g
         id="g7"
         inkscape:label="eyes"
         transform="translate(-34.322565,-0.0667206)"
         style="display:inline"><ellipse
           style="fill:#000000;fill-opacity:1;stroke:none;stroke-width:0.593632;stroke-linecap:round;stroke-linejoin:round;stroke-miterlimit:1001;stroke-dasharray:none;stroke-opacity:1;paint-order:stroke fill markers"
           id="ellipse6"
           cx="-86.904243"
           cy="-98.34063"
           rx="2.1079104"
           ry="2.7033648"
           transform="matrix(0.96864121,0.2484637,-0.20869257,0.97798129,0,0)"
           inkscape:label="right" /><ellipse
           style="fill:#000000;fill-opacity:1;stroke:none;stroke-width:0.509367;stroke-linecap:round;stroke-linejoin:round;stroke-miterlimit:1001;stroke-dasharray:none;stroke-opacity:1;paint-order:stroke fill markers"
           id="ellipse7"
           cx="-36.557335"
           cy="-122.18265"
           rx="1.7384969"
           ry="2.4132938"
           transform="matrix(0.99463321,-0.10346393,0.09707266,0.9952773,0,0)"
           inkscape:label="left" /></g><path
         style="display:inline;fill:#552200;fill-opacity:1;stroke:#000000;stroke-width:5.66929;stroke-linecap:round;stroke-linejoin:round;stroke-opacity:1;paint-order:fill markers stroke"
         d="m 2568.3674,120.15306 c -4.511,8.19531 -16.8464,12.08032 -26.3438,15.99794 -15.5348,6.40804 -35.043,-0.49396 -49.0078,11.82238 -14.9395,13.17597 -19.9699,28.16179 -13.1457,53.50316 -58.5818,-38.1738 -22.1137,-98.95833 16.8468,-110.923016 20.7978,-6.386932 44.9876,-7.711213 66.6136,-0.338601 50.7923,17.315857 61.1269,68.393007 30.7721,105.739107 6.1948,-22.34913 3.9798,-29.17782 -1.2115,-42.29003 -2.8573,-7.21715 -10.9406,-11.10551 -15.4476,-17.42518 -3.5748,-5.01245 -5.2606,-8.79327 -9.0765,-16.08576 z"
         id="path173"
         sodipodi:nodetypes="cascsscaacc"
         transform="matrix(0.26458333,0,0,0.26458333,-762.15223,-159.82148)" /></g></g></svg>
