<?xml version="1.0" encoding="UTF-8" standalone="no"?>
<!-- Created with Inkscape (http://www.inkscape.org/) -->

<svg
   width="32.39291mm"
   height="48.96434mm"
   viewBox="0 0 122.4299 185.06208"
   version="1.1"
   id="svg1"
   xml:space="preserve"
   inkscape:version="1.3 (0e150ed6c4, 2023-07-21)"
   sodipodi:docname="stuff1.svg"
   xmlns:inkscape="http://www.inkscape.org/namespaces/inkscape"
   xmlns:sodipodi="http://sodipodi.sourceforge.net/DTD/sodipodi-0.dtd"
   xmlns="http://www.w3.org/2000/svg"
   xmlns:svg="http://www.w3.org/2000/svg"><sodipodi:namedview
     id="namedview1"
     pagecolor="#505050"
     bordercolor="#eeeeee"
     borderopacity="1"
     inkscape:showpageshadow="0"
     inkscape:pageopacity="0"
     inkscape:pagecheckerboard="0"
     inkscape:deskcolor="#d1d1d1"
     inkscape:document-units="mm"
     inkscape:zoom="0.42534834"
     inkscape:cx="389.09286"
     inkscape:cy="591.28008"
     inkscape:window-width="1366"
     inkscape:window-height="745"
     inkscape:window-x="-8"
     inkscape:window-y="-8"
     inkscape:window-maximized="1"
     inkscape:current-layer="g73"
     showgrid="false" /><defs
     id="defs1" /><g
     inkscape:label="Layer 1"
     inkscape:groupmode="layer"
     id="layer1"
     style="display:inline"
     transform="translate(-318.35538,-314.72051)"><g
       id="g57"
       inkscape:label="fire 2"><path
         style="display:inline;fill:#fd5505;fill-opacity:1;stroke:#000000;stroke-width:7.55906;stroke-linecap:round;stroke-linejoin:round;stroke-dasharray:none;stroke-opacity:1;paint-order:fill markers stroke"
         d="m 376.25001,496.00001 c -7.09668,0.0717 -14.031,-1.11681 -20.5,-3.62868 -6.92301,-2.68815 -13.59616,-6.6513 -18.81066,-11.93934 -5.99142,-6.07592 -11.03914,-13.60739 -13.41421,-21.8033 -2.03004,-7.00526 -1.58864,-13.93419 -0.27513,-21.87868 1.11276,-6.73027 8.75,-18.5 8.75,-18.5 0,0 6.27684,-11.08918 7.25,-17.25 0.76987,-4.87386 0.19313,-10.03146 -1.25,-14.75 -1.2002,-3.92426 -6,-10.75 -6,-10.75 0,0 9.40122,3.30553 12.9519,6.60355 2.6127,2.42678 4.42367,5.99414 5.5481,9.14645 1.04531,2.93051 0.84426,6.77693 3.25,8.75 1.63134,1.33795 4.82039,1.96098 6.95711,1 2.51934,-1.13306 4.32494,-4.16709 4.56066,-6.91942 0.30858,-3.60308 -2.6505,-6.74583 -4.34315,-9.9415 -2.64937,-5.00194 -7.90081,-8.82442 -9.0533,-14.36611 -1.51219,-7.2713 1.00911,-16.47241 3.37868,-22.02297 2.5329,-5.93317 4.946,-12.19442 9.25,-17 3.79406,-4.2362 8.73315,-7.6051 14,-9.75 4.6946,-1.91185 15,-2.5 15,-2.5 0,0 -4.50945,6.72782 -6.5,10.25 -1.83362,3.24449 -4.52796,6.30324 -5,10 -0.5072,3.97209 0.99464,8.03939 2.5,11.75 1.29509,3.1923 3.21596,6.17101 5.5,8.75 4.55604,5.14438 10.69368,8.63363 16,13 4.02063,3.30843 8.35521,6.28158 12,10 3.36165,3.42955 6.41165,6.52619 9,11.25 2.66602,4.86555 5.06645,9.98344 6.375,15.375 2.72175,11.2143 4.79656,23.12125 2.875,34.5 -2.02393,11.98493 -6.92409,24.06469 -14.79289,33.32843 -5.6615,6.66514 -13.86737,11.02357 -21.94178,14.38223 -7.31835,3.04416 -15.16378,4.83249 -23.26533,4.91434 z"
         id="path43"
         sodipodi:nodetypes="saaascsscassaaaassscssaaaasaaaas" /><path
         style="display:inline;fill:#ffb230;fill-opacity:1;stroke:#000000;stroke-width:7.55906;stroke-linecap:round;stroke-linejoin:round;stroke-dasharray:none;stroke-opacity:0;paint-order:fill markers stroke"
         d="m 376.68082,492.12121 c -7.21164,-1.78124 -17.49359,-10.51744 -22.98097,-18.73834 -5.94099,-8.90047 -11.18061,-21.96769 -9.19239,-30.75914 1.16838,-5.16628 5.74707,-12.08295 8.48528,-16.61701 1.82875,-3.02813 4.75336,-5.6979 5.3033,-9.19239 0.52463,-3.33371 -2.12132,-9.89949 -2.12132,-9.89949 0,0 4.91324,5.00919 8.13173,6.01041 3.37783,1.05079 7.86751,1.88503 10.6066,-0.35356 1.96986,-1.60992 1.37053,-4.91177 1.76777,-7.42462 0.46152,-2.91944 0.937,-5.89209 0.70711,-8.83883 -0.23566,-3.02077 -1.73462,-5.83367 -2.12132,-8.83884 -0.73716,-5.72868 -1.76895,-11.72432 -0.35356,-17.32412 0.99582,-3.93983 6.01041,-10.6066 6.01041,-10.6066 0,0 -0.29855,9.38376 1.06066,13.78859 1.60335,5.19603 4.35092,10.23382 8.13173,14.14213 4.82057,4.98313 12.65029,6.18576 17.67767,10.96016 5.09663,4.84016 9.60765,10.72264 12.02081,17.32411 3.00754,8.22744 3.52539,17.46625 2.47488,26.16295 -0.68832,5.69831 -3.08884,11.13026 -5.65686,16.26346 -2.92486,5.84648 -6.65987,11.33967 -10.96015,16.26346 -4.77698,5.46961 -9.84402,11.10056 -16.26346,14.49568 -3.86584,2.04457 -8.4823,4.23064 -12.72792,3.18199 z"
         id="path44"
         sodipodi:nodetypes="sassscsssssscsssssssss" /><path
         style="fill:#feec96;fill-opacity:1;stroke:#feec96;stroke-width:7.55906;stroke-linecap:round;stroke-linejoin:round;stroke-dasharray:none;stroke-opacity:0;paint-order:fill markers stroke"
         d="m 392.25001,478.00001 c 3.90428,-7.51616 5.80384,-16.28045 5.75,-24.75 -0.0644,-10.12574 -3.99219,-21.11493 -7.25,-29.5 -1.1907,-2.78992 -5.5,-7.25 -5.5,-7.25 0,0 -0.91141,7.05224 -1.75,10.5 -0.64152,2.63752 -1.16203,5.38825 -2.5,7.75 -2.18323,3.85377 -6.35233,6.27586 -8.75,10 -2.62458,4.07658 -4.97697,8.51077 -6,13.25 -0.77368,3.58411 -0.60812,7.38411 0,11 0.76053,4.5221 2.38802,8.9297 4.5,13 1.18235,2.27867 2.80753,4.31976 4.5,6.25 1.28258,1.46277 2.31708,3.77964 4.25,4 4.2896,0.48904 9.81189,-8.59381 12.75,-14.25 z"
         id="path45"
         sodipodi:nodetypes="aascasasasssa" /></g></g></svg>
