<?xml version="1.0" encoding="UTF-8" standalone="no"?>
<!-- Created with Inkscape (http://www.inkscape.org/) -->

<svg
   width="19.849051mm"
   height="5.7536235mm"
   viewBox="0 0 75.020035 21.745979"
   version="1.1"
   id="svg1"
   xml:space="preserve"
   inkscape:version="1.2.2 (732a01da63, 2022-12-09)"
   sodipodi:docname="firepan.svg"
   xmlns:inkscape="http://www.inkscape.org/namespaces/inkscape"
   xmlns:sodipodi="http://sodipodi.sourceforge.net/DTD/sodipodi-0.dtd"
   xmlns="http://www.w3.org/2000/svg"
   xmlns:svg="http://www.w3.org/2000/svg"><sodipodi:namedview
     id="namedview1"
     pagecolor="#505050"
     bordercolor="#eeeeee"
     borderopacity="1"
     inkscape:showpageshadow="0"
     inkscape:pageopacity="0"
     inkscape:pagecheckerboard="0"
     inkscape:deskcolor="#d1d1d1"
     inkscape:document-units="mm"
     inkscape:zoom="2.4061336"
     inkscape:cx="113.66784"
     inkscape:cy="121.14872"
     inkscape:window-width="1827"
     inkscape:window-height="1057"
     inkscape:window-x="-9"
     inkscape:window-y="-9"
     inkscape:window-maximized="1"
     inkscape:current-layer="layer1"
     showgrid="false" /><defs
     id="defs1" /><g
     inkscape:label="Layer 1"
     inkscape:groupmode="layer"
     id="layer1"
     style="display:inline"
     transform="translate(-60.827373,-564.4403)"><g
       id="g68"
       inkscape:label="fire 3"
       transform="matrix(0.45000005,0,0,0.45000005,33.455052,310.44214)"><path
         style="fill:#fd5505;fill-opacity:1;stroke:#000000;stroke-width:7.55906;stroke-linecap:round;stroke-linejoin:round;stroke-dasharray:none;stroke-opacity:1;paint-order:fill markers stroke"
         d="m 74.731718,590.7188 c -2.209147,-2.96131 -4.421436,-5.95922 -5.948716,-9.17189 -2.020944,-4.25111 -4.17638,-13.20659 -4.17638,-13.20659 l 17.646145,16.30041 c 0,0 -2.546158,-8.35649 4.054427,-15.19594 3.7434,4.36564 1.784205,18.57353 10.345105,18.35825 5.228191,-0.13147 2.835271,-7.93867 5.380001,-11.50565 1.76635,-2.47589 6.73148,-6.68376 6.73148,-6.68376 0,0 3.36584,8.91145 3.18879,13.47796 -0.13838,3.56886 -3.6011,6.83357 -3.30363,10.39651 0.17027,2.03945 1.10484,4.19565 2.86453,5.70917 1.71503,1.47509 4.28451,2.52071 6.82538,2.70753 2.33008,0.1713 4.93835,-0.36396 6.74311,-1.52694 2.19066,-1.41165 3.41332,-3.73497 3.8811,-5.92192 0.40611,-1.89863 -0.76619,-3.80421 -1.04695,-5.71661 -0.34765,-2.36773 -1.45457,-4.79725 -0.78873,-7.12313 0.81561,-2.84906 5.63241,-7.57469 5.63241,-7.57469 0,0 2.98895,4.96674 4.10372,7.56234 1.69433,3.945 -1.00249,10.46868 3.89853,12.1057 3.30584,1.10421 9.38412,-4.15274 9.38412,-4.15274 0,0 0.57431,9.86355 5.29699,10.36638 5.83061,0.62079 10.69282,-10.96354 10.69282,-10.96354 2.97649,12.95725 9.31297,9.55306 12.1273,4.02756 2.81435,-5.5255 4.1228,-15.02903 4.1228,-15.02903 0,0 2.21151,7.04612 4.74229,9.53543 1.46701,1.44298 3.79213,3.68987 5.57204,2.65728 6.34094,-3.67859 1.63548,-21.93127 1.63548,-21.93127 0,0 8.86821,3.08688 11.39499,6.69579 1.70777,2.43915 -0.38396,9.67802 1.61781,8.78498 4.00353,-1.78606 16.41076,-14.31149 16.41076,-14.31149 0,0 -3.15954,10.3846 -5.68666,15.15004 -2.54849,4.80574 -5.08028,10.05215 -9.43008,13.31852 -4.39297,3.2988 -10.28839,3.89373 -15.57295,5.39497 -4.10995,1.16755 -8.27253,2.07057 -12.50854,2.79824 -6.58819,1.13174 -13.28084,1.93717 -19.99769,2.42514 -6.71988,0.48819 -13.48803,0.53985 -20.23673,0.49747 -5.58318,-0.0351 -11.17457,-0.19543 -16.73114,-0.62184 -5.71889,-0.43886 -11.44431,-1.00261 -17.04984,-1.98985 -4.98258,-0.87753 -9.915316,-2.00523 -14.659669,-3.48225 -3.53011,-1.09901 -7.351436,-2.0143 -10.198033,-3.97971 -3.140782,-2.16854 -4.84642,-5.35248 -6.95639,-8.18083 z"
         id="path67"
         sodipodi:nodetypes="aacccaacaaaaaaaacaacacscaacascaaaaaaaaaaa" /><path
         style="fill:#ffb230;fill-opacity:1;stroke:#000000;stroke-width:0;stroke-linecap:round;stroke-linejoin:round;stroke-dasharray:none;stroke-opacity:1;paint-order:fill markers stroke"
         d="m 88.093259,598.48007 c 0,0 -2.661017,-4.05893 -2.910499,-6.38444 -0.245157,-2.28518 1.464163,-6.73764 1.464163,-6.73764 0,0 1.010758,5.75478 2.912028,7.75883 1.305823,1.37641 3.320999,2.36399 5.216312,2.27755 3.37413,-0.15389 8.878697,-4.8831 8.878697,-4.8831 0,0 -1.01371,4.42486 -0.88163,6.66049 0.11651,1.9722 1.46416,5.74321 1.46416,5.74321 l -8.255287,-1.99704 z"
         id="path68"
         sodipodi:nodetypes="cacaacaccc" /><path
         style="fill:#ffb230;fill-opacity:1;stroke:#000000;stroke-width:0;stroke-linecap:round;stroke-linejoin:round;stroke-dasharray:none;stroke-opacity:1;paint-order:fill markers stroke"
         d="m 136.16481,605.95985 c 0,0 -1.94181,-3.68527 -2.30072,-5.70368 -0.32544,-1.83021 0.1754,-5.574 0.1754,-5.574 0,0 1.26417,4.32286 3.01014,5.43856 1.79665,1.14808 4.32293,1.02102 6.37987,0.45978 1.63104,-0.44504 4.17264,-2.88345 4.17264,-2.88345 0,0 0.10948,3.02377 -0.31561,4.44813 -0.4011,1.34398 -2.05123,3.67382 -2.05123,3.67382 z"
         id="path68-1"
         sodipodi:nodetypes="cacaacacc" /><path
         style="fill:#ffb230;fill-opacity:1;stroke:#000000;stroke-width:0;stroke-linecap:round;stroke-linejoin:round;stroke-dasharray:none;stroke-opacity:1;paint-order:fill markers stroke"
         d="m 200.39124,598.27805 c 0,0 1.8751,-3.19955 2.13901,-4.98987 0.63802,-4.32832 -1.47048,-13.04265 -1.47048,-13.04265 0,0 -0.3998,8.61364 -2.8758,11.82822 -1.54401,2.00456 -4.14575,3.50982 -6.67375,3.61679 -2.39777,0.10146 -6.59712,-2.88345 -6.59712,-2.88345 0,0 0.42629,3.39876 1.19724,4.88895 0.68541,1.32487 2.93286,3.37994 2.93286,3.37994 z"
         id="path68-1-6"
         sodipodi:nodetypes="cacaacacc" /></g></g></svg>
