<?xml version="1.0" encoding="UTF-8" standalone="no"?>
<!-- Created with Inkscape (http://www.inkscape.org/) -->

<svg
   width="61.439369mm"
   height="24.32358mm"
   viewBox="0 0 232.21179 91.931643"
   version="1.1"
   id="svg1"
   xml:space="preserve"
   sodipodi:docname="stuff2.svg"
   inkscape:version="1.2.2 (732a01da63, 2022-12-09)"
   xmlns:inkscape="http://www.inkscape.org/namespaces/inkscape"
   xmlns:sodipodi="http://sodipodi.sourceforge.net/DTD/sodipodi-0.dtd"
   xmlns="http://www.w3.org/2000/svg"
   xmlns:svg="http://www.w3.org/2000/svg"><sodipodi:namedview
     id="namedview1"
     pagecolor="#505050"
     bordercolor="#eeeeee"
     borderopacity="1"
     inkscape:showpageshadow="0"
     inkscape:pageopacity="0"
     inkscape:pagecheckerboard="0"
     inkscape:deskcolor="#505050"
     inkscape:document-units="mm"
     inkscape:zoom="1.9849217"
     inkscape:cx="545.36156"
     inkscape:cy="343.84228"
     inkscape:window-width="1827"
     inkscape:window-height="1057"
     inkscape:window-x="-9"
     inkscape:window-y="-9"
     inkscape:window-maximized="1"
     inkscape:current-layer="g1227"
     showgrid="false" /><defs
     id="defs1" /><g
     inkscape:label="Layer 1"
     inkscape:groupmode="layer"
     id="layer1"
     transform="translate(-816.60309,-358.65212)"><g
       id="g1897"
       inkscape:label="oil puddle"
       transform="matrix(-1,0,0,1,1273.8305,-486.44917)"
       inkscape:export-filename="waterpatch.svg"
       inkscape:export-xdpi="96"
       inkscape:export-ydpi="96"
       style="opacity:0.75"><path
         style="display:inline;fill:#f6ff80;fill-opacity:0.74902;stroke:#f6ff80;stroke-width:5.66929;stroke-linecap:round;stroke-linejoin:round;stroke-dasharray:none;stroke-opacity:0.74902;paint-order:fill markers stroke"
         d="m 320.66756,871.06715 c 1.77672,-4.09329 17.55547,-7.45371 9.71628,-15.95331 -15.23008,-16.51313 -51.4973,-0.20752 -76.1859,6.07723 -9.24214,2.35269 -24.08752,2.32426 -26.13651,11.63844 -1.46484,6.65879 5.45791,15.82664 13.46843,15.3938 21.27558,4.38725 43.09685,5.88053 64.12405,11.51041 9.24641,5.1054 -2.59003,13.58137 -8.94052,9.77969 -12.63725,2.28426 -3.63054,15.94424 5.07753,16.5469 22.80035,10.45713 48.54299,7.98329 72.89918,7.55541 24.98455,-1.67867 96.3458,-11.0662 72.40859,-18.86914 -80.24417,-26.15761 -1.96306,-25.5207 3.90348,-27.50804 17.18232,-5.82066 -35.55301,-16.40748 -52.36802,-10.67854 -15.68192,4.42816 -71.25757,8.49744 -77.96659,-5.49285 z"
         id="path1893"
         sodipodi:nodetypes="ssaaaaaaassss" /><path
         style="fill:#ffffff;fill-opacity:1;stroke:#f5f8fd;stroke-width:5.66929;stroke-linecap:round;stroke-linejoin:round;stroke-dasharray:none;stroke-opacity:1;paint-order:fill markers stroke"
         d="m 370.11981,925.61229 -11.75589,0.8906 -25.20392,-0.97966 -15.58547,-1.95932"
         id="path1895" /></g></g></svg>
