<?xml version="1.0" encoding="UTF-8" standalone="no"?>
<!-- Created with Inkscape (http://www.inkscape.org/) -->

<svg
   width="77.047829mm"
   height="24.299776mm"
   viewBox="0 0 291.2044 91.841676"
   version="1.1"
   id="svg1"
   xml:space="preserve"
   sodipodi:docname="stuff2.svg"
   inkscape:version="1.2.2 (732a01da63, 2022-12-09)"
   xmlns:inkscape="http://www.inkscape.org/namespaces/inkscape"
   xmlns:sodipodi="http://sodipodi.sourceforge.net/DTD/sodipodi-0.dtd"
   xmlns="http://www.w3.org/2000/svg"
   xmlns:svg="http://www.w3.org/2000/svg"><sodipodi:namedview
     id="namedview1"
     pagecolor="#505050"
     bordercolor="#eeeeee"
     borderopacity="1"
     inkscape:showpageshadow="0"
     inkscape:pageopacity="0"
     inkscape:pagecheckerboard="0"
     inkscape:deskcolor="#505050"
     inkscape:document-units="mm"
     inkscape:zoom="0.99246085"
     inkscape:cx="624.20598"
     inkscape:cy="394.474"
     inkscape:window-width="1827"
     inkscape:window-height="1057"
     inkscape:window-x="-9"
     inkscape:window-y="-9"
     inkscape:window-maximized="1"
     inkscape:current-layer="layer1"
     showgrid="false" /><defs
     id="defs1" /><g
     inkscape:label="Layer 1"
     inkscape:groupmode="layer"
     id="layer1"
     transform="translate(-454.26199,-325.62593)"><g
       id="g20"
       inkscape:label="oil on water"
       transform="translate(-135.48443,-265.70377)"
       style="display:inline;opacity:0.75"
       inkscape:export-filename="oilwater.svg"
       inkscape:export-xdpi="96"
       inkscape:export-ydpi="96"><path
         style="display:inline;fill:#a3c8e2;fill-opacity:1;stroke:#73a6e3;stroke-width:5.66929;stroke-linecap:round;stroke-linejoin:round;stroke-dasharray:none;stroke-opacity:1;paint-order:fill markers stroke"
         d="m 638.81616,603.29837 c -1.34276,0.82492 -2.82788,1.73619 -3.5266,3.14874 -0.4854,0.9813 -0.48746,2.20554 -0.2519,3.27469 0.25883,1.17477 0.84878,2.36724 1.7633,3.14874 3.11699,2.66362 7.76381,3.51977 7.87209,7.03792 0.10012,3.25285 -1.41659,3.92266 -6.86449,6.94248 -2.08784,1.15731 -4.31314,2.06157 -6.54938,2.89684 -2.67468,0.99903 -5.42087,1.81047 -8.18673,2.51899 -2.82356,0.7233 -5.71722,1.14016 -8.56457,1.7633 -2.90495,0.63574 -5.85333,1.12453 -8.69051,2.01519 -2.58849,0.81259 -5.19472,1.68852 -7.55698,3.0228 -1.69617,0.95805 -3.49134,1.96813 -4.66013,3.52658 -0.56606,0.75478 -0.9515,1.70316 -1.0076,2.64495 -0.0618,1.03677 0.1671,2.16707 0.7557,3.02278 1.16172,1.68891 3.22002,2.57947 5.03798,3.52659 2.93293,1.528 6.11391,2.59063 9.32027,3.40064 3.66113,0.9249 7.45885,1.19928 11.20951,1.63734 4.77202,0.55735 9.55767,1.0664 14.35825,1.2595 5.915,0.23792 11.85757,0.34104 17.7589,-0.12595 5.29163,-0.41874 10.48607,-1.66222 15.74369,-2.39304 4.98758,-0.69328 9.97082,-1.45967 14.988,-1.88924 10.16634,-1.35338 19.83847,-3.31362 25.81504,6.43293 4.75334,13.38159 18.85849,17.43961 31.61623,19.59315 5.98651,0.93238 12.10953,0.55169 18.16819,0.53436 10.61834,-0.0304 21.25007,-0.28285 31.83551,-1.11863 18.73246,-1.47903 47.25944,-5.53324 60.20388,-10.07597 20.392,-7.15638 35.08059,-19.42071 25.94561,-32.74689 -9.13498,-13.32618 -22.06736,-18.65979 -35.01397,-24.68612 -11.51437,-5.35966 -24.37869,-7.2824 -36.84866,-9.6921 -14.21401,-2.74673 -30.34725,-4.22443 -43.09434,-5.3965 -14.80092,-1.36092 -29.66695,-2.20457 -44.52989,-2.31555 -16.0413,-0.11978 -32.16211,-0.10759 -48.09228,1.78119 -7.15754,0.84864 -14.2813,2.24157 -21.19623,4.27487 -2.66408,0.78336 -5.39186,1.58185 -7.75789,3.03542 z"
         id="path16"
         sodipodi:nodetypes="aaasasaaaaaaaaaaaaaaaaaaaasaasaaaa" /><path
         style="display:inline;fill:#f5ff80;fill-opacity:1;stroke:#72a6e3;stroke-width:5.66929;stroke-linecap:round;stroke-linejoin:round;stroke-dasharray:none;stroke-opacity:0;paint-order:fill markers stroke"
         d="m 869.05193,634.65982 c 7.36909,9.20636 0.58233,15.25211 -3.02279,18.2627 -4.81647,4.02217 -11.23891,5.6452 -17.12913,7.80887 -5.48897,2.01628 -11.15585,3.57781 -16.87724,4.78608 -5.89053,1.24399 -11.88858,1.97975 -17.88484,2.51899 -6.36074,0.57202 -12.83285,1.73117 -19.14433,0.7557 -5.38099,-0.83166 -12.20044,-1.11155 -15.36585,-5.54178 -3.02688,-4.23634 -2.9043,-11.13742 -0.2519,-15.61775 3.48243,-5.88239 15.63771,-3.20942 18.13674,-9.57217 1.30087,-3.31212 -1.06614,-7.50524 -3.52659,-10.07597 -5.62772,-5.87996 -18.26575,-2.22442 -22.67092,-9.06836 -1.95628,-3.0393 -2.01128,-8.23577 0.5038,-10.83167 6.73965,-6.95622 19.33514,-3.27318 28.9684,-2.26708 14.61011,1.52588 28.89053,6.3909 42.27583,12.44215 9.33411,4.21977 19.58755,8.40305 25.98882,16.40029 z"
         id="path18"
         sodipodi:nodetypes="aaaaaaaaaaaaaaa" /><path
         style="display:inline;fill:#f5ff80;fill-opacity:1;stroke:#72a6e3;stroke-width:5.66929;stroke-linecap:round;stroke-linejoin:round;stroke-dasharray:none;stroke-opacity:0;paint-order:fill markers stroke"
         d="m 649.67631,612.43096 c -0.5398,3.19381 3.43487,6.0613 2.93897,9.26222 -0.56745,3.66273 -3.43705,6.87378 -6.4123,9.08409 -5.7272,4.25474 -17.61589,0.16031 -20.30564,6.76855 -1.22134,3.00061 1.60496,7.09477 4.453,8.6388 6.45318,3.49852 14.59449,-1.60566 21.90871,-2.22649 10.43641,-0.88585 20.88249,-2.53089 31.34904,-2.13743 8.17435,0.30729 16.53412,0.89996 24.28909,3.5028 6.61575,2.22049 11.34962,10.08145 18.32797,10.118 7.43839,0.039 15.0114,-4.76325 19.64813,-10.57977 3.1491,-3.95037 6.27066,-10.08208 4.03038,-14.61015 -3.09071,-6.24695 -14.44856,-2.89996 -19.39623,-7.80888 -4.38338,-4.34905 -2.09141,-13.45364 -7.05317,-17.12914 -11.48251,-8.50585 -61.13599,-3.88531 -69.02036,0.7557 -2.28198,1.34325 -4.3163,3.75075 -4.75759,6.3617 z"
         id="path19"
         sodipodi:nodetypes="aaaaaaaaaaaaaaa" /><path
         style="fill:#ffffff;fill-opacity:1;stroke:#194980;stroke-width:5.66929;stroke-linecap:round;stroke-linejoin:round;stroke-dasharray:none;stroke-opacity:0;paint-order:fill markers stroke"
         d="m 822.51097,663.31225 c 6.09922,4.91108 21.27651,-1.67114 31.15092,-5.3439 4.69938,-1.74793 9.47782,-4.08346 12.88373,-7.76303 2.25323,-2.43428 4.97411,-5.61675 4.46303,-8.89418 -0.50614,-3.24574 -3.76755,-8.05894 -6.89187,-7.04423 -2.76699,0.89865 0.13761,6.09015 -1.27324,8.63442 -2.42807,4.37866 -7.06351,7.30383 -11.44377,9.72901 -5.3303,2.95119 -11.73372,3.34422 -17.42521,5.51874 -3.91489,1.49574 -17.5628,0.25209 -11.46359,5.16317 z"
         id="path20"
         sodipodi:nodetypes="saaaaaaas" /></g></g></svg>
