<?xml version="1.0" encoding="UTF-8" standalone="no"?>
<!-- Created with Inkscape (http://www.inkscape.org/) -->

<svg
   width="38.236149mm"
   height="13.713238mm"
   viewBox="0 0 144.51458 51.829561"
   version="1.1"
   id="svg1"
   inkscape:version="1.2.2 (732a01da63, 2022-12-09)"
   sodipodi:docname="pan.svg"
   xml:space="preserve"
   xmlns:inkscape="http://www.inkscape.org/namespaces/inkscape"
   xmlns:sodipodi="http://sodipodi.sourceforge.net/DTD/sodipodi-0.dtd"
   xmlns="http://www.w3.org/2000/svg"
   xmlns:svg="http://www.w3.org/2000/svg"><sodipodi:namedview
     id="namedview1"
     pagecolor="#505050"
     bordercolor="#eeeeee"
     borderopacity="1"
     inkscape:showpageshadow="0"
     inkscape:pageopacity="0"
     inkscape:pagecheckerboard="0"
     inkscape:deskcolor="#d1d1d1"
     inkscape:document-units="mm"
     inkscape:zoom="5.715"
     inkscape:cx="66.579178"
     inkscape:cy="27.034121"
     inkscape:window-width="1827"
     inkscape:window-height="1057"
     inkscape:window-x="-9"
     inkscape:window-y="-9"
     inkscape:window-maximized="1"
     inkscape:current-layer="layer1"
     showgrid="false" /><defs
     id="defs1" /><g
     inkscape:label="Layer 1"
     inkscape:groupmode="layer"
     id="layer1"
     transform="translate(-211.43303,-407.07738)"><g
       id="g2981"
       inkscape:label="pan"
       inkscape:export-filename="pan.svg"
       inkscape:export-xdpi="96"
       inkscape:export-ydpi="96"><g
         id="g42"
         inkscape:label="pan"
         style="display:inline;stroke-width:6.18866;stroke-dasharray:none"
         transform="matrix(0.61047221,0.017331,-0.017331,0.61047221,-196.52528,273.83422)"><path
           style="display:inline;fill:#ff8080;fill-opacity:1;stroke:#000000;stroke-width:6.18866;stroke-linecap:round;stroke-linejoin:round;stroke-dasharray:none;stroke-opacity:1;paint-order:markers fill stroke"
           d="m 834.03247,220.97088 67.5287,0.70711 7.07106,15.55634 -77.41774,-4.48432 z"
           id="path42" /><path
           style="display:inline;fill:#ff8080;fill-opacity:1;stroke:#000000;stroke-width:6.18866;stroke-linecap:round;stroke-linejoin:round;stroke-dasharray:none;stroke-opacity:1;paint-order:markers fill stroke"
           d="m 677.75002,225.00001 c 1.85628,13.16361 9.1452,36.51078 22.375,41.75 3.28416,1.52485 19.99586,6.19122 27.77341,7.17437 6.76854,0.8556 17.81894,1.74859 26.58452,1.49372 8.76558,-0.25487 20.26011,-1.15931 29.16816,-2.47487 8.90805,-1.31556 18.27098,-2.96836 24.21841,-5.12653 17.8756,-4.26043 22.25924,-26.42808 26.69328,-42.4264 6.11397,-15.46235 -25.85779,-21.8014 -35.17856,-22.98099 -8.49082,-1.07455 -24.88082,-2.30679 -34.11791,-2.47487 -29.67734,-0.54001 -51.73167,3.94223 -56.94156,5.52635 -9.8713,3.00145 -30.06613,10.49748 -30.57475,19.53922 z"
           id="path39"
           sodipodi:nodetypes="zzzzzzzzzzz" /><path
           style="display:inline;fill:#ff8080;fill-opacity:0;stroke:#000000;stroke-width:6.18866;stroke-linecap:round;stroke-linejoin:round;stroke-dasharray:none;stroke-opacity:1;paint-order:markers fill stroke"
           d="m 680.00018,229.01406 c 0,0 5.29041,5.51075 12.64337,8.48353 7.35296,2.97278 19.79239,4.36018 31.86129,5.73886 12.06891,1.37867 25.95206,2.84706 40.45879,1.99612 14.50673,-0.85094 34.7761,-4.16197 46.02187,-7.73498 11.24576,-3.57301 21.74659,-10.47965 21.74659,-10.47965"
           id="path40"
           sodipodi:nodetypes="czzzzc" /><path
           style="fill:#ff8080;fill-opacity:0;stroke:#000000;stroke-width:6.18866;stroke-linecap:round;stroke-linejoin:round;stroke-dasharray:none;stroke-opacity:1;paint-order:markers fill stroke"
           d="m 693.14144,233.25686 c 0,0 9.81797,-5.41996 15.11441,-7.15946 6.44492,-2.11669 13.25893,-2.9396 19.97576,-3.88908 7.58548,-1.07227 15.23863,-1.70707 22.89259,-2.03294 8.47765,-0.36094 16.9991,-0.60761 25.45584,0.0884 6.60385,0.54352 12.84621,0.90463 19.62221,3.18198 6.776,2.27735 15.86742,3.87741 20.32932,10.78338"
           id="path41"
           sodipodi:nodetypes="csssszc" /></g><g
         id="g6"
         transform="matrix(-0.1864006,-0.16099929,0.16099929,-0.1864006,312.43102,585.21651)"
         style="stroke-width:15.3449;stroke-dasharray:none"
         inkscape:label="bacon"><path
           style="fill:#bd2a29;fill-opacity:1;stroke:#c55030;stroke-width:15.3449;stroke-linecap:round;stroke-linejoin:round;stroke-dasharray:none;stroke-opacity:1;paint-order:fill markers stroke"
           d="m 491.20105,425.13018 c -2.63267,-6.61805 1.5411,-14.53215 4.94913,-20.78634 2.62398,-4.81536 6.71527,-8.99947 11.38299,-11.87791 4.77474,-2.94443 10.53741,-4.115 16.08467,-4.94913 4.32313,-0.65006 8.97115,1.39248 13.11519,0 3.23708,-1.08772 6.23361,-3.37084 8.16606,-6.18641 2.86598,-4.17573 2.46204,-9.8453 4.20676,-14.59993 1.8696,-5.09495 3.20607,-10.67888 6.68133,-14.84739 3.72142,-4.46378 8.906,-7.87088 14.35247,-9.89826 4.97693,-1.8526 10.69217,-0.41669 15.83721,-1.73219 3.97731,-1.01693 8.40753,-1.8733 11.383,-4.70168 2.51381,-2.38955 3.08163,-6.21819 4.45422,-9.40334 3.32807,-7.7229 4.3365,-16.61685 9.15588,-23.50836 3.14844,-4.50214 7.58006,-8.20271 12.37283,-10.88809 4.14254,-2.32106 8.99853,-5.33871 13.6101,-4.20675 13.42488,3.29528 32.683,15.76049 29.44733,29.19986 -1.3983,5.80784 -12.41328,1.70783 -17.0745,5.44404 -3.57656,2.8668 -5.17323,7.64372 -6.92878,11.87791 -2.35248,5.6739 -2.43927,12.10644 -4.70167,17.81686 -1.65854,4.18626 -2.91849,9.0641 -6.43388,11.87791 -6.62537,5.30313 -16.50509,4.07759 -24.49818,6.92878 -6.43709,2.29616 -13.97686,3.33064 -18.80669,8.16606 -4.25574,4.26066 -5.67445,10.74784 -7.17624,16.57958 -1.50854,5.85794 1.42515,12.90465 -1.7322,18.06432 -2.40062,3.92304 -7.25843,5.99591 -11.63045,7.4237 -6.20679,2.02699 -13.3175,-0.71223 -19.54906,1.23728 -4.87384,1.52475 -9.70301,4.11911 -13.11519,7.91861 -4.43831,4.94211 -2.0252,16.24431 -8.41352,18.06432 -13.4656,3.8363 -29.96348,-10.00363 -35.13881,-23.01345 z"
           id="path4"
           sodipodi:nodetypes="aaaaaaaaaaaaaaaaaaaaaaaaaaaaa" /><g
           id="path6"><path
             style="color:#000000;fill:#ffcb5b;stroke-width:0;stroke-linecap:round;stroke-linejoin:round;-inkscape-stroke:none;paint-order:fill markers stroke"
             d="m 514.76708,416.77966 c -0.40177,-5.15791 4.63451,-9.40815 8.13431,-13.21825 3.93451,-4.28339 8.76251,-7.9088 14.03168,-10.37124 6.25577,-2.92352 14.71171,-0.60303 20.13242,-4.88059 5.3785,-4.24424 5.86639,-12.40515 9.35445,-18.30219 2.45991,-4.15882 4.20251,-9.1896 8.13431,-11.99811 6.5165,-4.65475 16.39673,-2.05193 23.18279,-6.30409 5.33335,-3.3419 9.1315,-8.85934 12.40482,-14.23504 3.82975,-6.28951 3.25098,-15.02753 8.13431,-20.53915 4.70697,-5.31255 11.62993,-10.68443 18.70892,-10.16787 4.05637,0.29598 10.05813,3.26458 9.76117,7.32088 -0.3942,5.38467 -10.35223,3.97604 -14.23504,7.72759 -3.8459,3.7159 -5.50669,9.1706 -8.13432,13.82833 -2.80171,4.96629 -4.50336,10.65188 -8.13431,15.04846 -3.68089,4.45706 -8.25578,8.38738 -13.42161,10.98133 -5.99443,3.01001 -14.02168,1.04181 -19.52234,4.88058 -3.36111,2.34565 -4.79437,6.65997 -6.91416,10.16789 -3.57596,5.91761 -5.19283,13.11221 -9.76118,18.30219 -3.40504,3.86839 -8.00411,6.6323 -12.60818,8.94775 -5.47715,2.75452 -12.61846,1.9702 -17.48876,5.694 -3.7339,2.85491 -5.10809,7.89213 -7.7276,11.79476 -1.46703,2.18564 -1.84516,6.36953 -4.47387,6.50745 -4.89733,0.25695 -9.17697,-6.29543 -9.55781,-11.18468 z"
             id="path2776" /><path
             style="color:#000000;fill:#7b3a1a;fill-opacity:0;stroke-linecap:round;stroke-linejoin:round;-inkscape-stroke:none;paint-order:fill markers stroke"
             d="m 514.76708,416.77966 c -0.40177,-5.1579 4.63451,-9.40815 8.13431,-13.21825 3.93451,-4.28339 8.76252,-7.9088 14.03168,-10.37124 6.25576,-2.92352 14.71172,-0.60303 20.13242,-4.88059 5.37849,-4.24424 5.86639,-12.40516 9.35445,-18.30219 2.45991,-4.15882 4.20251,-9.1896 8.13431,-11.99811 6.51649,-4.65475 16.39674,-2.05193 23.18279,-6.30409 5.33334,-3.3419 9.1315,-8.85935 12.40482,-14.23504 3.82975,-6.2895 3.25098,-15.02754 8.13431,-20.53915 4.70697,-5.31254 11.62994,-10.68443 18.70892,-10.16787 4.05637,0.29598 10.05813,3.26458 9.76117,7.32088 -0.3942,5.38466 -10.35223,3.97604 -14.23504,7.72759 -3.8459,3.7159 -5.50669,9.1706 -8.13432,13.82833 -2.80171,4.96629 -4.50336,10.65188 -8.13431,15.04846 -3.68089,4.45706 -8.25579,8.38738 -13.42161,10.98133 -5.99442,3.01001 -14.02169,1.04181 -19.52234,4.88058 -3.36111,2.34565 -4.79437,6.65997 -6.91416,10.16789 -3.57596,5.9176 -5.19283,13.11222 -9.76118,18.30219 -3.40504,3.86839 -8.00411,6.6323 -12.60818,8.94775 -5.47714,2.75452 -12.61846,1.9702 -17.48876,5.694 -3.7339,2.85491 -5.10809,7.89213 -7.7276,11.79476 -1.46703,2.18564 -1.84516,6.36953 -4.47387,6.50745 -4.89733,0.25695 -9.17697,-6.29543 -9.55781,-11.18468 z"
             id="path2778" /></g></g></g></g></svg>
