<?xml version="1.0" encoding="UTF-8" standalone="no"?>
<!-- Created with Inkscape (http://www.inkscape.org/) -->

<svg
   width="63.393101mm"
   height="51.160393mm"
   viewBox="0 0 239.59597 193.36212"
   version="1.1"
   id="svg1"
   xml:space="preserve"
   sodipodi:docname="stuff2.svg"
   inkscape:version="1.3 (0e150ed6c4, 2023-07-21)"
   xmlns:inkscape="http://www.inkscape.org/namespaces/inkscape"
   xmlns:sodipodi="http://sodipodi.sourceforge.net/DTD/sodipodi-0.dtd"
   xmlns="http://www.w3.org/2000/svg"
   xmlns:svg="http://www.w3.org/2000/svg"><sodipodi:namedview
     id="namedview1"
     pagecolor="#505050"
     bordercolor="#eeeeee"
     borderopacity="1"
     inkscape:showpageshadow="0"
     inkscape:pageopacity="0"
     inkscape:pagecheckerboard="0"
     inkscape:deskcolor="#505050"
     inkscape:document-units="mm"
     inkscape:zoom="0.24811521"
     inkscape:cx="126.95715"
     inkscape:cy="642.84652"
     inkscape:window-width="1366"
     inkscape:window-height="745"
     inkscape:window-x="-8"
     inkscape:window-y="-8"
     inkscape:window-maximized="1"
     inkscape:current-layer="layer1"
     showgrid="false" /><defs
     id="defs1" /><g
     inkscape:label="Layer 1"
     inkscape:groupmode="layer"
     id="layer1"
     transform="translate(-288.28266,-37.207926)"><g
       id="g11"
       inkscape:label="smoke 2"
       style="stroke:#808080;stroke-width:5.66929;stroke-dasharray:none;stroke-opacity:1"
       transform="rotate(-174.46797,502.50284,178.7513)"><path
         id="path6"
         style="display:inline;fill:#ffffff;fill-opacity:1;stroke:#808080;stroke-width:5.66929;stroke-linecap:round;stroke-linejoin:round;stroke-dasharray:none;stroke-opacity:1"
         d="m 508.68912,317.49147 c 1.49673,-0.0465 2.92609,-0.50101 3.85091,-1.4895 l 0.002,-1.9e-4 c 1.82026,-1.94608 -0.16412,-5.33321 -0.007,-7.99359 0.27178,-4.60058 0.71384,-9.21443 1.63719,-13.72959 0.71867,-3.51426 0.56553,-7.7142 3.02237,-10.32774 2.20117,-2.34166 5.86959,-3.58476 9.06839,-3.27423 6.99056,0.67864 11.59324,8.12153 18.07192,10.83367 8.82036,3.69252 18.31799,5.7579 27.77429,7.17624 7.39775,1.10958 15.02202,2.12669 22.41834,1.00758 5.02897,-0.76091 10.22872,-2.19469 14.35811,-5.16407 3.19313,-2.2961 5.86394,-5.59909 7.31985,-9.25265 1.35709,-3.40559 -0.41747,-7.56478 0.97982,-10.95407 0.77942,-1.89057 2.12822,-3.73378 3.91851,-4.72201 2.98835,-1.64957 6.8242,-0.57939 10.153,-1.3346 4.29382,-0.97412 9.10563,-1.36446 12.55807,-4.09689 2.37141,-1.87683 3.98507,-4.81543 4.72029,-7.74895 0.77344,-3.08601 0.50068,-6.52165 -0.53448,-9.52997 -1.42287,-4.13484 -4.38027,-7.69172 -7.48171,-10.77424 -2.75661,-2.7398 -6.65942,-4.07124 -9.61776,-6.59181 -3.80408,-3.24111 -7.48396,-6.75841 -10.33188,-10.86514 -1.35433,-1.95295 -4.83553,-4.77128 -3.11711,-6.41296 4.17821,-3.99179 9.513,7.44736 15.23078,8.28318 4.9833,0.7285 10.3793,-0.67555 14.78395,-3.11745 3.81937,-2.11745 6.99607,-5.60334 9.08352,-9.43917 3.35256,-6.16036 2.15448,-13.99318 4.80934,-20.48482 1.78726,-4.37023 4.17458,-8.61593 7.35343,-12.10708 2.74744,-3.01731 6.55445,-4.86163 9.82412,-7.30334 1.85011,-1.38164 4.14071,-2.32111 5.54107,-4.15705 2.08042,-2.72743 3.14335,-6.20191 3.77835,-9.57289 0.80171,-4.25608 -0.51512,-8.6863 -0.0456,-12.99166 0.32324,-2.96412 0.53233,-6.10919 1.95879,-8.72753 2.35004,-4.31358 6.11128,-7.99311 10.32988,-10.50962 2.01718,-1.20328 4.94959,-0.47242 6.76851,-1.95849 1.08994,-0.89054 2.01863,-2.33528 1.96093,-3.74162 -0.0865,-2.10659 -1.46819,-4.46367 -3.38437,-5.34316 -4.09036,-1.8774 -9.1685,0.31914 -13.35969,1.95914 -12.42987,4.8638 -22.70742,14.17304 -33.04156,22.62071 -4.29112,3.5078 -8.97882,6.88837 -11.93364,11.5774 -3.28069,5.20622 -4.35668,11.53878 -5.87729,17.50162 -0.94615,3.71012 -0.65556,7.72715 -2.00493,11.31041 -1.00333,2.66429 -1.94737,5.90558 -4.42795,7.30267 -1.86561,1.05071 -4.48903,0.91988 -6.4225,0 -1.7278,-0.82205 -2.90283,-2.67966 -3.62191,-4.45283 -1.27116,-3.13449 0.15148,-6.88976 -0.89066,-10.1077 -0.82037,-2.53313 -1.87768,-5.38529 -4.0962,-6.85776 -2.43379,-1.61535 -5.84252,-1.92363 -8.67755,-1.21993 -2.36365,0.58674 -4.13704,2.6225 -5.91946,4.282 -2.72638,2.53845 -3.96673,6.68038 -7.1805,8.56414 -2.433,1.4261 -5.49632,1.71954 -8.31273,1.57432 -2.51068,-0.12946 -4.81341,-1.45025 -7.22599,-2.15719 -4.95024,-1.45054 -9.73642,-4.75933 -14.87208,-4.27567 -3.27798,0.30871 -6.466,2.14751 -8.81689,4.45274 -2.80662,2.7521 -4.92853,6.53522 -5.52308,10.42081 -0.63937,4.17855 0.49342,8.6536 2.3162,12.4676 2.34234,4.90107 6.93988,8.36433 10.59827,12.37971 3.61956,3.97287 7.70011,7.51721 11.2211,11.57765 3.27168,3.77292 6.35443,7.72221 9.17286,11.84472 1.95391,2.85789 4.47742,5.55345 5.34431,8.90518 1.08593,4.19858 1.12212,8.96051 -0.44573,13.00392 -1.14198,2.94515 -3.67809,5.2419 -6.14569,7.21395 -2.6451,2.11395 -5.72889,3.82653 -8.99515,4.71921 -3.9855,1.08924 -8.45933,1.93229 -12.37837,0.62394 -3.29886,-1.10132 -5.88071,-3.93457 -8.01531,-6.68029 -1.35287,-1.74021 -1.80555,-4.02493 -2.85012,-5.96592 -1.69131,-3.14274 -2.68273,-7.00927 -5.5213,-9.17257 -2.0108,-1.53249 -4.80835,-2.45481 -7.30386,-2.04958 -3.29158,0.53449 -5.58459,3.64925 -8.28081,5.61154 -3.47144,2.52649 -6.3925,5.85648 -10.15431,7.92597 -0.77335,0.42544 -1.65708,1.17128 -2.49407,0.89107 -2.45946,-0.8234 -2.81814,-4.35439 -4.27358,-6.50111 -1.68683,-2.48807 -2.68529,-5.69482 -5.16634,-7.39185 -1.96712,-1.34551 -4.5734,-1.92278 -6.94564,-1.69379 -2.04936,0.19783 -4.15539,1.12809 -5.61099,2.5842 -4.31989,4.32141 -6.39042,10.67653 -7.65873,16.65378 -1.43586,6.76684 -0.64604,13.89358 0.26727,20.75057 0.81755,6.13794 2.30064,12.25393 4.63093,17.99087 2.49703,6.14749 4.03902,14.13783 9.88531,17.27594 1.19271,0.64021 2.75585,1.00234 4.25257,0.95582 z m -9.99979,-36.10455 c -2.6004,-9.99851 -2.71699,-11.32475 -2.01956,-16.98206 0.40774,-3.3074 1.05713,-7.14018 3.55725,-9.34347 1.54976,-1.36578 4.72272,-2.86531 6.02221,-1.45845 3.45388,3.7393 1.08085,5.48116 -1.88444,9.88003 -1.78976,2.655 -4.12501,4.86885 -5.67546,17.90395 z m 130.49382,-20.166 c -1.39079,0.13984 -2.89911,0.10928 -4.61605,-0.12983 3.7006,-2.08421 6.29361,-2.57807 8.12375,-5.22741 1.48827,-2.15443 2.01273,-5.09045 1.63816,-7.68198 -0.52267,-3.61628 -4.89843,-6.02724 -5.22659,-9.63477 5.33459,2.583 8.33896,5.22458 10.32775,9.44485 1.05724,2.24357 1.32097,5.13866 0.37641,7.43192 -0.72439,1.75868 -2.50625,3.01082 -4.21778,3.84051 -2.09414,1.01519 -4.08768,1.72365 -6.40565,1.95671 z m -41.00047,-46.87124 c -1.43136,0.12839 -3.15797,-0.69646 -4.48683,-1.30792 -2.13475,-0.98236 -3.84205,-2.80821 -5.28835,-4.66034 -1.68728,-2.16073 -2.9417,-4.69387 -3.77841,-7.30454 -0.8544,-2.66588 -1.39977,-5.52175 -1.19768,-8.31389 0.18173,-2.51076 0.50296,-5.33149 2.14189,-7.24216 1.5712,-1.83177 4.13947,-2.95937 6.54949,-3.08521 1.39888,-0.073 5.11807,0.58821 3.96652,1.38579 -7.67492,6.22885 -5.66782,14.0319 0.18867,20.4658 1.29471,1.88035 3.14839,3.56756 3.65369,5.79391 0.28066,1.23654 0.56346,3.00422 -0.4405,3.77881 -0.38605,0.29786 -0.83137,0.44696 -1.30849,0.48975 z m -23.76411,-18.48856 c -2.66906,-2.96835 -3.69533,-4.80472 -3.87565,-7.6601 -0.14499,-2.2959 0.78,-4.78877 2.31566,-6.50156 2.21318,-2.46844 6.35414,-3.95105 8.95198,-4.33435 -3.67912,2.12744 -6.39914,4.13203 -7.74937,7.45168 -1.38764,3.41165 0.16689,8.4221 0.35738,11.04433 z m 88.05247,-27.31293 c -0.2709,0.0195 -0.53829,-0.0205 -0.80008,-0.13639 -2.36181,-2.87879 1.32985,-6.89257 2.22021,-9.73594 1.00263,-3.04305 0.5923,-6.7139 2.5138,-9.27774 2.38198,-3.17827 7.42014,-9.09262 10.1626,-6.2196 1.57096,1.64576 -3.16946,3.47173 -3.8287,5.64931 -0.8025,2.65065 0.92589,5.67563 0.0649,8.30783 -1.20952,3.69763 -3.94679,6.91314 -6.96979,9.362 -0.96416,0.78103 -2.18902,1.96588 -3.36291,2.05053 z" /></g></g></svg>
