<?xml version="1.0" encoding="UTF-8" standalone="no"?>
<!-- Created with Inkscape (http://www.inkscape.org/) -->

<svg
   width="8.5811996mm"
   height="11.703481mm"
   viewBox="0 0 32.43288 44.23363"
   version="1.1"
   id="svg1"
   xml:space="preserve"
   inkscape:version="1.2.2 (732a01da63, 2022-12-09)"
   sodipodi:docname="stove.svg"
   xmlns:inkscape="http://www.inkscape.org/namespaces/inkscape"
   xmlns:sodipodi="http://sodipodi.sourceforge.net/DTD/sodipodi-0.dtd"
   xmlns="http://www.w3.org/2000/svg"
   xmlns:svg="http://www.w3.org/2000/svg"><sodipodi:namedview
     id="namedview1"
     pagecolor="#505050"
     bordercolor="#eeeeee"
     borderopacity="1"
     inkscape:showpageshadow="0"
     inkscape:pageopacity="0"
     inkscape:pagecheckerboard="0"
     inkscape:deskcolor="#d1d1d1"
     inkscape:document-units="mm"
     inkscape:zoom="1.7013934"
     inkscape:cx="166.62813"
     inkscape:cy="108.44053"
     inkscape:window-width="1827"
     inkscape:window-height="1057"
     inkscape:window-x="-9"
     inkscape:window-y="-9"
     inkscape:window-maximized="1"
     inkscape:current-layer="layer1"
     showgrid="false" /><defs
     id="defs1"><inkscape:path-effect
       effect="fillet_chamfer"
       id="path-effect2682"
       is_visible="true"
       lpeversion="1"
       nodesatellites_param="F,0,0,1,0,0,0,1 @ F,0,0,1,0,3.3220372,0,1 @ F,0,0,1,0,0,0,1 @ F,0,0,1,0,0,0,1 @ F,0,0,1,0,0,0,1 @ F,0,0,1,0,0,0,1 @ F,0,0,1,0,0,0,1 @ F,0,0,1,0,0,0,1 @ F,0,0,1,0,2.4054121,0,1 @ F,0,0,1,0,3.1842909,0,1 @ F,0,0,1,0,0,0,1 @ F,0,0,1,0,0,0,1 @ F,0,0,1,0,0,0,1 @ F,0,0,1,0,0,0,1 @ F,0,0,1,0,0,0,1 @ F,0,0,1,0,0,0,1 @ F,0,0,1,0,0,0,1 @ F,0,0,1,0,0,0,1 @ F,0,0,1,0,0,0,1 @ F,0,0,1,0,0,0,1 @ F,0,0,1,0,0,0,1 @ F,0,0,1,0,0,0,1"
       radius="0"
       unit="px"
       method="auto"
       mode="F"
       chamfer_steps="1"
       flexible="false"
       use_knot_distance="true"
       apply_no_radius="true"
       apply_with_radius="true"
       only_selected="false"
       hide_knots="false" /></defs><g
     inkscape:label="Layer 1"
     inkscape:groupmode="layer"
     id="layer1"
     style="display:inline"
     transform="translate(-240.97202,-596.39009)"><g
       id="g1514"
       inkscape:label="stove"
       transform="matrix(0.29999589,0,0,0.29999589,214.51814,452.31538)"><ellipse
         style="fill:#000000;fill-opacity:0;stroke:#000000;stroke-width:7.68724;stroke-linecap:round;stroke-linejoin:round;stroke-dasharray:none;stroke-opacity:1;paint-order:fill markers stroke"
         id="ellipse1502"
         cx="142.23636"
         cy="607.55463"
         rx="50.211926"
         ry="16.304815" /><ellipse
         style="fill:#000000;fill-opacity:1;stroke:#000000;stroke-width:8.61926;stroke-linecap:round;stroke-linejoin:round;stroke-dasharray:none;stroke-opacity:1;paint-order:fill markers stroke"
         id="ellipse1504"
         cx="142.34457"
         cy="606.99042"
         rx="16.301878"
         ry="4.6649523" /><path
         style="fill:#000000;fill-opacity:1;stroke:#000000;stroke-width:5.66929;stroke-linecap:round;stroke-linejoin:round;stroke-dasharray:none;stroke-opacity:1;paint-order:fill markers stroke"
         d="m 109.29912,596.52683 9.18365,3.59999"
         id="path1506" /><path
         style="fill:#000000;fill-opacity:1;stroke:#000000;stroke-width:5.66929;stroke-linecap:round;stroke-linejoin:round;stroke-dasharray:none;stroke-opacity:1;paint-order:fill markers stroke"
         d="m 166.39649,600.00401 9.18365,-3.59999"
         id="path1508" /><path
         style="fill:#000000;fill-opacity:1;stroke:#000000;stroke-width:5.66929;stroke-linecap:round;stroke-linejoin:round;stroke-dasharray:none;stroke-opacity:1;paint-order:fill markers stroke"
         d="m 166.39649,615.10622 9.18365,3.59999"
         id="path1510" /><path
         style="fill:#000000;fill-opacity:1;stroke:#000000;stroke-width:5.66929;stroke-linecap:round;stroke-linejoin:round;stroke-dasharray:none;stroke-opacity:1;paint-order:fill markers stroke"
         d="m 118.22672,615.72963 -9.18365,3.59999"
         id="path1512" /></g><g
       id="g2678"
       inkscape:label="fire 1"
       transform="matrix(0.20622143,0,0,0.20622143,176.09928,533.7739)"><path
         style="fill:#fd5505;fill-opacity:1;stroke:#000000;stroke-width:7.55906;stroke-linecap:round;stroke-linejoin:round;stroke-dasharray:none;stroke-opacity:1;paint-order:fill markers stroke"
         d="m 382.89833,485.25204 c -9.58998,-1.53014 -19.33957,-4.48355 -27.40038,-9.89949 -7.44555,-5.00256 -13.35054,-12.32377 -18.03123,-19.97577 -4.40857,-7.20715 -7.38495,-15.39836 -9.01561,-23.68808 -1.37658,-6.99808 -1.79841,-14.37143 -0.53033,-21.38998 1.09531,-6.06232 3.24883,-12.18126 6.89429,-17.14734 2.75025,-3.74657 10.78338,-8.83883 10.78338,-8.83883 0,0 -3.92475,7.42028 -4.59619,11.49048 -0.53787,3.2605 -1.17418,7.06846 0.53033,9.8995 1.41781,2.35486 4.35075,3.84837 7.07106,4.24264 1.86703,0.2706 3.95503,-0.3037 5.48008,-1.41422 1.69153,-1.23174 2.45344,-3.4168 3.35876,-5.3033 0.94329,-1.96562 1.86439,-4.02213 2.12132,-6.18718 0.36967,-3.11507 -0.39695,-6.27027 -0.88388,-9.36917 -0.97425,-6.20026 -3.58947,-12.12654 -4.06587,-18.38477 -0.34066,-4.47508 0.88389,-13.43503 0.88389,-13.43503 0,0 1.54626,-10.39528 3.53553,-15.2028 1.96307,-4.7442 4.89442,-9.09639 8.13173,-13.08147 3.44252,-4.2377 7.47151,-8.04415 11.84404,-11.31371 4.73539,-3.54089 15.37957,-8.83884 15.37957,-8.83884 0,0 -5.69258,9.22938 -7.95495,14.14214 -2.15214,4.67339 -4.40915,9.42886 -5.3033,14.49569 0,0 -2.28341,7.95519 -2.12132,12.02081 0.12127,3.04182 0.676,6.26276 2.29809,8.83884 1.84928,2.93689 4.85918,5.14865 7.95495,6.71751 1.56806,0.79466 3.37203,1.34713 5.12653,1.23744 2.32656,-0.14546 4.57126,-1.2278 6.54074,-2.47487 1.93648,-1.22618 3.70495,-2.8484 4.94974,-4.77297 1.32605,-2.05022 1.95377,-4.50887 2.47488,-6.8943 0.44177,-2.02226 0.57607,-4.11773 0.53033,-6.18718 -0.0302,-1.36643 -0.53033,-4.06586 -0.53033,-4.06586 l 10.07627,12.37437 c 0,0 4.15686,8.90301 5.48008,13.6118 1.26057,4.48584 2.29809,13.78858 2.29809,13.78858 0.88287,5.29725 -0.0217,10.78603 -0.88388,16.08668 -0.60822,3.73909 -2.15154,7.26937 -3.0052,10.96016 -0.50002,2.16185 -1.59698,4.35114 -1.23744,6.54074 0.23879,1.45427 2.16791,3.85325 2.16791,3.85325 0,0 3.95461,1.8872 6.0625,1.8125 2.82673,-0.10017 5.62534,-1.37078 7.9375,-3 1.78809,-1.25995 3.13882,-3.11585 4.25,-5 1.01818,-1.72646 2.125,-5.625 2.125,-5.625 l -0.875,-6.75 c 0,0 5.30526,6.09621 6.875,9.75 0.83865,1.95207 1.05475,4.1344 1.25,6.25 0.28722,3.11205 0.44278,6.30173 -0.125,9.375 -0.39515,2.13887 -2.25,6.125 -2.25,6.125 l -5,5.75 c -1.12596,1.29486 -1.87738,2.90101 -2.5,4.5 -0.3887,0.99824 -0.75,3.125 -0.75,3.125 0,0 1.12896,1.6392 2,2 1.92475,0.79726 4.28411,0.6896 6.25,0 2.51757,-0.88312 4.38258,-3.09453 6.25,-5 1.58079,-1.613 4.125,-5.375 4.125,-5.375 0,0 0.93688,6.68476 0.125,9.875 -1.26063,4.95354 -4.40105,9.31012 -7.5,13.375 -2.84022,3.7255 -6.32709,6.96709 -10,9.875 -4.24191,3.35839 -8.88111,6.26566 -13.75,8.625 -6.36874,3.08613 -13.0453,5.81456 -20,7.125 -8.14437,1.5346 -16.66752,2.05787 -24.85168,0.75203 z"
         id="path2670"
         sodipodi:nodetypes="sssssacsasssssscssscssasssssssccssssscsssccssscsscssscssssss" /><path
         style="display:inline;fill:#ffb230;fill-opacity:1;stroke:#000000;stroke-width:7.55906;stroke-linecap:round;stroke-linejoin:miter;stroke-dasharray:none;stroke-opacity:0;paint-order:fill markers stroke"
         d="m 378.26921,479.83783 c -3.3474,-1.20207 -7.4116,-4.03806 -10.42983,-6.18719 -3.01823,-2.14913 -5.30354,-3.87183 -7.71437,-6.52563 -2.41083,-2.6538 -4.98369,-6.46766 -6.5,-9.375 -1.51631,-2.90734 -2.08509,-4.72345 -2.875,-7.75 -0.78991,-3.02655 -1.80097,-7.20441 -1.625,-10.375 0.17597,-3.17059 1.3655,-5.87528 2.25,-8.25 0.8845,-2.37472 1.3659,-3.86871 2.875,-6 1.5091,-2.13129 4.84639,-5.04924 6.375,-6.375 1.52861,-1.32576 1.51749,-2.63217 2.5,-1.875 0.98251,0.75717 -1.25285,2.38311 -1.625,4 -0.37215,1.61689 -0.60852,3.52502 -0.375,5.625 0.23352,2.09998 0.94745,5.05075 2,6.75 1.05255,1.69925 2.12242,2.65048 3.625,3.375 1.50258,0.72452 3.43161,0.99889 5,0.75 1.56839,-0.24889 2.70229,-0.90246 4,-2 1.29771,-1.09754 2.56859,-2.71395 3.375,-4.625 0.80641,-1.91105 1.15644,-4.21004 1.125,-6.625 -0.0314,-2.41496 -1.06933,-5.07067 -1.5,-7.625 -0.4722,-2.80069 -1.17839,-5.57718 -1.1875,-8.4375 -0.009,-2.86032 0.20761,-5.51831 1.0625,-8.4375 0.85489,-2.91919 2.0808,-6.17911 3.75,-9.125 1.6692,-2.94589 3.85961,-5.83735 6.25,-8.375 2.39039,-2.53765 5.46438,-4.84461 8,-6.75 2.53562,-1.90539 6.06969,-4.48281 8.71599,-2.80546 2.6463,1.67735 -2.40524,6.34261 -3.35616,9.59467 -1.00651,3.44222 -2.25874,6.89007 -2.47855,10.46967 -0.39971,6.50925 -0.17776,13.35243 2.14385,19.4467 2.86405,7.5182 6.29913,15.71489 13.98743,19.66942 2.32013,0.92795 5.3316,1.22664 7.23744,1 1.90584,-0.22664 3.61838,-0.95425 5,-2.125 1.65789,-1.40486 1.58077,-5.75895 3.5,-5.5 1.91923,0.25895 1.25313,2.76574 1.5,4.875 0.24687,2.10926 0.78362,5.83021 0.625,8.75 -0.27798,5.11678 -0.96613,10.3212 -2.75,15.125 -1.63192,4.3946 -5.17852,9.287 -7.125,12.125 -5.0004,6.06236 -12.27942,9.57901 -19.25,12.875 -2.37017,1.15178 -10.76949,2.24029 -13.625,2.625 -6.1205,-0.0992 -6.57032,0.0389 -12.4808,-1.91218 z"
         id="path2672"
         sodipodi:nodetypes="zzzzzzzzzzzzzzzzzzazzzzzcaaazcazzaazzcz" /><path
         style="display:inline;fill:#feec96;fill-opacity:1;stroke:#feec96;stroke-width:3.77953;stroke-linecap:round;stroke-linejoin:round;stroke-dasharray:none;stroke-opacity:1;paint-order:markers fill stroke"
         d="m 384.25001,422.25001 c 0,0 2.26962,2.32688 4.21594,4.62591 1.18479,1.39949 2.86914,3.85946 3.73393,5.47677 0.97404,1.82162 1.80574,3.72504 2.55013,5.64732 1.02409,2.64457 1.81349,5.39581 2.3125,8.1875 0.32727,1.83087 0.50919,3.70399 0.4375,5.5625 -0.0829,2.14939 -1.51955,4.2877 -1,6.375 0.27677,1.11191 1.04646,2.22028 2.0625,2.75 1.09056,0.56857 2.58366,0.66733 3.6875,0.125 0.62029,-0.30475 1.14982,-0.79935 1.5721,-1.38634 0.77115,-1.07191 1.17654,-3.25872 1.00492,-4.56918 -0.0506,-0.38664 -0.11819,-0.77777 -0.19449,-1.15797 -0.34572,-1.72275 -0.19386,-1.79272 0.52037,-0.18572 0.96254,2.16567 2.16344,5.08302 2.5971,7.04921 0.70754,3.20794 1.21511,6.61996 0.56066,9.83915 -0.89072,4.38137 -2.45531,9.21824 -5.93122,12.03033 -3.30906,2.6771 -8.12533,3.26928 -12.37944,3.13052 -2.97635,-0.0971 -6.06141,-1.0408 -8.5,-2.75 -1.55612,-1.09068 -2.57727,-2.83877 -3.5,-4.5 -0.81934,-1.47509 -1.38282,-3.10306 -1.75,-4.75 -0.58242,-2.61236 -0.96444,-5.33787 -0.6875,-8 0.26119,-2.51073 1.1271,-4.95925 2.1875,-7.25 1.56332,-3.37719 4.38092,-6.05511 6.0625,-9.375 1.34971,-2.66469 2.68235,-5.431 3.1875,-8.375 0.59207,-3.45056 0.31933,-7.04561 -0.25,-10.5 -0.45433,-2.75665 -2.5,-8 -2.5,-8"
         id="path2674"
         sodipodi:nodetypes="caaaaasaacaaaaaaaaaaaac"
         inkscape:path-effect="#path-effect2682"
         inkscape:original-d="m 384.25001,422.25001 c 0,0 4.48131,4.59438 6.25,7.25 1.75597,2.63653 3.10608,5.54599 4.25,8.5 1.02409,2.64457 1.81349,5.39581 2.3125,8.1875 0.32727,1.83087 0.50919,3.70399 0.4375,5.5625 -0.0829,2.14939 -1.51955,4.2877 -1,6.375 0.27677,1.11191 1.04646,2.22028 2.0625,2.75 1.09056,0.56857 2.58366,0.66733 3.6875,0.125 1.31289,-0.64504 2.21923,-2.14056 2.5625,-3.5625 0.52409,-2.17099 -1,-6.625 -1,-6.625 0,0 3.17008,6.45808 3.9375,9.9375 0.70754,3.20794 1.21511,6.61996 0.56066,9.83915 -0.89072,4.38137 -2.45531,9.21824 -5.93122,12.03033 -3.30906,2.6771 -8.12533,3.26928 -12.37944,3.13052 -2.97635,-0.0971 -6.06141,-1.0408 -8.5,-2.75 -1.55612,-1.09068 -2.57727,-2.83877 -3.5,-4.5 -0.81934,-1.47509 -1.38282,-3.10306 -1.75,-4.75 -0.58242,-2.61236 -0.96444,-5.33787 -0.6875,-8 0.26119,-2.51073 1.1271,-4.95925 2.1875,-7.25 1.56332,-3.37719 4.38092,-6.05511 6.0625,-9.375 1.34971,-2.66469 2.68235,-5.431 3.1875,-8.375 0.59207,-3.45056 0.31933,-7.04561 -0.25,-10.5 -0.45433,-2.75665 -2.5,-8 -2.5,-8"
         transform="rotate(3.058053,493.18475,443.42683)" /><path
         style="fill:#fd5505;fill-opacity:1;stroke:#000000;stroke-width:7.55906;stroke-linecap:round;stroke-linejoin:round;stroke-dasharray:none;stroke-opacity:1;paint-order:fill markers stroke"
         d="m 438.75977,360.97802 c 0,0 2.39609,2.79551 2.91681,4.50781 0.53154,1.7479 0.53784,3.7093 0.0884,5.48008 -0.45761,1.80296 -2.24111,3.06939 -2.74004,4.86136 -0.52971,1.90252 -0.73957,4.02902 -0.17678,5.92202 0.47048,1.58251 1.72468,2.83809 2.82843,4.06586 1.56392,1.73965 5.3033,4.59619 5.3033,4.59619 0,0 1.73367,-2.32514 2.65165,-3.44714 1.1373,-1.39006 2.54792,-2.56576 3.53554,-4.06587 0.971,-1.47486 2.06934,-3.02205 2.29809,-4.77297 0.26424,-2.02256 -0.0794,-4.2736 -1.14905,-6.0104 -0.7602,-1.23437 -3.11493,-2.50183 -3.44714,-2.65165 0,0 -3.11169,-1.00807 -4.50781,-2.03294 -1.39612,-1.02487 -3.62392,-4.06586 -3.62392,-4.06586 -1.02877,-1.15423 -3.97748,-2.38649 -3.97748,-2.38649 z"
         id="path2676"
         sodipodi:nodetypes="cssssscssssszsc" /></g></g></svg>
