<?xml version="1.0" encoding="UTF-8" standalone="no"?>
<!-- Created with Inkscape (http://www.inkscape.org/) -->

<svg
   width="297mm"
   height="210mm"
   viewBox="0 0 1122.5197 793.70081"
   version="1.1"
   id="svg1"
   xml:space="preserve"
   sodipodi:docname="stuff2.svg"
   inkscape:version="1.3 (0e150ed6c4, 2023-07-21)"
   xmlns:inkscape="http://www.inkscape.org/namespaces/inkscape"
   xmlns:sodipodi="http://sodipodi.sourceforge.net/DTD/sodipodi-0.dtd"
   xmlns="http://www.w3.org/2000/svg"
   xmlns:svg="http://www.w3.org/2000/svg"><sodipodi:namedview
     id="namedview1"
     pagecolor="#505050"
     bordercolor="#eeeeee"
     borderopacity="1"
     inkscape:showpageshadow="0"
     inkscape:pageopacity="0"
     inkscape:pagecheckerboard="0"
     inkscape:deskcolor="#505050"
     inkscape:document-units="mm"
     inkscape:zoom="0.24811521"
     inkscape:cx="126.95715"
     inkscape:cy="642.84652"
     inkscape:window-width="1366"
     inkscape:window-height="745"
     inkscape:window-x="-8"
     inkscape:window-y="-8"
     inkscape:window-maximized="1"
     inkscape:current-layer="layer1" /><defs
     id="defs1" /><g
     inkscape:label="Layer 1"
     inkscape:groupmode="layer"
     id="layer1"><g
       id="g18"
       style="stroke-width:5.66929;stroke-dasharray:none"
       transform="translate(177.52935,-3.6948154)"
       inkscape:label="another glass of water"><g
         id="g10"
         inkscape:label="glass"><path
           style="display:inline;fill:#ffffff;fill-opacity:0.5;stroke:#000000;stroke-width:5.66929;stroke-linecap:round;stroke-linejoin:round;stroke-dasharray:none;stroke-opacity:1"
           d="m 761.84046,144.65327 116.7594,27.99437 c 0,0 17.18452,7.77823 30.10116,-46.09474 14.11763,-58.88204 -5.50046,-59.566117 -5.50046,-59.566117 L 785.76377,38.829992 c 0,0 -17.59368,-6.176603 -31.1513,48.946772 -12.96763,52.724526 7.22799,56.876506 7.22799,56.876506 z"
           id="path17"
           sodipodi:nodetypes="ccsccsc" /><ellipse
           style="display:inline;fill:#000000;fill-opacity:0;stroke:#000000;stroke-width:5.66929;stroke-linecap:round;stroke-linejoin:round;stroke-dasharray:none;stroke-opacity:1"
           id="ellipse17"
           cx="90.939011"
           cy="772.80518"
           rx="53.241913"
           ry="17.617998"
           transform="rotate(-76.517205)" /></g><g
         id="g9"
         inkscape:label="water"><path
           style="fill:#cfffff;fill-opacity:0.901961;stroke:#000000;stroke-width:5.66929;stroke-linecap:round;stroke-linejoin:round;stroke-dasharray:none;paint-order:fill markers stroke"
           d="m 864.68311,136.35526 c -18.54758,-16.35921 -35.4837,-35.87981 -57.82492,-46.486651 -13.96159,-6.62846 -30.08183,-7.25872 -45.35284,-9.63746 -9.38248,-1.46151 -18.85497,-3.14539 -28.34551,-2.83456 -6.89306,0.22575 -13.86592,1.22052 -20.40877,3.40147 -5.45237,1.81746 -14.86334,2.20655 -15.30658,7.93673 -0.27109,3.50458 6.98208,3.06736 8.50366,6.23601 0.53904,1.12256 0.63394,2.772582 -0.15943,3.732402 -12.52155,15.148959 -38.92887,6.793519 -57.38197,13.558379 -15.81603,5.79813 -30.76805,13.9708 -45.03932,22.92044 -9.45269,5.92787 -22.4454,9.91174 -26.65761,20.24375 -0.68843,1.68864 -0.10233,3.82795 0.80173,5.41169 0.89487,1.56771 3.95379,1.62037 4.20911,3.40736 1.98959,13.92529 -18.15716,21.90295 -24.05199,34.67492 -4.0543,8.7842 -8.00643,18.40397 -7.41601,28.06063 0.1976,3.23205 0.85331,7.31711 3.60779,9.01949 4.10615,2.53773 9.99739,0.7058 14.43118,-1.20261 17.94934,-7.72578 24.79906,-34.1013 43.69442,-39.08444 1.52056,-0.40101 3.07489,1.34344 4.60996,1.00217 9.67878,-2.1518 15.49967,-12.39426 23.65111,-18.03898 10.24136,-7.09195 19.25577,-18.79069 31.66842,-19.84288 2.44782,-0.2075 4.35822,2.83004 6.81472,2.80606 15.07979,-0.1472 27.13875,-13.40505 41.48964,-18.03897 8.89414,-2.87193 18.05844,-5.56861 27.39616,-5.9694 10.66083,-0.45758 21.22019,2.36382 31.74697,4.1101 29.34575,4.86816 57.81593,20.19207 87.46088,17.73256 5.54815,-0.46031 14.48406,-0.51618 15.5979,-5.97084 1.64536,-8.05763 -11.57106,-11.70743 -17.7387,-17.14737 z"
           id="path7"
           sodipodi:nodetypes="aaaaaaaaaaaaaaaaaaaaaaaaaaaa" /><path
           style="fill:#cfffff;fill-opacity:0.901961;stroke:#000000;stroke-width:5.66929;stroke-linecap:round;stroke-linejoin:round;stroke-dasharray:none;paint-order:fill markers stroke"
           d="m 674.65197,180.10862 c -1.16899,-0.0691 -1.87127,-1.96339 -3.02804,-1.7812 -4.23745,0.66739 -6.71366,5.74158 -8.54974,9.61846 -1.45394,3.06999 -2.14246,6.70998 -1.60307,10.06376 0.31835,1.97945 0.86929,4.67906 2.76085,5.34358 2.20681,0.77527 4.64366,-1.31923 6.41231,-2.84991 4.58992,-3.97235 8.08435,-9.55822 9.70751,-15.40734 0.38112,-1.37337 0.41505,-2.94175 -0.0891,-4.27487 -0.35764,-0.94572 -0.97426,-2.08759 -1.95931,-2.31556 -1.29504,-0.29971 -2.32445,1.68148 -3.65141,1.60308 z"
           id="path8"
           sodipodi:nodetypes="aaaaaaaaaa" /><path
           style="fill:#cfffff;fill-opacity:0.901961;stroke:#000000;stroke-width:5.66929;stroke-linecap:round;stroke-linejoin:round;stroke-dasharray:none;paint-order:fill markers stroke"
           d="m 672.25516,97.382731 c 0.37338,-1.18887 -1.90507,-1.90748 -2.01519,-3.14873 -0.11644,-1.31248 2.28411,-2.58527 1.5114,-3.65254 -1.97519,-2.72813 -6.84574,-0.19806 -10.07597,0.7557 -3.53161,1.04275 -6.67023,3.19429 -9.69811,5.28988 -2.64356,1.8296 -7.04904,3.09275 -7.30508,6.297469 -0.083,1.03953 1.03348,2.04126 2.01519,2.39305 3.6976,1.32503 7.82106,-1.02627 11.58736,-2.14115 4.83698,-1.43182 12.46893,-0.981 13.9804,-5.793679 z"
           id="path9"
           sodipodi:nodetypes="aaaaaaaaa" /></g></g><g
       id="g15"
       style="stroke-width:5.66929;stroke-dasharray:none"
       transform="translate(-118.06165,-29.43512)"
       inkscape:label="glass of water"><g
         id="g12"
         inkscape:label="glass"><path
           style="display:inline;fill:#ffffff;fill-opacity:0.5;stroke:#000000;stroke-width:5.66929;stroke-linecap:round;stroke-linejoin:round;stroke-dasharray:none;stroke-opacity:1"
           d="m 690.20357,111.8432 v 120.06849 c 0,0 -3.55723,18.52443 51.84256,18.52443 60.55082,0 56.64203,-19.23691 56.64203,-19.23691 V 110.43413 c 0,0 1.90435,-18.548893 -54.86083,-18.88067 -54.29489,-0.317339 -53.62376,20.28974 -53.62376,20.28974 z"
           id="path13"
           sodipodi:nodetypes="ccsccsc" /><ellipse
           style="display:inline;fill:#000000;fill-opacity:0;stroke:#000000;stroke-width:5.66929;stroke-linecap:round;stroke-linejoin:round;stroke-dasharray:none;stroke-opacity:1"
           id="path14"
           cx="744.18353"
           cy="110.0779"
           rx="53.241913"
           ry="17.617998" /></g><g
         id="g13"
         inkscape:label="water"><ellipse
           style="display:inline;fill:#c9ffff;fill-opacity:0.8;stroke:#000000;stroke-width:5.66929;stroke-linecap:round;stroke-linejoin:round;stroke-dasharray:none;stroke-opacity:1"
           id="ellipse14"
           cx="744.38007"
           cy="172.41974"
           rx="54.0051"
           ry="17.598093" /><path
           style="display:inline;fill:#c9ffff;fill-opacity:0.8;stroke:none;stroke-width:5.66929;stroke-linecap:round;stroke-linejoin:round;stroke-dasharray:none;stroke-opacity:1"
           d="m 728.3243,247.0312 c -19.77852,-1.48517 -33.13106,-6.47857 -35.12759,-13.13655 -0.29752,-0.99214 -0.41457,-8.44941 -0.41457,-26.4128 0,-13.76667 0.0626,-25.03032 0.139,-25.03032 0.0764,0 1.24183,0.64498 2.58975,1.43331 13.27381,7.76307 42.55011,11.2236 67.64114,7.99534 12.96749,-1.66843 24.72738,-5.35094 30.54125,-9.56374 l 1.78603,-1.29418 0.0916,25.90595 c 0.10176,28.76615 0.24806,26.90924 -2.33058,29.57951 -4.94622,5.12194 -15.80017,8.52005 -32.5888,10.20276 -5.03747,0.50489 -26.97596,0.72255 -32.32728,0.32072 z"
           id="path15" /></g></g><path
       style="fill:#ffffff;fill-opacity:1;stroke:#808080;stroke-width:5.66929;stroke-linecap:round;stroke-linejoin:round;stroke-dasharray:none;stroke-opacity:1"
       d="m 44.606047,591.88912 c -6.49009,-4.02542 -3.47916,-15.24343 -2.32581,-22.79293 0.71334,-4.66925 5.42705,-8.30365 5.58195,-13.02455 0.18333,-5.58754 -5.5979,-10.22498 -5.58195,-15.81551 0.015,-5.27238 5.67915,-9.62309 5.34937,-14.88518 -0.33182,-5.29442 -6.54881,-8.92402 -7.21002,-14.18745 -0.66345,-5.28139 0.31277,-11.31134 3.48871,-15.58294 1.69834,-2.28424 6.66482,-1.44838 7.4426,-4.18646 1.83951,-6.47571 -8.40849,-11.08302 -9.7684,-17.67615 -0.95994,-4.65401 -0.31406,-9.75364 1.39548,-14.18745 2.01373,-5.22277 9.69361,-7.90061 10.001,-13.4897 0.29572,-5.37707 -6.81075,-8.73638 -8.14035,-13.95487 -1.97238,-7.74134 -0.8247,-16.11358 0.69775,-23.95584 1.57537,-8.11485 3.83466,-16.50741 8.605486,-23.25811 3.14514,-4.45036 7.65615,-8.08792 12.55938,-10.46614 3.70753,-1.79827 9.74588,0.82757 12.09422,-2.55841 3.26175,-4.70296 -3.35484,-11.31073 -2.5584,-16.9784 0.83036,-5.90901 3.46522,-11.8325 7.4426,-16.28068 2.71188,-3.03289 6.68976,-4.76587 10.46615,-6.27969 2.28694,-0.91675 5.933357,0.47923 7.210017,-1.62807 2.03646,-3.36149 -3.408877,-7.48516 -3.023567,-11.39647 0.73623,-7.4733 4.382207,-15.15187 9.915107,-20.2292 4.24545,-3.89588 10.43063,-5.3187 16.11705,-6.24946 2.38285,-0.39003 5.16064,1.56266 7.23622,0.32892 3.8779,-2.30505 2.58145,-9.1366 5.92055,-12.17001 2.55502,-2.32112 6.27537,-3.21035 9.70312,-3.61812 3.1802,-0.3783 6.65871,-0.24975 9.53867,1.15122 3.69494,1.79743 4.61776,8.42509 8.71635,8.71636 4.10115,0.29145 5.97988,-6.06272 9.86759,-7.40069 5.3401,-1.83782 11.70098,-2.43937 16.93933,-0.32891 2.0854,0.84017 2.6194,5.42703 4.76933,4.76933 7.15553,-2.18899 0.47346,-15.59289 4.27596,-22.03759 4.42993,-7.50811 11.73986,-14.18578 20.06406,-16.77488 7.30789,-2.27299 15.83886,-0.90782 22.8599,2.13797 6.5195,2.8282 9.25626,11.76404 15.95259,14.14352 4.31416,1.53301 9.2647,-1.62615 13.72288,-0.58372 3.53056,0.82552 7.21303,2.44902 9.53583,5.23307 1.49205,1.78836 0.19835,5.45399 2.20951,6.62856 4.73969,2.76815 10.88702,-4.64872 16.16439,-3.13983 4.32493,1.23657 7.20592,5.57331 9.88469,9.18694 2.10611,2.84114 1.74124,7.52651 4.65163,9.53583 4.27945,2.9545 10.75085,-0.61101 15.53547,1.42621 4.46968,1.90312 8.37621,5.4623 11.01879,9.53866 3.61316,5.57358 1.26915,14.17969 5.7561,19.07733 1.79479,1.95907 5.72747,0.89639 7.40068,2.96027 2.41786,2.98237 2.83772,7.60689 1.97351,11.34771 -0.71579,3.09842 -5.6589,4.55029 -5.59162,7.72961 0.19661,9.29265 14.06228,13.16261 17.28443,21.88098 4.08829,11.06198 4.96715,24.1129 1.39547,35.35232 -3.31555,10.43338 -11.33022,19.3671 -20.00197,26.04908 -8.2574,6.36271 -22.27739,3.99481 -28.84006,12.0942 -2.08674,2.57539 -0.30999,6.83881 -1.86064,9.76842 -3.59032,6.78321 -8.95127,14.00424 -16.28067,16.28067 -8.13207,2.52575 -16.75965,-6.27494 -25.11876,-4.65161 -5.95375,1.15619 -9.40884,8.55087 -15.35035,9.7684 -9.38943,1.92406 -20.18975,0.33508 -28.37487,-4.65162 -5.77336,-3.51736 -9.9711,-9.86229 -12.09422,-16.28068 -1.21737,-3.68022 2.5576,-8.71618 0,-11.62905 -2.37293,-2.70254 -8.01339,0.99687 -10.69874,-1.39549 -2.86407,-2.55159 0.33194,-8.93658 -2.79097,-11.1639 -2.91441,-2.07858 -7.41633,2.35863 -10.69873,0.93034 -5.7735,-2.51229 -5.92469,-12.21963 -11.62904,-14.88519 -4.21657,-1.97035 -10.10571,-2.15125 -13.95487,0.46516 -6.43219,4.37219 -3.50551,16.21331 -9.30325,21.39746 -4.7164,4.21725 -11.83905,6.13961 -18.14132,5.58194 -6.07877,-0.53787 -10.25912,-7.38224 -16.28068,-8.37292 -3.09419,-0.50906 -7.43937,-1.12623 -9.30325,1.39549 -3.72775,5.04343 5.0213,12.74492 2.79097,18.60648 -2.15334,5.65922 -12.74879,5.69532 -13.95486,11.62905 -1.21552,5.98024 8.30974,10.17849 8.37293,16.28068 0.0768,7.41955 -4.39977,14.88013 -9.76841,20.00196 -6.23126,5.94478 -18.062427,3.74331 -23.723267,10.23358 -1.90399,2.18297 -0.12013,6.49523 -2.32581,8.37292 -2.13826,1.82031 -7.10508,-1.57533 -8.37291,0.93032 -2.10132,4.15284 6.24078,7.49869 6.97741,12.09423 0.60164,3.75328 0.11674,8.25131 -2.3258,11.16389 -1.60961,1.91939 -5.92346,0.51851 -6.97743,2.79097 -1.23782,2.66887 2.83945,5.43136 2.79097,8.37291 -0.0735,4.46377 -1.55199,9.34644 -4.65161,12.55938 -1.97921,2.05156 -5.55747,1.64298 -7.90776,3.25613 -3.34588,2.29648 -6.37533,5.30564 -8.372906,8.83809 -2.8517,5.04283 -0.73892,12.47349 -4.65164,16.74584 -0.89473,0.97698 -2.59548,2.09375 -3.72129,1.39547 z"
       id="path12"
       sodipodi:nodetypes="aaaaaaaaaaaaaaaaaaaaaaaaaaaaaaaaaaaaaaaaaaaaaaaaaaaaaaaaaaaaaaaaaaaaaaaaaaaaaaaaaaa"
       inkscape:label="smoke 3" /><g
       id="g11"
       inkscape:label="smoke 2"
       style="stroke-width:5.66929;stroke-dasharray:none;stroke:#808080;stroke-opacity:1"
       transform="rotate(-174.46797,502.50284,178.7513)"><path
         id="path6"
         style="display:inline;fill:#ffffff;fill-opacity:1;stroke:#808080;stroke-width:5.66929;stroke-linecap:round;stroke-linejoin:round;stroke-dasharray:none;stroke-opacity:1"
         d="m 508.68912,317.49147 c 1.49673,-0.0465 2.92609,-0.50101 3.85091,-1.4895 l 0.002,-1.9e-4 c 1.82026,-1.94608 -0.16412,-5.33321 -0.007,-7.99359 0.27178,-4.60058 0.71384,-9.21443 1.63719,-13.72959 0.71867,-3.51426 0.56553,-7.7142 3.02237,-10.32774 2.20117,-2.34166 5.86959,-3.58476 9.06839,-3.27423 6.99056,0.67864 11.59324,8.12153 18.07192,10.83367 8.82036,3.69252 18.31799,5.7579 27.77429,7.17624 7.39775,1.10958 15.02202,2.12669 22.41834,1.00758 5.02897,-0.76091 10.22872,-2.19469 14.35811,-5.16407 3.19313,-2.2961 5.86394,-5.59909 7.31985,-9.25265 1.35709,-3.40559 -0.41747,-7.56478 0.97982,-10.95407 0.77942,-1.89057 2.12822,-3.73378 3.91851,-4.72201 2.98835,-1.64957 6.8242,-0.57939 10.153,-1.3346 4.29382,-0.97412 9.10563,-1.36446 12.55807,-4.09689 2.37141,-1.87683 3.98507,-4.81543 4.72029,-7.74895 0.77344,-3.08601 0.50068,-6.52165 -0.53448,-9.52997 -1.42287,-4.13484 -4.38027,-7.69172 -7.48171,-10.77424 -2.75661,-2.7398 -6.65942,-4.07124 -9.61776,-6.59181 -3.80408,-3.24111 -7.48396,-6.75841 -10.33188,-10.86514 -1.35433,-1.95295 -4.83553,-4.77128 -3.11711,-6.41296 4.17821,-3.99179 9.513,7.44736 15.23078,8.28318 4.9833,0.7285 10.3793,-0.67555 14.78395,-3.11745 3.81937,-2.11745 6.99607,-5.60334 9.08352,-9.43917 3.35256,-6.16036 2.15448,-13.99318 4.80934,-20.48482 1.78726,-4.37023 4.17458,-8.61593 7.35343,-12.10708 2.74744,-3.01731 6.55445,-4.86163 9.82412,-7.30334 1.85011,-1.38164 4.14071,-2.32111 5.54107,-4.15705 2.08042,-2.72743 3.14335,-6.20191 3.77835,-9.57289 0.80171,-4.25608 -0.51512,-8.6863 -0.0456,-12.99166 0.32324,-2.96412 0.53233,-6.10919 1.95879,-8.72753 2.35004,-4.31358 6.11128,-7.99311 10.32988,-10.50962 2.01718,-1.20328 4.94959,-0.47242 6.76851,-1.95849 1.08994,-0.89054 2.01863,-2.33528 1.96093,-3.74162 -0.0865,-2.10659 -1.46819,-4.46367 -3.38437,-5.34316 -4.09036,-1.8774 -9.1685,0.31914 -13.35969,1.95914 -12.42987,4.8638 -22.70742,14.17304 -33.04156,22.62071 -4.29112,3.5078 -8.97882,6.88837 -11.93364,11.5774 -3.28069,5.20622 -4.35668,11.53878 -5.87729,17.50162 -0.94615,3.71012 -0.65556,7.72715 -2.00493,11.31041 -1.00333,2.66429 -1.94737,5.90558 -4.42795,7.30267 -1.86561,1.05071 -4.48903,0.91988 -6.4225,0 -1.7278,-0.82205 -2.90283,-2.67966 -3.62191,-4.45283 -1.27116,-3.13449 0.15148,-6.88976 -0.89066,-10.1077 -0.82037,-2.53313 -1.87768,-5.38529 -4.0962,-6.85776 -2.43379,-1.61535 -5.84252,-1.92363 -8.67755,-1.21993 -2.36365,0.58674 -4.13704,2.6225 -5.91946,4.282 -2.72638,2.53845 -3.96673,6.68038 -7.1805,8.56414 -2.433,1.4261 -5.49632,1.71954 -8.31273,1.57432 -2.51068,-0.12946 -4.81341,-1.45025 -7.22599,-2.15719 -4.95024,-1.45054 -9.73642,-4.75933 -14.87208,-4.27567 -3.27798,0.30871 -6.466,2.14751 -8.81689,4.45274 -2.80662,2.7521 -4.92853,6.53522 -5.52308,10.42081 -0.63937,4.17855 0.49342,8.6536 2.3162,12.4676 2.34234,4.90107 6.93988,8.36433 10.59827,12.37971 3.61956,3.97287 7.70011,7.51721 11.2211,11.57765 3.27168,3.77292 6.35443,7.72221 9.17286,11.84472 1.95391,2.85789 4.47742,5.55345 5.34431,8.90518 1.08593,4.19858 1.12212,8.96051 -0.44573,13.00392 -1.14198,2.94515 -3.67809,5.2419 -6.14569,7.21395 -2.6451,2.11395 -5.72889,3.82653 -8.99515,4.71921 -3.9855,1.08924 -8.45933,1.93229 -12.37837,0.62394 -3.29886,-1.10132 -5.88071,-3.93457 -8.01531,-6.68029 -1.35287,-1.74021 -1.80555,-4.02493 -2.85012,-5.96592 -1.69131,-3.14274 -2.68273,-7.00927 -5.5213,-9.17257 -2.0108,-1.53249 -4.80835,-2.45481 -7.30386,-2.04958 -3.29158,0.53449 -5.58459,3.64925 -8.28081,5.61154 -3.47144,2.52649 -6.3925,5.85648 -10.15431,7.92597 -0.77335,0.42544 -1.65708,1.17128 -2.49407,0.89107 -2.45946,-0.8234 -2.81814,-4.35439 -4.27358,-6.50111 -1.68683,-2.48807 -2.68529,-5.69482 -5.16634,-7.39185 -1.96712,-1.34551 -4.5734,-1.92278 -6.94564,-1.69379 -2.04936,0.19783 -4.15539,1.12809 -5.61099,2.5842 -4.31989,4.32141 -6.39042,10.67653 -7.65873,16.65378 -1.43586,6.76684 -0.64604,13.89358 0.26727,20.75057 0.81755,6.13794 2.30064,12.25393 4.63093,17.99087 2.49703,6.14749 4.03902,14.13783 9.88531,17.27594 1.19271,0.64021 2.75585,1.00234 4.25257,0.95582 z m -9.99979,-36.10455 c -2.6004,-9.99851 -2.71699,-11.32475 -2.01956,-16.98206 0.40774,-3.3074 1.05713,-7.14018 3.55725,-9.34347 1.54976,-1.36578 4.72272,-2.86531 6.02221,-1.45845 3.45388,3.7393 1.08085,5.48116 -1.88444,9.88003 -1.78976,2.655 -4.12501,4.86885 -5.67546,17.90395 z m 130.49382,-20.166 c -1.39079,0.13984 -2.89911,0.10928 -4.61605,-0.12983 3.7006,-2.08421 6.29361,-2.57807 8.12375,-5.22741 1.48827,-2.15443 2.01273,-5.09045 1.63816,-7.68198 -0.52267,-3.61628 -4.89843,-6.02724 -5.22659,-9.63477 5.33459,2.583 8.33896,5.22458 10.32775,9.44485 1.05724,2.24357 1.32097,5.13866 0.37641,7.43192 -0.72439,1.75868 -2.50625,3.01082 -4.21778,3.84051 -2.09414,1.01519 -4.08768,1.72365 -6.40565,1.95671 z m -41.00047,-46.87124 c -1.43136,0.12839 -3.15797,-0.69646 -4.48683,-1.30792 -2.13475,-0.98236 -3.84205,-2.80821 -5.28835,-4.66034 -1.68728,-2.16073 -2.9417,-4.69387 -3.77841,-7.30454 -0.8544,-2.66588 -1.39977,-5.52175 -1.19768,-8.31389 0.18173,-2.51076 0.50296,-5.33149 2.14189,-7.24216 1.5712,-1.83177 4.13947,-2.95937 6.54949,-3.08521 1.39888,-0.073 5.11807,0.58821 3.96652,1.38579 -7.67492,6.22885 -5.66782,14.0319 0.18867,20.4658 1.29471,1.88035 3.14839,3.56756 3.65369,5.79391 0.28066,1.23654 0.56346,3.00422 -0.4405,3.77881 -0.38605,0.29786 -0.83137,0.44696 -1.30849,0.48975 z m -23.76411,-18.48856 c -2.66906,-2.96835 -3.69533,-4.80472 -3.87565,-7.6601 -0.14499,-2.2959 0.78,-4.78877 2.31566,-6.50156 2.21318,-2.46844 6.35414,-3.95105 8.95198,-4.33435 -3.67912,2.12744 -6.39914,4.13203 -7.74937,7.45168 -1.38764,3.41165 0.16689,8.4221 0.35738,11.04433 z m 88.05247,-27.31293 c -0.2709,0.0195 -0.53829,-0.0205 -0.80008,-0.13639 -2.36181,-2.87879 1.32985,-6.89257 2.22021,-9.73594 1.00263,-3.04305 0.5923,-6.7139 2.5138,-9.27774 2.38198,-3.17827 7.42014,-9.09262 10.1626,-6.2196 1.57096,1.64576 -3.16946,3.47173 -3.8287,5.64931 -0.8025,2.65065 0.92589,5.67563 0.0649,8.30783 -1.20952,3.69763 -3.94679,6.91314 -6.96979,9.362 -0.96416,0.78103 -2.18902,1.96588 -3.36291,2.05053 z" /></g><g
       id="g5"
       inkscape:label="smoke 1"
       style="display:inline;fill:#ffffff;fill-opacity:1;stroke:#808080;stroke-width:5.66929;stroke-dasharray:none;stroke-opacity:1"
       transform="translate(-181.36736,-6.0455787)"><path
         style="display:inline;fill:#ffffff;fill-opacity:1;stroke:#808080;stroke-width:5.66929;stroke-linecap:round;stroke-linejoin:round;stroke-dasharray:none;stroke-opacity:1"
         d="m 301.37832,201.63135 c 3.18686,-1.01282 1.19785,-6.71113 2.84991,-9.61846 2.07582,-3.65309 5.27682,-6.62743 8.54974,-9.26221 3.10937,-2.50312 6.57228,-4.71206 10.33093,-6.05607 4.30153,-1.53813 8.97212,-2.31088 13.53709,-2.13743 4.63385,0.17607 9.30326,1.31453 13.53709,3.20615 3.79702,1.69646 7.20214,4.28657 10.24187,7.12478 2.11458,1.97439 3.93873,4.29107 5.43265,6.76854 2.00486,3.32479 0.82636,9.91418 4.63111,10.68718 3.3747,0.68562 5.83841,-4.09815 7.48102,-7.12479 1.31089,-2.41542 2.28111,-5.46545 1.51402,-8.10444 -0.83839,-2.88425 -4.80077,-3.90444 -6.14513,-6.59042 -1.74744,-3.4913 0.21336,-8.36135 -2.06998,-11.52822 -2.26922,-3.14729 -7.18111,-3.15915 -10.22027,-5.57126 -2.58567,-2.05219 -3.95661,-5.40193 -6.59042,-7.39196 -3.47463,-2.62533 -7.47745,-4.88718 -11.75589,-5.69983 -6.14244,-1.1667 -12.83958,-0.74671 -18.70256,1.42496 -4.42094,1.63753 -8.3233,4.79919 -11.39965,8.37162 -1.6637,1.93198 -2.84557,4.32179 -3.56239,6.76854 -0.58639,2.00155 1.02008,4.84358 -0.53436,6.23419 -1.72632,1.54438 -4.80125,-1.05135 -6.94666,-0.17812 -2.91667,1.18716 -5.088,4.00104 -6.59043,6.76854 -1.53936,2.83553 -2.30818,6.21843 -2.13743,9.44034 0.14607,2.75619 1.07705,5.58455 2.67179,7.83726 1.44124,2.03587 3.50074,5.38662 5.87795,4.63111 z"
         id="path1"
         sodipodi:nodetypes="aaaaaaaaaaaaaaaaaaaaaaaaa" /><path
         style="fill:#ffffff;fill-opacity:1;stroke:#808080;stroke-width:5.66929;stroke-linecap:round;stroke-linejoin:round;stroke-dasharray:none;stroke-opacity:1"
         d="m 279.64773,199.49391 c 1.66676,-4.17492 -7.3835,-5.7619 -9.17316,-9.88563 -2.00238,-4.61389 -2.05011,-10.11811 -1.06872,-15.0511 0.73828,-3.71101 2.3726,-7.50593 5.07641,-10.15282 2.22996,-2.18302 5.36419,-3.62036 8.46068,-4.00769 4.44255,-0.5557 9.90555,5.63518 13.18085,2.58273 2.12265,-1.97822 -2.11478,-5.93237 -1.06872,-8.6388 0.80447,-2.08138 2.90749,-3.83944 5.07641,-4.36392 2.22557,-0.53818 4.83912,2.96538 6.67948,1.60307 2.74904,-2.03496 -0.26875,-6.94 0.62342,-10.24187 1.032,-3.81938 2.824,-7.54782 5.34359,-10.59812 2.66218,-3.22293 6.15671,-5.86038 9.93017,-7.65914 3.42869,-1.63442 7.30146,-2.92692 11.08794,-2.62726 2.43343,0.19258 4.97624,1.13431 6.77152,2.78828 1.56043,1.43761 2.0719,3.71296 2.89684,5.66773 1.04245,2.47017 0.0843,6.63267 2.57736,7.61928 2.48838,0.98478 4.54491,-2.92838 7.08025,-3.78504 3.96173,-1.33861 8.27213,-2.77169 12.38356,-2.00797 4.01408,0.74564 7.63708,3.34144 10.57977,6.17152 2.27676,2.18963 4.16012,4.97442 5.0905,7.99311 1.41716,4.59808 -2.75835,10.83779 0.4453,14.42768 2.19716,2.46206 6.83259,-0.0256 9.79658,1.42496 2.88534,1.41204 4.97974,4.13974 6.94666,6.67948 1.81499,2.34357 3.60099,4.88386 4.36393,7.7482 0.99335,3.72935 1.08198,7.84831 0.0891,11.57778 -0.6366,2.39123 -2.08754,4.57086 -3.74051,6.4123 -3.10556,3.45965 -12.64146,3.85565 -11.22153,8.28256 1.80453,5.62598 12.00055,1.73782 17.72289,0.26718 6.12398,-1.57387 12.00995,-4.92213 16.4787,-9.39544 3.72078,-3.72458 6.72573,-8.57646 7.80888,-13.7285 0.84229,-4.00637 1.01751,-8.81481 -1.2595,-12.21711 -1.72384,-2.57575 -7.15251,-1.4865 -8.18672,-4.40823 -1.30608,-3.6898 3.71162,-7.00495 4.53418,-10.83167 0.97969,-4.55773 1.82927,-9.55027 0.37785,-13.9804 -1.40665,-4.29347 -4.33321,-8.56645 -8.31267,-10.70571 -3.41187,-1.83414 -7.77769,-1.58258 -11.58736,-0.88165 -2.32731,0.42819 -4.33455,4.1347 -6.42342,3.02279 -3.41213,-1.81627 -0.0545,-7.99422 -1.7633,-11.46141 -0.59072,-1.19856 -1.70934,-2.08528 -2.77089,-2.89684 -1.74618,-1.33496 -4.61708,-1.29216 -5.79368,-3.14873 -1.98088,-3.12565 0.48957,-7.55643 -0.62975,-11.08356 -1.75128,-5.518507 -5.06487,-10.677942 -9.19431,-14.7361 -4.71424,-4.632867 -10.6518,-8.372347 -17.00319,-10.201914 -7.8685,-2.26658 -16.68596,-2.750448 -24.56017,-0.503798 -7.70419,2.19814 -14.74699,7.184951 -20.15192,13.098753 -3.87699,4.242003 -6.33267,9.759091 -8.06078,15.239899 -0.30535,0.96844 0.43813,2.41838 -0.37784,3.02278 -1.78037,1.31875 -4.33404,-1.10088 -6.54938,-1.13354 -2.37467,-0.035 -4.97495,-0.14187 -7.05318,1.00759 -3.12814,1.73017 -5.43755,4.93717 -6.92722,8.18673 -1.116,2.43444 -1.20955,5.25723 -1.2595,7.93482 -0.0457,2.45227 2.67908,5.63625 0.88165,7.30507 -2.13917,1.98611 -5.67423,-1.61665 -8.59231,-1.69063 -4.97761,-0.1262 -10.35434,-0.13662 -14.78392,2.13743 -4.7629,2.44517 -8.63734,6.84086 -11.13248,11.57778 -2.52886,4.80093 -4.01799,10.56382 -3.29521,15.9417 0.47925,3.5659 5.21684,6.03462 4.89829,9.61845 -0.21763,2.44843 -3.76242,3.51887 -4.45299,5.87795 -1.27165,4.3441 -0.8896,9.45624 1.06872,13.53709 1.48104,3.08627 4.71617,5.01726 7.48102,7.03572 3.75644,2.74236 7.66407,5.74584 12.20119,6.76854 2.75667,0.62137 7.41289,2.09005 8.46064,-0.53436 z"
         id="path2"
         sodipodi:nodetypes="aaaaaaaaaaaaaaaaaaaaaaaaaaaaaaaaaaaaaaaaaaaaaaaaaaaaaaaaaaaaaa" /><path
         style="fill:#ffffff;fill-opacity:1;stroke:#808080;stroke-width:5.66929;stroke-linecap:round;stroke-linejoin:round;stroke-dasharray:none;stroke-opacity:1"
         d="m 277.59283,114.61409 c 3.95371,-2.70174 2.88921,-9.48601 6.17152,-12.9728 3.15561,-3.352202 7.79519,-5.020107 12.09116,-6.675325 3.42089,-1.318051 9.08432,0.768991 10.70571,-2.518991 1.44605,-2.932411 -1.40778,-6.989965 -4.03038,-8.942418 -2.03842,-1.517551 -5.09818,-1.649793 -7.55698,-1.007597 -2.03103,0.530468 -2.9474,3.968033 -5.03798,3.778487 -2.27826,-0.206561 -2.55105,-4.152036 -4.66013,-5.037982 -2.6719,-1.122364 -6.04516,-0.93166 -8.69052,0.251899 -3.00898,1.346248 -5.68538,4.07733 -6.80128,7.179125 -0.84044,2.336115 1.82145,5.326845 0.5038,7.431023 -1.12959,1.803854 -4.58816,0.732609 -5.91963,2.393042 -2.07687,2.589997 -2.28624,6.568237 -1.63734,9.824067 0.54191,2.719 1.9364,5.79751 4.40823,7.05317 3.11485,1.5823 7.56928,1.21543 10.45382,-0.7557 z"
         id="path3"
         sodipodi:nodetypes="aaaaaaaaaaaaaaa" /><path
         style="fill:#ffffff;fill-opacity:1;stroke:#808080;stroke-width:5.66929;stroke-linecap:round;stroke-linejoin:round;stroke-dasharray:none;stroke-opacity:1"
         d="m 396.22699,100.28132 c -0.95239,-1.881013 -0.38063,-4.702959 1.06871,-6.234187 1.46534,-1.548136 4.22828,-2.146267 6.23419,-1.424956 0.91635,0.329512 0.80873,2.264594 1.78119,2.315554 1.67755,0.08791 1.86428,-3.168918 3.47334,-3.651451 2.39348,-0.71777 5.34493,0.139612 7.3029,1.692136 1.7373,1.377551 2.59965,3.775951 2.93897,5.967005 0.30328,1.958329 -1.59396,4.025289 -0.8906,5.877939 0.41148,1.08382 2.16284,1.18489 2.6718,2.2265 1.18665,2.42854 1.51958,5.70915 0.26718,8.10444 -0.83556,1.59806 -2.81257,2.42823 -4.54205,2.93897 -1.65132,0.48766 -3.93265,1.20201 -5.16547,0 -1.67973,-1.63774 0.67173,-4.84907 -0.17812,-7.03572 -1.09766,-2.82426 -3.51011,-5.0842 -5.96701,-6.8576 -2.06086,-1.48754 -4.72511,-1.88022 -7.03572,-2.93898 -0.66382,-0.30417 -1.62947,-0.3282 -1.95931,-0.97965 z"
         id="path4"
         sodipodi:nodetypes="aaaaaaaaaaaaaaaa" /><path
         style="fill:#ffffff;fill-opacity:1;stroke:#808080;stroke-width:5.66929;stroke-linecap:round;stroke-linejoin:round;stroke-dasharray:none;stroke-opacity:1"
         d="m 442.52377,151.26541 c -2.1842,-0.8158 -5.25415,-1.3045 -6.9902,0.2519 -1.40583,1.26035 -1.53847,3.85927 -0.81868,5.60476 0.6002,1.45547 3.08153,1.42216 3.77849,2.83386 0.92003,1.86354 -1.14139,4.45791 -0.063,6.23451 0.81837,1.34823 2.64215,2.14358 4.21931,2.14114 2.07477,-0.003 4.62347,-0.97339 5.54178,-2.83387 0.67063,-1.35869 -0.15739,-3.10795 -0.81868,-4.47121 -0.51281,-1.05715 -1.95383,-1.53184 -2.33006,-2.64494 -0.47841,-1.41543 0.86181,-3.08082 0.31487,-4.47121 -0.473,-1.20244 -1.62338,-2.19283 -2.83383,-2.64494 z"
         id="path5"
         sodipodi:nodetypes="aaaaaaaaaaa" /></g><g
       id="g20"
       inkscape:label="oil on water"
       transform="translate(-135.48443,-265.70377)"
       style="display:inline"><path
         style="display:inline;fill:#a3c8e2;fill-opacity:1;stroke:#73a6e3;stroke-width:5.66929;stroke-linecap:round;stroke-linejoin:round;stroke-dasharray:none;stroke-opacity:1;paint-order:fill markers stroke"
         d="m 638.81616,603.29837 c -1.34276,0.82492 -2.82788,1.73619 -3.5266,3.14874 -0.4854,0.9813 -0.48746,2.20554 -0.2519,3.27469 0.25883,1.17477 0.84878,2.36724 1.7633,3.14874 3.11699,2.66362 7.76381,3.51977 7.87209,7.03792 0.10012,3.25285 -1.41659,3.92266 -6.86449,6.94248 -2.08784,1.15731 -4.31314,2.06157 -6.54938,2.89684 -2.67468,0.99903 -5.42087,1.81047 -8.18673,2.51899 -2.82356,0.7233 -5.71722,1.14016 -8.56457,1.7633 -2.90495,0.63574 -5.85333,1.12453 -8.69051,2.01519 -2.58849,0.81259 -5.19472,1.68852 -7.55698,3.0228 -1.69617,0.95805 -3.49134,1.96813 -4.66013,3.52658 -0.56606,0.75478 -0.9515,1.70316 -1.0076,2.64495 -0.0618,1.03677 0.1671,2.16707 0.7557,3.02278 1.16172,1.68891 3.22002,2.57947 5.03798,3.52659 2.93293,1.528 6.11391,2.59063 9.32027,3.40064 3.66113,0.9249 7.45885,1.19928 11.20951,1.63734 4.77202,0.55735 9.55767,1.0664 14.35825,1.2595 5.915,0.23792 11.85757,0.34104 17.7589,-0.12595 5.29163,-0.41874 10.48607,-1.66222 15.74369,-2.39304 4.98758,-0.69328 9.97082,-1.45967 14.988,-1.88924 10.16634,-1.35338 19.83847,-3.31362 25.81504,6.43293 4.75334,13.38159 18.85849,17.43961 31.61623,19.59315 5.98651,0.93238 12.10953,0.55169 18.16819,0.53436 10.61834,-0.0304 21.25007,-0.28285 31.83551,-1.11863 18.73246,-1.47903 47.25944,-5.53324 60.20388,-10.07597 20.392,-7.15638 35.08059,-19.42071 25.94561,-32.74689 -9.13498,-13.32618 -22.06736,-18.65979 -35.01397,-24.68612 -11.51437,-5.35966 -24.37869,-7.2824 -36.84866,-9.6921 -14.21401,-2.74673 -30.34725,-4.22443 -43.09434,-5.3965 -14.80092,-1.36092 -29.66695,-2.20457 -44.52989,-2.31555 -16.0413,-0.11978 -32.16211,-0.10759 -48.09228,1.78119 -7.15754,0.84864 -14.2813,2.24157 -21.19623,4.27487 -2.66408,0.78336 -5.39186,1.58185 -7.75789,3.03542 z"
         id="path16"
         sodipodi:nodetypes="aaasasaaaaaaaaaaaaaaaaaaaasaasaaaa" /><path
         style="display:inline;fill:#f5ff80;fill-opacity:1;stroke:#72a6e3;stroke-width:5.66929;stroke-linecap:round;stroke-linejoin:round;stroke-dasharray:none;stroke-opacity:0;paint-order:fill markers stroke"
         d="m 869.05193,634.65982 c 7.36909,9.20636 0.58233,15.25211 -3.02279,18.2627 -4.81647,4.02217 -11.23891,5.6452 -17.12913,7.80887 -5.48897,2.01628 -11.15585,3.57781 -16.87724,4.78608 -5.89053,1.24399 -11.88858,1.97975 -17.88484,2.51899 -6.36074,0.57202 -12.83285,1.73117 -19.14433,0.7557 -5.38099,-0.83166 -12.20044,-1.11155 -15.36585,-5.54178 -3.02688,-4.23634 -2.9043,-11.13742 -0.2519,-15.61775 3.48243,-5.88239 15.63771,-3.20942 18.13674,-9.57217 1.30087,-3.31212 -1.06614,-7.50524 -3.52659,-10.07597 -5.62772,-5.87996 -18.26575,-2.22442 -22.67092,-9.06836 -1.95628,-3.0393 -2.01128,-8.23577 0.5038,-10.83167 6.73965,-6.95622 19.33514,-3.27318 28.9684,-2.26708 14.61011,1.52588 28.89053,6.3909 42.27583,12.44215 9.33411,4.21977 19.58755,8.40305 25.98882,16.40029 z"
         id="path18"
         sodipodi:nodetypes="aaaaaaaaaaaaaaa" /><path
         style="display:inline;fill:#f5ff80;fill-opacity:1;stroke:#72a6e3;stroke-width:5.66929;stroke-linecap:round;stroke-linejoin:round;stroke-dasharray:none;stroke-opacity:0;paint-order:fill markers stroke"
         d="m 649.67631,612.43096 c -0.5398,3.19381 3.43487,6.0613 2.93897,9.26222 -0.56745,3.66273 -3.43705,6.87378 -6.4123,9.08409 -5.7272,4.25474 -17.61589,0.16031 -20.30564,6.76855 -1.22134,3.00061 1.60496,7.09477 4.453,8.6388 6.45318,3.49852 14.59449,-1.60566 21.90871,-2.22649 10.43641,-0.88585 20.88249,-2.53089 31.34904,-2.13743 8.17435,0.30729 16.53412,0.89996 24.28909,3.5028 6.61575,2.22049 11.34962,10.08145 18.32797,10.118 7.43839,0.039 15.0114,-4.76325 19.64813,-10.57977 3.1491,-3.95037 6.27066,-10.08208 4.03038,-14.61015 -3.09071,-6.24695 -14.44856,-2.89996 -19.39623,-7.80888 -4.38338,-4.34905 -2.09141,-13.45364 -7.05317,-17.12914 -11.48251,-8.50585 -61.13599,-3.88531 -69.02036,0.7557 -2.28198,1.34325 -4.3163,3.75075 -4.75759,6.3617 z"
         id="path19"
         sodipodi:nodetypes="aaaaaaaaaaaaaaa" /><path
         style="fill:#ffffff;fill-opacity:1;stroke:#194980;stroke-width:5.66929;stroke-linecap:round;stroke-linejoin:round;stroke-dasharray:none;stroke-opacity:0;paint-order:fill markers stroke"
         d="m 822.51097,663.31225 c 6.09922,4.91108 21.27651,-1.67114 31.15092,-5.3439 4.69938,-1.74793 9.47782,-4.08346 12.88373,-7.76303 2.25323,-2.43428 4.97411,-5.61675 4.46303,-8.89418 -0.50614,-3.24574 -3.76755,-8.05894 -6.89187,-7.04423 -2.76699,0.89865 0.13761,6.09015 -1.27324,8.63442 -2.42807,4.37866 -7.06351,7.30383 -11.44377,9.72901 -5.3303,2.95119 -11.73372,3.34422 -17.42521,5.51874 -3.91489,1.49574 -17.5628,0.25209 -11.46359,5.16317 z"
         id="path20"
         sodipodi:nodetypes="saaaaaaas" /></g><g
       id="g22"
       inkscape:label="puddle"
       transform="translate(590.45152,-499.76784)"><path
         style="display:inline;fill:#a3c8e2;fill-opacity:1;stroke:#73a6e3;stroke-width:5.66929;stroke-linecap:round;stroke-linejoin:round;stroke-dasharray:none;stroke-opacity:1;paint-order:fill markers stroke"
         d="m 457.41149,1110.5734 c 0.61519,-5.1495 11.98627,-3.9484 11.96521,-8.4386 -0.4992,-1.3788 -2.60437,-1.4215 -4.03039,-1.7633 -7.03408,-1.6859 -14.43037,-1.1879 -21.66332,-1.2595 -9.8728,-0.098 -19.76941,0.1967 -29.59815,1.1335 -3.59378,0.3425 -7.14684,1.0316 -10.70571,1.6374 -7.14725,1.2167 -14.46712,1.8168 -21.37722,4.0109 -6.65973,2.1146 -14.41905,3.5032 -19.05879,8.7278 -1.15953,1.3057 -2.03071,3.2943 -1.60308,4.9874 0.50388,1.995 2.66161,3.2626 4.45299,4.2749 5.35419,3.0256 11.79993,3.5142 17.81196,4.8092 10.52497,2.2671 21.29312,3.2262 31.8834,5.1654 8.16649,1.4954 16.60195,2.1447 24.40238,4.9874 3.25328,0.9688 7.96672,2.7225 6.59042,6.9466 -0.70416,1.4704 -2.61486,1.9922 -4.09675,2.6719 -5.1661,2.3696 -14.78613,-0.7085 -16.37651,4.7481 -1.36612,4.6872 5.36393,8.7029 9.67306,10.9979 20.96043,11.1635 46.90186,9.4458 70.64838,9.1907 23.76076,-0.2552 62.60021,-9.2084 78.01637,-19.5932 4.04149,-2.7225 8.26616,-6.1235 9.9747,-10.6871 1.20813,-3.227 1.26507,-7.2906 -0.35624,-10.331 -2.48119,-4.653 -7.99149,-7.1533 -12.82461,-9.2622 -10.54423,-4.6009 -22.40459,-5.5363 -33.84272,-6.7685 -15.45094,-1.6645 -82.0748,-0.6601 -86.92235,-2.4937 -1.42278,-0.6825 -3.15021,-2.1252 -2.96303,-3.692 z"
         id="path21"
         sodipodi:nodetypes="aaaaaaaaaaaaaaaaaaaaaaaaa"
         transform="translate(-135.48443,-265.70376)" /><path
         style="fill:#ffffff;fill-opacity:1;stroke:#f5f8fd;stroke-width:5.66929;stroke-linecap:round;stroke-linejoin:round;stroke-dasharray:none;stroke-opacity:1;paint-order:fill markers stroke"
         d="m 371.37931,899.41478 -11.75589,0.8906 -25.20392,-0.97966 -15.58547,-1.95932"
         id="path22" /></g><g
       id="g62"
       inkscape:label="garden"><path
         style="fill:#008000;fill-opacity:0;stroke:#2b772d;stroke-width:5.66929;stroke-linecap:round;stroke-linejoin:round;stroke-dasharray:none;stroke-opacity:1;paint-order:fill markers stroke"
         d="m 217.64084,608.58825 35.26587,-2.01519 44.33425,1.0076 60.45578,-3.02279 h 53.40261 l 87.66089,3.02279 68.51656,-1.0076 91.69129,6.04558 66.50136,-7.05317 64.48617,3.02278 112.8508,-2.01519 96.72926,2.01519 58.44062,-4.03038"
         id="path23" /><path
         style="fill:#008000;fill-opacity:0;stroke:#2b772d;stroke-width:5.66929;stroke-linecap:round;stroke-linejoin:round;stroke-dasharray:none;stroke-opacity:1;paint-order:fill markers stroke"
         d="m 279.35612,571.30719 7.80887,9.06836 3.27469,25.44181"
         id="path29" /><path
         style="fill:#008000;fill-opacity:0;stroke:#2b772d;stroke-width:5.66929;stroke-linecap:round;stroke-linejoin:round;stroke-dasharray:none;stroke-opacity:1;paint-order:fill markers stroke"
         d="m 307.06502,576.34517 -7.80887,-2.01519 -6.29748,29.47219"
         id="path30" /><path
         style="fill:#008000;fill-opacity:0;stroke:#2b772d;stroke-width:5.66929;stroke-linecap:round;stroke-linejoin:round;stroke-dasharray:none;stroke-opacity:1;paint-order:fill markers stroke"
         d="m 268.52446,593.47431 9.32027,-4.78608 11.33546,14.35824"
         id="path31" /><path
         style="fill:#008000;fill-opacity:0;stroke:#2b772d;stroke-width:5.66929;stroke-linecap:round;stroke-linejoin:round;stroke-dasharray:none;stroke-opacity:1;paint-order:fill markers stroke"
         d="m 318.40048,593.22241 -13.60255,-1.5114 -9.32027,13.09876"
         id="path32" /><path
         style="fill:#008000;fill-opacity:0;stroke:#2b772d;stroke-width:5.66929;stroke-linecap:round;stroke-linejoin:round;stroke-dasharray:none;stroke-opacity:1;paint-order:fill markers stroke"
         d="m 345.10179,590.95532 4.53418,-6.54938 h 6.80128 l 3.27469,17.38104"
         id="path33" /><path
         style="fill:#008000;fill-opacity:0;stroke:#2b772d;stroke-width:5.66929;stroke-linecap:round;stroke-linejoin:round;stroke-dasharray:none;stroke-opacity:1;paint-order:fill markers stroke"
         d="m 374.32208,575.08567 -8.06077,-6.80127 -4.03038,32.74688"
         id="path36" /><path
         style="fill:#008000;fill-opacity:0;stroke:#2b772d;stroke-width:5.66929;stroke-linecap:round;stroke-linejoin:round;stroke-dasharray:none;stroke-opacity:1;paint-order:fill markers stroke"
         d="m 382.13096,590.95532 -7.55698,-2.51899 -9.32026,12.34305"
         id="path37" /><path
         style="fill:#008000;fill-opacity:0;stroke:#2b772d;stroke-width:5.66929;stroke-linecap:round;stroke-linejoin:round;stroke-dasharray:none;stroke-opacity:1;paint-order:fill markers stroke"
         d="m 323.43846,641.33515 12.59496,-0.5038 5.54178,13.09875 4.53418,16.62535"
         id="path38" /><path
         style="fill:#008000;fill-opacity:0;stroke:#2b772d;stroke-width:5.66929;stroke-linecap:round;stroke-linejoin:round;stroke-dasharray:none;stroke-opacity:1;paint-order:fill markers stroke"
         d="m 356.18535,626.22119 -5.54178,24.18233 -1.5114,18.13673"
         id="path39" /><path
         style="fill:#008000;fill-opacity:0;stroke:#2b772d;stroke-width:5.66929;stroke-linecap:round;stroke-linejoin:round;stroke-dasharray:none;stroke-opacity:1;paint-order:fill markers stroke"
         d="m 372.30689,643.85414 -12.59495,3.52659 -9.06837,24.18231"
         id="path40" /><path
         style="fill:#008000;fill-opacity:0;stroke:#2b772d;stroke-width:5.66929;stroke-linecap:round;stroke-linejoin:round;stroke-dasharray:none;stroke-opacity:1;paint-order:fill markers stroke"
         d="m 884.18555,574.2575 17.09948,2.13743 8.1935,29.21161"
         id="path41" /><path
         style="fill:#008000;fill-opacity:0;stroke:#2b772d;stroke-width:5.66929;stroke-linecap:round;stroke-linejoin:round;stroke-dasharray:none;stroke-opacity:1;paint-order:fill markers stroke"
         d="m 935.12775,588.15082 -7.12478,-7.83726 -6.41231,4.98735 -10.33093,18.52443"
         id="path42" /><path
         style="fill:#008000;fill-opacity:0;stroke:#2b772d;stroke-width:5.66929;stroke-linecap:round;stroke-linejoin:round;stroke-dasharray:none;stroke-opacity:1;paint-order:fill markers stroke"
         d="m 915.89084,557.15802 -4.98735,42.39245"
         id="path43" /><path
         style="fill:#008000;fill-opacity:0;stroke:#2b772d;stroke-width:5.66929;stroke-linecap:round;stroke-linejoin:round;stroke-dasharray:none;stroke-opacity:1;paint-order:fill markers stroke"
         d="m 883.47307,591.35697 11.39966,-2.84991 8.90598,14.96204"
         id="path44" /><path
         style="fill:#008000;fill-opacity:0;stroke:#2b772d;stroke-width:5.66929;stroke-linecap:round;stroke-linejoin:round;stroke-dasharray:none;stroke-opacity:1;paint-order:fill markers stroke"
         d="m 972.58248,606.06926 -4.28229,-17.63293 -9.82406,-8.31267 -10.57977,9.06836"
         id="path45" /><path
         style="fill:#008000;fill-opacity:0;stroke:#2b772d;stroke-width:5.66929;stroke-linecap:round;stroke-linejoin:round;stroke-dasharray:none;stroke-opacity:1;paint-order:fill markers stroke"
         d="m 976.86476,605.81736 -9.57217,-38.03676 -8.31267,-7.55697"
         id="path46" /><path
         style="fill:#008000;fill-opacity:0;stroke:#2b772d;stroke-width:5.66929;stroke-linecap:round;stroke-linejoin:round;stroke-dasharray:none;stroke-opacity:1;paint-order:fill markers stroke"
         d="m 980.13945,604.30597 8.56457,-23.93042 8.06077,-1.76329 4.78611,12.09116"
         id="path47" /><path
         style="fill:#008000;fill-opacity:0;stroke:#2b772d;stroke-width:5.66929;stroke-linecap:round;stroke-linejoin:round;stroke-dasharray:none;stroke-opacity:1;paint-order:fill markers stroke"
         d="m 977.62046,603.29837 4.53418,-37.02917"
         id="path48" /><path
         style="fill:#008000;fill-opacity:0;stroke:#2b772d;stroke-width:5.66929147;stroke-linecap:round;stroke-linejoin:round;stroke-dasharray:none;stroke-opacity:1;paint-order:fill markers stroke"
         d="m 849.82234,659.79416 -7.73301,-20.94358 -13.53278,0.64442 -4.51092,5.47755"
         id="path49" /><path
         style="fill:#008000;fill-opacity:0;stroke:#2b772d;stroke-width:5.66929147;stroke-linecap:round;stroke-linejoin:round;stroke-dasharray:none;stroke-opacity:1;paint-order:fill markers stroke"
         d="m 853.04443,660.11637 9.98847,-18.68812 15.14382,3.5443"
         id="path50" /><path
         style="fill:#008000;fill-opacity:0;stroke:#2b772d;stroke-width:5.66929147;stroke-linecap:round;stroke-linejoin:round;stroke-dasharray:none;stroke-opacity:1;paint-order:fill markers stroke"
         d="m 852.72222,659.47195 -4.83314,-38.66508"
         id="path51" /><path
         style="fill:#008000;fill-opacity:0;stroke:#2b772d;stroke-width:5.66929147;stroke-linecap:round;stroke-linejoin:round;stroke-dasharray:none;stroke-opacity:1;paint-order:fill markers stroke"
         d="m 906.88526,659.9654 14.58151,5.46807 9.11345,17.31554"
         id="path52" /><path
         style="fill:#008000;fill-opacity:0;stroke:#2b772d;stroke-width:5.66929147;stroke-linecap:round;stroke-linejoin:round;stroke-dasharray:none;stroke-opacity:1;paint-order:fill markers stroke"
         d="m 927.83245,683.19095 -13.2145,-7.5186 -20.04958,10.25262"
         id="path53" /><path
         style="fill:#008000;fill-opacity:0;stroke:#2b772d;stroke-width:5.66929147;stroke-linecap:round;stroke-linejoin:round;stroke-dasharray:none;stroke-opacity:1;paint-order:fill markers stroke"
         d="m 934.11167,684.22994 3.7593,-19.47998 9.11344,-16.29029"
         id="path54" /><path
         style="fill:#008000;fill-opacity:0;stroke:#2b772d;stroke-width:5.66929147;stroke-linecap:round;stroke-linejoin:round;stroke-dasharray:none;stroke-opacity:1;paint-order:fill markers stroke"
         d="m 937.4153,682.52118 9.11344,-10.93614 15.49286,6.03766"
         id="path55" /><path
         style="fill:#008000;fill-opacity:0;stroke:#2b772d;stroke-width:5.66929147;stroke-linecap:round;stroke-linejoin:round;stroke-dasharray:none;stroke-opacity:1;paint-order:fill markers stroke"
         d="m 435.98483,674.13997 -8.5194,-14.48297 -16.52763,9.20095"
         id="path56" /><path
         style="fill:#008000;fill-opacity:0;stroke:#2b772d;stroke-width:5.66929147;stroke-linecap:round;stroke-linejoin:round;stroke-dasharray:none;stroke-opacity:1;paint-order:fill markers stroke"
         d="M 437.34794,674.48075 434.28095,650.96722 425.08,641.42549"
         id="path57" /><path
         style="fill:#008000;fill-opacity:0;stroke:#2b772d;stroke-width:5.66929147;stroke-linecap:round;stroke-linejoin:round;stroke-dasharray:none;stroke-opacity:1;paint-order:fill markers stroke"
         d="m 439.73336,673.28804 6.30436,-18.23152 13.29026,-7.15629"
         id="path58" /><path
         style="fill:#008000;fill-opacity:0;stroke:#2b772d;stroke-width:5.66929147;stroke-linecap:round;stroke-linejoin:round;stroke-dasharray:none;stroke-opacity:1;paint-order:fill markers stroke"
         d="m 440.75569,675.50308 8.86017,-9.37133 14.48298,0.17038"
         id="path59" /><path
         style="fill:#008000;fill-opacity:0;stroke:#2b772d;stroke-width:5.66929;stroke-linecap:round;stroke-linejoin:round;stroke-dasharray:none;stroke-opacity:1;paint-order:fill markers stroke"
         d="m 475.93549,620.92482 -10.68717,-35.62391 -11.04341,5.34359 -4.98735,12.46837"
         id="path60" /><path
         style="fill:#008000;fill-opacity:0;stroke:#2b772d;stroke-width:5.66929;stroke-linecap:round;stroke-linejoin:round;stroke-dasharray:none;stroke-opacity:1;paint-order:fill markers stroke"
         d="m 478.78541,618.78739 0.71248,-41.67998 6.4123,-13.18085"
         id="path61" /><path
         style="fill:#008000;fill-opacity:0;stroke:#2b772d;stroke-width:5.66929;stroke-linecap:round;stroke-linejoin:round;stroke-dasharray:none;stroke-opacity:1;paint-order:fill markers stroke"
         d="m 480.92284,621.28106 13.53709,-26.36169 13.53709,4.27486 1.42495,16.03077"
         id="path62" /></g></g></svg>
