<?xml version="1.0" encoding="UTF-8" standalone="no"?>
<!-- Created with Inkscape (http://www.inkscape.org/) -->

<svg
   width="30.214676mm"
   height="43.53867mm"
   viewBox="0 0 114.1972 164.55561"
   version="1.1"
   id="svg1"
   xml:space="preserve"
   sodipodi:docname="stuff2.svg"
   inkscape:version="1.2.2 (732a01da63, 2022-12-09)"
   xmlns:inkscape="http://www.inkscape.org/namespaces/inkscape"
   xmlns:sodipodi="http://sodipodi.sourceforge.net/DTD/sodipodi-0.dtd"
   xmlns="http://www.w3.org/2000/svg"
   xmlns:svg="http://www.w3.org/2000/svg"><sodipodi:namedview
     id="namedview1"
     pagecolor="#505050"
     bordercolor="#eeeeee"
     borderopacity="1"
     inkscape:showpageshadow="0"
     inkscape:pageopacity="0"
     inkscape:pagecheckerboard="0"
     inkscape:deskcolor="#505050"
     inkscape:document-units="mm"
     inkscape:zoom="0.99246085"
     inkscape:cx="882.15067"
     inkscape:cy="155.67365"
     inkscape:window-width="1827"
     inkscape:window-height="1057"
     inkscape:window-x="-9"
     inkscape:window-y="-9"
     inkscape:window-maximized="1"
     inkscape:current-layer="g15"
     showgrid="false" /><defs
     id="defs1" /><g
     inkscape:label="Layer 1"
     inkscape:groupmode="layer"
     id="layer1"
     transform="translate(-569.28652,-59.280031)"><g
       id="g15"
       style="stroke-width:5.66929;stroke-dasharray:none"
       transform="translate(-118.06165,-29.43512)"
       inkscape:label="glass of water"
       inkscape:export-filename="water.svg"
       inkscape:export-xdpi="96"
       inkscape:export-ydpi="96"><g
         id="g13"
         inkscape:label="water"
         style="stroke-width:5.66929;stroke-dasharray:none"
         transform="translate(-2.7772631e-6)"><ellipse
           style="display:inline;fill:#c9ffff;fill-opacity:0.8;stroke:#000000;stroke-width:5.66929;stroke-linecap:round;stroke-linejoin:round;stroke-dasharray:none;stroke-opacity:1"
           id="ellipse14"
           cx="744.38007"
           cy="172.41974"
           rx="54.0051"
           ry="17.598093" /><path
           style="display:inline;fill:#c9ffff;fill-opacity:0.8;stroke:none;stroke-width:5.66929;stroke-linecap:round;stroke-linejoin:round;stroke-dasharray:none;stroke-opacity:1"
           d="m 728.3243,247.0312 c -19.77852,-1.48517 -33.13106,-6.47857 -35.12759,-13.13655 -0.29752,-0.99214 -0.41457,-8.44941 -0.41457,-26.4128 0,-13.76667 0.0626,-25.03032 0.139,-25.03032 0.0764,0 1.24183,0.64498 2.58975,1.43331 13.27381,7.76307 42.55011,11.2236 67.64114,7.99534 12.96749,-1.66843 24.72738,-5.35094 30.54125,-9.56374 l 1.78603,-1.29418 0.0916,25.90595 c 0.10176,28.76615 0.24806,26.90924 -2.33058,29.57951 -4.94622,5.12194 -15.80017,8.52005 -32.5888,10.20276 -5.03747,0.50489 -26.97596,0.72255 -32.32728,0.32072 z"
           id="path15" /></g><g
         id="g12"
         inkscape:label="glass"><path
           style="display:inline;fill:#ffffff;fill-opacity:0.5;stroke:#000000;stroke-width:5.66929;stroke-linecap:round;stroke-linejoin:round;stroke-dasharray:none;stroke-opacity:1"
           d="m 690.20357,111.8432 v 120.06849 c 0,0 -3.55723,18.52443 51.84256,18.52443 60.55082,0 56.64203,-19.23691 56.64203,-19.23691 V 110.43413 c 0,0 1.90435,-18.548893 -54.86083,-18.88067 -54.29489,-0.317339 -53.62376,20.28974 -53.62376,20.28974 z"
           id="path13"
           sodipodi:nodetypes="ccsccsc" /><ellipse
           style="display:inline;fill:#000000;fill-opacity:0;stroke:#000000;stroke-width:5.66929;stroke-linecap:round;stroke-linejoin:round;stroke-dasharray:none;stroke-opacity:1"
           id="path14"
           cx="744.18353"
           cy="110.0779"
           rx="53.241913"
           ry="17.617998" /></g></g></g></svg>
