<?xml version="1.0" encoding="UTF-8" standalone="no"?>
<!-- Created with Inkscape (http://www.inkscape.org/) -->

<svg
   width="540mm"
   height="1200mm"
   viewBox="0 0 540 1200"
   version="1.1"
   id="svg5"
   inkscape:version="1.3 (0e150ed6c4, 2023-07-21)"
   sodipodi:docname="mobile.svg"
   xmlns:inkscape="http://www.inkscape.org/namespaces/inkscape"
   xmlns:sodipodi="http://sodipodi.sourceforge.net/DTD/sodipodi-0.dtd"
   xmlns:xlink="http://www.w3.org/1999/xlink"
   xmlns="http://www.w3.org/2000/svg"
   xmlns:svg="http://www.w3.org/2000/svg">
  <sodipodi:namedview
     id="namedview7"
     pagecolor="#505050"
     bordercolor="#eeeeee"
     borderopacity="1"
     inkscape:showpageshadow="0"
     inkscape:pageopacity="0"
     inkscape:pagecheckerboard="0"
     inkscape:deskcolor="#505050"
     inkscape:document-units="mm"
     showgrid="false"
     inkscape:zoom="0.058462227"
     inkscape:cx="-111.1829"
     inkscape:cy="2232.2106"
     inkscape:window-width="1366"
     inkscape:window-height="745"
     inkscape:window-x="-8"
     inkscape:window-y="-8"
     inkscape:window-maximized="1"
     inkscape:current-layer="g11811" />
  <defs
     id="defs2">
    <linearGradient
       inkscape:collect="always"
       id="linearGradient4517">
      <stop
         style="stop-color:#3b6707;stop-opacity:1;"
         offset="0"
         id="stop4513" />
      <stop
         style="stop-color:#142607;stop-opacity:1;"
         offset="1"
         id="stop4515" />
    </linearGradient>
    <linearGradient
       id="linearGradient17"
       inkscape:collect="always">
      <stop
         style="stop-color:#ffaa00;stop-opacity:1;"
         offset="0"
         id="stop17" />
      <stop
         style="stop-color:#ffffff;stop-opacity:0.5;"
         offset="1"
         id="stop18" />
    </linearGradient>
    <radialGradient
       inkscape:collect="always"
       xlink:href="#linearGradient5"
       id="radialGradient16"
       cx="2694.0242"
       cy="1936.1962"
       fx="2694.0242"
       fy="1936.1962"
       r="863.61926"
       gradientTransform="matrix(-1.2953726,0.14072941,-0.11239288,-1.0345433,7001.9098,2565.6123)"
       gradientUnits="userSpaceOnUse" />
    <linearGradient
       id="linearGradient5"
       inkscape:collect="always">
      <stop
         style="stop-color:#ffff00;stop-opacity:1;"
         offset="0"
         id="stop6" />
      <stop
         style="stop-color:#285908;stop-opacity:1;"
         offset="1"
         id="stop7" />
    </linearGradient>
    <linearGradient
       inkscape:collect="always"
       xlink:href="#linearGradient19"
       id="linearGradient20"
       x1="3185.7378"
       y1="805.79657"
       x2="2983.4321"
       y2="1151.1737"
       gradientUnits="userSpaceOnUse"
       gradientTransform="translate(794.69962,-990.3913)" />
    <linearGradient
       id="linearGradient19"
       inkscape:collect="always">
      <stop
         style="stop-color:#4d1919;stop-opacity:1;"
         offset="0"
         id="stop19" />
      <stop
         style="stop-color:#081208;stop-opacity:1;"
         offset="1"
         id="stop20" />
    </linearGradient>
    <linearGradient
       inkscape:collect="always"
       xlink:href="#linearGradient1"
       id="linearGradient14"
       x1="3259.2869"
       y1="711.76373"
       x2="3535.5361"
       y2="446.92114"
       gradientUnits="userSpaceOnUse" />
    <linearGradient
       id="linearGradient1"
       inkscape:collect="always">
      <stop
         style="stop-color:#660000;stop-opacity:0.89999998;"
         offset="0"
         id="stop3" />
      <stop
         style="stop-color:#000000;stop-opacity:0.89999998;"
         offset="1"
         id="stop14" />
    </linearGradient>
    <linearGradient
       inkscape:collect="always"
       xlink:href="#linearGradient13710"
       id="linearGradient13712"
       x1="9.4173603"
       y1="-4.1626172"
       x2="6.311799"
       y2="35.973785"
       gradientUnits="userSpaceOnUse"
       spreadMethod="pad"
       gradientTransform="matrix(1.9570529,0.32674916,-0.32674916,1.9570529,101.76727,3.780861)" />
    <linearGradient
       inkscape:collect="always"
       id="linearGradient13710">
      <stop
         style="stop-color:#00aacc;stop-opacity:1;"
         offset="0"
         id="stop13706" />
      <stop
         style="stop-color:#152e51;stop-opacity:0.89999998;"
         offset="1"
         id="stop13708" />
    </linearGradient>
    <linearGradient
       inkscape:collect="always"
       xlink:href="#linearGradient2"
       id="linearGradient22"
       gradientUnits="userSpaceOnUse"
       x1="9.4173603"
       y1="-4.1626172"
       x2="7.2938223"
       y2="34.563839"
       spreadMethod="pad"
       gradientTransform="matrix(1.2449583,0.21410532,-0.21410532,1.2449583,89.960343,-91.845153)" />
    <linearGradient
       inkscape:collect="always"
       id="linearGradient2">
      <stop
         style="stop-color:#00aacc;stop-opacity:1;"
         offset="0"
         id="stop1" />
      <stop
         style="stop-color:#143052;stop-opacity:0.89999998;"
         offset="1"
         id="stop2" />
    </linearGradient>
    <linearGradient
       inkscape:collect="always"
       xlink:href="#linearGradient17"
       id="linearGradient4286"
       gradientUnits="userSpaceOnUse"
       x1="-57.946133"
       y1="532.73102"
       x2="809.02496"
       y2="1580.2668" />
    <linearGradient
       inkscape:collect="always"
       xlink:href="#linearGradient17"
       id="linearGradient4288"
       gradientUnits="userSpaceOnUse"
       x1="-57.946133"
       y1="532.73102"
       x2="809.02496"
       y2="1580.2668" />
    <radialGradient
       inkscape:collect="always"
       xlink:href="#linearGradient4517"
       id="radialGradient4519"
       cx="2246.0581"
       cy="700.15948"
       fx="2246.0581"
       fy="700.15948"
       r="741.80829"
       gradientTransform="matrix(0.98517542,1.6191754,-1.9432375,1.1823487,1130.2425,-3505.9871)"
       gradientUnits="userSpaceOnUse" />
  </defs>
  <g
     inkscape:label="Layer 1"
     inkscape:groupmode="layer"
     id="layer1"
     transform="translate(-25.601306,-31.144592)">
    <g
       id="g14"
       inkscape:label="earth"
       inkscape:groupmode="layer"
       inkscape:highlight-color="#16355b"
       transform="matrix(0.26458333,0,0,0.26458333,-806.59949,596.89284)">
      <g
         id="g4"
         style="display:inline;stroke-width:11.3386;stroke-dasharray:none"
         transform="translate(1094.724,-1163.1442)">
        <circle
           style="display:inline;fill:#143052;fill-opacity:1;stroke:#000000;stroke-width:11.3386;stroke-linecap:round;stroke-linejoin:bevel;stroke-dasharray:none;stroke-opacity:1"
           id="path2"
           cx="1920"
           cy="3220.4795"
           r="2505.1912" />
        <path
           style="display:inline;opacity:1;fill:url(#radialGradient16);fill-opacity:1;stroke:#000000;stroke-width:11.3386;stroke-linecap:round;stroke-linejoin:bevel;stroke-dasharray:none;stroke-opacity:1"
           d="m 3843.9746,1616.4698 c -30.888,76.6012 -73.0198,73.0539 -120.822,84.3213 -80.4136,18.9541 -174.2834,-78.5238 -245.2023,-36.1431 -79.3795,47.4368 -46.693,190.4076 -94.3841,260.8712 -46.7111,69.0157 -117.7759,131.4666 -198.5662,151.9121 -77.5079,19.6148 -165.3134,-1.9611 -236.8914,-37.5811 -89.5154,-44.5464 -170.0316,-119.2691 -216.1405,-207.9897 -40.4855,-77.9002 7.4637,-186.6586 -40.3914,-260.2615 -29.9527,-46.0684 -84.5338,-79.5532 -138.6297,-89.2018 -70.7558,-12.6201 -140.1572,61.6384 -210.4792,46.7906 -56.5212,-11.9339 -116.6158,-49.7583 -139.5292,-102.7869 -54.3036,-125.6744 68.5222,-272.2151 49.2281,-407.7535 -14.9867,-105.2798 -115.3795,-274.00108 -125.1004,-293.47205 672.1406,46.7086 1287.5469,371.33525 1716.9083,891.29445 z"
           id="path3"
           sodipodi:nodetypes="caasssaaaaaacc"
           class="UnoptimicedTransforms" />
        <path
           style="display:inline;opacity:1;fill:url(#radialGradient4519);fill-opacity:1;stroke:#000000;stroke-width:11.3386;stroke-linecap:round;stroke-linejoin:bevel;stroke-dasharray:none;stroke-opacity:1"
           d="m 3419.6962,1206.4558 c -103.8616,651.4511 -248.3289,858.7103 -462.9985,685.6083 -163.0213,-131.4548 -233.0727,-322.3215 -403.7507,-409.6669 -150.3622,-76.9487 -366.3325,70.9695 -500.7779,-77.3989 -86.708,-101.0444 -118.4484,-255.0479 -99.5276,-386.8442 16.1511,-112.50323 92.4893,-281.03068 174.4248,-292.97875 534.5988,28.57738 926.5113,230.67598 1292.6299,481.28045 z"
           id="path4369"
           sodipodi:nodetypes="csacacc"
           class="UnoptimicedTransforms"
           transform="rotate(57.900262,1919.5313,3217.876)" />
      </g>
      <path
         style="fill:#ffffff;fill-opacity:0.5;stroke:#f8ed23;stroke-width:8.1789;stroke-linecap:round;stroke-dasharray:none;stroke-opacity:0;paint-order:stroke markers fill"
         d="m 5003.0412,119.39604 c -29.4511,-41.167998 -105.7215,-77.980198 -144.7854,-45.790398 -28.7769,23.713 26.8112,76.615798 12.7202,111.139098 -21.6449,53.0309 -81.4106,84.2902 -133.4187,108.289 -62.9196,29.0338 -141.7442,8.2448 -204.4198,37.8013 -84.2626,39.7365 -123.059,159.684 -214.0413,179.719 -84.146,18.5296 -196.8222,-135.8981 -249.4662,-67.6888 -37.6299,48.756 40.3753,126.6347 91.9884,160.239 84.6634,55.1227 206.4648,66.1321 301.4236,31.6468 92.8933,-33.7351 65.0381,-129.8797 206.2867,-212.9574 96.9347,-57.0136 257.6881,10.9056 328.6197,-76.3618 47.5351,-58.4825 48.9422,-164.7413 5.0928,-226.0358 z"
         id="path15"
         sodipodi:nodetypes="aaaaaaaaasaa" />
      <path
         style="fill:#ffffff;fill-opacity:0.5;stroke:#f8ed23;stroke-opacity:0"
         d="m 3879.5615,-405.9923 c -13.7772,67.38049 -157.194,11.78691 -194.166,69.7784 -36.0286,56.51186 -16.4178,142.84862 18.2031,200.23368 35.5005,58.843 122.2574,65.8285 172.9291,112.2522 30.2795,27.7411002 69.6192,56.4919 75.846,97.083 3.9304,25.6214 -31.5482,47.2408 -27.3046,72.8122 5.999,36.1498 68.8412,48.3155 69.7785,84.9477 0.7398,28.9139 -23.6798,62.1365 -51.5754,69.7784 -47.6424,13.0514 -105.6666,-19.0682 -136.523,-57.6431 -32.0925,-40.1202 -2.6406,-106.6227 -27.3045,-151.6921 -27.1389,-49.5922 -72.5079,-92.8270998 -124.3876,-115.2861 -40.0032,-17.3176 -97.9812,19.9776002 -130.4553,-9.1015 -42.1152,-37.7123 -54.3808,-115.6963 -30.3384,-166.86142 15.7905,-33.60423 76.4486,-23.7416 97.083,-54.60918 32.8333,-49.11631 -21.6239,-135.30106 21.2369,-175.96293 54.4143,-51.62261 153.8041,-40.21485 224.5044,-15.16922 18.2115,6.45145 46.3441,20.5111 42.4738,39.43997 z"
         id="path8"
         sodipodi:nodetypes="aaaaaaaaaaaaaaaaa" />
    </g>
    <g
       id="g13"
       inkscape:label="volcano"
       style="display:inline"
       transform="matrix(0.33178207,0.02623067,-0.02623067,0.33178207,-951.10157,476.50595)"
       inkscape:groupmode="layer"
       inkscape:highlight-color="#ff5500">
      <path
         style="opacity:1;fill:url(#linearGradient20);fill-opacity:1;stroke:#000000;stroke-width:9.01395;stroke-linecap:round;stroke-linejoin:bevel;stroke-dasharray:none;stroke-opacity:1"
         d="m 3951.437,-239.55331 c 0,0 21.5834,-3.36334 32.1788,-1.60894 13.8537,2.29391 27.1103,8.32726 39.1508,15.55307 14.4651,8.68085 28.2538,19.40159 38.6146,32.71509 5.4996,7.06684 11.7989,24.13408 11.7989,24.13408 0,0 -17.8088,91.099993 -19.8436,137.296093 -1.4182,32.19717024 -2.9856,65.40802 5.3631,96.53632 8.4086,31.3516 43.4375,38.493697 51.6483,64.891797 4.8434,15.572 7.0565,36.2757 -3.3801,48.8065 -9.2126,11.0612 -27.0171,12.0738 -41.8324,10.7263 -14.8153,-1.3475 -27.359,-14.1713 -41.8324,-19.3073 -17.7342,-6.2932 -37.2171,-6.9932 -54.704,-13.9441 -6.8416,-2.7195 -12.4104,-13.3023 -19.3072,-10.7263 -7.8408,2.9286 -2.2105,18.1691 -8.581,23.5978 -11.9208,10.1584 -29.798,10.296 -46.1454,8.849 -16.3473,-1.447 -34.9408,-8.4239 -49.3183,-18.5027 -18.4817,-12.9558 -27.755,-52.6132 -43.9777,-51.486 -8.831,0.6136 -10.2404,15.5051 -18.2346,19.3073 -8.7417,4.1577 -20.2848,6.4381 -28.9609,2.1452 -8.7995,-4.354 -8.078,-18.9954 -16.0894,-24.6704 -13.5157,-9.573997 -33.0538,-5.251997 -48.2681,-11.798797 -12.1162,-5.2137 -33.2514,-21.4526 -33.2514,-21.4526 0,0 -21.5047,-21.4486 -22.5252,-35.3966 -1.0861,-14.8446 15.3189,-26.1638998 18.2347,-40.7597798 2.6626,-13.3279502 6.5155,-29.4840102 -1.0727,-40.7597802 -6.9724,-10.36077 -21.8419,-14.61945 -34.324,-15.01676 -12.5484,-0.39942 -23.0494,10.59818 -35.3966,12.87151 -22.8588,4.20868 -47.541,8.02226 -69.7207,1.07263 -16.3805,-5.13254 -33.9962,-14.76081 -41.8324,-30.03352 -5.8759,-11.45205 4.9783,-26.744713 0,-38.614533 -5.5249,-13.17321 -24.3377,-17.17978 -30.5698,-30.03352 -4.3151,-8.89982 -3.2179,-29.49721 -3.2179,-29.49721 0,0 55.7651,19.81915 84.7374,25.20671 44.7807,8.32722 90.6839,9.82942 136.2235,10.72626 27.3677,0.53897 54.8256,-0.42599 82.0558,-3.21788 19.4715,-1.9964 39.2015,-3.93726 57.9218,-9.65363 29.6871,-9.06518 84.7375,-38.61453 84.7375,-38.61453 z"
         id="path9"
         sodipodi:nodetypes="cssscssaazaaaazaasssacsassaaasscassscc" />
      <path
         style="opacity:1;fill:#ff0000;fill-opacity:1;stroke:#000000;stroke-width:9.01395;stroke-linecap:round;stroke-linejoin:bevel;stroke-dasharray:none;stroke-opacity:1"
         d="m 3980.6661,-243.03934 c -17.4956,-3.02818 -35.1909,3.59647 -47.9524,15.57255 -21.9821,16.18419 -42.5767,29.7403 -68.6309,39.35615 -19.368,9.52829 -61.9886,0.55889 -76.1309,22.97888 -4.8808,7.73748 -3.5234,22.16162 4.1597,27.12762 14.8676,9.60983 38.7381,-9.49137 51.1703,-14.21806 23.9486,-10.76395 41.2258,-15.71762 67.304,-19.81058 17.4079,-1.43251 21.3889,12.67585 11.4128,22.63632 -15.4064,22.06654 -38.337,35.06717 -54.7144,56.376103 -16.584,18.0855 -54.4605,49.71588 -47.7041,80.02774 2.3229,10.4211202 15.9809,19.5722202 26.5328,17.9435302 34.6384,-5.34641996 39.9503,-54.9846502 65.2847,-82.4229402 20.5915,-22.22282 26.4791,-28.128513 53.9546,-40.939423 14.4185,-6.72287 27.1233,4.34073 23.3108,19.120783 -6.2199,24.11327 -19.9817,55.80983 -21.7082,80.65721 -1.0882,15.6621602 -2.8773,39.95276 11.1081,40.49116 26.4782,1.0194 14.2839,-51.49533 26.8626,-74.81727 6.912,-12.8154 11.7767,-36.54798 26.2457,-34.91781 18.713,2.10833 4.3266,53.6437 23.0446,51.58049 21.8462,-2.40802 9.9632,-42.86539 13.1381,-64.613393 2.2421,-15.35802 -0.1819,-22.07429 4.1538,-46.37679 4.8306,-14.50331 3.6721,-31.28973 -6.6467,-43.20556 -20.6117,-26.43578 -50.7516,-47.12361 -84.195,-52.54671 z"
         id="path11"
         sodipodi:nodetypes="cccaaccccaacsssaaaaaccc" />
      <path
         style="opacity:1;fill:#ffac05;fill-opacity:1;stroke:#000000;stroke-width:10;stroke-linecap:round;stroke-linejoin:bevel;stroke-dasharray:none;stroke-opacity:1"
         d="m 4057.4283,-176.08165 c -2.349,-11.09008 -20.9162,-26.81565 -20.9162,-26.81565 l -26.8156,-17.69832 c -9.9083,-6.53951 -21.916,-11.26258 -33.7878,-11.26257 -5.0879,1e-5 -11.592,0.63826 -14.4804,4.82682 -2.4378,3.53518 -1.0853,8.89523 0.5363,12.8715 2.7247,6.68113 9.2677,11.10054 14.4805,16.08939 8.5329,8.16639 17.1806,16.5214 27.3519,22.52514 9.6057,5.66987 20.1501,10.24215 31.1062,12.33519 6.3214,1.20764 14.2345,3.96062 19.3072,0 3.4859,-2.72169 4.1343,-8.54494 3.2179,-12.8715 z"
         id="path10"
         sodipodi:nodetypes="scsssssssss" />
      <path
         style="opacity:1;fill:#ffaa00;fill-opacity:1;stroke:#000000;stroke-width:8.62396;stroke-linecap:round;stroke-linejoin:bevel;stroke-dasharray:none;stroke-opacity:0"
         d="m 3836.4392,-165.65202 c 1.9451,6.63799 -10.1387,6.98653 -18.2762,9.82863 -5.1508,1.799 -15.2705,10.09402 -21.0759,5.70447 -3.3231,-2.5127 -2.9585,-9.42455 -0.1456,-12.49771 8.9157,-9.74038 35.7843,-15.70724 39.4977,-3.03539 z"
         id="path12"
         sodipodi:nodetypes="acaaa" />
      <path
         style="opacity:1;fill:#ffaa00;fill-opacity:1;stroke:#000000;stroke-width:10;stroke-linecap:round;stroke-linejoin:bevel;stroke-dasharray:none;stroke-opacity:0"
         d="m 3880.7953,-93.559757 c -10.4274,11.13678 -22.1008,23.44637 -29.58,33.75151 -7.4792,10.30514 -22.2636,31.61056 -17.0654,36.02689 5.1982,4.41633 30.3846,-38.00388 37.0498,-44.65235 17.0573,-20.9506 18.535,-18.26052 35.8989,-38.969483 7.6294,-9.23116 22.7328,-25.60586 13.5198,-24.30244 -3.5519,0.50252 -16.9794,13.74802 -39.8231,38.145873 z"
         id="path13"
         sodipodi:nodetypes="zzzzzsz" />
      <path
         style="display:inline;fill:url(#linearGradient14);fill-opacity:0.8;stroke:#000000;stroke-width:7.07061;stroke-linecap:round;stroke-linejoin:round;stroke-dasharray:none;stroke-opacity:1"
         d="m 3308.9676,659.80244 c 3.5505,-11.01224 2.4141,-23.57209 -0.7432,-34.70343 -3.5608,-12.55359 -18.0297,-20.8257 -19.8357,-33.74894 -1.0287,-7.36104 1.1613,-15.61932 5.5956,-21.58419 4.9885,-6.71014 18.2601,-5.28966 21.4379,-13.02347 3.9702,-9.66234 -7.7215,-19.95609 -7.6059,-30.40167 0.123,-11.12372 3.1047,-22.64062 8.8139,-32.18827 5.8051,-9.70808 14.886,-17.57355 24.5913,-23.38336 14.385,-8.6112 30.5094,1.14333 39.9795,-8.66795 6.67,-6.91036 0.8957,-19.72429 5.105,-28.35703 3.2737,-6.71394 8.5814,-12.77546 14.9309,-16.70975 5.0741,-3.14402 11.3348,-4.09239 17.2688,-4.7401 3.5934,-0.39226 8.1945,3.02027 10.8307,0.54681 4.2049,-3.94564 -1.8609,-11.92286 0.2282,-17.29745 3.9915,-10.26916 12.1758,-19.67927 21.9989,-24.66861 7.5376,-3.82835 16.8391,-3.39626 25.2417,-2.46578 3.521,0.38987 6.6748,4.24604 10.0949,3.32242 6.3898,-1.72565 7.2558,-11.89075 13.1719,-14.85836 4.527,-2.27075 10.1351,-2.05805 15.1396,-1.28057 4.6429,0.72131 9.5075,2.27668 13.0235,5.39358 4.5114,3.99899 3.198,13.72841 8.8743,15.75856 5.6798,2.03139 10.844,-6.20519 16.8656,-6.56048 8.2715,-0.48801 17.497,1.17393 24.0655,6.22475 2.6149,2.01071 1.5581,8.7029 4.8557,8.62257 10.9754,-0.26725 6.8267,-21.846 14.7449,-29.45082 9.2245,-8.85968 22.1907,-15.40858 34.9752,-15.7797 11.2238,-0.32581 22.7392,4.97217 31.4572,12.04858 8.0952,6.57091 8.4335,20.2782 16.9559,26.28487 5.4905,3.86989 13.7333,1.36095 19.6212,4.59451 4.6628,2.56074 9.225,6.30899 11.4077,11.1602 1.402,3.11622 -1.8736,7.78493 0.5042,10.23882 5.6041,5.78319 17.2195,-2.26929 24.0806,1.94685 5.623,3.45527 7.9812,10.7209 10.3392,16.88487 1.8539,4.84629 -0.5117,11.32273 2.8071,15.31129 4.8801,5.86472 15.4324,3.38222 21.3886,8.15034 5.5643,4.45426 9.6786,11.02616 11.8028,17.82972 2.9045,9.30245 -3.8063,20.53734 0.5996,29.22971 1.7625,3.47699 7.7392,3.52847 9.2883,7.10552 2.2388,5.16899 1.0056,11.86929 -1.6928,16.81385 -2.2349,4.09544 -9.793,4.19489 -10.9534,8.71388 -3.3921,13.20832 14.6721,24.15233 15.782,37.74397 1.4085,17.24528 -2.5036,36.03352 -11.9891,50.50449 -8.8052,13.43318 -23.658,22.89163 -38.5501,28.90879 -14.1806,5.72968 -33.056,-3.15285 -45.5276,5.70009 -3.9657,2.81497 -3.1387,9.54092 -6.4868,13.06813 -7.7519,8.16693 -18.1785,16.25329 -29.4342,16.57547 -12.4882,0.35747 -21.2036,-15.48516 -33.6563,-16.49247 -8.8694,-0.71751 -16.6715,8.36689 -25.548,7.74088 -14.0271,-0.98925 -28.6607,-7.49964 -38.257,-17.77831 -6.7689,-7.25006 -10.1946,-17.87326 -10.66,-27.78099 -0.2669,-5.68097 7.056,-11.30608 4.5925,-16.43204 -2.2858,-4.75585 -11.7167,-1.75597 -14.5666,-6.19692 -3.0393,-4.73648 3.9984,-12.49641 0.4651,-16.87695 -3.2973,-4.08799 -11.4108,0.40401 -15.4848,-2.91045 -7.166,-5.82992 -3.546,-19.60626 -10.5536,-25.62541 -5.1802,-4.44932 -13.43,-7.03061 -19.9023,-4.85366 -10.8155,3.63783 -11.3561,21.52531 -21.5957,26.56098 -8.3297,4.09653 -19.1534,4.00004 -27.8384,0.7232 -8.3768,-3.16056 -10.8671,-16.7862 -19.6983,-18.26049 -9.0033,-1.50302 -19.8715,3.56018 -25.0403,11.08353 -4.7412,6.90072 3.8918,18.48026 -1.2521,25.08621 -8.1563,10.4745 -25.5484,-4.05205 -38.0777,11.67277 -12.5293,15.72481 6.6871,30.51659 -4.0527,48.31445 -10.7397,17.79787 -61.709,28.27543 -72.6464,28.08958 -8.6168,-0.14642 15.5388,-14.99886 18.7235,-24.87662 z"
         id="path12-4"
         sodipodi:nodetypes="aaaaaaasaaaaaaaaaaaaaaaaaaaaaaaaaaaaaaaaaaaaaaaaaaaaaaaaaaaaazssa"
         class="UnoptimicedTransforms"
         transform="matrix(1.1372948,-0.57601841,0.57601841,1.1372948,-94.657835,894.9636)" />
    </g>
    <g
       id="g11811"
       transform="matrix(3.2541741,-0.79036192,0.79036192,3.2541741,-122.37888,1067.0321)"
       inkscape:label="tsunami"
       style="stroke:none"
       inkscape:groupmode="layer">
      <path
         fill="#55acee"
         d="m 131.19961,-35.301628 c -25.14935,-10.664412 -29.09395,-20.776085 -31.743127,-25.778629 -2.99736,-5.660021 2.020047,-14.173586 7.288447,-16.911902 4.87556,-2.534134 11.35594,-2.868872 17.03646,-0.20999 1.65249,0.773478 5.32552,2.712475 5.54852,0.305186 -0.51892,-4.667887 -17.82469,-20.928419 -36.129887,-15.033189 -14.4563,4.563637 -22.84398,17.203482 -17.56525,43.722636"
         id="path22"
         sodipodi:nodetypes="csssccc"
         style="fill:url(#linearGradient22);fill-opacity:1;stroke:none;stroke-width:0.81343;stroke-dasharray:none" />
      <path
         fill="#55acee"
         d="M 166.97357,92.275838 C 127.39064,75.718266 121.11753,59.866441 116.91823,52.029414 c -4.7512,-8.867028 3.06423,-22.277434 11.31812,-26.618775 7.63846,-4.017638 17.81442,-4.59304 26.75698,-0.460361 2.60145,1.202223 8.38537,4.21959 8.71721,0.436847 C 162.85971,18.059399 135.55355,-7.3478161 106.84741,2.0518763 84.176385,9.3305313 71.098999,29.247773 79.59327,70.860031"
         id="path11801"
         sodipodi:nodetypes="csssccc"
         style="fill:url(#linearGradient13712);fill-opacity:1;stroke:none;stroke-width:1.25436;stroke-dasharray:none" />
    </g>
    <g
       id="g21"
       inkscape:label="meoteorite"
       style="display:inline"
       transform="matrix(0.31149664,-0.08260003,0.08260003,0.31149664,176.16315,218.03356)">
      <g
         id="g5536"
         style="display:inline"
         transform="translate(-291.86928,227.16756)">
        <circle
           style="display:inline;fill:#de7d4f;fill-opacity:1;stroke:#de7d4f;stroke-width:3.9258;stroke-dasharray:none;stroke-opacity:1"
           cx="315.03101"
           cy="280.90799"
           r="65.997002"
           id="circle5112"
           transform="translate(2.1264776e-6)"
           inkscape:label="circle5112" />
        <circle
           style="fill:#b75d36;fill-opacity:1"
           cx="291.91599"
           cy="262.98199"
           r="12.749"
           id="circle5134"
           inkscape:label="circle5134" />
        <circle
           style="fill:#b75d36;fill-opacity:1"
           cx="343.67001"
           cy="294.56699"
           r="19.412001"
           id="circle5136" />
        <path
           style="fill:#b75d36;fill-opacity:1"
           d="m 288.915,312.981 c -0.42,0 -0.85,-0.04 -1.27,-0.13 -0.41,-0.08 -0.82,-0.21 -1.21,-0.37 -0.4,-0.16 -0.77,-0.36 -1.13,-0.6 -0.35,-0.23 -0.69,-0.51 -0.99,-0.8 -0.3,-0.3 -0.57,-0.64 -0.8,-0.99 -0.24,-0.36 -0.44,-0.73 -0.6,-1.13 -0.16,-0.39 -0.29,-0.8 -0.37,-1.21 -0.09,-0.42 -0.13,-0.85 -0.13,-1.27 0,-0.43 0.04,-0.85 0.13,-1.27 0.08,-0.42 0.21,-0.83 0.37,-1.22 0.16,-0.39 0.36,-0.77 0.6,-1.12 0.23,-0.36 0.5,-0.69 0.8,-0.99 0.3,-0.3 0.64,-0.57 0.99,-0.81 0.36,-0.23 0.73,-0.43 1.13,-0.59 0.39,-0.17 0.8,-0.29 1.21,-0.37 2.11,-0.43 4.36,0.26 5.87,1.77 0.3,0.3 0.57,0.63 0.81,0.99 0.23,0.35 0.43,0.73 0.59,1.12 0.17,0.39 0.29,0.8 0.37,1.22 0.09,0.42 0.13,0.84 0.13,1.27 0,0.42 -0.04,0.85 -0.13,1.27 -0.08,0.41 -0.2,0.82 -0.37,1.21 -0.16,0.4 -0.36,0.77 -0.59,1.13 -0.24,0.35 -0.51,0.69 -0.81,0.99 -1.21,1.2 -2.89,1.9 -4.6,1.9 z"
           id="path5138" />
        <path
           style="fill:#b75d36;fill-opacity:1"
           d="m 335.415,254.481 c -1.71,0 -3.39,-0.69 -4.6,-1.9 -0.3,-0.3 -0.57,-0.63 -0.81,-0.99 -0.23,-0.35 -0.43,-0.73 -0.59,-1.12 -0.17,-0.4 -0.29,-0.8 -0.37,-1.22 -0.09,-0.42 -0.13,-0.85 -0.13,-1.27 0,-1.71 0.69,-3.38 1.9,-4.59 0.3,-0.3 0.63,-0.58 0.99,-0.81 0.35,-0.24 0.73,-0.44 1.12,-0.6 0.4,-0.16 0.8,-0.29 1.22,-0.37 2.11,-0.42 4.36,0.27 5.86,1.78 1.22,1.2 1.91,2.88 1.91,4.59 0,0.42 -0.04,0.85 -0.13,1.27 -0.08,0.42 -0.21,0.82 -0.37,1.22 -0.16,0.39 -0.36,0.77 -0.6,1.12 -0.23,0.36 -0.51,0.69 -0.81,0.99 -1.21,1.21 -2.88,1.9 -4.59,1.9 z"
           id="path5140" />
        <path
           style="fill:#b75d36;fill-opacity:1"
           d="m 311.415,327.981 c -1.71,0 -3.39,-0.7 -4.6,-1.91 -1.21,-1.2 -1.9,-2.88 -1.9,-4.59 0,-1.71 0.69,-3.39 1.9,-4.6 1.21,-1.21 2.89,-1.9 4.6,-1.9 1.71,0 3.39,0.69 4.6,1.9 1.21,1.21 1.9,2.89 1.9,4.6 0,1.71 -0.69,3.38 -1.9,4.59 -1.21,1.21 -2.89,1.91 -4.6,1.91 z"
           id="path5142" />
      </g>
      <g
         id="g5130"
         style="display:inline"
         transform="translate(-291.86928,227.16759)">
        <path
           style="display:inline;fill:#f8ed23;fill-opacity:1;stroke:#f8ed23;stroke-width:3.9258;stroke-dasharray:none;stroke-opacity:1"
           d="m 315.031,381.358 c -25.735,0 -51.47,-9.796 -71.062,-29.388 L 97.606,205.606 c -2.539,-2.539 -2.539,-6.654 0,-9.192 2.538,-2.538 6.654,-2.538 9.192,0 l 146.364,146.364 c 34.115,34.115 89.624,34.115 123.739,0 34.115,-34.115 34.115,-89.625 0,-123.739 l -80.602,-80.602 c -2.539,-2.539 -2.539,-6.654 0,-9.192 2.538,-2.538 6.654,-2.538 9.192,0 l 80.602,80.602 c 39.184,39.184 39.184,102.94 0,142.124 -19.592,19.591 -45.327,29.387 -71.062,29.387 z"
           id="path934"
           transform="translate(-1.6153623e-6)" />
        <path
           style="display:inline;fill:#fbc402;fill-opacity:1;stroke:#fbc402;stroke-width:3.92611;stroke-dasharray:none;stroke-opacity:1"
           d="m 276.502,115.946 c -1.664,0 -3.327,-0.635 -4.596,-1.904 L 230.538,72.674 c -2.539,-2.539 -2.539,-6.654 0,-9.192 2.538,-2.538 6.654,-2.538 9.192,0 l 41.368,41.368 c 2.539,2.539 2.539,6.654 0,9.192 -1.269,1.27 -2.933,1.904 -4.596,1.904 z"
           id="path5116"
           inkscape:label="path5116"
           transform="translate(-1.6153623e-6)" />
        <path
           style="fill:#f8ed23;fill-opacity:0.996078;stroke:#f7ec23;stroke-width:3.9258;stroke-dasharray:none;stroke-opacity:1"
           d="m 215.869,267.791 c -1.664,0 -3.327,-0.635 -4.596,-1.904 L 55.903,110.517 c -2.539,-2.539 -2.539,-6.654 0,-9.192 2.538,-2.538 6.654,-2.538 9.192,0 l 155.37,155.37 c 2.539,2.539 2.539,6.654 0,9.192 -1.269,1.269 -2.932,1.904 -4.596,1.904 z"
           id="path5120" />
        <path
           style="display:inline;fill:#d94615;fill-opacity:1;stroke:#d94615;stroke-width:3.9258;stroke-dasharray:none;stroke-opacity:1"
           d="m -132.81318,-116.74668 c -1.664,0 -3.327,-0.635 -4.596,-1.904 l -155.36993,-155.37006 c -2.539,-2.539 -2.539,-6.654 0,-9.192 2.538,-2.538 6.654,-2.538 9.192,0 l 155.36993,155.37006 c 2.539,2.539 2.539,6.654 0,9.192 -1.269,1.269 -2.932,1.904 -4.596,1.904 z"
           id="path5120-2" />
        <path
           style="fill:#fbc700;fill-opacity:1;stroke:#fbc700;stroke-width:3.9258;stroke-dasharray:none;stroke-opacity:1"
           d="m 207.915,180.292 c -1.664,0 -3.327,-0.635 -4.596,-1.904 L 120.591,95.66 c -2.539,-2.539 -2.539,-6.654 0,-9.192 2.538,-2.538 6.654,-2.538 9.192,0 l 82.728,82.728 c 2.539,2.539 2.539,6.654 0,9.192 -1.269,1.269 -2.932,1.904 -4.596,1.904 z"
           id="path5122" />
        <path
           style="fill:#fea910;fill-opacity:1;stroke:#fea910;stroke-width:3.9258;stroke-dasharray:none;stroke-opacity:1"
           d="m 246.096,218.473 c -1.664,0 -3.327,-0.635 -4.596,-1.904 l -18.03,-18.03 c -2.539,-2.539 -2.539,-6.654 0,-9.192 2.538,-2.538 6.654,-2.538 9.192,0 l 18.03,18.03 c 2.539,2.539 2.539,6.654 0,9.192 -1.269,1.269 -2.932,1.904 -4.596,1.904 z"
           id="path5124" />
        <path
           style="fill:#fbc700;fill-opacity:1;stroke:#fbc700;stroke-width:3.9258;stroke-dasharray:none;stroke-opacity:1"
           d="m 214.809,107.64 c -1.664,0 -3.327,-0.635 -4.596,-1.904 L 149.696,45.219 c -2.539,-2.539 -2.539,-6.654 0,-9.192 2.538,-2.538 6.654,-2.538 9.192,0 l 60.517,60.517 c 2.539,2.539 2.539,6.654 0,9.192 -1.269,1.269 -2.933,1.904 -4.596,1.904 z"
           id="path5126" />
        <path
           style="fill:#fea910;fill-opacity:1;stroke:#fea910;stroke-width:3.9258;stroke-dasharray:none;stroke-opacity:1"
           d="m 295.415,188.246 c -1.664,0 -3.327,-0.635 -4.596,-1.904 l -59.394,-59.394 c -2.539,-2.539 -2.539,-6.654 0,-9.192 2.538,-2.538 6.654,-2.538 9.192,0 l 59.394,59.394 c 2.539,2.539 2.539,6.654 0,9.192 -1.269,1.269 -2.933,1.904 -4.596,1.904 z"
           id="path5128"
           inkscape:label="path5128" />
        <path
           style="display:inline;fill:#fea910;fill-opacity:1;stroke:#fea910;stroke-width:3.9258;stroke-dasharray:none;stroke-opacity:1"
           d="m 95.029779,63.963404 c -1.663995,9e-6 -3.326992,-0.634986 -4.595992,-1.904003 L 7.7057846,-20.668622 c -2.5390076,-2.539018 -2.5389999,-6.653995 -3.9e-6,-9.192012 2.5379993,-2.538014 6.6540013,-2.537971 9.1919943,-1.9e-5 L 99.625777,52.86737 c 2.539013,2.539018 2.539003,6.653995 4e-6,9.192012 -1.268999,1.269007 -2.931998,1.904013 -4.596002,1.904022 z"
           id="path5122-3" />
        <path
           style="display:inline;fill:#d94615;fill-opacity:1;stroke:#d94615;stroke-width:3.9258;stroke-dasharray:none;stroke-opacity:1"
           d="m -116.53508,-204.59729 c -1.66399,0 -3.32699,-0.63499 -4.59599,-1.90401 l -82.728,-82.72802 c -2.53901,-2.53902 -2.539,-6.654 0,-9.19201 2.538,-2.53802 6.654,-2.53797 9.19199,-2e-5 l 82.728,82.72802 c 2.53901,2.53902 2.539,6.654 1e-5,9.19201 -1.269,1.26901 -2.932,1.90402 -4.59601,1.90403 z"
           id="path5122-3-0" />
        <path
           style="display:inline;fill:#f88423;fill-opacity:1;stroke:#f88423;stroke-width:3.9258;stroke-dasharray:none;stroke-opacity:1"
           d="m -38.807843,8.4775679 c -1.664011,-7.25e-5 -3.327008,-0.6350675 -4.596001,-1.9040023 L -103.92085,-53.943464 c -2.539,-2.539018 -2.539,-6.653995 0,-9.192013 2.538,-2.538013 6.654004,-2.53797 9.191997,-1.9e-5 l 60.517008,60.5170296 c 2.538999,2.53901883 2.539,6.6539955 -5e-6,9.1920131 -1.268999,1.2690069 -2.932995,1.9040158 -4.595993,1.9040212 z"
           id="path5126-4" />
        <path
           style="display:inline;fill:#f88423;fill-opacity:1;stroke:#f88423;stroke-width:3.9258;stroke-dasharray:none;stroke-opacity:1"
           d="m -35.392312,-72.888347 c -1.664004,9e-6 -3.327008,-0.635068 -4.596001,-1.904003 l -60.517007,-60.51703 c -2.539,-2.539 -2.539,-6.65399 0,-9.192 2.538005,-2.538 6.654003,-2.538 9.192001,0 l 60.517004,60.516998 c 2.539,2.539019 2.539,6.653996 -4e-6,9.192013 -1.268999,1.269007 -2.932995,1.904016 -4.595993,1.904022 z"
           id="path5126-3" />
        <path
           style="display:inline;fill:#f88423;fill-opacity:1;stroke:#f88423;stroke-width:3.92611;stroke-dasharray:none;stroke-opacity:1"
           d="m 93.943299,-19.389991 c -1.664003,9e-6 -3.327008,-0.635068 -4.596001,-1.904003 L 28.830291,-81.811023 c -2.538998,-2.539002 -2.539,-6.653995 5e-6,-9.191997 2.538,-2.538005 6.653999,-2.538003 9.191996,-2e-6 l 60.517005,60.516996 c 2.539003,2.539019 2.539003,6.653996 -4e-6,9.192013 -1.269,1.269007 -2.932996,1.904016 -4.595994,1.904022 z"
           id="path5126-5" />
      </g>
      <g
         id="g7"
         transform="matrix(0.81801504,-0.07016621,0.07016621,0.81801504,-629.73324,-611.28897)"
         style="display:inline;fill:url(#linearGradient4288);fill-opacity:1">
        <path
           style="display:inline;fill:url(#linearGradient4286);fill-opacity:1;stroke:#000000;stroke-width:12.8755;stroke-linecap:round;stroke-dasharray:none;stroke-opacity:0;paint-order:stroke markers fill"
           d="M 537.84682,1489.8479 C 384.40933,1291.7115 -462.39286,95.431986 -705.12242,-259.8572 -456.96222,24.259467 629.98995,1142.1816 785.46712,1341.3176 c 54.58351,69.9109 26.11251,150.9509 -17.21943,189.7817 -53.98513,48.3773 -157.49436,52.894 -230.40087,-41.2514 z"
           id="path6"
           sodipodi:nodetypes="scsss" />
      </g>
    </g>
  </g>
</svg>
