<?xml version="1.0" encoding="UTF-8" standalone="no"?>
<!-- Created with Inkscape (http://www.inkscape.org/) -->

<svg
   width="35.343933mm"
   height="46.657997mm"
   viewBox="0 0 133.58337 176.34519"
   version="1.1"
   id="svg1"
   inkscape:version="1.2.2 (732a01da63, 2022-12-09)"
   sodipodi:docname="shock.svg"
   xml:space="preserve"
   inkscape:export-filename="shock1.svg"
   inkscape:export-xdpi="96"
   inkscape:export-ydpi="96"
   xmlns:inkscape="http://www.inkscape.org/namespaces/inkscape"
   xmlns:sodipodi="http://sodipodi.sourceforge.net/DTD/sodipodi-0.dtd"
   xmlns="http://www.w3.org/2000/svg"
   xmlns:svg="http://www.w3.org/2000/svg"><sodipodi:namedview
     id="namedview1"
     pagecolor="#ffffff"
     bordercolor="#000000"
     borderopacity="0.25"
     inkscape:showpageshadow="2"
     inkscape:pageopacity="0.0"
     inkscape:pagecheckerboard="0"
     inkscape:deskcolor="#d1d1d1"
     inkscape:document-units="mm"
     inkscape:zoom="1.5386273"
     inkscape:cx="185.55501"
     inkscape:cy="132.91068"
     inkscape:window-width="1827"
     inkscape:window-height="1057"
     inkscape:window-x="-9"
     inkscape:window-y="-9"
     inkscape:window-maximized="1"
     inkscape:current-layer="layer1"
     showgrid="true"><inkscape:grid
       id="grid11"
       units="mm"
       originx="0"
       originy="0"
       spacingx="3.7795276"
       spacingy="3.7795276"
       empcolor="#0099e5"
       empopacity="0.30196078"
       color="#0099e5"
       opacity="0.14901961"
       empspacing="5"
       dotted="false"
       gridanglex="30"
       gridanglez="30"
       visible="true" /></sodipodi:namedview><defs
     id="defs1"><linearGradient
       id="linearGradient4322"
       inkscape:swatch="solid"><stop
         style="stop-color:#2b1500;stop-opacity:1;"
         offset="0"
         id="stop4320" /></linearGradient><linearGradient
       id="linearGradient5259"
       inkscape:swatch="solid"><stop
         style="stop-color:#fdb6b0;stop-opacity:1;"
         offset="0"
         id="stop5257" /></linearGradient><linearGradient
       id="linearGradient5745"
       inkscape:swatch="solid"><stop
         style="stop-color:#000000;stop-opacity:1;"
         offset="0"
         id="stop5743" /></linearGradient><linearGradient
       id="linearGradient4753"
       inkscape:swatch="solid"><stop
         style="stop-color:#d1d48d;stop-opacity:1;"
         offset="0"
         id="stop4751" /></linearGradient></defs><g
     inkscape:label="Layer 1"
     inkscape:groupmode="layer"
     id="layer1"
     transform="translate(-1035.7402,18.831539)"><g
       id="g149"
       inkscape:label="heather duke"
       transform="matrix(-2.9231773,0,0,2.9231773,831.42174,397.91189)"
       style="display:inline;stroke-width:1.7289;stroke-dasharray:none"
       inkscape:highlight-color="#00ff00"><path
         style="display:inline;fill:#803300;fill-opacity:0.995349;stroke:#000000;stroke-width:6.53441;stroke-linecap:round;stroke-linejoin:round;stroke-dasharray:none;paint-order:fill markers stroke"
         d="m 1646.8271,111.09114 c -10.5957,-0.14355 -21.4714,-0.8498 -31.5678,3.04619 -10.2673,2.93201 -21.3579,9.3886 -22.8768,21.01201 -1.4927,8.66159 -2.3467,17.78337 -7.7516,25.11194 -5.5504,7.84476 -8.7751,22.10957 -0.3425,27.31009 7.0232,4.33131 13.6649,14.03654 5.4177,18.46531 -8.0338,3.68341 -10.5383,14.75477 -6.1118,22.16329 2.7362,7.16086 10.4245,11.03196 17.566,7.68518 9.0347,-2.46635 7.9193,8.59107 10.3409,13.83469 6.1378,6.20244 16.0641,6.88888 24.251,5.53448 28.7818,-3.0371 34.0216,-1.34986 52.6529,0.0385 6.7431,0.43223 13.4263,-3.30013 15.3187,-10.06038 2.1568,-9.82493 11.7747,-7.09527 18.8504,-6.88029 6.3182,-2.94223 14.1597,-16.67349 9.5731,-23.49022 -5.6659,-6.34851 -0.2429,-12.17749 4.4437,-17.75551 8.4682,-4.76867 10.1847,-14.47526 7.6542,-23.85309 -4.1429,-11.66856 -18.3682,-26.0424 -22.9994,-37.5256 -4.9681,-12.78551 -18.2477,-19.52212 -31.0492,-21.89488 -12.79,-2.49471 -25.8374,-4.61943 -38.8855,-2.95985 -1.4936,0.0935 -2.9881,0.17379 -4.484,0.21813 z"
         id="path228"
         sodipodi:nodetypes="ccccscccccccccccccccc"
         transform="matrix(0.26458333,0,0,0.26458333,-532.54362,-161.66438)" /><path
         style="display:inline;fill:#00ff00;stroke:#000000;stroke-width:1.7289;stroke-linecap:round;stroke-linejoin:round;stroke-dasharray:none;stroke-opacity:1;paint-order:fill markers stroke"
         d="m -80.231448,-113.98318 -2.86361,8.54308 6.20448,-0.0954 z"
         id="path26" /><g
         id="g108"
         transform="translate(50.598352,-0.2277988)"
         inkscape:label="body"
         style="display:inline;stroke-width:1.7289;stroke-dasharray:none"><path
           style="display:inline;fill:#ffffff;fill-opacity:1;stroke:#000000;stroke-width:1.7289;stroke-linecap:round;stroke-linejoin:round;stroke-miterlimit:1001;stroke-dasharray:none;stroke-opacity:1;paint-order:fill markers stroke"
           d="m -148.03164,-104.78796 c -2.20975,10.060346 -2.32068,11.528775 -2.99649,15.058582 -0.40584,2.11975 -0.97436,6.021578 -0.61675,6.445311 0.35761,0.423733 3.83047,0.214006 4.42334,-0.261077 0.59287,-0.475088 0.17338,-3.821811 0.55535,-4.304568 0.382,-0.482757 4.75842,-0.644131 5.05352,-0.321919 0.2951,0.322212 0.25973,3.770873 0.45001,4.258186 0.50176,0.401375 3.99232,-0.24324 3.99232,-0.24324 0,0 -1.3145,-7.144034 -1.67095,-10.754241 -0.31368,-3.177085 -0.40867,-9.568874 -0.40867,-9.568874"
           id="path108"
           sodipodi:nodetypes="cszzzzccac"
           inkscape:label="body" /><ellipse
           style="display:inline;fill:#ffffff;fill-opacity:1;stroke:#000000;stroke-width:1.7289;stroke-linecap:round;stroke-linejoin:round;stroke-miterlimit:1001;stroke-dasharray:none;stroke-opacity:1;paint-order:fill markers stroke"
           id="ellipse108"
           ry="15.393556"
           rx="16.682619"
           cy="-119.60479"
           cx="-142.77336"
           inkscape:label="head"
           transform="translate(1.0967844e-5)" /></g><g
         id="g25"
         style="stroke-width:1.7289;stroke-dasharray:none"><path
           style="fill:#008000;stroke:#000000;stroke-width:1.7289;stroke-linecap:round;stroke-linejoin:round;stroke-dasharray:none;paint-order:fill markers stroke"
           d="m -101.2332,-86.568767 c 0,0 -0.34078,1.974899 -0.0455,3.250596 1.312326,0.461679 3.968497,0.05503 5.032044,-0.264991 0.113341,-1.809425 -0.0082,-2.937732 -0.0082,-2.937732 z"
           id="path112"
           sodipodi:nodetypes="ccccc" /><path
           style="fill:#008000;stroke:#000000;stroke-width:1.7289;stroke-linecap:round;stroke-linejoin:round;stroke-dasharray:none;paint-order:fill markers stroke"
           d="m -90.731502,-86.642274 c 0,0 -0.164985,1.430903 0.25097,2.444005 1.262202,0.403802 3.264584,0.08503 4.12972,-0.16925 -0.130304,-1.741568 -0.493742,-2.666933 -0.493742,-2.666933 z"
           id="path146"
           sodipodi:nodetypes="ccccc" /><path
           style="fill:#00ff00;stroke:#000000;stroke-width:1.7289;stroke-linecap:round;stroke-linejoin:round;stroke-dasharray:none;paint-order:fill markers stroke"
           d="m -100.79141,-93.776841 -1.60778,5.461536 c 0,0 5.081521,0.154096 7.623131,0.16344 1.133049,0.0042 2.268752,0.0342 3.398832,-0.04787 1.95062,-0.141669 5.817064,-0.765937 5.817064,-0.765937 l -1.531876,-4.803661 c -4.599438,0.971573 -8.884206,0.672779 -13.699371,-0.0075 z"
           id="path147"
           sodipodi:nodetypes="ccsscccc" /><path
           style="fill:#008000;stroke:#000000;stroke-width:1.7289;stroke-linecap:round;stroke-linejoin:round;stroke-dasharray:none;paint-order:fill markers stroke"
           d="m -98.053537,-105.08604 -2.853433,11.731825 c 0,0 4.92046,0.837432 7.467893,0.765938 2.452115,-0.06882 6.558345,-1.005292 6.558345,-1.005292 0,0 -0.762907,-3.130238 -0.957429,-5.170082 -0.145548,-1.526279 0.115577,-6.130909 0.115577,-6.130909 l -2.931748,0.56624 c 0,0 -0.627069,1.57909 -1.324686,1.92646 -0.643418,0.32038 -1.551815,0.29638 -2.154184,-0.0958 -0.627144,-0.40828 -0.998776,-2.01059 -0.998776,-2.01059 z"
           id="path148"
           sodipodi:nodetypes="ccscsccaacc" /><path
           style="display:inline;fill:#0000ff;stroke:#000000;stroke-width:6.53441;stroke-linecap:round;stroke-linejoin:round;stroke-dasharray:none;paint-order:fill markers stroke"
           d="m 1054.0092,226.88654 c 0,0 -1.1005,9.99672 -1.1761,15.01721 -0.095,6.27878 0.9047,18.81675 0.9047,18.81675"
           id="path149"
           sodipodi:nodetypes="cac"
           transform="matrix(0.26458333,0,0,0.26458333,-371.87473,-161.66438)" /></g><path
         style="display:inline;fill:#00ff00;stroke:#000000;stroke-width:1.7289;stroke-linecap:round;stroke-linejoin:round;stroke-dasharray:none;stroke-opacity:1;paint-order:fill markers stroke"
         d="m -106.36294,-114.49175 -3.10857,9.27386 6.73522,-0.10356 z"
         id="path25-1" /><path
         style="display:inline;fill:#803300;fill-opacity:0.995349;stroke:#000000;stroke-width:1.7289;stroke-linecap:round;stroke-linejoin:round;stroke-dasharray:none;paint-order:fill markers stroke"
         d="m -92.981999,-140.1006 c 3.02652,-2.68462 7.665082,-1.96008 9.22437,1.61132 2.574788,-2.1831 10.56736,1.95514 9.33507,5.7812 3.25514,2.03317 4.05964,6.75482 1.62828,9.16837 1.95133,3.94573 -2.390948,3.1689 -0.73161,5.14433 1.21404,1.4453 -0.862874,3.40162 -1.36974,5.08088 -0.334856,1.10939 0.664157,3.24973 -1.10334,3.29674 -2.438484,0.0648 -0.867424,-2.82918 -1.19793,-4.27006 -0.281502,-1.22725 -0.97501,-2.31807 -0.66675,-3.71805 -1.99201,-1.11895 -1.32247,-3.63816 -1.00308,-5.47703 -0.49643,-1.58778 -2.39509,-2.9332 -4.07835,-2.68325 -1.77845,0.61872 -3.699138,2.36689 -5.74855,2.22294 -1.818631,-0.12774 -3.65018,-0.44018 -4.77538,-2.66634 -0.69117,-1.74685 -2.90966,-0.11403 -3.7341,-2.33369 -2.38522,1.83019 -1.277741,4.2847 -5.983731,4.50997 -1.47154,3.60573 -0.81593,3.78093 -2.81716,5.10554 1.57292,2.39531 1.14213,6.98222 -1.28616,7.20018 -1.96435,0.17632 -3.08063,-1.06804 -1.65126,-4.71371 -1.95922,-1.72714 -4.26038,-5.49341 -4.05625,-8.68078 0.18011,-2.81235 1.77839,-6.42949 4.52679,-7.14029 -0.39978,-2.62091 1.52178,-5.23696 4.63253,-5.0436 1.07142,-2.19046 4.813351,-0.61314 6.189681,1.35328 -0.07281,-3.12822 2.881778,-4.3217 4.66667,-3.74795 z"
         id="path227"
         sodipodi:nodetypes="ccccsasacccaccccscacccc" /><g
         id="g43"
         inkscape:label="base - shifty"
         transform="matrix(0.81556585,0,0,0.81556585,-109.57365,-15.675351)"
         inkscape:highlight-color="#ffffff"
         style="display:inline;stroke-width:2.11987;stroke-dasharray:none"><g
           id="g51"
           transform="translate(-149.54959,-183.57237)"
           style="stroke-width:2.11987;stroke-dasharray:none"><circle
             style="fill:#ffffff;fill-opacity:1;stroke:#000000;stroke-width:2.11987;stroke-linecap:round;stroke-dasharray:none;stroke-opacity:1;paint-order:fill markers stroke"
             id="path43"
             cx="159.65056"
             cy="59.318878"
             r="6" /><circle
             style="fill:#ffffff;fill-opacity:1;stroke:#000000;stroke-width:2.11987;stroke-linecap:round;stroke-dasharray:none;stroke-opacity:1;paint-order:fill markers stroke"
             id="circle47"
             cx="187.06996"
             cy="57.813499"
             r="5" /><path
             style="fill:#1a1a1a;fill-opacity:1;stroke:#000000;stroke-width:2.11987;stroke-linecap:round;stroke-linejoin:round;stroke-dasharray:none;stroke-opacity:1;paint-order:fill markers stroke"
             d="m 171.19157,59.694676 c 0,0 -1.20157,1.419179 -1.45815,2.285737 -0.23683,0.799856 -0.44528,1.784994 -0.0197,2.502464 0.26234,0.442308 1.35963,0.729077 1.35963,0.729077 0,0 0.11215,2.630799 0.23646,3.940916 0.25026,2.637538 0.59692,5.2672 1.02463,7.881831 0.3502,2.140764 0.45368,4.040336 1.26111,6.38429 0.20195,0.58625 0.87857,1.140047 1.49754,1.103445 0.5752,-0.03401 1.10612,-0.62729 1.26108,-1.182264 1.07099,-3.835705 1.12973,-6.384281 1.69459,-9.576422 0.56486,-3.19214 1.69459,-9.576421 1.69459,-9.576421 0,0 0.81843,-1.309157 0.86701,-2.049278 0.0518,-0.788674 -0.12857,-1.675238 -0.63055,-2.285735 -0.44774,-0.544535 -1.89164,-0.945832 -1.89164,-0.945832 0,0 1.45097,0.393665 1.89657,0.940906 0.50271,0.617384 0.74158,1.525841 0.60593,2.310367 -0.0854,0.493672 -0.29618,1.021273 -0.84732,1.241383 -0.68284,0.272707 -1.47661,0.09217 -2.08867,-0.315283 -0.87541,-0.582768 -2.08868,-2.364554 -2.08868,-2.364554 0,0 -0.62467,1.488377 -1.10347,2.128096 -0.52332,0.699194 -1.1552,1.343364 -1.89164,1.812819 -0.42787,0.27275 -1.00985,0.466563 -1.51724,0.463065 -0.4777,-0.0033 -1.07931,-0.22789 -1.34928,-0.647373 -0.44316,-0.688585 -0.27756,-1.669551 -0.0498,-2.45609 0.25846,-0.892396 1.53697,-2.325144 1.53697,-2.325144 z"
             id="path47"
             sodipodi:nodetypes="caacsssssscaacaasscsssaac" /><path
             style="fill:#aa0000;fill-opacity:1;stroke:#000000;stroke-width:2.11987;stroke-linecap:round;stroke-linejoin:round;stroke-dasharray:none;stroke-opacity:1;paint-order:fill markers stroke"
             d="m 172.41325,77.310575 c 0,0 1.38191,-1.676891 2.28575,-2.246322 1.76146,-1.109744 4.42147,-2.532269 5.87194,-2.128089 -0.50349,1.344596 -2.97335,2.409075 -4.17456,3.881205 -0.60788,0.744978 -1.02286,1.672759 -1.50035,2.463645 -0.62947,1.042608 -1.73398,2.128108 -1.73398,2.128108 z"
             id="path48"
             sodipodi:nodetypes="cacascc" /><circle
             style="fill:#000000;fill-opacity:1;stroke:#000000;stroke-width:2.11987;stroke-linecap:round;stroke-linejoin:round;stroke-dasharray:none;stroke-opacity:1;paint-order:fill markers stroke"
             id="path49"
             cx="157.51619"
             cy="57.482349"
             r="1" /><circle
             style="fill:#000000;fill-opacity:1;stroke:#000000;stroke-width:2.11987;stroke-linecap:round;stroke-linejoin:round;stroke-dasharray:none;stroke-opacity:1;paint-order:fill markers stroke"
             id="circle49"
             cx="188.58133"
             cy="55.911671"
             r="0.5" /><path
             style="fill:#000000;fill-opacity:0;stroke:#000000;stroke-width:2.11987;stroke-linecap:round;stroke-linejoin:round;stroke-dasharray:none;stroke-opacity:1;paint-order:fill markers stroke"
             d="m 152.13953,44.739503 c 0,0 1.24287,-2.925246 2.53011,-2.91751 5.69471,0.03422 7.5549,13.231456 11.03722,13.040617 3.48231,-0.19084 2.40725,-2.837702 2.40725,-2.837702"
             id="path50"
             sodipodi:nodetypes="cazc" /><path
             style="fill:#000000;fill-opacity:0;stroke:#000000;stroke-width:2.11987;stroke-linecap:round;stroke-linejoin:round;stroke-dasharray:none;stroke-opacity:1;paint-order:fill markers stroke"
             d="m 180.11936,51.858436 c 0,0 -1.06797,2.639116 2.11486,2.288224 3.18283,-0.350892 2.83755,-12.811651 8.088,-13.917312 0.84786,-0.178546 2.10151,1.529834 2.10151,1.529834"
             id="path51"
             sodipodi:nodetypes="czac" /></g></g></g></g></svg>
