<?xml version="1.0" encoding="UTF-8" standalone="no"?>
<!-- Created with Inkscape (http://www.inkscape.org/) -->

<svg
   width="92.691261mm"
   height="83.323975mm"
   viewBox="0 0 350.32917 314.92526"
   version="1.1"
   id="svg1"
   xml:space="preserve"
   inkscape:version="1.2.2 (732a01da63, 2022-12-09)"
   sodipodi:docname="school.svg"
   xmlns:inkscape="http://www.inkscape.org/namespaces/inkscape"
   xmlns:sodipodi="http://sodipodi.sourceforge.net/DTD/sodipodi-0.dtd"
   xmlns="http://www.w3.org/2000/svg"
   xmlns:svg="http://www.w3.org/2000/svg"><sodipodi:namedview
     id="namedview1"
     pagecolor="#ffffff"
     bordercolor="#000000"
     borderopacity="0.25"
     inkscape:showpageshadow="2"
     inkscape:pageopacity="0.0"
     inkscape:pagecheckerboard="0"
     inkscape:deskcolor="#d1d1d1"
     inkscape:document-units="mm"
     inkscape:zoom="0.69166114"
     inkscape:cx="558.79965"
     inkscape:cy="791.57259"
     inkscape:window-width="1827"
     inkscape:window-height="1057"
     inkscape:window-x="-9"
     inkscape:window-y="-9"
     inkscape:window-maximized="1"
     inkscape:current-layer="layer1"
     showgrid="false" /><defs
     id="defs1" /><g
     inkscape:label="Layer 1"
     inkscape:groupmode="layer"
     id="layer1"
     transform="translate(-453.54334,-302.36223)"><g
       id="g63"
       inkscape:label="fight"
       style="display:inline;stroke-width:5.66929;stroke-dasharray:none"
       transform="translate(-1222.966,-303.09721)"
       inkscape:highlight-color="#b3b3b3"
       inkscape:export-filename="g63.svg"
       inkscape:export-xdpi="96"
       inkscape:export-ydpi="96"><path
         style="display:inline;fill:#b3b3b3;fill-opacity:1;stroke:#000000;stroke-width:5.66929;stroke-dasharray:none;stroke-opacity:1"
         d="m 1782.4345,668.09347 c 8.1767,-3.19507 12.1037,-24.23509 39.8176,-27.24948 28.9906,-3.15326 25.7556,22.00443 40.8254,14.43647 7.0833,-8.5159 15.8915,-12.43608 24.5132,0.19626 8.4299,12.35132 18.9256,-9.3226 36.5082,-1.4203 12.0437,5.41286 5.5545,24.26192 20.5507,24.29388 22.7599,0.0485 31.8725,5.74061 39.3868,29.87363 3.6096,11.59234 -13.2333,30.3387 -7.7551,35.58871 11.4558,10.97869 17.846,25.35364 10.0031,39.7919 -4.7637,8.76964 -21.364,8.10003 -19.0998,11.30622 8.2581,11.69375 8.1984,22.32323 1.1886,34.12878 -6.9229,11.65923 -25.9972,5.40007 -28.6773,14.18223 -3.7918,12.42476 -3.8703,31.18367 -20.2328,24.94136 -14.3811,-5.4864 -8.2457,17.38315 -19.7799,24.71402 -19.3786,12.31661 -45.604,7.49271 -59.2913,-8.64115 -10.548,-12.43346 -15.7211,13.17712 -25.3626,15.32067 -25.6866,5.71075 -39.0798,-9.93578 -37.889,-23.39514 1.1908,-13.45936 -33.7012,-2.30309 -30.9232,-20.39414 2.6658,-17.36044 -23.386,-1.59831 -30.1496,-15.8754 -9.1459,-10.32651 -12.1063,-27.3483 -3.4479,-38.93965 11.5496,-12.18301 -16.8594,-19.46137 -9.2541,-35.85563 4.5347,-9.77515 12.2266,-16.94569 3.7355,-29.14599 -9.7134,-13.95648 -2.1142,-39.06671 17.0005,-43.28888 12.8337,-0.50945 22.1095,-6.53392 25.3483,-20.46437 3.1469,-13.53491 26.346,-1.50993 32.9847,-4.104 z"
         id="path42"
         sodipodi:nodetypes="sscssssssssssssszsccsscss" /><path
         style="fill:#b3b3b3;fill-opacity:1;stroke:#000000;stroke-width:5.66929;stroke-dasharray:none;stroke-opacity:1"
         d="m 1716.5197,661.81253 c 3.9561,-0.98274 8.337,2.89602 11.8741,-0.41132 3.4064,-2.30587 6.4057,-6.10806 6.3122,-10.38146 -0.5159,-3.55622 -3.4692,-7.30732 -1.1696,-10.80424 2.5989,-3.50058 7.388,-5.65146 7.9457,-10.41432 2.0098,-7.46764 -0.4787,-16.79293 -7.5413,-20.69142 -5.1644,-2.18446 -10.7983,0.51734 -14.906,3.52401 -2.6958,1.97325 -3.3446,9.25843 -7.9324,6.03304 -2.9873,-3.57094 -7.682,-5.47702 -12.3013,-4.30294 -4.8914,1.26996 -9.0052,6.97061 -7.2289,12.01543 1.2369,3.47915 5.3464,8.36918 1.4125,11.4615 -4.0981,1.3545 -9.2437,0.63979 -11.7414,5.06735 -3.0356,3.18387 -2.4118,9.22732 1.7619,11.07115 3.467,1.13296 9.2396,-1.20765 9.4798,4.42771 0.18,3.21058 1.6933,6.07827 3.8212,8.42877 2.1227,2.68451 5.8615,3.99131 9.104,2.5942 4.3624,-0.79524 7.3911,-4.0109 10.1793,-7.13546 l 0.4454,-0.2702 z"
         id="path46"
         sodipodi:nodetypes="ccccccscccccccccccc" /><path
         sodipodi:type="star"
         style="fill:#ffff00;fill-opacity:1;stroke:#000000;stroke-width:5.66929;stroke-linecap:round;stroke-linejoin:round;stroke-dasharray:none;stroke-opacity:1;paint-order:fill markers stroke"
         id="path47"
         inkscape:flatsided="false"
         sodipodi:sides="5"
         sodipodi:cx="1836.1593"
         sodipodi:cy="735.18658"
         sodipodi:r1="30.396093"
         sodipodi:r2="15.198046"
         sodipodi:arg1="1.5232132"
         sodipodi:arg2="2.1515318"
         inkscape:rounded="0"
         inkscape:randomized="0"
         d="m 1837.6051,765.54827 -9.784,-17.65522 -20.0907,-1.94915 13.7677,-14.76094 -4.3546,-19.70968 18.2929,8.53246 17.3994,-10.2321 -2.462,20.03429 15.108,13.3859 -19.8146,3.84941 z"
         inkscape:transform-center-x="-0.44677513"
         inkscape:transform-center-y="2.4743749"
         transform="translate(-44.458187,19.15678)" /><path
         sodipodi:type="star"
         style="fill:#ffff00;fill-opacity:1;stroke:#000000;stroke-width:8.92456;stroke-linecap:round;stroke-linejoin:round;stroke-dasharray:none;stroke-opacity:1;paint-order:fill markers stroke"
         id="path48"
         inkscape:flatsided="false"
         sodipodi:sides="5"
         sodipodi:cx="1836.1593"
         sodipodi:cy="735.18658"
         sodipodi:r1="30.396093"
         sodipodi:r2="15.198046"
         sodipodi:arg1="1.5232132"
         sodipodi:arg2="2.1515318"
         inkscape:rounded="0"
         inkscape:randomized="0"
         d="m 1837.6051,765.54827 -9.784,-17.65522 -20.0907,-1.94915 13.7677,-14.76094 -4.3546,-19.70968 18.2929,8.53246 17.3994,-10.2321 -2.462,20.03429 15.108,13.3859 -19.8146,3.84941 z"
         inkscape:transform-center-x="-0.28381235"
         inkscape:transform-center-y="1.5718368"
         transform="matrix(0.63524577,0,0,0.63524577,756.29606,293.64439)" /><path
         sodipodi:type="star"
         style="fill:#ffff00;fill-opacity:1;stroke:#000000;stroke-width:10.4204;stroke-linecap:round;stroke-linejoin:round;stroke-dasharray:none;stroke-opacity:1;paint-order:fill markers stroke"
         id="path49"
         inkscape:flatsided="false"
         sodipodi:sides="5"
         sodipodi:cx="1836.1593"
         sodipodi:cy="735.18658"
         sodipodi:r1="30.396093"
         sodipodi:r2="15.198046"
         sodipodi:arg1="1.5232132"
         sodipodi:arg2="2.1515318"
         inkscape:rounded="0"
         inkscape:randomized="0"
         d="m 1837.6051,765.54827 -9.784,-17.65522 -20.0907,-1.94915 13.7677,-14.76094 -4.3546,-19.70968 18.2929,8.53246 17.3994,-10.2321 -2.462,20.03429 15.108,13.3859 -19.8146,3.84941 z"
         inkscape:transform-center-x="-0.24306957"
         inkscape:transform-center-y="1.3462032"
         transform="matrix(0.54405721,0,0,0.54405721,1009.0754,249.49431)" /><path
         style="fill:#000000;fill-opacity:1;stroke:#000000;stroke-width:3.02362;stroke-linecap:round;stroke-linejoin:round;stroke-dasharray:none;stroke-opacity:1;paint-order:fill markers stroke"
         id="path50"
         d="m 1913.3886,618.33576 c -0.8938,-1.92413 -2.246,-3.57488 -3.6742,-5.12308 -0.9546,-0.91843 -1.9381,-1.83145 -3.0715,-2.53072 -1.2743,-0.78618 -2.6438,-1.33356 -4.0379,-1.85878 -2.6638,-0.87876 -5.4561,-1.2069 -8.2391,-1.42598 -1.6213,-0.0445 -3.2604,-0.23387 -4.8836,-0.11372 -1.4241,0.10542 -1.8852,0.25185 -3.2699,0.54619 -0.5049,0.1594 -1.0226,0.2829 -1.5147,0.47819 -1.8393,0.72991 -3.7494,1.88383 -5.2251,3.20723 -0.3831,0.34361 -0.7306,0.72503 -1.0959,1.08755 -1.4514,1.77659 -2.8134,3.68682 -3.7395,5.7992 -0.1915,0.43674 -0.3439,0.88958 -0.5158,1.33437 -0.7643,2.41691 -1.0757,4.97239 -1.0688,7.50449 0,0.50631 0.04,1.01186 0.059,1.5178 0.1884,1.80911 0.612,3.57609 1.4287,5.20729 0.4112,0.82142 0.6404,1.11871 1.1392,1.869 1.0295,1.28087 2.2545,2.37464 3.6704,3.21381 0.8915,0.52839 1.567,0.80902 2.5098,1.24318 1.9415,0.85397 3.9972,1.43418 6.0764,1.84029 0.4499,0.0879 0.9,0.18109 1.3557,0.23116 0.4926,0.0541 0.9897,0.0539 1.4845,0.0809 1.8799,-0.0371 3.7268,-0.38522 5.4663,-1.10545 0.9792,-0.4054 1.2962,-0.6226 2.1982,-1.1377 1.3214,-0.82574 2.6292,-1.71585 3.4341,-3.09014 0.1638,-0.27974 0.2846,-0.58254 0.427,-0.87381 0.5221,-1.57766 0.8028,-3.28487 0.6903,-4.95191 -0.02,-0.29998 -0.073,-0.59685 -0.11,-0.89528 -0.1743,-0.74038 -0.2082,-1.12672 -0.6588,-1.81423 -0.9352,-1.42687 -2.5328,-2.15261 -4.0196,-2.84196 -2.4367,-0.9909 -5.0266,-1.54103 -7.6268,-1.88232 -1.5304,-0.16677 -3.0721,-0.26465 -4.6072,-0.0962 -1.1566,0.12692 -1.5163,0.23557 -2.6582,0.48155 -2.1803,0.59792 -4.2935,1.43783 -6.2307,2.61105 -0.4275,0.25884 -0.8381,0.54442 -1.2571,0.81663 -1.5285,1.04545 -2.9611,2.24112 -4.2219,3.60016 -0.7285,0.78533 -0.996,1.15446 -1.652,1.98195 -1.3343,1.73263 -2.1413,3.7698 -2.8448,5.81895 -0.5972,1.80826 -0.8136,3.69924 -0.9506,5.58863 -0.1545,2.1513 -0.097,4.29988 0.1284,6.44244 0.3758,1.89256 0.7854,3.86547 1.7275,5.57527 0.223,0.40454 0.4928,0.78141 0.7391,1.17211 1.4723,1.94733 3.4525,3.34038 5.8341,3.94492 0.4449,0.11291 0.9037,0.161 1.3555,0.2415 2.115,0.21565 4.198,-0.26854 6.062,-1.27511 0.3128,-0.16891 0.6071,-0.36995 0.9107,-0.55493 1.4506,-0.99148 2.4709,-2.37694 2.9217,-4.07967 0.081,-0.30472 0.1261,-0.61769 0.1892,-0.92654 0.1364,-1.15967 0.307,-2.37218 0.056,-3.53193 -0.2026,-0.93702 -0.3623,-1.15707 -0.7572,-1.98474 -0.8083,-1.23246 -1.8719,-2.22654 -3.265,-2.7618 -0.8435,-0.3241 -1.3834,-0.38841 -2.2525,-0.55285 -2.1405,-0.21574 -4.3165,-0.37579 -6.468,-0.21606 -0.4707,0.0349 -0.9384,0.10313 -1.4076,0.1547 -2.6668,0.40301 -5.2642,1.4721 -7.1526,3.46349 -0.4955,0.52257 -0.896,1.12766 -1.344,1.69149 -1.4303,2.14013 -2.5587,4.46555 -3.3971,6.89744 -0.4672,1.35518 -0.5556,1.80768 -0.9145,3.19214 -0.7032,3.13596 -0.8645,6.35807 -0.9664,9.56021 -0.029,1.46078 -0.031,0.75745 0,2.10999 0.062,2.67182 3.84,2.5848 3.7785,-0.087 v 0 c -0.03,-1.17597 -0.026,-0.54142 0,-1.90366 0.092,-2.92449 0.2279,-5.86833 0.8486,-8.7364 0.7993,-3.12276 1.8516,-6.02055 3.6484,-8.72953 0.2826,-0.38685 0.5301,-0.80207 0.8479,-1.16057 1.3093,-1.47682 3.1689,-2.24498 5.0779,-2.54214 0.3784,-0.0446 0.7554,-0.1035 1.1353,-0.13374 1.8738,-0.14918 3.7685,0.002 5.636,0.15781 1.2545,0.2168 1.9421,0.29327 2.8141,1.28407 0.091,0.16647 0.3344,0.58549 0.3913,0.78596 0.214,0.75417 0.036,1.57279 -0.021,2.33335 -0.189,1.12454 -0.4306,1.80714 -1.3954,2.50701 -1.317,0.84667 -2.7767,1.4353 -4.3715,1.30815 -0.2665,-0.0359 -0.537,-0.0491 -0.7995,-0.10762 -1.5217,-0.33928 -2.8571,-1.18464 -3.8212,-2.40102 -0.1661,-0.24671 -0.3489,-0.48291 -0.4982,-0.74014 -0.7663,-1.32094 -1.0498,-2.88731 -1.3835,-4.35486 -0.2077,-1.91925 -0.2526,-3.84362 -0.1167,-5.77125 0.1108,-1.5641 0.2714,-3.13231 0.7557,-4.63275 0.5638,-1.64516 1.1757,-3.30204 2.2355,-4.70224 1.4302,-1.81733 3.0271,-3.48737 4.976,-4.76148 1.958,-1.28913 3.9452,-2.30105 6.227,-2.899 0.9334,-0.2076 1.1989,-0.29138 2.1366,-0.40519 1.2779,-0.15508 2.5621,-0.0563 3.8372,0.0758 2.2285,0.28292 4.449,0.75384 6.5458,1.57402 1.065,0.47217 0.6768,0.26378 1.6207,0.81311 0.1311,0.0763 0.6797,0.32775 0.7683,0.51953 0.056,0.12219 0.073,0.25913 0.1094,0.3887 0.196,1.25177 0.041,2.53043 -0.2648,3.75478 -0.1168,0.28895 -0.1673,0.46396 -0.3462,0.71859 -0.4897,0.69709 -1.3075,1.06975 -1.9751,1.55974 -1.8185,1.06613 -3.4668,1.67395 -5.6045,1.74028 -0.3415,-0.0106 -0.6847,0.004 -1.0245,-0.0319 -0.3977,-0.0414 -0.7904,-0.12227 -1.183,-0.19782 -1.8133,-0.34896 -3.6104,-0.84208 -5.3045,-1.58299 -1.8308,-0.83391 -3.291,-1.5602 -4.6175,-3.129 -0.4576,-0.67103 -0.9109,-1.35267 -1.2152,-2.11144 -0.3863,-0.96312 -0.5637,-1.99589 -0.7136,-3.01652 -0.1171,-2.52488 0.027,-5.08946 0.7668,-7.52086 0.1242,-0.33499 0.2317,-0.67662 0.3725,-1.00497 0.7484,-1.74546 1.8751,-3.31397 3.0307,-4.80644 0.2649,-0.27175 0.5152,-0.55849 0.7946,-0.81524 0.8734,-0.80257 1.8796,-1.43432 2.9192,-1.99537 0.3567,-0.19253 0.7102,-0.39469 1.0844,-0.5504 0.375,-0.15599 0.7713,-0.2547 1.1569,-0.38205 0.9176,-0.20362 1.5869,-0.38738 2.5227,-0.4608 1.5068,-0.11821 3.0302,0.0665 4.5356,0.10259 2.4331,0.18889 4.8766,0.45935 7.2136,1.19945 1.0882,0.40034 2.1891,0.81459 3.1894,1.41279 0.915,0.54717 1.6997,1.28218 2.4715,2.00803 0.9044,0.96447 1.7516,1.97019 2.4536,3.09557 0.1194,0.1913 0.2153,0.39655 0.3342,0.58809 0.016,0.0263 0.046,0.0412 0.069,0.0618 0.8452,2.53538 4.4307,1.34019 3.5856,-1.1952 z" /><path
         style="fill:#000000;fill-opacity:1;stroke:#000000;stroke-width:3.02362;stroke-linecap:round;stroke-linejoin:round;stroke-dasharray:none;stroke-opacity:1;paint-order:fill markers stroke"
         id="path51"
         d="m 1816.3562,620.34484 c 0.2191,0.85808 0.1432,0.51127 0.349,1.63106 0.3308,1.80016 0.4234,2.5414 0.9045,4.4999 0.5066,2.06189 1.5713,5.73665 2.1429,7.7485 2.1583,7.03781 4.5655,14.00411 7.167,20.89043 1.795,4.61136 3.7214,9.16922 5.5558,13.7648 0.9002,2.40672 1.8867,4.77942 2.9197,7.13167 1.0752,2.44672 4.5354,0.92622 3.4602,-1.5205 v 0 c -1.0167,-2.31236 -1.9845,-4.64613 -2.8697,-7.01238 -1.826,-4.57391 -3.7424,-9.11074 -5.5305,-13.69981 -2.5659,-6.78601 -4.9352,-13.65275 -7.0669,-20.58729 -0.5056,-1.77907 -1.6242,-5.64912 -2.0833,-7.50943 -0.4965,-2.01206 -0.5437,-2.5753 -0.8894,-4.42619 -0.2399,-1.28409 -0.1718,-0.96531 -0.4252,-1.94908 -0.7342,-2.5697 -4.3683,-1.53138 -3.6341,1.03832 z" /><path
         style="fill:#000000;fill-opacity:1;stroke:#000000;stroke-width:3.02362;stroke-linecap:round;stroke-linejoin:round;stroke-dasharray:none;stroke-opacity:1;paint-order:fill markers stroke"
         id="path52"
         d="m 1789.609,617.0918 c 1.5149,4.70508 3.0744,9.39612 4.6051,14.09629 2.2199,6.755 4.5713,13.4716 7.1627,20.09408 1.4376,3.6738 2.3995,5.8825 3.9137,9.45928 2.4377,5.73873 5.2282,11.3115 8.1831,16.79773 1.1401,2.14737 2.3566,4.25154 3.5179,6.38716 1.2768,2.34784 4.5971,0.54224 3.3204,-1.80559 v 0 c -1.159,-2.1312 -2.3725,-4.23123 -3.5108,-6.37382 -2.8991,-5.3824 -5.6386,-10.84879 -8.0301,-16.4791 -1.4808,-3.49682 -2.4548,-5.73464 -3.8584,-9.32105 -2.5706,-6.56803 -4.9032,-13.22943 -7.1047,-19.92909 -1.5165,-4.65641 -3.0587,-9.30461 -4.5648,-13.9642 -0.7342,-2.56971 -4.3683,-1.53139 -3.6341,1.03831 z" /><path
         style="fill:#000000;fill-opacity:1;stroke:#000000;stroke-width:3.02362;stroke-linecap:round;stroke-linejoin:round;stroke-dasharray:none;stroke-opacity:1;paint-order:fill markers stroke"
         id="path53"
         d="m 1962.2535,782.27413 c 0.8598,0.36617 1.9903,0.87754 2.8729,1.10603 5.1549,1.33463 10.7094,1.40311 15.989,1.66272 9.4543,0.42377 18.9197,0.35254 28.3792,0.52854 2.6721,0.0496 2.7423,-3.72927 0.07,-3.77887 v 0 c -9.4213,-0.17451 -18.8484,-0.10505 -28.2645,-0.52467 -3.5558,-0.17355 -5.9693,-0.23601 -9.43,-0.59262 -1.2499,-0.1288 -4.1219,-0.51884 -5.4881,-0.85987 -0.7223,-0.18031 -1.7226,-0.62234 -2.4384,-0.92178 -2.3904,-1.19519 -4.0807,2.18532 -1.6903,3.38052 z" /><path
         style="fill:#000000;fill-opacity:1;stroke:#000000;stroke-width:3.02362;stroke-linecap:round;stroke-linejoin:round;stroke-dasharray:none;stroke-opacity:1;paint-order:fill markers stroke"
         id="path54"
         d="m 1960.6091,798.55129 c 4.929,0.79578 9.8549,1.60706 14.7931,2.34499 6.9663,1.07413 13.9877,1.7231 21.0216,2.13258 0.6961,0.0326 1.3923,0.0653 2.0884,0.098 2.6696,0.12507 2.8465,-3.65031 0.1769,-3.77539 v 0 c -0.682,-0.0319 -1.364,-0.0638 -2.046,-0.0957 -6.9204,-0.40189 -13.8286,-1.04046 -20.6824,-2.09746 -4.9681,-0.74211 -9.9231,-1.56246 -14.8828,-2.35729 -2.6519,-0.33149 -3.1207,3.41885 -0.4688,3.75034 z" /><path
         style="fill:#000000;fill-opacity:1;stroke:#000000;stroke-width:3.02362;stroke-linecap:round;stroke-linejoin:round;stroke-dasharray:none;stroke-opacity:1;paint-order:fill markers stroke"
         id="path55"
         d="m 1955.5607,810.20221 c 0.4907,0.22432 0.9707,0.47341 1.4719,0.67296 1.1635,0.46323 3.1355,1.04744 4.254,1.36389 3.4598,0.97881 6.9644,1.77757 10.4639,2.59798 5.7478,1.42147 11.5148,2.76081 17.282,4.10011 2.6032,0.60451 3.4581,-3.07706 0.8549,-3.68157 v 0 c -5.7647,-1.33854 -11.529,-2.67768 -17.2743,-4.09832 -4.9686,-1.16459 -9.9663,-2.27442 -14.7846,-3.97868 -2.1381,-1.60351 -4.4058,1.42011 -2.2678,3.02363 z" /><path
         style="fill:#000000;fill-opacity:1;stroke:#000000;stroke-width:3.02362;stroke-linecap:round;stroke-linejoin:round;stroke-dasharray:none;stroke-opacity:1;paint-order:fill markers stroke"
         id="path57"
         d="m 1729.5054,769.21487 c -0.7013,1.53657 -1.0585,3.19222 -1.3991,4.83756 -0.5008,2.59214 -0.6244,5.22584 -0.6892,7.85779 0.096,3.24446 0.8693,6.55485 2.4619,9.40855 0.2787,0.49932 0.6179,0.96233 0.9269,1.4435 0.7579,1.07957 1.7244,1.96464 2.6808,2.85857 0.3013,0.2816 0.8276,0.61748 0.8174,1.09786 -0.028,0.01 -0.071,0.003 -0.085,0.0292 -0.1177,0.22477 -0.08,0.50236 -0.1491,0.74648 -0.1928,0.67956 -0.5144,1.36734 -0.7542,2.0317 -0.8386,2.28117 -1.3579,4.64999 -1.6435,7.05825 -0.1352,2.98004 1.364,5.50638 3.2851,7.65283 1.364,1.42904 3.0295,2.37911 4.8014,3.19388 0.2683,0.1122 0.5366,0.22439 0.8049,0.33659 2.467,1.02765 3.9203,-2.46129 1.4533,-3.48894 v 0 c -0.2265,-0.0939 -0.453,-0.1878 -0.6795,-0.2817 -1.3168,-0.60517 -2.5753,-1.25696 -3.5987,-2.31884 -1.2148,-1.26215 -2.2695,-2.85367 -2.3125,-4.65519 0.2435,-2.12136 0.7083,-4.20523 1.4447,-6.214 0.6401,-1.7739 1.4133,-3.51127 0.9649,-5.43563 -0.1543,-0.34522 -0.2699,-0.7105 -0.4629,-1.03566 -0.8591,-1.44717 -2.4805,-2.24127 -3.4036,-3.64324 -1.7239,-2.57505 -2.6983,-5.58332 -2.7741,-8.69214 0.058,-2.40681 0.1615,-4.81548 0.6126,-7.18729 0.2716,-1.32566 0.5443,-2.6599 1.0778,-3.90992 1.1952,-2.39038 -2.1853,-4.08064 -3.3805,-1.69026 z" /><path
         style="display:inline;fill:#d40000;stroke:#000000;stroke-width:5.66929;stroke-linecap:round;stroke-linejoin:round;stroke-dasharray:none;stroke-opacity:1;paint-order:fill markers stroke"
         d="m 1768.3614,866.01079 c 0,0 -21.3622,2.47874 -30.1363,8.05963 -5.6392,3.58698 -13.6963,8.71116 -12.9024,15.34726 1.0643,8.89589 12.7107,16.3126 21.661,15.91309 7.5761,-0.33822 17.062,-15.04984 17.062,-15.04984 0,0 -1.5378,11.96413 2.3769,15.35538 5.0005,4.33167 15.9328,5.54242 19.8462,0.20825 7.6594,-10.44023 -12.0493,-36.92957 -12.0493,-36.92957 0,0 25.8249,10.96421 33.1206,2.63191 4.0453,-4.62003 1.2819,-14.67234 -3.872,-18.01072 -4.6858,-3.03504 -16.3823,3.48301 -16.3823,3.48301 0,0 12.0033,-18.35718 7.8431,-26.61897 -3.9159,-7.7767 -16.4094,-12.14095 -24.5256,-8.98863 -6.3625,2.47112 -8.7282,11.38649 -9.4298,18.17573 -0.9401,9.09718 7.3879,26.42347 7.3879,26.42347 z"
         id="path24-9"
         sodipodi:nodetypes="cssscsscsscsssc" /><path
         style="fill:#000000;fill-opacity:1;stroke:#000000;stroke-width:3.02362;stroke-linecap:round;stroke-linejoin:round;stroke-dasharray:none;stroke-opacity:1;paint-order:fill markers stroke"
         id="path60"
         d="m 1813.5408,806.53888 c -0.3201,1.31739 -0.372,2.67861 -0.4359,4.02685 -0.098,2.3615 0.3007,4.69723 1.3679,6.82286 0.2745,0.54652 0.6178,1.0556 0.9267,1.58341 1.6749,2.52903 3.9418,4.22283 6.7511,5.32475 0.532,0.20866 1.0829,0.36515 1.6244,0.54773 2.5482,0.71481 5.1415,1.22952 7.7569,1.62077 0.1325,0.0297 0.4889,0.18946 0.3975,0.0891 -1.1361,-1.24707 -0.7823,4.49232 -1.1676,-2.44003 -0.017,-0.29762 0.4146,-0.43768 0.557,-0.69954 0.043,-0.0797 -0.1652,0.0759 -0.2431,0.12232 -0.185,0.11028 -0.3632,0.23159 -0.5448,0.34739 -1.7448,1.17564 -2.441,2.70985 -3.1609,4.62454 -0.5274,1.9579 -1.0075,4.18062 -0.9721,6.22155 0.01,0.41562 0.062,0.82901 0.094,1.24352 0.3268,2.28064 1.3789,4.29894 2.6342,6.19339 1.2171,1.63055 2.8492,2.8763 4.5403,3.97854 0.5316,0.35428 1.1201,0.59796 1.6986,0.86001 0.081,0.0367 0.2841,0.19368 0.2395,0.11684 -1.2095,-2.08561 -1.3039,-0.82507 -0.7557,-2.59208 -0.034,-0.007 -0.071,-0.0352 -0.1032,-0.0213 -0.197,0.0847 -1.3288,0.75029 -1.3893,0.78559 -0.3883,0.22662 -1.241,0.7188 -1.6119,0.98143 -0.2985,0.21131 -0.5772,0.44916 -0.8658,0.67374 -1.3804,1.22391 -2.4184,2.73279 -3.095,4.44738 -0.1458,0.3695 -0.2597,0.75084 -0.3895,1.12626 -0.5851,2.16287 -0.8377,4.40523 -0.7331,6.6414 0.1257,1.03442 0.2813,2.15452 0.9086,3.02766 0.1609,0.22395 0.3672,0.41145 0.5509,0.61718 1.9409,1.83719 4.5391,-0.90767 2.5981,-2.74486 v 0 c 0.031,0.0608 0.079,0.1154 0.091,0.18225 0.01,0.0307 -0.053,-0.0358 -0.07,-0.0626 -0.2177,-0.36391 -0.2393,-0.81432 -0.3053,-1.2194 -0.1087,-1.75606 0.1309,-3.52036 0.5382,-5.22776 0.4874,-1.47732 1.08,-2.76405 2.2557,-3.82784 1.3454,-1.10315 2.9701,-1.76324 4.3705,-2.7872 0.2355,-0.48086 0.7624,-0.91006 0.7066,-1.44258 -0.2122,-2.02358 -1.3411,-1.98542 -2.5835,-2.70529 -1.2647,-0.81474 -2.5015,-1.72807 -3.4526,-2.90494 -0.9142,-1.35846 -1.7158,-2.79687 -2.0134,-4.42849 -0.027,-0.25007 -0.075,-0.49874 -0.082,-0.75022 -0.047,-1.69424 0.3519,-3.44196 0.743,-5.07689 0.3848,-1.07849 0.7231,-2.12407 1.7114,-2.78574 0.4656,-0.35812 1.4497,-0.59275 1.528,-1.25263 0.2654,-2.23531 -0.4792,-2.74196 -2.0659,-3.0487 -2.4018,-0.35852 -4.7826,-0.8287 -7.1265,-1.47039 -0.4274,-0.13851 -0.862,-0.25643 -1.2822,-0.41555 -2.0438,-0.77399 -3.8141,-1.96826 -5.0381,-3.80834 -0.2322,-0.37754 -0.4903,-0.74035 -0.6967,-1.13261 -0.8438,-1.60372 -1.1476,-3.35967 -1.0667,-5.15817 0.051,-1.09858 0.079,-2.21068 0.3271,-3.28661 0.6482,-2.59274 -3.0185,-3.50941 -3.6666,-0.91668 z" /><path
         style="display:inline;fill:#0000ff;stroke:#000000;stroke-width:5.66929;stroke-linecap:round;stroke-linejoin:round;stroke-dasharray:none;paint-order:fill markers stroke"
         d="m 1944.583,837.77214 c 0,0 -2.3162,-16.04241 -6.923,-22.3265 -4.4324,-6.0465 -18.4823,-12.81666 -18.4823,-12.81666 0,0 -7.3275,14.21843 -5.2845,21.2136 1.0963,3.75406 3.928,6.57513 7.1437,8.80102 2.9258,2.02522 10.9744,3.936 10.9744,3.936 0,0 -11.7313,1.04224 -13.8623,5.53876 -1.9366,4.08547 -0.079,11.16262 4.0798,12.93555 6.4136,2.73401 18.7477,-9.27376 18.7477,-9.27376 0,0 -0.166,18.1191 6.5976,20.00499 4.6411,1.29405 10.0229,-4.68141 10.9768,-9.40416 0.8305,-4.11172 -6.6781,-9.95747 -6.6781,-9.95747 0,0 7.4525,4.60076 11.3014,5.46066 3.0767,0.6873 6.7991,0.21428 9.2934,-0.83839 6.3469,-2.67872 12.1943,-16.28855 12.1943,-16.28855 0,0 -13.7835,-6.16075 -21.0018,-5.56889 -6.9499,0.56981 -19.0772,8.5839 -19.0772,8.5839 z"
         id="path19-1"
         sodipodi:nodetypes="cacsscsscsscsscac" /><path
         style="display:inline;fill:#ffff00;stroke:#000000;stroke-width:5.66929;stroke-linecap:round;stroke-linejoin:round;stroke-dasharray:none;stroke-opacity:1;paint-order:fill markers stroke"
         d="m 1875.2954,711.02681 c 0,0 -6.566,-7.83491 -7.0537,-12.63321 -0.6626,-6.51456 2.1044,-13.41338 5.9294,-18.72831 4.1346,-5.74521 17.1606,-12.50733 17.1606,-12.50733 0,0 -3.3567,10.05387 -3.9281,15.28251 -0.5053,4.62454 1.4745,9.40512 0.4732,13.94817 -1.2043,5.4637 -7.5682,14.98139 -7.5682,14.98139 0,0 11.1051,-11.93356 18.2908,-15.36372 3.4189,-1.63214 7.4026,-2.67694 11.1566,-2.16997 6.9737,0.94387 18.9064,9.3946 18.9064,9.3946 0,0 -15.2768,8.10967 -23.4401,10.18218 -7.6963,1.95397 -23.9939,1.96615 -23.9939,1.96615 z"
         id="path31-3"
         sodipodi:nodetypes="csscsscsscscc" /><path
         style="fill:#000000;fill-opacity:1;stroke:#000000;stroke-width:3.02362;stroke-linecap:round;stroke-linejoin:round;stroke-dasharray:none;stroke-opacity:1;paint-order:fill markers stroke"
         id="path61"
         d="m 1838.7232,715.79259 c 0.9949,-1.93102 2.9401,-3.16015 4.6726,-4.35934 2.8854,-1.68751 6.2086,-2.11841 9.4757,-2.44467 0.9076,0.0389 1.9423,-0.013 2.7002,0.59638 0.714,0.57406 1.182,1.53921 1.6226,2.31132 0.4738,0.89577 0.8832,1.82372 1.1821,2.7927 0.1368,0.44356 0.1868,0.91142 0.3311,1.35261 0.1,0.30504 0.2422,0.59445 0.3633,0.89167 0.6143,0.37842 1.1417,0.96577 1.8431,1.13525 0.8768,0.21188 1.7888,-0.49767 2.4389,-0.9325 0.7922,-0.52999 1.555,-1.07726 2.372,-1.57087 1.76,-1.09172 3.7936,-1.34495 5.8133,-1.51287 1.2549,-0.005 2.6891,-0.16431 3.7949,0.58017 0.4547,0.3061 0.7456,0.75854 1.0748,1.18091 1.0783,1.43209 1.3865,3.11239 1.5569,4.8487 0.1922,1.46719 -0.047,2.89618 -0.4905,4.29437 -0.668,1.73214 -0.4577,2.92239 1.3012,3.92762 0.424,0.24229 1.6054,0.42494 2.1073,0.51777 1.6849,0.10262 3.1981,0.74527 4.6928,1.46887 0.8235,0.54687 0.9985,1.56609 1.196,2.4714 0.1794,0.97927 0.2482,2.00697 -0.2039,2.92114 -1.0254,2.46799 2.4648,3.91812 3.4902,1.45013 v 0 c 0.6566,-1.68616 0.7969,-3.43149 0.3991,-5.2094 -0.5156,-2.20458 -1.1841,-3.84181 -3.2363,-5.03597 -1.7983,-0.86841 -3.6491,-1.62592 -5.6648,-1.78528 -0.2469,-0.0434 -0.4924,-0.0957 -0.7407,-0.13017 -0.091,-0.0126 -0.2788,-0.10221 -0.2748,-0.0106 0.01,0.2 0.2567,0.32574 0.2976,0.52172 0.2309,1.10635 -0.2469,1.21886 0.2501,-4e-4 0.5627,-1.88309 0.8906,-3.81452 0.6369,-5.78299 -0.2665,-2.55732 -0.8278,-4.84685 -2.4452,-6.92386 -0.9542,-1.06216 -1.183,-1.49427 -2.464,-2.20048 -1.7138,-0.94487 -3.7064,-0.94307 -5.5997,-0.86939 -2.6027,0.22796 -5.1953,0.64117 -7.456,2.04999 -0.8813,0.53946 -1.7692,1.08577 -2.5913,1.71493 -0.073,0.0562 -0.2646,0.13487 -0.1958,0.19673 0.1275,0.11463 0.3384,0.0557 0.5076,0.0835 0.3395,0.33674 0.679,0.67348 1.0185,1.01022 -0.3014,-0.31329 -0.049,-0.0154 -0.2818,-0.93453 -0.3923,-1.54804 -1.0045,-3.02661 -1.7661,-4.42895 -0.8959,-1.48883 -1.7807,-2.90075 -3.3153,-3.83417 -1.4066,-0.85564 -3.0533,-0.92831 -4.643,-0.91619 -3.9098,0.39682 -7.8479,1.00182 -11.256,3.10296 -2.3374,1.63434 -4.8204,3.36867 -6.0228,6.05787 -0.9925,2.48138 2.5167,3.88507 3.5092,1.40368 z" /><path
         style="fill:#000000;fill-opacity:1;stroke:#000000;stroke-width:3.02362;stroke-linecap:round;stroke-linejoin:round;stroke-dasharray:none;stroke-opacity:1;paint-order:fill markers stroke"
         id="path62"
         d="m 1688.279,709.51334 c -0.025,0.17398 -0.059,0.34692 -0.075,0.52195 -0.031,0.33884 -0.059,1.26428 -0.068,1.57281 -0.031,1.1133 -0.039,2.22453 -0.031,3.33818 0.054,2.36505 0.4021,4.75253 1.187,6.9927 0.169,0.48256 0.3803,0.94925 0.5705,1.42387 0.8036,1.75929 1.9097,3.37343 3.3549,4.66875 1.024,0.91786 1.34,1.03847 2.5253,1.77223 2.4115,1.29647 5.068,2.05883 7.7957,2.28997 0.6264,0.0531 1.2561,0.0542 1.8842,0.0814 2.2846,-0.2186 4.5789,-0.65874 6.6936,-1.58614 0.7392,-0.32414 1.4502,-0.71245 2.1457,-1.12192 1.6689,-0.98254 2.021,-1.3712 3.4881,-2.58759 1.3478,-1.36657 2.6513,-2.82492 3.5595,-4.53271 0.9375,-1.7627 1.4258,-3.60531 1.9174,-5.52172 0.4564,-2.08238 0.6808,-4.2601 0.2483,-6.36893 -0.2417,-1.17845 -0.4114,-1.40779 -0.8897,-2.48341 -0.2328,-0.35254 -0.4289,-0.73229 -0.6985,-1.0576 -1.1938,-1.44078 -2.8748,-2.36367 -4.623,-2.95207 -0.3807,-0.12816 -0.7726,-0.22065 -1.1589,-0.33098 -0.3991,-0.0662 -0.7937,-0.17001 -1.1972,-0.19862 -1.3802,-0.0978 -2.8075,0.18331 -3.9762,0.9569 -1.1471,0.75932 -1.7428,1.5243 -2.6599,2.51967 -1.6715,1.97044 -2.8239,4.30887 -3.6189,6.75641 -0.4027,1.24008 -0.5108,1.86191 -0.7839,3.10102 -0.3373,1.79597 -0.4712,3.62275 -0.2885,5.44453 0.045,0.44511 0.093,0.89148 0.1857,1.32912 0.1109,0.52369 0.2825,1.03267 0.4238,1.549 0.2239,0.55042 0.4087,1.11843 0.6717,1.65125 0.5222,1.05772 1.4947,2.58308 2.1935,3.54222 0.4003,0.54936 0.8008,1.10247 1.2627,1.60113 1.229,1.32691 2.0542,1.88622 3.4515,2.97772 1.2793,0.81068 2.1054,1.43435 3.5447,1.94948 2.2604,0.80895 5.0143,1.17836 7.4081,1.16943 0.8499,-0.003 1.6966,-0.1053 2.5449,-0.15794 2.6846,-0.39532 5.4038,-1.03386 7.7233,-2.50756 1.0622,-0.67488 1.4004,-1.06209 2.2841,-1.88956 1.014,-1.06718 1.7683,-2.30715 2.2336,-3.702 0.2333,-0.69911 0.2612,-0.95127 0.4044,-1.66579 0.2228,-1.63468 0.01,-2.81644 -1.3323,-3.92206 -0.6119,-0.50446 -1.1959,-0.60341 -1.9321,-0.83201 -1.3127,-0.22629 -2.6577,-0.20578 -3.9354,0.20152 -0.7255,0.23127 -1.0059,0.41078 -1.6573,0.75151 -0.2271,0.14308 -0.4764,0.25593 -0.6814,0.42924 -1.6232,1.37207 -2.7441,3.46 -3.7468,5.30486 -0.6361,1.26053 -1.154,2.58561 -1.4632,3.96588 -0.1554,0.69348 -0.1897,1.04504 -0.2831,1.73086 -0.1268,1.20354 -0.1756,2.42676 0.082,3.61907 0.197,0.91343 0.3723,1.28184 0.6982,2.1409 0.1938,0.37351 0.361,0.76208 0.5814,1.12054 0.725,1.17927 1.7038,2.37514 2.7394,3.29518 0.8402,0.7465 1.4383,1.11548 2.3505,1.73863 1.9583,1.21714 4.0932,2.08245 6.3082,2.69735 0.2311,0.0503 0.4621,0.10062 0.6932,0.15094 2.614,0.55649 3.401,-3.14019 0.787,-3.69668 v 0 c -0.1589,-0.0327 -0.3179,-0.0655 -0.4768,-0.0982 -1.8195,-0.49588 -3.5704,-1.20346 -5.1888,-2.1805 -0.6074,-0.40915 -1.2588,-0.8218 -1.817,-1.30024 -0.7372,-0.63181 -1.5262,-1.5703 -2.06,-2.3836 -0.1476,-0.22482 -0.261,-0.4703 -0.3915,-0.70544 -0.1618,-0.4085 -0.3823,-0.91842 -0.4882,-1.35305 -0.204,-0.83772 -0.1552,-1.69552 -0.071,-2.54446 0.059,-0.45142 0.1002,-0.83917 0.1962,-1.28608 0.2326,-1.08213 0.6336,-2.12036 1.1261,-3.10914 0.5176,-0.95651 1.0407,-1.8965 1.6559,-2.79508 0.1757,-0.25665 0.3656,-0.50335 0.5463,-0.75652 0.088,-0.12276 0.1492,-0.26751 0.2587,-0.37124 0.1247,-0.1182 0.2875,-0.18831 0.4313,-0.28246 0.2629,-0.1472 0.5463,-0.31918 0.8302,-0.42651 0.6355,-0.24025 1.3173,-0.26064 1.9871,-0.20952 0.1067,0.0153 0.2135,0.03 0.3202,0.0458 0.054,0.008 0.1352,0.0735 0.1623,0.0259 0.04,-0.0707 -0.046,-0.1595 -0.04,-0.24063 0.025,-0.3562 0.3787,0.50986 0.1002,0.55861 -0.2332,1.28266 -0.6284,2.36958 -1.5334,3.34734 -0.559,0.54529 -0.8559,0.88118 -1.521,1.32708 -1.8164,1.21774 -4.0142,1.68081 -6.1338,2.03611 -0.6988,0.0515 -1.3958,0.14593 -2.0964,0.15443 -1.3887,0.0168 -2.9098,-0.15092 -4.2732,-0.40682 -0.5883,-0.11042 -1.178,-0.23055 -1.7459,-0.41982 -1.1317,-0.37721 -1.8011,-0.87796 -2.8116,-1.50396 -0.9513,-0.73218 -1.9776,-1.46126 -2.807,-2.34004 -0.6683,-0.70807 -1.575,-2.03224 -2.0936,-2.84497 -0.2919,-0.45755 -0.5843,-0.91661 -0.8332,-1.39892 -0.2057,-0.39864 -0.3517,-0.82534 -0.5276,-1.23801 -0.1059,-0.35108 -0.2367,-0.69562 -0.3178,-1.05324 -0.4047,-1.7828 -0.2361,-3.64591 0.055,-5.42763 0.2197,-1.01777 0.3231,-1.60552 0.6438,-2.6166 0.629,-1.98329 1.5229,-3.89851 2.8624,-5.50379 0.5706,-0.63811 1.3226,-1.65312 2.1322,-2.04133 0.608,-0.29157 1.242,-0.27418 1.8874,-0.13967 1.1652,0.31626 2.1905,0.65135 3.1812,1.36974 0.1792,0.12991 0.3571,0.26498 0.5107,0.42433 0.1445,0.14989 0.2518,0.33158 0.3777,0.49737 0.1086,0.21769 0.2357,0.42711 0.3258,0.65307 0.7212,1.80832 0.4552,3.82623 0.081,5.67739 -0.3812,1.51571 -0.7457,3.05423 -1.4636,4.45646 -0.6993,1.36571 -1.7342,2.52488 -2.7772,3.63171 -0.4378,0.37128 -0.8556,0.76737 -1.3132,1.11383 -0.8494,0.64305 -2.1977,1.49517 -3.1683,1.93499 -1.6628,0.75338 -3.4755,1.11571 -5.2709,1.3676 -0.5164,-0.0177 -1.0341,-0.0129 -1.5492,-0.0533 -2.2027,-0.17244 -4.3568,-0.74905 -6.3171,-1.77201 -0.3292,-0.19456 -0.6705,-0.37001 -0.9877,-0.58369 -1.4898,-1.00368 -2.5951,-2.4361 -3.3533,-4.05113 -0.1513,-0.36462 -0.3206,-0.72226 -0.4538,-1.09384 -0.6796,-1.89511 -0.9782,-3.92289 -1.0252,-5.92811 -0.012,-1.49084 0,-3.00618 0.061,-4.48648 0.6482,-2.59274 -3.0185,-3.50941 -3.6667,-0.91667 z" /><path
         style="fill:#000000;fill-opacity:1;stroke:#000000;stroke-width:3.02362;stroke-linecap:round;stroke-linejoin:round;stroke-dasharray:none;stroke-opacity:1;paint-order:fill markers stroke"
         id="path63"
         d="m 1862.8424,846.41812 c 0.01,1.31141 -0.05,2.62927 0.178,3.9284 0.085,0.48359 0.22,0.95704 0.33,1.43556 0.8473,2.60964 2.2446,5.03993 4.0495,7.10899 0.3584,0.41092 0.7538,0.78813 1.1307,1.18219 1.7561,1.56771 3.7807,2.79165 6.0077,3.56354 1.2115,0.41995 1.998,0.56395 3.2247,0.84027 2.1843,0.43515 4.4093,0.53397 6.6298,0.55387 1.495,0.0263 2.9775,0.0252 4.4423,-0.29624 1.1986,-0.33205 2.2965,-0.94176 3.1479,-1.85675 0.1866,-0.20056 0.3443,-0.42619 0.5165,-0.63928 0.7035,-1.0459 1.2284,-2.25937 1.3431,-3.52871 0.025,-0.27412 0.013,-0.55032 0.02,-0.82548 -0.076,-0.33377 -0.099,-0.68483 -0.2293,-1.0013 -0.9783,-2.36829 -3.8833,-2.66666 -6.0732,-3.06896 -1.6552,-0.23266 -3.3456,-0.55411 -5.0147,-0.22938 -1.0648,0.20716 -1.515,0.44971 -2.4961,0.85714 -1.8063,0.94055 -3.4293,2.23591 -4.6013,3.91558 -0.2578,0.36948 -0.4781,0.76378 -0.7172,1.14568 -0.8338,1.51409 -1.4335,3.14014 -1.7577,4.83861 -0.168,0.88015 -0.2111,1.44213 -0.3046,2.31869 -0.1094,1.63125 -0.2469,3.28842 0.052,4.90979 0.069,0.37241 0.1754,0.73683 0.2631,1.10524 0.4324,1.37991 1.0073,2.74535 1.8201,3.94986 0.6545,0.96996 0.9865,1.2897 1.7568,2.16311 1.9996,1.88183 4.3177,3.43757 6.8218,4.56939 0.428,0.19345 0.8698,0.35494 1.3046,0.53241 1.8364,0.64312 3.7764,1.00405 5.725,1.03111 0.3945,0.005 0.7889,-0.0204 1.1834,-0.0307 1.7653,-0.11575 3.5256,-0.51168 5.0827,-1.37858 0.2764,-0.15389 0.5343,-0.33897 0.8014,-0.50846 1.6135,-1.24675 2.1551,-2.45859 2.4952,-4.42029 0.1925,-1.57877 -0.1026,-3.49835 -1.1361,-4.7709 -0.2453,-0.30207 -0.559,-0.54147 -0.8386,-0.8122 -1.8951,-1.22949 -4.15,-1.25681 -6.3325,-1.3223 -2.1306,0.11301 -4.2473,0.62177 -6.0573,1.79276 -0.4018,0.25994 -0.7715,0.56625 -1.1573,0.84937 -2.0291,1.6368 -3.4138,3.82156 -4.6344,6.08643 -0.906,1.77049 -1.4423,3.69323 -1.8065,5.6395 -0.1921,1.60485 -0.3945,3.23676 -0.31,4.85758 0.02,0.37656 0.067,0.75114 0.101,1.12672 0.2695,1.96288 0.8503,3.95457 2.0736,5.55178 0.2971,0.38779 0.648,0.73115 0.9719,1.09673 2.1406,1.98213 4.7008,3.42439 7.389,4.52658 0.5552,0.22759 1.1237,0.421 1.6855,0.6315 2.6331,0.97091 5.3904,1.4835 8.1781,1.71491 1.7328,0.10285 3.506,0.16577 5.2134,-0.21746 0.3285,-0.0737 0.6481,-0.18246 0.9721,-0.27369 1.9225,-0.64507 2.9085,-1.63443 3.8966,-3.35296 0.7429,-1.5463 0.8786,-3.23871 0.4876,-4.9051 -0.081,-0.34507 -0.2043,-0.67879 -0.3065,-1.01818 -0.1941,-0.36833 -0.3493,-0.75993 -0.5822,-1.10499 -0.8558,-1.26758 -2.1872,-2.23928 -3.5681,-2.86086 -0.3038,-0.13676 -0.6223,-0.23819 -0.9335,-0.35729 -1.7149,-0.5407 -3.5514,-0.67742 -5.3037,-0.21824 -0.4031,0.10565 -0.7903,0.26498 -1.1855,0.39748 -2.6995,1.17611 -4.171,3.19595 -5.5104,5.70929 -1.0289,2.02307 -1.3602,4.25341 -1.5403,6.48685 -0.1076,1.95944 -0.087,3.92297 -0.08,5.88451 0.016,1.3976 0.1082,2.79447 0.4561,4.15393 0.2387,0.93265 0.3869,1.24873 0.723,2.12853 0.5112,1.16385 0.2433,0.59255 0.8025,1.71442 1.1979,2.38902 4.5765,0.69491 3.3786,-1.69411 v 0 c -0.4555,-0.90173 -0.2364,-0.44067 -0.6561,-1.38388 -0.2249,-0.57184 -0.3905,-0.94553 -0.5492,-1.54205 -0.2952,-1.10977 -0.3636,-2.24596 -0.3754,-3.38932 -0.01,-1.85761 -0.026,-3.71695 0.068,-5.57286 0.1343,-1.72178 0.3409,-3.45555 1.1171,-5.02527 0.805,-1.55415 1.7797,-3.12521 3.416,-3.90319 0.2325,-0.0875 0.4601,-0.18943 0.6976,-0.26243 1.0547,-0.32421 2.1791,-0.2432 3.2274,0.06 1.0804,0.37967 2.1441,0.93596 2.7938,1.91712 0.3612,1.05684 0.5448,1.86417 0.1246,2.94052 -0.4169,0.78642 -0.7766,1.2857 -1.6647,1.57216 -1.5573,0.49213 -3.1975,0.46641 -4.813,0.34992 -2.4425,-0.19304 -4.8575,-0.64471 -7.165,-1.48967 -2.7287,-1.00903 -5.4084,-2.21555 -7.6064,-4.16905 -0.2004,-0.20684 -0.418,-0.39823 -0.601,-0.6205 -0.8881,-1.07817 -1.2689,-2.48224 -1.4692,-3.8345 -0.1707,-1.64662 -0.058,-3.30134 0.1636,-4.93993 0.2824,-1.56246 0.7079,-3.10877 1.4187,-4.53528 0.9554,-1.78349 2.0033,-3.53541 3.5743,-4.85308 0.2505,-0.19453 0.4894,-0.4049 0.7514,-0.58358 1.2114,-0.82611 2.64,-1.1802 4.0835,-1.30323 1.3337,0.038 2.6822,0.0636 3.9783,0.40964 0.054,0.0162 0.1164,0.0154 0.162,0.0485 0.3098,0.22513 0.5796,1.13512 0.5935,1.50333 0.01,0.18711 -0.031,0.37319 -0.047,0.55978 -0.1117,0.77968 -0.1994,1.32617 -0.8322,1.86268 -1.1697,0.80676 -2.5236,1.19003 -3.9382,1.27334 -1.8196,0.0747 -3.6434,-0.12487 -5.3706,-0.72711 -2.4553,-0.98 -4.7592,-2.31615 -6.7176,-4.10851 -0.4491,-0.50034 -0.9415,-1.01253 -1.3251,-1.57025 -0.6177,-0.89825 -1.0677,-1.91744 -1.4097,-2.94725 -0.061,-0.2262 -0.1365,-0.44889 -0.1823,-0.67859 -0.2646,-1.32768 -0.1177,-2.68857 -0.041,-4.02598 0.2002,-1.94081 0.5437,-3.84641 1.521,-5.56914 0.3409,-0.56524 0.5559,-0.9794 0.9758,-1.47655 0.7234,-0.85637 1.6352,-1.5421 2.6061,-2.09051 0.4427,-0.19555 0.993,-0.4654 1.4736,-0.58285 1.2796,-0.31274 2.6059,0.0615 3.8797,0.19623 0.4166,0.075 0.8348,0.14153 1.2497,0.22487 0.3756,0.0754 0.7481,0.16563 1.1215,0.25136 0.2394,0.0549 0.5323,0.25931 0.7283,0.1113 0.059,-0.0446 0.024,-0.16151 0.1002,-0.1979 0.1133,0.67276 -0.249,1.41033 -0.5579,1.98458 -0.1253,0.17021 -0.2231,0.36527 -0.3781,0.50885 -0.3237,0.29977 -0.7547,0.49733 -1.1659,0.63719 -1.1609,0.29888 -2.369,0.16647 -3.5555,0.1986 -1.955,-0.0163 -3.9145,-0.0921 -5.8399,-0.46341 -0.9768,-0.21521 -1.7019,-0.34967 -2.659,-0.66662 -1.7254,-0.57144 -3.2956,-1.49924 -4.6779,-2.67443 -0.2991,-0.30553 -0.6137,-0.59655 -0.8971,-0.9166 -1.4517,-1.63921 -2.5949,-3.56395 -3.325,-5.626 -0.085,-0.33655 -0.1884,-0.66884 -0.2537,-1.00966 -0.2198,-1.14697 -0.1343,-2.31738 -0.151,-3.47671 0,-2.67253 -3.7795,-2.67253 -3.7795,0 z" /></g></g></svg>
