<?xml version="1.0" encoding="UTF-8" standalone="no"?>
<!-- Created with Inkscape (http://www.inkscape.org/) -->

<svg
   width="47.077908mm"
   height="57.35656mm"
   viewBox="0 0 177.93225 216.7807"
   version="1.1"
   id="svg1"
   xml:space="preserve"
   inkscape:version="1.2.2 (732a01da63, 2022-12-09)"
   sodipodi:docname="school.svg.2023_12_06_12_25_17.0.svg"
   xmlns:inkscape="http://www.inkscape.org/namespaces/inkscape"
   xmlns:sodipodi="http://sodipodi.sourceforge.net/DTD/sodipodi-0.dtd"
   xmlns="http://www.w3.org/2000/svg"
   xmlns:svg="http://www.w3.org/2000/svg"><sodipodi:namedview
     id="namedview1"
     pagecolor="#ffffff"
     bordercolor="#000000"
     borderopacity="0.25"
     inkscape:showpageshadow="2"
     inkscape:pageopacity="0.0"
     inkscape:pagecheckerboard="0"
     inkscape:deskcolor="#d1d1d1"
     inkscape:document-units="mm"
     inkscape:zoom="0.69166114"
     inkscape:cx="842.17541"
     inkscape:cy="482.17253"
     inkscape:window-width="1827"
     inkscape:window-height="1057"
     inkscape:window-x="-9"
     inkscape:window-y="-9"
     inkscape:window-maximized="1"
     inkscape:current-layer="layer1"
     showgrid="false" /><defs
     id="defs1" /><g
     inkscape:label="Layer 1"
     inkscape:groupmode="layer"
     id="layer1"
     transform="translate(-1133.8583)"><g
       id="g86"
       inkscape:label="D test"
       transform="translate(-1544.2078,-548.62536)"
       inkscape:highlight-color="#ff0000"><path
         style="fill:#f2f2f2;fill-opacity:1;stroke:#000000;stroke-width:5.66929;stroke-linecap:round;stroke-linejoin:round;stroke-dasharray:none;stroke-opacity:1;paint-order:fill markers stroke"
         d="m 2680.9007,551.97117 c 0,0 7.6309,69.08346 7.6675,103.76662 0.038,35.70278 -7.6675,106.83361 -7.6675,106.83361 h 167.6623 c 0,0 4.575,-69.14378 4.6005,-103.76662 0.026,-35.81443 -4.6005,-107.34478 -4.6005,-107.34478 z"
         id="path85"
         sodipodi:nodetypes="csccscc" /><path
         id="path87"
         style="display:inline;fill:#ff0000;fill-opacity:1;stroke:#ff0000;stroke-width:5.66929;stroke-linecap:round;stroke-linejoin:round;stroke-dasharray:none;stroke-opacity:1;paint-order:fill markers stroke"
         d="m 2710.8806,568.11635 c -2.0878,-0.0203 -4.1842,0.15344 -6.2539,0.31055 -2.354,0.28189 -4.8058,0.52887 -6.918,1.70117 -2.3904,1.19519 -0.7009,4.57606 1.6895,3.38086 1.7246,-0.95777 3.7538,-1.10363 5.6738,-1.32813 3.0229,-0.2151 6.113,-0.518 9.1269,-0.0156 0.4767,0.0795 0.9426,0.21078 1.4141,0.31641 1.7929,0.56045 3.6069,1.29295 5.1348,2.4121 0.776,0.56847 1.3136,1.14441 1.998,1.81641 1.5461,1.95657 2.7581,4.19825 3.4649,6.5957 0.1377,0.4668 0.2369,0.94399 0.3554,1.41602 0.4693,2.23367 0.4748,4.56982 0.045,6.81445 -0.2994,1.56343 -0.6141,2.133 -1.2128,3.63672 -1.19,2.47974 -2.6881,4.8076 -4.4317,6.9336 -0.8675,1.05774 -1.3565,1.54824 -2.2734,2.52734 -1.3125,1.33259 -2.7506,2.52113 -4.3164,3.54101 -2.2348,1.46566 -0.1605,4.62582 2.0742,3.16016 1.811,-1.19424 3.4892,-2.56169 5.0039,-4.11914 1.0053,-1.07727 1.545,-1.62267 2.4961,-2.79102 1.9652,-2.41435 3.6546,-5.05453 4.9687,-7.8789 0.2977,-0.77625 0.6415,-1.53557 0.8926,-2.32813 1.0641,-3.35863 1.1207,-7.00117 0.416,-10.43164 -0.1478,-0.57009 -0.2722,-1.14743 -0.4433,-1.71093 -0.8981,-2.95644 -2.4167,-5.71614 -4.4043,-8.07618 -1.0054,-0.97003 -1.4682,-1.48458 -2.625,-2.30859 -1.8981,-1.35202 -4.1201,-2.24898 -6.3399,-2.90234 -0.5976,-0.12636 -1.1898,-0.28225 -1.7929,-0.37891 -1.2388,-0.19854 -2.4896,-0.28078 -3.7422,-0.29297 z m -8.1797,9.67578 c -1.0607,0.0715 -2.0619,0.99862 -1.6973,2.45703 0.1028,0.27893 0.2013,0.5607 0.3086,0.83789 0.5618,1.4505 1.1779,2.87693 1.7188,4.33594 0.4943,1.33356 1.2678,3.58323 1.7168,4.875 1.7283,5.15629 3.2408,10.38144 4.5761,15.65235 0.1205,0.53442 0.2409,1.06907 0.3614,1.60351 0.5886,2.60691 4.2761,1.77488 3.6875,-0.83203 l -0.3848,-1.69922 c -1.3629,-5.37614 -2.9052,-10.70598 -4.6699,-15.96484 -1.1371,-3.27087 -2.2807,-6.54112 -3.6485,-9.72461 -0.2835,-1.13433 -1.1437,-1.59662 -1.9687,-1.54102 z m 71.0351,21.42578 c -0.148,0.014 -0.3024,0.0435 -0.4628,0.0899 -1.9038,0.55069 -3.8144,1.07742 -5.711,1.65234 -12.0839,3.66302 -24.0185,7.86625 -35.5879,12.9375 -6.1526,2.9436 -9.901,4.59204 -15.709,7.88281 -1.658,0.9394 -3.2589,1.97725 -4.8593,3.01172 -2.1431,1.38531 -4.3401,2.8455 -6.2051,4.60742 -1.8898,1.88977 0.7822,4.56165 2.6719,2.67188 1.7042,-1.58429 3.7195,-2.90427 5.6621,-4.15625 1.5553,-1.00234 3.1101,-2.01114 4.7207,-2.92188 5.5896,-3.16067 9.4329,-4.85918 15.3496,-7.6875 11.4092,-4.99167 23.1763,-9.13039 35.0898,-12.74023 1.8691,-0.56636 3.7508,-1.08456 5.627,-1.62695 2.4068,-0.69601 1.6354,-3.93083 -0.586,-3.72071 z" /></g></g></svg>
