<?xml version="1.0" encoding="UTF-8" standalone="no"?>
<!-- Created with Inkscape (http://www.inkscape.org/) -->

<svg
   width="47.077892mm"
   height="57.35656mm"
   viewBox="0 0 177.93219 216.7807"
   version="1.1"
   id="svg1"
   xml:space="preserve"
   inkscape:version="1.2.2 (732a01da63, 2022-12-09)"
   sodipodi:docname="school.svg.2023_12_06_12_25_17.0.svg"
   xmlns:inkscape="http://www.inkscape.org/namespaces/inkscape"
   xmlns:sodipodi="http://sodipodi.sourceforge.net/DTD/sodipodi-0.dtd"
   xmlns="http://www.w3.org/2000/svg"
   xmlns:svg="http://www.w3.org/2000/svg"><sodipodi:namedview
     id="namedview1"
     pagecolor="#ffffff"
     bordercolor="#000000"
     borderopacity="0.25"
     inkscape:showpageshadow="2"
     inkscape:pageopacity="0.0"
     inkscape:pagecheckerboard="0"
     inkscape:deskcolor="#d1d1d1"
     inkscape:document-units="mm"
     inkscape:zoom="0.69166114"
     inkscape:cx="842.17541"
     inkscape:cy="482.17253"
     inkscape:window-width="1827"
     inkscape:window-height="1057"
     inkscape:window-x="-9"
     inkscape:window-y="-9"
     inkscape:window-maximized="1"
     inkscape:current-layer="layer1"
     showgrid="false" /><defs
     id="defs1" /><g
     inkscape:label="Layer 1"
     inkscape:groupmode="layer"
     id="layer1"
     transform="translate(-907.08663)"><g
       id="g85"
       inkscape:label="A+ test"
       transform="translate(-1770.9795,-548.62536)"
       inkscape:highlight-color="#ff0000"><path
         style="fill:#f2f2f2;fill-opacity:1;stroke:#000000;stroke-width:5.66929;stroke-linecap:round;stroke-linejoin:round;stroke-dasharray:none;stroke-opacity:1;paint-order:fill markers stroke"
         d="m 2680.9007,551.97117 c 0,0 7.6309,69.08346 7.6675,103.76662 0.038,35.70278 -7.6675,106.83361 -7.6675,106.83361 h 167.6623 c 0,0 4.575,-69.14378 4.6005,-103.76662 0.026,-35.81443 -4.6005,-107.34478 -4.6005,-107.34478 z"
         id="path76"
         sodipodi:nodetypes="csccscc" /><path
         id="path77"
         style="fill:#ff0000;fill-opacity:1;stroke:#ff0000;stroke-width:5.66929;stroke-linecap:round;stroke-linejoin:round;stroke-dasharray:none;stroke-opacity:1;paint-order:fill markers stroke"
         d="m 2740.8477,560.9336 c -1.4603,0.043 -2.6088,1.90103 -1.1914,3.31836 0.9741,1.71835 1.9816,3.42133 2.9707,5.13281 -1.3303,0.70971 -2.6602,1.4199 -3.9746,2.1582 -1.1374,0.63888 -1.681,0.90764 -2.6465,1.65235 -0.158,0.1219 -0.293,0.27266 -0.4395,0.4082 -1.8897,1.88976 0.7841,4.56163 2.6739,2.67188 0.1087,-0.0993 0.2057,-0.21145 0.3242,-0.29883 0.4411,-0.3253 1.7143,-1.01419 1.959,-1.15039 1.3126,-0.73063 2.6381,-1.43993 3.9629,-2.14844 0.7037,1.28508 1.391,2.57855 2.0664,3.87891 0.6254,1.19156 0.3312,0.62142 0.8847,1.71093 1.2109,2.38246 4.5802,0.66957 3.3692,-1.71289 -0.5739,-1.12882 -0.2747,-0.54822 -0.9004,-1.74023 -0.6851,-1.3184 -1.3825,-2.6304 -2.0957,-3.93359 1.512,-0.82874 3.0116,-1.67876 4.4609,-2.61329 0.6711,-0.43275 1.3244,-0.89209 1.9883,-1.33593 2.2216,-1.48547 0.1221,-4.62806 -2.0996,-3.14258 -0.6289,0.42048 -1.2475,0.857 -1.8828,1.26758 -1.4034,0.90686 -2.8588,1.73092 -4.3242,2.5332 -0.661,-1.1461 -1.322,-2.29292 -1.9922,-3.43359 -0.066,-0.11224 -0.9649,-1.64917 -1.0821,-1.82618 -0.1711,-0.25855 -0.3675,-0.49986 -0.5507,-0.75 -0.4725,-0.47244 -0.9937,-0.66081 -1.4805,-0.64648 z m -24.836,9.82227 c -1.2725,-0.009 -2.2004,1.34347 -1.746,2.53515 -0.7357,0.20712 -1.3555,0.84383 -1.3555,1.92383 -0.023,2.17237 0.064,4.34233 0.1172,6.51367 0.095,4.29935 0.111,8.6001 0.123,12.90039 -2.5956,0.81167 -5.1867,1.63868 -7.7578,2.52539 -2.5168,0.89887 -1.2453,4.45747 1.2715,3.5586 2.1568,-0.74295 4.3271,-1.44601 6.5019,-2.13282 0.025,5.28418 0.013,10.56687 -0.2578,15.84571 -0.1367,2.66903 3.6387,2.86238 3.7754,0.19336 0.2927,-5.73358 0.2923,-11.47139 0.2578,-17.21094 0.4732,-0.14557 0.9446,-0.29649 1.418,-0.44141 4.6518,-1.48678 9.306,-2.96609 13.9551,-4.46093 1.5005,2.11432 2.8835,4.30947 4.2265,6.52734 1.158,2.09897 2.4329,4.1294 3.5899,6.22852 0.3535,0.68785 0.1794,0.35079 0.5215,1.00781 1.2343,2.37042 4.5879,0.62431 3.3535,-1.7461 -0.3512,-0.67439 -0.1635,-0.31217 -0.5645,-1.08789 -1.182,-2.14399 -2.4826,-4.21681 -3.6679,-6.35937 -1.1969,-1.97589 -2.4334,-3.92902 -3.7422,-5.83203 0.6795,-0.24167 1.3591,-0.48638 2.0371,-0.73242 2.5121,-0.91186 1.2231,-4.46459 -1.2891,-3.55274 -1.0184,0.36974 -2.0396,0.7346 -3.0625,1.0918 -3.0207,-3.78981 -6.0925,-7.54844 -9.5351,-10.96875 -2.167,-2.14329 -4.3608,-4.29792 -6.9688,-5.91016 -0.4105,-0.28736 -0.8208,-0.4133 -1.2012,-0.41601 z m 0.6778,4.64453 c 1.7341,1.30714 3.2902,2.84144 4.832,4.36914 3.0046,2.98721 5.7132,6.24367 8.3613,9.54492 -4.2082,1.35031 -8.4192,2.69306 -12.6289,4.03906 -0.1094,0.0335 -0.2186,0.068 -0.3281,0.10156 -0.013,-3.93969 -0.033,-7.87956 -0.1211,-11.81835 -0.051,-2.07869 -0.1317,-4.15674 -0.1152,-6.23633 z m 65.8535,27.62109 c -0.2707,-0.0127 -0.5645,0.0298 -0.8789,0.14258 -16.7719,6.01439 -33.6158,11.99598 -49.7227,19.66601 -2.1811,1.03861 -4.314,2.17732 -6.4707,3.26563 -1.7764,0.98431 -3.5732,1.93085 -5.3281,2.95312 -2.6267,1.53021 -4.5459,2.79207 -6.957,4.51563 -0.7259,0.51889 -1.4496,1.04196 -2.1446,1.60156 -0.6106,0.49169 -0.7985,0.74285 -1.2382,1.25781 -1.6035,2.13802 1.4198,4.4056 3.0234,2.26758 0.2788,-0.3103 0.392,-0.4513 0.7949,-0.76367 2.685,-2.08165 5.5771,-3.96142 8.5098,-5.66601 1.7028,-0.98978 3.4464,-1.90604 5.1699,-2.85938 2.1139,-1.06565 4.2041,-2.18036 6.3418,-3.19727 15.9698,-7.59683 32.6709,-13.52062 49.2969,-19.48242 2.2012,-0.78933 1.4986,-3.6122 -0.3965,-3.70117 z" /></g></g></svg>
