<?xml version="1.0" encoding="UTF-8" standalone="no"?>
<!-- Created with Inkscape (http://www.inkscape.org/) -->

<svg
   width="38.950367mm"
   height="50.576321mm"
   viewBox="0 0 147.21399 191.15461"
   version="1.1"
   id="svg1"
   inkscape:version="1.2.2 (732a01da63, 2022-12-09)"
   sodipodi:docname="characters.svg"
   xmlns:inkscape="http://www.inkscape.org/namespaces/inkscape"
   xmlns:sodipodi="http://sodipodi.sourceforge.net/DTD/sodipodi-0.dtd"
   xmlns="http://www.w3.org/2000/svg"
   xmlns:svg="http://www.w3.org/2000/svg">
  <sodipodi:namedview
     id="namedview1"
     pagecolor="#ffffff"
     bordercolor="#000000"
     borderopacity="0.25"
     inkscape:showpageshadow="2"
     inkscape:pageopacity="0.0"
     inkscape:pagecheckerboard="0"
     inkscape:deskcolor="#d1d1d1"
     inkscape:document-units="mm"
     inkscape:zoom="3.92"
     inkscape:cx="87.627552"
     inkscape:cy="656.76021"
     inkscape:window-width="1827"
     inkscape:window-height="1057"
     inkscape:window-x="-9"
     inkscape:window-y="-9"
     inkscape:window-maximized="1"
     inkscape:current-layer="svg1"
     showgrid="true">
    <inkscape:grid
       id="grid11"
       units="mm"
       originx="0"
       originy="0"
       spacingx="3.7795276"
       spacingy="3.7795276"
       empcolor="#0099e5"
       empopacity="0.30196078"
       color="#0099e5"
       opacity="0.14901961"
       empspacing="5"
       dotted="false"
       gridanglex="30"
       gridanglez="30"
       visible="true" />
  </sodipodi:namedview>
  <defs
     id="defs1">
    <linearGradient
       id="linearGradient4322"
       inkscape:swatch="solid">
      <stop
         style="stop-color:#2b1500;stop-opacity:1;"
         offset="0"
         id="stop4320" />
    </linearGradient>
  </defs>
  <g
     inkscape:label="Layer 1"
     inkscape:groupmode="layer"
     id="layer1"
     transform="translate(-958.32606,-44.764206)">
    <g
       id="g100"
       inkscape:label="heather chandler"
       transform="matrix(2.8346452,0,0,2.8346452,1301.3872,469.3635)"
       style="display:inline"
       inkscape:highlight-color="#d40000"
       inkscape:export-filename=".\chandler.svg"
       inkscape:export-xdpi="96"
       inkscape:export-ydpi="96">
      <path
         style="display:inline;fill:#2b0000;stroke:#000000;stroke-width:5.66929;stroke-linecap:round;stroke-linejoin:round;stroke-dasharray:none;stroke-opacity:1;paint-order:fill markers stroke"
         d="m 1288.5166,217.85306 c 7.1237,-8.23037 7.736,-20.71511 4.1617,-32.38916 -3.5743,-11.67405 -5.4836,-34.70895 -0.4046,-50.89715 3.9254,-12.51157 12.3477,-24.09675 22.7285,-32.10842 11.0867,-8.556449 25.3514,-13.843101 39.3238,-14.791519 16.7002,-1.133575 34.6697,2.447708 48.9588,11.165702 9.9339,6.060817 17.1807,16.351477 22.4734,26.715017 4.0593,7.94836 5.9043,17.06992 6.4938,25.97535 1.1393,17.21123 -5.2533,29.60561 -5.8235,51.41797 -0.2518,9.62945 18.6111,13.1395 19.8935,23.26117 0.8248,6.50938 -3.3213,13.86107 -8.6585,17.67767 -3.6184,2.58752 -8.9619,2.90254 -13.239,1.68005 -4.5172,-1.29111 -6.2005,-6.12769 -10.9325,-8.89543 -1.4615,11.81122 -2.9489,12.42893 -7.9151,15.32737 -4.0839,2.38347 -9.8964,1.47974 -14.1755,-0.53209 -4.2594,-2.00255 -7.8372,-6.43487 -9.4094,-10.52795 -2.8888,5.59766 -9.0952,13.07385 -16.0821,13.50539 -8.8842,0.54872 -14.3837,-0.18462 -22.407,-14.5258 -3.585,9.74465 -12.1635,15.09419 -22.7284,13.34844 -6.7896,-1.48892 -12.9229,-3.03542 -16.5954,-12.6269 -5.8807,8.98013 -17.6327,13.04565 -27.7792,9.01922 -3.958,-1.86966 -7.0694,-6.17174 -7.9369,-10.4623 -1.1561,-5.71765 0.2494,-12.78679 4.3292,-16.95613 3.8054,-3.88895 12.1635,-0.26647 15.7244,-4.3805 z"
         id="path22"
         sodipodi:nodetypes="azaaaaaasaaacaacacacaaaa"
         transform="matrix(0.26458333,0,0,0.26458333,-452.54362,-161.66438)" />
      <g
         id="g58"
         transform="translate(50.598352,-0.2277988)"
         inkscape:label="body"
         style="display:inline">
        <path
           style="display:inline;fill:#ffffff;fill-opacity:1;stroke:#000000;stroke-width:1.5;stroke-linecap:round;stroke-linejoin:round;stroke-miterlimit:1001;stroke-dasharray:none;stroke-opacity:1;paint-order:fill markers stroke"
           d="m -148.03164,-104.78796 c -2.20975,10.060346 -2.32068,11.528775 -2.99649,15.058582 -0.40584,2.11975 -0.97436,6.021578 -0.61675,6.445311 0.35761,0.423733 3.83047,0.214006 4.42334,-0.261077 0.59287,-0.475088 0.17338,-3.821811 0.55535,-4.304568 0.382,-0.482757 4.75842,-0.644131 5.05352,-0.321919 0.2951,0.322212 0.25973,3.770873 0.45001,4.258186 0.50176,0.401375 3.99232,-0.24324 3.99232,-0.24324 0,0 -1.3145,-7.144034 -1.67095,-10.754241 -0.31368,-3.177085 -0.40867,-9.568874 -0.40867,-9.568874"
           id="path56"
           sodipodi:nodetypes="cszzzzccac"
           inkscape:label="body" />
        <ellipse
           style="display:inline;fill:#ffffff;fill-opacity:1;stroke:#000000;stroke-width:1.5;stroke-linecap:round;stroke-linejoin:round;stroke-miterlimit:1001;stroke-dasharray:none;stroke-opacity:1;paint-order:fill markers stroke"
           id="ellipse57"
           ry="15.393556"
           rx="16.682619"
           cy="-119.60479"
           cx="-142.77336"
           inkscape:label="head"
           transform="translate(1.0967844e-5)" />
      </g>
      <g
         id="g60"
         inkscape:label="eyes"
         transform="translate(-34.322565,-0.0667206)"
         style="display:inline">
        <ellipse
           style="fill:#000000;fill-opacity:1;stroke:none;stroke-width:0.593632;stroke-linecap:round;stroke-linejoin:round;stroke-miterlimit:1001;stroke-dasharray:none;stroke-opacity:1;paint-order:stroke fill markers"
           id="ellipse58"
           cx="-86.904243"
           cy="-98.34063"
           rx="2.1079104"
           ry="2.7033648"
           transform="matrix(0.96864121,0.2484637,-0.20869257,0.97798129,0,0)"
           inkscape:label="right" />
        <ellipse
           style="fill:#000000;fill-opacity:1;stroke:none;stroke-width:0.509367;stroke-linecap:round;stroke-linejoin:round;stroke-miterlimit:1001;stroke-dasharray:none;stroke-opacity:1;paint-order:stroke fill markers"
           id="ellipse59"
           cx="-36.557335"
           cy="-122.18265"
           rx="1.7384969"
           ry="2.4132938"
           transform="matrix(0.99463321,-0.10346393,0.09707266,0.9952773,0,0)"
           inkscape:label="left" />
      </g>
      <g
         id="g22"
         inkscape:label="clorhes">
        <path
           style="fill:#800000;stroke:#000000;stroke-width:1.5;stroke-linecap:round;stroke-linejoin:round;stroke-dasharray:none;paint-order:fill markers stroke"
           d="m -101.2332,-86.568767 c 0,0 -0.34078,1.974899 -0.0455,3.250596 1.312326,0.461679 3.968497,0.05503 5.032044,-0.264991 0.113341,-1.809425 -0.0082,-2.937732 -0.0082,-2.937732 z"
           id="path95"
           sodipodi:nodetypes="ccccc" />
        <path
           style="fill:#800000;stroke:#000000;stroke-width:1.5;stroke-linecap:round;stroke-linejoin:round;stroke-dasharray:none;paint-order:fill markers stroke"
           d="m -90.731502,-86.642274 c 0,0 -0.164985,1.430903 0.25097,2.444005 1.262202,0.403802 3.264584,0.08503 4.12972,-0.16925 -0.130304,-1.741568 -0.493742,-2.666933 -0.493742,-2.666933 z"
           id="path96"
           sodipodi:nodetypes="ccccc" />
        <path
           style="fill:#d40000;stroke:#000000;stroke-width:1.5;stroke-linecap:round;stroke-linejoin:round;stroke-dasharray:none;paint-order:fill markers stroke"
           d="m -100.79141,-93.776841 -1.60778,5.461536 c 0,0 5.081521,0.154096 7.623131,0.16344 1.133049,0.0042 2.268752,0.0342 3.398832,-0.04787 1.95062,-0.141669 5.817064,-0.765937 5.817064,-0.765937 l -1.531876,-4.803661 c -4.599438,0.971573 -8.884206,0.672779 -13.699371,-0.0075 z"
           id="path97"
           sodipodi:nodetypes="ccsscccc" />
        <path
           style="fill:#800000;stroke:#000000;stroke-width:1.5;stroke-linecap:round;stroke-linejoin:round;stroke-dasharray:none;paint-order:fill markers stroke"
           d="m -98.053537,-105.08604 -2.853433,11.731825 c 0,0 4.92046,0.837432 7.467893,0.765938 2.452115,-0.06882 6.558345,-1.005292 6.558345,-1.005292 0,0 -0.762907,-3.130238 -0.957429,-5.170082 -0.145548,-1.526279 0.115577,-6.130909 0.115577,-6.130909 l -2.931748,0.56624 c 0,0 -0.627069,1.57909 -1.324686,1.92646 -0.643418,0.32038 -1.551815,0.29638 -2.154184,-0.0958 -0.627144,-0.40828 -0.998776,-2.01059 -0.998776,-2.01059 z"
           id="path99"
           sodipodi:nodetypes="ccscsccaacc" />
        <path
           style="fill:#0000ff;stroke:#000000;stroke-width:5.66929;stroke-linecap:round;stroke-linejoin:round;stroke-dasharray:none;paint-order:fill markers stroke"
           d="m 1054.0092,226.88654 c 0,0 -1.1005,9.99672 -1.1761,15.01721 -0.095,6.27878 0.9047,18.81675 0.9047,18.81675"
           id="path100"
           sodipodi:nodetypes="cac"
           transform="matrix(0.26458333,0,0,0.26458333,-371.87473,-161.66438)" />
      </g>
      <path
         style="display:inline;fill:#d40000;stroke:#000000;stroke-width:1.5;stroke-linecap:round;stroke-linejoin:round;stroke-dasharray:none;stroke-opacity:1;paint-order:fill markers stroke"
         d="m -104.9948,-135.15973 c 0,0 -6.88654,-0.82316 -10.05687,0.26998 -2.03767,0.7026 -4.94893,1.7062 -5.19716,3.84726 -0.33276,2.87016 2.7647,6.06926 5.60216,6.61459 2.40178,0.46159 6.47959,-3.44229 6.47959,-3.44229 0,0 -1.37887,3.63761 -0.405,4.99469 1.24394,1.73342 4.5824,2.93236 6.20962,1.5524 3.184843,-2.70091 -1.01243,-12.48671 -1.01243,-12.48671 0,0 7.279033,5.37425 10.191857,3.30729 1.615073,-1.14607 1.501531,-4.50628 0.134991,-5.93963 -1.242376,-1.30312 -5.399665,-0.13499 -5.399665,-0.13499 0,0 5.14063,-4.85877 4.454732,-7.76201 -0.645623,-2.73277 -4.237472,-5.03786 -7.019555,-4.65721 -2.18087,0.29839 -3.59096,2.91765 -4.31975,4.99469 -0.97653,2.78311 0.33748,8.84194 0.33748,8.84194 z"
         id="path24"
         sodipodi:nodetypes="cssscsscsscsssc" />
      <path
         style="display:inline;fill:#d40000;stroke:#000000;stroke-width:1.5;stroke-linecap:round;stroke-linejoin:round;stroke-dasharray:none;stroke-opacity:1;paint-order:fill markers stroke"
         d="m -108.52957,-123.96029 c 0.34657,-3.39236 0.73835,-6.95659 2.73871,-9.8361 2.73495,-4.09872 7.636333,-6.39029 12.45254,-6.79446 4.021055,-0.18584 8.182871,0.70309 11.616964,2.85056 3.051834,1.98512 5.002525,5.39765 5.704335,8.9174 0.261074,1.83016 0.274476,3.68588 0.227971,5.53078 -1.176447,-2.91336 -2.385118,-5.94205 -4.543401,-8.28338 -3.395626,-3.03962 -8.164357,-4.14165 -12.628601,-3.87773 -2.804947,0.2267 -5.661377,0.92936 -8.030228,2.49419 -2.44448,1.90372 -4.38804,4.35086 -6.09141,6.91885 -0.48229,0.6933 -0.96459,1.38659 -1.44688,2.07989 z"
         id="path23"
         transform="translate(2.6647418e-6)" />
      <path
         style="display:inline;fill:#2b0000;stroke:#000000;stroke-width:1.5;stroke-linecap:round;stroke-linejoin:round;stroke-dasharray:none;stroke-opacity:1;paint-order:fill markers stroke"
         d="m -77.811557,-122.64751 c -1.501079,0.21625 -2.397797,-0.4521 -3.200422,-1.87936 -0.716256,-1.27368 -1.75219,1.47434 -2.627184,2.21282 -1.156986,0.97648 -2.928577,0.86727 -4.067931,-0.22423 -0.56631,-0.54252 -1.195447,-2.92996 -1.84815,-1.45588 -0.766028,1.73001 -2.963042,2.17929 -4.638697,1.84764 -1.595198,0.14672 -1.725259,-2.38505 -3.290399,-1.76053 -0.677262,1.21288 -2.60291,2.27247 -3.54505,0.65995 -0.76247,-1.402 -1.25302,2.09013 -2.30075,2.55408 -1.61576,0.71548 -3.79061,0.89672 -5.30121,-0.0202 -1.59135,-0.96592 -2.35548,-2.92842 -2.59635,-4.94446 -0.24087,-2.01603 0.52518,-4.37048 1.99512,-5.78451 1.18793,-1.14277 3.27853,-0.65594 4.73385,-1.43004 2.42275,-1.2887 1.50675,-4.09044 6.378859,-5.20423 5.248725,-1.19988 6.841864,2.18362 8.574122,2.41122 2.04375,-0.0201 3.830327,-1.75154 6.117706,-1.71589 2.18534,0.0341 4.973769,0.97168 6.129012,3.13328 0.685133,1.28197 1.029974,3.12575 2.656536,3.38467 1.41161,0.2247 2.887474,1.686 3.367533,3.14495 0.655625,1.99252 0.513923,4.90973 -1.150083,6.18685 -1.033174,0.79295 -2.819611,0.67723 -3.89534,-0.30366 -0.418084,-0.38124 -0.922149,-0.89446 -1.491172,-0.81249 z"
         id="path21"
         sodipodi:nodetypes="ssssscccaazaascsssaasss" />
    </g>
  </g>
</svg>
