<?xml version="1.0" encoding="UTF-8" standalone="no"?>
<!-- Uploaded to: SVG Repo, www.svgrepo.com, Generator: SVG Repo Mixer Tools -->

<svg
   width="50"
   height="54.546997"
   viewBox="0 0 1.5 1.6364099"
   fill="none"
   version="1.1"
   id="svg4"
   sodipodi:docname="home.svg"
   inkscape:version="1.2.2 (732a01da63, 2022-12-09)"
   xmlns:inkscape="http://www.inkscape.org/namespaces/inkscape"
   xmlns:sodipodi="http://sodipodi.sourceforge.net/DTD/sodipodi-0.dtd"
   xmlns="http://www.w3.org/2000/svg"
   xmlns:svg="http://www.w3.org/2000/svg">
  <defs
     id="defs8" />
  <sodipodi:namedview
     id="namedview6"
     pagecolor="#505050"
     bordercolor="#eeeeee"
     borderopacity="1"
     inkscape:showpageshadow="0"
     inkscape:pageopacity="0"
     inkscape:pagecheckerboard="0"
     inkscape:deskcolor="#505050"
     showgrid="false"
     inkscape:zoom="8.64"
     inkscape:cx="33.391204"
     inkscape:cy="36.400463"
     inkscape:window-width="1827"
     inkscape:window-height="1057"
     inkscape:window-x="-9"
     inkscape:window-y="-9"
     inkscape:window-maximized="1"
     inkscape:current-layer="svg4" />
  <path
     d="m 0.45,1.5864099 h -0.2 c -0.110457,0 -0.2,-0.08954 -0.2,-0.2 V 0.67839986 c 0,-0.05839 0.025513,-0.113858 0.069842,-0.151854 L 0.61984,0.09797387 c 0.0749,-0.064198 0.18542,-0.064198 0.26032,0 l 0.5,0.42857199 C 1.42449,0.56454186 1.45,0.62000986 1.45,0.67839986 V 1.3864099 c 0,0.11046 -0.08954,0.2 -0.2,0.2 h -0.2 m -0.6,0 V 0.98640986 c 0,-0.05523 0.044772,-0.1 0.1,-0.1 h 0.4 c 0.05523,0 0.1,0.04477 0.1,0.1 V 1.5864099 m -0.6,0 h 0.6"
     stroke="#464455"
     stroke-linecap="round"
     stroke-linejoin="round"
     id="path2"
     style="stroke:#cba6f7;stroke-width:0.1;stroke-opacity:1" />
</svg>
