<?xml version="1.0" encoding="UTF-8" standalone="no"?>
<!-- Created with Inkscape (http://www.inkscape.org/) -->

<svg
   width="84.561958mm"
   height="168.12714mm"
   viewBox="0 0 84.561959 168.12713"
   version="1.1"
   id="svg5"
   xml:space="preserve"
   inkscape:version="1.2.2 (732a01da63, 2022-12-09)"
   sodipodi:docname="phone.svg"
   xmlns:inkscape="http://www.inkscape.org/namespaces/inkscape"
   xmlns:sodipodi="http://sodipodi.sourceforge.net/DTD/sodipodi-0.dtd"
   xmlns:xlink="http://www.w3.org/1999/xlink"
   xmlns="http://www.w3.org/2000/svg"
   xmlns:svg="http://www.w3.org/2000/svg"><sodipodi:namedview
     id="namedview7"
     pagecolor="#505050"
     bordercolor="#eeeeee"
     borderopacity="1"
     inkscape:showpageshadow="0"
     inkscape:pageopacity="0"
     inkscape:pagecheckerboard="0"
     inkscape:deskcolor="#505050"
     inkscape:document-units="mm"
     showgrid="false"
     inkscape:zoom="0.76969694"
     inkscape:cx="120.17717"
     inkscape:cy="407.30317"
     inkscape:window-width="1827"
     inkscape:window-height="1057"
     inkscape:window-x="-9"
     inkscape:window-y="-9"
     inkscape:window-maximized="1"
     inkscape:current-layer="layer1" /><defs
     id="defs2"><linearGradient
       inkscape:collect="always"
       id="linearGradient6091"><stop
         style="stop-color:#eca177;stop-opacity:1;"
         offset="0.38171628"
         id="stop6087" /><stop
         style="stop-color:#edc0a3;stop-opacity:1;"
         offset="0.58370137"
         id="stop6825" /><stop
         style="stop-color:#eaa076;stop-opacity:1;"
         offset="0.79001093"
         id="stop6089" /></linearGradient><linearGradient
       id="linearGradient5259"
       inkscape:swatch="solid"><stop
         style="stop-color:#fdb6b0;stop-opacity:1;"
         offset="0"
         id="stop5257" /></linearGradient><linearGradient
       id="linearGradient5745"
       inkscape:swatch="solid"><stop
         style="stop-color:#000000;stop-opacity:1;"
         offset="0"
         id="stop5743" /></linearGradient><linearGradient
       id="linearGradient4753"
       inkscape:swatch="solid"><stop
         style="stop-color:#d1d48d;stop-opacity:1;"
         offset="0"
         id="stop4751" /></linearGradient><linearGradient
       id="linearGradient4322"
       inkscape:swatch="solid"><stop
         style="stop-color:#2b1500;stop-opacity:1;"
         offset="0"
         id="stop4320" /></linearGradient><linearGradient
       inkscape:collect="always"
       xlink:href="#linearGradient6091"
       id="linearGradient6097"
       x1="94.720757"
       y1="106.39989"
       x2="121.94853"
       y2="111.14155"
       gradientUnits="userSpaceOnUse" /></defs><g
     inkscape:label="Layer 1"
     inkscape:groupmode="layer"
     id="layer1"
     transform="translate(-41.263974,-37.260429)"><path
       id="rect9909"
       style="fill:none;fill-opacity:1;stroke:#ffe7d6;stroke-width:4.64193;stroke-linecap:round;stroke-linejoin:round;stroke-miterlimit:0;stroke-dasharray:none;stroke-opacity:1"
       d="m 43.584939,42.411648 c 0,52.608277 0,105.216462 0,157.824642 0.91279,3.24398 2.582634,2.85164 4.199475,2.71395 24.769328,0 49.53864,0 74.307986,0 1.63064,-1.81583 1.43341,-5.13796 1.36422,-8.35437 0,-50.7281 0,-101.456115 0,-152.184222 -0.91279,-3.243879 -2.58262,-2.851634 -4.19946,-2.713861 -24.769332,0 -49.538656,0 -74.307966,0 -0.454817,0.904248 -0.909541,1.809333 -1.364255,2.713861 z"
       inkscape:label="phone border" /><path
       id="path12926"
       style="fill:#2d174a;fill-opacity:1;stroke:none;stroke-width:4.53523;stroke-linecap:round;stroke-linejoin:round;stroke-miterlimit:0;stroke-dasharray:none;stroke-opacity:1"
       d="m 44.504951,44.22581 c 0,51.398769 0,102.79755 0,154.19632 0.89181,3.16943 2.523264,2.78609 4.102933,2.65147 24.199894,0 48.399761,0 72.599676,0 1.59315,-1.77395 1.40046,-5.01969 1.33286,-8.16219 0,-49.56187 0,-99.123742 0,-148.6856 -0.89179,-3.169328 -2.52326,-2.78609 -4.10292,-2.651474 -24.199902,0 -48.39978,0 -72.599662,0 -0.444419,0.883825 -0.888653,1.767741 -1.332887,2.651474 z"
       inkscape:label="phone screen" /><circle
       style="fill:#c19ec1;fill-opacity:1;stroke:none;stroke-width:10.5324;stroke-linecap:round;stroke-linejoin:round;stroke-miterlimit:0;stroke-dasharray:none;stroke-opacity:1"
       id="path13706"
       cx="84.047752"
       cy="87.823082"
       r="32.810879"
       inkscape:label="background" /><g
       id="g63-0-2"
       transform="matrix(1.2531838,0,0,1.2531838,551.56754,328.18376)"
       inkscape:label="Annie - girl"
       style="display:inline"
       inkscape:highlight-color="#eca177"><path
         style="display:inline;fill:#2b1500;fill-opacity:1;stroke:#000000;stroke-width:1.5;stroke-linecap:round;stroke-linejoin:round;stroke-dasharray:none;stroke-opacity:1"
         d="m -378.11668,-204.17881 c 0.49669,-1.35264 -3.05605,-4.51428 -5.47722,-4.93379 -3.03926,-0.5266 -6.85056,0.95054 -8.55833,3.51918 -3.63035,5.46037 0.31793,15.72006 0.14121,19.67067 -0.17671,3.95061 -7.55028,2.71457 -7.55028,2.71457 0,0 1.6174,4.44575 3.39667,5.8139 2.05471,1.57996 4.92479,2.39196 7.49619,2.06638 2.91119,-0.3686 6.01729,-1.93314 7.63589,-4.3808 4.53096,-6.85178 0.39928,-17.61668 2.91587,-24.47011 z"
         id="path66-9"
         sodipodi:nodetypes="saascaaas"
         inkscape:label="ponytail" /><g
         id="g217"
         transform="translate(-225.07714,-70.936528)"
         inkscape:label="body"
         style="display:inline"><path
           style="display:inline;fill:#ffffff;fill-opacity:1;stroke:#ffffff;stroke-width:2.38841;stroke-linecap:round;stroke-linejoin:round;stroke-dasharray:none;stroke-opacity:1;paint-order:fill markers stroke"
           d="m 126.27232,261.58008 c 0.11389,-1.36818 -1.12439,-4.35647 -0.69212,-7.67047 0.70671,-5.41786 -0.22559,-6.1738 -0.81889,-5.16388 -4.6709,7.95092 0.0462,-0.95146 -4.69407,-0.49301 -2.20123,0.21288 -9.93651,-0.0602 -9.9808,-0.0865 -0.0443,-0.0263 7.2805,-6.58374 9.84095,-9.93785 9.20177,-12.05404 13.17858,-18.86975 15.26096,-26.15517 1.26829,-4.43723 2.90243,-12.42452 3.87151,-18.92307 l 0.72407,-4.85548 3.62289,0.81457 c 2.98766,0.67175 5.36775,0.82136 13.57418,0.85324 l 9.95128,0.0387 0.26245,3.37031 c 0.14434,1.85367 0.26357,4.443 0.26496,5.75407 0.004,4.05972 1.28343,12.62745 2.38012,15.94229 1.77694,5.37094 6.09991,12.48114 12.7301,20.93781 l 5.89658,5.35013 -5.34135,2.786 c -4.50128,2.34783 -7.68541,-1.05166 -8.77989,1.56779 -0.54793,1.31138 -0.51636,2.09072 0.30684,7.57629 0.73357,4.88833 0.80979,6.18118 0.38008,6.44676 -0.29563,0.18271 -1.59846,0.45276 -2.89519,0.60011 -1.29672,0.14735 -3.116,0.36956 -4.04283,0.49378 l -1.68516,0.22587 v -6.66734 c 0,-7.33912 -0.19917,-8.09985 -2.42157,-9.24909 -1.55797,-0.80567 -6.49666,-0.6421 -14.55678,0.48209 -10.88144,1.5177 -13.57972,2.88091 -13.55024,6.84581 0.008,1.09696 0.26293,3.74954 0.56617,5.8946 l 0.55135,3.90013 -2.10085,0.62388 c -1.15547,0.34314 -3.61533,0.75019 -5.46635,0.90456 l -3.36549,0.28068 z"
           id="path215"
           transform="matrix(0.26458333,0,0,0.26458333,-184.30257,-153.77306)"
           sodipodi:nodetypes="sssssssscsscscsscsssssscssscscsscs" /><path
           style="display:inline;fill:none;fill-opacity:1;stroke:#000000;stroke-width:1.5;stroke-linecap:round;stroke-linejoin:round;stroke-miterlimit:1001;stroke-dasharray:none;stroke-opacity:1;paint-order:stroke fill markers"
           d="m -148.03164,-104.78796 c 0,0 -0.5807,5.667161 -1.71579,8.22891 -1.42678,3.220041 -6.15114,7.831024 -6.21314,8.546112 -0.031,0.357543 1.54223,0.08021 2.31086,0.151715 0.67145,0.06247 2.04707,-0.127656 2.00852,0.242119 -0.22376,2.14662 -0.3613,3.911307 -0.004,4.33504 0.35761,0.423733 3.59111,-0.02535 4.18398,-0.500433 0.59287,-0.475088 -0.34534,-3.278805 0.0366,-3.761562 0.382,-0.482757 5.94734,-0.947781 6.24244,-0.625569 0.2951,0.322212 -0.0275,3.62726 0.16278,4.114573 0.50176,0.401375 4.08807,-0.338983 4.08807,-0.338983 0,0 0.17227,-0.918439 -0.26944,-3.973884 -0.11046,-0.763868 1.31347,-0.489103 1.97106,-0.731327 0.52902,-0.194866 1.58844,-0.580849 1.58844,-0.580849 0,0 -3.92282,-4.481455 -4.90598,-7.220027 -0.85714,-2.387544 -0.70306,-7.577675 -0.70306,-7.577675"
           id="path217"
           sodipodi:nodetypes="casaszzzzccsacac"
           inkscape:label="body" /><path
           style="display:inline;fill:url(#linearGradient6097);fill-opacity:1;stroke:#000000;stroke-width:1.5;stroke-linecap:round;stroke-linejoin:round;stroke-dasharray:none;stroke-opacity:1;paint-order:fill markers stroke"
           d="m 104.97236,99.17499 c 0,0 -0.23014,4.3417 -0.83601,6.40929 -0.50244,1.71464 -1.33445,3.33589 -2.28506,4.84876 -1.34916,2.14715 -4.793043,5.9077 -4.793043,5.9077 0,0 4.453713,0.45587 6.687973,0.44586 3.44668,-0.0155 6.89435,-0.32344 10.31063,-0.78026 2.04402,-0.27332 6.07491,-1.17039 6.07491,-1.17039 0,0 -3.1979,-3.12534 -4.34718,-5.01597 -0.80996,-1.33244 -1.43454,-2.81567 -1.72773,-4.34717 -0.38423,-2.00709 0,-6.13062 0,-6.13062 l -2.61945,0.61306 c 0,0 0.14469,2.2855 -0.64173,2.87165 -0.57723,0.43023 -1.64879,0.36153 -2.15448,-0.15088 -0.65115,-0.6598 -0.15765,-2.776507 -0.15765,-2.776507 z"
           id="path220"
           sodipodi:nodetypes="csscsscssccaacc"
           transform="translate(-253.56943,-204.32666)"
           inkscape:label="skirt" /><path
           style="display:inline;fill:#ffffff;fill-opacity:1;stroke:#ffffff;stroke-width:1.35685;stroke-dasharray:none;stroke-opacity:1;paint-order:fill markers stroke"
           d="m 608.77166,320.71975 c -23.59115,-4.27879 -42.49005,-21.13816 -47.78241,-42.62585 -0.58315,-2.36767 -1.05301,-7.84957 -1.04413,-12.18199 0.0559,-27.24723 22.18228,-49.95148 52.33129,-53.69794 13.73801,-1.70715 29.68705,1.9845 41.32117,9.56443 11.42776,7.44548 20.72036,20.03141 23.92723,32.40711 1.71563,6.62087 1.73491,18.17034 0.0414,24.80372 -4.78849,18.75622 -19.7211,33.5084 -40.44706,39.95835 -6.8174,2.12158 -21.39602,3.03298 -28.3475,1.77217 z"
           id="path216"
           transform="matrix(0.26458333,0,0,0.26458333,-306.65989,-190.14869)" /><ellipse
           style="display:inline;fill:none;fill-opacity:1;stroke:#000000;stroke-width:1.5;stroke-linecap:round;stroke-linejoin:round;stroke-miterlimit:1001;stroke-dasharray:none;stroke-opacity:1;paint-order:stroke fill markers"
           id="ellipse217"
           ry="15.393556"
           rx="16.682619"
           cy="-119.60479"
           cx="-142.77336"
           inkscape:label="head"
           transform="translate(-1.3125e-6)" /><path
           style="fill:#2b1500;fill-opacity:1;stroke:#000000;stroke-width:1.5;stroke-linecap:round;stroke-linejoin:round;stroke-dasharray:none;stroke-opacity:1;paint-order:fill markers stroke"
           d="m -159.73847,-127.3535 c -1.09709,2.77721 -1.18222,5.99439 -0.65759,8.934 0.35843,2.0083 2.53291,5.57138 2.53291,5.57138 0,0 -0.39913,-4.60387 0.17116,-6.7975 0.64303,-2.4734 1.67889,-5.06274 3.56431,-6.78795 1.65422,-1.51366 3.97405,-2.40877 6.20915,-2.58747 2.69832,-0.21574 5.19027,1.92007 7.89706,1.89301 2.4558,-0.0246 4.72491,-2.36216 7.12904,-1.86039 1.89149,0.39478 3.43646,2.00961 4.55516,3.58508 1.40121,1.97333 2.35893,6.86676 2.35893,6.86676 0,0 0.83989,-4.65128 0.36705,-6.90829 -0.64992,-3.10231 -1.94831,-6.34038 -4.27339,-8.49462 -2.67079,-2.47454 -6.47635,-3.83156 -10.10323,-4.15127 -4.56821,-0.40269 -9.54133,0.51347 -13.44393,2.92188 -2.84873,1.75804 -5.07672,4.70197 -6.30663,7.81538 z"
           id="path221"
           sodipodi:nodetypes="aacaaaaaacaaaaa"
           inkscape:label="hair" /></g><g
         id="g219"
         inkscape:label="eyes"
         transform="translate(-309.99806,-70.77545)"
         style="display:inline"><ellipse
           style="fill:#000000;fill-opacity:1;stroke:none;stroke-width:0.593632;stroke-linecap:round;stroke-linejoin:round;stroke-miterlimit:1001;stroke-dasharray:none;stroke-opacity:1;paint-order:stroke fill markers"
           id="ellipse218"
           cx="-86.904243"
           cy="-98.34063"
           rx="2.1079104"
           ry="2.7033648"
           transform="matrix(0.96864121,0.2484637,-0.20869257,0.97798129,0,0)"
           inkscape:label="right" /><ellipse
           style="fill:#000000;fill-opacity:1;stroke:none;stroke-width:0.509367;stroke-linecap:round;stroke-linejoin:round;stroke-miterlimit:1001;stroke-dasharray:none;stroke-opacity:1;paint-order:stroke fill markers"
           id="ellipse219"
           cx="-36.557335"
           cy="-122.18265"
           rx="1.7384969"
           ry="2.4132938"
           transform="matrix(0.99463321,-0.10346393,0.09707266,0.9952773,0,0)"
           inkscape:label="left" /></g></g><path
       id="path16694"
       style="fill:#2d174a;fill-opacity:1;stroke:none;stroke-width:4.53523;stroke-linecap:round;stroke-linejoin:round;stroke-miterlimit:0;stroke-dasharray:none;stroke-opacity:1"
       d="m 119.61796,41.487066 c -0.38903,0.0053 -0.78528,0.05273 -1.18019,0.08633 H 45.836054 c -0.444417,0.883825 -0.884687,1.76932 -1.32892,2.653051 V 198.42055 c 0.891808,3.16941 2.522251,2.78767 4.101921,2.65305 h 72.596895 c 1.59317,-1.77395 1.40132,-5.01821 1.33372,-8.16071 V 44.226459 c -0.66885,-2.376949 -1.75464,-2.755453 -2.92171,-2.739393 z M 84.048738,55.011442 A 32.810877,32.810877 0 0 1 116.85935,87.822045 32.810877,32.810877 0 0 1 84.048738,120.63265 32.810877,32.810877 0 0 1 51.238127,87.822045 32.810877,32.810877 0 0 1 84.048738,55.011442 Z"
       inkscape:label="mask" /><text
       xml:space="preserve"
       style="font-size:8.18784px;font-family:Arial;-inkscape-font-specification:Arial;fill:#c19ec1;fill-opacity:1;stroke:none;stroke-width:4.64193;stroke-linecap:round;stroke-linejoin:round;stroke-miterlimit:0;stroke-dasharray:none;stroke-opacity:1"
       x="54.451721"
       y="138.66693"
       id="text16807"
       inkscape:label="calling"><tspan
         sodipodi:role="line"
         id="tspan16805"
         style="font-style:normal;font-variant:normal;font-weight:normal;font-stretch:normal;font-size:8.18784px;font-family:Arial;-inkscape-font-specification:Arial;fill:#ffffff;fill-opacity:1;stroke-width:4.64193"
         x="54.451721"
         y="138.66693">Annie's calling...</tspan></text><g
       id="g18432"
       inkscape:label="accept"
       transform="matrix(9.2838728,0,0,9.2838728,-696.71777,-1005.0327)"><ellipse
         style="fill:#07d400;fill-opacity:1;stroke:none;stroke-width:0.499973;stroke-linecap:round;stroke-linejoin:round;stroke-miterlimit:0;stroke-dasharray:none;stroke-opacity:1"
         id="path16911"
         cx="82.228714"
         cy="126.50732"
         rx="1.238"
         ry="1.2381275"
         inkscape:label="green circle" /><path
         d="m 82.542607,126.71879 -0.04057,0.0397 c 0,0 -0.09533,0.0948 -0.355563,-0.16395 -0.260235,-0.25876 -0.164907,-0.35357 -0.164907,-0.35357 l 0.02469,-0.0247 c 0.06261,-0.0617 0.0679,-0.16122 0.01411,-0.2338 l -0.111025,-0.14834 c -0.06702,-0.0898 -0.197006,-0.1016 -0.27408,-0.0247 l -0.138187,0.1375 c -0.03792,0.0379 -0.06349,0.0873 -0.06085,0.14181 0.0079,0.1397 0.07143,0.44027 0.423819,0.79102 0.373994,0.37191 0.724884,0.38664 0.868449,0.37333 0.04498,-0.004 0.08466,-0.0273 0.11667,-0.0591 l 0.125135,-0.12445 c 0.08466,-0.0838 0.06085,-0.22798 -0.04762,-0.28672 l -0.168258,-0.0914 c -0.07055,-0.0388 -0.157411,-0.0273 -0.212791,0.0282 z"
         fill="#1c274c"
         id="path17689"
         style="fill:#ffffff;fill-opacity:1;stroke:none;stroke-width:0.0880705;stroke-opacity:1"
         inkscape:label="handle" /></g><g
       id="g18438"
       inkscape:label="decline"
       transform="matrix(9.2838728,0,0,9.2838728,-696.71777,-1005.0327)"><ellipse
         style="fill:#d40000;fill-opacity:1;stroke:none;stroke-width:0.499973;stroke-linecap:round;stroke-linejoin:round;stroke-miterlimit:0;stroke-dasharray:none;stroke-opacity:1"
         id="ellipse18434"
         cx="86.228714"
         cy="126.50732"
         rx="1.238"
         ry="1.2381275"
         inkscape:label="red circle" /><path
         d="m 85.857217,126.57977 6.15e-4,-0.0568 c 0,0 3.75e-4,-0.13444 0.367351,-0.13549 0.366985,-10e-4 0.366619,0.1334 0.366619,0.1334 l 7e-6,0.0349 c -6.44e-4,0.0879 0.06599,0.16201 0.155344,0.17529 l 0.183399,0.0264 c 0.110888,0.0161 0.211146,-0.0675 0.211269,-0.17634 l 4.86e-4,-0.19494 c 1.4e-5,-0.0536 -0.01684,-0.10662 -0.05725,-0.1433 -0.104369,-0.0932 -0.361827,-0.26081 -0.859021,-0.25965 -0.527434,0.001 -0.785966,0.23917 -0.878071,0.3501 -0.02898,0.0346 -0.04056,0.0792 -0.04071,0.12429 l -4.84e-4,0.17648 c -6.08e-4,0.11912 0.118179,0.20424 0.236414,0.16907 l 0.183606,-0.0543 c 0.07732,-0.0225 0.13061,-0.092 0.130525,-0.1704 z"
         fill="#1c274c"
         id="path18436"
         style="fill:#ffffff;fill-opacity:1;stroke:none;stroke-width:0.0880705;stroke-opacity:1"
         inkscape:label="handle" /></g><circle
       style="fill:#000000;fill-opacity:1;stroke:none;stroke-width:9.28392;stroke-linecap:round;stroke-linejoin:round;stroke-miterlimit:0;stroke-opacity:1"
       id="path922"
       cx="83.54493"
       cy="39.488541"
       r="1.8567747" /></g></svg>
