<?xml version="1.0" encoding="UTF-8" standalone="no"?>
<!-- Uploaded to: SVG Repo, www.svgrepo.com, Generator: SVG Repo Mixer Tools -->

<svg
   width="50"
   height="50.00005"
   viewBox="0 0 1 1.000001"
   version="1.1"
   id="svg4"
   sodipodi:docname="reload.svg"
   inkscape:version="1.2.2 (732a01da63, 2022-12-09)"
   xmlns:inkscape="http://www.inkscape.org/namespaces/inkscape"
   xmlns:sodipodi="http://sodipodi.sourceforge.net/DTD/sodipodi-0.dtd"
   xmlns="http://www.w3.org/2000/svg"
   xmlns:svg="http://www.w3.org/2000/svg">
  <defs
     id="defs8" />
  <sodipodi:namedview
     id="namedview6"
     pagecolor="#505050"
     bordercolor="#eeeeee"
     borderopacity="1"
     inkscape:showpageshadow="0"
     inkscape:pageopacity="0"
     inkscape:pagecheckerboard="0"
     inkscape:deskcolor="#505050"
     showgrid="false"
     inkscape:zoom="2.16"
     inkscape:cx="250.23148"
     inkscape:cy="-39.583333"
     inkscape:window-width="1827"
     inkscape:window-height="1057"
     inkscape:window-x="-9"
     inkscape:window-y="-9"
     inkscape:window-maximized="1"
     inkscape:current-layer="svg4" />
  <path
     fill="#000000"
     d="m 0.93466939,0.49911007 0.007274,6.1e-4 c 0.0341753,0.00486 0.0579373,0.0365031 0.0530813,0.0706774 C 0.98016252,0.67489379 0.93261253,0.77201253 0.85918753,0.84783753 0.78575626,0.92365626 0.69021879,0.97429999 0.58624937,0.99250626 0.48228127,1.0107125 0.37521813,0.99554999 0.28039438,0.94918753 0.23583438,0.92740626 0.19505125,0.89925626 0.1592,0.86585626 l -0.0525056,0.052506 C 0.06732125,0.95773753 0,0.92984999 0,0.87416879 V 0.62499877 h 0.24917062 c 0.0556813,0 0.0835669,0.06732 0.0441937,0.10669502 l -0.0457019,0.0457 c 0.0260913,0.0237373 0.0555581,0.0438187 0.0876344,0.0595 0.0711181,0.0347687 0.151415,0.0461373 0.22939127,0.0324873 0.0779744,-0.0136567 0.14963066,-0.051638 0.2046994,-0.10850647 0.0550747,-0.0568687 0.0907375,-0.12969999 0.10188126,-0.20807749 0.00486,-0.0341737 0.036506,-0.0579375 0.070675,-0.0530775 z M 0.71960626,0.05081101 c 0.0446373,0.02182337 0.0854813,0.05003213 0.12138127,0.08350463 l 0.0523187,-0.05232 C 0.93268133,0.04262258 1,0.07050814 1,0.12619001 V 0.37500064 H 0.75118753 c -0.0556813,0 -0.0835687,-0.0673213 -0.044194,-0.10669375 l 0.0455313,-0.0455313 C 0.72638753,0.19896627 0.69685626,0.17882814 0.66470627,0.16310814 0.593585,0.12833877 0.51328814,0.11696627 0.43531187,0.13062127 0.35733563,0.14427564 0.28568062,0.18225689 0.23061,0.23912439 0.17553875,0.29599126 0.13987625,0.36882814 0.12873063,0.4472025 0.12387063,0.4813763 0.09222749,0.50514004 0.05805363,0.50028004 0.02387969,0.49542 1.1599063e-4,0.4637769 0.00497591,0.4296025 0.01983688,0.32510376 0.06738625,0.22798876 0.14081438,0.15216564 0.2142425,0.07634251 0.3097825,0.02570108 0.41375063,0.00749477 0.51771877,-0.01071149 0.62478187,0.00445113 0.71960626,0.05081101 Z"
     id="path2"
     style="fill:#cba6f7;fill-opacity:1;stroke-width:0.0625" />
</svg>
