<?xml version="1.0" encoding="UTF-8" standalone="no"?>
<!-- Uploaded to: SVG Repo, www.svgrepo.com, Generator: SVG Repo Mixer Tools -->

<svg
   width="50"
   height="50"
   viewBox="0 0 1.5 1.5"
   fill="none"
   version="1.1"
   id="svg1236"
   sodipodi:docname="share.svg"
   inkscape:version="1.2.2 (732a01da63, 2022-12-09)"
   xmlns:inkscape="http://www.inkscape.org/namespaces/inkscape"
   xmlns:sodipodi="http://sodipodi.sourceforge.net/DTD/sodipodi-0.dtd"
   xmlns="http://www.w3.org/2000/svg"
   xmlns:svg="http://www.w3.org/2000/svg">
  <defs
     id="defs1240" />
  <sodipodi:namedview
     id="namedview1238"
     pagecolor="#505050"
     bordercolor="#eeeeee"
     borderopacity="1"
     inkscape:showpageshadow="0"
     inkscape:pageopacity="0"
     inkscape:pagecheckerboard="0"
     inkscape:deskcolor="#505050"
     showgrid="false"
     inkscape:zoom="4.32"
     inkscape:cx="27.430556"
     inkscape:cy="66.782407"
     inkscape:window-width="1827"
     inkscape:window-height="1057"
     inkscape:window-x="-9"
     inkscape:window-y="-9"
     inkscape:window-maximized="1"
     inkscape:current-layer="svg1236" />
  <g
     id="g236"
     transform="matrix(0.66666658,0,0,0.66666667,-0.66666658,-6.6977101e-8)">
    <path
       fill-rule="evenodd"
       clip-rule="evenodd"
       d="M 2.8244096,0.07820514 C 2.7103345,-0.07138226 2.4683027,0.00796433 2.4683027,0.19494714 V 0.38270129 C 2.0992827,0.37833409 1.8468471,0.50515976 1.6786986,0.68227419 1.4989468,0.87160991 1.4250137,1.1083187 1.3940322,1.2701738 c -0.01549,0.080918 0.0376,0.1396329 0.093394,0.1599088 0.053301,0.019366 0.1245249,0.011072 0.1720557,-0.043251 C 1.7943842,1.2326639 2.0564743,1.0174928 2.468303,1.0315382 v 0.2406603 c 0,0.1869824 0.2420318,0.2663255 0.3561069,0.1167356 L 3.1906513,0.90868362 c 0.079132,-0.10377001 0.079132,-0.24645451 0,-0.35022453 z M 1.6341104,1.1355195 C 1.8107062,0.98143042 2.0642022,0.83682689 2.4683027,0.83682689 h 0.098941 c 0.054636,0 0.098922,0.0435595 0.098922,0.0972901 L 2.6661462,1.2721985 3.0323781,0.79194211 c 0.026384,-0.0345903 0.026384,-0.0821512 0,-0.11674151 L 2.6661464,0.19494714 v 0.28504134 c 0,0.0537287 -0.044286,0.0972843 -0.098922,0.0972843 H 2.4683024 C 2.0231932,0.57727278 1.823301,0.8150604 1.823301,0.8150604 1.731274,0.91199349 1.67205,1.0271955 1.6341104,1.1355195 Z"
       fill="#0F0F0F"
       id="path1232"
       style="fill:#cba6f7;fill-opacity:1;stroke-width:0.0978179" />
    <path
       d="M 1.5869572,0.09819203 H 1.2934786 C 1.1313953,0.09819203 1,0.22956388 1,0.39162053 V 1.9565716 c 0,0.1620606 0.1313953,0.2934285 0.2934786,0.2934285 h 1.5652191 c 0.1620882,0 0.2934786,-0.1313679 0.2934786,-0.2934285 V 1.6631431 c 0,-0.05402 -0.043797,-0.09781 -0.097826,-0.09781 -0.054029,0 -0.097826,0.043789 -0.097826,0.09781 v 0.2934285 c 0,0.05402 -0.043797,0.09781 -0.097826,0.09781 H 1.2934786 c -0.054028,0 -0.097826,-0.043789 -0.097826,-0.09781 V 0.39162053 c 0,-0.0540192 0.043799,-0.0978095 0.097826,-0.0978095 h 0.2934786 c 0.054027,0 0.097826,-0.0437913 0.097826,-0.0978095 0,-0.0540192 -0.043799,-0.0978095 -0.097826,-0.0978095 z"
       fill="#0F0F0F"
       id="path1234"
       style="fill:#cba6f7;fill-opacity:1;stroke-width:0.0978179" />
  </g>
</svg>
