<?xml version="1.0" encoding="UTF-8" standalone="no"?>
<!-- Created with Inkscape (http://www.inkscape.org/) -->

<svg
   width="34.940666mm"
   height="46.366058mm"
   viewBox="0 0 132.05921 175.2418"
   version="1.1"
   id="svg1"
   inkscape:version="1.2.2 (732a01da63, 2022-12-09)"
   sodipodi:docname="worried.svg"
   xml:space="preserve"
   xmlns:inkscape="http://www.inkscape.org/namespaces/inkscape"
   xmlns:sodipodi="http://sodipodi.sourceforge.net/DTD/sodipodi-0.dtd"
   xmlns="http://www.w3.org/2000/svg"
   xmlns:svg="http://www.w3.org/2000/svg"><sodipodi:namedview
     id="namedview1"
     pagecolor="#ffffff"
     bordercolor="#000000"
     borderopacity="0.25"
     inkscape:showpageshadow="2"
     inkscape:pageopacity="0.0"
     inkscape:pagecheckerboard="0"
     inkscape:deskcolor="#d1d1d1"
     inkscape:document-units="mm"
     inkscape:zoom="5.5437172"
     inkscape:cx="97.13699"
     inkscape:cy="101.28583"
     inkscape:window-width="1827"
     inkscape:window-height="1057"
     inkscape:window-x="-9"
     inkscape:window-y="-9"
     inkscape:window-maximized="1"
     inkscape:current-layer="layer1"
     showgrid="true"><inkscape:grid
       id="grid11"
       units="mm"
       originx="0"
       originy="0"
       spacingx="3.7795276"
       spacingy="3.7795276"
       empcolor="#0099e5"
       empopacity="0.30196078"
       color="#0099e5"
       opacity="0.14901961"
       empspacing="5"
       dotted="false"
       gridanglex="30"
       gridanglez="30"
       visible="true" /></sodipodi:namedview><defs
     id="defs1"><linearGradient
       id="linearGradient4322"
       inkscape:swatch="solid"><stop
         style="stop-color:#2b1500;stop-opacity:1;"
         offset="0"
         id="stop4320" /></linearGradient><linearGradient
       id="linearGradient5259"
       inkscape:swatch="solid"><stop
         style="stop-color:#fdb6b0;stop-opacity:1;"
         offset="0"
         id="stop5257" /></linearGradient><linearGradient
       id="linearGradient5745"
       inkscape:swatch="solid"><stop
         style="stop-color:#000000;stop-opacity:1;"
         offset="0"
         id="stop5743" /></linearGradient><linearGradient
       id="linearGradient4753"
       inkscape:swatch="solid"><stop
         style="stop-color:#d1d48d;stop-opacity:1;"
         offset="0"
         id="stop4751" /></linearGradient><inkscape:path-effect
       effect="spiro"
       id="path-effect21"
       is_visible="true"
       lpeversion="1" /><inkscape:path-effect
       effect="spiro"
       id="path-effect19"
       is_visible="true"
       lpeversion="1" /><inkscape:path-effect
       effect="spiro"
       id="path-effect2908"
       is_visible="true"
       lpeversion="1" /><inkscape:path-effect
       effect="powerstroke"
       id="path-effect91"
       is_visible="true"
       lpeversion="1.3"
       scale_width="1"
       interpolator_type="CentripetalCatmullRom"
       interpolator_beta="0.75"
       start_linecap_type="round"
       end_linecap_type="round"
       offset_points="0.5,0"
       linejoin_type="spiro"
       miter_limit="4"
       not_jump="true"
       sort_points="true"
       message="&lt;b&gt;Ctrl + click&lt;/b&gt; on existing node and move it" /><inkscape:path-effect
       effect="simplify"
       id="path-effect90"
       is_visible="true"
       lpeversion="1.3"
       threshold="0.012"
       steps="1"
       smooth_angles="0"
       helper_size="0"
       simplify_individual_paths="false"
       simplify_just_coalesce="false"
       step="1" /><inkscape:path-effect
       effect="powerstroke"
       id="path-effect70"
       is_visible="true"
       lpeversion="1.3"
       scale_width="1"
       interpolator_type="CentripetalCatmullRom"
       interpolator_beta="0.75"
       start_linecap_type="round"
       end_linecap_type="round"
       offset_points="55.69315,1.984375"
       linejoin_type="spiro"
       miter_limit="4"
       not_jump="true"
       sort_points="true"
       message="&lt;b&gt;Ctrl + click&lt;/b&gt; on existing node and move it" /><inkscape:path-effect
       effect="simplify"
       id="path-effect69"
       is_visible="true"
       lpeversion="1.3"
       threshold="0.012"
       steps="1"
       smooth_angles="0"
       helper_size="0"
       simplify_individual_paths="false"
       simplify_just_coalesce="false"
       step="1" /><inkscape:path-effect
       effect="fillet_chamfer"
       id="path-effect52"
       is_visible="true"
       lpeversion="1"
       nodesatellites_param=""
       radius="0"
       unit="px"
       method="auto"
       mode="F"
       chamfer_steps="1"
       flexible="false"
       use_knot_distance="true"
       apply_no_radius="true"
       apply_with_radius="true"
       only_selected="false"
       hide_knots="false" /><inkscape:path-effect
       effect="fillet_chamfer"
       id="path-effect50"
       is_visible="true"
       lpeversion="1"
       nodesatellites_param="F,0,0,1,0,0,0,1 @ F,0,0,1,0,0,0,1 @ F,0,0,1,0,0,0,1 @ F,0,0,1,0,0,0,1"
       radius="0"
       unit="px"
       method="auto"
       mode="F"
       chamfer_steps="1"
       flexible="false"
       use_knot_distance="true"
       apply_no_radius="true"
       apply_with_radius="true"
       only_selected="false"
       hide_knots="false" /><inkscape:path-effect
       effect="spiro"
       id="path-effect17560"
       is_visible="true"
       lpeversion="1" /><inkscape:path-effect
       effect="spiro"
       id="path-effect17566"
       is_visible="true"
       lpeversion="1" /></defs><g
     inkscape:label="Layer 1"
     inkscape:groupmode="layer"
     id="layer1"
     transform="translate(-973.33753,-286.84567)"><g
       id="g38"
       inkscape:label="unknown"
       transform="matrix(2.8346442,0,0,2.8346442,1300.5641,696.2079)"
       style="display:inline"
       inkscape:highlight-color="#4d4d4d"><g
         id="g36"
         transform="translate(50.598352,-0.2277988)"
         inkscape:label="body"
         style="display:inline"><path
           style="display:inline;fill:#ffffff;fill-opacity:1;stroke:#000000;stroke-width:1.5;stroke-linecap:round;stroke-linejoin:round;stroke-miterlimit:1001;stroke-dasharray:none;stroke-opacity:1;paint-order:fill markers stroke"
           d="m -148.03164,-104.78796 c 0,0 -1.45625,6.491187 -2.21827,10.116169 -0.35033,1.666547 -0.73974,3.495931 -0.96341,5.266487 -0.25635,2.029349 -0.78917,5.697504 -0.43156,6.121237 0.35761,0.423733 3.59111,-0.02535 4.18398,-0.500433 0.59287,-0.475088 -0.40107,-3.055873 -0.0191,-3.53863 0.382,-0.482757 6.00307,-1.170713 6.29817,-0.848501 0.2951,0.322212 -0.0275,3.62726 0.16278,4.114573 0.50176,0.401375 4.08807,-0.338983 4.08807,-0.338983 0,0 -1.5286,-9.764104 -2.00605,-14.679673 -0.17444,-1.795926 -0.31293,-5.404086 -0.31293,-5.404086"
           id="path33"
           sodipodi:nodetypes="csazzzzccac"
           inkscape:label="body"
           transform="translate(1.0485448e-6)" /><path
           style="display:inline;fill:#4d4d4d;fill-opacity:1;stroke:#000000;stroke-width:1.5;stroke-linecap:round;stroke-linejoin:round;stroke-dasharray:none;paint-order:fill markers stroke"
           d="m -100.56623,-92.18088 c 0.759995,-5.51485 1.534173,-8.45524 2.992802,-12.6204 5.645931,1.06558 3.084551,0.9165 9.051246,0.21966 0,0 0.06208,3.9929 0.398349,6.443891 0.278085,2.026916 0.701245,5.92805 0.701245,5.92805 0,0 -3.397481,0.667588 -6.303809,0.74897 -3.02012,0.08457 -4.497583,0.117462 -6.839833,-0.720171 z"
           id="path35"
           sodipodi:nodetypes="cccscsc"
           inkscape:label="shirt"
           transform="translate(-50.598349,0.22780022)" /><path
           style="display:inline;fill:#552200;fill-opacity:1;stroke:#000000;stroke-width:1.5;stroke-linecap:round;stroke-linejoin:round;stroke-dasharray:none;paint-order:fill markers stroke"
           d="m -152.61327,-83.895285 c 0,0 0.36587,-5.657413 1.00615,-8.91059 5.27719,0.76172 9.29956,0.90494 14.03963,-0.495768 0.69227,2.282553 1.74605,8.616489 1.74605,8.616489 l -6.40289,0.319106 -0.0927,-3.113927 -3.34008,0.34654 -0.29136,2.965235 z"
           id="path34"
           inkscape:label="pants"
           sodipodi:nodetypes="ccccccccc" /><path
           style="display:inline;fill:#4d4d4d;fill-opacity:1;stroke:#000000;stroke-width:1.5;stroke-linecap:round;stroke-linejoin:miter;stroke-dasharray:none;stroke-opacity:1;paint-order:fill markers stroke"
           d="m -149.99768,-105.26332 c -0.53722,0.4499 -0.73551,1.45425 -0.39241,2.06523 0.79178,1.40999 3.17748,1.692 4.54083,1.70758 l 3.16436,0.0361 c 1.75492,0.02 4.25033,0.24787 5.39581,-1.19486 0.46002,-0.57939 0.46424,-1.66338 -0.0239,-2.21929 -1.12908,-1.28584 -4.25399,-0.45131 -6.40117,-0.47248 -1.81076,-0.0178 -5.04799,-0.95702 -6.28352,0.0776 z"
           id="path38"
           sodipodi:nodetypes="sassassss" /><ellipse
           style="display:inline;fill:#ffffff;fill-opacity:0.995349;stroke:#000000;stroke-width:1.5;stroke-linecap:round;stroke-linejoin:round;stroke-miterlimit:1001;stroke-dasharray:none;stroke-opacity:1;paint-order:fill markers stroke"
           id="ellipse35"
           ry="15.393556"
           rx="16.682619"
           cy="-119.60479"
           cx="-142.77336"
           inkscape:label="head"
           transform="translate(1.0485448e-6)" /><path
           style="display:inline;fill:#784421;stroke:#000000;stroke-width:1.5;stroke-linecap:round;stroke-linejoin:round;stroke-dasharray:none;paint-order:fill markers stroke"
           d="m -159.26997,-114.17638 c -2.87231,-0.0542 -2.58959,-5.57484 -2.56142,-8.22905 -2.70672,0.30193 -5.1505,-1.6996 -1.92569,-4.59025 -2.52978,-2.86837 -1.19007,-5.17853 2.72991,-5.68696 -1.04594,-4.14287 2.96191,-7.33027 6.37988,-4.29677 -0.0986,-5.24732 6.27974,-6.24874 8.67319,-2.95867 1.1793,-4.66282 7.68973,-4.64495 9.07079,-0.0613 1.95641,-2.23031 5.54665,-2.3531 6.56863,1.07231 3.87518,-1.4769 5.95023,2.01711 4.09992,4.98133 3.55346,-1.4182 5.43848,1.6357 3.67328,4.29424 3.78518,-0.0848 2.68715,7.96647 -0.9577,6.15577 -0.91903,2.19273 0.24165,8.25663 -2.5497,8.01054 -1.70129,-0.14999 -0.69677,-3.19315 -0.6758,-5.07889 0.021,-1.88574 -0.80919,-3.99066 -1.62849,-4.97561 -1.84426,2.42239 -4.56338,2.64253 -6.32421,-0.34227 -1.35584,3.62977 -6.69216,2.76533 -7.65186,0.71012 -2.44461,1.52206 -5.23971,1.09082 -5.96062,-1.70986 -1.94242,2.18609 -5.02853,4.49915 -7.29512,2.18751 -2.64583,3.2947 -0.004,11.13736 -3.66499,10.51784 -1e-5,0 0,-4e-5 0,-4e-5 z"
           id="path36"
           sodipodi:nodetypes="accccccccccascccccaa"
           inkscape:label="hair" /></g><g
         id="g37"
         inkscape:label="eyes"
         transform="translate(-34.322565,-0.0667206)"
         style="display:inline"><ellipse
           style="fill:#000000;fill-opacity:1;stroke:none;stroke-width:0.593632;stroke-linecap:round;stroke-linejoin:round;stroke-miterlimit:1001;stroke-dasharray:none;stroke-opacity:1;paint-order:stroke fill markers"
           id="ellipse36"
           cx="-85.969948"
           cy="-98.577995"
           rx="2.1079104"
           ry="2.7033648"
           transform="matrix(0.96864121,0.2484637,-0.20869257,0.97798129,0,0)"
           inkscape:label="right" /><ellipse
           style="fill:#000000;fill-opacity:1;stroke:none;stroke-width:0.509367;stroke-linecap:round;stroke-linejoin:round;stroke-miterlimit:1001;stroke-dasharray:none;stroke-opacity:1;paint-order:stroke fill markers"
           id="ellipse37"
           cx="-35.607288"
           cy="-122.08389"
           rx="1.7384969"
           ry="2.4132938"
           transform="matrix(0.99463321,-0.10346393,0.09707266,0.9952773,0,0)"
           inkscape:label="left" /></g></g><g
       id="g31"
       inkscape:label="base - depressed"
       transform="matrix(3.1429211,0,0,3.1429211,1330.9918,721.87832)"
       style="display:inline"
       inkscape:highlight-color="#999999"><path
         style="fill:#ff0000;fill-opacity:0.0103806;stroke:#000000;stroke-width:1.5;stroke-linecap:round;stroke-linejoin:round;stroke-opacity:0.989619;paint-order:fill markers stroke"
         d="m -94.568487,-122.61154 c -1.687145,4.16126 -4.857577,6.66891 -8.649503,6.76694"
         id="path53"
         sodipodi:nodetypes="cc" /><path
         style="fill:#ff0000;fill-opacity:0.0103806;stroke:#000000;stroke-width:1.5;stroke-linecap:round;stroke-linejoin:round;stroke-opacity:0.989619;paint-order:fill markers stroke"
         d="m -85.423201,-123.03406 c 1.531784,4.49736 4.072788,6.39642 6.712133,6.13723"
         id="path54"
         sodipodi:nodetypes="cc" /></g></g></svg>
