<?xml version="1.0" encoding="UTF-8" standalone="no"?>
<!-- Created with Inkscape (http://www.inkscape.org/) -->

<svg
   width="125.79058mm"
   height="135.45203mm"
   viewBox="0 0 125.79058 135.45202"
   version="1.1"
   id="svg5"
   xml:space="preserve"
   inkscape:version="1.2.2 (732a01da63, 2022-12-09)"
   sodipodi:docname="elements.svg"
   inkscape:export-filename="fire.svg"
   inkscape:export-xdpi="84.575256"
   inkscape:export-ydpi="84.575256"
   xmlns:inkscape="http://www.inkscape.org/namespaces/inkscape"
   xmlns:sodipodi="http://sodipodi.sourceforge.net/DTD/sodipodi-0.dtd"
   xmlns="http://www.w3.org/2000/svg"
   xmlns:svg="http://www.w3.org/2000/svg"><sodipodi:namedview
     id="namedview7"
     pagecolor="#505050"
     bordercolor="#eeeeee"
     borderopacity="1"
     inkscape:showpageshadow="0"
     inkscape:pageopacity="0"
     inkscape:pagecheckerboard="0"
     inkscape:deskcolor="#505050"
     inkscape:document-units="mm"
     showgrid="false"
     inkscape:zoom="0.38484849"
     inkscape:cx="111.73228"
     inkscape:cy="682.08661"
     inkscape:window-width="1827"
     inkscape:window-height="1057"
     inkscape:window-x="-9"
     inkscape:window-y="-9"
     inkscape:window-maximized="1"
     inkscape:current-layer="layer1" /><defs
     id="defs2" /><g
     inkscape:label="Layer 1"
     inkscape:groupmode="layer"
     id="layer1"
     transform="translate(116.42604,-245.08248)"><path
       fill-rule="evenodd"
       clip-rule="evenodd"
       d="m -0.55839997,357.57909 c 0,0 -17.08150003,13.69986 -51.07304603,8.03063 -25.788937,-4.30133 -39.543566,-32.72975 -39.543566,-48.01049 0,-36.2294 26.814462,-44.47408 44.942918,-44.47408 18.128194,0 29.954274,17.67417 29.954274,31.35842 0,13.68425 -9.67846,25.65347 -24.740395,25.65347 -15.06167,0 -19.522545,-10.57408 -19.522545,-20.29566 0,-9.72132 7.865269,-13.14635 15.038387,-13.14635 7.173119,0 9.629246,6.12404 9.629246,11.3874 0,5.26362 -4.083844,7.14851 -7.49009,7.14851 -3.406245,0 -3.74306,-1.71847 -5.046662,-3.52451 -1.303867,-1.80579 1.662642,-8.64156 -3.221567,-8.64156 -4.884208,0 -5.794639,7.85839 -5.794639,7.85839 0,0 1.780646,15.16935 16.40787,14.90768 14.627485,-0.26194 21.566715,-11.57023 19.550065,-22.76607 -2.01666,-11.19611 -12.8823,-23.0931 -31.951879,-20.68909 -19.069579,2.404 -26.855473,21.67202 -23.423562,42.26295 3.43191,20.5912 28.099808,32.52179 47.495091,28.22945 19.39554,-4.29233 38.71304,-18.33377 38.71304,-53.93425 0,-35.60077 -30.83269,-57.00003 -67.597869,-53.47332 -36.765203,3.52671 -59.587341,35.66924 -58.126521,74.28915 1.46082,38.6199 38.106559,59.65349 69.094294,60.73748 C -16.27782,381.57151 2.719,363.63355 2.719,363.63355 c 0,0 4.27222,-3.80974 2.59715,-6.78471 -1.67482,-2.97498 -5.87454997,0.73025 -5.87454997,0.73025 z"
       fill="#ffffff"
       id="path2693"
       style="fill:#b0bfde;fill-opacity:1;stroke-width:0.264583"
       inkscape:label="air" /></g></svg>
