<?xml version="1.0" encoding="UTF-8" standalone="no"?>
<!-- Created with Inkscape (http://www.inkscape.org/) -->

<svg
   width="27.860184mm"
   height="30.000006mm"
   viewBox="0 0 27.860184 30.000005"
   version="1.1"
   id="svg5"
   xml:space="preserve"
   inkscape:version="1.2.2 (732a01da63, 2022-12-09)"
   sodipodi:docname="elements.svg"
   inkscape:export-filename="fire.svg"
   inkscape:export-xdpi="84.575256"
   inkscape:export-ydpi="84.575256"
   xmlns:inkscape="http://www.inkscape.org/namespaces/inkscape"
   xmlns:sodipodi="http://sodipodi.sourceforge.net/DTD/sodipodi-0.dtd"
   xmlns="http://www.w3.org/2000/svg"
   xmlns:svg="http://www.w3.org/2000/svg"><sodipodi:namedview
     id="namedview7"
     pagecolor="#505050"
     bordercolor="#eeeeee"
     borderopacity="1"
     inkscape:showpageshadow="0"
     inkscape:pageopacity="0"
     inkscape:pagecheckerboard="0"
     inkscape:deskcolor="#505050"
     inkscape:document-units="mm"
     showgrid="false"
     inkscape:zoom="2.1770318"
     inkscape:cx="144.00341"
     inkscape:cy="143.08472"
     inkscape:window-width="1827"
     inkscape:window-height="1057"
     inkscape:window-x="-9"
     inkscape:window-y="-9"
     inkscape:window-maximized="1"
     inkscape:current-layer="layer1" /><defs
     id="defs2" /><g
     inkscape:label="Layer 1"
     inkscape:groupmode="layer"
     id="layer1"
     transform="translate(116.42604,-110.08249)"><path
       fill-rule="evenodd"
       clip-rule="evenodd"
       d="m -90.763599,134.99832 c 0,0 -3.78322,3.03425 -11.311691,1.77863 -5.71175,-0.95266 -8.75814,-7.24901 -8.75814,-10.6334 0,-8.02411 5.93889,-9.85015 9.95399,-9.85015 4.015041,0 6.634291,3.91449 6.634291,6.94528 0,3.0308 -2.14359,5.68175 -5.47951,5.68175 -3.335881,0 -4.323871,-2.34195 -4.323871,-4.4951 0,-2.15308 1.742,-2.91166 3.33071,-2.91166 1.588711,0 2.132691,1.35636 2.132691,2.52209 0,1.16579 -0.90449,1.58326 -1.658911,1.58326 -0.75442,0 -0.82902,-0.38061 -1.11774,-0.78062 -0.28878,-0.39994 0.36825,-1.91393 -0.71351,-1.91393 -1.08176,0 -1.2834,1.74048 -1.2834,1.74048 0,0 0.39437,3.35972 3.634031,3.30176 3.2397,-0.058 4.7766,-2.56258 4.32995,-5.04224 -0.44665,-2.47972 -2.85318,-5.11468 -7.076721,-4.58224 -4.22354,0.53244 -5.94797,4.79994 -5.18787,9.36044 0.76011,4.56054 6.22357,7.20294 10.519251,6.25227 4.29574,-0.95067 8.57419,-4.06058 8.57419,-11.94539 0,-7.88488 -6.82885,-12.62441 -14.971621,-11.84331 -8.14278,0.7811 -13.19745,7.90005 -12.8739,16.45361 0.32354,8.55356 8.43986,13.2121 15.30305,13.45218 6.863181,0.24014 11.070612,-3.73276 11.070612,-3.73276 0,0 0.946214,-0.84379 0.575219,-1.50269 -0.370941,-0.6589 -1.3011,0.16174 -1.3011,0.16174 z"
       fill="#ffffff"
       id="path2693"
       style="fill:#64eec7;fill-opacity:1;stroke-width:0.0586002"
       inkscape:label="air"
       inkscape:export-filename=".\air.svg"
       inkscape:export-xdpi="84.575256"
       inkscape:export-ydpi="84.575256" /></g></svg>
