<?xml version="1.0" encoding="UTF-8" standalone="no"?>
<!-- Created with Inkscape (http://www.inkscape.org/) -->

<svg
   width="41.379318mm"
   height="30.00004mm"
   viewBox="0 0 41.379319 30.00004"
   version="1.1"
   id="svg5"
   xml:space="preserve"
   inkscape:version="1.2.2 (732a01da63, 2022-12-09)"
   sodipodi:docname="elements.svg"
   inkscape:export-filename="fire.svg"
   inkscape:export-xdpi="84.575256"
   inkscape:export-ydpi="84.575256"
   xmlns:inkscape="http://www.inkscape.org/namespaces/inkscape"
   xmlns:sodipodi="http://sodipodi.sourceforge.net/DTD/sodipodi-0.dtd"
   xmlns="http://www.w3.org/2000/svg"
   xmlns:svg="http://www.w3.org/2000/svg"><sodipodi:namedview
     id="namedview7"
     pagecolor="#505050"
     bordercolor="#eeeeee"
     borderopacity="1"
     inkscape:showpageshadow="0"
     inkscape:pageopacity="0"
     inkscape:pagecheckerboard="0"
     inkscape:deskcolor="#505050"
     inkscape:document-units="mm"
     showgrid="false"
     inkscape:zoom="2.1770318"
     inkscape:cx="144.00341"
     inkscape:cy="143.08472"
     inkscape:window-width="1827"
     inkscape:window-height="1057"
     inkscape:window-x="-9"
     inkscape:window-y="-9"
     inkscape:window-maximized="1"
     inkscape:current-layer="layer1" /><defs
     id="defs2" /><g
     inkscape:label="Layer 1"
     inkscape:groupmode="layer"
     id="layer1"
     transform="translate(76.42604,-110.08249)"><path
       fill-rule="evenodd"
       clip-rule="evenodd"
       d="m -67.312539,139.96575 c -0.01124,0 -0.01907,-0.011 -0.01535,-0.0217 l 10.564288,-29.85076 c 0.0025,-0.006 0.0085,-0.0108 0.01537,-0.0108 h 11.277686 c 0.0068,0 0.01308,0.004 0.01536,0.0109 l 10.407578,29.85076 c 0.0036,0.0106 -0.0042,0.0216 -0.01536,0.0216 h -31.932106 z m -9.097233,0.11678 c -0.01135,0 -0.0192,-0.0113 -0.01522,-0.0219 l 7.866917,-21.00266 c 0.0024,-0.006 0.0084,-0.0106 0.01523,-0.0106 h 6.83545 c 0.0113,0 0.01915,0.0112 0.01528,0.0218 l -7.607088,21.00266 c -0.0023,0.006 -0.0084,0.0107 -0.01528,0.0107 z"
       fill="#ffffff"
       id="path2682"
       style="fill:#f58434;fill-opacity:1;stroke-width:0.0808194"
       inkscape:label="earth"
       inkscape:export-filename=".\earth.svg"
       inkscape:export-xdpi="84.575256"
       inkscape:export-ydpi="84.575256" /></g></svg>
