<?xml version="1.0" encoding="UTF-8" standalone="no"?>
<!-- Created with Inkscape (http://www.inkscape.org/) -->

<svg
   width="135.46623mm"
   height="98.212997mm"
   viewBox="0 0 135.46623 98.212996"
   version="1.1"
   id="svg5"
   xml:space="preserve"
   inkscape:version="1.2.2 (732a01da63, 2022-12-09)"
   sodipodi:docname="elements.svg"
   inkscape:export-filename="fire.svg"
   inkscape:export-xdpi="84.575256"
   inkscape:export-ydpi="84.575256"
   xmlns:inkscape="http://www.inkscape.org/namespaces/inkscape"
   xmlns:sodipodi="http://sodipodi.sourceforge.net/DTD/sodipodi-0.dtd"
   xmlns="http://www.w3.org/2000/svg"
   xmlns:svg="http://www.w3.org/2000/svg"><sodipodi:namedview
     id="namedview7"
     pagecolor="#505050"
     bordercolor="#eeeeee"
     borderopacity="1"
     inkscape:showpageshadow="0"
     inkscape:pageopacity="0"
     inkscape:pagecheckerboard="0"
     inkscape:deskcolor="#505050"
     inkscape:document-units="mm"
     showgrid="false"
     inkscape:zoom="0.38484849"
     inkscape:cx="111.73228"
     inkscape:cy="682.08661"
     inkscape:window-width="1827"
     inkscape:window-height="1057"
     inkscape:window-x="-9"
     inkscape:window-y="-9"
     inkscape:window-maximized="1"
     inkscape:current-layer="layer1" /><defs
     id="defs2" /><g
     inkscape:label="Layer 1"
     inkscape:groupmode="layer"
     id="layer1"
     transform="translate(-58.573979,-270.0825)"><path
       fill-rule="evenodd"
       clip-rule="evenodd"
       d="m 88.409433,367.91317 c -0.03678,0 -0.06244,-0.0362 -0.05027,-0.0709 l 34.585007,-97.72438 c 0.008,-0.0212 0.0278,-0.0354 0.0503,-0.0354 h 36.92049 c 0.0225,0 0.0429,0.0143 0.0503,0.0357 l 34.07199,97.72441 c 0.0119,0.0347 -0.0138,0.0706 -0.0503,0.0706 H 89.448716 Z m -29.782213,0.38232 c -0.03715,0 -0.06286,-0.037 -0.04983,-0.0717 l 25.754446,-68.7578 c 0.0078,-0.0209 0.02765,-0.0347 0.04985,-0.0347 h 22.377664 c 0.037,0 0.0627,0.0368 0.05,0.0714 l -24.903826,68.7578 c -0.0076,0.0209 -0.02762,0.0349 -0.05003,0.0349 z"
       fill="#ffffff"
       id="path2682"
       style="fill:#da7844;fill-opacity:1;stroke-width:0.264583"
       inkscape:label="earth" /></g></svg>
