<?xml version="1.0" encoding="UTF-8" standalone="no"?>
<!-- Created with Inkscape (http://www.inkscape.org/) -->

<svg
   width="81.379318mm"
   height="70.000038mm"
   viewBox="0 0 81.379319 70.000037"
   version="1.1"
   id="svg5"
   xml:space="preserve"
   inkscape:version="1.2.2 (732a01da63, 2022-12-09)"
   sodipodi:docname="elements.svg"
   inkscape:export-filename="fire.svg"
   inkscape:export-xdpi="84.575256"
   inkscape:export-ydpi="84.575256"
   xmlns:inkscape="http://www.inkscape.org/namespaces/inkscape"
   xmlns:sodipodi="http://sodipodi.sourceforge.net/DTD/sodipodi-0.dtd"
   xmlns="http://www.w3.org/2000/svg"
   xmlns:svg="http://www.w3.org/2000/svg"><sodipodi:namedview
     id="namedview7"
     pagecolor="#505050"
     bordercolor="#eeeeee"
     borderopacity="1"
     inkscape:showpageshadow="0"
     inkscape:pageopacity="0"
     inkscape:pagecheckerboard="0"
     inkscape:deskcolor="#505050"
     inkscape:document-units="mm"
     showgrid="false"
     inkscape:zoom="2.1770318"
     inkscape:cx="144.00341"
     inkscape:cy="143.08472"
     inkscape:window-width="1827"
     inkscape:window-height="1057"
     inkscape:window-x="-9"
     inkscape:window-y="-9"
     inkscape:window-maximized="1"
     inkscape:current-layer="layer1" /><defs
     id="defs2"><inkscape:path-effect
       effect="spiro"
       id="path-effect1217"
       is_visible="true"
       lpeversion="1" /></defs><g
     inkscape:label="Layer 1"
     inkscape:groupmode="layer"
     id="layer1"
     transform="translate(116.42604,-70.082488)"><path
       fill-rule="evenodd"
       clip-rule="evenodd"
       d="m -67.312539,139.96575 c -0.01124,0 -0.01907,-0.011 -0.01535,-0.0217 l 10.564288,-29.85076 c 0.0025,-0.006 0.0085,-0.0108 0.01537,-0.0108 h 11.277686 c 0.0068,0 0.01308,0.004 0.01536,0.0109 l 10.407578,29.85076 c 0.0036,0.0106 -0.0042,0.0216 -0.01536,0.0216 h -31.932106 z m -9.097233,0.11678 c -0.01135,0 -0.0192,-0.0113 -0.01522,-0.0219 l 7.866917,-21.00266 c 0.0024,-0.006 0.0084,-0.0106 0.01523,-0.0106 h 6.83545 c 0.0113,0 0.01915,0.0112 0.01528,0.0218 l -7.607088,21.00266 c -0.0023,0.006 -0.0084,0.0107 -0.01528,0.0107 z"
       fill="#ffffff"
       id="path2682"
       style="fill:#f58434;fill-opacity:1;stroke-width:0.0808194"
       inkscape:label="earth"
       inkscape:export-filename=".\earth.svg"
       inkscape:export-xdpi="84.575256"
       inkscape:export-ydpi="84.575256" /><path
       fill-rule="evenodd"
       clip-rule="evenodd"
       d="m -90.763599,134.99832 c 0,0 -3.78322,3.03425 -11.311691,1.77863 -5.71175,-0.95266 -8.75814,-7.24901 -8.75814,-10.6334 0,-8.02411 5.93889,-9.85015 9.95399,-9.85015 4.015041,0 6.634291,3.91449 6.634291,6.94528 0,3.0308 -2.14359,5.68175 -5.47951,5.68175 -3.335881,0 -4.323871,-2.34195 -4.323871,-4.4951 0,-2.15308 1.742,-2.91166 3.33071,-2.91166 1.588711,0 2.132691,1.35636 2.132691,2.52209 0,1.16579 -0.90449,1.58326 -1.658911,1.58326 -0.75442,0 -0.82902,-0.38061 -1.11774,-0.78062 -0.28878,-0.39994 0.36825,-1.91393 -0.71351,-1.91393 -1.08176,0 -1.2834,1.74048 -1.2834,1.74048 0,0 0.39437,3.35972 3.634031,3.30176 3.2397,-0.058 4.7766,-2.56258 4.32995,-5.04224 -0.44665,-2.47972 -2.85318,-5.11468 -7.076721,-4.58224 -4.22354,0.53244 -5.94797,4.79994 -5.18787,9.36044 0.76011,4.56054 6.22357,7.20294 10.519251,6.25227 4.29574,-0.95067 8.57419,-4.06058 8.57419,-11.94539 0,-7.88488 -6.82885,-12.62441 -14.971621,-11.84331 -8.14278,0.7811 -13.19745,7.90005 -12.8739,16.45361 0.32354,8.55356 8.43986,13.2121 15.30305,13.45218 6.863181,0.24014 11.070612,-3.73276 11.070612,-3.73276 0,0 0.946214,-0.84379 0.575219,-1.50269 -0.370941,-0.6589 -1.3011,0.16174 -1.3011,0.16174 z"
       fill="#ffffff"
       id="path2693"
       style="fill:#64eec7;fill-opacity:1;stroke-width:0.0586002"
       inkscape:label="air"
       inkscape:export-filename=".\air.svg"
       inkscape:export-xdpi="84.575256"
       inkscape:export-ydpi="84.575256" /><path
       fill-rule="evenodd"
       clip-rule="evenodd"
       d="m -56.961968,90.387018 c 0,5.354652 -4.357169,9.695472 -9.732035,9.695472 -5.37487,0 -9.732037,-4.34082 -9.732037,-9.695472 0,-5.207812 9.205606,-19.510661 9.710473,-20.291172 0.01154,-0.01781 0.03164,-0.01781 0.04313,0 0.504864,0.780511 9.710471,15.08336 9.710471,20.291172 z m -11.354335,6.587166 c -4.938502,-1.080576 -4.093424,-6.55113 -4.093424,-6.55113 0,0 1.348536,3.302377 4.621083,4.372111 3.272491,1.069673 7.227277,-0.499182 7.227277,-0.499182 0,0 -2.816436,3.758723 -7.754936,2.678201 z"
       fill="#ffffff"
       id="path2704"
       style="fill:#2b60ff;fill-opacity:1;stroke-width:0.0585963"
       inkscape:label="water"
       inkscape:export-filename=".\water.svg"
       inkscape:export-xdpi="84.575256"
       inkscape:export-ydpi="84.575256" /><path
       fill-rule="evenodd"
       clip-rule="evenodd"
       d="m -97.894123,91.204612 c 1.290781,-3.683711 -0.886867,-6.311462 -0.886867,-6.311462 0,0 -0.61999,3.668336 -1.12051,4.706054 -0.50052,1.037712 -1.28768,2.03571 -2.85251,2.48016 0.89464,-0.818436 1.07406,-2.222682 1.08357,-3.504966 0.01,-1.282282 -1.342,-2.957306 -3.01251,-2.957306 -1.6705,0 -3.08987,0.752466 -3.51797,2.202346 -0.4281,1.44988 -0.1482,1.957942 0.223,2.853124 -1.26371,-0.67062 -2.16557,-2.575998 -2.16557,-2.575998 0,0 -2.86512,6.37626 2.2365,8.845068 5.10161,2.468814 10.185203,0.48153 10.185203,0.48153 0,0 -9.012253,6.341198 -15.690413,-0.560388 -5.75269,-5.94528 -1.50146,-13.772293 -1.50146,-13.772293 0,0 -0.10786,2.390843 0.31432,3.47409 0.42218,1.083249 1.52282,2.797981 1.52282,2.797981 0,0 0.41612,-4.613668 1.46934,-6.537647 1.05323,-1.923978 1.82299,-2.483704 3.3118,-3.805276 1.48882,-1.321571 4.55578,-5.099901 2.37586,-8.93714 0,0 2.72636,2.403516 3.4875,5.507685 0.29015,1.183255 0.10347,2.529564 -0.0634,3.733489 -0.27094,1.954456 -0.4899,3.533732 1.46742,3.431251 3.163009,-0.165643 0.41443,-5.04217 0.41443,-5.04217 0,0 7.174929,3.771097 6.638913,10.366528 -0.536074,6.595428 -7.842543,8.094846 -7.842543,8.094846 0,0 2.632296,-1.2858 3.923077,-4.969506 z"
       fill="#ffffff"
       id="path2308"
       style="fill:#ff1c1c;fill-opacity:1;stroke-width:0.0585937"
       inkscape:label="fire"
       inkscape:export-filename=".\fire.svg"
       inkscape:export-xdpi="84.575256"
       inkscape:export-ydpi="84.575256"
       sodipodi:nodetypes="zczczszcczccczczzcccccccz" /></g></svg>
