<?xml version="1.0" encoding="UTF-8" standalone="no"?>
<!-- Created with Inkscape (http://www.inkscape.org/) -->

<svg
   width="60.778816mm"
   height="290mm"
   viewBox="0 0 60.778816 290"
   version="1.1"
   id="svg5"
   xml:space="preserve"
   inkscape:version="1.2.2 (732a01da63, 2022-12-09)"
   sodipodi:docname="elements.svg"
   xmlns:inkscape="http://www.inkscape.org/namespaces/inkscape"
   xmlns:sodipodi="http://sodipodi.sourceforge.net/DTD/sodipodi-0.dtd"
   xmlns="http://www.w3.org/2000/svg"
   xmlns:svg="http://www.w3.org/2000/svg"><sodipodi:namedview
     id="namedview7"
     pagecolor="#505050"
     bordercolor="#eeeeee"
     borderopacity="1"
     inkscape:showpageshadow="0"
     inkscape:pageopacity="0"
     inkscape:pagecheckerboard="0"
     inkscape:deskcolor="#505050"
     inkscape:document-units="mm"
     showgrid="false"
     inkscape:zoom="4"
     inkscape:cx="134.625"
     inkscape:cy="106.125"
     inkscape:window-width="1827"
     inkscape:window-height="1057"
     inkscape:window-x="-9"
     inkscape:window-y="-9"
     inkscape:window-maximized="1"
     inkscape:current-layer="layer1" /><defs
     id="defs2" /><g
     inkscape:label="Layer 1"
     inkscape:groupmode="layer"
     id="layer1"><path
       style="fill:#e06f1f;fill-opacity:1;stroke:#000000;stroke-width:2;stroke-linecap:round;stroke-dasharray:none;stroke-opacity:1"
       d="M 11.799468,86.379996 1.5732861,108.98097 58.91941,108.9994 40.006054,79.694406 26.30153,92.360703 36.395917,73.762678 28.764269,62.005912 16.44772,86.475757 Z"
       id="path403"
       sodipodi:nodetypes="ccccccccc"
       inkscape:label="earth"
       inkscape:export-filename="earth.svg"
       inkscape:export-xdpi="96"
       inkscape:export-ydpi="96" /><path
       style="fill:#0080ff;fill-opacity:1;stroke:#000000;stroke-width:2;stroke-linecap:round;stroke-linejoin:round;stroke-dasharray:none;stroke-opacity:1;paint-order:fill markers stroke"
       d="m 30.041063,180.99976 c -0.09098,7.96948 -3.650286,15.80503 -9.625825,21.08315 -4.465334,4.99612 -6.857712,12.78258 -3.289328,18.92217 10.762981,16.52903 32.865051,4.93436 27.423408,-11.59912 -7.243855,16.1112 -21.064595,2.13265 -11.202733,-5.3447 2.923209,-1.93012 5.999744,-5.57329 3.901428,-9.18972 -2.002896,-4.81799 -4.934904,-9.18446 -7.20695,-13.87178 z"
       id="path1013"
       sodipodi:nodetypes="sscccss"
       inkscape:label="water"
       inkscape:export-filename="water.svg"
       inkscape:export-xdpi="96"
       inkscape:export-ydpi="96" /><path
       style="fill:#00ffa6;fill-opacity:1;stroke:#000000;stroke-width:2;stroke-linecap:round;stroke-linejoin:round;stroke-dasharray:none;stroke-opacity:1;paint-order:fill markers stroke"
       d="M 58.789777,43.163818 C 51.22984,28.621947 38.813342,29.747808 30.114762,33.534311 c -10.867483,4.730629 -17.268077,4.298876 -17.0025,-6.721863 3.322152,7.727078 12.37597,1.48151 8.481873,-5.331697 17.458579,12.04177 20.32324,-6.23198 33.129082,-2.332619 C 42.243065,1.1676774 38.683861,27.269335 24.764805,11.651777 32.945678,15.474538 35.011118,3.3190945 27.573971,1.4228791 18.295323,-0.94285536 15.308738,6.582636 16.398532,14.225082 -8.9008545,15.651849 0.04501188,64.416057 36.016952,44.024706 41.417151,40.963505 47.702244,38.271779 58.789777,43.163818 Z"
       id="path1172"
       sodipodi:nodetypes="csccccscsc"
       inkscape:label="air"
       inkscape:export-filename="air.svg"
       inkscape:export-xdpi="96"
       inkscape:export-ydpi="96" /><path
       style="fill:#ff0000;fill-opacity:1;stroke:#000000;stroke-width:2;stroke-linecap:round;stroke-linejoin:round;stroke-dasharray:none;stroke-opacity:1;paint-order:fill markers stroke"
       d="m 23.331151,155.91155 c 1.659749,1.01797 3.491876,4.15447 4.883061,4.10153 -1.895394,-4.41475 -1.102191,-12.35116 4.936403,-14.34832 -0.605383,11.00664 12.73633,11.20819 2.925388,23.33531 14.164638,-1.65714 14.468355,-19.06712 7.714442,-24.11636 -6.481951,-4.37148 -4.026432,-9.21903 -1.871236,-12.88251 -2.414935,-0.73253 -5.478364,2.44666 -6.653691,4.18179 0.311568,-6.12883 -0.793167,-13.4696 -7.980809,-15.183 5.384289,11.44417 -7.948511,13.18817 -5.427709,27.89321 -3.323522,-3.32039 -3.698983,-5.19583 -4.004663,-9.43217 -8.8072359,11.63731 -6.746845,28.53611 9.499073,29.47039 -5.406441,-2.93251 -6.133443,-8.11963 -4.020259,-13.01987 z"
       id="path2854"
       sodipodi:nodetypes="cccccccccccc"
       inkscape:label="fire"
       inkscape:export-filename="fire.svg"
       inkscape:export-xdpi="96"
       inkscape:export-ydpi="96" /><path
       style="fill:#c3f609;fill-opacity:1;stroke:#000000;stroke-width:2;stroke-dasharray:none;stroke-opacity:1"
       d="m 20.621541,262.75956 c -6.227523,-2.40155 -8.937903,-9.94748 -5.367694,-15.67261 2.891098,-5.30638 9.8951,-7.60951 15.556612,-4.42383 7.484182,4.21128 7.987912,15.63248 0.109216,19.79696 16.594622,3.46343 13.214541,-13.02106 5.770278,-21.31853 6.049198,-1.44913 12.830364,8.41291 13.935724,16.16998 1.804893,12.66617 -5.463711,30.79261 -24.181479,31.66267 -19.8463667,0.92253 -21.9472333,-22.50898 -5.822657,-26.21464 z"
       id="path7"
       sodipodi:nodetypes="ccsccssc"
       inkscape:label="human"
       inkscape:export-filename="human.svg"
       inkscape:export-xdpi="96"
       inkscape:export-ydpi="96" /></g></svg>
