<?xml version="1.0" encoding="UTF-8" standalone="no"?>
<!-- Created with Inkscape (http://www.inkscape.org/) -->

<svg
   width="310.46625mm"
   height="310.452mm"
   viewBox="0 0 310.46625 310.45199"
   version="1.1"
   id="svg5"
   xml:space="preserve"
   inkscape:version="1.2.2 (732a01da63, 2022-12-09)"
   sodipodi:docname="elements.svg"
   inkscape:export-filename="fire.svg"
   inkscape:export-xdpi="84.575256"
   inkscape:export-ydpi="84.575256"
   xmlns:inkscape="http://www.inkscape.org/namespaces/inkscape"
   xmlns:sodipodi="http://sodipodi.sourceforge.net/DTD/sodipodi-0.dtd"
   xmlns="http://www.w3.org/2000/svg"
   xmlns:svg="http://www.w3.org/2000/svg"><sodipodi:namedview
     id="namedview7"
     pagecolor="#505050"
     bordercolor="#eeeeee"
     borderopacity="1"
     inkscape:showpageshadow="0"
     inkscape:pageopacity="0"
     inkscape:pagecheckerboard="0"
     inkscape:deskcolor="#505050"
     inkscape:document-units="mm"
     showgrid="false"
     inkscape:zoom="0.38484849"
     inkscape:cx="111.73228"
     inkscape:cy="682.08661"
     inkscape:window-width="1827"
     inkscape:window-height="1057"
     inkscape:window-x="-9"
     inkscape:window-y="-9"
     inkscape:window-maximized="1"
     inkscape:current-layer="layer1" /><defs
     id="defs2"><inkscape:path-effect
       effect="spiro"
       id="path-effect1217"
       is_visible="true"
       lpeversion="1" /></defs><g
     inkscape:label="Layer 1"
     inkscape:groupmode="layer"
     id="layer1"
     transform="translate(116.42604,-70.082489)"><path
       fill-rule="evenodd"
       clip-rule="evenodd"
       d="m 88.409433,367.91317 c -0.03678,0 -0.06244,-0.0362 -0.05027,-0.0709 l 34.585007,-97.72438 c 0.008,-0.0212 0.0278,-0.0354 0.0503,-0.0354 h 36.92049 c 0.0225,0 0.0429,0.0143 0.0503,0.0357 l 34.07199,97.72441 c 0.0119,0.0347 -0.0138,0.0706 -0.0503,0.0706 H 89.448716 Z m -29.782213,0.38232 c -0.03715,0 -0.06286,-0.037 -0.04983,-0.0717 l 25.754446,-68.7578 c 0.0078,-0.0209 0.02765,-0.0347 0.04985,-0.0347 h 22.377664 c 0.037,0 0.0627,0.0368 0.05,0.0714 l -24.903826,68.7578 c -0.0076,0.0209 -0.02762,0.0349 -0.05003,0.0349 z"
       fill="#ffffff"
       id="path2682"
       style="fill:#da7844;fill-opacity:1;stroke-width:0.264583"
       inkscape:label="earth"
       inkscape:export-filename=".\earth.svg"
       inkscape:export-xdpi="84.575256"
       inkscape:export-ydpi="84.575256" /><path
       fill-rule="evenodd"
       clip-rule="evenodd"
       d="m -0.55839997,357.57909 c 0,0 -17.08150003,13.69986 -51.07304603,8.03063 -25.788937,-4.30133 -39.543566,-32.72975 -39.543566,-48.01049 0,-36.2294 26.814462,-44.47408 44.942918,-44.47408 18.128194,0 29.954274,17.67417 29.954274,31.35842 0,13.68425 -9.67846,25.65347 -24.740395,25.65347 -15.06167,0 -19.522545,-10.57408 -19.522545,-20.29566 0,-9.72132 7.865269,-13.14635 15.038387,-13.14635 7.173119,0 9.629246,6.12404 9.629246,11.3874 0,5.26362 -4.083844,7.14851 -7.49009,7.14851 -3.406245,0 -3.74306,-1.71847 -5.046662,-3.52451 -1.303867,-1.80579 1.662642,-8.64156 -3.221567,-8.64156 -4.884208,0 -5.794639,7.85839 -5.794639,7.85839 0,0 1.780646,15.16935 16.40787,14.90768 14.627485,-0.26194 21.566715,-11.57023 19.550065,-22.76607 -2.01666,-11.19611 -12.8823,-23.0931 -31.951879,-20.68909 -19.069579,2.404 -26.855473,21.67202 -23.423562,42.26295 3.43191,20.5912 28.099808,32.52179 47.495091,28.22945 19.39554,-4.29233 38.71304,-18.33377 38.71304,-53.93425 0,-35.60077 -30.83269,-57.00003 -67.597869,-53.47332 -36.765203,3.52671 -59.587341,35.66924 -58.126521,74.28915 1.46082,38.6199 38.106559,59.65349 69.094294,60.73748 C -16.27782,381.57151 2.719,363.63355 2.719,363.63355 c 0,0 4.27222,-3.80974 2.59715,-6.78471 -1.67482,-2.97498 -5.87454997,0.73025 -5.87454997,0.73025 z"
       fill="#ffffff"
       id="path2693"
       style="fill:#b0bfde;fill-opacity:1;stroke-width:0.264583"
       inkscape:label="air"
       inkscape:export-filename=".\air.svg"
       inkscape:export-xdpi="84.575256"
       inkscape:export-ydpi="84.575256" /><path
       fill-rule="evenodd"
       clip-rule="evenodd"
       d="m 171.46113,161.76461 c 0,24.17816 -19.67415,43.77849 -43.94358,43.77849 -24.26944,0 -43.943594,-19.60033 -43.943594,-43.77849 0,-23.51511 41.566574,-88.097541 43.846224,-91.621821 0.0521,-0.0804 0.14287,-0.0804 0.19473,0 2.27965,3.52428 43.84622,68.106711 43.84622,91.621821 z m -51.26884,29.7434 c -22.299084,-4.87918 -18.48326,-29.58068 -18.48326,-29.58068 0,0 6.08912,14.91139 20.86583,19.74162 14.77645,4.82997 32.63371,-2.25398 32.63371,-2.25398 0,0 -12.7172,16.97196 -35.01628,12.09304 z"
       fill="#ffffff"
       id="path2704"
       style="fill:#2980ef;fill-opacity:1;stroke-width:0.264583"
       inkscape:label="water"
       inkscape:export-filename=".\water.svg"
       inkscape:export-xdpi="84.575256"
       inkscape:export-ydpi="84.575256" /><path
       fill-rule="evenodd"
       clip-rule="evenodd"
       d="m -40.157743,174.69715 c 1.673754,-6.12008 -1.575065,-18.70181 -1.575065,-18.70181 0,0 -2.356379,10.2497 -6.038321,14.038 -3.141133,3.23136 -6.989497,5.47264 -12.508706,6.0616 4.512469,-2.1918 7.615767,-6.76195 7.615767,-12.04436 0,-7.41521 -6.11505,-13.42654 -13.658321,-13.42654 -7.543271,0 -13.658585,6.01133 -13.658585,13.42654 0,2.02512 0.456406,3.94573 1.273175,5.66764 -4.71805,-3.75867 -5.459942,-9.78482 -5.459942,-9.78482 0,0 -5.268383,21.8731 9.248246,32.16222 14.516364,10.28912 42.953516,1.44515 42.953516,1.44515 0,0 -40.695297,28.63401 -70.850921,-2.53047 -25.97657,-26.84621 -6.77992,-62.18952 -6.77992,-62.18952 0,0 -0.82904,3.27872 -0.82904,7.08475 0,3.80603 2.06356,6.7019 2.06356,6.7019 0,0 6.15553,-12.97491 10.946078,-18.25149 4.5339,-4.99375 10.217415,-9.04399 15.126494,-12.54231 3.778779,-2.69293 7.09877,-5.05883 9.081558,-7.27631 10.921206,-12.211654 4.224867,-34.454831 4.224867,-34.454831 0,0 12.311062,10.853208 15.747999,24.870251 1.310217,5.34305 0.467255,11.42238 -0.286279,16.85877 -1.223433,8.82545 -2.212181,15.95676 6.626225,15.494 14.282737,-0.74797 1.871398,-22.76819 1.871398,-22.76819 0,0 32.398758,17.02859 29.97835,46.81062 -2.420673,29.78202 -35.413421,36.55271 -35.413421,36.55271 0,0 8.627269,-7.08342 10.301288,-13.2035 z"
       fill="#ffffff"
       id="path2308"
       style="fill:#e62829;fill-opacity:1;stroke-width:0.264583"
       inkscape:label="fire"
       inkscape:export-filename=".\fire.svg"
       inkscape:export-xdpi="84.575256"
       inkscape:export-ydpi="84.575256" /></g></svg>
