<?xml version="1.0" encoding="UTF-8" standalone="no"?>
<!-- Created with Inkscape (http://www.inkscape.org/) -->

<svg
   width="22.479984mm"
   height="30.000002mm"
   viewBox="0 0 22.479984 30.000001"
   version="1.1"
   id="svg5"
   xml:space="preserve"
   inkscape:version="1.2.2 (732a01da63, 2022-12-09)"
   sodipodi:docname="elements.svg"
   inkscape:export-filename="fire.svg"
   inkscape:export-xdpi="84.575256"
   inkscape:export-ydpi="84.575256"
   xmlns:inkscape="http://www.inkscape.org/namespaces/inkscape"
   xmlns:sodipodi="http://sodipodi.sourceforge.net/DTD/sodipodi-0.dtd"
   xmlns="http://www.w3.org/2000/svg"
   xmlns:svg="http://www.w3.org/2000/svg"><sodipodi:namedview
     id="namedview7"
     pagecolor="#505050"
     bordercolor="#eeeeee"
     borderopacity="1"
     inkscape:showpageshadow="0"
     inkscape:pageopacity="0"
     inkscape:pagecheckerboard="0"
     inkscape:deskcolor="#505050"
     inkscape:document-units="mm"
     showgrid="false"
     inkscape:zoom="2.1770318"
     inkscape:cx="144.00341"
     inkscape:cy="143.08472"
     inkscape:window-width="1827"
     inkscape:window-height="1057"
     inkscape:window-x="-9"
     inkscape:window-y="-9"
     inkscape:window-maximized="1"
     inkscape:current-layer="layer1" /><defs
     id="defs2" /><g
     inkscape:label="Layer 1"
     inkscape:groupmode="layer"
     id="layer1"
     transform="translate(116.42604,-70.082489)"><path
       fill-rule="evenodd"
       clip-rule="evenodd"
       d="m -97.894123,91.204612 c 1.290781,-3.683711 -0.886867,-6.311462 -0.886867,-6.311462 0,0 -0.61999,3.668336 -1.12051,4.706054 -0.50052,1.037712 -1.28768,2.03571 -2.85251,2.48016 0.89464,-0.818436 1.07406,-2.222682 1.08357,-3.504966 0.01,-1.282282 -1.342,-2.957306 -3.01251,-2.957306 -1.6705,0 -3.08987,0.752466 -3.51797,2.202346 -0.4281,1.44988 -0.1482,1.957942 0.223,2.853124 -1.26371,-0.67062 -2.16557,-2.575998 -2.16557,-2.575998 0,0 -2.86512,6.37626 2.2365,8.845068 5.10161,2.468814 10.185203,0.48153 10.185203,0.48153 0,0 -9.012253,6.341198 -15.690413,-0.560388 -5.75269,-5.94528 -1.50146,-13.772293 -1.50146,-13.772293 0,0 -0.10786,2.390843 0.31432,3.47409 0.42218,1.083249 1.52282,2.797981 1.52282,2.797981 0,0 0.41612,-4.613668 1.46934,-6.537647 1.05323,-1.923978 1.82299,-2.483704 3.3118,-3.805276 1.48882,-1.321571 4.55578,-5.099901 2.37586,-8.93714 0,0 2.72636,2.403516 3.4875,5.507685 0.29015,1.183255 0.10347,2.529564 -0.0634,3.733489 -0.27094,1.954456 -0.4899,3.533732 1.46742,3.431251 3.163009,-0.165643 0.41443,-5.04217 0.41443,-5.04217 0,0 7.174929,3.771097 6.638913,10.366528 -0.536074,6.595428 -7.842543,8.094846 -7.842543,8.094846 0,0 2.632296,-1.2858 3.923077,-4.969506 z"
       fill="#ffffff"
       id="path2308"
       style="fill:#ff1c1c;fill-opacity:1;stroke-width:0.0585937"
       inkscape:label="fire"
       inkscape:export-filename=".\fire.svg"
       inkscape:export-xdpi="84.575256"
       inkscape:export-ydpi="84.575256"
       sodipodi:nodetypes="zczczszcczccczczzcccccccz" /></g></svg>
