<?xml version="1.0" encoding="UTF-8" standalone="no"?>
<!-- Created with Inkscape (http://www.inkscape.org/) -->

<svg
   width="101.5096mm"
   height="135.46661mm"
   viewBox="0 0 101.5096 135.46661"
   version="1.1"
   id="svg5"
   xml:space="preserve"
   inkscape:version="1.2.2 (732a01da63, 2022-12-09)"
   sodipodi:docname="elements.svg"
   inkscape:export-filename="fire.svg"
   inkscape:export-xdpi="84.575256"
   inkscape:export-ydpi="84.575256"
   xmlns:inkscape="http://www.inkscape.org/namespaces/inkscape"
   xmlns:sodipodi="http://sodipodi.sourceforge.net/DTD/sodipodi-0.dtd"
   xmlns="http://www.w3.org/2000/svg"
   xmlns:svg="http://www.w3.org/2000/svg"><sodipodi:namedview
     id="namedview7"
     pagecolor="#505050"
     bordercolor="#eeeeee"
     borderopacity="1"
     inkscape:showpageshadow="0"
     inkscape:pageopacity="0"
     inkscape:pagecheckerboard="0"
     inkscape:deskcolor="#505050"
     inkscape:document-units="mm"
     showgrid="false"
     inkscape:zoom="0.38484849"
     inkscape:cx="111.73228"
     inkscape:cy="682.08661"
     inkscape:window-width="1827"
     inkscape:window-height="1057"
     inkscape:window-x="-9"
     inkscape:window-y="-9"
     inkscape:window-maximized="1"
     inkscape:current-layer="layer1" /><defs
     id="defs2" /><g
     inkscape:label="Layer 1"
     inkscape:groupmode="layer"
     id="layer1"
     transform="translate(116.42604,-70.082489)"><path
       fill-rule="evenodd"
       clip-rule="evenodd"
       d="m -40.157743,174.69715 c 1.673754,-6.12008 -1.575065,-18.70181 -1.575065,-18.70181 0,0 -2.356379,10.2497 -6.038321,14.038 -3.141133,3.23136 -6.989497,5.47264 -12.508706,6.0616 4.512469,-2.1918 7.615767,-6.76195 7.615767,-12.04436 0,-7.41521 -6.11505,-13.42654 -13.658321,-13.42654 -7.543271,0 -13.658585,6.01133 -13.658585,13.42654 0,2.02512 0.456406,3.94573 1.273175,5.66764 -4.71805,-3.75867 -5.459942,-9.78482 -5.459942,-9.78482 0,0 -5.268383,21.8731 9.248246,32.16222 14.516364,10.28912 42.953516,1.44515 42.953516,1.44515 0,0 -40.695297,28.63401 -70.850921,-2.53047 -25.97657,-26.84621 -6.77992,-62.18952 -6.77992,-62.18952 0,0 -0.82904,3.27872 -0.82904,7.08475 0,3.80603 2.06356,6.7019 2.06356,6.7019 0,0 6.15553,-12.97491 10.946078,-18.25149 4.5339,-4.99375 10.217415,-9.04399 15.126494,-12.54231 3.778779,-2.69293 7.09877,-5.05883 9.081558,-7.27631 10.921206,-12.211654 4.224867,-34.454831 4.224867,-34.454831 0,0 12.311062,10.853208 15.747999,24.870251 1.310217,5.34305 0.467255,11.42238 -0.286279,16.85877 -1.223433,8.82545 -2.212181,15.95676 6.626225,15.494 14.282737,-0.74797 1.871398,-22.76819 1.871398,-22.76819 0,0 32.398758,17.02859 29.97835,46.81062 -2.420673,29.78202 -35.413421,36.55271 -35.413421,36.55271 0,0 8.627269,-7.08342 10.301288,-13.2035 z"
       fill="#ffffff"
       id="path2308"
       style="fill:#e62829;fill-opacity:1;stroke-width:0.264583"
       inkscape:label="fire" /></g></svg>
