<?xml version="1.0" encoding="UTF-8" standalone="no"?>
<!-- Created with Inkscape (http://www.inkscape.org/) -->

<svg
   width="19.464073mm"
   height="30mm"
   viewBox="0 0 19.464073 30"
   version="1.1"
   id="svg5"
   xml:space="preserve"
   inkscape:version="1.2.2 (732a01da63, 2022-12-09)"
   sodipodi:docname="elements.svg"
   inkscape:export-filename="fire.svg"
   inkscape:export-xdpi="84.575256"
   inkscape:export-ydpi="84.575256"
   xmlns:inkscape="http://www.inkscape.org/namespaces/inkscape"
   xmlns:sodipodi="http://sodipodi.sourceforge.net/DTD/sodipodi-0.dtd"
   xmlns="http://www.w3.org/2000/svg"
   xmlns:svg="http://www.w3.org/2000/svg"><sodipodi:namedview
     id="namedview7"
     pagecolor="#505050"
     bordercolor="#eeeeee"
     borderopacity="1"
     inkscape:showpageshadow="0"
     inkscape:pageopacity="0"
     inkscape:pagecheckerboard="0"
     inkscape:deskcolor="#505050"
     inkscape:document-units="mm"
     showgrid="false"
     inkscape:zoom="2.1770318"
     inkscape:cx="144.00341"
     inkscape:cy="143.08472"
     inkscape:window-width="1827"
     inkscape:window-height="1057"
     inkscape:window-x="-9"
     inkscape:window-y="-9"
     inkscape:window-maximized="1"
     inkscape:current-layer="layer1" /><defs
     id="defs2" /><g
     inkscape:label="Layer 1"
     inkscape:groupmode="layer"
     id="layer1"
     transform="translate(76.42604,-70.082489)"><path
       fill-rule="evenodd"
       clip-rule="evenodd"
       d="m -56.961968,90.387018 c 0,5.354652 -4.357169,9.695472 -9.732035,9.695472 -5.37487,0 -9.732037,-4.34082 -9.732037,-9.695472 0,-5.207812 9.205606,-19.510661 9.710473,-20.291172 0.01154,-0.01781 0.03164,-0.01781 0.04313,0 0.504864,0.780511 9.710471,15.08336 9.710471,20.291172 z m -11.354335,6.587166 c -4.938502,-1.080576 -4.093424,-6.55113 -4.093424,-6.55113 0,0 1.348536,3.302377 4.621083,4.372111 3.272491,1.069673 7.227277,-0.499182 7.227277,-0.499182 0,0 -2.816436,3.758723 -7.754936,2.678201 z"
       fill="#ffffff"
       id="path2704"
       style="fill:#2b60ff;fill-opacity:1;stroke-width:0.0585963"
       inkscape:label="water"
       inkscape:export-filename=".\water.svg"
       inkscape:export-xdpi="84.575256"
       inkscape:export-ydpi="84.575256" /></g></svg>
