<?xml version="1.0" encoding="UTF-8" standalone="no"?>
<!-- Created with Inkscape (http://www.inkscape.org/) -->

<svg
   width="230.78101"
   height="265.33771"
   viewBox="0 0 230.78101 265.33771"
   version="1.1"
   id="svg1"
   xml:space="preserve"
   inkscape:version="1.3 (0e150ed6c4, 2023-07-21)"
   sodipodi:docname="firefighter.svg"
   xmlns:inkscape="http://www.inkscape.org/namespaces/inkscape"
   xmlns:sodipodi="http://sodipodi.sourceforge.net/DTD/sodipodi-0.dtd"
   xmlns="http://www.w3.org/2000/svg"
   xmlns:svg="http://www.w3.org/2000/svg"><sodipodi:namedview
     id="namedview1"
     pagecolor="#505050"
     bordercolor="#eeeeee"
     borderopacity="1"
     inkscape:showpageshadow="0"
     inkscape:pageopacity="0"
     inkscape:pagecheckerboard="0"
     inkscape:deskcolor="#d1d1d1"
     inkscape:document-units="px"
     inkscape:zoom="0.15228577"
     inkscape:cx="1644.9337"
     inkscape:cy="1329.7369"
     inkscape:window-width="1366"
     inkscape:window-height="745"
     inkscape:window-x="-8"
     inkscape:window-y="-8"
     inkscape:window-maximized="1"
     inkscape:current-layer="layer1"
     showgrid="false" /><defs
     id="defs1" /><g
     inkscape:label="Layer 1"
     inkscape:groupmode="layer"
     id="layer1"
     transform="translate(-363.41132,-104.3286)"><g
       id="g51"
       inkscape:label="firefighter-doingst "
       transform="matrix(3.7795276,0,0,3.7795276,836.55122,678.10297)"
       style="display:inline"
       inkscape:highlight-color="#999999"><g
         id="g40"
         transform="translate(50.598352,-0.2277988)"
         inkscape:label="body"
         style="display:inline"><path
           style="display:inline;fill:#ffffff;fill-opacity:1;stroke:#ffffff;stroke-width:1.35685;stroke-dasharray:none;stroke-opacity:1;paint-order:fill markers stroke"
           d="m 608.77166,320.71975 c -23.59115,-4.27879 -42.49005,-21.13816 -47.78241,-42.62585 -0.58315,-2.36767 -1.05301,-7.84957 -1.04413,-12.18199 0.0559,-27.24723 22.18228,-49.95148 52.33129,-53.69794 13.73801,-1.70715 29.68705,1.9845 41.32117,9.56443 11.42776,7.44548 20.72036,20.03141 23.92723,32.40711 1.71563,6.62087 1.73491,18.17034 0.0414,24.80372 -4.78849,18.75622 -19.7211,33.5084 -40.44706,39.95835 -6.8174,2.12158 -21.39602,3.03298 -28.3475,1.77217 z"
           id="path33"
           transform="matrix(0.26458333,0,0,0.26458333,-306.65989,-190.14869)" /><path
           style="display:inline;fill:#f70a0a;fill-opacity:1;stroke:#000000;stroke-width:1.28882;stroke-dasharray:none;stroke-opacity:1;paint-order:fill markers stroke"
           d="m 455.55353,391.40099 c 0.50526,-3.68323 2.05553,-10.84453 2.5583,-15.91399 0.87019,-8.77406 2.36168,-17.22447 8.22249,-39.26625 l 3.83566,-14.42543 c 0,0 10.85813,4.51734 21.79397,2.83084 l 9.42394,-1.45333 c 0,0 1.15035,17.15768 2.75086,29.23656 1.60052,12.07887 6.74244,45.19609 6.74488,45.5852 -3.11126,1.23874 -11.40722,2.37817 -14.90327,1.75654 -6.02071,-1.6755 0.1419,-13.6242 -1.5886,-14.55034 -1.57841,-0.84473 -4.98509,-1.01069 -12.3244,0.0325 -5.80759,0.9559 -11.51814,-1.16354 -10.71511,4.98625 0.7803,7.18189 1.78595,9.72366 -0.0245,10.21724 -0.89492,0.24398 -8.10579,2.63235 -10.08626,2.17556 l -5.70218,-1.31519 c 0.8062,-6.00255 -0.70293,-4.668 0.0143,-9.89617 z"
           id="path34"
           transform="matrix(0.26458333,0,0,0.26458333,-272.0281,-189.98761)"
           sodipodi:nodetypes="ssscscccsssssscss" /><path
           style="display:inline;fill:none;fill-opacity:1;stroke:#000000;stroke-width:1.5;stroke-linecap:round;stroke-linejoin:round;stroke-miterlimit:1001;stroke-dasharray:none;stroke-opacity:1;paint-order:stroke fill markers"
           d="m -148.03164,-104.78796 c 0,0 -1.3885,6.271002 -2.15052,9.895984 -0.35033,1.666547 -0.7592,3.734716 -0.99953,5.623299 -0.25259,1.984829 -0.8208,5.560877 -0.46319,5.98461 0.35761,0.423733 3.59111,-0.02535 4.18398,-0.500433 0.59287,-0.475088 -0.40107,-3.055873 -0.0191,-3.53863 0.382,-0.482757 6.00307,-1.170713 6.29817,-0.848501 0.2951,0.322212 -0.0275,3.62726 0.16278,4.114573 0.50176,0.401375 4.08807,-0.338983 4.08807,-0.338983 0,0 -1.5286,-9.764104 -2.00605,-14.679673 -0.17444,-1.795926 -0.31293,-5.404086 -0.31293,-5.404086"
           id="path35"
           sodipodi:nodetypes="csazzzzccac"
           inkscape:label="body" /><g
           id="g39"
           transform="translate(21.500492,0.10858813)"
           style="display:inline"><path
             style="display:inline;fill:#f70a0a;fill-opacity:1;stroke:#000000;stroke-width:0;stroke-linecap:round;stroke-linejoin:miter;stroke-dasharray:none;stroke-opacity:0;paint-order:stroke markers fill"
             d="m -170.75715,-91.239873 c -0.96656,-0.170799 -1.77989,-0.333067 -1.80741,-0.360591 -0.0276,-0.02752 0.19332,-1.348652 0.49076,-2.935843 0.41621,-2.221009 0.74536,-3.658289 1.42879,-6.239083 l 0.888,-3.35329 0.296,0.0392 c 0.16282,0.0215 1.72727,0.13761 3.47655,0.25794 l 3.18054,0.21878 1.63996,-0.18853 c 1.27637,-0.14672 1.65382,-0.16611 1.70245,-0.0875 0.0344,0.0556 0.0817,1.39002 0.10497,2.96533 0.0419,2.82096 0.0485,2.910646 0.44017,5.93987 0.21873,1.691616 0.37157,3.10179 0.33963,3.133723 -0.12275,0.122762 -3.21282,0.452781 -6.45552,0.689452 -1.8617,0.135879 -3.51599,0.243444 -3.67621,0.239041 -0.16022,-0.0044 -1.08212,-0.147756 -2.04868,-0.318558 z"
             id="path36" /><path
             style="display:inline;fill:#1a1a1a;stroke:#eaea02;stroke-width:1.5;stroke-linecap:round;stroke-linejoin:round;stroke-dasharray:none;stroke-opacity:1;paint-order:fill markers stroke"
             d="m -171.96196,-92.462552 c 0,0 3.06148,0.561982 4.60973,0.628498 1.43775,0.06177 2.88019,-0.06477 4.31202,-0.214476 1.34341,-0.140459 4.00379,-0.640378 4.00379,-0.640378"
             id="path37"
             sodipodi:nodetypes="caac" /><path
             style="display:inline;fill:#ffff00;fill-opacity:0;stroke:#eaea02;stroke-width:1.5;stroke-linecap:round;stroke-linejoin:miter;stroke-dasharray:none;stroke-opacity:1;paint-order:stroke markers fill"
             d="m -159.86486,-99.909085 c 0,0 -3.41722,0.424574 -5.13456,0.402343 -1.75025,-0.02266 -5.21888,-0.545348 -5.21888,-0.545348"
             id="path38"
             sodipodi:nodetypes="cac" /><path
             style="fill:#f70a0a;fill-opacity:0;stroke:#000000;stroke-width:1.5;stroke-linecap:round;stroke-linejoin:miter;stroke-dasharray:none;stroke-opacity:1;paint-order:stroke markers fill"
             d="m -170.1568,-104.38074 c 0,0 -1.28696,4.509574 -1.80442,6.795345 -0.47438,2.095467 -1.19014,6.334644 -1.19014,6.334644 0,0 3.00042,0.693573 4.53023,0.767834 2.16563,0.105125 4.3849,-0.05674 6.5425,-0.27067 1.30946,-0.129834 3.86167,-0.689125 3.86167,-0.689125 0,0 -0.68355,-4.364512 -0.84462,-6.564992 -0.15417,-2.106266 -0.11518,-6.334646 -0.11518,-6.334646 0,0 -3.06497,0.3751 -4.36621,0.40641 -2.37264,0.0571 -6.61383,-0.4448 -6.61383,-0.4448 z"
             id="path39"
             sodipodi:nodetypes="cscsscscsc" /></g><ellipse
           style="display:inline;fill:none;fill-opacity:1;stroke:#000000;stroke-width:1.5;stroke-linecap:round;stroke-linejoin:round;stroke-miterlimit:1001;stroke-dasharray:none;stroke-opacity:1;paint-order:stroke fill markers"
           id="ellipse39"
           ry="15.393556"
           rx="16.682619"
           cy="-119.60479"
           cx="-142.77336"
           inkscape:label="head" /></g><g
         id="g41"
         inkscape:label="eyes"
         transform="translate(-34.322565,-0.0667206)"
         style="display:inline"><ellipse
           style="fill:#000000;fill-opacity:1;stroke:none;stroke-width:0.593632;stroke-linecap:round;stroke-linejoin:round;stroke-miterlimit:1001;stroke-dasharray:none;stroke-opacity:1;paint-order:stroke fill markers"
           id="ellipse40"
           cx="-86.904243"
           cy="-98.34063"
           rx="2.1079104"
           ry="2.7033648"
           transform="matrix(0.96864121,0.2484637,-0.20869257,0.97798129,0,0)"
           inkscape:label="right" /><ellipse
           style="fill:#000000;fill-opacity:1;stroke:none;stroke-width:0.509367;stroke-linecap:round;stroke-linejoin:round;stroke-miterlimit:1001;stroke-dasharray:none;stroke-opacity:1;paint-order:stroke fill markers"
           id="ellipse41"
           cx="-36.557335"
           cy="-122.18265"
           rx="1.7384969"
           ry="2.4132938"
           transform="matrix(0.99463321,-0.10346393,0.09707266,0.9952773,0,0)"
           inkscape:label="left" /></g><g
         id="g50"
         transform="matrix(0.91473052,-0.18012182,0.18012182,0.91473052,100.78419,-224.60478)"
         inkscape:label="fire helmet"
         inkscape:highlight-color="#ee3b3b"
         style="display:inline;stroke-width:1.60893;stroke-dasharray:none"><path
           style="display:inline;fill:#f70a0a;fill-opacity:1;stroke:none;stroke-width:6.081;stroke-linecap:round;stroke-linejoin:round;stroke-dasharray:none;stroke-opacity:1"
           d="m 1532.4772,868.6423 c -13.8472,-0.70213 -34.0904,-2.99822 -35.07,-3.97782 -0.2807,-0.28075 2.0959,-7.94808 4.6674,-15.05751 11.6908,-32.3214 25.9618,-53.444 41.0092,-60.69809 6.3253,-3.04934 11.2602,-3.525 18.3737,-1.77098 18.7865,4.63235 31.2686,17.58382 36.0779,37.43451 1.337,5.51861 1.4674,5.2174 -2.2592,5.2174 -2.3675,0 -3.2475,0.13114 -3.5816,0.53371 -1.1177,1.34668 0.8998,6.51343 3.8051,9.74484 l 1.6664,1.85337 -4.002,-0.25323 c -3.3525,-0.21214 -4.1405,-0.16245 -4.8556,0.30615 -1.6744,1.0971 -0.7733,3.16153 2.794,6.40094 7.0914,6.43966 17.2177,10.71539 29.5324,12.46985 3.4112,0.48599 4.4433,0.76087 4.7212,1.25747 0.1956,0.34953 0.2199,0.76204 0.054,0.91668 -0.358,0.33349 -5.7275,1.5377 -10.2013,2.28784 -8.1677,1.36948 -22.8379,2.70699 -36.9464,3.36847 -8.7562,0.41054 -37.4411,0.38949 -45.7851,-0.0336 z"
           id="path41"
           transform="matrix(0.26458333,0,0,0.26458333,-635.84798,-168.84141)" /><path
           style="display:inline;fill:#f70a0a;fill-opacity:1;stroke:none;stroke-width:6.081;stroke-linecap:round;stroke-linejoin:round;stroke-dasharray:none;stroke-opacity:1"
           d="m 1543.0838,881.05051 c -42.1012,-1.35759 -70.1867,-4.87057 -79.8324,-9.98559 -1.1279,-0.59809 -2.3401,-1.49855 -2.6939,-2.00101 -1.3086,-1.8586 -2.1498,-3.92922 -2.1498,-5.29176 0,-4.11499 6.7952,-7.04576 18.5183,-7.98699 2.2593,-0.18139 2.7504,-0.13344 2.6018,0.25402 -0.7532,1.96262 -1.6759,6.07 -1.4931,6.64597 0.7793,2.45541 16.4102,6.47956 32.1686,8.28179 30.5831,3.49766 76.7899,2.86362 104.4453,-1.43318 6.5037,-1.01048 13.4674,-2.66314 14.7429,-3.49886 1.163,-0.76202 1.0882,-1.94561 -0.379,-5.99874 -1.4433,-3.98722 -1.9682,-3.70948 5.0011,-2.64629 5.1599,0.78715 9.8845,2.02243 12.245,3.2015 1.8502,0.92421 4.6868,3.62543 5.5419,5.27733 2.5316,4.89093 -0.5254,10.03303 -6.8253,11.48057 -5.7425,1.3195 -18.566,2.52174 -35.9537,3.37078 -9.9709,0.48688 -54.211,0.7086 -65.9377,0.33046 z"
           id="path42"
           transform="matrix(0.26458333,0,0,0.26458333,-635.84798,-168.84141)" /><path
           style="display:inline;fill:#610404;fill-opacity:1;stroke:none;stroke-width:6.081;stroke-linecap:round;stroke-linejoin:round;stroke-dasharray:none;stroke-opacity:1"
           d="m 1491.6418,863.66187 c -0.6806,-0.1722 -3.0358,-0.8708 -5.2336,-1.55242 -3.3055,-1.02512 -3.9647,-1.34346 -3.814,-1.84185 0.1003,-0.33139 1.1404,-3.71855 2.3115,-7.52702 14.3958,-46.81673 32.0719,-68.6456 59.6765,-73.69687 4.2978,-0.78643 13.39,-1.0755 17.0983,-0.5436 15.2534,2.18783 29.1774,14.07516 42.1397,35.97584 2.5594,4.32425 8.3833,15.35367 8.3833,15.87644 0,0.34624 -4.6161,0.25341 -7.5909,-0.15265 -1.7538,-0.2394 -1.7578,-0.24298 -2.0435,-1.8275 -3.5236,-19.5426 -13.4878,-33.83126 -28.7262,-41.19332 -6.513,-3.1466 -14.5886,-5.25402 -19.9757,-5.21286 -16.9123,0.12922 -33.9513,16.84531 -47.8809,46.97338 -3.6884,7.97773 -6.8206,16.0428 -9.9486,25.61682 -1.4898,4.55993 -2.8099,8.54457 -2.9336,8.85475 -0.1817,0.45555 -0.4628,0.50378 -1.4623,0.25086 z"
           id="path43"
           transform="matrix(0.26458333,0,0,0.26458333,-635.84798,-168.84141)" /><path
           style="fill:#fff100;fill-opacity:1;stroke:none;stroke-width:6.081;stroke-linecap:round;stroke-linejoin:round;stroke-dasharray:none;stroke-opacity:1"
           d="m 1620.6887,856.77735 c -9.0463,-1.43051 -17.5225,-4.64226 -23.6289,-8.95327 -1.4258,-1.00664 -2.5395,-1.86389 -2.4748,-1.905 0.065,-0.0411 3.2925,0.0685 7.173,0.24365 7.0402,0.3177 7.0567,0.3167 7.6898,-0.46504 1.3523,-1.67011 0.4774,-2.89118 -2.6566,-3.70749 -1.0927,-0.28461 -2.7215,-0.86286 -3.6196,-1.285 -1.9499,-0.91656 -5.1182,-3.73039 -6.1286,-5.44304 l -0.7256,-1.22971 1.6675,0.0209 c 2.9526,0.037 16.3169,0.89801 16.4517,1.05993 0.072,0.0861 1.0189,2.2249 2.1046,4.75281 1.7008,3.95988 3.1471,7.51071 6.3002,15.46796 l 0.6655,1.67938 -0.9672,-0.0481 c -0.5319,-0.0265 -1.3648,-0.11104 -1.851,-0.18792 z"
           id="path44"
           transform="matrix(0.26458333,0,0,0.26458333,-635.84798,-168.84141)" /><path
           style="display:inline;fill:none;stroke:#000000;stroke-width:1.60893;stroke-linecap:round;stroke-linejoin:round;stroke-dasharray:none;stroke-opacity:1"
           d="m -244.26465,59.22942 c 7.77213,3.538802 33.19581,2.755427 39.15833,0.661459"
           id="path45"
           sodipodi:nodetypes="cc"
           transform="translate(1.2048518e-5)" /><path
           style="display:inline;fill:none;stroke:#000000;stroke-width:1.60893;stroke-linecap:round;stroke-linejoin:round;stroke-dasharray:none;stroke-opacity:1"
           d="m -224.45397,38.558848 c -10.36122,0.08495 -15.97422,21.861197 -15.97422,21.861197"
           id="path46"
           sodipodi:nodetypes="cc"
           transform="translate(1.2048518e-5)" /><path
           style="display:inline;fill:none;stroke:#000000;stroke-width:1.60893;stroke-linecap:round;stroke-linejoin:round;stroke-dasharray:none;stroke-opacity:1"
           d="m -243.76461,57.049396 c -0.50481,-0.126203 -9.33901,0 -6.05774,4.4171 3.28128,4.417099 47.30807,3.999189 50.35494,2.019245 1.98937,-1.292746 1.89593,-3.280237 0.11014,-4.71231 -1.35812,-1.089111 -4.35772,-1.34278 -6.45931,-1.636025"
           id="path47"
           sodipodi:nodetypes="csssc"
           transform="translate(1.2048518e-5)" /><path
           style="display:inline;fill:none;stroke:#000000;stroke-width:1.60893;stroke-linecap:round;stroke-linejoin:round;stroke-dasharray:none;stroke-opacity:1"
           d="m -224.48149,38.566322 c 5.03356,0.517818 10.89264,3.628284 12.20225,12.421452"
           id="path48"
           sodipodi:nodetypes="cc"
           transform="translate(1.2048518e-5)" /><path
           style="display:inline;fill:none;stroke:#000000;stroke-width:1.60893;stroke-linecap:round;stroke-linejoin:round;stroke-dasharray:none;stroke-opacity:1"
           d="m -244.26942,59.194844 c 4.03849,-14.134719 9.06869,-22.716512 20.19245,-22.716512 8.20319,-1e-6 14.00852,9.212808 19.05663,23.347526"
           id="path49"
           sodipodi:nodetypes="csc"
           transform="translate(1.2048518e-5)" /><path
           style="display:inline;fill:none;stroke:#000000;stroke-width:1.60893;stroke-linecap:round;stroke-linejoin:round;stroke-dasharray:none;stroke-opacity:1"
           d="m -208.35037,51.54904 -5.93949,-0.336808 c 0,0 0.50921,2.796358 3.8768,3.357624 l -4.878,-0.220158 c 0,0 2.36407,3.578759 9.52021,4.186797"
           id="path50"
           sodipodi:nodetypes="ccccc"
           transform="translate(1.2048518e-5)" /></g><g
         id="g58"
         transform="matrix(0.26458333,0,0,0.26458333,-221.33751,-179.41474)"><path
           style="display:inline;fill:#b3b3b3;fill-opacity:1;stroke:#000000;stroke-width:6.09057;stroke-dasharray:none;stroke-opacity:0"
           d="m 378.60491,359.36506 c 15.45187,-16.9081 37.65088,-34.51157 54.98303,-45.52828 16.10235,-10.23503 38.24878,-19.97581 66.07968,-29.06417 11.73608,-3.83251 55.05862,-15.90745 55.58175,-15.49186 0.15186,0.12065 0.78748,2.4744 1.41249,5.23054 1.0973,4.8389 2.30408,8.10445 0.51964,8.53131 -33.81157,8.088 -41.50866,9.86181 -63.6485,17.82151 -35.65908,12.82014 -58.83435,26.8153 -89.46755,51.76576 -13.98316,11.38916 -13.90435,10.21063 -30.96433,12.75768 z"
           id="path54"
           sodipodi:nodetypes="ssssscsscs" /><path
           style="display:inline;fill:#ececec;fill-opacity:1;stroke:#000000;stroke-width:5.90439;stroke-dasharray:none;stroke-opacity:0"
           d="m 558.35848,277.09384 c -4.17464,-11.21411 -3.95216,-12.8269 15.35125,-17.31642 9.34159,-2.17266 12.93145,-2.28673 14.02545,0.0227 1.36937,2.89078 1.86076,4.91533 2.67257,7.80245 l -13.24636,7.7276 c -8.39701,4.8986 -15.46558,8.91153 -15.69506,8.93979 -0.22951,0.0282 -1.62802,-3.20102 -3.10785,-7.17616 z"
           id="path57"
           sodipodi:nodetypes="ssscsss" /><path
           style="fill:#b3b3b3;fill-opacity:0;stroke:#000000;stroke-width:5.66929;stroke-linecap:round;stroke-dasharray:none;stroke-opacity:1;paint-order:stroke markers fill"
           d="m 370.19219,365.26723 c 0,0 19.50617,-20.78485 30.37053,-29.96012 12.87908,-10.87676 26.37022,-21.24701 41.04127,-29.54971 14.7736,-8.36073 30.77925,-14.4612 46.78704,-20.11022 21.56618,-7.61053 66.07643,-18.46856 66.07643,-18.46856 l 3.69371,16.00609 c 0,0 -31.68885,7.13393 -47.19745,11.90196 -14.89214,4.57851 -29.62511,9.79627 -43.91415,16.0061 -8.30462,3.60908 -16.55911,7.47611 -24.21434,12.31238 -8.90634,5.62667 -16.96709,12.51529 -25.03517,19.28939 -8.23173,6.9115 -25.03518,21.75187 -25.03518,21.75187 z"
           id="path51"
           sodipodi:nodetypes="csssccsssscc" /><path
           style="display:inline;fill:#ececec;fill-opacity:0;stroke:#000000;stroke-width:5.66929;stroke-linecap:round;stroke-dasharray:none;stroke-opacity:1;paint-order:stroke markers fill"
           d="m 552.45339,263.65176 7.03696,21.47232 31.22626,-16.73874 -3.98164,-11.39223 z"
           id="path52"
           sodipodi:nodetypes="ccccc" /></g><g
         id="g59"
         transform="matrix(0.26458333,0,0,0.26458333,-218.26617,-173.11849)"
         style="display:inline"><path
           style="display:inline;fill:#ffffff;fill-opacity:1;stroke:#000000;stroke-width:3.29052;stroke-dasharray:none;stroke-opacity:0"
           d="m 428.27094,287.919 c -4.23213,-1.79937 -2.672,-13.29738 2.20687,-16.2644 3.00879,-1.82975 7.44008,-2.62618 9.96871,-1.79166 1.94754,0.64275 2.11693,0.87725 2.11693,2.93075 0,1.55106 0.4557,2.77367 1.49356,4.00709 1.85123,2.20006 1.56196,3.32009 -1.59379,6.17113 -4.14852,3.74794 -11.21731,6.21195 -14.19228,4.94709 z"
           id="path58" /><path
           style="display:inline;fill:#ffffff;fill-opacity:0;stroke:#000000;stroke-width:5.66929;stroke-linecap:round;stroke-dasharray:none;stroke-opacity:1;paint-order:stroke markers fill"
           d="m 445.77301,274.04274 c 0.561,1.61713 3.05037,2.46813 2.98468,4.17855 -0.17129,4.46022 -4.67901,8.12696 -8.59588,10.2673 -4.15396,2.2699 -10.10183,4.34437 -14.0877,1.79081 -3.12639,-2.00293 -3.76754,-6.93686 -3.34284,-10.62546 0.49182,-4.27156 2.80045,-9.02779 6.56629,-11.10301 4.7422,-2.61326 12.37336,-3.31617 16.23667,0.47754 1.19392,1.17241 -0.30964,3.43338 0.23878,5.01427 z"
           id="path53"
           sodipodi:nodetypes="aaaaaaaa"
           inkscape:transform-center-x="-0.35949333"
           inkscape:transform-center-y="0.47718417" /></g><g
         id="g60"
         transform="matrix(0.26458333,0,0,0.26458333,-217.95903,-169.12575)"
         style="display:inline"><path
           style="fill:#ffffff;fill-opacity:1;stroke:#000000;stroke-width:2.32675;stroke-dasharray:none;stroke-opacity:0"
           d="m 517.85089,258.9322 c -1.92288,-0.46144 -3.50711,-2.09002 -3.31433,-3.40711 0.0972,-0.66432 0.61622,-0.91494 2.65551,-1.28239 1.39407,-0.25119 2.85399,-0.72154 3.24428,-1.04522 1.1083,-0.91917 1.8137,-3.02714 1.8137,-5.41994 0,-2.73416 1.62879,-5.55538 3.80299,-6.5871 1.64157,-0.77898 5.01037,-0.90503 6.73841,-0.25213 4.22405,1.59596 6.92525,8.6733 4.60127,12.05567 -1.32462,1.92789 -4.19734,3.92574 -7.24966,5.04183 -3.13988,1.1481 -9.35468,1.60131 -12.29217,0.89639 z"
           id="path59" /><path
           style="display:inline;fill:#ffffff;fill-opacity:0;stroke:#000000;stroke-width:4.30654;stroke-linecap:round;stroke-opacity:1;paint-order:stroke markers fill"
           d="m 512.18814,256.26645 c -0.23221,-1.22845 0.22369,-2.72219 1.13941,-3.57334 1.39239,-1.29421 4.02794,-0.18626 5.54538,-1.3313 1.84776,-1.39429 0.40493,-5.47207 1.71829,-7.78068 1.20032,-2.10989 2.98831,-4.2751 5.3101,-4.98345 3.41894,-1.04309 7.94134,-0.68318 10.58413,1.72365 3.35787,3.05806 5.6526,9.22187 3.43455,13.18512 -4.08919,7.30664 -16.02254,9.76198 -24.03032,7.31575 -1.87128,-0.57164 -3.33812,-2.63315 -3.70154,-4.55575 z"
           id="path32"
           sodipodi:nodetypes="aasaaaaaa" /></g></g></g></svg>
