<?xml version="1.0" encoding="UTF-8" standalone="no"?>
<!-- Created with Inkscape (http://www.inkscape.org/) -->

<svg
   width="132.14565mm"
   height="289.29294mm"
   viewBox="0 0 499.44811 1093.3906"
   version="1.1"
   id="svg1"
   inkscape:version="1.2.2 (732a01da63, 2022-12-09)"
   sodipodi:docname="sarah.svg"
   xml:space="preserve"
   xmlns:inkscape="http://www.inkscape.org/namespaces/inkscape"
   xmlns:sodipodi="http://sodipodi.sourceforge.net/DTD/sodipodi-0.dtd"
   xmlns="http://www.w3.org/2000/svg"
   xmlns:svg="http://www.w3.org/2000/svg"><sodipodi:namedview
     id="namedview1"
     pagecolor="#ffffff"
     bordercolor="#000000"
     borderopacity="0.25"
     inkscape:showpageshadow="2"
     inkscape:pageopacity="0.0"
     inkscape:pagecheckerboard="0"
     inkscape:deskcolor="#d1d1d1"
     inkscape:document-units="mm"
     inkscape:zoom="0.97704331"
     inkscape:cx="398.65172"
     inkscape:cy="305.51358"
     inkscape:window-width="1827"
     inkscape:window-height="1057"
     inkscape:window-x="-9"
     inkscape:window-y="-9"
     inkscape:window-maximized="1"
     inkscape:current-layer="layer1"
     showgrid="false" /><defs
     id="defs1"><linearGradient
       id="linearGradient4322"
       inkscape:swatch="solid"><stop
         style="stop-color:#2b1500;stop-opacity:1;"
         offset="0"
         id="stop4320" /></linearGradient></defs><g
     inkscape:label="Layer 1"
     inkscape:groupmode="layer"
     id="layer1"
     transform="translate(-602.4943,-354.05061)"><g
       id="g1"
       style="display:inline;fill:#ffffff;fill-opacity:0;stroke:#000000;stroke-width:1.5;stroke-dasharray:none;stroke-opacity:1"
       transform="matrix(3.0153731,0,0,3.0153731,1100.7086,924.73686)"
       inkscape:label="fire engine"><path
         style="display:inline;fill:#ff0000;fill-opacity:1;stroke:#ff0000;stroke-width:5.66929;stroke-linecap:round;stroke-dasharray:none;stroke-opacity:1;paint-order:stroke markers fill"
         d="m 654.16122,759.46793 c -3.99923,-20.3617 -10.05947,-32.09753 -23.92846,-46.33819 -11.71521,-12.02916 -20.36404,-16.87467 -35.81712,-20.0666 -25.85978,-5.34149 -50.63551,2.44866 -68.61838,21.57543 -12.39364,13.18202 -19.54573,26.85663 -21.67026,41.43298 l -1.38328,9.4907 h -99.98886 -99.98885 l -1.48863,-8.41596 c -3.05753,-17.28596 -10.81389,-31.11144 -26.13184,-46.57924 -13.64572,-13.7792 -28.00812,-19.25399 -50.52644,-19.26012 -21.88934,-0.006 -36.09388,5.9734 -52.28721,22.01009 -16.4527,16.29353 -21.74412,26.17397 -22.85089,42.66844 l -0.6426,9.57679 h -21.31158 -21.31159 v -38.82191 -38.82193 l 3.48247,-2.05714 3.48247,-2.05715 V 650.13687 616.4696 l 5.87827,-5.95222 5.87828,-5.95221 14.81673,-51.04544 c 18.02571,-62.10083 18.4495,-62.91862 34.36988,-66.32393 3.67956,-0.78704 40.12975,-1.49882 99.57906,-1.94453 l 93.77495,-0.70304 7.01187,3.73728 c 5.70124,3.03873 7.53833,4.77622 9.82844,9.29551 l 2.81656,5.55823 v 65.62504 65.62505 h 11.60822 11.60822 v -62.6844 -62.6844 H 564.74 719.12936 V 637.8718 766.72307 h -31.77158 -31.77159 z"
         id="path27"
         transform="matrix(0.26458333,0,0,0.26458333,-191.6562,-158.82028)" /><path
         style="display:inline;fill:#cccccc;fill-opacity:1;stroke:#cccccc;stroke-width:2.70213;stroke-linecap:round;stroke-dasharray:none;stroke-opacity:1;paint-order:stroke markers fill"
         d="m 199.90363,596.94517 c 0.018,-0.56432 4.39635,-20.97209 9.72974,-45.3506 l 9.69708,-44.32456 27.6178,-0.21613 27.6178,-0.21612 v 45.56672 45.56672 H 237.2185 c -29.34825,0 -37.34055,-0.21976 -37.31487,-1.02603 z"
         id="path30"
         transform="matrix(0.26458333,0,0,0.26458333,-191.6562,-158.82028)" /><path
         style="display:inline;fill:#cccccc;fill-opacity:1;stroke:#cccccc;stroke-width:2.70213;stroke-linecap:round;stroke-dasharray:none;stroke-opacity:1;paint-order:stroke markers fill"
         d="m 142.56418,597.88647 c 0.2305,-0.63058 6.26917,-21.15971 13.41927,-45.6203 11.2269,-38.40739 13.23135,-44.53588 14.69501,-44.92897 2.73159,-0.73363 26.73001,-0.54421 26.73001,0.21098 0,1.22321 -20.2192,89.5745 -20.58115,89.93287 -0.19244,0.19054 -8.07467,0.61767 -17.51607,0.94919 -14.52822,0.51012 -17.10177,0.42656 -16.74707,-0.54377 z"
         id="path29"
         transform="matrix(0.26458333,0,0,0.26458333,-191.6562,-158.82028)"
         inkscape:label="path29" /><path
         style="display:inline;fill:#cccccc;fill-opacity:1;stroke:#cccccc;stroke-width:2.70213;stroke-linecap:round;stroke-dasharray:none;stroke-opacity:1;paint-order:stroke markers fill"
         d="m 316.63334,598.1771 -19.90501,-0.23509 v -45.95162 -45.95162 h 37.34755 37.34755 v 46.37663 46.37662 l -17.44254,-0.18991 c -9.59339,-0.10446 -26.39979,-0.29571 -37.34755,-0.42501 z"
         id="path31"
         transform="matrix(0.26458333,0,0,0.26458333,-191.6562,-158.82028)" /><path
         style="display:inline;fill:#ffffff;fill-opacity:0;stroke:#000000;stroke-width:1.5;stroke-linecap:round;stroke-dasharray:none;stroke-opacity:1;paint-order:stroke markers fill"
         d="m -144.09537,-31.161036 c 0,0 -3.49214,0.495253 -4.88122,1.47479 -1.22726,0.865431 -2.67538,3.624729 -2.67538,3.624729 l -7.75514,26.72067948 -3.20016,3.19197242 c 0,0 0.0296,11.2960601 0.0296,17.6190981 l -1.8971,1.379376 v 21.661784 h 13.1049 c 0,0 -0.0894,-4.497488 0.65153,-6.569594 0.87887,-2.457723 2.5498,-4.619156 4.34353,-6.515301 1.98996,-2.103584 4.28148,-4.087138 6.94965,-5.212241 2.59912,-1.095983 5.54344,-1.430483 8.3613,-1.30306 2.68359,0.121351 5.44056,0.704628 7.81837,1.954591 2.17912,1.145519 3.93406,3.018811 5.538,4.886476 1.56995,1.828083 2.99525,3.851293 3.90918,6.080945 0.86966,2.121642 1.41165,6.732479 1.41165,6.732479 h 54.565643 c 0,0 0.336534,-4.084999 1.004443,-5.999507 0.701783,-2.011603 1.813261,-3.890305 3.094768,-5.592299 1.275845,-1.694475 2.779345,-3.258386 4.499149,-4.499877 1.665891,-1.202572 3.547222,-2.154344 5.509221,-2.764208 1.647026,-0.511958 3.400545,-0.713868 5.125301,-0.710248 1.990782,0.0042 4.012102,0.251031 5.912335,0.844619 1.638835,0.511933 3.203886,1.314014 4.607012,2.303505 1.332753,0.939864 2.457942,2.158571 3.5301,3.387413 1.132839,1.298392 2.22378,2.663365 3.040472,4.180652 0.659596,1.225428 1.465943,3.909179 1.465943,3.909179 l 1.085884,5.212241 H -0.38836835 V -25.063329 H -84.005657 V 8.1885914 h -4.203901 l 0.02715,-33.6361694 c 0,0 -0.898047,-2.634398 -1.827984,-3.612355 -1.100894,-1.157742 -4.162164,-2.37643 -4.162164,-2.37643 z"
         id="path11"
         sodipodi:nodetypes="cacccccccsssssssccsssssssssccccccccacc" /><path
         style="display:inline;fill:#ffffff;fill-opacity:0;stroke:#000000;stroke-width:1.5;stroke-linecap:round;stroke-dasharray:none;stroke-opacity:1;paint-order:stroke markers fill"
         d="m -155.15712,0.5055942 11.01844,-0.26874243 5.85485,-25.76088077 -9.27172,0.07678 z"
         id="path12"
         sodipodi:nodetypes="ccccc" /><path
         style="display:inline;fill:#ffffff;fill-opacity:0;stroke:#000000;stroke-width:1.5;stroke-linecap:round;stroke-dasharray:none;stroke-opacity:1;paint-order:stroke markers fill"
         d="m -134.3033,-25.524029 -5.6052,25.72248958 h 21.80653 V -25.677599 Z"
         id="path13"
         sodipodi:nodetypes="ccccc" /><path
         style="display:inline;fill:#ffffff;fill-opacity:0;stroke:#000000;stroke-width:1.5;stroke-linecap:round;stroke-dasharray:none;stroke-opacity:1;paint-order:stroke markers fill"
         d="M -114.04455,0.15076816 V -25.853163 h 21.45871 V 0.53237612 Z"
         id="path15" /><path
         style="display:inline;fill:#ffffff;fill-opacity:0;stroke:#000000;stroke-width:1.5;stroke-linecap:round;stroke-dasharray:none;stroke-opacity:1;paint-order:stroke markers fill"
         d="M -78.977042,-19.816483 V 9.6818538 H -5.0330673 V -20.092168 Z"
         id="path16" /><path
         style="display:inline;fill:#cccccc;fill-opacity:1;stroke:#ffffff;stroke-width:3.29197;stroke-linecap:round;stroke-dasharray:none;stroke-opacity:1;paint-order:stroke markers fill"
         d="m 112.88996,659.05681 v -4.06288 h 303.55501 303.55501 v 4.06288 4.06288 H 416.44497 112.88996 Z"
         id="path28"
         transform="matrix(0.26458333,0,0,0.26458333,-191.6562,-158.82028)" /><rect
         style="display:inline;fill:#ffffff;fill-opacity:0;stroke:#000000;stroke-width:5.67146;stroke-linecap:round;stroke-dasharray:none;stroke-opacity:1;paint-order:stroke markers fill"
         id="rect26"
         width="613.39478"
         height="13.856929"
         x="109.68583"
         y="652.11169"
         transform="matrix(0.26458333,0,0,0.26458333,-191.6562,-158.82028)" /><g
         id="g26"
         transform="matrix(0.24285233,0,0,0.24285233,-175.85079,-148.8624)"
         style="stroke-width:5.66929;stroke-dasharray:none"><path
           style="display:inline;fill:#000000;fill-opacity:0;stroke:#000000;stroke-width:6.24246;stroke-linecap:round;stroke-dasharray:none;stroke-opacity:1;paint-order:stroke markers fill"
           d="m 598.29719,504.80338 13.46111,-56.30977 h 80.76665 l 12.23737,56.57267 z"
           id="path26"
           sodipodi:nodetypes="ccccc"
           transform="matrix(1.0894824,0,0,1.0894824,-65.082403,-41.003868)" /><path
           style="fill:#000000;fill-opacity:0;stroke:#000000;stroke-width:5.71058;stroke-linecap:round;stroke-dasharray:none;stroke-opacity:1;paint-order:stroke markers fill"
           d="M 665.46852,410.57777 H 317.82301 l -54.11462,40.41417 v 18.37008 h 404.21989"
           id="path22" /><path
           style="fill:#000000;fill-opacity:0;stroke:#000000;stroke-width:5.77006;stroke-linecap:round;stroke-dasharray:none;stroke-opacity:1;paint-order:stroke markers fill"
           d="m 336.39641,411.52445 v 53.38446 l 103.95356,-51.9358 v 56.61795 -56.61424 l 101.2881,53.01821 v -55.33917 55.04461 l 102.79915,-52.93194 v 55.87912"
           id="path25"
           sodipodi:nodetypes="cccccccccc" /></g><circle
         style="fill:#000000;fill-opacity:1;stroke:#f8ed23;stroke-width:5.66929;stroke-linecap:round;stroke-dasharray:none;stroke-opacity:0;paint-order:stroke markers fill"
         id="path17"
         cx="225.77992"
         cy="769.62512"
         r="60.943165"
         transform="matrix(0.26458333,0,0,0.26458333,-191.6562,-158.82028)" /><circle
         style="display:inline;fill:#000000;fill-opacity:1;stroke:#f8ed23;stroke-width:5.66929;stroke-linecap:round;stroke-dasharray:none;stroke-opacity:0;paint-order:stroke markers fill"
         id="circle17"
         cx="577.77991"
         cy="769.62512"
         r="60.943165"
         transform="matrix(0.26458333,0,0,0.26458333,-191.6562,-158.82028)" /><path
         style="fill:#ff0101;fill-opacity:1;stroke:#000000;stroke-width:5.66929;stroke-linecap:round;stroke-dasharray:none;stroke-opacity:1;paint-order:stroke markers fill"
         id="path21"
         sodipodi:type="arc"
         sodipodi:cx="206.79666"
         sodipodi:cy="461.50748"
         sodipodi:rx="17.801647"
         sodipodi:ry="17.647743"
         sodipodi:start="3.0973517"
         sodipodi:end="0.050833991"
         sodipodi:open="true"
         sodipodi:arc-type="chord"
         d="m 189.01243,462.28798 a 17.801647,17.647743 0 0 1 8.69065,-15.95196 17.801647,17.647743 0 0 1 18.28787,0.0598 17.801647,17.647743 0 0 1 8.58436,16.00842 z"
         transform="matrix(0.26458333,0,0,0.26458333,-191.6562,-158.82028)" /><rect
         style="fill:#000000;fill-opacity:1;stroke:#000000;stroke-width:5.66929;stroke-linecap:round;stroke-dasharray:none;stroke-opacity:1;paint-order:stroke markers fill"
         id="rect17"
         width="45.14539"
         height="12.722792"
         x="184.07007"
         y="466.02356"
         transform="matrix(0.26458333,0,0,0.26458333,-191.6562,-158.82028)" /><circle
         style="fill:#999999;fill-opacity:1;stroke:#f8ed23;stroke-width:0.756753;stroke-linecap:round;stroke-dasharray:none;stroke-opacity:0;paint-order:stroke markers fill"
         id="circle32"
         cx="-131.93237"
         cy="45.026875"
         r="8.1348667" /><circle
         style="fill:#999999;fill-opacity:1;stroke:#f8ed23;stroke-width:0.756753;stroke-linecap:round;stroke-dasharray:none;stroke-opacity:0;paint-order:stroke markers fill"
         id="circle33"
         cx="-38.777782"
         cy="45.154095"
         r="8.1348667" /></g><g
       id="g3"
       inkscape:label="firefighter"
       transform="matrix(2.6918458,0,0,2.6918458,921.27371,762.70278)"
       style="display:inline"
       inkscape:highlight-color="#999999"
       inkscape:export-filename="firefighter.svg"
       inkscape:export-xdpi="96"
       inkscape:export-ydpi="96"><g
         id="g17513"
         transform="translate(50.598352,-0.2277988)"
         inkscape:label="body"
         style="display:inline;stroke-width:1.5;stroke-dasharray:none"><path
           style="display:inline;fill:#ffffff;fill-opacity:1;stroke:#ffffff;stroke-width:5.66929;stroke-dasharray:none;stroke-opacity:1;paint-order:fill markers stroke"
           d="m 608.77166,320.71975 c -23.59115,-4.27879 -42.49005,-21.13816 -47.78241,-42.62585 -0.58315,-2.36767 -1.05301,-7.84957 -1.04413,-12.18199 0.0559,-27.24723 22.18228,-49.95148 52.33129,-53.69794 13.73801,-1.70715 29.68705,1.9845 41.32117,9.56443 11.42776,7.44548 20.72036,20.03141 23.92723,32.40711 1.71563,6.62087 1.73491,18.17034 0.0414,24.80372 -4.78849,18.75622 -19.7211,33.5084 -40.44706,39.95835 -6.8174,2.12158 -21.39602,3.03298 -28.3475,1.77217 z"
           id="path9"
           transform="matrix(0.26458333,0,0,0.26458333,-306.65989,-190.14869)" /><path
           style="display:inline;fill:#f70a0a;fill-opacity:1;stroke:#000000;stroke-width:5.66929;stroke-dasharray:none;stroke-opacity:1;paint-order:fill markers stroke"
           d="m 455.55353,391.40099 c 0.50526,-3.68323 2.05553,-10.84453 2.5583,-15.91399 0.87019,-8.77406 2.36168,-17.22447 8.22249,-39.26625 l 3.83566,-14.42543 c 0,0 10.85813,4.51734 21.79397,2.83084 l 9.42394,-1.45333 c 0,0 1.15035,17.15768 2.75086,29.23656 1.60052,12.07887 6.74244,45.19609 6.74488,45.5852 -3.11126,1.23874 -11.40722,2.37817 -14.90327,1.75654 -6.02071,-1.6755 0.1419,-13.6242 -1.5886,-14.55034 -1.57841,-0.84473 -4.98509,-1.01069 -12.3244,0.0325 -5.80759,0.9559 -11.51814,-1.16354 -10.71511,4.98625 0.7803,7.18189 1.78595,9.72366 -0.0245,10.21724 -0.89492,0.24398 -8.10579,2.63235 -10.08626,2.17556 l -5.70218,-1.31519 c 0.8062,-6.00255 -0.70293,-4.668 0.0143,-9.89617 z"
           id="path8"
           transform="matrix(0.26458333,0,0,0.26458333,-272.0281,-189.98761)"
           sodipodi:nodetypes="ssscscccsssssscss" /><path
           style="display:inline;fill:none;fill-opacity:1;stroke:#000000;stroke-width:1.5;stroke-linecap:round;stroke-linejoin:round;stroke-miterlimit:1001;stroke-dasharray:none;stroke-opacity:1;paint-order:stroke fill markers"
           d="m -148.03164,-104.78796 c 0,0 -1.3885,6.271002 -2.15052,9.895984 -0.35033,1.666547 -0.7592,3.734716 -0.99953,5.623299 -0.25259,1.984829 -0.8208,5.560877 -0.46319,5.98461 0.35761,0.423733 3.59111,-0.02535 4.18398,-0.500433 0.59287,-0.475088 -0.40107,-3.055873 -0.0191,-3.53863 0.382,-0.482757 6.00307,-1.170713 6.29817,-0.848501 0.2951,0.322212 -0.0275,3.62726 0.16278,4.114573 0.50176,0.401375 4.08807,-0.338983 4.08807,-0.338983 0,0 -1.5286,-9.764104 -2.00605,-14.679673 -0.17444,-1.795926 -0.31293,-5.404086 -0.31293,-5.404086"
           id="path15170"
           sodipodi:nodetypes="csazzzzccac"
           inkscape:label="body" /><g
           id="g10"
           transform="translate(21.500492,0.10858813)"
           style="display:inline;stroke-width:1.5;stroke-dasharray:none"><path
             style="display:inline;fill:#f70a0a;fill-opacity:1;stroke:#000000;stroke-width:1.5;stroke-linecap:round;stroke-linejoin:miter;stroke-dasharray:none;stroke-opacity:0;paint-order:stroke markers fill"
             d="m -170.75715,-91.239873 c -0.96656,-0.170799 -1.77989,-0.333067 -1.80741,-0.360591 -0.0276,-0.02752 0.19332,-1.348652 0.49076,-2.935843 0.41621,-2.221009 0.74536,-3.658289 1.42879,-6.239083 l 0.888,-3.35329 0.296,0.0392 c 0.16282,0.0215 1.72727,0.13761 3.47655,0.25794 l 3.18054,0.21878 1.63996,-0.18853 c 1.27637,-0.14672 1.65382,-0.16611 1.70245,-0.0875 0.0344,0.0556 0.0817,1.39002 0.10497,2.96533 0.0419,2.82096 0.0485,2.910646 0.44017,5.93987 0.21873,1.691616 0.37157,3.10179 0.33963,3.133723 -0.12275,0.122762 -3.21282,0.452781 -6.45552,0.689452 -1.8617,0.135879 -3.51599,0.243444 -3.67621,0.239041 -0.16022,-0.0044 -1.08212,-0.147756 -2.04868,-0.318558 z"
             id="path10" /><path
             style="display:inline;fill:#1a1a1a;stroke:#eaea02;stroke-width:1.5;stroke-linecap:round;stroke-linejoin:round;stroke-dasharray:none;stroke-opacity:1;paint-order:fill markers stroke"
             d="m -171.96196,-92.462552 c 0,0 3.06148,0.561982 4.60973,0.628498 1.43775,0.06177 2.88019,-0.06477 4.31202,-0.214476 1.34341,-0.140459 4.00379,-0.640378 4.00379,-0.640378"
             id="path1"
             sodipodi:nodetypes="caac" /><path
             style="display:inline;fill:#ffff00;fill-opacity:0;stroke:#eaea02;stroke-width:1.5;stroke-linecap:round;stroke-linejoin:miter;stroke-dasharray:none;stroke-opacity:1;paint-order:stroke markers fill"
             d="m -159.86486,-99.909085 c 0,0 -3.41722,0.424574 -5.13456,0.402343 -1.75025,-0.02266 -5.21888,-0.545348 -5.21888,-0.545348"
             id="path4"
             sodipodi:nodetypes="cac" /><path
             style="fill:#f70a0a;fill-opacity:0;stroke:#000000;stroke-width:1.5;stroke-linecap:round;stroke-linejoin:miter;stroke-dasharray:none;stroke-opacity:1;paint-order:stroke markers fill"
             d="m -170.1568,-104.38074 c 0,0 -1.28696,4.509574 -1.80442,6.795345 -0.47438,2.095467 -1.19014,6.334644 -1.19014,6.334644 0,0 3.00042,0.693573 4.53023,0.767834 2.16563,0.105125 4.3849,-0.05674 6.5425,-0.27067 1.30946,-0.129834 3.86167,-0.689125 3.86167,-0.689125 0,0 -0.68355,-4.364512 -0.84462,-6.564992 -0.15417,-2.106266 -0.11518,-6.334646 -0.11518,-6.334646 0,0 -3.06497,0.3751 -4.36621,0.40641 -2.37264,0.0571 -6.61383,-0.4448 -6.61383,-0.4448 z"
             id="path5"
             sodipodi:nodetypes="cscsscscsc" /></g><ellipse
           style="display:inline;fill:none;fill-opacity:1;stroke:#000000;stroke-width:1.5;stroke-linecap:round;stroke-linejoin:round;stroke-miterlimit:1001;stroke-dasharray:none;stroke-opacity:1;paint-order:stroke fill markers"
           id="path14491"
           ry="15.393556"
           rx="16.682619"
           cy="-119.60479"
           cx="-142.77336"
           inkscape:label="head" /></g><g
         id="g147"
         inkscape:label="eyes"
         transform="translate(-34.322565,-0.0667206)"
         style="display:inline"><ellipse
           style="fill:#000000;fill-opacity:1;stroke:none;stroke-width:0.593632;stroke-linecap:round;stroke-linejoin:round;stroke-miterlimit:1001;stroke-dasharray:none;stroke-opacity:1;paint-order:stroke fill markers"
           id="ellipse146"
           cx="-86.904243"
           cy="-98.34063"
           rx="2.1079104"
           ry="2.7033648"
           transform="matrix(0.96864121,0.2484637,-0.20869257,0.97798129,0,0)"
           inkscape:label="right" /><ellipse
           style="fill:#000000;fill-opacity:1;stroke:none;stroke-width:0.509367;stroke-linecap:round;stroke-linejoin:round;stroke-miterlimit:1001;stroke-dasharray:none;stroke-opacity:1;paint-order:stroke fill markers"
           id="ellipse147"
           cx="-36.557335"
           cy="-122.18265"
           rx="1.7384969"
           ry="2.4132938"
           transform="matrix(0.99463321,-0.10346393,0.09707266,0.9952773,0,0)"
           inkscape:label="left" /></g><g
         id="g17774"
         transform="matrix(0.91473052,-0.18012182,0.18012182,0.91473052,100.78419,-224.60478)"
         inkscape:label="fire helmet"
         inkscape:highlight-color="#ee3b3b"
         style="display:inline;stroke-width:1.60893;stroke-dasharray:none"><path
           style="display:inline;fill:#f70a0a;fill-opacity:1;stroke:none;stroke-width:6.081;stroke-linecap:round;stroke-linejoin:round;stroke-dasharray:none;stroke-opacity:1"
           d="m 1532.4772,868.6423 c -13.8472,-0.70213 -34.0904,-2.99822 -35.07,-3.97782 -0.2807,-0.28075 2.0959,-7.94808 4.6674,-15.05751 11.6908,-32.3214 25.9618,-53.444 41.0092,-60.69809 6.3253,-3.04934 11.2602,-3.525 18.3737,-1.77098 18.7865,4.63235 31.2686,17.58382 36.0779,37.43451 1.337,5.51861 1.4674,5.2174 -2.2592,5.2174 -2.3675,0 -3.2475,0.13114 -3.5816,0.53371 -1.1177,1.34668 0.8998,6.51343 3.8051,9.74484 l 1.6664,1.85337 -4.002,-0.25323 c -3.3525,-0.21214 -4.1405,-0.16245 -4.8556,0.30615 -1.6744,1.0971 -0.7733,3.16153 2.794,6.40094 7.0914,6.43966 17.2177,10.71539 29.5324,12.46985 3.4112,0.48599 4.4433,0.76087 4.7212,1.25747 0.1956,0.34953 0.2199,0.76204 0.054,0.91668 -0.358,0.33349 -5.7275,1.5377 -10.2013,2.28784 -8.1677,1.36948 -22.8379,2.70699 -36.9464,3.36847 -8.7562,0.41054 -37.4411,0.38949 -45.7851,-0.0336 z"
           id="path19"
           transform="matrix(0.26458333,0,0,0.26458333,-635.84798,-168.84141)" /><path
           style="display:inline;fill:#f70a0a;fill-opacity:1;stroke:none;stroke-width:6.081;stroke-linecap:round;stroke-linejoin:round;stroke-dasharray:none;stroke-opacity:1"
           d="m 1543.0838,881.05051 c -42.1012,-1.35759 -70.1867,-4.87057 -79.8324,-9.98559 -1.1279,-0.59809 -2.3401,-1.49855 -2.6939,-2.00101 -1.3086,-1.8586 -2.1498,-3.92922 -2.1498,-5.29176 0,-4.11499 6.7952,-7.04576 18.5183,-7.98699 2.2593,-0.18139 2.7504,-0.13344 2.6018,0.25402 -0.7532,1.96262 -1.6759,6.07 -1.4931,6.64597 0.7793,2.45541 16.4102,6.47956 32.1686,8.28179 30.5831,3.49766 76.7899,2.86362 104.4453,-1.43318 6.5037,-1.01048 13.4674,-2.66314 14.7429,-3.49886 1.163,-0.76202 1.0882,-1.94561 -0.379,-5.99874 -1.4433,-3.98722 -1.9682,-3.70948 5.0011,-2.64629 5.1599,0.78715 9.8845,2.02243 12.245,3.2015 1.8502,0.92421 4.6868,3.62543 5.5419,5.27733 2.5316,4.89093 -0.5254,10.03303 -6.8253,11.48057 -5.7425,1.3195 -18.566,2.52174 -35.9537,3.37078 -9.9709,0.48688 -54.211,0.7086 -65.9377,0.33046 z"
           id="path20"
           transform="matrix(0.26458333,0,0,0.26458333,-635.84798,-168.84141)" /><path
           style="display:inline;fill:#610404;fill-opacity:1;stroke:none;stroke-width:6.081;stroke-linecap:round;stroke-linejoin:round;stroke-dasharray:none;stroke-opacity:1"
           d="m 1491.6418,863.66187 c -0.6806,-0.1722 -3.0358,-0.8708 -5.2336,-1.55242 -3.3055,-1.02512 -3.9647,-1.34346 -3.814,-1.84185 0.1003,-0.33139 1.1404,-3.71855 2.3115,-7.52702 14.3958,-46.81673 32.0719,-68.6456 59.6765,-73.69687 4.2978,-0.78643 13.39,-1.0755 17.0983,-0.5436 15.2534,2.18783 29.1774,14.07516 42.1397,35.97584 2.5594,4.32425 8.3833,15.35367 8.3833,15.87644 0,0.34624 -4.6161,0.25341 -7.5909,-0.15265 -1.7538,-0.2394 -1.7578,-0.24298 -2.0435,-1.8275 -3.5236,-19.5426 -13.4878,-33.83126 -28.7262,-41.19332 -6.513,-3.1466 -14.5886,-5.25402 -19.9757,-5.21286 -16.9123,0.12922 -33.9513,16.84531 -47.8809,46.97338 -3.6884,7.97773 -6.8206,16.0428 -9.9486,25.61682 -1.4898,4.55993 -2.8099,8.54457 -2.9336,8.85475 -0.1817,0.45555 -0.4628,0.50378 -1.4623,0.25086 z"
           id="path23"
           transform="matrix(0.26458333,0,0,0.26458333,-635.84798,-168.84141)" /><path
           style="fill:#fff100;fill-opacity:1;stroke:none;stroke-width:6.081;stroke-linecap:round;stroke-linejoin:round;stroke-dasharray:none;stroke-opacity:1"
           d="m 1620.6887,856.77735 c -9.0463,-1.43051 -17.5225,-4.64226 -23.6289,-8.95327 -1.4258,-1.00664 -2.5395,-1.86389 -2.4748,-1.905 0.065,-0.0411 3.2925,0.0685 7.173,0.24365 7.0402,0.3177 7.0567,0.3167 7.6898,-0.46504 1.3523,-1.67011 0.4774,-2.89118 -2.6566,-3.70749 -1.0927,-0.28461 -2.7215,-0.86286 -3.6196,-1.285 -1.9499,-0.91656 -5.1182,-3.73039 -6.1286,-5.44304 l -0.7256,-1.22971 1.6675,0.0209 c 2.9526,0.037 16.3169,0.89801 16.4517,1.05993 0.072,0.0861 1.0189,2.2249 2.1046,4.75281 1.7008,3.95988 3.1471,7.51071 6.3002,15.46796 l 0.6655,1.67938 -0.9672,-0.0481 c -0.5319,-0.0265 -1.3648,-0.11104 -1.851,-0.18792 z"
           id="path24"
           transform="matrix(0.26458333,0,0,0.26458333,-635.84798,-168.84141)" /><path
           style="display:inline;fill:none;stroke:#000000;stroke-width:1.60893;stroke-linecap:round;stroke-linejoin:round;stroke-dasharray:none;stroke-opacity:1"
           d="m -244.26465,59.22942 c 7.77213,3.538802 33.19581,2.755427 39.15833,0.661459"
           id="path18"
           sodipodi:nodetypes="cc"
           transform="translate(1.2048518e-5)" /><path
           style="display:inline;fill:none;stroke:#000000;stroke-width:1.60893;stroke-linecap:round;stroke-linejoin:round;stroke-dasharray:none;stroke-opacity:1"
           d="m -224.45397,38.558848 c -10.36122,0.08495 -15.97422,21.861197 -15.97422,21.861197"
           id="path14"
           sodipodi:nodetypes="cc"
           transform="translate(1.2048518e-5)" /><path
           style="display:inline;fill:none;stroke:#000000;stroke-width:1.60893;stroke-linecap:round;stroke-linejoin:round;stroke-dasharray:none;stroke-opacity:1"
           d="m -243.76461,57.049396 c -0.50481,-0.126203 -9.33901,0 -6.05774,4.4171 3.28128,4.417099 47.30807,3.999189 50.35494,2.019245 1.98937,-1.292746 1.89593,-3.280237 0.11014,-4.71231 -1.35812,-1.089111 -4.35772,-1.34278 -6.45931,-1.636025"
           id="path2"
           sodipodi:nodetypes="csssc"
           transform="translate(1.2048518e-5)" /><path
           style="display:inline;fill:none;stroke:#000000;stroke-width:1.60893;stroke-linecap:round;stroke-linejoin:round;stroke-dasharray:none;stroke-opacity:1"
           d="m -224.48149,38.566322 c 5.03356,0.517818 10.89264,3.628284 12.20225,12.421452"
           id="path6"
           sodipodi:nodetypes="cc"
           transform="translate(1.2048518e-5)" /><path
           style="display:inline;fill:none;stroke:#000000;stroke-width:1.60893;stroke-linecap:round;stroke-linejoin:round;stroke-dasharray:none;stroke-opacity:1"
           d="m -244.26942,59.194844 c 4.03849,-14.134719 9.06869,-22.716512 20.19245,-22.716512 8.20319,-1e-6 14.00852,9.212808 19.05663,23.347526"
           id="path3"
           sodipodi:nodetypes="csc"
           transform="translate(1.2048518e-5)" /><path
           style="display:inline;fill:none;stroke:#000000;stroke-width:1.60893;stroke-linecap:round;stroke-linejoin:round;stroke-dasharray:none;stroke-opacity:1"
           d="m -208.35037,51.54904 -5.93949,-0.336808 c 0,0 0.50921,2.796358 3.8768,3.357624 l -4.878,-0.220158 c 0,0 2.36407,3.578759 9.52021,4.186797"
           id="path7"
           sodipodi:nodetypes="ccccc"
           transform="translate(1.2048518e-5)" /></g></g><g
       id="g51"
       inkscape:label="firefighter-doingst "
       transform="matrix(2.6540584,0,0,2.6540584,1144.9333,756.96623)"
       style="display:inline"
       inkscape:highlight-color="#999999"
       inkscape:export-filename="extinguish.svg"
       inkscape:export-xdpi="96"
       inkscape:export-ydpi="96"><g
         id="g40"
         transform="translate(50.598352,-0.2277988)"
         inkscape:label="body"
         style="display:inline"><path
           style="display:inline;fill:#ffffff;fill-opacity:1;stroke:#ffffff;stroke-width:1.35685;stroke-dasharray:none;stroke-opacity:1;paint-order:fill markers stroke"
           d="m 608.77166,320.71975 c -23.59115,-4.27879 -42.49005,-21.13816 -47.78241,-42.62585 -0.58315,-2.36767 -1.05301,-7.84957 -1.04413,-12.18199 0.0559,-27.24723 22.18228,-49.95148 52.33129,-53.69794 13.73801,-1.70715 29.68705,1.9845 41.32117,9.56443 11.42776,7.44548 20.72036,20.03141 23.92723,32.40711 1.71563,6.62087 1.73491,18.17034 0.0414,24.80372 -4.78849,18.75622 -19.7211,33.5084 -40.44706,39.95835 -6.8174,2.12158 -21.39602,3.03298 -28.3475,1.77217 z"
           id="path33"
           transform="matrix(0.26458333,0,0,0.26458333,-306.65989,-190.14869)" /><path
           style="display:inline;fill:#f70a0a;fill-opacity:1;stroke:#000000;stroke-width:1.28882;stroke-dasharray:none;stroke-opacity:1;paint-order:fill markers stroke"
           d="m 455.55353,391.40099 c 0.50526,-3.68323 2.05553,-10.84453 2.5583,-15.91399 0.87019,-8.77406 2.36168,-17.22447 8.22249,-39.26625 l 3.83566,-14.42543 c 0,0 10.85813,4.51734 21.79397,2.83084 l 9.42394,-1.45333 c 0,0 1.15035,17.15768 2.75086,29.23656 1.60052,12.07887 6.74244,45.19609 6.74488,45.5852 -3.11126,1.23874 -11.40722,2.37817 -14.90327,1.75654 -6.02071,-1.6755 0.1419,-13.6242 -1.5886,-14.55034 -1.57841,-0.84473 -4.98509,-1.01069 -12.3244,0.0325 -5.80759,0.9559 -11.51814,-1.16354 -10.71511,4.98625 0.7803,7.18189 1.78595,9.72366 -0.0245,10.21724 -0.89492,0.24398 -8.10579,2.63235 -10.08626,2.17556 l -5.70218,-1.31519 c 0.8062,-6.00255 -0.70293,-4.668 0.0143,-9.89617 z"
           id="path34"
           transform="matrix(0.26458333,0,0,0.26458333,-272.0281,-189.98761)"
           sodipodi:nodetypes="ssscscccsssssscss" /><path
           style="display:inline;fill:none;fill-opacity:1;stroke:#000000;stroke-width:1.5;stroke-linecap:round;stroke-linejoin:round;stroke-miterlimit:1001;stroke-dasharray:none;stroke-opacity:1;paint-order:stroke fill markers"
           d="m -148.03164,-104.78796 c 0,0 -1.3885,6.271002 -2.15052,9.895984 -0.35033,1.666547 -0.7592,3.734716 -0.99953,5.623299 -0.25259,1.984829 -0.8208,5.560877 -0.46319,5.98461 0.35761,0.423733 3.59111,-0.02535 4.18398,-0.500433 0.59287,-0.475088 -0.40107,-3.055873 -0.0191,-3.53863 0.382,-0.482757 6.00307,-1.170713 6.29817,-0.848501 0.2951,0.322212 -0.0275,3.62726 0.16278,4.114573 0.50176,0.401375 4.08807,-0.338983 4.08807,-0.338983 0,0 -1.5286,-9.764104 -2.00605,-14.679673 -0.17444,-1.795926 -0.31293,-5.404086 -0.31293,-5.404086"
           id="path35"
           sodipodi:nodetypes="csazzzzccac"
           inkscape:label="body" /><g
           id="g39"
           transform="translate(21.500492,0.10858813)"
           style="display:inline"><path
             style="display:inline;fill:#f70a0a;fill-opacity:1;stroke:#000000;stroke-width:0;stroke-linecap:round;stroke-linejoin:miter;stroke-dasharray:none;stroke-opacity:0;paint-order:stroke markers fill"
             d="m -170.75715,-91.239873 c -0.96656,-0.170799 -1.77989,-0.333067 -1.80741,-0.360591 -0.0276,-0.02752 0.19332,-1.348652 0.49076,-2.935843 0.41621,-2.221009 0.74536,-3.658289 1.42879,-6.239083 l 0.888,-3.35329 0.296,0.0392 c 0.16282,0.0215 1.72727,0.13761 3.47655,0.25794 l 3.18054,0.21878 1.63996,-0.18853 c 1.27637,-0.14672 1.65382,-0.16611 1.70245,-0.0875 0.0344,0.0556 0.0817,1.39002 0.10497,2.96533 0.0419,2.82096 0.0485,2.910646 0.44017,5.93987 0.21873,1.691616 0.37157,3.10179 0.33963,3.133723 -0.12275,0.122762 -3.21282,0.452781 -6.45552,0.689452 -1.8617,0.135879 -3.51599,0.243444 -3.67621,0.239041 -0.16022,-0.0044 -1.08212,-0.147756 -2.04868,-0.318558 z"
             id="path36" /><path
             style="display:inline;fill:#1a1a1a;stroke:#eaea02;stroke-width:1.5;stroke-linecap:round;stroke-linejoin:round;stroke-dasharray:none;stroke-opacity:1;paint-order:fill markers stroke"
             d="m -171.96196,-92.462552 c 0,0 3.06148,0.561982 4.60973,0.628498 1.43775,0.06177 2.88019,-0.06477 4.31202,-0.214476 1.34341,-0.140459 4.00379,-0.640378 4.00379,-0.640378"
             id="path37"
             sodipodi:nodetypes="caac" /><path
             style="display:inline;fill:#ffff00;fill-opacity:0;stroke:#eaea02;stroke-width:1.5;stroke-linecap:round;stroke-linejoin:miter;stroke-dasharray:none;stroke-opacity:1;paint-order:stroke markers fill"
             d="m -159.86486,-99.909085 c 0,0 -3.41722,0.424574 -5.13456,0.402343 -1.75025,-0.02266 -5.21888,-0.545348 -5.21888,-0.545348"
             id="path38"
             sodipodi:nodetypes="cac" /><path
             style="fill:#f70a0a;fill-opacity:0;stroke:#000000;stroke-width:1.5;stroke-linecap:round;stroke-linejoin:miter;stroke-dasharray:none;stroke-opacity:1;paint-order:stroke markers fill"
             d="m -170.1568,-104.38074 c 0,0 -1.28696,4.509574 -1.80442,6.795345 -0.47438,2.095467 -1.19014,6.334644 -1.19014,6.334644 0,0 3.00042,0.693573 4.53023,0.767834 2.16563,0.105125 4.3849,-0.05674 6.5425,-0.27067 1.30946,-0.129834 3.86167,-0.689125 3.86167,-0.689125 0,0 -0.68355,-4.364512 -0.84462,-6.564992 -0.15417,-2.106266 -0.11518,-6.334646 -0.11518,-6.334646 0,0 -3.06497,0.3751 -4.36621,0.40641 -2.37264,0.0571 -6.61383,-0.4448 -6.61383,-0.4448 z"
             id="path39"
             sodipodi:nodetypes="cscsscscsc" /></g><ellipse
           style="display:inline;fill:none;fill-opacity:1;stroke:#000000;stroke-width:1.5;stroke-linecap:round;stroke-linejoin:round;stroke-miterlimit:1001;stroke-dasharray:none;stroke-opacity:1;paint-order:stroke fill markers"
           id="ellipse39"
           ry="15.393556"
           rx="16.682619"
           cy="-119.60479"
           cx="-142.77336"
           inkscape:label="head" /></g><g
         id="g41"
         inkscape:label="eyes"
         transform="translate(-34.322565,-0.0667206)"
         style="display:inline"><ellipse
           style="fill:#000000;fill-opacity:1;stroke:none;stroke-width:0.593632;stroke-linecap:round;stroke-linejoin:round;stroke-miterlimit:1001;stroke-dasharray:none;stroke-opacity:1;paint-order:stroke fill markers"
           id="ellipse40"
           cx="-86.904243"
           cy="-98.34063"
           rx="2.1079104"
           ry="2.7033648"
           transform="matrix(0.96864121,0.2484637,-0.20869257,0.97798129,0,0)"
           inkscape:label="right" /><ellipse
           style="fill:#000000;fill-opacity:1;stroke:none;stroke-width:0.509367;stroke-linecap:round;stroke-linejoin:round;stroke-miterlimit:1001;stroke-dasharray:none;stroke-opacity:1;paint-order:stroke fill markers"
           id="ellipse41"
           cx="-36.557335"
           cy="-122.18265"
           rx="1.7384969"
           ry="2.4132938"
           transform="matrix(0.99463321,-0.10346393,0.09707266,0.9952773,0,0)"
           inkscape:label="left" /></g><g
         id="g50"
         transform="matrix(0.91473052,-0.18012182,0.18012182,0.91473052,100.78419,-224.60478)"
         inkscape:label="fire helmet"
         inkscape:highlight-color="#ee3b3b"
         style="display:inline;stroke-width:1.60893;stroke-dasharray:none"><path
           style="display:inline;fill:#f70a0a;fill-opacity:1;stroke:none;stroke-width:6.081;stroke-linecap:round;stroke-linejoin:round;stroke-dasharray:none;stroke-opacity:1"
           d="m 1532.4772,868.6423 c -13.8472,-0.70213 -34.0904,-2.99822 -35.07,-3.97782 -0.2807,-0.28075 2.0959,-7.94808 4.6674,-15.05751 11.6908,-32.3214 25.9618,-53.444 41.0092,-60.69809 6.3253,-3.04934 11.2602,-3.525 18.3737,-1.77098 18.7865,4.63235 31.2686,17.58382 36.0779,37.43451 1.337,5.51861 1.4674,5.2174 -2.2592,5.2174 -2.3675,0 -3.2475,0.13114 -3.5816,0.53371 -1.1177,1.34668 0.8998,6.51343 3.8051,9.74484 l 1.6664,1.85337 -4.002,-0.25323 c -3.3525,-0.21214 -4.1405,-0.16245 -4.8556,0.30615 -1.6744,1.0971 -0.7733,3.16153 2.794,6.40094 7.0914,6.43966 17.2177,10.71539 29.5324,12.46985 3.4112,0.48599 4.4433,0.76087 4.7212,1.25747 0.1956,0.34953 0.2199,0.76204 0.054,0.91668 -0.358,0.33349 -5.7275,1.5377 -10.2013,2.28784 -8.1677,1.36948 -22.8379,2.70699 -36.9464,3.36847 -8.7562,0.41054 -37.4411,0.38949 -45.7851,-0.0336 z"
           id="path41"
           transform="matrix(0.26458333,0,0,0.26458333,-635.84798,-168.84141)" /><path
           style="display:inline;fill:#f70a0a;fill-opacity:1;stroke:none;stroke-width:6.081;stroke-linecap:round;stroke-linejoin:round;stroke-dasharray:none;stroke-opacity:1"
           d="m 1543.0838,881.05051 c -42.1012,-1.35759 -70.1867,-4.87057 -79.8324,-9.98559 -1.1279,-0.59809 -2.3401,-1.49855 -2.6939,-2.00101 -1.3086,-1.8586 -2.1498,-3.92922 -2.1498,-5.29176 0,-4.11499 6.7952,-7.04576 18.5183,-7.98699 2.2593,-0.18139 2.7504,-0.13344 2.6018,0.25402 -0.7532,1.96262 -1.6759,6.07 -1.4931,6.64597 0.7793,2.45541 16.4102,6.47956 32.1686,8.28179 30.5831,3.49766 76.7899,2.86362 104.4453,-1.43318 6.5037,-1.01048 13.4674,-2.66314 14.7429,-3.49886 1.163,-0.76202 1.0882,-1.94561 -0.379,-5.99874 -1.4433,-3.98722 -1.9682,-3.70948 5.0011,-2.64629 5.1599,0.78715 9.8845,2.02243 12.245,3.2015 1.8502,0.92421 4.6868,3.62543 5.5419,5.27733 2.5316,4.89093 -0.5254,10.03303 -6.8253,11.48057 -5.7425,1.3195 -18.566,2.52174 -35.9537,3.37078 -9.9709,0.48688 -54.211,0.7086 -65.9377,0.33046 z"
           id="path42"
           transform="matrix(0.26458333,0,0,0.26458333,-635.84798,-168.84141)" /><path
           style="display:inline;fill:#610404;fill-opacity:1;stroke:none;stroke-width:6.081;stroke-linecap:round;stroke-linejoin:round;stroke-dasharray:none;stroke-opacity:1"
           d="m 1491.6418,863.66187 c -0.6806,-0.1722 -3.0358,-0.8708 -5.2336,-1.55242 -3.3055,-1.02512 -3.9647,-1.34346 -3.814,-1.84185 0.1003,-0.33139 1.1404,-3.71855 2.3115,-7.52702 14.3958,-46.81673 32.0719,-68.6456 59.6765,-73.69687 4.2978,-0.78643 13.39,-1.0755 17.0983,-0.5436 15.2534,2.18783 29.1774,14.07516 42.1397,35.97584 2.5594,4.32425 8.3833,15.35367 8.3833,15.87644 0,0.34624 -4.6161,0.25341 -7.5909,-0.15265 -1.7538,-0.2394 -1.7578,-0.24298 -2.0435,-1.8275 -3.5236,-19.5426 -13.4878,-33.83126 -28.7262,-41.19332 -6.513,-3.1466 -14.5886,-5.25402 -19.9757,-5.21286 -16.9123,0.12922 -33.9513,16.84531 -47.8809,46.97338 -3.6884,7.97773 -6.8206,16.0428 -9.9486,25.61682 -1.4898,4.55993 -2.8099,8.54457 -2.9336,8.85475 -0.1817,0.45555 -0.4628,0.50378 -1.4623,0.25086 z"
           id="path43"
           transform="matrix(0.26458333,0,0,0.26458333,-635.84798,-168.84141)" /><path
           style="fill:#fff100;fill-opacity:1;stroke:none;stroke-width:6.081;stroke-linecap:round;stroke-linejoin:round;stroke-dasharray:none;stroke-opacity:1"
           d="m 1620.6887,856.77735 c -9.0463,-1.43051 -17.5225,-4.64226 -23.6289,-8.95327 -1.4258,-1.00664 -2.5395,-1.86389 -2.4748,-1.905 0.065,-0.0411 3.2925,0.0685 7.173,0.24365 7.0402,0.3177 7.0567,0.3167 7.6898,-0.46504 1.3523,-1.67011 0.4774,-2.89118 -2.6566,-3.70749 -1.0927,-0.28461 -2.7215,-0.86286 -3.6196,-1.285 -1.9499,-0.91656 -5.1182,-3.73039 -6.1286,-5.44304 l -0.7256,-1.22971 1.6675,0.0209 c 2.9526,0.037 16.3169,0.89801 16.4517,1.05993 0.072,0.0861 1.0189,2.2249 2.1046,4.75281 1.7008,3.95988 3.1471,7.51071 6.3002,15.46796 l 0.6655,1.67938 -0.9672,-0.0481 c -0.5319,-0.0265 -1.3648,-0.11104 -1.851,-0.18792 z"
           id="path44"
           transform="matrix(0.26458333,0,0,0.26458333,-635.84798,-168.84141)" /><path
           style="display:inline;fill:none;stroke:#000000;stroke-width:1.60893;stroke-linecap:round;stroke-linejoin:round;stroke-dasharray:none;stroke-opacity:1"
           d="m -244.26465,59.22942 c 7.77213,3.538802 33.19581,2.755427 39.15833,0.661459"
           id="path45"
           sodipodi:nodetypes="cc"
           transform="translate(1.2048518e-5)" /><path
           style="display:inline;fill:none;stroke:#000000;stroke-width:1.60893;stroke-linecap:round;stroke-linejoin:round;stroke-dasharray:none;stroke-opacity:1"
           d="m -224.45397,38.558848 c -10.36122,0.08495 -15.97422,21.861197 -15.97422,21.861197"
           id="path46"
           sodipodi:nodetypes="cc"
           transform="translate(1.2048518e-5)" /><path
           style="display:inline;fill:none;stroke:#000000;stroke-width:1.60893;stroke-linecap:round;stroke-linejoin:round;stroke-dasharray:none;stroke-opacity:1"
           d="m -243.76461,57.049396 c -0.50481,-0.126203 -9.33901,0 -6.05774,4.4171 3.28128,4.417099 47.30807,3.999189 50.35494,2.019245 1.98937,-1.292746 1.89593,-3.280237 0.11014,-4.71231 -1.35812,-1.089111 -4.35772,-1.34278 -6.45931,-1.636025"
           id="path47"
           sodipodi:nodetypes="csssc"
           transform="translate(1.2048518e-5)" /><path
           style="display:inline;fill:none;stroke:#000000;stroke-width:1.60893;stroke-linecap:round;stroke-linejoin:round;stroke-dasharray:none;stroke-opacity:1"
           d="m -224.48149,38.566322 c 5.03356,0.517818 10.89264,3.628284 12.20225,12.421452"
           id="path48"
           sodipodi:nodetypes="cc"
           transform="translate(1.2048518e-5)" /><path
           style="display:inline;fill:none;stroke:#000000;stroke-width:1.60893;stroke-linecap:round;stroke-linejoin:round;stroke-dasharray:none;stroke-opacity:1"
           d="m -244.26942,59.194844 c 4.03849,-14.134719 9.06869,-22.716512 20.19245,-22.716512 8.20319,-1e-6 14.00852,9.212808 19.05663,23.347526"
           id="path49"
           sodipodi:nodetypes="csc"
           transform="translate(1.2048518e-5)" /><path
           style="display:inline;fill:none;stroke:#000000;stroke-width:1.60893;stroke-linecap:round;stroke-linejoin:round;stroke-dasharray:none;stroke-opacity:1"
           d="m -208.35037,51.54904 -5.93949,-0.336808 c 0,0 0.50921,2.796358 3.8768,3.357624 l -4.878,-0.220158 c 0,0 2.36407,3.578759 9.52021,4.186797"
           id="path50"
           sodipodi:nodetypes="ccccc"
           transform="translate(1.2048518e-5)" /></g><g
         id="g58"
         transform="matrix(0.26458333,0,0,0.26458333,-221.33751,-179.41474)"><path
           style="display:inline;fill:#b3b3b3;fill-opacity:1;stroke:#000000;stroke-width:6.09057;stroke-dasharray:none;stroke-opacity:0"
           d="m 378.60491,359.36506 c 15.45187,-16.9081 37.65088,-34.51157 54.98303,-45.52828 16.10235,-10.23503 38.24878,-19.97581 66.07968,-29.06417 11.73608,-3.83251 55.05862,-15.90745 55.58175,-15.49186 0.15186,0.12065 0.78748,2.4744 1.41249,5.23054 1.0973,4.8389 2.30408,8.10445 0.51964,8.53131 -33.81157,8.088 -41.50866,9.86181 -63.6485,17.82151 -35.65908,12.82014 -58.83435,26.8153 -89.46755,51.76576 -13.98316,11.38916 -13.90435,10.21063 -30.96433,12.75768 z"
           id="path54"
           sodipodi:nodetypes="ssssscsscs" /><path
           style="display:inline;fill:#ececec;fill-opacity:1;stroke:#000000;stroke-width:5.90439;stroke-dasharray:none;stroke-opacity:0"
           d="m 558.35848,277.09384 c -4.17464,-11.21411 -3.95216,-12.8269 15.35125,-17.31642 9.34159,-2.17266 12.93145,-2.28673 14.02545,0.0227 1.36937,2.89078 1.86076,4.91533 2.67257,7.80245 l -13.24636,7.7276 c -8.39701,4.8986 -15.46558,8.91153 -15.69506,8.93979 -0.22951,0.0282 -1.62802,-3.20102 -3.10785,-7.17616 z"
           id="path57"
           sodipodi:nodetypes="ssscsss" /><path
           style="fill:#b3b3b3;fill-opacity:0;stroke:#000000;stroke-width:5.66929;stroke-linecap:round;stroke-dasharray:none;stroke-opacity:1;paint-order:stroke markers fill"
           d="m 370.19219,365.26723 c 0,0 19.50617,-20.78485 30.37053,-29.96012 12.87908,-10.87676 26.37022,-21.24701 41.04127,-29.54971 14.7736,-8.36073 30.77925,-14.4612 46.78704,-20.11022 21.56618,-7.61053 66.07643,-18.46856 66.07643,-18.46856 l 3.69371,16.00609 c 0,0 -31.68885,7.13393 -47.19745,11.90196 -14.89214,4.57851 -29.62511,9.79627 -43.91415,16.0061 -8.30462,3.60908 -16.55911,7.47611 -24.21434,12.31238 -8.90634,5.62667 -16.96709,12.51529 -25.03517,19.28939 -8.23173,6.9115 -25.03518,21.75187 -25.03518,21.75187 z"
           id="path51"
           sodipodi:nodetypes="csssccsssscc" /><path
           style="display:inline;fill:#ececec;fill-opacity:0;stroke:#000000;stroke-width:5.66929;stroke-linecap:round;stroke-dasharray:none;stroke-opacity:1;paint-order:stroke markers fill"
           d="m 552.45339,263.65176 7.03696,21.47232 31.22626,-16.73874 -3.98164,-11.39223 z"
           id="path52"
           sodipodi:nodetypes="ccccc" /></g><g
         id="g59"
         transform="matrix(0.26458333,0,0,0.26458333,-218.26617,-173.11849)"
         style="display:inline"><path
           style="display:inline;fill:#ffffff;fill-opacity:1;stroke:#000000;stroke-width:3.29052;stroke-dasharray:none;stroke-opacity:0"
           d="m 428.27094,287.919 c -4.23213,-1.79937 -2.672,-13.29738 2.20687,-16.2644 3.00879,-1.82975 7.44008,-2.62618 9.96871,-1.79166 1.94754,0.64275 2.11693,0.87725 2.11693,2.93075 0,1.55106 0.4557,2.77367 1.49356,4.00709 1.85123,2.20006 1.56196,3.32009 -1.59379,6.17113 -4.14852,3.74794 -11.21731,6.21195 -14.19228,4.94709 z"
           id="path58" /><path
           style="display:inline;fill:#ffffff;fill-opacity:0;stroke:#000000;stroke-width:5.66929;stroke-linecap:round;stroke-dasharray:none;stroke-opacity:1;paint-order:stroke markers fill"
           d="m 445.77301,274.04274 c 0.561,1.61713 3.05037,2.46813 2.98468,4.17855 -0.17129,4.46022 -4.67901,8.12696 -8.59588,10.2673 -4.15396,2.2699 -10.10183,4.34437 -14.0877,1.79081 -3.12639,-2.00293 -3.76754,-6.93686 -3.34284,-10.62546 0.49182,-4.27156 2.80045,-9.02779 6.56629,-11.10301 4.7422,-2.61326 12.37336,-3.31617 16.23667,0.47754 1.19392,1.17241 -0.30964,3.43338 0.23878,5.01427 z"
           id="path53"
           sodipodi:nodetypes="aaaaaaaa"
           inkscape:transform-center-x="-0.35949333"
           inkscape:transform-center-y="0.47718417" /></g><g
         id="g60"
         transform="matrix(0.26458333,0,0,0.26458333,-217.95903,-169.12575)"
         style="display:inline"><path
           style="fill:#ffffff;fill-opacity:1;stroke:#000000;stroke-width:2.32675;stroke-dasharray:none;stroke-opacity:0"
           d="m 517.85089,258.9322 c -1.92288,-0.46144 -3.50711,-2.09002 -3.31433,-3.40711 0.0972,-0.66432 0.61622,-0.91494 2.65551,-1.28239 1.39407,-0.25119 2.85399,-0.72154 3.24428,-1.04522 1.1083,-0.91917 1.8137,-3.02714 1.8137,-5.41994 0,-2.73416 1.62879,-5.55538 3.80299,-6.5871 1.64157,-0.77898 5.01037,-0.90503 6.73841,-0.25213 4.22405,1.59596 6.92525,8.6733 4.60127,12.05567 -1.32462,1.92789 -4.19734,3.92574 -7.24966,5.04183 -3.13988,1.1481 -9.35468,1.60131 -12.29217,0.89639 z"
           id="path59" /><path
           style="display:inline;fill:#ffffff;fill-opacity:0;stroke:#000000;stroke-width:4.30654;stroke-linecap:round;stroke-opacity:1;paint-order:stroke markers fill"
           d="m 512.18814,256.26645 c -0.23221,-1.22845 0.22369,-2.72219 1.13941,-3.57334 1.39239,-1.29421 4.02794,-0.18626 5.54538,-1.3313 1.84776,-1.39429 0.40493,-5.47207 1.71829,-7.78068 1.20032,-2.10989 2.98831,-4.2751 5.3101,-4.98345 3.41894,-1.04309 7.94134,-0.68318 10.58413,1.72365 3.35787,3.05806 5.6526,9.22187 3.43455,13.18512 -4.08919,7.30664 -16.02254,9.76198 -24.03032,7.31575 -1.87128,-0.57164 -3.33812,-2.63315 -3.70154,-4.55575 z"
           id="path32"
           sodipodi:nodetypes="aasaaaaaa" /></g></g><g
       id="g72"
       inkscape:label="fire extinguisher 1"
       transform="matrix(0.53475708,0,0,0.53476183,98.040104,283.02102)"><path
         style="display:inline;fill:#ff0000;fill-opacity:1;stroke:#ff0000;stroke-width:3.57523;stroke-dasharray:none;stroke-opacity:0"
         d="m 981.55432,718.69408 c -6.2813,-1.06675 -12.7941,-3.71191 -14.84396,-6.02885 l -1.9249,-2.1757 0.003,-60.27552 c 0.002,-34.45934 0.26526,-61.76277 0.61424,-63.7479 1.1135,-6.33354 6.12625,-11.77803 15.01717,-16.31062 2.8279,-1.44165 2.99552,-1.67399 3.18418,-4.41312 l 0.19913,-2.89136 h 7.11681 7.11683 l 0.19748,3.09011 c 0.19686,3.08051 0.20763,3.09411 3.4642,4.37402 4.8535,1.90751 10.09,5.83651 12.3623,9.27531 l 2.011,3.04355 0.1784,63.25778 0.1779,63.2578 -3.454,3.09131 c -4.8483,4.33921 -11.1716,6.35635 -21.07574,6.72327 -3.95273,0.14644 -8.60789,0.0249 -10.34483,-0.27008 z"
         id="path68" /><path
         style="display:inline;fill:#ff0000;fill-opacity:0;stroke:#000000;stroke-width:1.5;stroke-dasharray:none;stroke-opacity:1"
         d="M 33.737439,-22.392384 V 8.2442518 c 0,0 0.761907,0.9112317 1.246369,1.2417119 0.779775,0.5319313 1.744248,0.9262563 2.592806,1.1385773 0.851551,0.21307 1.732981,0.329733 2.610641,0.345528 0.938333,0.01689 1.88669,-0.06414 2.802599,-0.268743 0.888861,-0.198564 1.791233,-0.4529 2.572261,-0.9214035 0.637073,-0.3821518 1.226891,-0.8872232 1.650841,-1.4972797 0.196638,-0.2829591 0.38391,-0.9597945 0.38391,-0.9597945 V -23.160221 l -0.307128,-1.785215 -1.036584,-1.650846 -1.804406,-1.305322 -1.237924,-0.521055 0.02715,-1.818854 h -5.022212 v 1.764559 l -1.140177,0.597236 -1.927442,1.520238 -1.113031,1.900296 z"
         id="path69"
         transform="matrix(3.7795276,0,0,3.7795276,836.55122,678.10297)"
         sodipodi:nodetypes="ccasssssccccccccccccc" /><path
         style="fill:#ffd500;fill-opacity:0;stroke:#000000;stroke-width:7.55906;stroke-dasharray:none;stroke-opacity:1"
         d="m 952.36246,529.02186 35.29548,23.59873 h -44.32456"
         id="path70" /><rect
         style="fill:#ffd500;fill-opacity:1;stroke:#000000;stroke-width:5.66929;stroke-dasharray:none;stroke-opacity:1"
         id="rect70"
         width="25.661425"
         height="14.633615"
         x="977.49573"
         y="549.15234" /><circle
         style="display:inline;fill:#cccccc;fill-opacity:1;stroke:#000000;stroke-width:5.66929;stroke-dasharray:none;stroke-opacity:1"
         id="circle70"
         cx="998.77368"
         cy="550.51776"
         r="7.2386665" /><path
         style="fill:#cccccc;fill-opacity:0;stroke:#000000;stroke-width:7.55906;stroke-dasharray:none;stroke-opacity:1"
         d="m 1006.5369,550.15811 c 26.0613,-9.6447 31.1914,20.52063 31.1914,20.52063"
         id="path71"
         sodipodi:nodetypes="cc" /><path
         style="fill:#000000;fill-opacity:1;stroke:#000000;stroke-width:5.66929;stroke-dasharray:none;stroke-opacity:1"
         d="m 1032.2561,574.30595 12.1661,-2.11848 19.9651,60.1449 -29.2117,5.08665 z"
         id="path72"
         sodipodi:nodetypes="ccccc" /><path
         style="fill:#ffffff;fill-opacity:1;stroke:#000000;stroke-width:1.79527;stroke-dasharray:none;stroke-opacity:0"
         d="m 977.25031,443.09663 c -3.70514,-0.45882 -7.48,-1.15643 -10.24228,-1.89281 l -2.55222,-0.68036 v -33.04879 -33.04881 l 0.71682,0.17347 c 2.0175,0.48823 7.83153,1.51702 11.07106,1.95904 5.80742,0.79239 19.78885,0.96343 25.48551,0.3118 3.9832,-0.45566 11.4087,-1.72697 13.1437,-2.2503 0.5285,-0.15943 0.5575,1.54363 0.5575,32.71897 V 440.226 l -2.9469,0.64508 c -7.9875,1.74841 -12.94512,2.24978 -23.65544,2.39226 -5.08153,0.0675 -10.29152,-0.007 -11.57775,-0.16671 z"
         id="path78"
         transform="translate(0,239.68096)" /><path
         style="display:inline;fill:#ffffff;fill-opacity:0;stroke:#000000;stroke-width:5.61876;stroke-dasharray:none;stroke-opacity:1"
         d="m 964.10425,373.09824 c 0,0 10.72723,3.81041 26.87727,3.92069 13.86868,0.0946 25.01778,-3.77559 25.01778,-3.77559 v 66.74373 c 0,0 -8.3785,3.45506 -26.78724,3.90194 -16.60082,0.40298 -25.17603,-3.90194 -25.17603,-3.90194 z"
         id="path77"
         sodipodi:nodetypes="csccscc"
         transform="translate(0,239.68096)" /></g><g
       id="g85"
       inkscape:label="fire extinguisher 2"
       transform="matrix(0.53476175,0,0,0.53476175,224.15023,283.02106)"><path
         style="display:inline;fill:#ff0000;fill-opacity:1;stroke:#ff0000;stroke-width:3.57523;stroke-dasharray:none;stroke-opacity:0"
         d="m 981.55432,718.69408 c -6.2813,-1.06675 -12.7941,-3.71191 -14.84396,-6.02885 l -1.9249,-2.1757 0.003,-60.27552 c 0.002,-34.45934 0.26526,-61.76277 0.61424,-63.7479 1.1135,-6.33354 6.12625,-11.77803 15.01717,-16.31062 2.8279,-1.44165 2.99552,-1.67399 3.18418,-4.41312 l 0.19913,-2.89136 h 7.11681 7.11683 l 0.19748,3.09011 c 0.19686,3.08051 0.20763,3.09411 3.4642,4.37402 4.8535,1.90751 10.09,5.83651 12.3623,9.27531 l 2.011,3.04355 0.1784,63.25778 0.1779,63.2578 -3.454,3.09131 c -4.8483,4.33921 -11.1716,6.35635 -21.07574,6.72327 -3.95273,0.14644 -8.60789,0.0249 -10.34483,-0.27008 z"
         id="path79" /><path
         style="display:inline;fill:#ff0000;fill-opacity:0;stroke:#000000;stroke-width:1.5;stroke-dasharray:none;stroke-opacity:1"
         d="M 33.737439,-22.392384 V 8.2442518 c 0,0 0.761907,0.9112317 1.246369,1.2417119 0.779775,0.5319313 1.744248,0.9262563 2.592806,1.1385773 0.851551,0.21307 1.732981,0.329733 2.610641,0.345528 0.938333,0.01689 1.88669,-0.06414 2.802599,-0.268743 0.888861,-0.198564 1.791233,-0.4529 2.572261,-0.9214035 0.637073,-0.3821518 1.226891,-0.8872232 1.650841,-1.4972797 0.196638,-0.2829591 0.38391,-0.9597945 0.38391,-0.9597945 V -23.160221 l -0.307128,-1.785215 -1.036584,-1.650846 -1.804406,-1.305322 -1.237924,-0.521055 0.02715,-1.818854 h -5.022212 v 1.764559 l -1.140177,0.597236 -1.927442,1.520238 -1.113031,1.900296 z"
         id="path80"
         transform="matrix(3.7795276,0,0,3.7795276,836.55122,678.10297)"
         sodipodi:nodetypes="ccasssssccccccccccccc" /><path
         style="fill:#ffd500;fill-opacity:0;stroke:#000000;stroke-width:7.55906;stroke-dasharray:none;stroke-opacity:1"
         d="m 952.36246,529.02186 35.29548,23.59873 h -44.32456"
         id="path81" /><rect
         style="fill:#ffd500;fill-opacity:1;stroke:#000000;stroke-width:5.66929;stroke-dasharray:none;stroke-opacity:1"
         id="rect81"
         width="25.661425"
         height="14.633615"
         x="977.49573"
         y="549.15234" /><circle
         style="display:inline;fill:#cccccc;fill-opacity:1;stroke:#000000;stroke-width:5.66929;stroke-dasharray:none;stroke-opacity:1"
         id="circle81"
         cx="998.77368"
         cy="550.51776"
         r="7.2386665" /><path
         style="fill:#cccccc;fill-opacity:0;stroke:#000000;stroke-width:7.55906;stroke-dasharray:none;stroke-opacity:1"
         d="m 1006.5369,550.15811 c 26.0613,-9.6447 44.1194,-6.77181 44.1194,-6.77181"
         id="path82"
         sodipodi:nodetypes="cc" /><path
         style="fill:#000000;fill-opacity:1;stroke:#000000;stroke-width:5.66929;stroke-dasharray:none;stroke-opacity:1"
         d="m 1052.0856,550.34225 1.8426,-12.21094 63.372,0.10569 -4.4243,29.31933 z"
         id="path83"
         sodipodi:nodetypes="ccccc" /><path
         style="fill:#ffffff;fill-opacity:1;stroke:#000000;stroke-width:1.79527;stroke-dasharray:none;stroke-opacity:0"
         d="m 977.25031,443.09663 c -3.70514,-0.45882 -7.48,-1.15643 -10.24228,-1.89281 l -2.55222,-0.68036 v -33.04879 -33.04881 l 0.71682,0.17347 c 2.0175,0.48823 7.83153,1.51702 11.07106,1.95904 5.80742,0.79239 19.78885,0.96343 25.48551,0.3118 3.9832,-0.45566 11.4087,-1.72697 13.1437,-2.2503 0.5285,-0.15943 0.5575,1.54363 0.5575,32.71897 V 440.226 l -2.9469,0.64508 c -7.9875,1.74841 -12.94512,2.24978 -23.65544,2.39226 -5.08153,0.0675 -10.29152,-0.007 -11.57775,-0.16671 z"
         id="path84"
         transform="translate(0,239.68096)" /><path
         style="display:inline;fill:#ffffff;fill-opacity:0;stroke:#000000;stroke-width:5.61876;stroke-dasharray:none;stroke-opacity:1"
         d="m 964.10425,373.09824 c 0,0 10.72723,3.81041 26.87727,3.92069 13.86868,0.0946 25.01778,-3.77559 25.01778,-3.77559 v 66.74373 c 0,0 -8.3785,3.45506 -26.78724,3.90194 -16.60082,0.40298 -25.17603,-3.90194 -25.17603,-3.90194 z"
         id="path85"
         sodipodi:nodetypes="csccscc"
         transform="translate(0,239.68096)" /></g><path
       style="fill:#ffffff;fill-opacity:0.75;stroke:#000000;stroke-width:4.20382;stroke-linecap:round;stroke-linejoin:round;stroke-dasharray:none;stroke-opacity:1"
       d="m 985.39491,683.2286 c -9.00912,9.87751 -14.71988,7.83353 -19.87418,-0.918 -6.24935,11.09167 -17.26949,12.02806 -22.33114,2.31826 -1.83917,-3.61616 0.0778,-5.06625 -7.72737,-8.53184 -11.82139,-5.24884 -7.36316,-17.63848 1.05936,-25.35651 l -37.65814,-41.19265 2.95537,-12.52458 57.04808,0.67379 c -3.63748,-2.17706 -1.89912,-7.1286 1.65441,-7.60534 -3.01544,-12.65649 4.82737,-17.54424 17.58495,-12.9194 3.0257,-3.7607 8.37455,-3.13107 10.8284,-2.82717 15.70835,-17.28426 37.02675,-3.95087 31.93535,14.17926 20.3534,1.77517 27.4365,16.617 14.0397,28.49728 12.6254,10.33114 14.5904,19.1684 5.6901,28.54955 2.3816,23.90166 -7.1679,34.13075 -25.2841,27.92369 -2.9786,22.25553 -20.24953,24.51844 -29.92079,9.73366 z"
       id="path107"
       inkscape:label="smoke"
       sodipodi:nodetypes="cccscccccccccccc" /><g
       id="g114"
       inkscape:label="water"
       transform="matrix(0.90272647,0,0,0.90272647,257.56126,1096.4358)"><path
         style="fill:#c9ffff;fill-opacity:0.8;stroke:#000000;stroke-width:4.6568;stroke-linecap:round;stroke-linejoin:round;stroke-dasharray:none;stroke-opacity:1"
         d="M 676.36467,354.34694 C 643.53511,241.25183 448.36738,293.73452 384.42782,300.59993 494.33386,265.04021 675.67001,246.77148 691.13153,129.17485 c 2.69223,-23.92217 19.71483,-25.15353 21.69888,4.43097 11.11562,-2.44221 10.98536,7.58459 4.48986,16.13256 48.95031,-10.69687 27.85783,34.12081 15.78401,37.85763 36.65839,8.48528 22.44674,60.27485 3.85114,63.96165 27.36215,13.48918 13.74984,31.41273 -4.88843,36.6624 -3.41949,10.03189 16.57774,16.44936 9.96283,21.97481 -9.19338,7.67926 -26.18607,-10.26334 -35.93559,0.19722 28.70296,20.62077 40.66135,66.30272 -4.4981,40.23095 7.24037,46.31901 -17.2689,48.02044 -25.23146,3.7239 z"
         id="path109"
         sodipodi:nodetypes="ccccccccsccc" /><path
         style="display:inline;fill:#c9ffff;fill-opacity:0.8;stroke:#000000;stroke-width:4.6568;stroke-linejoin:round;stroke-dasharray:none;stroke-opacity:1"
         d="m 648.84369,183.25558 c 3.45405,-15.63181 2.10464,-31.70794 0.51869,-47.73577 -1.2653,-12.7873 15.54439,-19.41768 18.7583,-6.85341 5.65589,22.11082 -5.29313,40.18096 -19.27699,54.58918 z"
         id="path111"
         sodipodi:nodetypes="cssc" /><path
         style="display:inline;fill:#c9ffff;fill-opacity:0.8;stroke:#000000;stroke-width:4.6568;stroke-linejoin:round;stroke-dasharray:none;stroke-opacity:1"
         d="m 728.61227,321.00255 c 5.73658,6.03851 9.91811,13.26857 13.64581,20.86061 3.75948,7.65677 12.5979,7.61839 11.98959,0.20573 -1.02727,-12.51786 -15.03374,-18.28953 -25.6354,-21.06634 z"
         id="path112"
         sodipodi:nodetypes="cssc" /></g></g></svg>
