<?xml version="1.0" encoding="UTF-8" standalone="no"?>
<!-- Created with Inkscape (http://www.inkscape.org/) -->

<svg
   width="14.791199mm"
   height="19.699842mm"
   viewBox="0 0 55.903745 74.4561"
   version="1.1"
   id="svg1"
   xml:space="preserve"
   inkscape:version="1.2.2 (732a01da63, 2022-12-09)"
   sodipodi:docname="fire1.svg"
   xmlns:inkscape="http://www.inkscape.org/namespaces/inkscape"
   xmlns:sodipodi="http://sodipodi.sourceforge.net/DTD/sodipodi-0.dtd"
   xmlns="http://www.w3.org/2000/svg"
   xmlns:svg="http://www.w3.org/2000/svg"><sodipodi:namedview
     id="namedview1"
     pagecolor="#505050"
     bordercolor="#eeeeee"
     borderopacity="1"
     inkscape:showpageshadow="0"
     inkscape:pageopacity="0"
     inkscape:pagecheckerboard="0"
     inkscape:deskcolor="#d1d1d1"
     inkscape:document-units="mm"
     inkscape:zoom="0.42534834"
     inkscape:cx="391.44387"
     inkscape:cy="593.63109"
     inkscape:window-width="1827"
     inkscape:window-height="1057"
     inkscape:window-x="-9"
     inkscape:window-y="-9"
     inkscape:window-maximized="1"
     inkscape:current-layer="g40"
     showgrid="false" /><defs
     id="defs1"><inkscape:path-effect
       effect="fillet_chamfer"
       id="path-effect17"
       is_visible="true"
       lpeversion="1"
       nodesatellites_param="F,0,0,1,0,0,0,1 @ F,0,0,1,0,0,0,1 @ F,0,0,1,0,0,0,1 @ F,0,0,1,0,0,0,1 @ F,0,0,1,0,0,0,1 @ F,0,0,1,0,0,0,1 @ F,0,0,1,0,0,0,1 @ F,0,0,1,0,0,0,1 @ F,0,0,1,0,0,0,1 @ F,0,0,1,0,0,0,1 @ F,0,0,1,0,0,0,1 @ F,0,0,1,0,0,0,1 @ F,0,0,1,0,0,0,1 @ F,0,0,1,0,0,0,1 @ F,0,0,1,0,0,0,1 @ F,0,0,1,0,0,0,1 @ F,0,0,1,0,0,0,1 @ F,0,0,1,0,0,0,1 @ F,0,0,1,0,0,0,1 @ F,0,0,1,0,0,0,1 @ F,0,0,1,0,0,0,1 @ F,0,0,1,0,0,0,1 @ F,0,0,1,0,0,0,1"
       radius="0"
       unit="px"
       method="auto"
       mode="F"
       chamfer_steps="1"
       flexible="false"
       use_knot_distance="true"
       apply_no_radius="true"
       apply_with_radius="true"
       only_selected="false"
       hide_knots="false" /></defs><g
     inkscape:label="Layer 1"
     inkscape:groupmode="layer"
     id="layer1"
     style="display:inline"
     transform="translate(-81.380325,-304.6357)"><g
       id="g40"
       inkscape:label="fire 1"
       transform="translate(-242.00001,1)"><path
         style="fill:#fd5505;fill-opacity:1;stroke:#000000;stroke-width:3.02363;stroke-linecap:round;stroke-linejoin:round;stroke-dasharray:none;stroke-opacity:1;paint-order:fill markers stroke"
         d="m 347.1876,376.28245 c -3.836,-0.61206 -7.73585,-1.79343 -10.96018,-3.95981 -2.97823,-2.00103 -5.34023,-4.92952 -7.21252,-7.99033 -1.76343,-2.88287 -2.95398,-6.15936 -3.60625,-9.47526 -0.55063,-2.79924 -0.71937,-5.74859 -0.21213,-8.55602 0.43812,-2.42493 1.29953,-4.87251 2.75772,-6.85895 1.10011,-1.49864 4.31337,-3.53555 4.31337,-3.53555 0,0 -1.56991,2.96813 -1.83848,4.59621 -0.21515,1.3042 -0.46968,2.82739 0.21213,3.95981 0.56712,0.94195 1.7403,1.53935 2.82843,1.69706 0.74681,0.10824 1.58202,-0.12148 2.19204,-0.56569 0.67661,-0.49269 0.98138,-1.36672 1.34351,-2.12132 0.37731,-0.78625 0.74575,-1.60886 0.84853,-2.47488 0.14787,-1.24603 -0.15878,-2.50812 -0.35356,-3.74768 -0.3897,-2.48011 -1.43579,-4.85063 -1.62635,-7.35393 -0.13626,-1.79004 0.35356,-5.37403 0.35356,-5.37403 0,0 0.6185,-4.15812 1.41421,-6.08114 0.78523,-1.89768 1.95778,-3.63856 3.25271,-5.2326 1.37701,-1.69509 2.98861,-3.21767 4.73763,-4.5255 1.89416,-1.41636 6.15184,-3.53554 6.15184,-3.53554 0,0 -2.27704,3.69176 -3.18199,5.65687 -0.86086,1.86936 -1.76366,3.77155 -2.12132,5.79829 0,0 -0.91337,3.18209 -0.84853,4.80834 0.0485,1.21673 0.2704,2.50511 0.91923,3.53555 0.73972,1.17476 1.94368,2.05946 3.18199,2.68701 0.62723,0.31786 1.34882,0.53885 2.05062,0.49498 0.93063,-0.0582 1.82851,-0.49113 2.61631,-0.98995 0.77459,-0.49048 1.48198,-1.13937 1.9799,-1.9092 0.53042,-0.82009 0.78151,-1.80355 0.98995,-2.75773 0.17671,-0.8089 0.23043,-1.64709 0.21214,-2.47488 -0.0121,-0.54657 -0.21214,-1.62634 -0.21214,-1.62634 l 4.03052,4.94976 c 0,0 1.66275,3.56121 2.19204,5.44473 0.50423,1.79435 0.91924,5.51545 0.91924,5.51545 0.35315,2.11891 -0.009,4.31443 -0.35355,6.43469 -0.24329,1.49564 -0.86062,2.90776 -1.20209,4.38408 -0.20001,0.86474 -0.63879,1.74046 -0.49497,2.6163 0.0955,0.58171 0.86716,1.54131 0.86716,1.54131 0,0 1.58185,0.75488 2.42501,0.725 1.13069,-0.0401 2.25014,-0.54831 3.17501,-1.2 0.71524,-0.50398 1.25553,-1.24635 1.7,-2.00001 0.40728,-0.69059 0.85001,-2.25001 0.85001,-2.25001 l -0.35,-2.7 c 0,0 2.12211,2.43849 2.75,3.90001 0.33546,0.78083 0.4219,1.65376 0.5,2.50001 0.11489,1.24482 0.17712,2.52069 -0.05,3.75001 -0.15806,0.85555 -0.9,2.45 -0.9,2.45 l -2,2.30001 c -0.45039,0.51795 -0.75096,1.16041 -1.00001,1.80001 -0.15548,0.39929 -0.3,1.25 -0.3,1.25 0,0 0.45159,0.65568 0.8,0.8 0.76991,0.31891 1.71365,0.27584 2.50001,0 1.00703,-0.35325 1.75304,-1.23781 2.50001,-2 0.63232,-0.64521 1.65,-2.15001 1.65,-2.15001 0,0 0.37476,2.67391 0.05,3.95001 -0.50425,1.98142 -1.76042,3.72406 -3,5.35002 -1.1361,1.4902 -2.53085,2.78684 -4.00002,3.95001 -1.69677,1.34336 -3.55245,2.50627 -5.50001,3.45001 -2.54751,1.23445 -5.21814,2.32583 -8.00003,2.85001 -3.25775,0.61384 -6.66702,0.82315 -9.9407,0.30081 z"
         id="path29"
         sodipodi:nodetypes="sssssacsasssssscssscssasssssssccssssscsssccssscsscssscssssss" /><path
         style="display:inline;fill:#ffb230;fill-opacity:1;stroke:#000000;stroke-width:3.02363;stroke-linecap:round;stroke-linejoin:miter;stroke-dasharray:none;stroke-opacity:0;paint-order:fill markers stroke"
         d="m 345.33595,374.11676 c -1.33896,-0.48083 -2.96465,-1.61523 -4.17195,-2.47488 -1.20729,-0.85966 -2.12142,-1.54874 -3.08575,-2.61026 -0.96434,-1.06153 -1.99348,-2.58708 -2.60001,-3.75001 -0.60653,-1.16294 -0.83404,-1.88939 -1.15,-3.10001 -0.31597,-1.21063 -0.72039,-2.88178 -0.65001,-4.15002 0.0704,-1.26824 0.54621,-2.35011 0.90001,-3.30001 0.3538,-0.94989 0.54636,-1.54748 1.15,-2.4 0.60364,-0.85252 1.93856,-2.0197 2.55001,-2.55001 0.61144,-0.53031 0.607,-1.05287 1,-0.75 0.39301,0.30287 -0.50114,0.95324 -0.65,1.6 -0.14886,0.64676 -0.24341,1.41001 -0.15,2.25001 0.0934,0.83999 0.37898,2.0203 0.8,2.70001 0.42102,0.6797 0.84897,1.06019 1.45001,1.35 0.60103,0.28981 1.37264,0.39956 2,0.3 0.62736,-0.0996 1.08092,-0.36098 1.60001,-0.8 0.51908,-0.43902 1.02744,-1.08558 1.35,-1.85001 0.32257,-0.76442 0.46258,-1.68402 0.45,-2.65 -0.0126,-0.96599 -0.42773,-2.02828 -0.6,-3.05001 -0.18888,-1.12028 -0.47136,-2.23088 -0.475,-3.37501 -0.004,-1.14413 0.083,-2.20733 0.425,-3.37501 0.34196,-1.16768 0.83232,-2.47165 1.5,-3.65001 0.66769,-1.17836 1.54385,-2.33495 2.50001,-3.35001 0.95616,-1.01507 2.18576,-1.93785 3.20001,-2.70001 1.01425,-0.76216 2.42788,-1.79313 3.48641,-1.12219 1.05852,0.67094 -0.9621,2.53705 -1.34247,3.83788 -0.40261,1.37689 -0.9035,2.75604 -0.99142,4.18788 -0.15989,2.60371 -0.0711,5.34099 0.85754,7.7787 1.14562,3.00729 2.51966,6.28598 5.59499,7.8678 0.92805,0.37118 2.13264,0.49065 2.89498,0.4 0.76234,-0.0907 1.44736,-0.3817 2.00001,-0.85001 0.66316,-0.56194 0.63231,-2.30358 1.4,-2.2 0.7677,0.10358 0.50126,1.1063 0.6,1.95 0.0987,0.84371 0.31345,2.33209 0.25,3.50001 -0.11119,2.04672 -0.38645,4.1285 -1.1,6.05002 -0.65277,1.75785 -2.07141,3.71481 -2.85001,4.85002 -2.00016,2.42495 -4.91178,3.83161 -7.70002,5.15001 -0.94807,0.46071 -4.30781,0.89612 -5.45002,1.05 -2.4482,-0.0397 -2.62813,0.0156 -4.99233,-0.76487 z"
         id="path20"
         sodipodi:nodetypes="zzzzzzzzzzzzzzzzzzazzzzzcaaazcazzaazzcz" /><path
         style="display:inline;fill:#feec96;fill-opacity:1;stroke:#feec96;stroke-width:1.51182;stroke-linecap:round;stroke-linejoin:round;stroke-dasharray:none;stroke-opacity:1;paint-order:markers fill stroke"
         d="m 348.24222,348.76905 c 0,0 1.69194,1.93077 2.34174,3.02925 0.64513,1.09058 1.12232,2.28152 1.5162,3.48586 0.35262,1.07818 0.60922,2.19395 0.74897,3.31969 0.0917,0.73829 0.12435,1.49036 0.056,2.23118 -0.079,0.85676 -0.69845,1.68021 -0.53546,2.52503 0.0868,0.45004 0.37061,0.90918 0.76514,1.14245 0.42347,0.25038 1.01776,0.32169 1.47024,0.12862 0.53817,-0.22964 0.93211,-0.80765 1.09956,-1.3683 0.25567,-0.85597 -0.25806,-2.66757 -0.25806,-2.66757 0,0 1.12842,2.64721 1.36071,4.05338 0.21415,1.29645 0.34408,2.67015 0.014,3.94203 -0.44927,1.73105 -1.17744,3.62966 -2.62583,4.67872 -1.37887,0.99871 -3.31528,1.13247 -5.01154,0.98626 -1.18678,-0.10229 -2.39891,-0.54507 -3.33649,-1.27981 -0.59829,-0.46886 -0.96887,-1.1889 -1.30198,-1.87213 -0.2958,-0.60669 -0.48613,-1.26897 -0.59765,-1.93465 -0.17689,-1.05588 -0.27132,-2.15269 -0.10389,-3.21012 0.1579,-0.99729 0.55602,-1.95683 1.02846,-2.8492 0.69651,-1.3156 1.87909,-2.32512 2.62161,-3.6153 0.59598,-1.03556 1.18731,-2.11208 1.4519,-3.27722 0.31013,-1.36563 0.2779,-2.80743 0.12421,-4.19937 -0.12265,-1.11079 -0.82787,-3.2488 -0.82787,-3.2488"
         id="path8"
         sodipodi:nodetypes="caaaaasaacaaaaaaaaaaaac"
         inkscape:path-effect="#path-effect17"
         inkscape:original-d="m 348.24222,348.76905 c 0,0 1.69194,1.93077 2.34174,3.02925 0.64513,1.09058 1.12232,2.28152 1.5162,3.48586 0.35262,1.07818 0.60922,2.19395 0.74897,3.31969 0.0917,0.73829 0.12435,1.49036 0.056,2.23118 -0.079,0.85676 -0.69845,1.68021 -0.53546,2.52503 0.0868,0.45004 0.37061,0.90918 0.76514,1.14245 0.42347,0.25038 1.01776,0.32169 1.47024,0.12862 0.53817,-0.22964 0.93211,-0.80765 1.09956,-1.3683 0.25567,-0.85597 -0.25806,-2.66757 -0.25806,-2.66757 0,0 1.12842,2.64721 1.36071,4.05338 0.21415,1.29645 0.34408,2.67015 0.014,3.94203 -0.44927,1.73105 -1.17744,3.62966 -2.62583,4.67872 -1.37887,0.99871 -3.31528,1.13247 -5.01154,0.98626 -1.18678,-0.10229 -2.39891,-0.54507 -3.33649,-1.27981 -0.59829,-0.46886 -0.96887,-1.1889 -1.30198,-1.87213 -0.2958,-0.60669 -0.48613,-1.26897 -0.59765,-1.93465 -0.17689,-1.05588 -0.27132,-2.15269 -0.10389,-3.21012 0.1579,-0.99729 0.55602,-1.95683 1.02846,-2.8492 0.69651,-1.3156 1.87909,-2.32512 2.62161,-3.6153 0.59598,-1.03556 1.18731,-2.11208 1.4519,-3.27722 0.31013,-1.36563 0.2779,-2.80743 0.12421,-4.19937 -0.12265,-1.11079 -0.82787,-3.2488 -0.82787,-3.2488" /><path
         style="fill:#fd5505;fill-opacity:1;stroke:#000000;stroke-width:3.02363;stroke-linecap:round;stroke-linejoin:round;stroke-dasharray:none;stroke-opacity:1;paint-order:fill markers stroke"
         d="m 369.53224,326.5727 c 0,0 0.95844,1.1182 1.16673,1.80312 0.21262,0.69917 0.21514,1.48373 0.0354,2.19204 -0.18304,0.72119 -0.89644,1.22776 -1.09602,1.94455 -0.21188,0.76101 -0.29583,1.61162 -0.0707,2.36882 0.18819,0.633 0.68987,1.13524 1.13138,1.62635 0.62557,0.69586 2.12132,1.83848 2.12132,1.83848 0,0 0.69347,-0.93006 1.06067,-1.37886 0.45492,-0.55603 1.01917,-1.02631 1.41422,-1.62635 0.3884,-0.58995 0.82773,-1.20883 0.91923,-1.9092 0.1057,-0.80902 -0.0318,-1.70944 -0.45962,-2.40417 -0.30408,-0.49374 -1.24597,-1.00073 -1.37886,-1.06066 0,0 -1.24468,-0.40323 -1.80313,-0.81318 -0.55845,-0.40995 -1.44957,-1.62635 -1.44957,-1.62635 -0.41151,-0.46169 -1.591,-0.95459 -1.591,-0.95459 z"
         id="path38"
         sodipodi:nodetypes="cssssscssssszsc" /></g></g></svg>
