<?xml version="1.0" encoding="UTF-8" standalone="no"?>
<!-- Created with Inkscape (http://www.inkscape.org/) -->

<svg
   width="37.861599mm"
   height="25.371172mm"
   viewBox="0 0 143.09896 95.891048"
   version="1.1"
   id="svg1"
   xml:space="preserve"
   sodipodi:docname="smoke1.svg"
   inkscape:version="1.2.2 (732a01da63, 2022-12-09)"
   xmlns:inkscape="http://www.inkscape.org/namespaces/inkscape"
   xmlns:sodipodi="http://sodipodi.sourceforge.net/DTD/sodipodi-0.dtd"
   xmlns="http://www.w3.org/2000/svg"
   xmlns:svg="http://www.w3.org/2000/svg"><sodipodi:namedview
     id="namedview1"
     pagecolor="#505050"
     bordercolor="#eeeeee"
     borderopacity="1"
     inkscape:showpageshadow="0"
     inkscape:pageopacity="0"
     inkscape:pagecheckerboard="0"
     inkscape:deskcolor="#505050"
     inkscape:document-units="mm"
     inkscape:zoom="0.70177579"
     inkscape:cx="274.30413"
     inkscape:cy="281.42892"
     inkscape:window-width="1827"
     inkscape:window-height="1057"
     inkscape:window-x="-9"
     inkscape:window-y="-9"
     inkscape:window-maximized="1"
     inkscape:current-layer="layer1"
     showgrid="false" /><defs
     id="defs1" /><g
     inkscape:label="Layer 1"
     inkscape:groupmode="layer"
     id="layer1"
     transform="translate(-65.480206,-64.214122)"><g
       id="g5"
       inkscape:label="smoke 1"
       style="display:inline;opacity:0.75;fill:#ffffff;fill-opacity:1;stroke:#808080;stroke-width:5.66929;stroke-dasharray:none;stroke-opacity:1"
       transform="matrix(0.69999814,0,0,0.69999814,-107.31263,15.032462)"><path
         style="display:inline;fill:#ffffff;fill-opacity:1;stroke:#808080;stroke-width:5.66929;stroke-linecap:round;stroke-linejoin:round;stroke-dasharray:none;stroke-opacity:1"
         d="m 301.37832,201.63135 c 3.18686,-1.01282 1.19785,-6.71113 2.84991,-9.61846 2.07582,-3.65309 5.27682,-6.62743 8.54974,-9.26221 3.10937,-2.50312 6.57228,-4.71206 10.33093,-6.05607 4.30153,-1.53813 8.97212,-2.31088 13.53709,-2.13743 4.63385,0.17607 9.30326,1.31453 13.53709,3.20615 3.79702,1.69646 7.20214,4.28657 10.24187,7.12478 2.11458,1.97439 3.93873,4.29107 5.43265,6.76854 2.00486,3.32479 0.82636,9.91418 4.63111,10.68718 3.3747,0.68562 5.83841,-4.09815 7.48102,-7.12479 1.31089,-2.41542 2.28111,-5.46545 1.51402,-8.10444 -0.83839,-2.88425 -4.80077,-3.90444 -6.14513,-6.59042 -1.74744,-3.4913 0.21336,-8.36135 -2.06998,-11.52822 -2.26922,-3.14729 -7.18111,-3.15915 -10.22027,-5.57126 -2.58567,-2.05219 -3.95661,-5.40193 -6.59042,-7.39196 -3.47463,-2.62533 -7.47745,-4.88718 -11.75589,-5.69983 -6.14244,-1.1667 -12.83958,-0.74671 -18.70256,1.42496 -4.42094,1.63753 -8.3233,4.79919 -11.39965,8.37162 -1.6637,1.93198 -2.84557,4.32179 -3.56239,6.76854 -0.58639,2.00155 1.02008,4.84358 -0.53436,6.23419 -1.72632,1.54438 -4.80125,-1.05135 -6.94666,-0.17812 -2.91667,1.18716 -5.088,4.00104 -6.59043,6.76854 -1.53936,2.83553 -2.30818,6.21843 -2.13743,9.44034 0.14607,2.75619 1.07705,5.58455 2.67179,7.83726 1.44124,2.03587 3.50074,5.38662 5.87795,4.63111 z"
         id="path1"
         sodipodi:nodetypes="aaaaaaaaaaaaaaaaaaaaaaaaa" /><path
         style="fill:#ffffff;fill-opacity:1;stroke:#808080;stroke-width:5.66929;stroke-linecap:round;stroke-linejoin:round;stroke-dasharray:none;stroke-opacity:1"
         d="m 279.64773,199.49391 c 1.66676,-4.17492 -7.3835,-5.7619 -9.17316,-9.88563 -2.00238,-4.61389 -2.05011,-10.11811 -1.06872,-15.0511 0.73828,-3.71101 2.3726,-7.50593 5.07641,-10.15282 2.22996,-2.18302 5.36419,-3.62036 8.46068,-4.00769 4.44255,-0.5557 9.90555,5.63518 13.18085,2.58273 2.12265,-1.97822 -2.11478,-5.93237 -1.06872,-8.6388 0.80447,-2.08138 2.90749,-3.83944 5.07641,-4.36392 2.22557,-0.53818 4.83912,2.96538 6.67948,1.60307 2.74904,-2.03496 -0.26875,-6.94 0.62342,-10.24187 1.032,-3.81938 2.824,-7.54782 5.34359,-10.59812 2.66218,-3.22293 6.15671,-5.86038 9.93017,-7.65914 3.42869,-1.63442 7.30146,-2.92692 11.08794,-2.62726 2.43343,0.19258 4.97624,1.13431 6.77152,2.78828 1.56043,1.43761 2.0719,3.71296 2.89684,5.66773 1.04245,2.47017 0.0843,6.63267 2.57736,7.61928 2.48838,0.98478 4.54491,-2.92838 7.08025,-3.78504 3.96173,-1.33861 8.27213,-2.77169 12.38356,-2.00797 4.01408,0.74564 7.63708,3.34144 10.57977,6.17152 2.27676,2.18963 4.16012,4.97442 5.0905,7.99311 1.41716,4.59808 -2.75835,10.83779 0.4453,14.42768 2.19716,2.46206 6.83259,-0.0256 9.79658,1.42496 2.88534,1.41204 4.97974,4.13974 6.94666,6.67948 1.81499,2.34357 3.60099,4.88386 4.36393,7.7482 0.99335,3.72935 1.08198,7.84831 0.0891,11.57778 -0.6366,2.39123 -2.08754,4.57086 -3.74051,6.4123 -3.10556,3.45965 -12.64146,3.85565 -11.22153,8.28256 1.80453,5.62598 12.00055,1.73782 17.72289,0.26718 6.12398,-1.57387 12.00995,-4.92213 16.4787,-9.39544 3.72078,-3.72458 6.72573,-8.57646 7.80888,-13.7285 0.84229,-4.00637 1.01751,-8.81481 -1.2595,-12.21711 -1.72384,-2.57575 -7.15251,-1.4865 -8.18672,-4.40823 -1.30608,-3.6898 3.71162,-7.00495 4.53418,-10.83167 0.97969,-4.55773 1.82927,-9.55027 0.37785,-13.9804 -1.40665,-4.29347 -4.33321,-8.56645 -8.31267,-10.70571 -3.41187,-1.83414 -7.77769,-1.58258 -11.58736,-0.88165 -2.32731,0.42819 -4.33455,4.1347 -6.42342,3.02279 -3.41213,-1.81627 -0.0545,-7.99422 -1.7633,-11.46141 -0.59072,-1.19856 -1.70934,-2.08528 -2.77089,-2.89684 -1.74618,-1.33496 -4.61708,-1.29216 -5.79368,-3.14873 -1.98088,-3.12565 0.48957,-7.55643 -0.62975,-11.08356 -1.75128,-5.518507 -5.06487,-10.677942 -9.19431,-14.7361 -4.71424,-4.632867 -10.6518,-8.372347 -17.00319,-10.201914 -7.8685,-2.26658 -16.68596,-2.750448 -24.56017,-0.503798 -7.70419,2.19814 -14.74699,7.184951 -20.15192,13.098753 -3.87699,4.242003 -6.33267,9.759091 -8.06078,15.239899 -0.30535,0.96844 0.43813,2.41838 -0.37784,3.02278 -1.78037,1.31875 -4.33404,-1.10088 -6.54938,-1.13354 -2.37467,-0.035 -4.97495,-0.14187 -7.05318,1.00759 -3.12814,1.73017 -5.43755,4.93717 -6.92722,8.18673 -1.116,2.43444 -1.20955,5.25723 -1.2595,7.93482 -0.0457,2.45227 2.67908,5.63625 0.88165,7.30507 -2.13917,1.98611 -5.67423,-1.61665 -8.59231,-1.69063 -4.97761,-0.1262 -10.35434,-0.13662 -14.78392,2.13743 -4.7629,2.44517 -8.63734,6.84086 -11.13248,11.57778 -2.52886,4.80093 -4.01799,10.56382 -3.29521,15.9417 0.47925,3.5659 5.21684,6.03462 4.89829,9.61845 -0.21763,2.44843 -3.76242,3.51887 -4.45299,5.87795 -1.27165,4.3441 -0.8896,9.45624 1.06872,13.53709 1.48104,3.08627 4.71617,5.01726 7.48102,7.03572 3.75644,2.74236 7.66407,5.74584 12.20119,6.76854 2.75667,0.62137 7.41289,2.09005 8.46064,-0.53436 z"
         id="path2"
         sodipodi:nodetypes="aaaaaaaaaaaaaaaaaaaaaaaaaaaaaaaaaaaaaaaaaaaaaaaaaaaaaaaaaaaaaa" /><path
         style="fill:#ffffff;fill-opacity:1;stroke:#808080;stroke-width:5.66929;stroke-linecap:round;stroke-linejoin:round;stroke-dasharray:none;stroke-opacity:1"
         d="m 277.59283,114.61409 c 3.95371,-2.70174 2.88921,-9.48601 6.17152,-12.9728 3.15561,-3.352202 7.79519,-5.020107 12.09116,-6.675325 3.42089,-1.318051 9.08432,0.768991 10.70571,-2.518991 1.44605,-2.932411 -1.40778,-6.989965 -4.03038,-8.942418 -2.03842,-1.517551 -5.09818,-1.649793 -7.55698,-1.007597 -2.03103,0.530468 -2.9474,3.968033 -5.03798,3.778487 -2.27826,-0.206561 -2.55105,-4.152036 -4.66013,-5.037982 -2.6719,-1.122364 -6.04516,-0.93166 -8.69052,0.251899 -3.00898,1.346248 -5.68538,4.07733 -6.80128,7.179125 -0.84044,2.336115 1.82145,5.326845 0.5038,7.431023 -1.12959,1.803854 -4.58816,0.732609 -5.91963,2.393042 -2.07687,2.589997 -2.28624,6.568237 -1.63734,9.824067 0.54191,2.719 1.9364,5.79751 4.40823,7.05317 3.11485,1.5823 7.56928,1.21543 10.45382,-0.7557 z"
         id="path3"
         sodipodi:nodetypes="aaaaaaaaaaaaaaa" /><path
         style="fill:#ffffff;fill-opacity:1;stroke:#808080;stroke-width:5.66929;stroke-linecap:round;stroke-linejoin:round;stroke-dasharray:none;stroke-opacity:1"
         d="m 396.22699,100.28132 c -0.95239,-1.881013 -0.38063,-4.702959 1.06871,-6.234187 1.46534,-1.548136 4.22828,-2.146267 6.23419,-1.424956 0.91635,0.329512 0.80873,2.264594 1.78119,2.315554 1.67755,0.08791 1.86428,-3.168918 3.47334,-3.651451 2.39348,-0.71777 5.34493,0.139612 7.3029,1.692136 1.7373,1.377551 2.59965,3.775951 2.93897,5.967005 0.30328,1.958329 -1.59396,4.025289 -0.8906,5.877939 0.41148,1.08382 2.16284,1.18489 2.6718,2.2265 1.18665,2.42854 1.51958,5.70915 0.26718,8.10444 -0.83556,1.59806 -2.81257,2.42823 -4.54205,2.93897 -1.65132,0.48766 -3.93265,1.20201 -5.16547,0 -1.67973,-1.63774 0.67173,-4.84907 -0.17812,-7.03572 -1.09766,-2.82426 -3.51011,-5.0842 -5.96701,-6.8576 -2.06086,-1.48754 -4.72511,-1.88022 -7.03572,-2.93898 -0.66382,-0.30417 -1.62947,-0.3282 -1.95931,-0.97965 z"
         id="path4"
         sodipodi:nodetypes="aaaaaaaaaaaaaaaa" /><path
         style="fill:#ffffff;fill-opacity:1;stroke:#808080;stroke-width:5.66929;stroke-linecap:round;stroke-linejoin:round;stroke-dasharray:none;stroke-opacity:1"
         d="m 442.52377,151.26541 c -2.1842,-0.8158 -5.25415,-1.3045 -6.9902,0.2519 -1.40583,1.26035 -1.53847,3.85927 -0.81868,5.60476 0.6002,1.45547 3.08153,1.42216 3.77849,2.83386 0.92003,1.86354 -1.14139,4.45791 -0.063,6.23451 0.81837,1.34823 2.64215,2.14358 4.21931,2.14114 2.07477,-0.003 4.62347,-0.97339 5.54178,-2.83387 0.67063,-1.35869 -0.15739,-3.10795 -0.81868,-4.47121 -0.51281,-1.05715 -1.95383,-1.53184 -2.33006,-2.64494 -0.47841,-1.41543 0.86181,-3.08082 0.31487,-4.47121 -0.473,-1.20244 -1.62338,-2.19283 -2.83383,-2.64494 z"
         id="path5"
         sodipodi:nodetypes="aaaaaaaaaaa" /></g></g></svg>
