<?xml version="1.0" encoding="UTF-8" standalone="no"?>
<!-- Created with Inkscape (http://www.inkscape.org/) -->

<svg
   width="43.85556mm"
   height="44.322998mm"
   viewBox="0 0 165.7533 167.51999"
   version="1.1"
   id="svg1"
   inkscape:version="1.2.2 (732a01da63, 2022-12-09)"
   sodipodi:docname="matthew.svg"
   xml:space="preserve"
   xmlns:inkscape="http://www.inkscape.org/namespaces/inkscape"
   xmlns:sodipodi="http://sodipodi.sourceforge.net/DTD/sodipodi-0.dtd"
   xmlns="http://www.w3.org/2000/svg"
   xmlns:svg="http://www.w3.org/2000/svg"><sodipodi:namedview
     id="namedview1"
     pagecolor="#505050"
     bordercolor="#eeeeee"
     borderopacity="1"
     inkscape:showpageshadow="0"
     inkscape:pageopacity="0"
     inkscape:pagecheckerboard="0"
     inkscape:deskcolor="#d1d1d1"
     inkscape:document-units="mm"
     inkscape:zoom="0.71437498"
     inkscape:cx="401.74979"
     inkscape:cy="170.07875"
     inkscape:window-width="1350"
     inkscape:window-height="729"
     inkscape:window-x="133"
     inkscape:window-y="41"
     inkscape:window-maximized="0"
     inkscape:current-layer="layer1"
     showgrid="false" /><defs
     id="defs1" /><g
     inkscape:label="Layer 1"
     inkscape:groupmode="layer"
     id="layer1"
     transform="translate(-377.95277)"><g
       id="g17"
       inkscape:label="matthew - panic"
       transform="matrix(2.6738929,0,0,2.6738929,712.4428,388.36358)"
       style="display:inline"
       inkscape:highlight-color="#999999"><g
         id="g15"
         transform="translate(50.598352,-0.2277988)"
         inkscape:label="body"
         style="display:inline"><path
           style="display:inline;fill:#f9f9f9;fill-opacity:1;stroke:#000000;stroke-width:0;stroke-linecap:round;stroke-linejoin:round;stroke-dasharray:none;stroke-opacity:0;paint-order:fill markers stroke"
           d="m 705.37949,263.97416 c 0.0108,-3.69972 1.97085,-19.5883 3.33339,-27.02163 1.26666,-6.91023 9.86321,-46.8934 10.15509,-47.23205 0.0373,-0.0432 1.44746,0.20562 3.13376,0.55302 4.69031,0.96627 8.97383,1.38152 14.2513,1.38152 4.16967,0 8.47617,-0.26303 10.08914,-0.61621 0.49589,-0.10858 0.51613,0.0397 0.81935,6.0058 0.65191,12.82629 2.12852,25.33622 6.34467,53.7525 0.85822,5.78429 1.54308,10.53268 1.52191,10.55197 -0.13742,0.12523 -7.47239,1.07848 -8.29856,1.07848 H 745.71 l -0.001,-6.12455 c -8.2e-4,-3.6463 -0.11055,-6.52507 -0.27118,-7.11437 -0.30451,-1.11722 -0.98707,-1.95796 -2.07828,-2.55994 -2.50187,-1.38019 -21.63523,0.94674 -25.67982,3.12309 -2.47005,1.32911 -2.78232,2.99069 -1.793,9.54062 0.36654,2.42675 0.60907,4.46965 0.53895,4.53976 -0.49909,0.4991 -7.88814,1.81232 -10.19727,1.81232 h -0.85342 z"
           id="path61"
           transform="matrix(0.26458333,0,0,0.26458333,-337.60178,-154.1664)" /><path
           style="display:inline;fill:#f9f9f9;fill-opacity:1;stroke:#000000;stroke-width:0;stroke-linecap:round;stroke-linejoin:round;stroke-dasharray:none;stroke-opacity:0;paint-order:fill markers stroke"
           d="m 733.70836,185.8026 c -16.48518,-0.84075 -31.35103,-7.35272 -42.07631,-18.43149 -4.48949,-4.63745 -7.3066,-8.61188 -10.01637,-14.13127 -9.85538,-20.07392 -5.81033,-43.49799 10.30547,-59.676976 8.34442,-8.377137 18.57493,-13.9645 30.39579,-16.600583 5.07858,-1.132537 7.9854,-1.436108 13.86599,-1.448079 8.82746,-0.01797 15.50432,1.18016 23.30043,4.181149 19.49824,7.50555 33.12582,23.642559 36.37507,43.073329 0.55104,3.29528 0.62357,11.98491 0.12573,15.06456 -1.51648,9.38098 -5.25621,17.87616 -11.17604,25.38752 -8.25841,10.47865 -21.32967,18.40102 -35.01509,21.2223 -4.79937,0.98941 -11.77737,1.57921 -16.08467,1.35954 z"
           id="path60"
           transform="matrix(0.26458333,0,0,0.26458333,-337.60178,-154.1664)" /><path
           style="display:inline;fill:#f9f9f9;fill-opacity:0;stroke:#000000;stroke-width:1.5;stroke-linecap:round;stroke-linejoin:round;stroke-miterlimit:1001;stroke-dasharray:none;stroke-opacity:1;paint-order:stroke fill markers"
           d="m -148.03164,-104.78796 c 0,0 -1.45625,6.491187 -2.21827,10.116169 -0.35033,1.666547 -0.73974,3.495931 -0.96341,5.266487 -0.25635,2.029349 -0.78917,5.697504 -0.43156,6.121237 0.35761,0.423733 3.59111,-0.02535 4.18398,-0.500433 0.59287,-0.475088 -0.40107,-3.055873 -0.0191,-3.53863 0.382,-0.482757 6.00307,-1.170713 6.29817,-0.848501 0.2951,0.322212 -0.0275,3.62726 0.16278,4.114573 0.50176,0.401375 4.08807,-0.338983 4.08807,-0.338983 0,0 -1.5286,-9.764104 -2.00605,-14.679673 -0.17444,-1.795926 -0.31293,-5.404086 -0.31293,-5.404086"
           id="path12"
           sodipodi:nodetypes="csazzzzccac"
           inkscape:label="body"
           transform="translate(1.0485448e-6)" /><path
           style="display:inline;fill:#000080;fill-opacity:1;stroke:#000000;stroke-width:1.5;stroke-linecap:round;stroke-linejoin:round;stroke-dasharray:none;paint-order:fill markers stroke"
           d="m -153.13826,-83.990738 1.48341,-7.621969 14.18281,-0.448042 2.12787,6.373334 -7.07107,0.891827 0.0982,-2.684387 -3.34008,0.34654 -0.005,2.487968 z"
           id="path13"
           inkscape:label="pants"
           sodipodi:nodetypes="ccccccccc" /><path
           style="display:inline;fill:#e9c6af;fill-opacity:1;stroke:#000000;stroke-width:1.5;stroke-linecap:round;stroke-linejoin:round;stroke-dasharray:none;paint-order:fill markers stroke"
           d="m -102.6662,-90.558172 c 0,0 1.50588,-6.350865 1.50588,-6.612758 0,-0.261892 1.964184,-7.7258 1.964184,-7.7258 l 3.993843,0.9821 c -0.0048,1.35096 -0.347362,2.64835 0.851147,3.53553 0.950732,0.440431 2.190669,0.37212 3.142697,-0.0655 1.386909,-0.83461 1.090293,-1.9946 1.047568,-3.40459 l 3.404587,-0.58925 c 0,0 0.252989,4.947433 0.589256,7.398425 0.278085,2.026916 1.178512,6.023504 1.178512,6.023504 0,0 -5.73609,1.097128 -8.642418,1.17851 -3.02012,0.08457 -9.035256,-0.720171 -9.035256,-0.720171 z"
           id="path14"
           sodipodi:nodetypes="csccssccscsc"
           inkscape:label="shirt"
           transform="translate(-50.598351,0.22779979)" /><ellipse
           style="display:inline;fill:#f9f9f9;fill-opacity:0;stroke:#000000;stroke-width:1.5;stroke-linecap:round;stroke-linejoin:round;stroke-miterlimit:1001;stroke-dasharray:none;stroke-opacity:1;paint-order:stroke fill markers"
           id="ellipse14"
           ry="15.393556"
           rx="16.682619"
           cy="-119.60479"
           cx="-142.77336"
           inkscape:label="head"
           transform="translate(1.0485448e-6)" /><path
           style="display:inline;fill:#784421;stroke:#000000;stroke-width:1.5;stroke-linecap:round;stroke-linejoin:round;stroke-dasharray:none;paint-order:fill markers stroke"
           d="m -160.61988,-115.32381 c 0,0 -1.50968,-5.16986 -1.48149,-7.82407 0.0303,-2.85259 -3.4467,-9.71136 -2.51056,-11.93891 0.93613,-2.22756 6.2854,0.1761 7.67192,-0.81833 0.91117,-0.6535 2.08179,-1.06946 3.20238,-1.02975 0.67621,0.024 1.88363,0.75663 1.88363,0.75663 0,0 -0.14446,-3.75907 0.63226,-4.31816 0.91278,-0.65703 3.0598,0.88188 4.14766,0.52409 1.08786,-0.35779 3.06101,-4.18636 4.18159,-4.28202 2.83611,-0.24212 4.3525,3.77392 6.36988,4.50035 2.01738,0.72644 5.46168,-3.41081 6.96842,-2.3669 3.0135,2.08783 1.42492,8.14102 4.24442,7.59228 0.85966,-0.16731 3.13254,-1.8567 3.86721,-0.76705 1.96343,2.91211 -2.87493,6.83237 -5.7757,8.8125 -4.13742,2.82429 -9.71818,3.5512 -14.70667,3.09313 -2.93826,-0.26981 -6.86321,-1.71925 -8.1857,-3.36897 -0.91061,-1.13592 -1.57407,-3.14815 -1.57407,-3.14815 0,0 -0.10938,3.01127 -0.90346,4.50526 -0.46196,0.86913 -1.42892,1.31939 -2.33728,1.69844 -0.90627,0.37818 -1.18188,0.35828 -1.56558,0.80157 -0.56966,0.65813 -0.74256,1.60651 -0.84456,2.47095 -0.18904,1.60211 0.45639,4.8181 0.45639,4.8181 z"
           id="path15"
           sodipodi:nodetypes="csssscssssssaaascssaacc"
           inkscape:label="hair" /></g><g
         id="g16"
         inkscape:label="eyes"
         transform="translate(-34.322565,-0.0667206)"
         style="display:inline"><path
           style="display:inline;fill:#ffffff;fill-opacity:0;stroke:#000000;stroke-width:1.5;stroke-linecap:round;stroke-linejoin:round;stroke-dasharray:none;stroke-opacity:1;paint-order:fill markers stroke"
           d="m -103.841,-122.64065 c 6.490404,-0.14601 10.017678,-6.00048 10.017678,-6.00048"
           id="path32"
           transform="translate(34.322572,0.06672159)" /><path
           style="display:inline;fill:#ffffff;fill-opacity:0;stroke:#000000;stroke-width:1.18903;stroke-linecap:round;stroke-linejoin:round;stroke-dasharray:none;stroke-opacity:1;paint-order:fill markers stroke"
           d="m -76.811043,-123.59699 c -6.020321,0.1038 -6.85071,-4.56714 -6.85071,-4.56714"
           id="path33"
           transform="translate(34.322572,0.06672159)" /><ellipse
           style="display:inline;fill:#ffffff;fill-opacity:1;stroke:#000000;stroke-width:2.50027;stroke-linecap:round;stroke-linejoin:round;stroke-miterlimit:1001;stroke-dasharray:none;stroke-opacity:1;paint-order:stroke fill markers"
           id="ellipse15"
           cx="-98.653854"
           cy="-91.811203"
           rx="2.5478287"
           ry="2.8861537"
           transform="matrix(0.94694551,0.32139416,-0.3408771,0.94010786,-6.3019723e-7,-1.0379705e-6)"
           inkscape:label="left" /><ellipse
           style="fill:#ffffff;fill-opacity:1;stroke:#000000;stroke-width:2.50027;stroke-linecap:round;stroke-linejoin:round;stroke-miterlimit:1001;stroke-dasharray:none;stroke-opacity:1;paint-order:stroke fill markers"
           id="ellipse913"
           cx="4.9431376"
           cy="-127.76955"
           rx="2.5478287"
           ry="2.8861537"
           transform="matrix(-0.94694551,0.32139415,0.3408771,0.94010787,0,0)"
           inkscape:label="right" /></g><g
         id="g34"
         inkscape:label="mouth"
         style="display:inline"
         transform="translate(-1.0583333,-0.52916666)"><path
           style="fill:#f9f9f9;fill-opacity:1;stroke:#000000;stroke-width:1.23939;stroke-linecap:round;stroke-linejoin:round;stroke-dasharray:none;stroke-opacity:1;paint-order:fill markers stroke"
           d="m -90.980769,-113.3416 c 0.960232,-0.37065 2.054366,0.15082 3.083586,0.16225 1.085351,0.0121 2.282176,-0.58072 3.254754,-0.0988 0.680134,0.33699 1.20793,1.10265 1.323811,1.8528 0.240763,1.55857 -0.177283,3.58349 -1.460647,4.50006 -0.757815,0.54122 -1.862277,-0.0647 -2.793334,-0.0463 -1.205343,0.0238 -2.604258,0.86604 -3.611041,0.20286 -1.37978,-0.90888 -2.05227,-3.04275 -1.698365,-4.65663 0.192735,-0.87891 1.061809,-1.59221 1.901236,-1.91623 z"
           id="path17"
           sodipodi:nodetypes="aaaaaaaaa" /><path
           style="fill:#f9f9f9;fill-opacity:1;stroke:#000000;stroke-width:1.5;stroke-linecap:round;stroke-linejoin:round;stroke-dasharray:none;stroke-opacity:1;paint-order:fill markers stroke"
           d="m -92.188618,-108.60716 c 0,0 1.450655,-1.29611 2.361112,-1.48148 0.765709,-0.1559 1.535372,0.4259 2.314814,0.37036 0.467402,-0.0333 0.874446,-0.43694 1.342593,-0.41666 0.815969,0.0354 2.268519,0.92592 2.268519,0.92592"
           id="path18"
           sodipodi:nodetypes="caaac" /><path
           style="fill:#ff0000;fill-opacity:1;stroke:#000000;stroke-width:0.992002;stroke-linecap:round;stroke-linejoin:round;stroke-dasharray:none;stroke-opacity:1;paint-order:fill markers stroke"
           d="m 741.69067,178.03969 c -0.90866,-0.46208 -3.0205,-2.54387 -3.0205,-2.97752 0,-0.39505 3.92339,-3.25264 5.77428,-4.20567 1.30808,-0.67354 2.32438,-0.64468 4.98687,0.14163 3.63825,1.07448 5.09826,1.04546 7.89728,-0.15699 1.46814,-0.63071 1.54064,-0.64366 2.4942,-0.44567 0.54015,0.11215 2.18394,0.7965 3.65287,1.52076 l 2.67076,1.31685 -0.33585,0.65831 c -0.60556,1.187 -1.93775,2.79969 -2.76582,3.34818 -1.03594,0.68618 -1.92515,0.70198 -5.03951,0.0895 -3.75028,-0.73751 -5.81043,-0.62588 -10.49869,0.56889 -0.96238,0.24525 -2.45844,0.48234 -3.32458,0.52685 -1.44588,0.0743 -1.64984,0.0428 -2.49131,-0.38514 z"
           id="path19"
           transform="matrix(0.26458333,0,0,0.26458333,-287.00343,-154.3942)" /><path
           style="fill:#333333;fill-opacity:1;stroke:#000000;stroke-width:0.992002;stroke-linecap:round;stroke-linejoin:round;stroke-dasharray:none;stroke-opacity:1;paint-order:fill markers stroke"
           d="m 736.04417,168.98513 c -7.3e-4,-0.1203 -0.0788,-0.88802 -0.17339,-1.70604 -0.21957,-1.89806 0.0355,-4.11756 0.62072,-5.40094 0.61265,-1.34357 2.28334,-2.91535 4.10766,-3.86446 2.05108,-1.06709 3.02903,-1.11419 7.44644,-0.35864 3.94301,0.67441 5.5796,0.65942 9.87216,-0.0904 4.41667,-0.77152 5.71151,-0.52271 7.5591,1.45252 0.93674,1.00145 1.57529,2.18658 1.88383,3.49634 0.21326,0.9053 0.35222,4.47658 0.18087,4.64835 -0.0481,0.0482 -0.90617,-0.3038 -1.90679,-0.7823 -2.23922,-1.07082 -3.94006,-1.65176 -5.58156,-1.90645 -1.5408,-0.23906 -2.67539,-0.0417 -4.6597,0.81053 -0.76279,0.3276 -1.67525,0.59565 -2.02769,0.59565 -0.35244,0 -1.57874,-0.28203 -2.7251,-0.62673 -2.42967,-0.73057 -4.7124,-0.95045 -6.21815,-0.59894 -1.80732,0.4219 -4.78351,2.03515 -7.30149,3.95777 -0.83237,0.63556 -1.07481,0.7197 -1.07691,0.37376 z"
           id="path20"
           transform="matrix(0.26458333,0,0,0.26458333,-287.00343,-154.3942)" /></g><g
         id="g33"
         inkscape:label="hands"
         style="display:inline"><circle
           style="fill:#ffffff;fill-opacity:1;stroke:#000000;stroke-width:1.5;stroke-linecap:round;stroke-linejoin:round;stroke-dasharray:none;stroke-opacity:1;paint-order:fill markers stroke"
           id="path26"
           cx="-119.59602"
           cy="-119.3942"
           r="4.2592592" /><circle
           style="fill:#ffffff;fill-opacity:1;stroke:#000000;stroke-width:1.5;stroke-linecap:round;stroke-linejoin:round;stroke-dasharray:none;stroke-opacity:1;paint-order:fill markers stroke"
           id="path27"
           cx="-118.29974"
           cy="-106.24604"
           r="6.0450315" /><circle
           style="fill:#ffffff;fill-opacity:1;stroke:#000000;stroke-width:1.5;stroke-linecap:round;stroke-linejoin:round;stroke-dasharray:none;stroke-opacity:1;paint-order:fill markers stroke"
           id="path28"
           cx="-108.11455"
           cy="-98.283096"
           r="3.7037036" /><circle
           style="fill:#ffffff;fill-opacity:1;stroke:#000000;stroke-width:1.5;stroke-linecap:round;stroke-linejoin:round;stroke-dasharray:none;stroke-opacity:1;paint-order:fill markers stroke"
           id="path29"
           cx="-67.188614"
           cy="-116.61642"
           r="3.3333333" /><circle
           style="fill:#ffffff;fill-opacity:1;stroke:#000000;stroke-width:1.5;stroke-linecap:round;stroke-linejoin:round;stroke-dasharray:none;stroke-opacity:1;paint-order:fill markers stroke"
           id="path30"
           cx="-70.336777"
           cy="-105.87568"
           r="5.185185" /><circle
           style="fill:#ffffff;fill-opacity:1;stroke:#000000;stroke-width:1.5;stroke-linecap:round;stroke-linejoin:round;stroke-dasharray:none;stroke-opacity:1;paint-order:fill markers stroke"
           id="path31"
           cx="-78.577492"
           cy="-97.449753"
           r="3.0555556" /></g></g></g></svg>
