<?xml version="1.0" encoding="UTF-8" standalone="no"?>
<!-- Created with Inkscape (http://www.inkscape.org/) -->

<svg
   width="44.62804mm"
   height="59.920826mm"
   viewBox="0 0 168.67291 226.47242"
   version="1.1"
   id="svg1"
   inkscape:version="1.3 (0e150ed6c4, 2023-07-21)"
   sodipodi:docname="matthew.svg"
   xmlns:inkscape="http://www.inkscape.org/namespaces/inkscape"
   xmlns:sodipodi="http://sodipodi.sourceforge.net/DTD/sodipodi-0.dtd"
   xmlns="http://www.w3.org/2000/svg"
   xmlns:svg="http://www.w3.org/2000/svg">
  <sodipodi:namedview
     id="namedview1"
     pagecolor="#505050"
     bordercolor="#eeeeee"
     borderopacity="1"
     inkscape:showpageshadow="0"
     inkscape:pageopacity="0"
     inkscape:pagecheckerboard="0"
     inkscape:deskcolor="#d1d1d1"
     inkscape:document-units="mm"
     inkscape:zoom="0.35718749"
     inkscape:cx="-191.77603"
     inkscape:cy="681.7148"
     inkscape:window-width="1350"
     inkscape:window-height="729"
     inkscape:window-x="133"
     inkscape:window-y="41"
     inkscape:window-maximized="0"
     inkscape:current-layer="layer1"
     showgrid="false" />
  <defs
     id="defs1" />
  <g
     inkscape:label="Layer 1"
     inkscape:groupmode="layer"
     id="layer1"
     transform="translate(-108.36376,-370.38365)">
    <g
       id="g39"
       inkscape:label="matthew - falling"
       transform="matrix(3.7297777,0.61121842,-0.61121842,3.7297777,453.39833,954.64169)"
       style="display:inline"
       inkscape:highlight-color="#999999">
      <g
         id="g37"
         transform="translate(50.598352,-0.2277988)"
         inkscape:label="body"
         style="display:inline">
        <path
           style="display:inline;fill:#f9f9f9;fill-opacity:1;stroke:#000000;stroke-width:0;stroke-linecap:round;stroke-linejoin:round;stroke-dasharray:none;stroke-opacity:0;paint-order:fill markers stroke"
           d="m 165.17718,589.94068 c -0.88466,-0.3845 -1.60847,-0.93701 -1.60847,-1.2278 0,-0.29078 1.0022,-2.52418 2.22711,-4.96313 3.12257,-6.21741 3.05334,-7.35708 -0.66059,-10.87489 -3.79775,-3.5972 -15.18155,-11.81617 -19.59802,-14.14953 l -3.49721,-1.84769 -8.33577,2.30052 c -4.58468,1.26528 -8.50254,2.30051 -8.70637,2.30051 -0.20382,0 -0.64275,-0.94652 -0.9754,-2.10337 -0.33264,-1.15686 -0.71697,-2.49313 -0.85406,-2.96948 -0.17686,-0.61457 0.0318,-0.8661 0.71856,-0.8661 2.03044,0 9.92829,-2.61218 14.31482,-4.73456 6.78279,-3.28179 9.61821,-6.26558 13.39699,-14.09801 2.96748,-6.15082 5.76681,-13.85774 8.25971,-22.74011 0.72576,-2.58592 1.38848,-4.77092 1.47273,-4.85555 0.0842,-0.0846 1.68002,0.30186 3.54617,0.85885 5.09683,1.52127 11.65394,2.51196 16.62597,2.51196 4.03358,0 4.41028,0.0797 4.09394,0.8661 -0.19162,0.47635 -0.65824,4.87489 -1.03692,9.77453 -1.63558,21.16208 -2.77631,27.63447 -7.36043,41.76227 -1.73262,5.33977 -4.29062,13.32772 -5.68444,17.751 -2.79192,8.86014 -2.78294,8.8498 -6.33832,7.30448 z"
           id="path63"
           transform="matrix(0.26110061,-0.04278794,0.04278794,0.26110061,-209.82808,-229.62975)" />
        <path
           style="display:inline;fill:#f9f9f9;fill-opacity:0;stroke:#000000;stroke-width:1.5;stroke-linecap:round;stroke-linejoin:round;stroke-miterlimit:1001;stroke-dasharray:none;stroke-opacity:1;paint-order:stroke fill markers"
           d="m -138.70265,-103.6746 c 0,0 0.72611,6.543797 0.61688,9.822643 -0.0709,2.127493 -0.49308,4.229829 -0.82356,6.332692 -0.29604,1.88374 -0.59633,5.290297 -1.0379,5.625641 -0.44156,0.335343 -2.282,0.10123 -2.75672,-0.491929 -0.47471,-0.59317 0.93995,-3.042086 0.67272,-3.596644 -0.26728,-0.554573 -6.57117,-3.679457 -6.92955,-3.429519 -0.35839,0.249932 -3.9388,1.718852 -4.23097,2.152806 -0.57734,0.282021 -1.81283,-2.997089 -1.81283,-2.997089 0,0 4.22954,-1.248295 5.97854,-3.6408 1.74901,-2.392506 2.31739,-10.563221 2.31739,-10.563221"
           id="path34"
           sodipodi:nodetypes="caazczzcccc"
           inkscape:label="body" />
        <path
           style="display:inline;fill:#000080;fill-opacity:1;stroke:#000000;stroke-width:1.5;stroke-linecap:round;stroke-linejoin:round;stroke-dasharray:none;paint-order:fill markers stroke"
           d="m -136.80261,-82.429288 -0.35686,-9.054224 -13.86615,-2.919266 -4.39247,1.314414 4.05219,7.087274 2.43025,-2.379306 5.97793,2.59434 -1.53513,2.477346 z"
           id="path35"
           inkscape:label="pants"
           sodipodi:nodetypes="ccccccccc" />
        <path
           style="display:inline;fill:#e9c6af;fill-opacity:1;stroke:#000000;stroke-width:1.5;stroke-linecap:round;stroke-linejoin:round;stroke-dasharray:none;paint-order:fill markers stroke"
           d="m -151.95253,-95.025956 c 0,0 1.83231,-2.534446 2.40286,-3.973212 0.80875,-2.039472 1.37943,-6.435742 1.37943,-6.435742 l 3.99384,0.9821 c -0.005,1.35096 -0.34736,2.64835 0.85115,3.53553 0.95073,0.44043 2.19067,0.37212 3.1427,-0.0655 1.38691,-0.83461 1.09029,-1.9946 1.04757,-3.40459 l 3.40458,-0.58925 c 0,0 0.52971,4.92519 0.58926,7.398418 0.0603,2.505778 -0.23559,7.515822 -0.23559,7.515822 0,0 -6.34325,-0.03119 -9.32547,-0.965324 -2.63372,-0.824973 -7.25033,-3.998252 -7.25033,-3.998252 z"
           id="path36"
           sodipodi:nodetypes="caccssccacac"
           inkscape:label="shirt" />
        <path
           style="display:inline;fill:#f9f9f9;fill-opacity:1;stroke:#000000;stroke-width:0;stroke-linecap:round;stroke-linejoin:round;stroke-dasharray:none;stroke-opacity:0;paint-order:fill markers stroke"
           d="m 174.70425,505.84746 c -24.81941,-4.16734 -44.13522,-20.84375 -50.09466,-43.24951 -1.10021,-4.13644 -1.28248,-5.86886 -1.31252,-12.47468 -0.0295,-6.48457 0.14104,-8.34477 1.1024,-12.02611 3.7908,-14.51611 12.55496,-25.96312 25.86527,-33.78302 4.59447,-2.69929 12.58528,-5.74931 18.2531,-6.96704 5.89327,-1.26617 19.34704,-1.27564 25.24056,-0.0178 33.8938,7.2341 54.91866,37.47155 47.26765,67.97919 -4.73953,18.89838 -20.5904,34.03428 -41.18641,39.32867 -4.96901,1.27733 -6.97093,1.52746 -13.50494,1.68734 -4.98345,0.12194 -9.05834,-0.0452 -11.63045,-0.47708 z"
           id="path62"
           transform="matrix(0.26110061,-0.04278794,0.04278794,0.26110061,-209.82808,-229.62975)" />
        <ellipse
           style="display:inline;fill:#f9f9f9;fill-opacity:0;stroke:#000000;stroke-width:1.5;stroke-linecap:round;stroke-linejoin:round;stroke-miterlimit:1001;stroke-dasharray:none;stroke-opacity:1;paint-order:stroke fill markers"
           id="ellipse36"
           ry="15.393556"
           rx="16.682619"
           cy="-119.60479"
           cx="-142.77336"
           inkscape:label="head"
           transform="translate(1.0485448e-6)" />
        <path
           style="display:inline;fill:#784421;stroke:#000000;stroke-width:1.5;stroke-linecap:round;stroke-linejoin:round;stroke-dasharray:none;paint-order:fill markers stroke"
           d="m -159.36455,-111.91343 c 0,0 -2.94959,-6.7193 -2.90899,-10.28043 0.0426,-3.73275 0.9763,-7.77728 3.29409,-10.70355 1.18106,-1.49113 3.80264,-2.87272 4.92486,-2.88286 0.6772,-0.006 1.93631,0.73436 1.93631,0.73436 0,0 0.8409,-1.92172 1.57628,-2.56769 1.7284,-1.51828 3.99478,-2.36773 6.2196,-2.68293 11.26168,-1.59546 15.49942,8.45617 21.05268,6.99209 0.84659,-0.2232 0.75686,-2.5438 1.59297,-2.22935 2.0264,0.76208 2.31601,9.06786 -6.40445,13.39181 -4.28343,2.12389 -9.42504,2.93355 -14.1146,1.90392 -2.79797,-0.61433 -6.05864,-2.89757 -7.4991,-4.63143 -0.99183,-1.19386 -1.80023,-3.35398 -1.80023,-3.35398 0,0 0.10871,3.28511 -0.57629,4.95021 -0.39852,0.96868 -1.3318,1.50519 -2.21171,1.96133 -0.87788,0.45511 -1.15463,0.44656 -1.5058,0.94768 -0.52139,0.74399 -0.62543,1.78521 -0.66473,2.73162 -0.0729,1.75403 0.80471,5.22616 0.80471,5.22616 z"
           id="path37"
           sodipodi:nodetypes="caascaaaaaascssaacc"
           inkscape:label="hair" />
      </g>
      <g
         id="g38"
         inkscape:label="eyes"
         transform="rotate(-3.6805281,-58.476903,382.13853)"
         style="display:inline;fill:#ffffff;stroke:#000000;stroke-width:3;stroke-dasharray:none;stroke-opacity:1">
        <ellipse
           style="fill:#ffffff;fill-opacity:1;stroke:#000000;stroke-width:2.50746;stroke-linecap:round;stroke-linejoin:round;stroke-miterlimit:1001;stroke-dasharray:none;stroke-opacity:1;paint-order:stroke fill markers"
           id="ellipse37"
           cx="-31.891565"
           cy="-131.46899"
           rx="2.8945749"
           ry="3.0583718"
           transform="matrix(0.93358572,-0.35835415,0.25458751,0.96704974,0,0)"
           inkscape:label="left" />
        <ellipse
           style="fill:#ffffff;fill-opacity:1;stroke:#000000;stroke-width:2.50003;stroke-linecap:round;stroke-linejoin:round;stroke-miterlimit:1001;stroke-dasharray:none;stroke-opacity:1;paint-order:stroke fill markers"
           id="ellipse38"
           cx="-77.590477"
           cy="-99.076889"
           rx="2.264297"
           ry="3.143183"
           transform="matrix(0.96907632,0.2467612,-0.25298108,0.96747123,0,0)"
           inkscape:label="right" />
        <circle
           id="path39"
           style="fill:#000000;stroke:#000000;stroke-width:0;stroke-dasharray:none;stroke-opacity:0.913495"
           cx="-51.003632"
           cy="-119.47018"
           r="1.1222399"
           transform="rotate(-5.6261139)" />
        <circle
           id="circle39"
           style="fill:#000000;stroke:#000000;stroke-width:0;stroke-dasharray:none;stroke-opacity:0.913495"
           cx="-38.181721"
           cy="-117.83337"
           r="1.1222399"
           transform="rotate(-5.6261139)" />
      </g>
    </g>
  </g>
</svg>
