<?xml version="1.0" encoding="UTF-8" standalone="no"?>
<!-- Created with Inkscape (http://www.inkscape.org/) -->

<svg
   width="297mm"
   height="210mm"
   viewBox="0 0 1122.5197 793.70081"
   version="1.1"
   id="svg1"
   inkscape:version="1.3 (0e150ed6c4, 2023-07-21)"
   sodipodi:docname="matthewl.svg"
   xmlns:inkscape="http://www.inkscape.org/namespaces/inkscape"
   xmlns:sodipodi="http://sodipodi.sourceforge.net/DTD/sodipodi-0.dtd"
   xmlns="http://www.w3.org/2000/svg"
   xmlns:svg="http://www.w3.org/2000/svg">
  <sodipodi:namedview
     id="namedview1"
     pagecolor="#505050"
     bordercolor="#eeeeee"
     borderopacity="1"
     inkscape:showpageshadow="0"
     inkscape:pageopacity="0"
     inkscape:pagecheckerboard="0"
     inkscape:deskcolor="#d1d1d1"
     inkscape:document-units="mm"
     inkscape:zoom="0.35718749"
     inkscape:cx="-191.77603"
     inkscape:cy="681.7148"
     inkscape:window-width="1350"
     inkscape:window-height="729"
     inkscape:window-x="133"
     inkscape:window-y="41"
     inkscape:window-maximized="0"
     inkscape:current-layer="layer1"
     showgrid="false" />
  <defs
     id="defs1" />
  <g
     inkscape:label="Layer 1"
     inkscape:groupmode="layer"
     id="layer1">
    <g
       id="g3"
       inkscape:label="matthew"
       transform="matrix(3.7795277,0,0,3.7795277,517.80824,583.53716)"
       style="display:inline"
       inkscape:highlight-color="#999999">
      <g
         id="g17513"
         transform="translate(50.598352,-0.2277988)"
         inkscape:label="body"
         style="display:inline">
        <path
           style="display:inline;fill:#f9f9f9;fill-opacity:1;stroke:#000000;stroke-width:0;stroke-linecap:round;stroke-linejoin:round;stroke-dasharray:none;stroke-opacity:0;paint-order:fill markers stroke"
           d="m 141.22136,230.01414 c 2.42712,-13.99093 10.26921,-41.34338 10.26921,-41.34338 0,0 21.78192,0.58061 30.29413,1.85588 0,9.52661 2.05711,32.85851 6.49105,62.29588 0.66595,4.4213 1.61318,9.67789 1.61318,9.67789 l -12.79348,1.83427 0.36542,-6.55521 c 0.36464,-6.54122 0.32542,-8.33203 -0.89047,-9.78847 -1.31305,-1.57284 -25.04148,2.23376 -25.04148,2.23376 0,0 -2.54862,0.71011 -1.48134,8.16266 0.93903,6.55709 0.65233,6.76232 0.65233,6.76232 -4.54164,-0.2504 -9.91083,4.26969 -13.13475,1.27693 -2.69343,-2.5003 -0.0374,-7.35848 0.24891,-11.02237 0.6653,-8.5133 2.36478,-19.38065 3.40729,-25.39016 z"
           id="path55"
           sodipodi:nodetypes="scssccsscscaas"
           transform="matrix(0.26458333,0,0,0.26458333,-187.60178,-154.1664)" />
        <path
           style="display:inline;fill:#f9f9f9;fill-opacity:1;stroke:#000000;stroke-width:0;stroke-linecap:round;stroke-linejoin:round;stroke-dasharray:none;stroke-opacity:0;paint-order:fill markers stroke"
           d="m 167.311,185.55467 c -13.61405,-0.69433 -25.726,-5.00966 -36.1084,-12.86497 -18.12146,-13.71066 -26.05649,-36.13501 -20.17502,-57.01446 3.55424,-12.61765 11.73167,-23.593066 23.36846,-31.364218 7.96389,-5.318354 16.98954,-8.684939 27.13833,-10.122646 3.47191,-0.491841 12.5668,-0.552543 16.05889,-0.10718 21.26686,2.712277 38.90228,14.645589 47.72137,32.291484 3.4777,6.95844 5.16828,13.5166 5.48768,21.28795 1.17663,28.62916 -21.76248,53.61131 -52.70748,57.40184 -3.17476,0.38888 -8.25926,0.62095 -10.78383,0.4922 z"
           id="path54"
           transform="matrix(0.26458333,0,0,0.26458333,-187.60178,-154.1664)" />
        <path
           style="display:inline;fill:#f9f9f9;fill-opacity:0;stroke:#000000;stroke-width:1.50000002;stroke-linecap:round;stroke-linejoin:round;stroke-miterlimit:1001;stroke-dasharray:none;stroke-opacity:1;paint-order:stroke fill markers"
           d="m -148.03164,-104.78796 c 0,0 -1.45625,6.491187 -2.21827,10.116169 -0.35033,1.666547 -0.73974,3.495931 -0.96341,5.266487 -0.25635,2.029349 -0.78917,5.697504 -0.43156,6.121237 0.35761,0.423733 3.59111,-0.02535 4.18398,-0.500433 0.59287,-0.475088 -0.40107,-3.055873 -0.0191,-3.53863 0.382,-0.482757 6.00307,-1.170713 6.29817,-0.848501 0.2951,0.322212 -0.0275,3.62726 0.16278,4.114573 0.50176,0.401375 4.08807,-0.338983 4.08807,-0.338983 0,0 -1.5286,-9.764104 -2.00605,-14.679673 -0.17444,-1.795926 -0.31293,-5.404086 -0.31293,-5.404086"
           id="path15170"
           sodipodi:nodetypes="csazzzzccac"
           inkscape:label="body"
           transform="translate(1.0485448e-6)" />
        <path
           style="display:inline;fill:#000080;fill-opacity:1;stroke:#000000;stroke-width:1.5;stroke-linecap:round;stroke-linejoin:round;stroke-dasharray:none;paint-order:fill markers stroke"
           d="m -153.13826,-83.990738 1.48341,-7.621969 14.18281,-0.448042 2.12787,6.373334 -7.07107,0.891827 0.0982,-2.684387 -3.34008,0.34654 -0.005,2.487968 z"
           id="path3"
           inkscape:label="pants"
           sodipodi:nodetypes="ccccccccc" />
        <path
           style="display:inline;fill:#e9c6af;fill-opacity:1;stroke:#000000;stroke-width:1.5;stroke-linecap:round;stroke-linejoin:round;stroke-dasharray:none;paint-order:fill markers stroke"
           d="m -102.6662,-90.558172 c 0,0 1.50588,-6.350865 1.50588,-6.612758 0,-0.261892 1.964184,-7.7258 1.964184,-7.7258 l 3.993843,0.9821 c -0.0048,1.35096 -0.347362,2.64835 0.851147,3.53553 0.950732,0.440431 2.190669,0.37212 3.142697,-0.0655 1.386909,-0.83461 1.090293,-1.9946 1.047568,-3.40459 l 3.404587,-0.58925 c 0,0 0.252989,4.947433 0.589256,7.398425 0.278085,2.026916 1.178512,6.023504 1.178512,6.023504 0,0 -5.73609,1.097128 -8.642418,1.17851 -3.02012,0.08457 -9.035256,-0.720171 -9.035256,-0.720171 z"
           id="path2"
           sodipodi:nodetypes="csccssccscsc"
           inkscape:label="shirt"
           transform="translate(-50.598351,0.22779979)" />
        <ellipse
           style="display:inline;fill:#f9f9f9;fill-opacity:0;stroke:#000000;stroke-width:1.49999998;stroke-linecap:round;stroke-linejoin:round;stroke-miterlimit:1001;stroke-dasharray:none;stroke-opacity:1;paint-order:stroke fill markers"
           id="path14491"
           ry="15.393556"
           rx="16.682619"
           cy="-119.60479"
           cx="-142.77336"
           inkscape:label="head"
           transform="translate(1.0485448e-6)" />
        <path
           style="display:inline;fill:#784421;stroke:#000000;stroke-width:1.5;stroke-linecap:round;stroke-linejoin:round;stroke-dasharray:none;paint-order:fill markers stroke"
           d="m -160.61988,-115.32381 c 0,0 -1.50966,-5.16986 -1.48149,-7.82407 0.0606,-5.70519 2.38831,-10.76839 5.16136,-12.75724 0.91117,-0.6535 2.08179,-1.06946 3.20238,-1.02975 0.67621,0.024 1.88363,0.75663 1.88363,0.75663 0,0 0.96665,-1.72203 1.74337,-2.28112 1.82556,-1.31406 4.14364,-1.99253 6.38481,-2.18386 11.34441,-0.96848 14.90669,8.41579 20.54568,7.31832 0.85966,-0.16731 0.92404,-2.29503 1.73758,-1.97075 1.97169,0.78593 1.70976,8.4 -7.27965,11.97654 -4.41552,1.75677 -9.60029,2.27328 -14.21193,1.12621 -2.75148,-0.68439 -5.854,-2.91637 -7.17649,-4.56609 -0.91061,-1.13592 -1.57407,-3.14815 -1.57407,-3.14815 0,0 -0.10938,3.01127 -0.90346,4.50526 -0.46196,0.86913 -1.42892,1.31939 -2.33728,1.69844 -0.90627,0.37818 -1.18188,0.35828 -1.56558,0.80157 -0.56966,0.65813 -0.74256,1.60651 -0.84456,2.47095 -0.18904,1.60211 0.45639,4.8181 0.45639,4.8181 z"
           id="path1"
           sodipodi:nodetypes="cssscaaaaaascssaacc"
           inkscape:label="hair" />
      </g>
      <g
         id="g147"
         inkscape:label="eyes"
         transform="translate(-34.322565,-0.0667206)"
         style="display:inline">
        <ellipse
           style="fill:#000000;fill-opacity:1;stroke:none;stroke-width:0.593632;stroke-linecap:round;stroke-linejoin:round;stroke-miterlimit:1001;stroke-dasharray:none;stroke-opacity:1;paint-order:stroke fill markers"
           id="ellipse146"
           cx="-86.904243"
           cy="-98.34063"
           rx="2.1079104"
           ry="2.7033648"
           transform="matrix(0.96864121,0.2484637,-0.20869257,0.97798129,0,0)"
           inkscape:label="right" />
        <ellipse
           style="fill:#000000;fill-opacity:1;stroke:none;stroke-width:0.509367;stroke-linecap:round;stroke-linejoin:round;stroke-miterlimit:1001;stroke-dasharray:none;stroke-opacity:1;paint-order:stroke fill markers"
           id="ellipse147"
           cx="-36.557335"
           cy="-122.18265"
           rx="1.7384969"
           ry="2.4132938"
           transform="matrix(0.99463321,-0.10346393,0.09707266,0.9952773,0,0)"
           inkscape:label="left" />
      </g>
    </g>
    <g
       id="g9"
       inkscape:label="matthew - answering calls"
       transform="matrix(3.7795277,0,0,3.7795277,801.27282,583.53716)"
       style="display:inline"
       inkscape:highlight-color="#999999">
      <g
         id="g7"
         transform="translate(50.598352,-0.2277988)"
         inkscape:label="body"
         style="display:inline;stroke-width:2.99999996;stroke-dasharray:none">
        <path
           style="display:inline;stroke-width:5.66929133;stroke-dasharray:none;fill:#f9f9f9;fill-opacity:1;stroke:#000000;stroke-linecap:round;stroke-linejoin:round;stroke-opacity:0;paint-order:fill markers stroke"
           d="m 421.79206,264.99802 c 0.0117,-3.27392 2.11375,-20.52891 3.34624,-27.46814 1.27243,-7.16406 9.95934,-47.38756 10.30979,-47.73802 0.073,-0.073 1.17767,0.0892 2.45482,0.36035 4.90073,1.04061 7.46065,1.30529 13.7051,1.41702 4.25985,0.0762 7.05337,0.008 8.9703,-0.2196 1.53114,-0.18165 2.78412,-0.32645 2.7844,-0.32176 2.8e-4,0.005 0.16895,3.07078 0.37482,6.81356 0.70788,12.86935 2.01223,23.89609 6.08257,51.42071 0.97206,6.57327 1.72445,11.99433 1.67199,12.0468 -0.1565,0.1565 -7.30668,1.11862 -8.31357,1.11866 l -0.92988,4e-5 v -6.37204 c 0,-6.30539 -0.006,-6.38485 -0.61864,-7.59637 -0.96968,-1.91906 -1.83666,-2.24802 -5.81523,-2.20648 -5.16037,0.0539 -14.76548,1.34498 -19.24902,2.58744 -2.1012,0.58227 -3.18969,1.20555 -3.98913,2.2842 -0.75955,1.02483 -0.82198,3.95924 -0.17014,7.99712 0.76871,4.76179 0.77872,4.69436 -0.76508,5.15282 -1.74049,0.51687 -5.06397,1.06592 -7.68664,1.26986 l -2.16525,0.16836 z"
           id="path59"
           transform="matrix(0.26458333,0,0,0.26458333,-262.60178,-154.1664)" />
        <path
           style="display:inline;fill:#f9f9f9;fill-opacity:1;stroke:#000000;stroke-width:5.66929133;stroke-linecap:round;stroke-linejoin:round;stroke-dasharray:none;stroke-opacity:0;paint-order:fill markers stroke"
           d="m 449.99955,185.8024 c -22.42865,-1.12998 -42.12182,-13.34081 -51.56015,-31.97008 -5.31965,-10.49987 -6.88137,-21.89523 -4.58358,-33.44476 2.67465,-13.44373 11.47003,-26.193726 23.71823,-34.382509 7.89134,-5.275919 16.79704,-8.613 26.85773,-10.063946 3.61825,-0.521822 12.47268,-0.599041 15.96094,-0.139195 16.48274,2.172867 30.3161,9.536654 40.29238,21.448473 11.14923,13.312357 14.99741,31.054177 10.29195,47.450587 -3.56499,12.4224 -11.7716,23.29001 -23.36412,30.93997 -5.68034,3.74848 -13.82199,7.15137 -20.78635,8.68789 -4.82948,1.06551 -12.16905,1.70825 -16.82703,1.47357 z"
           id="path58"
           transform="matrix(0.26458333,0,0,0.26458333,-262.60178,-154.1664)" />
        <path
           style="display:inline;fill:#f9f9f9;fill-opacity:0;stroke:#000000;stroke-width:1.49999998;stroke-linecap:round;stroke-linejoin:round;stroke-miterlimit:1001;stroke-dasharray:none;stroke-opacity:1;paint-order:stroke fill markers"
           d="m -148.03164,-104.78796 c 0,0 -1.45625,6.491187 -2.21827,10.116169 -0.35033,1.666547 -0.73974,3.495931 -0.96341,5.266487 -0.25635,2.029349 -0.78917,5.697504 -0.43156,6.121237 0.35761,0.423733 3.59111,-0.02535 4.18398,-0.500433 0.59287,-0.475088 -0.40107,-3.055873 -0.0191,-3.53863 0.382,-0.482757 6.00307,-1.170713 6.29817,-0.848501 0.2951,0.322212 -0.0275,3.62726 0.16278,4.114573 0.50176,0.401375 4.08807,-0.338983 4.08807,-0.338983 0,0 -1.5286,-9.764104 -2.00605,-14.679673 -0.17444,-1.795926 -0.31293,-5.404086 -0.31293,-5.404086"
           id="path4"
           sodipodi:nodetypes="csazzzzccac"
           inkscape:label="body"
           transform="translate(1.0485448e-6)" />
        <path
           style="display:inline;fill:#000080;fill-opacity:1;stroke:#000000;stroke-width:1.49999998;stroke-linecap:round;stroke-linejoin:round;stroke-dasharray:none;paint-order:fill markers stroke"
           d="m -153.13826,-83.990738 1.48341,-7.621969 14.18281,-0.448042 2.12787,6.373334 -7.07107,0.891827 0.0982,-2.684387 -3.34008,0.34654 -0.005,2.487968 z"
           id="path5"
           inkscape:label="pants"
           sodipodi:nodetypes="ccccccccc" />
        <path
           style="display:inline;fill:#e9c6af;fill-opacity:1;stroke:#000000;stroke-width:1.49999998;stroke-linecap:round;stroke-linejoin:round;stroke-dasharray:none;paint-order:fill markers stroke"
           d="m -102.6662,-90.558172 c 0,0 1.50588,-6.350865 1.50588,-6.612758 0,-0.261892 1.964184,-7.7258 1.964184,-7.7258 l 3.993843,0.9821 c -0.0048,1.35096 -0.347362,2.64835 0.851147,3.53553 0.950732,0.440431 2.190669,0.37212 3.142697,-0.0655 1.386909,-0.83461 1.090293,-1.9946 1.047568,-3.40459 l 3.404587,-0.58925 c 0,0 0.252989,4.947433 0.589256,7.398425 0.278085,2.026916 1.178512,6.023504 1.178512,6.023504 0,0 -5.73609,1.097128 -8.642418,1.17851 -3.02012,0.08457 -9.035256,-0.720171 -9.035256,-0.720171 z"
           id="path6"
           sodipodi:nodetypes="csccssccscsc"
           inkscape:label="shirt"
           transform="translate(-50.598351,0.22779979)" />
        <ellipse
           style="display:inline;fill:#f9f9f9;fill-opacity:0;stroke:#000000;stroke-width:1.49999998;stroke-linecap:round;stroke-linejoin:round;stroke-miterlimit:1001;stroke-dasharray:none;stroke-opacity:1;paint-order:stroke fill markers"
           id="ellipse6"
           ry="15.393556"
           rx="16.682619"
           cy="-119.60479"
           cx="-142.77336"
           inkscape:label="head"
           transform="translate(1.0485448e-6)" />
        <path
           style="display:inline;fill:#784421;stroke:#000000;stroke-width:1.49999998;stroke-linecap:round;stroke-linejoin:round;stroke-dasharray:none;paint-order:fill markers stroke"
           d="m -160.61988,-115.32381 c 0,0 -1.50966,-5.16986 -1.48149,-7.82407 0.0606,-5.70519 2.38831,-10.76839 5.16136,-12.75724 0.91117,-0.6535 2.08179,-1.06946 3.20238,-1.02975 0.67621,0.024 1.88363,0.75663 1.88363,0.75663 0,0 0.96665,-1.72203 1.74337,-2.28112 1.82556,-1.31406 4.14364,-1.99253 6.38481,-2.18386 11.34441,-0.96848 14.90669,8.41579 20.54568,7.31832 0.85966,-0.16731 0.92404,-2.29503 1.73758,-1.97075 1.97169,0.78593 1.70976,8.4 -7.27965,11.97654 -4.41552,1.75677 -9.60029,2.27328 -14.21193,1.12621 -2.75148,-0.68439 -5.854,-2.91637 -7.17649,-4.56609 -0.91061,-1.13592 -1.57407,-3.14815 -1.57407,-3.14815 0,0 -0.10938,3.01127 -0.90346,4.50526 -0.46196,0.86913 -1.42892,1.31939 -2.33728,1.69844 -0.90627,0.37818 -1.18188,0.35828 -1.56558,0.80157 -0.56966,0.65813 -0.74256,1.60651 -0.84456,2.47095 -0.18904,1.60211 0.45639,4.8181 0.45639,4.8181 z"
           id="path7"
           sodipodi:nodetypes="cssscaaaaaascssaacc"
           inkscape:label="hair" />
      </g>
      <g
         id="g8"
         inkscape:label="eyes"
         transform="translate(-34.322565,-0.0667206)"
         style="display:inline;stroke-width:1.49999998;stroke-dasharray:none">
        <ellipse
           style="fill:#000000;fill-opacity:1;stroke:none;stroke-width:1.50062624;stroke-linecap:round;stroke-linejoin:round;stroke-miterlimit:1001;stroke-dasharray:none;stroke-opacity:1;paint-order:stroke fill markers"
           id="ellipse7"
           cx="-86.904243"
           cy="-98.34063"
           rx="2.1079104"
           ry="2.7033648"
           transform="matrix(0.96864121,0.2484637,-0.20869257,0.97798129,0,0)"
           inkscape:label="right" />
        <ellipse
           style="fill:#000000;fill-opacity:1;stroke:none;stroke-width:1.50001545;stroke-linecap:round;stroke-linejoin:round;stroke-miterlimit:1001;stroke-dasharray:none;stroke-opacity:1;paint-order:stroke fill markers"
           id="ellipse8"
           cx="-36.557335"
           cy="-122.18265"
           rx="1.7384969"
           ry="2.4132938"
           transform="matrix(0.99463321,-0.10346393,0.09707266,0.9952773,0,0)"
           inkscape:label="left" />
      </g>
      <g
         id="g10"
         inkscape:label="phone"
         transform="matrix(0.26458333,0,0,0.26458333,-215.61454,-158.83865)"
         style="display:inline;stroke-width:5.66929133;stroke-dasharray:none">
        <path
           style="fill:#ffe6d5;fill-opacity:1;stroke:#000000;stroke-width:5.66929133;stroke-linecap:round;stroke-linejoin:round;stroke-dasharray:none;paint-order:fill markers stroke"
           d="m 382.56767,156.39247 20.78634,-23.2609 22.27108,42.06759 -21.28125,21.28125 z"
           id="path9"
           sodipodi:nodetypes="ccccc" />
        <circle
           style="fill:#000000;fill-opacity:1;stroke:#000000;stroke-width:5.66929133;stroke-linecap:round;stroke-linejoin:round;stroke-dasharray:none;paint-order:fill markers stroke"
           id="path10"
           cx="391.84726"
           cy="157.75348"
           r="0.86609757" />
      </g>
      <path
         style="display:inline;fill:#ffffff;fill-opacity:1;stroke:#000000;stroke-width:5.66929133;stroke-linecap:round;stroke-linejoin:round;stroke-dasharray:none;paint-order:fill markers stroke"
         d="m 367.34822,180.65111 c -1.99301,-5.86022 -1.93118,-12.72917 -0.65231,-18.78547 1.1004,-5.21115 3.458,-11.24363 8.16606,-13.73383 4.16395,-2.20241 10.23583,-1.82062 14.10502,0.8661 3.33644,2.31678 4.31434,7.12351 4.94913,11.13554 0.68047,4.30069 -1.36101,12.99146 -1.36101,12.99146 l 2.22711,4.57794 c 0,0 3.37068,-7.01101 6.68132,-8.28979 1.84519,-0.71273 4.79478,-0.74758 5.86284,0.91735 3.06768,4.78203 -2.07221,12.35474 -4.62556,16.4046 -2.24509,3.56093 -5.5786,6.83027 -9.52707,8.28979 -4.8744,1.80178 -11.0842,2.46591 -15.58976,-0.12372 -4.90591,-2.81974 -8.41383,-8.89278 -10.23577,-14.24997 z"
         id="path11"
         sodipodi:nodetypes="sssssccsassss"
         inkscape:label="hand"
         transform="matrix(0.26458333,0,0,0.26458333,-212.00343,-154.3942)" />
    </g>
    <g
       id="g17"
       inkscape:label="matthew - panic"
       transform="matrix(3.7795277,0,0,3.7795277,1084.7374,583.53716)"
       style="display:inline"
       inkscape:highlight-color="#999999">
      <g
         id="g15"
         transform="translate(50.598352,-0.2277988)"
         inkscape:label="body"
         style="display:inline">
        <path
           style="display:inline;fill:#f9f9f9;fill-opacity:1;stroke:#000000;stroke-width:0;stroke-linecap:round;stroke-linejoin:round;stroke-dasharray:none;stroke-opacity:0;paint-order:fill markers stroke"
           d="m 705.37949,263.97416 c 0.0108,-3.69972 1.97085,-19.5883 3.33339,-27.02163 1.26666,-6.91023 9.86321,-46.8934 10.15509,-47.23205 0.0373,-0.0432 1.44746,0.20562 3.13376,0.55302 4.69031,0.96627 8.97383,1.38152 14.2513,1.38152 4.16967,0 8.47617,-0.26303 10.08914,-0.61621 0.49589,-0.10858 0.51613,0.0397 0.81935,6.0058 0.65191,12.82629 2.12852,25.33622 6.34467,53.7525 0.85822,5.78429 1.54308,10.53268 1.52191,10.55197 -0.13742,0.12523 -7.47239,1.07848 -8.29856,1.07848 H 745.71 l -0.001,-6.12455 c -8.2e-4,-3.6463 -0.11055,-6.52507 -0.27118,-7.11437 -0.30451,-1.11722 -0.98707,-1.95796 -2.07828,-2.55994 -2.50187,-1.38019 -21.63523,0.94674 -25.67982,3.12309 -2.47005,1.32911 -2.78232,2.99069 -1.793,9.54062 0.36654,2.42675 0.60907,4.46965 0.53895,4.53976 -0.49909,0.4991 -7.88814,1.81232 -10.19727,1.81232 h -0.85342 z"
           id="path61"
           transform="matrix(0.26458333,0,0,0.26458333,-337.60178,-154.1664)" />
        <path
           style="display:inline;fill:#f9f9f9;fill-opacity:1;stroke:#000000;stroke-width:0;stroke-linecap:round;stroke-linejoin:round;stroke-dasharray:none;stroke-opacity:0;paint-order:fill markers stroke"
           d="m 733.70836,185.8026 c -16.48518,-0.84075 -31.35103,-7.35272 -42.07631,-18.43149 -4.48949,-4.63745 -7.3066,-8.61188 -10.01637,-14.13127 -9.85538,-20.07392 -5.81033,-43.49799 10.30547,-59.676976 8.34442,-8.377137 18.57493,-13.9645 30.39579,-16.600583 5.07858,-1.132537 7.9854,-1.436108 13.86599,-1.448079 8.82746,-0.01797 15.50432,1.18016 23.30043,4.181149 19.49824,7.50555 33.12582,23.642559 36.37507,43.073329 0.55104,3.29528 0.62357,11.98491 0.12573,15.06456 -1.51648,9.38098 -5.25621,17.87616 -11.17604,25.38752 -8.25841,10.47865 -21.32967,18.40102 -35.01509,21.2223 -4.79937,0.98941 -11.77737,1.57921 -16.08467,1.35954 z"
           id="path60"
           transform="matrix(0.26458333,0,0,0.26458333,-337.60178,-154.1664)" />
        <path
           style="display:inline;fill:#f9f9f9;fill-opacity:0;stroke:#000000;stroke-width:1.49999998;stroke-linecap:round;stroke-linejoin:round;stroke-miterlimit:1001;stroke-dasharray:none;stroke-opacity:1;paint-order:stroke fill markers"
           d="m -148.03164,-104.78796 c 0,0 -1.45625,6.491187 -2.21827,10.116169 -0.35033,1.666547 -0.73974,3.495931 -0.96341,5.266487 -0.25635,2.029349 -0.78917,5.697504 -0.43156,6.121237 0.35761,0.423733 3.59111,-0.02535 4.18398,-0.500433 0.59287,-0.475088 -0.40107,-3.055873 -0.0191,-3.53863 0.382,-0.482757 6.00307,-1.170713 6.29817,-0.848501 0.2951,0.322212 -0.0275,3.62726 0.16278,4.114573 0.50176,0.401375 4.08807,-0.338983 4.08807,-0.338983 0,0 -1.5286,-9.764104 -2.00605,-14.679673 -0.17444,-1.795926 -0.31293,-5.404086 -0.31293,-5.404086"
           id="path12"
           sodipodi:nodetypes="csazzzzccac"
           inkscape:label="body"
           transform="translate(1.0485448e-6)" />
        <path
           style="display:inline;fill:#000080;fill-opacity:1;stroke:#000000;stroke-width:1.5;stroke-linecap:round;stroke-linejoin:round;stroke-dasharray:none;paint-order:fill markers stroke"
           d="m -153.13826,-83.990738 1.48341,-7.621969 14.18281,-0.448042 2.12787,6.373334 -7.07107,0.891827 0.0982,-2.684387 -3.34008,0.34654 -0.005,2.487968 z"
           id="path13"
           inkscape:label="pants"
           sodipodi:nodetypes="ccccccccc" />
        <path
           style="display:inline;fill:#e9c6af;fill-opacity:1;stroke:#000000;stroke-width:1.5;stroke-linecap:round;stroke-linejoin:round;stroke-dasharray:none;paint-order:fill markers stroke"
           d="m -102.6662,-90.558172 c 0,0 1.50588,-6.350865 1.50588,-6.612758 0,-0.261892 1.964184,-7.7258 1.964184,-7.7258 l 3.993843,0.9821 c -0.0048,1.35096 -0.347362,2.64835 0.851147,3.53553 0.950732,0.440431 2.190669,0.37212 3.142697,-0.0655 1.386909,-0.83461 1.090293,-1.9946 1.047568,-3.40459 l 3.404587,-0.58925 c 0,0 0.252989,4.947433 0.589256,7.398425 0.278085,2.026916 1.178512,6.023504 1.178512,6.023504 0,0 -5.73609,1.097128 -8.642418,1.17851 -3.02012,0.08457 -9.035256,-0.720171 -9.035256,-0.720171 z"
           id="path14"
           sodipodi:nodetypes="csccssccscsc"
           inkscape:label="shirt"
           transform="translate(-50.598351,0.22779979)" />
        <ellipse
           style="display:inline;fill:#f9f9f9;fill-opacity:0;stroke:#000000;stroke-width:1.49999998;stroke-linecap:round;stroke-linejoin:round;stroke-miterlimit:1001;stroke-dasharray:none;stroke-opacity:1;paint-order:stroke fill markers"
           id="ellipse14"
           ry="15.393556"
           rx="16.682619"
           cy="-119.60479"
           cx="-142.77336"
           inkscape:label="head"
           transform="translate(1.0485448e-6)" />
        <path
           style="display:inline;fill:#784421;stroke:#000000;stroke-width:1.5;stroke-linecap:round;stroke-linejoin:round;stroke-dasharray:none;paint-order:fill markers stroke"
           d="m -160.61988,-115.32381 c 0,0 -1.50968,-5.16986 -1.48149,-7.82407 0.0303,-2.85259 -3.4467,-9.71136 -2.51056,-11.93891 0.93613,-2.22756 6.2854,0.1761 7.67192,-0.81833 0.91117,-0.6535 2.08179,-1.06946 3.20238,-1.02975 0.67621,0.024 1.88363,0.75663 1.88363,0.75663 0,0 -0.14446,-3.75907 0.63226,-4.31816 0.91278,-0.65703 3.0598,0.88188 4.14766,0.52409 1.08786,-0.35779 3.06101,-4.18636 4.18159,-4.28202 2.83611,-0.24212 4.3525,3.77392 6.36988,4.50035 2.01738,0.72644 5.46168,-3.41081 6.96842,-2.3669 3.0135,2.08783 1.42492,8.14102 4.24442,7.59228 0.85966,-0.16731 3.13254,-1.8567 3.86721,-0.76705 1.96343,2.91211 -2.87493,6.83237 -5.7757,8.8125 -4.13742,2.82429 -9.71818,3.5512 -14.70667,3.09313 -2.93826,-0.26981 -6.86321,-1.71925 -8.1857,-3.36897 -0.91061,-1.13592 -1.57407,-3.14815 -1.57407,-3.14815 0,0 -0.10938,3.01127 -0.90346,4.50526 -0.46196,0.86913 -1.42892,1.31939 -2.33728,1.69844 -0.90627,0.37818 -1.18188,0.35828 -1.56558,0.80157 -0.56966,0.65813 -0.74256,1.60651 -0.84456,2.47095 -0.18904,1.60211 0.45639,4.8181 0.45639,4.8181 z"
           id="path15"
           sodipodi:nodetypes="csssscssssssaaascssaacc"
           inkscape:label="hair" />
      </g>
      <g
         id="g16"
         inkscape:label="eyes"
         transform="translate(-34.322565,-0.0667206)"
         style="display:inline">
        <path
           style="display:inline;fill:#ffffff;fill-opacity:0;stroke:#000000;stroke-width:1.5;stroke-linecap:round;stroke-linejoin:round;stroke-dasharray:none;stroke-opacity:1;paint-order:fill markers stroke"
           d="m -103.841,-122.64065 c 6.490404,-0.14601 10.017678,-6.00048 10.017678,-6.00048"
           id="path32"
           transform="translate(34.322572,0.06672159)" />
        <path
           style="display:inline;fill:#ffffff;fill-opacity:0;stroke:#000000;stroke-width:1.18903;stroke-linecap:round;stroke-linejoin:round;stroke-dasharray:none;stroke-opacity:1;paint-order:fill markers stroke"
           d="m -76.811043,-123.59699 c -6.020321,0.1038 -6.85071,-4.56714 -6.85071,-4.56714"
           id="path33"
           transform="translate(34.322572,0.06672159)" />
        <ellipse
           style="display:inline;fill:#ffffff;fill-opacity:1;stroke:#000000;stroke-width:2.50027;stroke-linecap:round;stroke-linejoin:round;stroke-miterlimit:1001;stroke-dasharray:none;stroke-opacity:1;paint-order:stroke fill markers"
           id="ellipse15"
           cx="-98.653854"
           cy="-91.811203"
           rx="2.5478287"
           ry="2.8861537"
           transform="matrix(0.94694551,0.32139416,-0.3408771,0.94010786,-6.3019723e-7,-1.0379705e-6)"
           inkscape:label="left" />
        <ellipse
           style="fill:#ffffff;fill-opacity:1;stroke:#000000;stroke-width:2.50027;stroke-linecap:round;stroke-linejoin:round;stroke-miterlimit:1001;stroke-dasharray:none;stroke-opacity:1;paint-order:stroke fill markers"
           id="ellipse913"
           cx="4.9431376"
           cy="-127.76955"
           rx="2.5478287"
           ry="2.8861537"
           transform="matrix(-0.94694551,0.32139415,0.3408771,0.94010787,0,0)"
           inkscape:label="right" />
      </g>
      <g
         id="g34"
         inkscape:label="mouth"
         style="display:inline"
         transform="translate(-1.0583333,-0.52916666)">
        <path
           style="fill:#f9f9f9;fill-opacity:1;stroke:#000000;stroke-width:1.23939;stroke-linecap:round;stroke-linejoin:round;stroke-dasharray:none;stroke-opacity:1;paint-order:fill markers stroke"
           d="m -90.980769,-113.3416 c 0.960232,-0.37065 2.054366,0.15082 3.083586,0.16225 1.085351,0.0121 2.282176,-0.58072 3.254754,-0.0988 0.680134,0.33699 1.20793,1.10265 1.323811,1.8528 0.240763,1.55857 -0.177283,3.58349 -1.460647,4.50006 -0.757815,0.54122 -1.862277,-0.0647 -2.793334,-0.0463 -1.205343,0.0238 -2.604258,0.86604 -3.611041,0.20286 -1.37978,-0.90888 -2.05227,-3.04275 -1.698365,-4.65663 0.192735,-0.87891 1.061809,-1.59221 1.901236,-1.91623 z"
           id="path17"
           sodipodi:nodetypes="aaaaaaaaa" />
        <path
           style="fill:#f9f9f9;fill-opacity:1;stroke:#000000;stroke-width:1.5;stroke-linecap:round;stroke-linejoin:round;stroke-dasharray:none;stroke-opacity:1;paint-order:fill markers stroke"
           d="m -92.188618,-108.60716 c 0,0 1.450655,-1.29611 2.361112,-1.48148 0.765709,-0.1559 1.535372,0.4259 2.314814,0.37036 0.467402,-0.0333 0.874446,-0.43694 1.342593,-0.41666 0.815969,0.0354 2.268519,0.92592 2.268519,0.92592"
           id="path18"
           sodipodi:nodetypes="caaac" />
        <path
           style="fill:#ff0000;fill-opacity:1;stroke:#000000;stroke-width:0.992002;stroke-linecap:round;stroke-linejoin:round;stroke-dasharray:none;stroke-opacity:1;paint-order:fill markers stroke"
           d="m 741.69067,178.03969 c -0.90866,-0.46208 -3.0205,-2.54387 -3.0205,-2.97752 0,-0.39505 3.92339,-3.25264 5.77428,-4.20567 1.30808,-0.67354 2.32438,-0.64468 4.98687,0.14163 3.63825,1.07448 5.09826,1.04546 7.89728,-0.15699 1.46814,-0.63071 1.54064,-0.64366 2.4942,-0.44567 0.54015,0.11215 2.18394,0.7965 3.65287,1.52076 l 2.67076,1.31685 -0.33585,0.65831 c -0.60556,1.187 -1.93775,2.79969 -2.76582,3.34818 -1.03594,0.68618 -1.92515,0.70198 -5.03951,0.0895 -3.75028,-0.73751 -5.81043,-0.62588 -10.49869,0.56889 -0.96238,0.24525 -2.45844,0.48234 -3.32458,0.52685 -1.44588,0.0743 -1.64984,0.0428 -2.49131,-0.38514 z"
           id="path19"
           transform="matrix(0.26458333,0,0,0.26458333,-287.00343,-154.3942)" />
        <path
           style="fill:#333333;fill-opacity:1;stroke:#000000;stroke-width:0.992002;stroke-linecap:round;stroke-linejoin:round;stroke-dasharray:none;stroke-opacity:1;paint-order:fill markers stroke"
           d="m 736.04417,168.98513 c -7.3e-4,-0.1203 -0.0788,-0.88802 -0.17339,-1.70604 -0.21957,-1.89806 0.0355,-4.11756 0.62072,-5.40094 0.61265,-1.34357 2.28334,-2.91535 4.10766,-3.86446 2.05108,-1.06709 3.02903,-1.11419 7.44644,-0.35864 3.94301,0.67441 5.5796,0.65942 9.87216,-0.0904 4.41667,-0.77152 5.71151,-0.52271 7.5591,1.45252 0.93674,1.00145 1.57529,2.18658 1.88383,3.49634 0.21326,0.9053 0.35222,4.47658 0.18087,4.64835 -0.0481,0.0482 -0.90617,-0.3038 -1.90679,-0.7823 -2.23922,-1.07082 -3.94006,-1.65176 -5.58156,-1.90645 -1.5408,-0.23906 -2.67539,-0.0417 -4.6597,0.81053 -0.76279,0.3276 -1.67525,0.59565 -2.02769,0.59565 -0.35244,0 -1.57874,-0.28203 -2.7251,-0.62673 -2.42967,-0.73057 -4.7124,-0.95045 -6.21815,-0.59894 -1.80732,0.4219 -4.78351,2.03515 -7.30149,3.95777 -0.83237,0.63556 -1.07481,0.7197 -1.07691,0.37376 z"
           id="path20"
           transform="matrix(0.26458333,0,0,0.26458333,-287.00343,-154.3942)" />
      </g>
      <g
         id="g33"
         inkscape:label="hands"
         style="display:inline">
        <circle
           style="fill:#ffffff;fill-opacity:1;stroke:#000000;stroke-width:1.5;stroke-linecap:round;stroke-linejoin:round;stroke-dasharray:none;stroke-opacity:1;paint-order:fill markers stroke"
           id="path26"
           cx="-119.59602"
           cy="-119.3942"
           r="4.2592592" />
        <circle
           style="fill:#ffffff;fill-opacity:1;stroke:#000000;stroke-width:1.5;stroke-linecap:round;stroke-linejoin:round;stroke-dasharray:none;stroke-opacity:1;paint-order:fill markers stroke"
           id="path27"
           cx="-118.29974"
           cy="-106.24604"
           r="6.0450315" />
        <circle
           style="fill:#ffffff;fill-opacity:1;stroke:#000000;stroke-width:1.5;stroke-linecap:round;stroke-linejoin:round;stroke-dasharray:none;stroke-opacity:1;paint-order:fill markers stroke"
           id="path28"
           cx="-108.11455"
           cy="-98.283096"
           r="3.7037036" />
        <circle
           style="fill:#ffffff;fill-opacity:1;stroke:#000000;stroke-width:1.5;stroke-linecap:round;stroke-linejoin:round;stroke-dasharray:none;stroke-opacity:1;paint-order:fill markers stroke"
           id="path29"
           cx="-67.188614"
           cy="-116.61642"
           r="3.3333333" />
        <circle
           style="fill:#ffffff;fill-opacity:1;stroke:#000000;stroke-width:1.5;stroke-linecap:round;stroke-linejoin:round;stroke-dasharray:none;stroke-opacity:1;paint-order:fill markers stroke"
           id="path30"
           cx="-70.336777"
           cy="-105.87568"
           r="5.185185" />
        <circle
           style="fill:#ffffff;fill-opacity:1;stroke:#000000;stroke-width:1.5;stroke-linecap:round;stroke-linejoin:round;stroke-dasharray:none;stroke-opacity:1;paint-order:fill markers stroke"
           id="path31"
           cx="-78.577492"
           cy="-97.449753"
           r="3.0555556" />
      </g>
    </g>
    <g
       id="g39"
       inkscape:label="matthew - falling"
       transform="matrix(3.7297777,0.61121842,-0.61121842,3.7297777,453.39833,954.64169)"
       style="display:inline"
       inkscape:highlight-color="#999999">
      <g
         id="g37"
         transform="translate(50.598352,-0.2277988)"
         inkscape:label="body"
         style="display:inline">
        <path
           style="display:inline;fill:#f9f9f9;fill-opacity:1;stroke:#000000;stroke-width:0;stroke-linecap:round;stroke-linejoin:round;stroke-dasharray:none;stroke-opacity:0;paint-order:fill markers stroke"
           d="m 165.17718,589.94068 c -0.88466,-0.3845 -1.60847,-0.93701 -1.60847,-1.2278 0,-0.29078 1.0022,-2.52418 2.22711,-4.96313 3.12257,-6.21741 3.05334,-7.35708 -0.66059,-10.87489 -3.79775,-3.5972 -15.18155,-11.81617 -19.59802,-14.14953 l -3.49721,-1.84769 -8.33577,2.30052 c -4.58468,1.26528 -8.50254,2.30051 -8.70637,2.30051 -0.20382,0 -0.64275,-0.94652 -0.9754,-2.10337 -0.33264,-1.15686 -0.71697,-2.49313 -0.85406,-2.96948 -0.17686,-0.61457 0.0318,-0.8661 0.71856,-0.8661 2.03044,0 9.92829,-2.61218 14.31482,-4.73456 6.78279,-3.28179 9.61821,-6.26558 13.39699,-14.09801 2.96748,-6.15082 5.76681,-13.85774 8.25971,-22.74011 0.72576,-2.58592 1.38848,-4.77092 1.47273,-4.85555 0.0842,-0.0846 1.68002,0.30186 3.54617,0.85885 5.09683,1.52127 11.65394,2.51196 16.62597,2.51196 4.03358,0 4.41028,0.0797 4.09394,0.8661 -0.19162,0.47635 -0.65824,4.87489 -1.03692,9.77453 -1.63558,21.16208 -2.77631,27.63447 -7.36043,41.76227 -1.73262,5.33977 -4.29062,13.32772 -5.68444,17.751 -2.79192,8.86014 -2.78294,8.8498 -6.33832,7.30448 z"
           id="path63"
           transform="matrix(0.26110061,-0.04278794,0.04278794,0.26110061,-209.82808,-229.62975)" />
        <path
           style="display:inline;fill:#f9f9f9;fill-opacity:0;stroke:#000000;stroke-width:1.5;stroke-linecap:round;stroke-linejoin:round;stroke-miterlimit:1001;stroke-dasharray:none;stroke-opacity:1;paint-order:stroke fill markers"
           d="m -138.70265,-103.6746 c 0,0 0.72611,6.543797 0.61688,9.822643 -0.0709,2.127493 -0.49308,4.229829 -0.82356,6.332692 -0.29604,1.88374 -0.59633,5.290297 -1.0379,5.625641 -0.44156,0.335343 -2.282,0.10123 -2.75672,-0.491929 -0.47471,-0.59317 0.93995,-3.042086 0.67272,-3.596644 -0.26728,-0.554573 -6.57117,-3.679457 -6.92955,-3.429519 -0.35839,0.249932 -3.9388,1.718852 -4.23097,2.152806 -0.57734,0.282021 -1.81283,-2.997089 -1.81283,-2.997089 0,0 4.22954,-1.248295 5.97854,-3.6408 1.74901,-2.392506 2.31739,-10.563221 2.31739,-10.563221"
           id="path34"
           sodipodi:nodetypes="caazczzcccc"
           inkscape:label="body" />
        <path
           style="display:inline;fill:#000080;fill-opacity:1;stroke:#000000;stroke-width:1.5;stroke-linecap:round;stroke-linejoin:round;stroke-dasharray:none;paint-order:fill markers stroke"
           d="m -136.80261,-82.429288 -0.35686,-9.054224 -13.86615,-2.919266 -4.39247,1.314414 4.05219,7.087274 2.43025,-2.379306 5.97793,2.59434 -1.53513,2.477346 z"
           id="path35"
           inkscape:label="pants"
           sodipodi:nodetypes="ccccccccc" />
        <path
           style="display:inline;fill:#e9c6af;fill-opacity:1;stroke:#000000;stroke-width:1.5;stroke-linecap:round;stroke-linejoin:round;stroke-dasharray:none;paint-order:fill markers stroke"
           d="m -151.95253,-95.025956 c 0,0 1.83231,-2.534446 2.40286,-3.973212 0.80875,-2.039472 1.37943,-6.435742 1.37943,-6.435742 l 3.99384,0.9821 c -0.005,1.35096 -0.34736,2.64835 0.85115,3.53553 0.95073,0.44043 2.19067,0.37212 3.1427,-0.0655 1.38691,-0.83461 1.09029,-1.9946 1.04757,-3.40459 l 3.40458,-0.58925 c 0,0 0.52971,4.92519 0.58926,7.398418 0.0603,2.505778 -0.23559,7.515822 -0.23559,7.515822 0,0 -6.34325,-0.03119 -9.32547,-0.965324 -2.63372,-0.824973 -7.25033,-3.998252 -7.25033,-3.998252 z"
           id="path36"
           sodipodi:nodetypes="caccssccacac"
           inkscape:label="shirt" />
        <path
           style="display:inline;fill:#f9f9f9;fill-opacity:1;stroke:#000000;stroke-width:0;stroke-linecap:round;stroke-linejoin:round;stroke-dasharray:none;stroke-opacity:0;paint-order:fill markers stroke"
           d="m 174.70425,505.84746 c -24.81941,-4.16734 -44.13522,-20.84375 -50.09466,-43.24951 -1.10021,-4.13644 -1.28248,-5.86886 -1.31252,-12.47468 -0.0295,-6.48457 0.14104,-8.34477 1.1024,-12.02611 3.7908,-14.51611 12.55496,-25.96312 25.86527,-33.78302 4.59447,-2.69929 12.58528,-5.74931 18.2531,-6.96704 5.89327,-1.26617 19.34704,-1.27564 25.24056,-0.0178 33.8938,7.2341 54.91866,37.47155 47.26765,67.97919 -4.73953,18.89838 -20.5904,34.03428 -41.18641,39.32867 -4.96901,1.27733 -6.97093,1.52746 -13.50494,1.68734 -4.98345,0.12194 -9.05834,-0.0452 -11.63045,-0.47708 z"
           id="path62"
           transform="matrix(0.26110061,-0.04278794,0.04278794,0.26110061,-209.82808,-229.62975)" />
        <ellipse
           style="display:inline;fill:#f9f9f9;fill-opacity:0;stroke:#000000;stroke-width:1.5;stroke-linecap:round;stroke-linejoin:round;stroke-miterlimit:1001;stroke-dasharray:none;stroke-opacity:1;paint-order:stroke fill markers"
           id="ellipse36"
           ry="15.393556"
           rx="16.682619"
           cy="-119.60479"
           cx="-142.77336"
           inkscape:label="head"
           transform="translate(1.0485448e-6)" />
        <path
           style="display:inline;fill:#784421;stroke:#000000;stroke-width:1.5;stroke-linecap:round;stroke-linejoin:round;stroke-dasharray:none;paint-order:fill markers stroke"
           d="m -159.36455,-111.91343 c 0,0 -2.94959,-6.7193 -2.90899,-10.28043 0.0426,-3.73275 0.9763,-7.77728 3.29409,-10.70355 1.18106,-1.49113 3.80264,-2.87272 4.92486,-2.88286 0.6772,-0.006 1.93631,0.73436 1.93631,0.73436 0,0 0.8409,-1.92172 1.57628,-2.56769 1.7284,-1.51828 3.99478,-2.36773 6.2196,-2.68293 11.26168,-1.59546 15.49942,8.45617 21.05268,6.99209 0.84659,-0.2232 0.75686,-2.5438 1.59297,-2.22935 2.0264,0.76208 2.31601,9.06786 -6.40445,13.39181 -4.28343,2.12389 -9.42504,2.93355 -14.1146,1.90392 -2.79797,-0.61433 -6.05864,-2.89757 -7.4991,-4.63143 -0.99183,-1.19386 -1.80023,-3.35398 -1.80023,-3.35398 0,0 0.10871,3.28511 -0.57629,4.95021 -0.39852,0.96868 -1.3318,1.50519 -2.21171,1.96133 -0.87788,0.45511 -1.15463,0.44656 -1.5058,0.94768 -0.52139,0.74399 -0.62543,1.78521 -0.66473,2.73162 -0.0729,1.75403 0.80471,5.22616 0.80471,5.22616 z"
           id="path37"
           sodipodi:nodetypes="caascaaaaaascssaacc"
           inkscape:label="hair" />
      </g>
      <g
         id="g38"
         inkscape:label="eyes"
         transform="rotate(-3.6805281,-58.476903,382.13853)"
         style="display:inline;fill:#ffffff;stroke:#000000;stroke-width:3;stroke-dasharray:none;stroke-opacity:1">
        <ellipse
           style="fill:#ffffff;fill-opacity:1;stroke:#000000;stroke-width:2.50746;stroke-linecap:round;stroke-linejoin:round;stroke-miterlimit:1001;stroke-dasharray:none;stroke-opacity:1;paint-order:stroke fill markers"
           id="ellipse37"
           cx="-31.891565"
           cy="-131.46899"
           rx="2.8945749"
           ry="3.0583718"
           transform="matrix(0.93358572,-0.35835415,0.25458751,0.96704974,0,0)"
           inkscape:label="left" />
        <ellipse
           style="fill:#ffffff;fill-opacity:1;stroke:#000000;stroke-width:2.50003;stroke-linecap:round;stroke-linejoin:round;stroke-miterlimit:1001;stroke-dasharray:none;stroke-opacity:1;paint-order:stroke fill markers"
           id="ellipse38"
           cx="-77.590477"
           cy="-99.076889"
           rx="2.264297"
           ry="3.143183"
           transform="matrix(0.96907632,0.2467612,-0.25298108,0.96747123,0,0)"
           inkscape:label="right" />
        <circle
           id="path39"
           style="fill:#000000;stroke:#000000;stroke-width:0;stroke-dasharray:none;stroke-opacity:0.913495"
           cx="-51.003632"
           cy="-119.47018"
           r="1.1222399"
           transform="rotate(-5.6261139)" />
        <circle
           id="circle39"
           style="fill:#000000;stroke:#000000;stroke-width:0;stroke-dasharray:none;stroke-opacity:0.913495"
           cx="-38.181721"
           cy="-117.83337"
           r="1.1222399"
           transform="rotate(-5.6261139)" />
      </g>
    </g>
    <g
       id="g24"
       inkscape:label="matthew - upside down"
       transform="matrix(-3.7795277,0,0,3.7795277,115.85317,912.53109)"
       style="display:inline"
       inkscape:highlight-color="#999999">
      <g
         id="g22"
         transform="translate(50.598352,-0.2277988)"
         inkscape:label="body"
         style="display:inline">
        <path
           style="display:inline;fill:#f9f9f9;fill-opacity:1;stroke:#000000;stroke-width:0;stroke-linecap:round;stroke-linejoin:round;stroke-dasharray:none;stroke-opacity:0;paint-order:fill markers stroke"
           d="m 459.66322,514.58175 c -21.27434,-1.42428 -40.62,-13.69227 -49.6572,-31.48994 -3.89393,-7.66862 -5.68977,-15.06182 -5.68568,-23.40709 0.007,-14.76408 5.53008,-27.35206 16.76096,-38.20249 21.76987,-21.03242 57.55264,-22.76776 81.80585,-3.96729 25.58737,19.83469 28.55529,55.08746 6.58326,78.19562 -6.85196,7.20625 -14.69029,12.22906 -24.30862,15.57698 -4.26983,1.48624 -10.88032,2.87306 -14.99555,3.14594 -1.63605,0.10848 -3.76203,0.24691 -4.72441,0.30762 -0.96238,0.0607 -3.56275,-0.011 -5.77861,-0.15935 z"
           id="path64"
           transform="matrix(-0.26458333,0,0,0.26458333,-19.945535,-241.21271)" />
        <path
           style="display:inline;fill:#f9f9f9;fill-opacity:1;stroke:#000000;stroke-width:0;stroke-linecap:round;stroke-linejoin:round;stroke-dasharray:none;stroke-opacity:0;paint-order:fill markers stroke"
           d="m 487.54069,593.69862 c -1.7039,-0.35906 -3.18303,-0.73786 -3.28695,-0.84179 -0.10393,-0.10392 0.0706,-1.88568 0.38784,-3.95946 1.07374,-7.01903 0.60099,-9.32814 -2.14705,-10.48707 -3.15114,-1.32894 -15.90135,-3.25589 -21.54925,-3.25676 -5.59069,-8.7e-4 -6.17712,0.94664 -6.17712,9.98041 v 6.11715 l -1.31233,4.5e-4 c -1.83681,6.2e-4 -7.20292,-0.74651 -7.54513,-1.05053 -0.15594,-0.13854 0.58649,-6.14004 1.64985,-13.33668 3.56925,-24.15615 5.1774,-37.74094 5.83669,-49.30528 0.22495,-3.94575 0.4506,-7.22237 0.50145,-7.28136 0.0509,-0.059 2.39647,0.0722 5.21249,0.29158 5.92423,0.46148 12.6454,0.0698 18.63395,-1.08585 2.03297,-0.39232 3.77152,-0.63811 3.86344,-0.54619 0.33908,0.33908 8.41829,37.37706 10.04878,46.06714 1.28465,6.84692 2.96281,19.95823 3.48258,27.2091 l 0.15679,2.18723 -2.32902,-0.0246 c -1.28096,-0.0136 -3.72312,-0.3184 -5.42701,-0.67747 z"
           id="path65"
           transform="matrix(-0.26458333,0,0,0.26458333,-19.945535,-241.21271)" />
        <path
           style="display:inline;fill:#f9f9f9;fill-opacity:0;stroke:#000000;stroke-width:1.5;stroke-linecap:round;stroke-linejoin:round;stroke-miterlimit:1001;stroke-dasharray:none;stroke-opacity:1;paint-order:stroke fill markers"
           d="m -148.03164,-104.78796 c 0,0 -1.45625,6.491187 -2.21827,10.116169 -0.35033,1.666547 -0.73974,3.495931 -0.96341,5.266487 -0.25635,2.029349 -0.78917,5.697504 -0.43156,6.121237 0.35761,0.423733 3.59111,-0.02535 4.18398,-0.500433 0.59287,-0.475088 -0.40107,-3.055873 -0.0191,-3.53863 0.382,-0.482757 6.00307,-1.170713 6.29817,-0.848501 0.2951,0.322212 -0.0275,3.62726 0.16278,4.114573 0.50176,0.401375 4.08807,-0.338983 4.08807,-0.338983 0,0 -1.5286,-9.764104 -2.00605,-14.679673 -0.17444,-1.795926 -0.31293,-5.404086 -0.31293,-5.404086"
           id="path8"
           sodipodi:nodetypes="csazzzzccac"
           inkscape:label="body"
           transform="translate(1.0485448e-6)" />
        <path
           style="display:inline;fill:#000080;fill-opacity:1;stroke:#000000;stroke-width:1.5;stroke-linecap:round;stroke-linejoin:round;stroke-dasharray:none;paint-order:fill markers stroke"
           d="m -153.13826,-83.990738 1.48341,-7.621969 14.18281,-0.448042 2.12787,6.373334 -7.07107,0.891827 0.0982,-2.684387 -3.34008,0.34654 -0.005,2.487968 z"
           id="path16"
           inkscape:label="pants"
           sodipodi:nodetypes="ccccccccc" />
        <path
           style="display:inline;fill:#e9c6af;fill-opacity:1;stroke:#000000;stroke-width:1.5;stroke-linecap:round;stroke-linejoin:round;stroke-dasharray:none;paint-order:fill markers stroke"
           d="m -102.6662,-90.558172 c 0,0 1.50588,-6.350865 1.50588,-6.612758 0,-0.261892 1.964184,-7.7258 1.964184,-7.7258 l 3.993843,0.9821 c -0.0048,1.35096 -0.347362,2.64835 0.851147,3.53553 0.950732,0.440431 2.190669,0.37212 3.142697,-0.0655 1.386909,-0.83461 1.090293,-1.9946 1.047568,-3.40459 l 3.404587,-0.58925 c 0,0 0.252989,4.947433 0.589256,7.398425 0.278085,2.026916 1.178512,6.023504 1.178512,6.023504 0,0 -5.73609,1.097128 -8.642418,1.17851 -3.02012,0.08457 -9.035256,-0.720171 -9.035256,-0.720171 z"
           id="path21"
           sodipodi:nodetypes="csccssccscsc"
           inkscape:label="shirt"
           transform="translate(-50.598351,0.22779979)" />
        <ellipse
           style="display:inline;fill:#f9f9f9;fill-opacity:0;stroke:#000000;stroke-width:1.5;stroke-linecap:round;stroke-linejoin:round;stroke-miterlimit:1001;stroke-dasharray:none;stroke-opacity:1;paint-order:stroke fill markers"
           id="ellipse21"
           ry="15.393556"
           rx="16.682619"
           cy="-119.60479"
           cx="-142.77336"
           inkscape:label="head"
           transform="translate(1.0485448e-6)" />
        <path
           style="display:inline;fill:#784421;stroke:#000000;stroke-width:1.5;stroke-linecap:round;stroke-linejoin:round;stroke-dasharray:none;paint-order:fill markers stroke"
           d="m -160.61988,-115.32381 c 0,0 -1.50966,-5.16986 -1.48149,-7.82407 0.0606,-5.70519 2.38831,-10.76839 5.16136,-12.75724 0.91117,-0.6535 2.08179,-1.06946 3.20238,-1.02975 0.67621,0.024 1.88363,0.75663 1.88363,0.75663 0,0 0.96665,-1.72203 1.74337,-2.28112 1.82556,-1.31406 4.14364,-1.99253 6.38481,-2.18386 11.34441,-0.96848 14.90669,8.41579 20.54568,7.31832 0.85966,-0.16731 0.92404,-2.29503 1.73758,-1.97075 1.97169,0.78593 1.70976,8.4 -7.27965,11.97654 -4.41552,1.75677 -9.60029,2.27328 -14.21193,1.12621 -2.75148,-0.68439 -5.854,-2.91637 -7.17649,-4.56609 -0.91061,-1.13592 -1.57407,-3.14815 -1.57407,-3.14815 0,0 -0.10938,3.01127 -0.90346,4.50526 -0.46196,0.86913 -1.42892,1.31939 -2.33728,1.69844 -0.90627,0.37818 -1.18188,0.35828 -1.56558,0.80157 -0.56966,0.65813 -0.74256,1.60651 -0.84456,2.47095 -0.18904,1.60211 0.45639,4.8181 0.45639,4.8181 z"
           id="path22"
           sodipodi:nodetypes="cssscaaaaaascssaacc"
           inkscape:label="hair" />
      </g>
      <g
         id="g23"
         inkscape:label="eyes"
         transform="translate(-34.322565,-0.0667206)"
         style="display:inline">
        <ellipse
           style="fill:#000000;fill-opacity:1;stroke:none;stroke-width:0.593632;stroke-linecap:round;stroke-linejoin:round;stroke-miterlimit:1001;stroke-dasharray:none;stroke-opacity:1;paint-order:stroke fill markers"
           id="ellipse22"
           cx="-86.904243"
           cy="-98.34063"
           rx="2.1079104"
           ry="2.7033648"
           transform="matrix(0.96864121,0.2484637,-0.20869257,0.97798129,0,0)"
           inkscape:label="right" />
        <ellipse
           style="fill:#000000;fill-opacity:1;stroke:none;stroke-width:0.509367;stroke-linecap:round;stroke-linejoin:round;stroke-miterlimit:1001;stroke-dasharray:none;stroke-opacity:1;paint-order:stroke fill markers"
           id="ellipse23"
           cx="-36.557335"
           cy="-122.18265"
           rx="1.7384969"
           ry="2.4132938"
           transform="matrix(0.99463321,-0.10346393,0.09707266,0.9952773,0,0)"
           inkscape:label="left" />
      </g>
    </g>
  </g>
</svg>
