<?xml version="1.0" encoding="UTF-8" standalone="no"?>
<!-- Created with Inkscape (http://www.inkscape.org/) -->

<svg
   width="36.03653mm"
   height="55.176994mm"
   viewBox="0 0 136.20106 208.54298"
   version="1.1"
   id="svg1"
   inkscape:version="1.2.2 (732a01da63, 2022-12-09)"
   sodipodi:docname="characters.svg"
   xml:space="preserve"
   xmlns:inkscape="http://www.inkscape.org/namespaces/inkscape"
   xmlns:sodipodi="http://sodipodi.sourceforge.net/DTD/sodipodi-0.dtd"
   xmlns="http://www.w3.org/2000/svg"
   xmlns:svg="http://www.w3.org/2000/svg"><sodipodi:namedview
     id="namedview1"
     pagecolor="#ffffff"
     bordercolor="#000000"
     borderopacity="0.25"
     inkscape:showpageshadow="2"
     inkscape:pageopacity="0.0"
     inkscape:pagecheckerboard="0"
     inkscape:deskcolor="#d1d1d1"
     inkscape:document-units="mm"
     inkscape:zoom="0.98000002"
     inkscape:cx="1428.0612"
     inkscape:cy="677.0408"
     inkscape:window-width="1827"
     inkscape:window-height="1057"
     inkscape:window-x="-9"
     inkscape:window-y="-9"
     inkscape:window-maximized="1"
     inkscape:current-layer="layer1"
     showgrid="true"><inkscape:grid
       id="grid11"
       units="mm"
       originx="0"
       originy="0"
       spacingx="3.7795276"
       spacingy="3.7795276"
       empcolor="#0099e5"
       empopacity="0.30196078"
       color="#0099e5"
       opacity="0.14901961"
       empspacing="5"
       dotted="false"
       gridanglex="30"
       gridanglez="30"
       visible="true" /></sodipodi:namedview><defs
     id="defs1"><linearGradient
       id="linearGradient4322"
       inkscape:swatch="solid"><stop
         style="stop-color:#2b1500;stop-opacity:1;"
         offset="0"
         id="stop4320" /></linearGradient><linearGradient
       id="linearGradient5259"
       inkscape:swatch="solid"><stop
         style="stop-color:#fdb6b0;stop-opacity:1;"
         offset="0"
         id="stop5257" /></linearGradient><linearGradient
       id="linearGradient5745"
       inkscape:swatch="solid"><stop
         style="stop-color:#000000;stop-opacity:1;"
         offset="0"
         id="stop5743" /></linearGradient><linearGradient
       id="linearGradient4753"
       inkscape:swatch="solid"><stop
         style="stop-color:#d1d48d;stop-opacity:1;"
         offset="0"
         id="stop4751" /></linearGradient></defs><g
     inkscape:label="Layer 1"
     inkscape:groupmode="layer"
     id="layer1"
     transform="translate(-1289.1686,-696.52996)"><g
       id="g7361"
       inkscape:label="unknown"
       transform="matrix(3.9064981,0,0,3.9064981,1717.3506,1227.7205)"
       style="display:inline"
       inkscape:highlight-color="#df0000"
       inkscape:export-filename="g7361.png"
       inkscape:export-xdpi="107.71881"
       inkscape:export-ydpi="107.71881"><g
         id="g7353"
         transform="translate(50.598352,-0.2277988)"
         inkscape:label="body"
         style="display:inline"><ellipse
           style="display:inline;fill:none;fill-opacity:1;stroke:#000000;stroke-width:1.5;stroke-linecap:round;stroke-linejoin:round;stroke-miterlimit:1001;stroke-dasharray:none;stroke-opacity:1;paint-order:stroke fill markers"
           id="ellipse7345"
           ry="15.393556"
           rx="16.682619"
           cy="-119.60479"
           cx="-142.77336"
           inkscape:label="head" /><path
           style="display:inline;fill:none;fill-opacity:1;stroke:#000000;stroke-width:1.5;stroke-linecap:round;stroke-linejoin:round;stroke-miterlimit:1001;stroke-dasharray:none;stroke-opacity:1;paint-order:stroke fill markers"
           d="m -148.03164,-104.78796 c 0,0 -1.73403,7.000446 -2.49605,10.625428 -0.35033,1.666547 -0.3462,2.954071 -0.50044,4.433154 -0.22385,2.146611 -0.97436,6.021578 -0.61675,6.445311 0.35761,0.423733 3.59111,-0.02535 4.18398,-0.500433 0.59287,-0.475088 -0.40107,-3.055873 -0.0191,-3.53863 0.382,-0.482757 6.00307,-1.170713 6.29817,-0.848501 0.2951,0.322212 -0.0275,3.62726 0.16278,4.114573 0.50176,0.401375 4.08807,-0.338983 4.08807,-0.338983 0,0 -1.5286,-9.764104 -2.00605,-14.679673 -0.17444,-1.795926 -0.31293,-5.404086 -0.31293,-5.404086"
           id="path7347"
           sodipodi:nodetypes="csazzzzccac"
           inkscape:label="body" /><path
           style="display:inline;fill:#df0000;fill-opacity:1;stroke:#df0000;stroke-width:1.28882;stroke-dasharray:none;stroke-opacity:1;paint-order:fill markers stroke"
           d="m 457.84403,398.97195 c 0.15032,-1.11924 0.68671,-5.04854 1.19197,-8.73178 0.50526,-3.68323 1.33001,-10.84453 1.83278,-15.91399 0.87019,-8.77406 2.61795,-17.52168 7.93229,-39.70156 l 2.23952,-9.34683 1.91132,0.3915 c 5.74407,1.17659 12.41084,1.68354 18.72183,1.42362 l 7.1023,-0.29251 0.41076,7.06353 c 0.55345,9.51725 2.36312,24.98602 5.24216,44.80906 1.31304,9.04067 2.38935,16.75595 2.39179,17.14506 0.002,0.38912 -1.15989,0.88322 -2.58296,1.09799 -1.42307,0.21477 -3.34078,0.53458 -4.26159,0.71068 l -1.6742,0.32018 v -5.74111 c 0,-6.2495 -0.72871,-9.27112 -2.45921,-10.19726 -1.57841,-0.84473 -7.16163,-0.72049 -14.50094,0.32271 -8.43534,1.19898 -10.89721,1.9226 -12.71068,3.73607 -1.45264,1.45264 -1.50326,1.73633 -1.05159,5.89347 0.7803,7.18189 0.77023,7.25692 -1.04026,7.7505 -0.89492,0.24398 -3.27896,0.63532 -5.29787,0.86963 l -3.67074,0.42604 z"
           id="path7349"
           transform="matrix(0.26458333,0,0,0.26458333,-272.0281,-189.98761)" /><path
           style="fill:#df0000;fill-opacity:1;stroke:#df0000;stroke-width:1.35685;stroke-dasharray:none;stroke-opacity:1;paint-order:fill markers stroke"
           d="m 608.77166,320.71975 c -23.59115,-4.27879 -42.49005,-21.13816 -47.78241,-42.62585 -0.58315,-2.36767 -1.05301,-7.84957 -1.04413,-12.18199 0.0559,-27.24723 22.18228,-49.95148 52.33129,-53.69794 13.73801,-1.70715 29.68705,1.9845 41.32117,9.56443 11.42776,7.44548 20.72036,20.03141 23.92723,32.40711 1.71563,6.62087 1.73491,18.17034 0.0414,24.80372 -4.78849,18.75622 -19.7211,33.5084 -40.44706,39.95835 -6.8174,2.12158 -21.39602,3.03298 -28.3475,1.77217 z"
           id="path7351"
           transform="matrix(0.26458333,0,0,0.26458333,-306.65989,-190.14869)" /></g><g
         id="g7359"
         inkscape:label="eyes"
         transform="translate(-34.322565,-0.0667206)"
         style="display:inline"><text
           xml:space="preserve"
           style="font-size:10.5759px;font-family:Arial;-inkscape-font-specification:Arial;fill:#df0000;fill-opacity:1;stroke:#df0000;stroke-width:3.74735;stroke-linecap:round;stroke-linejoin:round;stroke-miterlimit:0;stroke-opacity:1"
           x="-62.441952"
           y="-116.15825"
           id="text7426"><tspan
             sodipodi:role="line"
             id="tspan7424"
             style="font-size:10.5759px;fill:#000000;fill-opacity:1;stroke:none;stroke-width:3.74735;stroke-opacity:1"
             x="-62.441952"
             y="-116.15825">?  ?</tspan></text></g></g></g></svg>
