<?xml version="1.0" encoding="UTF-8" standalone="no"?>
<!-- Uploaded to: SVG Repo, www.svgrepo.com, Generator: SVG Repo Mixer Tools -->

<svg
   width="700.32324"
   height="695.75012"
   viewBox="0 0 14.006465 13.915002"
   fill="none"
   version="1.1"
   id="svg6"
   sodipodi:docname="facebook.svg"
   inkscape:version="1.2.2 (732a01da63, 2022-12-09)"
   xmlns:inkscape="http://www.inkscape.org/namespaces/inkscape"
   xmlns:sodipodi="http://sodipodi.sourceforge.net/DTD/sodipodi-0.dtd"
   xmlns="http://www.w3.org/2000/svg"
   xmlns:svg="http://www.w3.org/2000/svg">
  <defs
     id="defs10" />
  <sodipodi:namedview
     id="namedview8"
     pagecolor="#505050"
     bordercolor="#eeeeee"
     borderopacity="1"
     inkscape:showpageshadow="0"
     inkscape:pageopacity="0"
     inkscape:pagecheckerboard="0"
     inkscape:deskcolor="#505050"
     showgrid="false"
     inkscape:zoom="1.08"
     inkscape:cx="350.46296"
     inkscape:cy="350.46296"
     inkscape:window-width="1827"
     inkscape:window-height="1057"
     inkscape:window-x="-9"
     inkscape:window-y="-9"
     inkscape:window-maximized="1"
     inkscape:current-layer="svg6" />
  <path
     fill="#1877f2"
     d="M 14.006464,7.000003 A 7,7 0 0 0 7.0064644,2.9848751e-6 7,7 0 0 0 5.9124644,13.915003 v -4.892 h -1.776 v -2.023 h 1.777 v -1.542 c 0,-1.754 1.045,-2.724 2.644,-2.724 0.766,0 1.5669996,0.137 1.5669996,0.137 v 1.723 H 9.2414644 c -0.87,0 -1.14,0.54 -1.14,1.093 v 1.313 h 1.9409996 l -0.3099996,2.023 h -1.632 v 4.892 a 7.001,7.001 0 0 0 5.9059996,-6.915 z"
     id="path2" />
  <path
     fill="#ffffff"
     d="m 9.7314644,9.023003 0.3099996,-2.023 H 8.1004644 v -1.313 c 0,-0.553 0.27,-1.093 1.14,-1.093 h 0.8829996 v -1.724 c 0,0 -0.8009996,-0.137 -1.5669996,-0.137 -1.6,0 -2.644,0.97 -2.644,2.724 v 1.543 h -1.776 v 2.023 h 1.777 v 4.892 a 7.037,7.037 0 0 0 2.188,0 v -4.892 z"
     id="path4" />
</svg>
