<?xml version="1.0" encoding="UTF-8" standalone="no"?>
<!-- Created with Inkscape (http://www.inkscape.org/) -->

<svg
   width="226mm"
   height="151mm"
   viewBox="0 0 854.17324 570.70868"
   version="1.1"
   id="svg1"
   inkscape:version="1.3 (0e150ed6c4, 2023-07-21)"
   sodipodi:docname="thumbnail-matthew.svg"
   xmlns:inkscape="http://www.inkscape.org/namespaces/inkscape"
   xmlns:sodipodi="http://sodipodi.sourceforge.net/DTD/sodipodi-0.dtd"
   xmlns="http://www.w3.org/2000/svg"
   xmlns:svg="http://www.w3.org/2000/svg">
  <sodipodi:namedview
     id="namedview1"
     pagecolor="#ffffff"
     bordercolor="#000000"
     borderopacity="0.25"
     inkscape:showpageshadow="2"
     inkscape:pageopacity="0.0"
     inkscape:pagecheckerboard="0"
     inkscape:deskcolor="#d1d1d1"
     inkscape:document-units="mm"
     inkscape:zoom="0.34584821"
     inkscape:cx="333.96153"
     inkscape:cy="386.00749"
     inkscape:window-width="1366"
     inkscape:window-height="745"
     inkscape:window-x="-8"
     inkscape:window-y="-8"
     inkscape:window-maximized="1"
     inkscape:current-layer="layer1" />
  <defs
     id="defs1">
    <inkscape:path-effect
       effect="fillet_chamfer"
       id="path-effect17"
       is_visible="true"
       lpeversion="1"
       nodesatellites_param="F,0,0,1,0,0,0,1 @ F,0,0,1,0,3.3220372,0,1 @ F,0,0,1,0,0,0,1 @ F,0,0,1,0,0,0,1 @ F,0,0,1,0,0,0,1 @ F,0,0,1,0,0,0,1 @ F,0,0,1,0,0,0,1 @ F,0,0,1,0,0,0,1 @ F,0,0,1,0,2.4054121,0,1 @ F,0,0,1,0,3.1842909,0,1 @ F,0,0,1,0,0,0,1 @ F,0,0,1,0,0,0,1 @ F,0,0,1,0,0,0,1 @ F,0,0,1,0,0,0,1 @ F,0,0,1,0,0,0,1 @ F,0,0,1,0,0,0,1 @ F,0,0,1,0,0,0,1 @ F,0,0,1,0,0,0,1 @ F,0,0,1,0,0,0,1 @ F,0,0,1,0,0,0,1 @ F,0,0,1,0,0,0,1 @ F,0,0,1,0,0,0,1"
       radius="0"
       unit="px"
       method="auto"
       mode="F"
       chamfer_steps="1"
       flexible="false"
       use_knot_distance="true"
       apply_no_radius="true"
       apply_with_radius="true"
       only_selected="false"
       hide_knots="false" />
  </defs>
  <g
     inkscape:label="Layer 1"
     inkscape:groupmode="layer"
     id="layer1"
     transform="translate(-206.29404,-136.89945)">
    <g
       id="g2"
       inkscape:label="kitchen island"
       transform="matrix(14.3036,0,0,14.3036,-193.28468,-279.2831)"
       style="fill:#808080;fill-opacity:1;stroke-width:0.52847222;stroke-dasharray:none">
      <path
         style="fill:#808080;fill-opacity:1;stroke:#000000;stroke-width:0.52847222;stroke-linejoin:round;stroke-dasharray:none;stroke-opacity:1;paint-order:markers fill stroke"
         d="m 4.717561,69.969679 63.09408,0.05432 0.04603,-12.840253 -63.2143655,-0.253002 z"
         id="path5"
         sodipodi:nodetypes="ccccc" />
      <path
         style="fill:#808080;fill-opacity:1;stroke:#000000;stroke-width:0.52847222;stroke-linejoin:round;stroke-dasharray:none;stroke-opacity:1;paint-order:markers fill stroke"
         d="M 4.1793234,70.593187 34.35379,84.524489 34.335836,61.936468 4.242093,52.536401 Z"
         id="path1"
         sodipodi:nodetypes="ccccc" />
      <path
         style="fill:#808080;fill-opacity:1;stroke:#000000;stroke-width:0.52847222;stroke-linejoin:round;stroke-dasharray:none;stroke-opacity:1;paint-order:markers fill stroke"
         d="m 4.5036631,52.460477 16.3218599,-0.09488 26.595566,0.0364 20.301548,4.760646 -31.769361,0.06538 22.537488,5.158775 -23.879407,5.1e-5 z"
         id="path3"
         sodipodi:nodetypes="cccccccc" />
      <path
         style="fill:#808080;fill-opacity:1;stroke:#000000;stroke-width:0.52847222;stroke-linejoin:round;stroke-dasharray:none;stroke-opacity:1;paint-order:markers fill stroke"
         d="m 34.424245,62.405779 h 24.052767 l -0.0741,22.117146 -24.130426,-0.0642 z"
         id="path2"
         sodipodi:nodetypes="ccccc" />
    </g>
    <g
       id="g62"
       inkscape:label="stove"
       transform="matrix(1.0535969,0,0,0.81959608,302.82974,9.3777581)"
       style="display:inline;stroke-width:9.62532;stroke-dasharray:none">
      <ellipse
         style="fill:#000000;fill-opacity:0;stroke:#000000;stroke-width:9.62532;stroke-linecap:round;stroke-linejoin:round;stroke-dasharray:none;stroke-opacity:1;paint-order:fill markers stroke"
         id="path57"
         cx="142.23636"
         cy="607.55463"
         rx="50.211926"
         ry="16.304815" />
      <ellipse
         style="fill:#000000;fill-opacity:1;stroke:#000000;stroke-width:9.62532;stroke-linecap:round;stroke-linejoin:round;stroke-dasharray:none;stroke-opacity:1;paint-order:fill markers stroke"
         id="path58"
         cx="142.34457"
         cy="606.99042"
         rx="16.301878"
         ry="4.6649523" />
      <path
         style="fill:#000000;fill-opacity:1;stroke:#000000;stroke-width:9.62532;stroke-linecap:round;stroke-linejoin:round;stroke-dasharray:none;stroke-opacity:1;paint-order:fill markers stroke"
         d="m 109.29912,596.52683 9.18365,3.59999"
         id="path59" />
      <path
         style="fill:#000000;fill-opacity:1;stroke:#000000;stroke-width:9.62532;stroke-linecap:round;stroke-linejoin:round;stroke-dasharray:none;stroke-opacity:1;paint-order:fill markers stroke"
         d="m 166.39649,600.00401 9.18365,-3.59999"
         id="path60" />
      <path
         style="fill:#000000;fill-opacity:1;stroke:#000000;stroke-width:9.62532;stroke-linecap:round;stroke-linejoin:round;stroke-dasharray:none;stroke-opacity:1;paint-order:fill markers stroke"
         d="m 166.39649,615.10622 9.18365,3.59999"
         id="path61" />
      <path
         style="fill:#000000;fill-opacity:1;stroke:#000000;stroke-width:9.62532;stroke-linecap:round;stroke-linejoin:round;stroke-dasharray:none;stroke-opacity:1;paint-order:fill markers stroke"
         d="m 118.22672,615.72963 -9.18365,3.59999"
         id="path62" />
    </g>
    <g
       id="g7"
       inkscape:label="smoke 2"
       style="fill:#ffffff;fill-opacity:0.5;stroke:#808080;stroke-width:3.57645;stroke-dasharray:none;stroke-opacity:1"
       transform="matrix(-1.443509,-0.75008998,1.5533812,-0.93355587,1155.3385,1059.6241)">
      <path
         id="path7"
         style="display:inline;fill:#ffffff;fill-opacity:0.5;stroke:#808080;stroke-width:3.57645;stroke-linecap:round;stroke-linejoin:round;stroke-dasharray:none;stroke-opacity:1"
         d="m 508.68912,317.49147 c 1.49673,-0.0465 2.92609,-0.50101 3.85091,-1.4895 l 0.002,-1.9e-4 c 1.82026,-1.94608 -0.16412,-5.33321 -0.007,-7.99359 0.27178,-4.60058 0.71384,-9.21443 1.63719,-13.72959 0.71867,-3.51426 0.56553,-7.7142 3.02237,-10.32774 2.20117,-2.34166 5.86959,-3.58476 9.06839,-3.27423 6.99056,0.67864 11.59324,8.12153 18.07192,10.83367 8.82036,3.69252 18.31799,5.7579 27.77429,7.17624 7.39775,1.10958 15.02202,2.12669 22.41834,1.00758 5.02897,-0.76091 10.22872,-2.19469 14.35811,-5.16407 3.19313,-2.2961 5.86394,-5.59909 7.31985,-9.25265 1.35709,-3.40559 -0.41747,-7.56478 0.97982,-10.95407 0.77942,-1.89057 2.12822,-3.73378 3.91851,-4.72201 2.98835,-1.64957 6.8242,-0.57939 10.153,-1.3346 4.29382,-0.97412 9.10563,-1.36446 12.55807,-4.09689 2.37141,-1.87683 3.98507,-4.81543 4.72029,-7.74895 0.77344,-3.08601 0.50068,-6.52165 -0.53448,-9.52997 -1.42287,-4.13484 -4.38027,-7.69172 -7.48171,-10.77424 -2.75661,-2.7398 -6.65942,-4.07124 -9.61776,-6.59181 -3.80408,-3.24111 -7.48396,-6.75841 -10.33188,-10.86514 -1.35433,-1.95295 -4.83553,-4.77128 -3.11711,-6.41296 4.17821,-3.99179 9.513,7.44736 15.23078,8.28318 4.9833,0.7285 10.3793,-0.67555 14.78395,-3.11745 3.81937,-2.11745 6.99607,-5.60334 9.08352,-9.43917 3.35256,-6.16036 2.15448,-13.99318 4.80934,-20.48482 1.78726,-4.37023 4.17458,-8.61593 7.35343,-12.10708 2.74744,-3.01731 6.55445,-4.86163 9.82412,-7.30334 1.85011,-1.38164 4.14071,-2.32111 5.54107,-4.15705 2.08042,-2.72743 3.14335,-6.20191 3.77835,-9.57289 0.80171,-4.25608 -0.51512,-8.6863 -0.0456,-12.99166 0.32324,-2.96412 0.53233,-6.10919 1.95879,-8.72753 2.35004,-4.31358 6.11128,-7.99311 10.32988,-10.50962 2.01718,-1.20328 4.94959,-0.47242 6.76851,-1.95849 1.08994,-0.89054 2.01863,-2.33528 1.96093,-3.74162 -0.0865,-2.10659 -1.46819,-4.46367 -3.38437,-5.34316 -4.09036,-1.8774 -9.1685,0.31914 -13.35969,1.95914 -12.42987,4.8638 -22.70742,14.17304 -33.04156,22.62071 -4.29112,3.5078 -8.97882,6.88837 -11.93364,11.5774 -3.28069,5.20622 -4.35668,11.53878 -5.87729,17.50162 -0.94615,3.71012 -0.65556,7.72715 -2.00493,11.31041 -1.00333,2.66429 -1.94737,5.90558 -4.42795,7.30267 -1.86561,1.05071 -4.48903,0.91988 -6.4225,0 -1.7278,-0.82205 -2.90283,-2.67966 -3.62191,-4.45283 -1.27116,-3.13449 0.15148,-6.88976 -0.89066,-10.1077 -0.82037,-2.53313 -1.87768,-5.38529 -4.0962,-6.85776 -2.43379,-1.61535 -5.84252,-1.92363 -8.67755,-1.21993 -2.36365,0.58674 -4.13704,2.6225 -5.91946,4.282 -2.72638,2.53845 -3.96673,6.68038 -7.1805,8.56414 -2.433,1.4261 -5.49632,1.71954 -8.31273,1.57432 -2.51068,-0.12946 -4.81341,-1.45025 -7.22599,-2.15719 -4.95024,-1.45054 -9.73642,-4.75933 -14.87208,-4.27567 -3.27798,0.30871 -6.466,2.14751 -8.81689,4.45274 -2.80662,2.7521 -4.92853,6.53522 -5.52308,10.42081 -0.63937,4.17855 0.49342,8.6536 2.3162,12.4676 2.34234,4.90107 6.93988,8.36433 10.59827,12.37971 3.61956,3.97287 7.70011,7.51721 11.2211,11.57765 3.27168,3.77292 6.35443,7.72221 9.17286,11.84472 1.95391,2.85789 4.47742,5.55345 5.34431,8.90518 1.08593,4.19858 1.12212,8.96051 -0.44573,13.00392 -1.14198,2.94515 -3.67809,5.2419 -6.14569,7.21395 -2.6451,2.11395 -5.72889,3.82653 -8.99515,4.71921 -3.9855,1.08924 -8.45933,1.93229 -12.37837,0.62394 -3.29886,-1.10132 -5.88071,-3.93457 -8.01531,-6.68029 -1.35287,-1.74021 -1.80555,-4.02493 -2.85012,-5.96592 -1.69131,-3.14274 -2.68273,-7.00927 -5.5213,-9.17257 -2.0108,-1.53249 -4.80835,-2.45481 -7.30386,-2.04958 -3.29158,0.53449 -5.58459,3.64925 -8.28081,5.61154 -3.47144,2.52649 -6.3925,5.85648 -10.15431,7.92597 -0.77335,0.42544 -1.65708,1.17128 -2.49407,0.89107 -2.45946,-0.8234 -2.81814,-4.35439 -4.27358,-6.50111 -1.68683,-2.48807 -2.68529,-5.69482 -5.16634,-7.39185 -1.96712,-1.34551 -4.5734,-1.92278 -6.94564,-1.69379 -2.04936,0.19783 -4.15539,1.12809 -5.61099,2.5842 -4.31989,4.32141 -6.39042,10.67653 -7.65873,16.65378 -1.43586,6.76684 -0.64604,13.89358 0.26727,20.75057 0.81755,6.13794 2.30064,12.25393 4.63093,17.99087 2.49703,6.14749 4.03902,14.13783 9.88531,17.27594 1.19271,0.64021 2.75585,1.00234 4.25257,0.95582 z m -9.99979,-36.10455 c -2.6004,-9.99851 -2.71699,-11.32475 -2.01956,-16.98206 0.40774,-3.3074 1.05713,-7.14018 3.55725,-9.34347 1.54976,-1.36578 4.72272,-2.86531 6.02221,-1.45845 3.45388,3.7393 1.08085,5.48116 -1.88444,9.88003 -1.78976,2.655 -4.12501,4.86885 -5.67546,17.90395 z m 130.49382,-20.166 c -1.39079,0.13984 -2.89911,0.10928 -4.61605,-0.12983 3.7006,-2.08421 6.29361,-2.57807 8.12375,-5.22741 1.48827,-2.15443 2.01273,-5.09045 1.63816,-7.68198 -0.52267,-3.61628 -4.89843,-6.02724 -5.22659,-9.63477 5.33459,2.583 8.33896,5.22458 10.32775,9.44485 1.05724,2.24357 1.32097,5.13866 0.37641,7.43192 -0.72439,1.75868 -2.50625,3.01082 -4.21778,3.84051 -2.09414,1.01519 -4.08768,1.72365 -6.40565,1.95671 z m -41.00047,-46.87124 c -1.43136,0.12839 -3.15797,-0.69646 -4.48683,-1.30792 -2.13475,-0.98236 -3.84205,-2.80821 -5.28835,-4.66034 -1.68728,-2.16073 -2.9417,-4.69387 -3.77841,-7.30454 -0.8544,-2.66588 -1.39977,-5.52175 -1.19768,-8.31389 0.18173,-2.51076 0.50296,-5.33149 2.14189,-7.24216 1.5712,-1.83177 4.13947,-2.95937 6.54949,-3.08521 1.39888,-0.073 5.11807,0.58821 3.96652,1.38579 -7.67492,6.22885 -5.66782,14.0319 0.18867,20.4658 1.29471,1.88035 3.14839,3.56756 3.65369,5.79391 0.28066,1.23654 0.56346,3.00422 -0.4405,3.77881 -0.38605,0.29786 -0.83137,0.44696 -1.30849,0.48975 z m -23.76411,-18.48856 c -2.66906,-2.96835 -3.69533,-4.80472 -3.87565,-7.6601 -0.14499,-2.2959 0.78,-4.78877 2.31566,-6.50156 2.21318,-2.46844 6.35414,-3.95105 8.95198,-4.33435 -3.67912,2.12744 -6.39914,4.13203 -7.74937,7.45168 -1.38764,3.41165 0.16689,8.4221 0.35738,11.04433 z m 88.05247,-27.31293 c -0.2709,0.0195 -0.53829,-0.0205 -0.80008,-0.13639 -2.36181,-2.87879 1.32985,-6.89257 2.22021,-9.73594 1.00263,-3.04305 0.5923,-6.7139 2.5138,-9.27774 2.38198,-3.17827 7.42014,-9.09262 10.1626,-6.2196 1.57096,1.64576 -3.16946,3.47173 -3.8287,5.64931 -0.8025,2.65065 0.92589,5.67563 0.0649,8.30783 -1.20952,3.69763 -3.94679,6.91314 -6.96979,9.362 -0.96416,0.78103 -2.18902,1.96588 -3.36291,2.05053 z" />
    </g>
    <g
       id="g42"
       inkscape:label="pan"
       style="display:inline;stroke-width:5.23012112;stroke-dasharray:none"
       transform="matrix(1.4447105,0.04101461,-0.04101461,1.4447105,-632.75389,77.175041)">
      <path
         style="display:inline;fill:#ff8080;fill-opacity:1;stroke:#000000;stroke-width:5.23012112;stroke-linecap:round;stroke-linejoin:round;stroke-dasharray:none;stroke-opacity:1;paint-order:markers fill stroke"
         d="m 834.03247,220.97088 67.5287,0.70711 7.07106,15.55634 -77.41774,-4.48432 z"
         id="path42" />
      <path
         style="display:inline;fill:#ff8080;fill-opacity:1;stroke:#000000;stroke-width:5.23012112;stroke-linecap:round;stroke-linejoin:round;stroke-dasharray:none;stroke-opacity:1;paint-order:markers fill stroke"
         d="m 677.75002,225.00001 c 1.85628,13.16361 9.1452,36.51078 22.375,41.75 3.28416,1.52485 19.99586,6.19122 27.77341,7.17437 6.76854,0.8556 17.81894,1.74859 26.58452,1.49372 8.76558,-0.25487 20.26011,-1.15931 29.16816,-2.47487 8.90805,-1.31556 18.27098,-2.96836 24.21841,-5.12653 17.8756,-4.26043 22.25924,-26.42808 26.69328,-42.4264 6.11397,-15.46235 -25.85779,-21.8014 -35.17856,-22.98099 -8.49082,-1.07455 -24.88082,-2.30679 -34.11791,-2.47487 -29.67734,-0.54001 -51.73167,3.94223 -56.94156,5.52635 -9.8713,3.00145 -30.06613,10.49748 -30.57475,19.53922 z"
         id="path39"
         sodipodi:nodetypes="zzzzzzzzzzz" />
      <path
         style="display:inline;fill:#ff8080;fill-opacity:0;stroke:#000000;stroke-width:5.23012112;stroke-linecap:round;stroke-linejoin:round;stroke-dasharray:none;stroke-opacity:1;paint-order:markers fill stroke"
         d="m 680.00018,229.01406 c 0,0 5.29041,5.51075 12.64337,8.48353 7.35296,2.97278 19.79239,4.36018 31.86129,5.73886 12.06891,1.37867 25.95206,2.84706 40.45879,1.99612 14.50673,-0.85094 34.7761,-4.16197 46.02187,-7.73498 11.24576,-3.57301 21.74659,-10.47965 21.74659,-10.47965"
         id="path40"
         sodipodi:nodetypes="czzzzc" />
      <path
         style="fill:#ff8080;fill-opacity:0;stroke:#000000;stroke-width:5.23012112;stroke-linecap:round;stroke-linejoin:round;stroke-dasharray:none;stroke-opacity:1;paint-order:markers fill stroke"
         d="m 693.14144,233.25686 c 0,0 9.81797,-5.41996 15.11441,-7.15946 6.44492,-2.11669 13.25893,-2.9396 19.97576,-3.88908 7.58548,-1.07227 15.23863,-1.70707 22.89259,-2.03294 8.47765,-0.36094 16.9991,-0.60761 25.45584,0.0884 6.60385,0.54352 12.84621,0.90463 19.62221,3.18198 6.776,2.27735 15.86742,3.87741 20.32932,10.78338"
         id="path41"
         sodipodi:nodetypes="csssszc" />
    </g>
    <g
       id="g68"
       inkscape:label="fire 3"
       style="display:inline"
       transform="matrix(1.3577357,0,0,1.3577357,254.88534,-316.15498)">
      <path
         style="fill:#fd5505;fill-opacity:1;stroke:#000000;stroke-width:5.73441;stroke-linecap:round;stroke-linejoin:round;stroke-dasharray:none;stroke-opacity:1;paint-order:fill markers stroke"
         d="m 74.731718,590.7188 c -2.209147,-2.96131 -4.421436,-5.95922 -5.948716,-9.17189 -2.020944,-4.25111 -4.17638,-13.20659 -4.17638,-13.20659 l 17.646145,16.30041 c 0,0 -2.546158,-8.35649 4.054427,-15.19594 3.7434,4.36564 1.784205,18.57353 10.345105,18.35825 5.228191,-0.13147 2.835271,-7.93867 5.380001,-11.50565 1.76635,-2.47589 6.73148,-6.68376 6.73148,-6.68376 0,0 3.36584,8.91145 3.18879,13.47796 -0.13838,3.56886 -3.6011,6.83357 -3.30363,10.39651 0.17027,2.03945 1.10484,4.19565 2.86453,5.70917 1.71503,1.47509 4.28451,2.52071 6.82538,2.70753 2.33008,0.1713 4.93835,-0.36396 6.74311,-1.52694 2.19066,-1.41165 3.41332,-3.73497 3.8811,-5.92192 0.40611,-1.89863 -0.76619,-3.80421 -1.04695,-5.71661 -0.34765,-2.36773 -1.45457,-4.79725 -0.78873,-7.12313 0.81561,-2.84906 5.63241,-7.57469 5.63241,-7.57469 0,0 2.98895,4.96674 4.10372,7.56234 1.69433,3.945 -1.00249,10.46868 3.89853,12.1057 3.30584,1.10421 9.38412,-4.15274 9.38412,-4.15274 0,0 0.57431,9.86355 5.29699,10.36638 5.83061,0.62079 10.69282,-10.96354 10.69282,-10.96354 2.97649,12.95725 9.31297,9.55306 12.1273,4.02756 2.81435,-5.5255 4.1228,-15.02903 4.1228,-15.02903 0,0 2.21151,7.04612 4.74229,9.53543 1.46701,1.44298 3.79213,3.68987 5.57204,2.65728 6.34094,-3.67859 1.63548,-21.93127 1.63548,-21.93127 0,0 8.86821,3.08688 11.39499,6.69579 1.70777,2.43915 -0.38396,9.67802 1.61781,8.78498 4.00353,-1.78606 16.41076,-14.31149 16.41076,-14.31149 0,0 -3.15954,10.3846 -5.68666,15.15004 -2.54849,4.80574 -5.08028,10.05215 -9.43008,13.31852 -4.39297,3.2988 -10.28839,3.89373 -15.57295,5.39497 -4.10995,1.16755 -8.27253,2.07057 -12.50854,2.79824 -6.58819,1.13174 -13.28084,1.93717 -19.99769,2.42514 -6.71988,0.48819 -13.48803,0.53985 -20.23673,0.49747 -5.58318,-0.0351 -11.17457,-0.19543 -16.73114,-0.62184 -5.71889,-0.43886 -11.44431,-1.00261 -17.04984,-1.98985 -4.98258,-0.87753 -9.915316,-2.00523 -14.659669,-3.48225 -3.53011,-1.09901 -7.351436,-2.0143 -10.198033,-3.97971 -3.140782,-2.16854 -4.84642,-5.35248 -6.95639,-8.18083 z"
         id="path67"
         sodipodi:nodetypes="aacccaacaaaaaaaacaacacscaacascaaaaaaaaaaa" />
      <path
         style="fill:#ffb230;fill-opacity:1;stroke:#000000;stroke-width:0;stroke-linecap:round;stroke-linejoin:round;stroke-dasharray:none;stroke-opacity:1;paint-order:fill markers stroke"
         d="m 88.093259,598.48007 c 0,0 -2.661017,-4.05893 -2.910499,-6.38444 -0.245157,-2.28518 1.464163,-6.73764 1.464163,-6.73764 0,0 1.010758,5.75478 2.912028,7.75883 1.305823,1.37641 3.320999,2.36399 5.216312,2.27755 3.37413,-0.15389 8.878697,-4.8831 8.878697,-4.8831 0,0 -1.01371,4.42486 -0.88163,6.66049 0.11651,1.9722 1.46416,5.74321 1.46416,5.74321 l -8.255287,-1.99704 z"
         id="path68"
         sodipodi:nodetypes="cacaacaccc" />
      <path
         style="fill:#ffb230;fill-opacity:1;stroke:#000000;stroke-width:0;stroke-linecap:round;stroke-linejoin:round;stroke-dasharray:none;stroke-opacity:1;paint-order:fill markers stroke"
         d="m 136.16481,605.95985 c 0,0 -1.94181,-3.68527 -2.30072,-5.70368 -0.32544,-1.83021 0.1754,-5.574 0.1754,-5.574 0,0 1.26417,4.32286 3.01014,5.43856 1.79665,1.14808 4.32293,1.02102 6.37987,0.45978 1.63104,-0.44504 4.17264,-2.88345 4.17264,-2.88345 0,0 0.10948,3.02377 -0.31561,4.44813 -0.4011,1.34398 -2.05123,3.67382 -2.05123,3.67382 z"
         id="path68-1"
         sodipodi:nodetypes="cacaacacc" />
      <path
         style="fill:#ffb230;fill-opacity:1;stroke:#000000;stroke-width:0;stroke-linecap:round;stroke-linejoin:round;stroke-dasharray:none;stroke-opacity:1;paint-order:fill markers stroke"
         d="m 200.39124,598.27805 c 0,0 1.8751,-3.19955 2.13901,-4.98987 0.63802,-4.32832 -1.47048,-13.04265 -1.47048,-13.04265 0,0 -0.3998,8.61364 -2.8758,11.82822 -1.54401,2.00456 -4.14575,3.50982 -6.67375,3.61679 -2.39777,0.10146 -6.59712,-2.88345 -6.59712,-2.88345 0,0 0.42629,3.39876 1.19724,4.88895 0.68541,1.32487 2.93286,3.37994 2.93286,3.37994 z"
         id="path68-1-6"
         sodipodi:nodetypes="cacaacacc" />
    </g>
    <g
       id="g6"
       transform="matrix(-0.44112557,-0.38101221,0.38101221,-0.44112557,571.71456,814.07557)"
       style="stroke-width:13.3572;stroke-dasharray:none"
       inkscape:label="bacon">
      <path
         style="fill:#c42a2a;fill-opacity:1;stroke:#7b3a1a;stroke-width:13.3572;stroke-linecap:round;stroke-linejoin:round;stroke-dasharray:none;stroke-opacity:1;paint-order:fill markers stroke"
         d="m 491.20105,425.13018 c -2.63267,-6.61805 1.5411,-14.53215 4.94913,-20.78634 2.62398,-4.81536 6.71527,-8.99947 11.38299,-11.87791 4.77474,-2.94443 10.53741,-4.115 16.08467,-4.94913 4.32313,-0.65006 8.97115,1.39248 13.11519,0 3.23708,-1.08772 6.23361,-3.37084 8.16606,-6.18641 2.86598,-4.17573 2.46204,-9.8453 4.20676,-14.59993 1.8696,-5.09495 3.20607,-10.67888 6.68133,-14.84739 3.72142,-4.46378 8.906,-7.87088 14.35247,-9.89826 4.97693,-1.8526 10.69217,-0.41669 15.83721,-1.73219 3.97731,-1.01693 8.40753,-1.8733 11.383,-4.70168 2.51381,-2.38955 3.08163,-6.21819 4.45422,-9.40334 3.32807,-7.7229 4.3365,-16.61685 9.15588,-23.50836 3.14844,-4.50214 7.58006,-8.20271 12.37283,-10.88809 4.14254,-2.32106 8.99853,-5.33871 13.6101,-4.20675 13.42488,3.29528 32.683,15.76049 29.44733,29.19986 -1.3983,5.80784 -12.41328,1.70783 -17.0745,5.44404 -3.57656,2.8668 -5.17323,7.64372 -6.92878,11.87791 -2.35248,5.6739 -2.43927,12.10644 -4.70167,17.81686 -1.65854,4.18626 -2.91849,9.0641 -6.43388,11.87791 -6.62537,5.30313 -16.50509,4.07759 -24.49818,6.92878 -6.43709,2.29616 -13.97686,3.33064 -18.80669,8.16606 -4.25574,4.26066 -5.67445,10.74784 -7.17624,16.57958 -1.50854,5.85794 1.42515,12.90465 -1.7322,18.06432 -2.40062,3.92304 -7.25843,5.99591 -11.63045,7.4237 -6.20679,2.02699 -13.3175,-0.71223 -19.54906,1.23728 -4.87384,1.52475 -9.70301,4.11911 -13.11519,7.91861 -4.43831,4.94211 -2.0252,16.24431 -8.41352,18.06432 -13.4656,3.8363 -29.96348,-10.00363 -35.13881,-23.01345 z"
         id="path4"
         sodipodi:nodetypes="aaaaaaaaaaaaaaaaaaaaaaaaaaaaa" />
      <path
         style="fill:#ffcb5b;fill-opacity:1;stroke:#7b3a1a;stroke-width:13.3572;stroke-linecap:round;stroke-linejoin:round;stroke-dasharray:none;stroke-opacity:0;paint-order:fill markers stroke"
         d="m 514.76708,416.77966 c -0.40177,-5.15791 4.63451,-9.40815 8.13431,-13.21825 3.93451,-4.28339 8.76251,-7.9088 14.03168,-10.37124 6.25577,-2.92352 14.71171,-0.60303 20.13242,-4.88059 5.3785,-4.24424 5.86639,-12.40515 9.35445,-18.30219 2.45991,-4.15882 4.20251,-9.1896 8.13431,-11.99811 6.5165,-4.65475 16.39673,-2.05193 23.18279,-6.30409 5.33335,-3.3419 9.1315,-8.85934 12.40482,-14.23504 3.82975,-6.28951 3.25098,-15.02753 8.13431,-20.53915 4.70697,-5.31255 11.62993,-10.68443 18.70892,-10.16787 4.05637,0.29598 10.05813,3.26458 9.76117,7.32088 -0.3942,5.38467 -10.35223,3.97604 -14.23504,7.72759 -3.8459,3.7159 -5.50669,9.1706 -8.13432,13.82833 -2.80171,4.96629 -4.50336,10.65188 -8.13431,15.04846 -3.68089,4.45706 -8.25578,8.38738 -13.42161,10.98133 -5.99443,3.01001 -14.02168,1.04181 -19.52234,4.88058 -3.36111,2.34565 -4.79437,6.65997 -6.91416,10.16789 -3.57596,5.91761 -5.19283,13.11221 -9.76118,18.30219 -3.40504,3.86839 -8.00411,6.6323 -12.60818,8.94775 -5.47715,2.75452 -12.61846,1.9702 -17.48876,5.694 -3.7339,2.85491 -5.10809,7.89213 -7.7276,11.79476 -1.46703,2.18564 -1.84516,6.36953 -4.47387,6.50745 -4.89733,0.25695 -9.17697,-6.29543 -9.55781,-11.18468 z"
         id="path6"
         sodipodi:nodetypes="aaaaaaaaaaaaaaaaaaaaaaa" />
    </g>
    <g
       id="g17"
       inkscape:label="matthew - panic"
       transform="matrix(-9.7842735,0,0,9.7842735,-17.305483,1564.7364)"
       style="display:inline"
       inkscape:highlight-color="#999999">
      <g
         id="g15"
         transform="translate(50.598352,-0.2277988)"
         inkscape:label="body"
         style="display:inline">
        <path
           style="display:inline;fill:#f9f9f9;fill-opacity:1;stroke:#000000;stroke-width:0;stroke-linecap:round;stroke-linejoin:round;stroke-dasharray:none;stroke-opacity:0;paint-order:fill markers stroke"
           d="m 705.37949,263.97416 c 0.0108,-3.69972 1.97085,-19.5883 3.33339,-27.02163 1.26666,-6.91023 9.86321,-46.8934 10.15509,-47.23205 0.0373,-0.0432 1.44746,0.20562 3.13376,0.55302 4.69031,0.96627 8.97383,1.38152 14.2513,1.38152 4.16967,0 8.47617,-0.26303 10.08914,-0.61621 0.49589,-0.10858 0.51613,0.0397 0.81935,6.0058 0.65191,12.82629 2.12852,25.33622 6.34467,53.7525 0.85822,5.78429 1.54308,10.53268 1.52191,10.55197 -0.13742,0.12523 -7.47239,1.07848 -8.29856,1.07848 H 745.71 l -0.001,-6.12455 c -8.2e-4,-3.6463 -0.11055,-6.52507 -0.27118,-7.11437 -0.30451,-1.11722 -0.98707,-1.95796 -2.07828,-2.55994 -2.50187,-1.38019 -21.63523,0.94674 -25.67982,3.12309 -2.47005,1.32911 -2.78232,2.99069 -1.793,9.54062 0.36654,2.42675 0.60907,4.46965 0.53895,4.53976 -0.49909,0.4991 -7.88814,1.81232 -10.19727,1.81232 h -0.85342 z"
           id="path61-1"
           transform="matrix(0.26458333,0,0,0.26458333,-337.60178,-154.1664)" />
        <path
           style="display:inline;fill:#f9f9f9;fill-opacity:1;stroke:#000000;stroke-width:0;stroke-linecap:round;stroke-linejoin:round;stroke-dasharray:none;stroke-opacity:0;paint-order:fill markers stroke"
           d="m 733.70836,185.8026 c -16.48518,-0.84075 -31.35103,-7.35272 -42.07631,-18.43149 -4.48949,-4.63745 -7.3066,-8.61188 -10.01637,-14.13127 -9.85538,-20.07392 -5.81033,-43.49799 10.30547,-59.676976 8.34442,-8.377137 18.57493,-13.9645 30.39579,-16.600583 5.07858,-1.132537 7.9854,-1.436108 13.86599,-1.448079 8.82746,-0.01797 15.50432,1.18016 23.30043,4.181149 19.49824,7.50555 33.12582,23.642559 36.37507,43.073329 0.55104,3.29528 0.62357,11.98491 0.12573,15.06456 -1.51648,9.38098 -5.25621,17.87616 -11.17604,25.38752 -8.25841,10.47865 -21.32967,18.40102 -35.01509,21.2223 -4.79937,0.98941 -11.77737,1.57921 -16.08467,1.35954 z"
           id="path60-8"
           transform="matrix(0.26458333,0,0,0.26458333,-337.60178,-154.1664)" />
        <path
           style="display:inline;fill:#f9f9f9;fill-opacity:0;stroke:#000000;stroke-width:1.5;stroke-linecap:round;stroke-linejoin:round;stroke-miterlimit:1001;stroke-dasharray:none;stroke-opacity:1;paint-order:stroke fill markers"
           d="m -148.03164,-104.78796 c 0,0 -1.45625,6.491187 -2.21827,10.116169 -0.35033,1.666547 -0.73974,3.495931 -0.96341,5.266487 -0.25635,2.029349 -0.78917,5.697504 -0.43156,6.121237 0.35761,0.423733 3.59111,-0.02535 4.18398,-0.500433 0.59287,-0.475088 -0.40107,-3.055873 -0.0191,-3.53863 0.382,-0.482757 6.00307,-1.170713 6.29817,-0.848501 0.2951,0.322212 -0.0275,3.62726 0.16278,4.114573 0.50176,0.401375 4.08807,-0.338983 4.08807,-0.338983 0,0 -1.5286,-9.764104 -2.00605,-14.679673 -0.17444,-1.795926 -0.31293,-5.404086 -0.31293,-5.404086"
           id="path12"
           sodipodi:nodetypes="csazzzzccac"
           inkscape:label="body"
           transform="translate(1.0485448e-6)" />
        <path
           style="display:inline;fill:#000080;fill-opacity:1;stroke:#000000;stroke-width:1.5;stroke-linecap:round;stroke-linejoin:round;stroke-dasharray:none;paint-order:fill markers stroke"
           d="m -153.13826,-83.990738 1.48341,-7.621969 14.18281,-0.448042 2.12787,6.373334 -7.07107,0.891827 0.0982,-2.684387 -3.34008,0.34654 -0.005,2.487968 z"
           id="path13"
           inkscape:label="pants"
           sodipodi:nodetypes="ccccccccc" />
        <path
           style="display:inline;fill:#e9c6af;fill-opacity:1;stroke:#000000;stroke-width:1.5;stroke-linecap:round;stroke-linejoin:round;stroke-dasharray:none;paint-order:fill markers stroke"
           d="m -102.6662,-90.558172 c 0,0 1.50588,-6.350865 1.50588,-6.612758 0,-0.261892 1.964184,-7.7258 1.964184,-7.7258 l 3.993843,0.9821 c -0.0048,1.35096 -0.347362,2.64835 0.851147,3.53553 0.950732,0.440431 2.190669,0.37212 3.142697,-0.0655 1.386909,-0.83461 1.090293,-1.9946 1.047568,-3.40459 l 3.404587,-0.58925 c 0,0 0.252989,4.947433 0.589256,7.398425 0.278085,2.026916 1.178512,6.023504 1.178512,6.023504 0,0 -5.73609,1.097128 -8.642418,1.17851 -3.02012,0.08457 -9.035256,-0.720171 -9.035256,-0.720171 z"
           id="path14"
           sodipodi:nodetypes="csccssccscsc"
           inkscape:label="shirt"
           transform="translate(-50.598351,0.22779979)" />
        <ellipse
           style="display:inline;fill:#f9f9f9;fill-opacity:0;stroke:#000000;stroke-width:1.5;stroke-linecap:round;stroke-linejoin:round;stroke-miterlimit:1001;stroke-dasharray:none;stroke-opacity:1;paint-order:stroke fill markers"
           id="ellipse14"
           ry="15.393556"
           rx="16.682619"
           cy="-119.60479"
           cx="-142.77336"
           inkscape:label="head"
           transform="translate(1.0485448e-6)" />
        <path
           style="display:inline;fill:#784421;stroke:#000000;stroke-width:1.5;stroke-linecap:round;stroke-linejoin:round;stroke-dasharray:none;paint-order:fill markers stroke"
           d="m -160.61988,-115.32381 c 0,0 -1.50968,-5.16986 -1.48149,-7.82407 0.0303,-2.85259 -3.4467,-9.71136 -2.51056,-11.93891 0.93613,-2.22756 6.2854,0.1761 7.67192,-0.81833 0.91117,-0.6535 2.08179,-1.06946 3.20238,-1.02975 0.67621,0.024 1.88363,0.75663 1.88363,0.75663 0,0 -0.14446,-3.75907 0.63226,-4.31816 0.91278,-0.65703 3.0598,0.88188 4.14766,0.52409 1.08786,-0.35779 3.06101,-4.18636 4.18159,-4.28202 2.83611,-0.24212 4.3525,3.77392 6.36988,4.50035 2.01738,0.72644 5.46168,-3.41081 6.96842,-2.3669 3.0135,2.08783 1.42492,8.14102 4.24442,7.59228 0.85966,-0.16731 3.13254,-1.8567 3.86721,-0.76705 1.96343,2.91211 -2.87493,6.83237 -5.7757,8.8125 -4.13742,2.82429 -9.71818,3.5512 -14.70667,3.09313 -2.93826,-0.26981 -6.86321,-1.71925 -8.1857,-3.36897 -0.91061,-1.13592 -1.57407,-3.14815 -1.57407,-3.14815 0,0 -0.10938,3.01127 -0.90346,4.50526 -0.46196,0.86913 -1.42892,1.31939 -2.33728,1.69844 -0.90627,0.37818 -1.18188,0.35828 -1.56558,0.80157 -0.56966,0.65813 -0.74256,1.60651 -0.84456,2.47095 -0.18904,1.60211 0.45639,4.8181 0.45639,4.8181 z"
           id="path15"
           sodipodi:nodetypes="csssscssssssaaascssaacc"
           inkscape:label="hair" />
      </g>
      <g
         id="g16"
         inkscape:label="eyes"
         transform="translate(-34.322565,-0.0667206)"
         style="display:inline">
        <path
           style="display:inline;fill:#ffffff;fill-opacity:0;stroke:#000000;stroke-width:1.5;stroke-linecap:round;stroke-linejoin:round;stroke-dasharray:none;stroke-opacity:1;paint-order:fill markers stroke"
           d="m -103.841,-122.64065 c 6.490404,-0.14601 10.017678,-6.00048 10.017678,-6.00048"
           id="path32"
           transform="translate(34.322572,0.06672159)" />
        <path
           style="display:inline;fill:#ffffff;fill-opacity:0;stroke:#000000;stroke-width:1.18903;stroke-linecap:round;stroke-linejoin:round;stroke-dasharray:none;stroke-opacity:1;paint-order:fill markers stroke"
           d="m -76.811043,-123.59699 c -6.020321,0.1038 -6.85071,-4.56714 -6.85071,-4.56714"
           id="path33"
           transform="translate(34.322572,0.06672159)" />
        <ellipse
           style="display:inline;fill:#ffffff;fill-opacity:1;stroke:#000000;stroke-width:2.50027;stroke-linecap:round;stroke-linejoin:round;stroke-miterlimit:1001;stroke-dasharray:none;stroke-opacity:1;paint-order:stroke fill markers"
           id="ellipse15"
           cx="-98.653854"
           cy="-91.811203"
           rx="2.5478287"
           ry="2.8861537"
           transform="matrix(0.94694551,0.32139416,-0.3408771,0.94010786,-6.3019723e-7,-1.0379705e-6)"
           inkscape:label="left" />
        <ellipse
           style="fill:#ffffff;fill-opacity:1;stroke:#000000;stroke-width:2.50027;stroke-linecap:round;stroke-linejoin:round;stroke-miterlimit:1001;stroke-dasharray:none;stroke-opacity:1;paint-order:stroke fill markers"
           id="ellipse913"
           cx="4.9431376"
           cy="-127.76955"
           rx="2.5478287"
           ry="2.8861537"
           transform="matrix(-0.94694551,0.32139415,0.3408771,0.94010787,0,0)"
           inkscape:label="right" />
      </g>
      <g
         id="g34"
         inkscape:label="mouth"
         style="display:inline"
         transform="translate(-1.0583333,-0.52916666)">
        <path
           style="fill:#f9f9f9;fill-opacity:1;stroke:#000000;stroke-width:1.23939;stroke-linecap:round;stroke-linejoin:round;stroke-dasharray:none;stroke-opacity:1;paint-order:fill markers stroke"
           d="m -90.980769,-113.3416 c 0.960232,-0.37065 2.054366,0.15082 3.083586,0.16225 1.085351,0.0121 2.282176,-0.58072 3.254754,-0.0988 0.680134,0.33699 1.20793,1.10265 1.323811,1.8528 0.240763,1.55857 -0.177283,3.58349 -1.460647,4.50006 -0.757815,0.54122 -1.862277,-0.0647 -2.793334,-0.0463 -1.205343,0.0238 -2.604258,0.86604 -3.611041,0.20286 -1.37978,-0.90888 -2.05227,-3.04275 -1.698365,-4.65663 0.192735,-0.87891 1.061809,-1.59221 1.901236,-1.91623 z"
           id="path17"
           sodipodi:nodetypes="aaaaaaaaa" />
        <path
           style="fill:#f9f9f9;fill-opacity:1;stroke:#000000;stroke-width:1.5;stroke-linecap:round;stroke-linejoin:round;stroke-dasharray:none;stroke-opacity:1;paint-order:fill markers stroke"
           d="m -92.188618,-108.60716 c 0,0 1.450655,-1.29611 2.361112,-1.48148 0.765709,-0.1559 1.535372,0.4259 2.314814,0.37036 0.467402,-0.0333 0.874446,-0.43694 1.342593,-0.41666 0.815969,0.0354 2.268519,0.92592 2.268519,0.92592"
           id="path18"
           sodipodi:nodetypes="caaac" />
        <path
           style="fill:#ff0000;fill-opacity:1;stroke:#000000;stroke-width:0.992002;stroke-linecap:round;stroke-linejoin:round;stroke-dasharray:none;stroke-opacity:1;paint-order:fill markers stroke"
           d="m 741.69067,178.03969 c -0.90866,-0.46208 -3.0205,-2.54387 -3.0205,-2.97752 0,-0.39505 3.92339,-3.25264 5.77428,-4.20567 1.30808,-0.67354 2.32438,-0.64468 4.98687,0.14163 3.63825,1.07448 5.09826,1.04546 7.89728,-0.15699 1.46814,-0.63071 1.54064,-0.64366 2.4942,-0.44567 0.54015,0.11215 2.18394,0.7965 3.65287,1.52076 l 2.67076,1.31685 -0.33585,0.65831 c -0.60556,1.187 -1.93775,2.79969 -2.76582,3.34818 -1.03594,0.68618 -1.92515,0.70198 -5.03951,0.0895 -3.75028,-0.73751 -5.81043,-0.62588 -10.49869,0.56889 -0.96238,0.24525 -2.45844,0.48234 -3.32458,0.52685 -1.44588,0.0743 -1.64984,0.0428 -2.49131,-0.38514 z"
           id="path19"
           transform="matrix(0.26458333,0,0,0.26458333,-287.00343,-154.3942)" />
        <path
           style="fill:#333333;fill-opacity:1;stroke:#000000;stroke-width:0.992002;stroke-linecap:round;stroke-linejoin:round;stroke-dasharray:none;stroke-opacity:1;paint-order:fill markers stroke"
           d="m 736.04417,168.98513 c -7.3e-4,-0.1203 -0.0788,-0.88802 -0.17339,-1.70604 -0.21957,-1.89806 0.0355,-4.11756 0.62072,-5.40094 0.61265,-1.34357 2.28334,-2.91535 4.10766,-3.86446 2.05108,-1.06709 3.02903,-1.11419 7.44644,-0.35864 3.94301,0.67441 5.5796,0.65942 9.87216,-0.0904 4.41667,-0.77152 5.71151,-0.52271 7.5591,1.45252 0.93674,1.00145 1.57529,2.18658 1.88383,3.49634 0.21326,0.9053 0.35222,4.47658 0.18087,4.64835 -0.0481,0.0482 -0.90617,-0.3038 -1.90679,-0.7823 -2.23922,-1.07082 -3.94006,-1.65176 -5.58156,-1.90645 -1.5408,-0.23906 -2.67539,-0.0417 -4.6597,0.81053 -0.76279,0.3276 -1.67525,0.59565 -2.02769,0.59565 -0.35244,0 -1.57874,-0.28203 -2.7251,-0.62673 -2.42967,-0.73057 -4.7124,-0.95045 -6.21815,-0.59894 -1.80732,0.4219 -4.78351,2.03515 -7.30149,3.95777 -0.83237,0.63556 -1.07481,0.7197 -1.07691,0.37376 z"
           id="path20"
           transform="matrix(0.26458333,0,0,0.26458333,-287.00343,-154.3942)" />
      </g>
      <g
         id="g33"
         inkscape:label="hands"
         style="display:inline">
        <circle
           style="fill:#ffffff;fill-opacity:1;stroke:#000000;stroke-width:1.5;stroke-linecap:round;stroke-linejoin:round;stroke-dasharray:none;stroke-opacity:1;paint-order:fill markers stroke"
           id="path26"
           cx="-119.59602"
           cy="-119.3942"
           r="4.2592592" />
        <circle
           style="fill:#ffffff;fill-opacity:1;stroke:#000000;stroke-width:1.5;stroke-linecap:round;stroke-linejoin:round;stroke-dasharray:none;stroke-opacity:1;paint-order:fill markers stroke"
           id="path27"
           cx="-118.29974"
           cy="-106.24604"
           r="6.0450315" />
        <circle
           style="fill:#ffffff;fill-opacity:1;stroke:#000000;stroke-width:1.5;stroke-linecap:round;stroke-linejoin:round;stroke-dasharray:none;stroke-opacity:1;paint-order:fill markers stroke"
           id="path28"
           cx="-108.11455"
           cy="-98.283096"
           r="3.7037036" />
        <circle
           style="fill:#ffffff;fill-opacity:1;stroke:#000000;stroke-width:1.5;stroke-linecap:round;stroke-linejoin:round;stroke-dasharray:none;stroke-opacity:1;paint-order:fill markers stroke"
           id="path29"
           cx="-67.188614"
           cy="-116.61642"
           r="3.3333333" />
        <circle
           style="fill:#ffffff;fill-opacity:1;stroke:#000000;stroke-width:1.5;stroke-linecap:round;stroke-linejoin:round;stroke-dasharray:none;stroke-opacity:1;paint-order:fill markers stroke"
           id="path30"
           cx="-70.336777"
           cy="-105.87568"
           r="5.185185" />
        <circle
           style="fill:#ffffff;fill-opacity:1;stroke:#000000;stroke-width:1.5;stroke-linecap:round;stroke-linejoin:round;stroke-dasharray:none;stroke-opacity:1;paint-order:fill markers stroke"
           id="path31"
           cx="-78.577492"
           cy="-97.449753"
           r="3.0555556" />
      </g>
    </g>
    <g
       id="g11"
       inkscape:label="smoke 2"
       style="fill:#ffffff;fill-opacity:0.5;stroke:#808080;stroke-width:3.57645068;stroke-dasharray:none;stroke-opacity:1"
       transform="matrix(1.4658316,0.70547222,-1.5240233,0.98075106,390.22578,-2.2635319)">
      <path
         id="path6-7"
         style="display:inline;fill:#ffffff;fill-opacity:0.5;stroke:#808080;stroke-width:3.57645068;stroke-linecap:round;stroke-linejoin:round;stroke-dasharray:none;stroke-opacity:1"
         d="m 508.68912,317.49147 c 1.49673,-0.0465 2.92609,-0.50101 3.85091,-1.4895 l 0.002,-1.9e-4 c 1.82026,-1.94608 -0.16412,-5.33321 -0.007,-7.99359 0.27178,-4.60058 0.71384,-9.21443 1.63719,-13.72959 0.71867,-3.51426 0.56553,-7.7142 3.02237,-10.32774 2.20117,-2.34166 5.86959,-3.58476 9.06839,-3.27423 6.99056,0.67864 11.59324,8.12153 18.07192,10.83367 8.82036,3.69252 18.31799,5.7579 27.77429,7.17624 7.39775,1.10958 15.02202,2.12669 22.41834,1.00758 5.02897,-0.76091 10.22872,-2.19469 14.35811,-5.16407 3.19313,-2.2961 5.86394,-5.59909 7.31985,-9.25265 1.35709,-3.40559 -0.41747,-7.56478 0.97982,-10.95407 0.77942,-1.89057 2.12822,-3.73378 3.91851,-4.72201 2.98835,-1.64957 6.8242,-0.57939 10.153,-1.3346 4.29382,-0.97412 9.10563,-1.36446 12.55807,-4.09689 2.37141,-1.87683 3.98507,-4.81543 4.72029,-7.74895 0.77344,-3.08601 0.50068,-6.52165 -0.53448,-9.52997 -1.42287,-4.13484 -4.38027,-7.69172 -7.48171,-10.77424 -2.75661,-2.7398 -6.65942,-4.07124 -9.61776,-6.59181 -3.80408,-3.24111 -7.48396,-6.75841 -10.33188,-10.86514 -1.35433,-1.95295 -4.83553,-4.77128 -3.11711,-6.41296 4.17821,-3.99179 9.513,7.44736 15.23078,8.28318 4.9833,0.7285 10.3793,-0.67555 14.78395,-3.11745 3.81937,-2.11745 6.99607,-5.60334 9.08352,-9.43917 3.35256,-6.16036 2.15448,-13.99318 4.80934,-20.48482 1.78726,-4.37023 4.17458,-8.61593 7.35343,-12.10708 2.74744,-3.01731 6.55445,-4.86163 9.82412,-7.30334 1.85011,-1.38164 4.14071,-2.32111 5.54107,-4.15705 2.08042,-2.72743 3.14335,-6.20191 3.77835,-9.57289 0.80171,-4.25608 -0.51512,-8.6863 -0.0456,-12.99166 0.32324,-2.96412 0.53233,-6.10919 1.95879,-8.72753 2.35004,-4.31358 6.11128,-7.99311 10.32988,-10.50962 2.01718,-1.20328 4.94959,-0.47242 6.76851,-1.95849 1.08994,-0.89054 2.01863,-2.33528 1.96093,-3.74162 -0.0865,-2.10659 -1.46819,-4.46367 -3.38437,-5.34316 -4.09036,-1.8774 -9.1685,0.31914 -13.35969,1.95914 -12.42987,4.8638 -22.70742,14.17304 -33.04156,22.62071 -4.29112,3.5078 -8.97882,6.88837 -11.93364,11.5774 -3.28069,5.20622 -4.35668,11.53878 -5.87729,17.50162 -0.94615,3.71012 -0.65556,7.72715 -2.00493,11.31041 -1.00333,2.66429 -1.94737,5.90558 -4.42795,7.30267 -1.86561,1.05071 -4.48903,0.91988 -6.4225,0 -1.7278,-0.82205 -2.90283,-2.67966 -3.62191,-4.45283 -1.27116,-3.13449 0.15148,-6.88976 -0.89066,-10.1077 -0.82037,-2.53313 -1.87768,-5.38529 -4.0962,-6.85776 -2.43379,-1.61535 -5.84252,-1.92363 -8.67755,-1.21993 -2.36365,0.58674 -4.13704,2.6225 -5.91946,4.282 -2.72638,2.53845 -3.96673,6.68038 -7.1805,8.56414 -2.433,1.4261 -5.49632,1.71954 -8.31273,1.57432 -2.51068,-0.12946 -4.81341,-1.45025 -7.22599,-2.15719 -4.95024,-1.45054 -9.73642,-4.75933 -14.87208,-4.27567 -3.27798,0.30871 -6.466,2.14751 -8.81689,4.45274 -2.80662,2.7521 -4.92853,6.53522 -5.52308,10.42081 -0.63937,4.17855 0.49342,8.6536 2.3162,12.4676 2.34234,4.90107 6.93988,8.36433 10.59827,12.37971 3.61956,3.97287 7.70011,7.51721 11.2211,11.57765 3.27168,3.77292 6.35443,7.72221 9.17286,11.84472 1.95391,2.85789 4.47742,5.55345 5.34431,8.90518 1.08593,4.19858 1.12212,8.96051 -0.44573,13.00392 -1.14198,2.94515 -3.67809,5.2419 -6.14569,7.21395 -2.6451,2.11395 -5.72889,3.82653 -8.99515,4.71921 -3.9855,1.08924 -8.45933,1.93229 -12.37837,0.62394 -3.29886,-1.10132 -5.88071,-3.93457 -8.01531,-6.68029 -1.35287,-1.74021 -1.80555,-4.02493 -2.85012,-5.96592 -1.69131,-3.14274 -2.68273,-7.00927 -5.5213,-9.17257 -2.0108,-1.53249 -4.80835,-2.45481 -7.30386,-2.04958 -3.29158,0.53449 -5.58459,3.64925 -8.28081,5.61154 -3.47144,2.52649 -6.3925,5.85648 -10.15431,7.92597 -0.77335,0.42544 -1.65708,1.17128 -2.49407,0.89107 -2.45946,-0.8234 -2.81814,-4.35439 -4.27358,-6.50111 -1.68683,-2.48807 -2.68529,-5.69482 -5.16634,-7.39185 -1.96712,-1.34551 -4.5734,-1.92278 -6.94564,-1.69379 -2.04936,0.19783 -4.15539,1.12809 -5.61099,2.5842 -4.31989,4.32141 -6.39042,10.67653 -7.65873,16.65378 -1.43586,6.76684 -0.64604,13.89358 0.26727,20.75057 0.81755,6.13794 2.30064,12.25393 4.63093,17.99087 2.49703,6.14749 4.03902,14.13783 9.88531,17.27594 1.19271,0.64021 2.75585,1.00234 4.25257,0.95582 z m -9.99979,-36.10455 c -2.6004,-9.99851 -2.71699,-11.32475 -2.01956,-16.98206 0.40774,-3.3074 1.05713,-7.14018 3.55725,-9.34347 1.54976,-1.36578 4.72272,-2.86531 6.02221,-1.45845 3.45388,3.7393 1.08085,5.48116 -1.88444,9.88003 -1.78976,2.655 -4.12501,4.86885 -5.67546,17.90395 z m 130.49382,-20.166 c -1.39079,0.13984 -2.89911,0.10928 -4.61605,-0.12983 3.7006,-2.08421 6.29361,-2.57807 8.12375,-5.22741 1.48827,-2.15443 2.01273,-5.09045 1.63816,-7.68198 -0.52267,-3.61628 -4.89843,-6.02724 -5.22659,-9.63477 5.33459,2.583 8.33896,5.22458 10.32775,9.44485 1.05724,2.24357 1.32097,5.13866 0.37641,7.43192 -0.72439,1.75868 -2.50625,3.01082 -4.21778,3.84051 -2.09414,1.01519 -4.08768,1.72365 -6.40565,1.95671 z m -41.00047,-46.87124 c -1.43136,0.12839 -3.15797,-0.69646 -4.48683,-1.30792 -2.13475,-0.98236 -3.84205,-2.80821 -5.28835,-4.66034 -1.68728,-2.16073 -2.9417,-4.69387 -3.77841,-7.30454 -0.8544,-2.66588 -1.39977,-5.52175 -1.19768,-8.31389 0.18173,-2.51076 0.50296,-5.33149 2.14189,-7.24216 1.5712,-1.83177 4.13947,-2.95937 6.54949,-3.08521 1.39888,-0.073 5.11807,0.58821 3.96652,1.38579 -7.67492,6.22885 -5.66782,14.0319 0.18867,20.4658 1.29471,1.88035 3.14839,3.56756 3.65369,5.79391 0.28066,1.23654 0.56346,3.00422 -0.4405,3.77881 -0.38605,0.29786 -0.83137,0.44696 -1.30849,0.48975 z m -23.76411,-18.48856 c -2.66906,-2.96835 -3.69533,-4.80472 -3.87565,-7.6601 -0.14499,-2.2959 0.78,-4.78877 2.31566,-6.50156 2.21318,-2.46844 6.35414,-3.95105 8.95198,-4.33435 -3.67912,2.12744 -6.39914,4.13203 -7.74937,7.45168 -1.38764,3.41165 0.16689,8.4221 0.35738,11.04433 z m 88.05247,-27.31293 c -0.2709,0.0195 -0.53829,-0.0205 -0.80008,-0.13639 -2.36181,-2.87879 1.32985,-6.89257 2.22021,-9.73594 1.00263,-3.04305 0.5923,-6.7139 2.5138,-9.27774 2.38198,-3.17827 7.42014,-9.09262 10.1626,-6.2196 1.57096,1.64576 -3.16946,3.47173 -3.8287,5.64931 -0.8025,2.65065 0.92589,5.67563 0.0649,8.30783 -1.20952,3.69763 -3.94679,6.91314 -6.96979,9.362 -0.96416,0.78103 -2.18902,1.96588 -3.36291,2.05053 z" />
    </g>
    <g
       id="g40"
       inkscape:label="fire 1"
       transform="matrix(1.4467047,0,0,1.4467047,-115.36978,-247.28078)"
       style="display:inline">
      <path
         style="fill:#fd5505;fill-opacity:1;stroke:#000000;stroke-width:5.22501601;stroke-linecap:round;stroke-linejoin:round;stroke-dasharray:none;stroke-opacity:1;paint-order:fill markers stroke"
         d="m 382.89833,485.25204 c -9.58998,-1.53014 -19.33957,-4.48355 -27.40038,-9.89949 -7.44555,-5.00256 -13.35054,-12.32377 -18.03123,-19.97577 -4.40857,-7.20715 -7.38495,-15.39836 -9.01561,-23.68808 -1.37658,-6.99808 -1.79841,-14.37143 -0.53033,-21.38998 1.09531,-6.06232 3.24883,-12.18126 6.89429,-17.14734 2.75025,-3.74657 10.78338,-8.83883 10.78338,-8.83883 0,0 -3.92475,7.42028 -4.59619,11.49048 -0.53787,3.2605 -1.17418,7.06846 0.53033,9.8995 1.41781,2.35486 4.35075,3.84837 7.07106,4.24264 1.86703,0.2706 3.95503,-0.3037 5.48008,-1.41422 1.69153,-1.23174 2.45344,-3.4168 3.35876,-5.3033 0.94329,-1.96562 1.86439,-4.02213 2.12132,-6.18718 0.36967,-3.11507 -0.39695,-6.27027 -0.88388,-9.36917 -0.97425,-6.20026 -3.58947,-12.12654 -4.06587,-18.38477 -0.34066,-4.47508 0.88389,-13.43503 0.88389,-13.43503 0,0 1.54626,-10.39528 3.53553,-15.2028 1.96307,-4.7442 4.89442,-9.09639 8.13173,-13.08147 3.44252,-4.2377 7.47151,-8.04415 11.84404,-11.31371 4.73539,-3.54089 15.37957,-8.83884 15.37957,-8.83884 0,0 -5.69258,9.22938 -7.95495,14.14214 -2.15214,4.67339 -4.40915,9.42886 -5.3033,14.49569 0,0 -2.28341,7.95519 -2.12132,12.02081 0.12127,3.04182 0.676,6.26276 2.29809,8.83884 1.84928,2.93689 4.85918,5.14865 7.95495,6.71751 1.56806,0.79466 3.37203,1.34713 5.12653,1.23744 2.32656,-0.14546 4.57126,-1.2278 6.54074,-2.47487 1.93648,-1.22618 3.70495,-2.8484 4.94974,-4.77297 1.32605,-2.05022 1.95377,-4.50887 2.47488,-6.8943 0.44177,-2.02226 0.57607,-4.11773 0.53033,-6.18718 -0.0302,-1.36643 -0.53033,-4.06586 -0.53033,-4.06586 l 10.07627,12.37437 c 0,0 4.15686,8.90301 5.48008,13.6118 1.26057,4.48584 2.29809,13.78858 2.29809,13.78858 0.88287,5.29725 -0.0217,10.78603 -0.88388,16.08668 -0.60822,3.73909 -2.15154,7.26937 -3.0052,10.96016 -0.50002,2.16185 -1.59698,4.35114 -1.23744,6.54074 0.23879,1.45427 2.16791,3.85325 2.16791,3.85325 0,0 3.95461,1.8872 6.0625,1.8125 2.82673,-0.10017 5.62534,-1.37078 7.9375,-3 1.78809,-1.25995 3.13882,-3.11585 4.25,-5 1.01818,-1.72646 2.125,-5.625 2.125,-5.625 l -0.875,-6.75 c 0,0 5.30526,6.09621 6.875,9.75 0.83865,1.95207 1.05475,4.1344 1.25,6.25 0.28722,3.11205 0.44278,6.30173 -0.125,9.375 -0.39515,2.13887 -2.25,6.125 -2.25,6.125 l -5,5.75 c -1.12596,1.29486 -1.87738,2.90101 -2.5,4.5 -0.3887,0.99824 -0.75,3.125 -0.75,3.125 0,0 1.12896,1.6392 2,2 1.92475,0.79726 4.28411,0.6896 6.25,0 2.51757,-0.88312 4.38258,-3.09453 6.25,-5 1.58079,-1.613 4.125,-5.375 4.125,-5.375 0,0 0.93688,6.68476 0.125,9.875 -1.26063,4.95354 -4.40105,9.31012 -7.5,13.375 -2.84022,3.7255 -6.32709,6.96709 -10,9.875 -4.24191,3.35839 -8.88111,6.26566 -13.75,8.625 -6.36874,3.08613 -13.0453,5.81456 -20,7.125 -8.14437,1.5346 -16.66752,2.05787 -24.85168,0.75203 z"
         id="path29-8"
         sodipodi:nodetypes="sssssacsasssssscssscssasssssssccssssscsssccssscsscssscssssss" />
      <path
         style="display:inline;fill:#ffb230;fill-opacity:1;stroke:#000000;stroke-width:7.55906;stroke-linecap:round;stroke-linejoin:miter;stroke-dasharray:none;stroke-opacity:0;paint-order:fill markers stroke"
         d="m 378.26921,479.83783 c -3.3474,-1.20207 -7.4116,-4.03806 -10.42983,-6.18719 -3.01823,-2.14913 -5.30354,-3.87183 -7.71437,-6.52563 -2.41083,-2.6538 -4.98369,-6.46766 -6.5,-9.375 -1.51631,-2.90734 -2.08509,-4.72345 -2.875,-7.75 -0.78991,-3.02655 -1.80097,-7.20441 -1.625,-10.375 0.17597,-3.17059 1.3655,-5.87528 2.25,-8.25 0.8845,-2.37472 1.3659,-3.86871 2.875,-6 1.5091,-2.13129 4.84639,-5.04924 6.375,-6.375 1.52861,-1.32576 1.51749,-2.63217 2.5,-1.875 0.98251,0.75717 -1.25285,2.38311 -1.625,4 -0.37215,1.61689 -0.60852,3.52502 -0.375,5.625 0.23352,2.09998 0.94745,5.05075 2,6.75 1.05255,1.69925 2.12242,2.65048 3.625,3.375 1.50258,0.72452 3.43161,0.99889 5,0.75 1.56839,-0.24889 2.70229,-0.90246 4,-2 1.29771,-1.09754 2.56859,-2.71395 3.375,-4.625 0.80641,-1.91105 1.15644,-4.21004 1.125,-6.625 -0.0314,-2.41496 -1.06933,-5.07067 -1.5,-7.625 -0.4722,-2.80069 -1.17839,-5.57718 -1.1875,-8.4375 -0.009,-2.86032 0.20761,-5.51831 1.0625,-8.4375 0.85489,-2.91919 2.0808,-6.17911 3.75,-9.125 1.6692,-2.94589 3.85961,-5.83735 6.25,-8.375 2.39039,-2.53765 5.46438,-4.84461 8,-6.75 2.53562,-1.90539 6.06969,-4.48281 8.71599,-2.80546 2.6463,1.67735 -2.40524,6.34261 -3.35616,9.59467 -1.00651,3.44222 -2.25874,6.89007 -2.47855,10.46967 -0.39971,6.50925 -0.17776,13.35243 2.14385,19.4467 2.86405,7.5182 6.29913,15.71489 13.98743,19.66942 2.32013,0.92795 5.3316,1.22664 7.23744,1 1.90584,-0.22664 3.61838,-0.95425 5,-2.125 1.65789,-1.40486 1.58077,-5.75895 3.5,-5.5 1.91923,0.25895 1.25313,2.76574 1.5,4.875 0.24687,2.10926 0.78362,5.83021 0.625,8.75 -0.27798,5.11678 -0.96613,10.3212 -2.75,15.125 -1.63192,4.3946 -5.17852,9.287 -7.125,12.125 -5.0004,6.06236 -12.27942,9.57901 -19.25,12.875 -2.37017,1.15178 -10.76949,2.24029 -13.625,2.625 -6.1205,-0.0992 -6.57032,0.0389 -12.4808,-1.91218 z"
         id="path20-4"
         sodipodi:nodetypes="zzzzzzzzzzzzzzzzzzazzzzzcaaazcazzaazzcz" />
      <path
         style="display:inline;fill:#feec96;fill-opacity:1;stroke:#feec96;stroke-width:3.77953;stroke-linecap:round;stroke-linejoin:round;stroke-dasharray:none;stroke-opacity:1;paint-order:markers fill stroke"
         d="m 384.25001,422.25001 c 0,0 2.26962,2.32688 4.21594,4.62591 1.18479,1.39949 2.86914,3.85946 3.73393,5.47677 0.97404,1.82162 1.80574,3.72504 2.55013,5.64732 1.02409,2.64457 1.81349,5.39581 2.3125,8.1875 0.32727,1.83087 0.50919,3.70399 0.4375,5.5625 -0.0829,2.14939 -1.51955,4.2877 -1,6.375 0.27677,1.11191 1.04646,2.22028 2.0625,2.75 1.09056,0.56857 2.58366,0.66733 3.6875,0.125 0.62029,-0.30475 1.14982,-0.79935 1.5721,-1.38634 0.77115,-1.07191 1.17654,-3.25872 1.00492,-4.56918 -0.0506,-0.38664 -0.11819,-0.77777 -0.19449,-1.15797 -0.34572,-1.72275 -0.19386,-1.79272 0.52037,-0.18572 0.96254,2.16567 2.16344,5.08302 2.5971,7.04921 0.70754,3.20794 1.21511,6.61996 0.56066,9.83915 -0.89072,4.38137 -2.45531,9.21824 -5.93122,12.03033 -3.30906,2.6771 -8.12533,3.26928 -12.37944,3.13052 -2.97635,-0.0971 -6.06141,-1.0408 -8.5,-2.75 -1.55612,-1.09068 -2.57727,-2.83877 -3.5,-4.5 -0.81934,-1.47509 -1.38282,-3.10306 -1.75,-4.75 -0.58242,-2.61236 -0.96444,-5.33787 -0.6875,-8 0.26119,-2.51073 1.1271,-4.95925 2.1875,-7.25 1.56332,-3.37719 4.38092,-6.05511 6.0625,-9.375 1.34971,-2.66469 2.68235,-5.431 3.1875,-8.375 0.59207,-3.45056 0.31933,-7.04561 -0.25,-10.5 -0.45433,-2.75665 -2.5,-8 -2.5,-8"
         id="path8"
         sodipodi:nodetypes="caaaaasaacaaaaaaaaaaaac"
         inkscape:path-effect="#path-effect17"
         inkscape:original-d="m 384.25001,422.25001 c 0,0 4.48131,4.59438 6.25,7.25 1.75597,2.63653 3.10608,5.54599 4.25,8.5 1.02409,2.64457 1.81349,5.39581 2.3125,8.1875 0.32727,1.83087 0.50919,3.70399 0.4375,5.5625 -0.0829,2.14939 -1.51955,4.2877 -1,6.375 0.27677,1.11191 1.04646,2.22028 2.0625,2.75 1.09056,0.56857 2.58366,0.66733 3.6875,0.125 1.31289,-0.64504 2.21923,-2.14056 2.5625,-3.5625 0.52409,-2.17099 -1,-6.625 -1,-6.625 0,0 3.17008,6.45808 3.9375,9.9375 0.70754,3.20794 1.21511,6.61996 0.56066,9.83915 -0.89072,4.38137 -2.45531,9.21824 -5.93122,12.03033 -3.30906,2.6771 -8.12533,3.26928 -12.37944,3.13052 -2.97635,-0.0971 -6.06141,-1.0408 -8.5,-2.75 -1.55612,-1.09068 -2.57727,-2.83877 -3.5,-4.5 -0.81934,-1.47509 -1.38282,-3.10306 -1.75,-4.75 -0.58242,-2.61236 -0.96444,-5.33787 -0.6875,-8 0.26119,-2.51073 1.1271,-4.95925 2.1875,-7.25 1.56332,-3.37719 4.38092,-6.05511 6.0625,-9.375 1.34971,-2.66469 2.68235,-5.431 3.1875,-8.375 0.59207,-3.45056 0.31933,-7.04561 -0.25,-10.5 -0.45433,-2.75665 -2.5,-8 -2.5,-8"
         transform="rotate(3.058053,493.18475,443.42683)" />
      <path
         style="fill:#fd5505;fill-opacity:1;stroke:#000000;stroke-width:5.22501601;stroke-linecap:round;stroke-linejoin:round;stroke-dasharray:none;stroke-opacity:1;paint-order:fill markers stroke"
         d="m 438.75977,360.97802 c 0,0 2.39609,2.79551 2.91681,4.50781 0.53154,1.7479 0.53784,3.7093 0.0884,5.48008 -0.45761,1.80296 -2.24111,3.06939 -2.74004,4.86136 -0.52971,1.90252 -0.73957,4.02902 -0.17678,5.92202 0.47048,1.58251 1.72468,2.83809 2.82843,4.06586 1.56392,1.73965 5.3033,4.59619 5.3033,4.59619 0,0 1.73367,-2.32514 2.65165,-3.44714 1.1373,-1.39006 2.54792,-2.56576 3.53554,-4.06587 0.971,-1.47486 2.06934,-3.02205 2.29809,-4.77297 0.26424,-2.02256 -0.0794,-4.2736 -1.14905,-6.0104 -0.7602,-1.23437 -3.11493,-2.50183 -3.44714,-2.65165 0,0 -3.11169,-1.00807 -4.50781,-2.03294 -1.39612,-1.02487 -3.62392,-4.06586 -3.62392,-4.06586 -1.02877,-1.15423 -3.97748,-2.38649 -3.97748,-2.38649 z"
         id="path38"
         sodipodi:nodetypes="cssssscssssszsc" />
    </g>
    <g
       id="g5"
       inkscape:label="smoke 1"
       style="display:inline;fill:#ffffff;fill-opacity:0.8;stroke:#808080;stroke-width:2.52226;stroke-dasharray:none;stroke-opacity:1"
       transform="matrix(2.2477062,0,0,2.2477062,-301.36418,-139.05591)">
      <path
         style="display:inline;fill:#ffffff;fill-opacity:0.8;stroke:#808080;stroke-width:2.52226;stroke-linecap:round;stroke-linejoin:round;stroke-dasharray:none;stroke-opacity:1"
         d="m 301.37832,201.63135 c 3.18686,-1.01282 1.19785,-6.71113 2.84991,-9.61846 2.07582,-3.65309 5.27682,-6.62743 8.54974,-9.26221 3.10937,-2.50312 6.57228,-4.71206 10.33093,-6.05607 4.30153,-1.53813 8.97212,-2.31088 13.53709,-2.13743 4.63385,0.17607 9.30326,1.31453 13.53709,3.20615 3.79702,1.69646 7.20214,4.28657 10.24187,7.12478 2.11458,1.97439 3.93873,4.29107 5.43265,6.76854 2.00486,3.32479 0.82636,9.91418 4.63111,10.68718 3.3747,0.68562 5.83841,-4.09815 7.48102,-7.12479 1.31089,-2.41542 2.28111,-5.46545 1.51402,-8.10444 -0.83839,-2.88425 -4.80077,-3.90444 -6.14513,-6.59042 -1.74744,-3.4913 0.21336,-8.36135 -2.06998,-11.52822 -2.26922,-3.14729 -7.18111,-3.15915 -10.22027,-5.57126 -2.58567,-2.05219 -3.95661,-5.40193 -6.59042,-7.39196 -3.47463,-2.62533 -7.47745,-4.88718 -11.75589,-5.69983 -6.14244,-1.1667 -12.83958,-0.74671 -18.70256,1.42496 -4.42094,1.63753 -8.3233,4.79919 -11.39965,8.37162 -1.6637,1.93198 -2.84557,4.32179 -3.56239,6.76854 -0.58639,2.00155 1.02008,4.84358 -0.53436,6.23419 -1.72632,1.54438 -4.80125,-1.05135 -6.94666,-0.17812 -2.91667,1.18716 -5.088,4.00104 -6.59043,6.76854 -1.53936,2.83553 -2.30818,6.21843 -2.13743,9.44034 0.14607,2.75619 1.07705,5.58455 2.67179,7.83726 1.44124,2.03587 3.50074,5.38662 5.87795,4.63111 z"
         id="path1-9"
         sodipodi:nodetypes="aaaaaaaaaaaaaaaaaaaaaaaaa" />
      <path
         style="fill:#ffffff;fill-opacity:0.8;stroke:#808080;stroke-width:2.52226;stroke-linecap:round;stroke-linejoin:round;stroke-dasharray:none;stroke-opacity:1"
         d="m 279.64773,199.49391 c 1.66676,-4.17492 -7.3835,-5.7619 -9.17316,-9.88563 -2.00238,-4.61389 -2.05011,-10.11811 -1.06872,-15.0511 0.73828,-3.71101 2.3726,-7.50593 5.07641,-10.15282 2.22996,-2.18302 5.36419,-3.62036 8.46068,-4.00769 4.44255,-0.5557 9.90555,5.63518 13.18085,2.58273 2.12265,-1.97822 -2.11478,-5.93237 -1.06872,-8.6388 0.80447,-2.08138 2.90749,-3.83944 5.07641,-4.36392 2.22557,-0.53818 4.83912,2.96538 6.67948,1.60307 2.74904,-2.03496 -0.26875,-6.94 0.62342,-10.24187 1.032,-3.81938 2.824,-7.54782 5.34359,-10.59812 2.66218,-3.22293 6.15671,-5.86038 9.93017,-7.65914 3.42869,-1.63442 7.30146,-2.92692 11.08794,-2.62726 2.43343,0.19258 4.97624,1.13431 6.77152,2.78828 1.56043,1.43761 2.0719,3.71296 2.89684,5.66773 1.04245,2.47017 0.0843,6.63267 2.57736,7.61928 2.48838,0.98478 4.54491,-2.92838 7.08025,-3.78504 3.96173,-1.33861 8.27213,-2.77169 12.38356,-2.00797 4.01408,0.74564 7.63708,3.34144 10.57977,6.17152 2.27676,2.18963 4.16012,4.97442 5.0905,7.99311 1.41716,4.59808 -2.75835,10.83779 0.4453,14.42768 2.19716,2.46206 6.83259,-0.0256 9.79658,1.42496 2.88534,1.41204 4.97974,4.13974 6.94666,6.67948 1.81499,2.34357 3.60099,4.88386 4.36393,7.7482 0.99335,3.72935 1.08198,7.84831 0.0891,11.57778 -0.6366,2.39123 -2.08754,4.57086 -3.74051,6.4123 -3.10556,3.45965 -12.64146,3.85565 -11.22153,8.28256 1.80453,5.62598 12.00055,1.73782 17.72289,0.26718 6.12398,-1.57387 12.00995,-4.92213 16.4787,-9.39544 3.72078,-3.72458 6.72573,-8.57646 7.80888,-13.7285 0.84229,-4.00637 1.01751,-8.81481 -1.2595,-12.21711 -1.72384,-2.57575 -7.15251,-1.4865 -8.18672,-4.40823 -1.30608,-3.6898 3.71162,-7.00495 4.53418,-10.83167 0.97969,-4.55773 1.82927,-9.55027 0.37785,-13.9804 -1.40665,-4.29347 -4.33321,-8.56645 -8.31267,-10.70571 -3.41187,-1.83414 -7.77769,-1.58258 -11.58736,-0.88165 -2.32731,0.42819 -4.33455,4.1347 -6.42342,3.02279 -3.41213,-1.81627 -0.0545,-7.99422 -1.7633,-11.46141 -0.59072,-1.19856 -1.70934,-2.08528 -2.77089,-2.89684 -1.74618,-1.33496 -4.61708,-1.29216 -5.79368,-3.14873 -1.98088,-3.12565 0.48957,-7.55643 -0.62975,-11.08356 -1.75128,-5.518507 -5.06487,-10.677942 -9.19431,-14.7361 -4.71424,-4.632867 -10.6518,-8.372347 -17.00319,-10.201914 -7.8685,-2.26658 -16.68596,-2.750448 -24.56017,-0.503798 -7.70419,2.19814 -14.74699,7.184951 -20.15192,13.098753 -3.87699,4.242003 -6.33267,9.759091 -8.06078,15.239899 -0.30535,0.96844 0.43813,2.41838 -0.37784,3.02278 -1.78037,1.31875 -4.33404,-1.10088 -6.54938,-1.13354 -2.37467,-0.035 -4.97495,-0.14187 -7.05318,1.00759 -3.12814,1.73017 -5.43755,4.93717 -6.92722,8.18673 -1.116,2.43444 -1.20955,5.25723 -1.2595,7.93482 -0.0457,2.45227 2.67908,5.63625 0.88165,7.30507 -2.13917,1.98611 -5.67423,-1.61665 -8.59231,-1.69063 -4.97761,-0.1262 -10.35434,-0.13662 -14.78392,2.13743 -4.7629,2.44517 -8.63734,6.84086 -11.13248,11.57778 -2.52886,4.80093 -4.01799,10.56382 -3.29521,15.9417 0.47925,3.5659 5.21684,6.03462 4.89829,9.61845 -0.21763,2.44843 -3.76242,3.51887 -4.45299,5.87795 -1.27165,4.3441 -0.8896,9.45624 1.06872,13.53709 1.48104,3.08627 4.71617,5.01726 7.48102,7.03572 3.75644,2.74236 7.66407,5.74584 12.20119,6.76854 2.75667,0.62137 7.41289,2.09005 8.46064,-0.53436 z"
         id="path2-5"
         sodipodi:nodetypes="aaaaaaaaaaaaaaaaaaaaaaaaaaaaaaaaaaaaaaaaaaaaaaaaaaaaaaaaaaaaaa" />
      <path
         style="fill:#ffffff;fill-opacity:0.8;stroke:#808080;stroke-width:2.52226;stroke-linecap:round;stroke-linejoin:round;stroke-dasharray:none;stroke-opacity:1"
         d="m 277.59283,114.61409 c 3.95371,-2.70174 2.88921,-9.48601 6.17152,-12.9728 3.15561,-3.352202 7.79519,-5.020107 12.09116,-6.675325 3.42089,-1.318051 9.08432,0.768991 10.70571,-2.518991 1.44605,-2.932411 -1.40778,-6.989965 -4.03038,-8.942418 -2.03842,-1.517551 -5.09818,-1.649793 -7.55698,-1.007597 -2.03103,0.530468 -2.9474,3.968033 -5.03798,3.778487 -2.27826,-0.206561 -2.55105,-4.152036 -4.66013,-5.037982 -2.6719,-1.122364 -6.04516,-0.93166 -8.69052,0.251899 -3.00898,1.346248 -5.68538,4.07733 -6.80128,7.179125 -0.84044,2.336115 1.82145,5.326845 0.5038,7.431023 -1.12959,1.803854 -4.58816,0.732609 -5.91963,2.393042 -2.07687,2.589997 -2.28624,6.568237 -1.63734,9.824067 0.54191,2.719 1.9364,5.79751 4.40823,7.05317 3.11485,1.5823 7.56928,1.21543 10.45382,-0.7557 z"
         id="path3-1"
         sodipodi:nodetypes="aaaaaaaaaaaaaaa" />
      <path
         style="fill:#ffffff;fill-opacity:0.8;stroke:#808080;stroke-width:2.52226;stroke-linecap:round;stroke-linejoin:round;stroke-dasharray:none;stroke-opacity:1"
         d="m 396.22699,100.28132 c -0.95239,-1.881013 -0.38063,-4.702959 1.06871,-6.234187 1.46534,-1.548136 4.22828,-2.146267 6.23419,-1.424956 0.91635,0.329512 0.80873,2.264594 1.78119,2.315554 1.67755,0.08791 1.86428,-3.168918 3.47334,-3.651451 2.39348,-0.71777 5.34493,0.139612 7.3029,1.692136 1.7373,1.377551 2.59965,3.775951 2.93897,5.967005 0.30328,1.958329 -1.59396,4.025289 -0.8906,5.877939 0.41148,1.08382 2.16284,1.18489 2.6718,2.2265 1.18665,2.42854 1.51958,5.70915 0.26718,8.10444 -0.83556,1.59806 -2.81257,2.42823 -4.54205,2.93897 -1.65132,0.48766 -3.93265,1.20201 -5.16547,0 -1.67973,-1.63774 0.67173,-4.84907 -0.17812,-7.03572 -1.09766,-2.82426 -3.51011,-5.0842 -5.96701,-6.8576 -2.06086,-1.48754 -4.72511,-1.88022 -7.03572,-2.93898 -0.66382,-0.30417 -1.62947,-0.3282 -1.95931,-0.97965 z"
         id="path4-8"
         sodipodi:nodetypes="aaaaaaaaaaaaaaaa" />
      <path
         style="fill:#ffffff;fill-opacity:0.8;stroke:#808080;stroke-width:2.52226;stroke-linecap:round;stroke-linejoin:round;stroke-dasharray:none;stroke-opacity:1"
         d="m 442.52377,151.26541 c -2.1842,-0.8158 -5.25415,-1.3045 -6.9902,0.2519 -1.40583,1.26035 -1.53847,3.85927 -0.81868,5.60476 0.6002,1.45547 3.08153,1.42216 3.77849,2.83386 0.92003,1.86354 -1.14139,4.45791 -0.063,6.23451 0.81837,1.34823 2.64215,2.14358 4.21931,2.14114 2.07477,-0.003 4.62347,-0.97339 5.54178,-2.83387 0.67063,-1.35869 -0.15739,-3.10795 -0.81868,-4.47121 -0.51281,-1.05715 -1.95383,-1.53184 -2.33006,-2.64494 -0.47841,-1.41543 0.86181,-3.08082 0.31487,-4.47121 -0.473,-1.20244 -1.62338,-2.19283 -2.83383,-2.64494 z"
         id="path5-4"
         sodipodi:nodetypes="aaaaaaaaaaa" />
    </g>
  </g>
</svg>
